M48
;Layer_Color=9474304
;FILE_FORMAT=4:4
METRIC,LZ
;TYPE=PLATED
T1F00S00C0.3000
T3F00S00C1.0000
T4F00S00C1.1000
T5F00S00C1.3000
;TYPE=NON_PLATED
T6F00S00C0.7000
%
T01
X005Y00032
X004935Y000785
X00468Y00077
X00503Y0014
X004935Y00157
X00522Y001549
X0057425Y00155
X00581Y0014
X00425Y001384
X00419258Y00108
X00432Y000771
X0041Y00057
X00298Y00042695
X00291Y00049
X00263Y00068
X0024035Y0004935
X002305Y00049
X00211478
X00223Y00076
X00205Y00097
X001755Y000735
X00152Y00151622
X00222Y00164
X002565Y00122
X00257Y00027
X000145Y00495
Y00575
X00085Y0058
X00084Y00541
Y005325
X0006922Y00522
X00057
X00106Y005165
X0013675Y0053675
X0014Y00564902
X0016525Y00554
X00185Y00565
X00195
X00205Y00564902
X002105Y00554
X0021085Y0051085
X00202478Y00457
X001985Y0041925
X00154Y0042
X00145Y004577
X001335Y00488
X0014Y00383
X0019961Y00374
X00198Y00351
X00222Y00279
X00225Y00245
X00292Y00234
X00317Y00218
X00408Y00223
Y00263
X00404258Y00423686
X00419258
Y00438686
Y00453686
X00434258
Y00438686
Y00423686
X00404258Y00438686
Y00453686
X00385Y0058
X003538Y00557925
X003157Y00558
X00303
X002776Y00557925
X00285Y0058
X00185
X00152Y00292
X00513Y00295
X00528Y00317
X005365Y00309
X0056775Y00274771
X00614Y00266
X005824Y00332
X00536Y00226
X0052875Y0021525
X0054825Y0020675
X006265Y00447
X00641
X00654
X00691Y00466
X00688Y00503
Y00524
Y005449
X00685Y0058
X00778
X00798
X00795Y00515
X00773Y00443
Y004323
X00785Y0036
X00712Y00491
X006265Y00503
Y00524
X006265Y005449
X005824Y005602
X00585Y0058
X005188Y00561
X0049325Y0055675
X004808
X00485Y0058
X00447Y0056
T03
X007839Y0006255
Y0010745
Y0018255
X000145Y00523
Y00547
X007839Y0032745
Y0028255
Y0022745
T04
X000804Y001619
Y001873
Y002127
Y002381
Y002719
Y002973
Y003227
Y003481
Y003819
Y004073
Y004327
Y004581
T05
X00759Y0004995
Y0012005
Y0016995
Y0024005
Y0026995
Y0034005
T06
X00039Y0051425
Y0055575
M30
