G04*
G04 #@! TF.GenerationSoftware,Altium Limited,Altium Designer,19.0.14 (431)*
G04*
G04 Layer_Color=16711935*
%FSLAX44Y44*%
%MOMM*%
G71*
G01*
G75*
%ADD14C,0.2000*%
%ADD79C,0.9032*%
%ADD80C,1.8532*%
%ADD81R,1.8532X1.8532*%
G04:AMPARAMS|DCode=82|XSize=2.2032mm|YSize=1.5032mm|CornerRadius=0.4266mm|HoleSize=0mm|Usage=FLASHONLY|Rotation=180.000|XOffset=0mm|YOffset=0mm|HoleType=Round|Shape=RoundedRectangle|*
%AMROUNDEDRECTD82*
21,1,2.2032,0.6500,0,0,180.0*
21,1,1.3500,1.5032,0,0,180.0*
1,1,0.8532,-0.6750,0.3250*
1,1,0.8532,0.6750,0.3250*
1,1,0.8532,0.6750,-0.3250*
1,1,0.8532,-0.6750,-0.3250*
%
%ADD82ROUNDEDRECTD82*%
G04:AMPARAMS|DCode=83|XSize=2.2032mm|YSize=1.5032mm|CornerRadius=0.4266mm|HoleSize=0mm|Usage=FLASHONLY|Rotation=90.000|XOffset=0mm|YOffset=0mm|HoleType=Round|Shape=RoundedRectangle|*
%AMROUNDEDRECTD83*
21,1,2.2032,0.6500,0,0,90.0*
21,1,1.3500,1.5032,0,0,90.0*
1,1,0.8532,0.3250,0.6750*
1,1,0.8532,0.3250,-0.6750*
1,1,0.8532,-0.3250,-0.6750*
1,1,0.8532,-0.3250,0.6750*
%
%ADD83ROUNDEDRECTD83*%
%ADD84C,1.9032*%
%ADD85C,1.6032*%
%ADD86C,0.8032*%
%ADD87C,1.0032*%
%ADD88C,1.7032*%
%ADD106R,2.1032X2.1032*%
%ADD107R,2.1032X2.0032*%
%ADD108R,1.5532X0.6032*%
D14*
X0Y0D02*
X810000D01*
X0D02*
X0Y610000D01*
X810000D01*
Y0D02*
Y610000D01*
D79*
X39000Y514250D02*
D03*
Y555750D02*
D03*
D80*
X80400Y432700D02*
D03*
Y407300D02*
D03*
Y381900D02*
D03*
Y212700D02*
D03*
Y187300D02*
D03*
Y161900D02*
D03*
Y271900D02*
D03*
Y297300D02*
D03*
Y322700D02*
D03*
D81*
Y458100D02*
D03*
Y238100D02*
D03*
Y348100D02*
D03*
D82*
X99000Y130500D02*
D03*
X85000Y106500D02*
D03*
X54000Y34500D02*
D03*
D83*
X131000Y40000D02*
D03*
X21000Y80000D02*
D03*
D84*
X759000Y120050D02*
D03*
Y49950D02*
D03*
Y240050D02*
D03*
Y169950D02*
D03*
Y340050D02*
D03*
Y269950D02*
D03*
D85*
X783900Y107450D02*
D03*
Y62550D02*
D03*
Y227450D02*
D03*
Y182550D02*
D03*
Y327450D02*
D03*
Y282550D02*
D03*
D86*
X795000Y515000D02*
D03*
X133500Y488000D02*
D03*
X165250Y554000D02*
D03*
X195000Y565000D02*
D03*
X106000Y516500D02*
D03*
X140000Y564902D02*
D03*
X185000Y565000D02*
D03*
X84000Y532500D02*
D03*
Y541000D02*
D03*
X57000Y522000D02*
D03*
X69220D02*
D03*
X198000Y351000D02*
D03*
X298000Y42695D02*
D03*
X240350Y49350D02*
D03*
X685000Y580000D02*
D03*
X585000D02*
D03*
X485000D02*
D03*
X385000D02*
D03*
X285000D02*
D03*
X185000D02*
D03*
X85000D02*
D03*
X205000Y97000D02*
D03*
X408000Y263000D02*
D03*
X518800Y561000D02*
D03*
X205000Y564902D02*
D03*
X447000Y560000D02*
D03*
X480800Y556750D02*
D03*
X493250D02*
D03*
X773000Y432300D02*
D03*
Y443000D02*
D03*
X688000Y503000D02*
D03*
Y524000D02*
D03*
Y544900D02*
D03*
X626500Y447000D02*
D03*
X654000D02*
D03*
X641000D02*
D03*
X691000Y466000D02*
D03*
X712000Y491000D02*
D03*
X626500Y503000D02*
D03*
Y524000D02*
D03*
X626500Y544900D02*
D03*
X291000Y49000D02*
D03*
X493500Y157000D02*
D03*
X528750Y215250D02*
D03*
X528000Y317000D02*
D03*
X493500Y78500D02*
D03*
X536000Y226000D02*
D03*
X536500Y309000D02*
D03*
X513000Y295000D02*
D03*
X145000Y457700D02*
D03*
X614000Y266000D02*
D03*
X785000Y360000D02*
D03*
X468000Y77000D02*
D03*
X548250Y206750D02*
D03*
X175500Y73500D02*
D03*
X257000Y27000D02*
D03*
X230500Y49000D02*
D03*
X152000Y292000D02*
D03*
X199610Y374000D02*
D03*
X154000Y420000D02*
D03*
X140000Y383000D02*
D03*
X581000Y140000D02*
D03*
X503000D02*
D03*
X574250Y155000D02*
D03*
X522000Y154900D02*
D03*
X567750Y274771D02*
D03*
X353800Y557925D02*
D03*
X315700Y558000D02*
D03*
X303000D02*
D03*
X277600Y557925D02*
D03*
X292000Y234000D02*
D03*
X425000Y138400D02*
D03*
X408000Y223000D02*
D03*
X317000Y218000D02*
D03*
X223000Y76000D02*
D03*
X210850Y510850D02*
D03*
X210500Y554000D02*
D03*
X202478Y457000D02*
D03*
X432000Y77100D02*
D03*
X256500Y122000D02*
D03*
X211478Y49000D02*
D03*
X225000Y245000D02*
D03*
X263000Y68000D02*
D03*
X222000Y279000D02*
D03*
X136750Y536750D02*
D03*
X798000Y580000D02*
D03*
X778000D02*
D03*
X582400Y560200D02*
D03*
X419258Y453686D02*
D03*
X434258Y438686D02*
D03*
X419258Y423686D02*
D03*
X404258Y438686D02*
D03*
X419258D02*
D03*
X434258Y453686D02*
D03*
Y423686D02*
D03*
X404258D02*
D03*
Y453686D02*
D03*
X198500Y419250D02*
D03*
X582400Y332000D02*
D03*
X419258Y108000D02*
D03*
X500000Y32000D02*
D03*
X410000Y57000D02*
D03*
X222000Y164000D02*
D03*
X152000Y151622D02*
D03*
D87*
X14500Y575000D02*
D03*
Y495000D02*
D03*
D88*
Y523000D02*
D03*
Y547000D02*
D03*
D106*
Y523000D02*
D03*
Y547000D02*
D03*
D107*
Y495000D02*
D03*
Y575000D02*
D03*
D108*
X41250Y522000D02*
D03*
Y548000D02*
D03*
Y528500D02*
D03*
Y535000D02*
D03*
Y541500D02*
D03*
M02*
