G04*
G04 #@! TF.GenerationSoftware,Altium Limited,Altium Designer,19.0.14 (431)*
G04*
G04 Layer_Color=8388736*
%FSLAX44Y44*%
%MOMM*%
G71*
G01*
G75*
%ADD14C,0.2000*%
%ADD36R,0.8128X0.3048*%
%ADD37R,0.3048X0.8128*%
%ADD44R,1.2954X2.6924*%
%ADD49C,3.0480*%
%ADD50R,1.1032X1.1032*%
%ADD51R,1.7032X1.7032*%
%ADD52R,0.6200X0.6200*%
%ADD53R,0.6200X0.6200*%
%ADD54R,0.5500X0.6500*%
%ADD55C,1.1938*%
%ADD56R,1.2032X0.8032*%
%ADD57R,0.9032X1.1032*%
%ADD58R,1.0532X1.5032*%
%ADD59R,1.1032X0.9032*%
%ADD60R,0.6500X0.5500*%
%ADD61O,0.5500X2.2000*%
%ADD62R,1.5032X1.0532*%
%ADD63R,1.1532X1.9032*%
%ADD64R,1.2032X0.9032*%
%ADD65R,0.8032X1.3032*%
%ADD66R,1.9032X1.1532*%
%ADD67R,5.1032X1.7532*%
%ADD68R,1.2446X1.2446*%
%ADD69R,2.0032X1.5032*%
%ADD70R,2.3032X2.3032*%
%ADD71O,0.9532X0.5032*%
%ADD72O,0.5032X0.9532*%
G04:AMPARAMS|DCode=73|XSize=0.6032mm|YSize=0.8532mm|CornerRadius=0.1516mm|HoleSize=0mm|Usage=FLASHONLY|Rotation=270.000|XOffset=0mm|YOffset=0mm|HoleType=Round|Shape=RoundedRectangle|*
%AMROUNDEDRECTD73*
21,1,0.6032,0.5500,0,0,270.0*
21,1,0.3000,0.8532,0,0,270.0*
1,1,0.3032,-0.2750,-0.1500*
1,1,0.3032,-0.2750,0.1500*
1,1,0.3032,0.2750,0.1500*
1,1,0.3032,0.2750,-0.1500*
%
%ADD73ROUNDEDRECTD73*%
%ADD74R,2.1032X2.6032*%
%ADD75O,0.8032X2.4032*%
%ADD76R,1.0632X1.7032*%
%ADD77R,1.7032X1.0632*%
%ADD78R,6.1622X6.2442*%
%ADD79C,0.9032*%
%ADD80C,1.8532*%
%ADD81R,1.8532X1.8532*%
G04:AMPARAMS|DCode=82|XSize=2.2032mm|YSize=1.5032mm|CornerRadius=0.4266mm|HoleSize=0mm|Usage=FLASHONLY|Rotation=180.000|XOffset=0mm|YOffset=0mm|HoleType=Round|Shape=RoundedRectangle|*
%AMROUNDEDRECTD82*
21,1,2.2032,0.6500,0,0,180.0*
21,1,1.3500,1.5032,0,0,180.0*
1,1,0.8532,-0.6750,0.3250*
1,1,0.8532,0.6750,0.3250*
1,1,0.8532,0.6750,-0.3250*
1,1,0.8532,-0.6750,-0.3250*
%
%ADD82ROUNDEDRECTD82*%
G04:AMPARAMS|DCode=83|XSize=2.2032mm|YSize=1.5032mm|CornerRadius=0.4266mm|HoleSize=0mm|Usage=FLASHONLY|Rotation=90.000|XOffset=0mm|YOffset=0mm|HoleType=Round|Shape=RoundedRectangle|*
%AMROUNDEDRECTD83*
21,1,2.2032,0.6500,0,0,90.0*
21,1,1.3500,1.5032,0,0,90.0*
1,1,0.8532,0.3250,0.6750*
1,1,0.8532,0.3250,-0.6750*
1,1,0.8532,-0.3250,-0.6750*
1,1,0.8532,-0.3250,0.6750*
%
%ADD83ROUNDEDRECTD83*%
%ADD84C,1.9032*%
%ADD85C,1.6032*%
%ADD86C,0.8032*%
%ADD87C,1.0032*%
%ADD88C,1.7032*%
D14*
X0Y0D02*
X810000D01*
X0D02*
X0Y610000D01*
X810000D01*
Y0D02*
Y610000D01*
D36*
X237478Y68500D02*
D03*
Y73500D02*
D03*
Y78500D02*
D03*
Y83500D02*
D03*
X208522D02*
D03*
Y78500D02*
D03*
Y73500D02*
D03*
Y68500D02*
D03*
D37*
X230500Y90478D02*
D03*
X225500D02*
D03*
X220500D02*
D03*
X215500D02*
D03*
Y61522D02*
D03*
X220500D02*
D03*
X225500D02*
D03*
X230500D02*
D03*
D44*
X276903Y75478D02*
D03*
X305097D02*
D03*
X276903Y113478D02*
D03*
X305097D02*
D03*
X375097Y243000D02*
D03*
X346903D02*
D03*
X180097D02*
D03*
X151903D02*
D03*
X375097Y203000D02*
D03*
X346903D02*
D03*
X180097D02*
D03*
X151903D02*
D03*
D49*
X710009Y40088D02*
D03*
X753009Y550088D02*
D03*
X170088Y39991D02*
D03*
D50*
X789500Y545000D02*
D03*
D51*
X795000Y527500D02*
D03*
Y562500D02*
D03*
D52*
X255000Y74500D02*
D03*
Y82500D02*
D03*
X292000Y217000D02*
D03*
Y225000D02*
D03*
X529000Y295000D02*
D03*
Y287000D02*
D03*
X580750Y155000D02*
D03*
Y163000D02*
D03*
X554750Y155000D02*
D03*
Y163000D02*
D03*
X528750Y155000D02*
D03*
Y163000D02*
D03*
X515750Y155000D02*
D03*
Y163000D02*
D03*
X136500Y411757D02*
D03*
Y419757D02*
D03*
X757000Y466000D02*
D03*
Y458000D02*
D03*
X133500Y503000D02*
D03*
Y495000D02*
D03*
X503000Y125000D02*
D03*
Y133000D02*
D03*
X580750Y125000D02*
D03*
Y133000D02*
D03*
X410000Y73000D02*
D03*
Y65000D02*
D03*
X614000Y251000D02*
D03*
Y259000D02*
D03*
X401000Y81500D02*
D03*
Y89500D02*
D03*
X295000Y155672D02*
D03*
Y147672D02*
D03*
X304000Y285000D02*
D03*
Y293000D02*
D03*
D53*
X229500Y103000D02*
D03*
X221500D02*
D03*
X511000Y561000D02*
D03*
X503000D02*
D03*
X255000Y61522D02*
D03*
X263000D02*
D03*
X183000Y73500D02*
D03*
X191000D02*
D03*
X188100Y368000D02*
D03*
X180100D02*
D03*
X206197Y419250D02*
D03*
X214197D02*
D03*
X160500Y420000D02*
D03*
X168500D02*
D03*
X719000Y491000D02*
D03*
X727000D02*
D03*
X173000Y565000D02*
D03*
X165000D02*
D03*
X237000Y122000D02*
D03*
X245000D02*
D03*
X197000Y113000D02*
D03*
X205000D02*
D03*
X240350Y27000D02*
D03*
X248350D02*
D03*
X201850Y37000D02*
D03*
X209850D02*
D03*
X454000Y77000D02*
D03*
X462000D02*
D03*
X195000Y168000D02*
D03*
X187000D02*
D03*
X196000Y278000D02*
D03*
X188000D02*
D03*
D54*
X169500Y457700D02*
D03*
X160500D02*
D03*
X639500Y251000D02*
D03*
X630500D02*
D03*
X225000Y368000D02*
D03*
X216000D02*
D03*
X169000D02*
D03*
X160000D02*
D03*
X90500Y532500D02*
D03*
X99500D02*
D03*
X90500Y541000D02*
D03*
X99500D02*
D03*
X211478Y465000D02*
D03*
X202478D02*
D03*
X229500Y511000D02*
D03*
X220500D02*
D03*
X229000Y465000D02*
D03*
X220000D02*
D03*
X215500Y113000D02*
D03*
X224500D02*
D03*
X236500D02*
D03*
X245500D02*
D03*
X215500Y122000D02*
D03*
X224500D02*
D03*
X220350Y37000D02*
D03*
X229350D02*
D03*
X240350D02*
D03*
X249350D02*
D03*
X220350Y27000D02*
D03*
X229350D02*
D03*
X536500Y154900D02*
D03*
X545500D02*
D03*
X462500Y66000D02*
D03*
X453500D02*
D03*
X166500Y269950D02*
D03*
X175500D02*
D03*
X175500Y278000D02*
D03*
X166500D02*
D03*
X166500Y177000D02*
D03*
X175500D02*
D03*
X175500Y168000D02*
D03*
X166500D02*
D03*
X277000Y267622D02*
D03*
X286000D02*
D03*
X186500Y177000D02*
D03*
X195500D02*
D03*
X187500Y269950D02*
D03*
X196500D02*
D03*
D55*
X225250Y351000D02*
D03*
X169000D02*
D03*
X198000D02*
D03*
X408000Y203000D02*
D03*
Y243000D02*
D03*
X425000Y138400D02*
D03*
X408000Y223000D02*
D03*
X463000Y138400D02*
D03*
X408000Y263000D02*
D03*
D56*
X198750Y402000D02*
D03*
Y392500D02*
D03*
Y383000D02*
D03*
X226250D02*
D03*
Y402000D02*
D03*
X150750D02*
D03*
Y392500D02*
D03*
Y383000D02*
D03*
X178250D02*
D03*
Y402000D02*
D03*
D57*
X455400Y560000D02*
D03*
X469400D02*
D03*
X249000Y49000D02*
D03*
X263000D02*
D03*
D58*
X626500Y180000D02*
D03*
X643500D02*
D03*
X626500Y200000D02*
D03*
X643500D02*
D03*
X626500Y220000D02*
D03*
X643500D02*
D03*
X577500Y311350D02*
D03*
X594500D02*
D03*
D59*
X502750Y295000D02*
D03*
Y281000D02*
D03*
X317000Y193000D02*
D03*
Y207000D02*
D03*
X273000Y145000D02*
D03*
Y159000D02*
D03*
X317000Y243000D02*
D03*
Y229000D02*
D03*
X273000Y298500D02*
D03*
Y284500D02*
D03*
X347000Y283000D02*
D03*
Y297000D02*
D03*
X332000Y283000D02*
D03*
Y297000D02*
D03*
X317000Y283000D02*
D03*
Y297000D02*
D03*
X347000Y159000D02*
D03*
Y145000D02*
D03*
X332000Y159000D02*
D03*
Y145000D02*
D03*
X317000Y159000D02*
D03*
Y145000D02*
D03*
D60*
X591000Y295500D02*
D03*
Y286500D02*
D03*
X581000Y295500D02*
D03*
Y286500D02*
D03*
X188100Y386500D02*
D03*
Y377500D02*
D03*
X136500Y392500D02*
D03*
Y401500D02*
D03*
X788250Y500000D02*
D03*
Y491000D02*
D03*
X739000Y457500D02*
D03*
Y466500D02*
D03*
X748000Y466500D02*
D03*
Y457500D02*
D03*
X410000Y99000D02*
D03*
Y108000D02*
D03*
Y81000D02*
D03*
Y90000D02*
D03*
X317000Y179500D02*
D03*
Y170500D02*
D03*
X261350Y177500D02*
D03*
Y168500D02*
D03*
X317000Y257500D02*
D03*
Y266500D02*
D03*
X304000Y156122D02*
D03*
Y147122D02*
D03*
X248350Y177500D02*
D03*
Y168500D02*
D03*
X295000Y284500D02*
D03*
Y293500D02*
D03*
X261350Y267500D02*
D03*
Y276500D02*
D03*
X286000Y147172D02*
D03*
Y156172D02*
D03*
Y293500D02*
D03*
Y284500D02*
D03*
D61*
X502750Y189500D02*
D03*
X509250D02*
D03*
X515750D02*
D03*
X522250D02*
D03*
X528750D02*
D03*
X535250D02*
D03*
X541750D02*
D03*
X548250D02*
D03*
X554750D02*
D03*
X561250D02*
D03*
X567750D02*
D03*
X574250D02*
D03*
X580750D02*
D03*
X587250D02*
D03*
X502750Y258500D02*
D03*
X509250D02*
D03*
X515750D02*
D03*
X522250D02*
D03*
X528750D02*
D03*
X535250D02*
D03*
X541750D02*
D03*
X548250D02*
D03*
X554750D02*
D03*
X561250D02*
D03*
X567750D02*
D03*
X574250D02*
D03*
X580750D02*
D03*
X587250D02*
D03*
D62*
X118000Y419500D02*
D03*
Y402500D02*
D03*
D63*
X647000Y503000D02*
D03*
X675000D02*
D03*
X647000Y524000D02*
D03*
X675000D02*
D03*
X647000Y544900D02*
D03*
X675000D02*
D03*
D64*
X727000Y475500D02*
D03*
Y466000D02*
D03*
Y456500D02*
D03*
X701000D02*
D03*
Y466000D02*
D03*
Y475500D02*
D03*
D65*
X229850Y498000D02*
D03*
X210850D02*
D03*
X220350Y480000D02*
D03*
X229500Y542500D02*
D03*
X210500D02*
D03*
X220000Y524500D02*
D03*
D66*
X678000Y452000D02*
D03*
Y480000D02*
D03*
D67*
X641000Y479250D02*
D03*
Y434750D02*
D03*
D68*
X223000Y76000D02*
D03*
D69*
X167000Y151000D02*
D03*
X193000D02*
D03*
X222000D02*
D03*
X248000D02*
D03*
X167000Y292000D02*
D03*
X193000D02*
D03*
X222000D02*
D03*
X248000D02*
D03*
D70*
X136750Y536750D02*
D03*
D71*
X157000Y546500D02*
D03*
Y540000D02*
D03*
Y533500D02*
D03*
Y527000D02*
D03*
X116500D02*
D03*
Y533500D02*
D03*
Y540000D02*
D03*
Y546500D02*
D03*
D72*
X146500Y516500D02*
D03*
X140000D02*
D03*
X133500D02*
D03*
X127000D02*
D03*
Y557000D02*
D03*
X133500D02*
D03*
X140000D02*
D03*
X146500D02*
D03*
D73*
X442250Y77100D02*
D03*
Y83600D02*
D03*
Y90100D02*
D03*
X421750D02*
D03*
Y77100D02*
D03*
D74*
X520500Y125000D02*
D03*
X561500D02*
D03*
D75*
X274050Y245000D02*
D03*
X261350D02*
D03*
X248650D02*
D03*
X235950D02*
D03*
X274050Y197000D02*
D03*
X261350D02*
D03*
X248650D02*
D03*
X235950D02*
D03*
D76*
X582400Y544900D02*
D03*
X569700Y545000D02*
D03*
X557000D02*
D03*
X544300D02*
D03*
X531600D02*
D03*
X518900D02*
D03*
X506200D02*
D03*
X493500D02*
D03*
X480800D02*
D03*
X468100D02*
D03*
X455400D02*
D03*
X442700D02*
D03*
X430000D02*
D03*
X417300D02*
D03*
X404600D02*
D03*
X391900D02*
D03*
X379200D02*
D03*
X366500D02*
D03*
X353800D02*
D03*
X341100D02*
D03*
X328400D02*
D03*
X315700D02*
D03*
X303000D02*
D03*
X290300D02*
D03*
X277600D02*
D03*
Y344900D02*
D03*
X290300D02*
D03*
X303000D02*
D03*
X315700D02*
D03*
X328400D02*
D03*
X341100D02*
D03*
X353800D02*
D03*
X366500D02*
D03*
X379200D02*
D03*
X391900D02*
D03*
X404600D02*
D03*
X417300D02*
D03*
X430000D02*
D03*
X442700D02*
D03*
X455400D02*
D03*
X468100D02*
D03*
X480800D02*
D03*
X493500D02*
D03*
X506200D02*
D03*
X518900D02*
D03*
X531600D02*
D03*
X544300D02*
D03*
X557000D02*
D03*
X569700D02*
D03*
X582400D02*
D03*
D77*
X260100Y368800D02*
D03*
Y381500D02*
D03*
Y394200D02*
D03*
Y406900D02*
D03*
Y419600D02*
D03*
Y432300D02*
D03*
Y445000D02*
D03*
Y457700D02*
D03*
Y470400D02*
D03*
Y483100D02*
D03*
Y495800D02*
D03*
Y508500D02*
D03*
Y521200D02*
D03*
D78*
X418258Y438686D02*
D03*
D79*
X39000Y514250D02*
D03*
Y555750D02*
D03*
D80*
X80400Y432700D02*
D03*
Y407300D02*
D03*
Y381900D02*
D03*
Y212700D02*
D03*
Y187300D02*
D03*
Y161900D02*
D03*
Y271900D02*
D03*
Y297300D02*
D03*
Y322700D02*
D03*
D81*
Y458100D02*
D03*
Y238100D02*
D03*
Y348100D02*
D03*
D82*
X99000Y130500D02*
D03*
X85000Y106500D02*
D03*
X54000Y34500D02*
D03*
D83*
X131000Y40000D02*
D03*
X21000Y80000D02*
D03*
D84*
X759000Y120050D02*
D03*
Y49950D02*
D03*
Y240050D02*
D03*
Y169950D02*
D03*
Y340050D02*
D03*
Y269950D02*
D03*
D85*
X783900Y107450D02*
D03*
Y62550D02*
D03*
Y227450D02*
D03*
Y182550D02*
D03*
Y327450D02*
D03*
Y282550D02*
D03*
D86*
X795000Y515000D02*
D03*
X133500Y488000D02*
D03*
X165250Y554000D02*
D03*
X195000Y565000D02*
D03*
X106000Y516500D02*
D03*
X140000Y564902D02*
D03*
X185000Y565000D02*
D03*
X84000Y532500D02*
D03*
Y541000D02*
D03*
X57000Y522000D02*
D03*
X69220D02*
D03*
X198000Y351000D02*
D03*
X298000Y42695D02*
D03*
X240350Y49350D02*
D03*
X685000Y580000D02*
D03*
X585000D02*
D03*
X485000D02*
D03*
X385000D02*
D03*
X285000D02*
D03*
X185000D02*
D03*
X85000D02*
D03*
X205000Y97000D02*
D03*
X408000Y263000D02*
D03*
X518800Y561000D02*
D03*
X205000Y564902D02*
D03*
X447000Y560000D02*
D03*
X480800Y556750D02*
D03*
X493250D02*
D03*
X773000Y432300D02*
D03*
Y443000D02*
D03*
X688000Y503000D02*
D03*
Y524000D02*
D03*
Y544900D02*
D03*
X626500Y447000D02*
D03*
X654000D02*
D03*
X641000D02*
D03*
X691000Y466000D02*
D03*
X712000Y491000D02*
D03*
X626500Y503000D02*
D03*
Y524000D02*
D03*
X626500Y544900D02*
D03*
X291000Y49000D02*
D03*
X493500Y157000D02*
D03*
X528750Y215250D02*
D03*
X528000Y317000D02*
D03*
X493500Y78500D02*
D03*
X536000Y226000D02*
D03*
X536500Y309000D02*
D03*
X513000Y295000D02*
D03*
X145000Y457700D02*
D03*
X614000Y266000D02*
D03*
X785000Y360000D02*
D03*
X468000Y77000D02*
D03*
X548250Y206750D02*
D03*
X175500Y73500D02*
D03*
X257000Y27000D02*
D03*
X230500Y49000D02*
D03*
X152000Y292000D02*
D03*
X199610Y374000D02*
D03*
X154000Y420000D02*
D03*
X140000Y383000D02*
D03*
X581000Y140000D02*
D03*
X503000D02*
D03*
X574250Y155000D02*
D03*
X522000Y154900D02*
D03*
X567750Y274771D02*
D03*
X353800Y557925D02*
D03*
X315700Y558000D02*
D03*
X303000D02*
D03*
X277600Y557925D02*
D03*
X292000Y234000D02*
D03*
X425000Y138400D02*
D03*
X408000Y223000D02*
D03*
X317000Y218000D02*
D03*
X223000Y76000D02*
D03*
X210850Y510850D02*
D03*
X210500Y554000D02*
D03*
X202478Y457000D02*
D03*
X432000Y77100D02*
D03*
X256500Y122000D02*
D03*
X211478Y49000D02*
D03*
X225000Y245000D02*
D03*
X263000Y68000D02*
D03*
X222000Y279000D02*
D03*
X136750Y536750D02*
D03*
X798000Y580000D02*
D03*
X778000D02*
D03*
X582400Y560200D02*
D03*
X419258Y453686D02*
D03*
X434258Y438686D02*
D03*
X419258Y423686D02*
D03*
X404258Y438686D02*
D03*
X419258D02*
D03*
X434258Y453686D02*
D03*
Y423686D02*
D03*
X404258D02*
D03*
Y453686D02*
D03*
X198500Y419250D02*
D03*
X582400Y332000D02*
D03*
X419258Y108000D02*
D03*
X500000Y32000D02*
D03*
X410000Y57000D02*
D03*
X222000Y164000D02*
D03*
X152000Y151622D02*
D03*
D87*
X14500Y575000D02*
D03*
Y495000D02*
D03*
D88*
Y523000D02*
D03*
Y547000D02*
D03*
M02*
