G04*
G04 #@! TF.GenerationSoftware,Altium Limited,Altium Designer,19.0.14 (431)*
G04*
G04 Layer_Physical_Order=2*
G04 Layer_Color=16711680*
%FSLAX44Y44*%
%MOMM*%
G71*
G01*
G75*
%ADD13C,0.4000*%
%ADD14C,0.2000*%
%ADD16C,0.2540*%
%ADD93C,0.7000*%
%ADD94C,1.6500*%
%ADD95R,1.6500X1.6500*%
G04:AMPARAMS|DCode=96|XSize=2mm|YSize=1.3mm|CornerRadius=0.325mm|HoleSize=0mm|Usage=FLASHONLY|Rotation=180.000|XOffset=0mm|YOffset=0mm|HoleType=Round|Shape=RoundedRectangle|*
%AMROUNDEDRECTD96*
21,1,2.0000,0.6500,0,0,180.0*
21,1,1.3500,1.3000,0,0,180.0*
1,1,0.6500,-0.6750,0.3250*
1,1,0.6500,0.6750,0.3250*
1,1,0.6500,0.6750,-0.3250*
1,1,0.6500,-0.6750,-0.3250*
%
%ADD96ROUNDEDRECTD96*%
G04:AMPARAMS|DCode=97|XSize=2mm|YSize=1.3mm|CornerRadius=0.325mm|HoleSize=0mm|Usage=FLASHONLY|Rotation=90.000|XOffset=0mm|YOffset=0mm|HoleType=Round|Shape=RoundedRectangle|*
%AMROUNDEDRECTD97*
21,1,2.0000,0.6500,0,0,90.0*
21,1,1.3500,1.3000,0,0,90.0*
1,1,0.6500,0.3250,0.6750*
1,1,0.6500,0.3250,-0.6750*
1,1,0.6500,-0.3250,-0.6750*
1,1,0.6500,-0.3250,0.6750*
%
%ADD97ROUNDEDRECTD97*%
%ADD98C,1.7000*%
%ADD99C,1.4000*%
%ADD100C,0.6000*%
%ADD101C,0.8000*%
%ADD102C,1.5000*%
%ADD103R,1.9000X1.9000*%
%ADD104R,1.9000X1.8000*%
%ADD105R,1.3500X0.4000*%
G36*
X288858Y46900D02*
X288687Y47058D01*
X288502Y47199D01*
X288302Y47323D01*
X288087Y47431D01*
X287857Y47523D01*
X287612Y47597D01*
X287352Y47655D01*
X287077Y47697D01*
X286787Y47722D01*
X286482Y47730D01*
Y50270D01*
X286787Y50278D01*
X287077Y50303D01*
X287352Y50345D01*
X287612Y50403D01*
X287857Y50477D01*
X288087Y50569D01*
X288302Y50677D01*
X288502Y50801D01*
X288687Y50942D01*
X288858Y51100D01*
Y46900D01*
D02*
G37*
G36*
X67961Y588000D02*
X67961Y572000D01*
X68116Y571220D01*
X68558Y570558D01*
X69220Y570116D01*
X70000Y569961D01*
X136285D01*
X136671Y568691D01*
X136395Y568507D01*
X135290Y566853D01*
X134902Y564902D01*
X135290Y562951D01*
X136395Y561297D01*
X138049Y560192D01*
X140000Y559804D01*
X141951Y560192D01*
X143605Y561297D01*
X144359Y562426D01*
X177000D01*
X177000Y562426D01*
X178171Y562659D01*
X179163Y563322D01*
X183782Y567941D01*
X187733D01*
X190030Y565644D01*
X189902Y565000D01*
X190290Y563049D01*
X191395Y561395D01*
X193049Y560290D01*
X195000Y559902D01*
X196951Y560290D01*
X198605Y561395D01*
X199220Y562316D01*
X200731Y562291D01*
X201395Y561297D01*
X203049Y560192D01*
X205000Y559804D01*
X206951Y560192D01*
X208605Y561297D01*
X208786Y561568D01*
X322824D01*
X328825Y555567D01*
X329906Y554844D01*
X331182Y554591D01*
X350014D01*
X350195Y554320D01*
X351849Y553215D01*
X353800Y552827D01*
X355751Y553215D01*
X357405Y554320D01*
X358510Y555974D01*
X358898Y557925D01*
X358510Y559875D01*
X357405Y561529D01*
X355751Y562635D01*
X353800Y563023D01*
X351849Y562635D01*
X350195Y561529D01*
X350014Y561259D01*
X332563D01*
X326562Y567260D01*
X325480Y567982D01*
X324205Y568236D01*
X209474D01*
X209114Y568691D01*
X209728Y569961D01*
X760961Y569961D01*
X760961Y351890D01*
X760270Y351284D01*
Y340050D01*
Y328815D01*
X760961Y328210D01*
Y281790D01*
X760270Y281184D01*
Y269950D01*
Y258716D01*
X760961Y258110D01*
Y251890D01*
X760270Y251284D01*
Y240050D01*
Y228815D01*
X760961Y228210D01*
Y181790D01*
X760270Y181184D01*
Y169950D01*
Y158715D01*
X760961Y158110D01*
Y131890D01*
X760270Y131284D01*
Y120050D01*
Y108815D01*
X760961Y108210D01*
Y61790D01*
X760270Y61184D01*
Y49950D01*
X759000D01*
Y48680D01*
X748032D01*
X748244Y47068D01*
X748647Y46095D01*
X747942Y45039D01*
X729000Y45039D01*
X606274Y45039D01*
X493000Y45039D01*
Y72992D01*
X493500Y73402D01*
X495451Y73790D01*
X497105Y74895D01*
X498210Y76549D01*
X498598Y78500D01*
X498210Y80451D01*
X497105Y82105D01*
X496559Y82470D01*
Y147248D01*
X536913Y187602D01*
X536913Y187602D01*
X537576Y188594D01*
X537809Y189765D01*
X537809Y189765D01*
Y218030D01*
X537576Y219200D01*
X537151Y219836D01*
X537449Y220963D01*
X537633Y221227D01*
X537951Y221290D01*
X539605Y222395D01*
X540710Y224049D01*
X541098Y226000D01*
X540710Y227951D01*
X539605Y229605D01*
X539309Y229803D01*
Y304863D01*
X540105Y305395D01*
X541210Y307049D01*
X541598Y309000D01*
X541210Y310951D01*
X540105Y312605D01*
X538451Y313710D01*
X536500Y314098D01*
X534549Y313710D01*
X532895Y312605D01*
X532878Y312579D01*
X531562Y312896D01*
X531511Y313332D01*
X531605Y313395D01*
X532710Y315049D01*
X533098Y317000D01*
X532710Y318951D01*
X531605Y320605D01*
X529951Y321710D01*
X528000Y322098D01*
X526049Y321710D01*
X524395Y320605D01*
X523290Y318951D01*
X522902Y317000D01*
X523290Y315049D01*
X524395Y313395D01*
X524941Y313030D01*
Y304855D01*
X523732Y304280D01*
X523721Y304279D01*
X510000Y318000D01*
X178000Y318000D01*
X128000Y368000D01*
X65000Y368000D01*
X40000Y393000D01*
X40000Y486000D01*
X38000D01*
X38000Y392341D01*
X65595Y366000D01*
X127000D01*
X177000Y316000D01*
X509000Y316000D01*
X529191Y295809D01*
Y232002D01*
X527837Y230648D01*
X527174Y229656D01*
X526941Y228485D01*
X526941Y228485D01*
Y222780D01*
X526941Y222780D01*
X527174Y221609D01*
X527339Y221362D01*
X526799Y219960D01*
X525145Y218855D01*
X524040Y217201D01*
X523652Y215250D01*
X524040Y213299D01*
X525145Y211645D01*
X525691Y211280D01*
Y193517D01*
X494144Y161970D01*
X493500Y162098D01*
X491549Y161710D01*
X489895Y160605D01*
X488790Y158951D01*
X488402Y157000D01*
X488790Y155049D01*
X489649Y153764D01*
X489000Y153127D01*
X489000Y80765D01*
X488790Y80451D01*
X488402Y78500D01*
X488790Y76549D01*
X489000Y76235D01*
X489000Y22586D01*
X288902Y20783D01*
X288000Y21677D01*
Y39637D01*
X294030D01*
X294395Y39090D01*
X296049Y37985D01*
X298000Y37597D01*
X299951Y37985D01*
X301605Y39090D01*
X302710Y40744D01*
X303098Y42695D01*
X302710Y44646D01*
X301605Y46300D01*
X299951Y47405D01*
X298000Y47793D01*
X297118Y47618D01*
X296038Y48698D01*
X296098Y49000D01*
X295710Y50951D01*
X294605Y52605D01*
X292951Y53710D01*
X291000Y54098D01*
X289270Y53754D01*
X288000Y54420D01*
X288000Y135000D01*
X143000Y135000D01*
X122805Y155195D01*
X122805Y240195D01*
X108000Y255000D01*
X20000Y255000D01*
X20000Y486000D01*
X18000D01*
Y253000D01*
X107000D01*
X121000Y239000D01*
Y154000D01*
X142000Y133000D01*
X285000D01*
Y52334D01*
X244370D01*
X243955Y52955D01*
X242301Y54060D01*
X240350Y54448D01*
X240031Y54384D01*
X236788Y57628D01*
X235706Y58350D01*
X234430Y58604D01*
X226270D01*
X224994Y58350D01*
X223912Y57628D01*
X218619Y52334D01*
X215264D01*
X215083Y52605D01*
X213429Y53710D01*
X211478Y54098D01*
X211159Y54034D01*
X208334Y56859D01*
Y93214D01*
X208605Y93395D01*
X209710Y95049D01*
X210098Y97000D01*
X209710Y98951D01*
X208605Y100605D01*
X206951Y101710D01*
X205000Y102098D01*
X203049Y101710D01*
X201395Y100605D01*
X200290Y98951D01*
X199902Y97000D01*
X200290Y95049D01*
X201395Y93395D01*
X201666Y93214D01*
Y55478D01*
X201920Y54202D01*
X202642Y53120D01*
X206444Y49319D01*
X206380Y49000D01*
X206768Y47049D01*
X207873Y45395D01*
X209527Y44290D01*
X211478Y43902D01*
X213429Y44290D01*
X215083Y45395D01*
X215264Y45666D01*
X220000D01*
X221276Y45920D01*
X222358Y46642D01*
X224208Y48493D01*
X225586Y48075D01*
X225790Y47049D01*
X226895Y45395D01*
X228549Y44290D01*
X230500Y43902D01*
X231144Y44030D01*
X234642Y40532D01*
X234642Y40532D01*
X235634Y39869D01*
X236805Y39636D01*
X236805Y39637D01*
X285000D01*
Y21103D01*
X3488Y21001D01*
X2590Y21899D01*
X2590Y486000D01*
Y588000D01*
X67961D01*
D02*
G37*
G36*
X807410Y588000D02*
Y22000D01*
X763000Y22000D01*
D01*
X493000Y22000D01*
X493000Y43000D01*
X606274Y43000D01*
X729000Y43000D01*
X751098Y43000D01*
X751511Y42461D01*
X753705Y40778D01*
X756259Y39720D01*
X759000Y39359D01*
X761741Y39720D01*
X764295Y40778D01*
X766489Y42461D01*
X766902Y43000D01*
X768172Y44655D01*
X769230Y47209D01*
X769591Y49950D01*
X769230Y52691D01*
X768172Y55245D01*
X766489Y57439D01*
X764295Y59122D01*
X763000Y59658D01*
Y110342D01*
X764295Y110878D01*
X766489Y112561D01*
X768172Y114755D01*
X769230Y117309D01*
X769591Y120050D01*
X769230Y122791D01*
X768172Y125345D01*
X766489Y127539D01*
X764295Y129222D01*
X763000Y129758D01*
Y160242D01*
X764295Y160778D01*
X766489Y162461D01*
X768172Y164655D01*
X769230Y167209D01*
X769591Y169950D01*
X769230Y172691D01*
X768172Y175245D01*
X766489Y177439D01*
X764295Y179122D01*
X763000Y179658D01*
Y230342D01*
X764295Y230878D01*
X766489Y232561D01*
X768172Y234755D01*
X769230Y237309D01*
X769591Y240050D01*
X769230Y242791D01*
X768172Y245345D01*
X766489Y247539D01*
X764295Y249222D01*
X763000Y249758D01*
Y260242D01*
X764295Y260778D01*
X766489Y262461D01*
X768172Y264655D01*
X769230Y267209D01*
X769591Y269950D01*
X769230Y272691D01*
X768172Y275245D01*
X766489Y277439D01*
X764295Y279122D01*
X763000Y279658D01*
Y330342D01*
X764295Y330878D01*
X766489Y332561D01*
X768172Y334755D01*
X769230Y337309D01*
X769591Y340050D01*
X769230Y342791D01*
X768172Y345345D01*
X766489Y347539D01*
X764295Y349222D01*
X763000Y349758D01*
X763000Y572000D01*
X192326Y572000D01*
X191163Y573163D01*
X190170Y573826D01*
X189000Y574059D01*
X189000Y574059D01*
X182515D01*
X181344Y573826D01*
X180947Y573560D01*
X180352Y573163D01*
X180352Y573163D01*
X179189Y572000D01*
X70000D01*
X70000Y588000D01*
X807410D01*
Y588000D01*
D02*
G37*
%LPC*%
G36*
X39000Y561358D02*
X36854Y560931D01*
X35035Y559715D01*
X33819Y557896D01*
X33392Y555750D01*
X33819Y553604D01*
X35035Y551785D01*
X36854Y550569D01*
X39000Y550142D01*
X41146Y550569D01*
X42965Y551785D01*
X44181Y553604D01*
X44608Y555750D01*
X44181Y557896D01*
X42965Y559715D01*
X41146Y560931D01*
X39000Y561358D01*
D02*
G37*
G36*
X84000Y546098D02*
X82049Y545710D01*
X80395Y544605D01*
X80030Y544059D01*
X76150D01*
X76150Y544059D01*
X74980Y543826D01*
X73987Y543163D01*
X68883Y538059D01*
X50000D01*
Y545500D01*
X32500D01*
Y537500D01*
Y531000D01*
Y524500D01*
Y518000D01*
X33544D01*
X34142Y516880D01*
X33819Y516396D01*
X33392Y514250D01*
X33819Y512104D01*
X35035Y510285D01*
X36854Y509069D01*
X39000Y508642D01*
X41146Y509069D01*
X42965Y510285D01*
X44181Y512104D01*
X44608Y514250D01*
X44181Y516396D01*
X43910Y516802D01*
X44509Y517922D01*
X54104D01*
X55049Y517290D01*
X57000Y516902D01*
X58951Y517290D01*
X59857Y517896D01*
X60348Y517922D01*
X66324D01*
X67269Y517290D01*
X69220Y516902D01*
X71171Y517290D01*
X72824Y518395D01*
X73930Y520049D01*
X74318Y522000D01*
X73930Y523951D01*
X73576Y524480D01*
X74181Y525861D01*
X74894Y526337D01*
X77998Y529441D01*
X80030D01*
X80395Y528895D01*
X82049Y527790D01*
X84000Y527402D01*
X85951Y527790D01*
X87605Y528895D01*
X88710Y530549D01*
X89098Y532500D01*
X88710Y534451D01*
X87605Y536105D01*
X87590Y536115D01*
Y537385D01*
X87605Y537395D01*
X88710Y539049D01*
X89098Y541000D01*
X88710Y542951D01*
X87605Y544605D01*
X85951Y545710D01*
X84000Y546098D01*
D02*
G37*
G36*
X165250Y559098D02*
X163299Y558710D01*
X161645Y557605D01*
X160540Y555951D01*
X160152Y554000D01*
X160540Y552049D01*
X161645Y550395D01*
X162191Y550030D01*
Y528517D01*
X153233Y519559D01*
X109970D01*
X109605Y520105D01*
X107951Y521210D01*
X106000Y521598D01*
X104049Y521210D01*
X102395Y520105D01*
X101290Y518451D01*
X100902Y516500D01*
X101290Y514549D01*
X102395Y512895D01*
X104049Y511790D01*
X106000Y511402D01*
X107951Y511790D01*
X109605Y512895D01*
X109970Y513441D01*
X154500D01*
X154500Y513441D01*
X155671Y513674D01*
X156663Y514337D01*
X167413Y525087D01*
X168076Y526079D01*
X168309Y527250D01*
X168309Y527250D01*
Y550030D01*
X168855Y550395D01*
X169960Y552049D01*
X170348Y554000D01*
X169960Y555951D01*
X168855Y557605D01*
X167201Y558710D01*
X165250Y559098D01*
D02*
G37*
G36*
X475000Y562039D02*
X474220Y561884D01*
X473558Y561442D01*
X473116Y560780D01*
X472961Y560000D01*
Y514928D01*
X213746D01*
X212801Y515560D01*
X210850Y515948D01*
X208899Y515560D01*
X207245Y514455D01*
X206140Y512801D01*
X205752Y510850D01*
X206140Y508899D01*
X207245Y507245D01*
X208899Y506140D01*
X210850Y505752D01*
X212801Y506140D01*
X213707Y506746D01*
X214198Y506772D01*
X472961D01*
Y496000D01*
X473116Y495220D01*
X473558Y494558D01*
X474220Y494116D01*
X475000Y493961D01*
X633000Y493961D01*
X633780Y494116D01*
X634442Y494558D01*
X634884Y495220D01*
X635039Y496000D01*
X635039Y560000D01*
X634884Y560780D01*
X634442Y561442D01*
X633780Y561884D01*
X633000Y562039D01*
X587458Y562039D01*
X587261Y562000D01*
X587060D01*
X586875Y561923D01*
X586678Y561884D01*
X586511Y561772D01*
X586325Y561696D01*
X586183Y561553D01*
X586016Y561442D01*
X585905Y561275D01*
X585763Y561133D01*
X585686Y560947D01*
X585574Y560780D01*
X585535Y560583D01*
X585458Y560398D01*
X585189Y559045D01*
X584535Y558065D01*
X583555Y557411D01*
X582400Y557181D01*
X581245Y557411D01*
X580265Y558065D01*
X579611Y559045D01*
X579342Y560398D01*
X579265Y560583D01*
X579226Y560780D01*
X579114Y560947D01*
X579037Y561133D01*
X578895Y561275D01*
X578784Y561442D01*
X578617Y561553D01*
X578475Y561696D01*
X578289Y561772D01*
X578122Y561884D01*
X577925Y561923D01*
X577740Y562000D01*
X577539D01*
X577342Y562039D01*
X523699Y562039D01*
X523502Y562000D01*
X523301D01*
X523116Y561923D01*
X522919Y561884D01*
X522752Y561772D01*
X522566Y561696D01*
X522424Y561553D01*
X522257Y561442D01*
X522146Y561275D01*
X522004Y561133D01*
X521927Y560947D01*
X521815Y560780D01*
X521776Y560583D01*
X521699Y560398D01*
X521589Y559845D01*
X520935Y558865D01*
X519955Y558211D01*
X518800Y557981D01*
X517645Y558211D01*
X516665Y558865D01*
X516011Y559845D01*
X515901Y560398D01*
X515824Y560583D01*
X515785Y560780D01*
X515673Y560947D01*
X515597Y561133D01*
X515454Y561275D01*
X515343Y561442D01*
X515176Y561554D01*
X515034Y561696D01*
X514848Y561772D01*
X514681Y561884D01*
X514484Y561923D01*
X514299Y562000D01*
X514098D01*
X513901Y562039D01*
X475000Y562039D01*
D02*
G37*
G36*
X145000Y462798D02*
X143049Y462410D01*
X141395Y461305D01*
X140290Y459651D01*
X139902Y457700D01*
X140030Y457056D01*
X123733Y440759D01*
X86735D01*
X85569Y441653D01*
X83076Y442686D01*
X80400Y443038D01*
X77724Y442686D01*
X75231Y441653D01*
X73090Y440010D01*
X71447Y437869D01*
X70414Y435376D01*
X70062Y432700D01*
X70414Y430024D01*
X71447Y427531D01*
X73090Y425390D01*
X75231Y423747D01*
X77724Y422714D01*
X80400Y422362D01*
X83076Y422714D01*
X85569Y423747D01*
X87710Y425390D01*
X89353Y427531D01*
X90386Y430024D01*
X90738Y432700D01*
X90609Y433686D01*
X91446Y434641D01*
X125000D01*
X125000Y434641D01*
X126171Y434874D01*
X127163Y435537D01*
X144356Y452730D01*
X145000Y452602D01*
X146951Y452990D01*
X148605Y454095D01*
X149710Y455749D01*
X150098Y457700D01*
X149710Y459651D01*
X148605Y461305D01*
X146951Y462410D01*
X145000Y462798D01*
D02*
G37*
G36*
X90650Y468350D02*
X70150D01*
Y447850D01*
X90650D01*
Y468350D01*
D02*
G37*
G36*
X706290Y499039D02*
X705510Y498884D01*
X704848Y498442D01*
X679155Y472749D01*
X619000D01*
X618220Y472594D01*
X617558Y472152D01*
X617116Y471490D01*
X616961Y470710D01*
Y439000D01*
X617116Y438220D01*
X617558Y437558D01*
X618220Y437116D01*
X619000Y436961D01*
X673605D01*
X673605Y436961D01*
X674385Y437116D01*
X675047Y437558D01*
X675047Y437558D01*
X723442Y485953D01*
X723884Y486615D01*
X724039Y487395D01*
Y497000D01*
X723884Y497780D01*
X723442Y498442D01*
X722780Y498884D01*
X722000Y499039D01*
X706290D01*
X706290Y499039D01*
D02*
G37*
G36*
X80400Y417638D02*
X77724Y417286D01*
X75231Y416253D01*
X73090Y414610D01*
X71447Y412469D01*
X70414Y409976D01*
X70062Y407300D01*
X70414Y404624D01*
X71447Y402131D01*
X73090Y399990D01*
X75231Y398347D01*
X77724Y397314D01*
X80400Y396962D01*
X83076Y397314D01*
X85569Y398347D01*
X87710Y399990D01*
X89353Y402131D01*
X90386Y404624D01*
X90738Y407300D01*
X90386Y409976D01*
X89353Y412469D01*
X87710Y414610D01*
X85569Y416253D01*
X83076Y417286D01*
X80400Y417638D01*
D02*
G37*
G36*
X81670Y392616D02*
Y383170D01*
X91116D01*
X90912Y384717D01*
X89825Y387342D01*
X88096Y389595D01*
X85842Y391325D01*
X83217Y392412D01*
X81670Y392616D01*
D02*
G37*
G36*
X79130Y392616D02*
X77583Y392412D01*
X74958Y391325D01*
X72705Y389595D01*
X70975Y387342D01*
X69888Y384717D01*
X69684Y383170D01*
X79130D01*
Y392616D01*
D02*
G37*
G36*
X91116Y380630D02*
X81670D01*
Y371184D01*
X83217Y371388D01*
X85842Y372475D01*
X88096Y374204D01*
X89825Y376458D01*
X90912Y379083D01*
X91116Y380630D01*
D02*
G37*
G36*
X79130D02*
X69684D01*
X69888Y379083D01*
X70975Y376458D01*
X72705Y374204D01*
X74958Y372475D01*
X77583Y371388D01*
X79130Y371184D01*
Y380630D01*
D02*
G37*
G36*
X757730Y351018D02*
X756118Y350806D01*
X753432Y349693D01*
X751126Y347924D01*
X749357Y345618D01*
X748244Y342932D01*
X748032Y341320D01*
X757730D01*
Y351018D01*
D02*
G37*
G36*
X90650Y358350D02*
X70150D01*
Y337850D01*
X90650D01*
Y358350D01*
D02*
G37*
G36*
X757730Y338780D02*
X748032D01*
X748244Y337168D01*
X749357Y334482D01*
X751126Y332176D01*
X753432Y330407D01*
X756118Y329294D01*
X757730Y329082D01*
Y338780D01*
D02*
G37*
G36*
X81670Y333416D02*
Y323970D01*
X91116D01*
X90912Y325517D01*
X89825Y328142D01*
X88096Y330396D01*
X85842Y332125D01*
X83217Y333212D01*
X81670Y333416D01*
D02*
G37*
G36*
X79130D02*
X77583Y333212D01*
X74958Y332125D01*
X72705Y330396D01*
X70975Y328142D01*
X69888Y325517D01*
X69684Y323970D01*
X79130D01*
Y333416D01*
D02*
G37*
G36*
Y321430D02*
X69684D01*
X69888Y319883D01*
X70975Y317258D01*
X72705Y315005D01*
X74958Y313275D01*
X77583Y312188D01*
X79130Y311984D01*
Y321430D01*
D02*
G37*
G36*
X91116D02*
X81670D01*
Y311984D01*
X83217Y312188D01*
X85842Y313275D01*
X88096Y315005D01*
X89825Y317258D01*
X90912Y319883D01*
X91116Y321430D01*
D02*
G37*
G36*
X80400Y307638D02*
X77724Y307286D01*
X75231Y306253D01*
X73090Y304610D01*
X71447Y302469D01*
X70414Y299976D01*
X70062Y297300D01*
X70414Y294624D01*
X71447Y292131D01*
X73090Y289990D01*
X75231Y288347D01*
X77724Y287314D01*
X80400Y286962D01*
X83076Y287314D01*
X85569Y288347D01*
X87710Y289990D01*
X89353Y292131D01*
X90386Y294624D01*
X90738Y297300D01*
X90386Y299976D01*
X89353Y302469D01*
X87710Y304610D01*
X85569Y306253D01*
X83076Y307286D01*
X80400Y307638D01*
D02*
G37*
G36*
X81670Y282616D02*
Y273170D01*
X91116D01*
X90912Y274717D01*
X89825Y277342D01*
X88096Y279596D01*
X85842Y281325D01*
X83217Y282412D01*
X81670Y282616D01*
D02*
G37*
G36*
X79130D02*
X77583Y282412D01*
X74958Y281325D01*
X72705Y279596D01*
X70975Y277342D01*
X69888Y274717D01*
X69684Y273170D01*
X79130D01*
Y282616D01*
D02*
G37*
G36*
X757730Y280918D02*
X756118Y280706D01*
X753432Y279593D01*
X751126Y277824D01*
X749357Y275518D01*
X748244Y272832D01*
X748032Y271220D01*
X757730D01*
Y280918D01*
D02*
G37*
G36*
X79130Y270630D02*
X69684D01*
X69888Y269083D01*
X70975Y266458D01*
X72705Y264205D01*
X74958Y262475D01*
X77583Y261388D01*
X79130Y261184D01*
Y270630D01*
D02*
G37*
G36*
X91116D02*
X81670D01*
Y261184D01*
X83217Y261388D01*
X85842Y262475D01*
X88096Y264205D01*
X89825Y266458D01*
X90912Y269083D01*
X91116Y270630D01*
D02*
G37*
G36*
X757730Y268680D02*
X748032D01*
X748244Y267068D01*
X749357Y264382D01*
X751126Y262076D01*
X753432Y260307D01*
X756118Y259194D01*
X757730Y258982D01*
Y268680D01*
D02*
G37*
G36*
Y251018D02*
X756118Y250806D01*
X753432Y249693D01*
X751126Y247924D01*
X749357Y245618D01*
X748244Y242932D01*
X748032Y241320D01*
X757730D01*
Y251018D01*
D02*
G37*
G36*
Y238780D02*
X748032D01*
X748244Y237168D01*
X749357Y234482D01*
X751126Y232176D01*
X753432Y230406D01*
X756118Y229294D01*
X757730Y229082D01*
Y238780D01*
D02*
G37*
G36*
X90650Y248350D02*
X70150D01*
Y227850D01*
X90650D01*
Y248350D01*
D02*
G37*
G36*
X81670Y223416D02*
Y213970D01*
X91116D01*
X90912Y215517D01*
X89825Y218142D01*
X88096Y220396D01*
X85842Y222125D01*
X83217Y223212D01*
X81670Y223416D01*
D02*
G37*
G36*
X79130D02*
X77583Y223212D01*
X74958Y222125D01*
X72705Y220396D01*
X70975Y218142D01*
X69888Y215517D01*
X69684Y213970D01*
X79130D01*
Y223416D01*
D02*
G37*
G36*
X91116Y211430D02*
X81670D01*
Y201984D01*
X83217Y202188D01*
X85842Y203275D01*
X88096Y205005D01*
X89825Y207258D01*
X90912Y209883D01*
X91116Y211430D01*
D02*
G37*
G36*
X79130D02*
X69684D01*
X69888Y209883D01*
X70975Y207258D01*
X72705Y205005D01*
X74958Y203275D01*
X77583Y202188D01*
X79130Y201984D01*
Y211430D01*
D02*
G37*
G36*
X80400Y197638D02*
X77724Y197286D01*
X75231Y196253D01*
X73090Y194610D01*
X71447Y192469D01*
X70414Y189976D01*
X70062Y187300D01*
X70414Y184624D01*
X71447Y182131D01*
X73090Y179990D01*
X75231Y178347D01*
X77724Y177314D01*
X80400Y176962D01*
X83076Y177314D01*
X85569Y178347D01*
X87710Y179990D01*
X89353Y182131D01*
X90386Y184624D01*
X90738Y187300D01*
X90386Y189976D01*
X89353Y192469D01*
X87710Y194610D01*
X85569Y196253D01*
X83076Y197286D01*
X80400Y197638D01*
D02*
G37*
G36*
X757730Y180918D02*
X756118Y180706D01*
X753432Y179593D01*
X751126Y177824D01*
X749357Y175518D01*
X748244Y172832D01*
X748032Y171220D01*
X757730D01*
Y180918D01*
D02*
G37*
G36*
X81670Y172616D02*
Y163170D01*
X91116D01*
X90912Y164717D01*
X89825Y167342D01*
X88096Y169596D01*
X85842Y171325D01*
X83217Y172412D01*
X81670Y172616D01*
D02*
G37*
G36*
X79130D02*
X77583Y172412D01*
X74958Y171325D01*
X72705Y169596D01*
X70975Y167342D01*
X69888Y164717D01*
X69684Y163170D01*
X79130D01*
Y172616D01*
D02*
G37*
G36*
X757730Y168680D02*
X748032D01*
X748244Y167068D01*
X749357Y164382D01*
X751126Y162076D01*
X753432Y160307D01*
X756118Y159194D01*
X757730Y158982D01*
Y168680D01*
D02*
G37*
G36*
X91116Y160630D02*
X81670D01*
Y151184D01*
X83217Y151388D01*
X85842Y152475D01*
X88096Y154205D01*
X89825Y156458D01*
X90912Y159083D01*
X91116Y160630D01*
D02*
G37*
G36*
X79130D02*
X69684D01*
X69888Y159083D01*
X70975Y156458D01*
X72705Y154205D01*
X74958Y152475D01*
X77583Y151388D01*
X79130Y151184D01*
Y160630D01*
D02*
G37*
G36*
X105750Y139103D02*
X92250D01*
X90202Y138695D01*
X88465Y137535D01*
X87305Y135798D01*
X86897Y133750D01*
Y127250D01*
X87305Y125202D01*
X88465Y123465D01*
X90202Y122305D01*
X92250Y121897D01*
X105750D01*
X107799Y122305D01*
X109535Y123465D01*
X110695Y125202D01*
X111103Y127250D01*
Y133750D01*
X110695Y135798D01*
X109535Y137535D01*
X107799Y138695D01*
X105750Y139103D01*
D02*
G37*
G36*
X757730Y131018D02*
X756118Y130806D01*
X753432Y129693D01*
X751126Y127924D01*
X749357Y125618D01*
X748244Y122932D01*
X748032Y121320D01*
X757730D01*
Y131018D01*
D02*
G37*
G36*
Y118780D02*
X748032D01*
X748244Y117168D01*
X749357Y114482D01*
X751126Y112176D01*
X753432Y110407D01*
X756118Y109294D01*
X757730Y109082D01*
Y118780D01*
D02*
G37*
G36*
X91750Y115103D02*
X78250D01*
X76202Y114695D01*
X74465Y113535D01*
X73305Y111798D01*
X72897Y109750D01*
Y103250D01*
X73305Y101202D01*
X74465Y99465D01*
X76202Y98305D01*
X78250Y97897D01*
X91750D01*
X93799Y98305D01*
X95535Y99465D01*
X96695Y101202D01*
X97103Y103250D01*
Y109750D01*
X96695Y111798D01*
X95535Y113535D01*
X93799Y114695D01*
X91750Y115103D01*
D02*
G37*
G36*
X24250Y92653D02*
X22270D01*
Y81270D01*
X30153D01*
Y86750D01*
X29704Y89009D01*
X28424Y90924D01*
X26509Y92204D01*
X24250Y92653D01*
D02*
G37*
G36*
X19730D02*
X17750D01*
X15491Y92204D01*
X13576Y90924D01*
X12296Y89009D01*
X11847Y86750D01*
Y81270D01*
X19730D01*
Y92653D01*
D02*
G37*
G36*
X30153Y78730D02*
X22270D01*
Y67347D01*
X24250D01*
X26509Y67796D01*
X28424Y69076D01*
X29704Y70991D01*
X30153Y73250D01*
Y78730D01*
D02*
G37*
G36*
X19730D02*
X11847D01*
Y73250D01*
X12296Y70991D01*
X13576Y69076D01*
X15491Y67796D01*
X17750Y67347D01*
X19730D01*
Y78730D01*
D02*
G37*
G36*
X757730Y60918D02*
X756118Y60706D01*
X753432Y59593D01*
X751126Y57824D01*
X749357Y55518D01*
X748244Y52832D01*
X748032Y51220D01*
X757730D01*
Y60918D01*
D02*
G37*
G36*
X134250Y52103D02*
X127750D01*
X125702Y51695D01*
X123965Y50535D01*
X122805Y48798D01*
X122397Y46750D01*
Y33250D01*
X122805Y31202D01*
X123965Y29465D01*
X125702Y28305D01*
X127750Y27897D01*
X134250D01*
X136298Y28305D01*
X138035Y29465D01*
X139195Y31202D01*
X139603Y33250D01*
Y46750D01*
X139195Y48798D01*
X138035Y50535D01*
X136298Y51695D01*
X134250Y52103D01*
D02*
G37*
G36*
X60750Y43103D02*
X47250D01*
X45202Y42695D01*
X43465Y41535D01*
X42305Y39798D01*
X41897Y37750D01*
Y31250D01*
X42305Y29202D01*
X43465Y27465D01*
X45202Y26305D01*
X47250Y25897D01*
X60750D01*
X62799Y26305D01*
X64535Y27465D01*
X65695Y29202D01*
X66103Y31250D01*
Y37750D01*
X65695Y39798D01*
X64535Y41535D01*
X62799Y42695D01*
X60750Y43103D01*
D02*
G37*
%LPD*%
G36*
X47990Y536785D02*
X48050Y536620D01*
X48149Y536475D01*
X48289Y536349D01*
X48470Y536242D01*
X48689Y536155D01*
X48949Y536087D01*
X49250Y536039D01*
X49590Y536010D01*
X49970Y536000D01*
Y534000D01*
X49590Y533990D01*
X49250Y533961D01*
X48949Y533913D01*
X48689Y533845D01*
X48470Y533758D01*
X48289Y533651D01*
X48149Y533525D01*
X48050Y533380D01*
X47990Y533215D01*
X47969Y533031D01*
Y536969D01*
X47990Y536785D01*
D02*
G37*
G36*
Y530285D02*
X48050Y530121D01*
X48149Y529975D01*
X48289Y529849D01*
X48470Y529742D01*
X48689Y529655D01*
X48949Y529587D01*
X49250Y529539D01*
X49590Y529510D01*
X49970Y529500D01*
Y527500D01*
X49590Y527490D01*
X49250Y527461D01*
X48949Y527413D01*
X48689Y527345D01*
X48470Y527258D01*
X48289Y527151D01*
X48149Y527025D01*
X48050Y526880D01*
X47990Y526715D01*
X47969Y526530D01*
Y530470D01*
X47990Y530285D01*
D02*
G37*
G36*
X67077Y519900D02*
X67041Y519919D01*
X66970Y519936D01*
X66866Y519951D01*
X66555Y519975D01*
X65526Y519999D01*
X65184Y520000D01*
Y524000D01*
X67077Y524100D01*
Y519900D01*
D02*
G37*
G36*
X59179Y524081D02*
X59250Y524064D01*
X59354Y524049D01*
X59665Y524025D01*
X60694Y524001D01*
X61036Y524000D01*
Y520000D01*
X59142Y519900D01*
Y524100D01*
X59179Y524081D01*
D02*
G37*
G36*
X54858Y519900D02*
X54821Y519919D01*
X54750Y519936D01*
X54646Y519951D01*
X54335Y519975D01*
X53306Y519999D01*
X52964Y520000D01*
Y524000D01*
X54858Y524100D01*
Y519900D01*
D02*
G37*
G36*
X213029Y512931D02*
X213099Y512914D01*
X213204Y512899D01*
X213515Y512875D01*
X214544Y512851D01*
X214886Y512850D01*
Y508850D01*
X212992Y508750D01*
Y512950D01*
X213029Y512931D01*
D02*
G37*
G36*
X513901Y560000D02*
X514090Y559049D01*
X515195Y557395D01*
X516849Y556290D01*
X518800Y555902D01*
X520751Y556290D01*
X522405Y557395D01*
X523510Y559049D01*
X523699Y560000D01*
X577342Y560000D01*
X577690Y558249D01*
X578795Y556595D01*
X580449Y555490D01*
X582400Y555102D01*
X584351Y555490D01*
X586005Y556595D01*
X587110Y558249D01*
X587458Y560000D01*
X633000Y560000D01*
X633000Y496000D01*
X475000Y496000D01*
Y560000D01*
X513901Y560000D01*
D02*
G37*
G36*
X722000Y487395D02*
X673605Y439000D01*
X619000D01*
Y470710D01*
X680000D01*
X706290Y497000D01*
X722000D01*
Y487395D01*
D02*
G37*
%LPC*%
G36*
X783900Y336528D02*
X781551Y336218D01*
X779361Y335311D01*
X777481Y333869D01*
X776039Y331989D01*
X775132Y329799D01*
X774822Y327450D01*
X775132Y325101D01*
X776039Y322911D01*
X777481Y321031D01*
X779361Y319589D01*
X781551Y318682D01*
X783900Y318372D01*
X786249Y318682D01*
X788439Y319589D01*
X790319Y321031D01*
X791761Y322911D01*
X792668Y325101D01*
X792978Y327450D01*
X792668Y329799D01*
X791761Y331989D01*
X790319Y333869D01*
X788439Y335311D01*
X786249Y336218D01*
X783900Y336528D01*
D02*
G37*
G36*
Y291628D02*
X781551Y291318D01*
X779361Y290411D01*
X777481Y288969D01*
X776039Y287089D01*
X775132Y284900D01*
X774822Y282550D01*
X775132Y280201D01*
X776039Y278011D01*
X777481Y276131D01*
X779361Y274688D01*
X781551Y273782D01*
X783900Y273472D01*
X786249Y273782D01*
X788439Y274688D01*
X790319Y276131D01*
X791761Y278011D01*
X792668Y280201D01*
X792978Y282550D01*
X792668Y284900D01*
X791761Y287089D01*
X790319Y288969D01*
X788439Y290411D01*
X786249Y291318D01*
X783900Y291628D01*
D02*
G37*
G36*
Y236528D02*
X781551Y236218D01*
X779361Y235311D01*
X777481Y233869D01*
X776039Y231989D01*
X775132Y229799D01*
X774822Y227450D01*
X775132Y225100D01*
X776039Y222911D01*
X777481Y221031D01*
X779361Y219589D01*
X781551Y218682D01*
X783900Y218372D01*
X786249Y218682D01*
X788439Y219589D01*
X790319Y221031D01*
X791761Y222911D01*
X792668Y225100D01*
X792978Y227450D01*
X792668Y229799D01*
X791761Y231989D01*
X790319Y233869D01*
X788439Y235311D01*
X786249Y236218D01*
X783900Y236528D01*
D02*
G37*
G36*
Y191628D02*
X781551Y191318D01*
X779361Y190411D01*
X777481Y188969D01*
X776039Y187089D01*
X775132Y184900D01*
X774822Y182550D01*
X775132Y180201D01*
X776039Y178011D01*
X777481Y176131D01*
X779361Y174688D01*
X781551Y173782D01*
X783900Y173472D01*
X786249Y173782D01*
X788439Y174688D01*
X790319Y176131D01*
X791761Y178011D01*
X792668Y180201D01*
X792978Y182550D01*
X792668Y184900D01*
X791761Y187089D01*
X790319Y188969D01*
X788439Y190411D01*
X786249Y191318D01*
X783900Y191628D01*
D02*
G37*
G36*
Y116528D02*
X781551Y116218D01*
X779361Y115311D01*
X777481Y113869D01*
X776039Y111989D01*
X775132Y109799D01*
X774822Y107450D01*
X775132Y105100D01*
X776039Y102911D01*
X777481Y101031D01*
X779361Y99588D01*
X781551Y98682D01*
X783900Y98372D01*
X786249Y98682D01*
X788439Y99588D01*
X790319Y101031D01*
X791761Y102911D01*
X792668Y105100D01*
X792978Y107450D01*
X792668Y109799D01*
X791761Y111989D01*
X790319Y113869D01*
X788439Y115311D01*
X786249Y116218D01*
X783900Y116528D01*
D02*
G37*
G36*
Y71628D02*
X781551Y71318D01*
X779361Y70411D01*
X777481Y68969D01*
X776039Y67089D01*
X775132Y64899D01*
X774822Y62550D01*
X775132Y60201D01*
X776039Y58011D01*
X777481Y56131D01*
X779361Y54689D01*
X781551Y53782D01*
X783900Y53472D01*
X786249Y53782D01*
X788439Y54689D01*
X790319Y56131D01*
X791761Y58011D01*
X792668Y60201D01*
X792978Y62550D01*
X792668Y64899D01*
X791761Y67089D01*
X790319Y68969D01*
X788439Y70411D01*
X786249Y71318D01*
X783900Y71628D01*
D02*
G37*
%LPD*%
D13*
X57000Y522000D02*
X69220D01*
X41250D02*
X57000D01*
X210850Y510850D02*
X485000D01*
D14*
X70150Y535000D02*
X76150Y541000D01*
X41750Y535000D02*
X70150D01*
X154500Y516500D02*
X165250Y527250D01*
Y554000D01*
X106000Y516500D02*
X154500D01*
X140583Y565485D02*
X177000D01*
X140000Y564902D02*
X140583Y565485D01*
X177000D02*
X182515Y571000D01*
X189000D01*
X195000Y565000D01*
X76731Y532500D02*
X84000D01*
X72731Y528500D02*
X76731Y532500D01*
X41250Y528500D02*
X72731D01*
X76150Y541000D02*
X84000D01*
X236805Y42695D02*
X298000D01*
X230500Y49000D02*
X236805Y42695D01*
X493500Y78500D02*
Y148515D01*
X534750Y189765D02*
Y218030D01*
X493500Y148515D02*
X534750Y189765D01*
X493500Y157000D02*
X528750Y192250D01*
Y215250D01*
X530000Y222780D02*
X534750Y218030D01*
X530000Y222780D02*
Y228485D01*
X532250Y230735D01*
Y300152D01*
X528000Y304402D02*
X532250Y300152D01*
X528000Y304402D02*
Y317000D01*
X536000Y226000D02*
X536250Y226250D01*
Y308750D01*
X536500Y309000D01*
X80400Y437700D02*
X125000D01*
X145000Y457700D01*
X0Y0D02*
X810000D01*
X0D02*
X0Y610000D01*
X810000D01*
Y0D02*
Y610000D01*
D16*
X211478Y49000D02*
X220000D01*
X226270Y55270D01*
X234430D01*
X240350Y49350D01*
Y49000D02*
X240350Y49000D01*
X291000D01*
X205000Y55478D02*
X211478Y49000D01*
X205000Y55478D02*
Y97000D01*
X324205Y564902D02*
X331182Y557925D01*
X205000Y564902D02*
X324205D01*
X331182Y557925D02*
X353800D01*
X375500Y252622D02*
X381600D01*
X252550Y287572D02*
X252600Y287622D01*
D93*
X39000Y514250D02*
D03*
Y555750D02*
D03*
D94*
X80400Y432700D02*
D03*
Y407300D02*
D03*
Y381900D02*
D03*
Y212700D02*
D03*
Y187300D02*
D03*
Y161900D02*
D03*
Y271900D02*
D03*
Y297300D02*
D03*
Y322700D02*
D03*
D95*
Y458100D02*
D03*
Y238100D02*
D03*
Y348100D02*
D03*
D96*
X99000Y130500D02*
D03*
X85000Y106500D02*
D03*
X54000Y34500D02*
D03*
D97*
X131000Y40000D02*
D03*
X21000Y80000D02*
D03*
D98*
X759000Y120050D02*
D03*
Y49950D02*
D03*
Y240050D02*
D03*
Y169950D02*
D03*
Y340050D02*
D03*
Y269950D02*
D03*
D99*
X783900Y107450D02*
D03*
Y62550D02*
D03*
Y227450D02*
D03*
Y182550D02*
D03*
Y327450D02*
D03*
Y282550D02*
D03*
D100*
X795000Y515000D02*
D03*
X133500Y488000D02*
D03*
X165250Y554000D02*
D03*
X195000Y565000D02*
D03*
X106000Y516500D02*
D03*
X140000Y564902D02*
D03*
X185000Y565000D02*
D03*
X84000Y532500D02*
D03*
Y541000D02*
D03*
X57000Y522000D02*
D03*
X69220D02*
D03*
X198000Y351000D02*
D03*
X298000Y42695D02*
D03*
X240350Y49350D02*
D03*
X685000Y580000D02*
D03*
X585000D02*
D03*
X485000D02*
D03*
X385000D02*
D03*
X285000D02*
D03*
X185000D02*
D03*
X85000D02*
D03*
X205000Y97000D02*
D03*
X408000Y263000D02*
D03*
X518800Y561000D02*
D03*
X205000Y564902D02*
D03*
X447000Y560000D02*
D03*
X480800Y556750D02*
D03*
X493250D02*
D03*
X773000Y432300D02*
D03*
Y443000D02*
D03*
X688000Y503000D02*
D03*
Y524000D02*
D03*
Y544900D02*
D03*
X626500Y447000D02*
D03*
X654000D02*
D03*
X641000D02*
D03*
X691000Y466000D02*
D03*
X712000Y491000D02*
D03*
X626500Y503000D02*
D03*
Y524000D02*
D03*
X626500Y544900D02*
D03*
X291000Y49000D02*
D03*
X493500Y157000D02*
D03*
X528750Y215250D02*
D03*
X528000Y317000D02*
D03*
X493500Y78500D02*
D03*
X536000Y226000D02*
D03*
X536500Y309000D02*
D03*
X513000Y295000D02*
D03*
X145000Y457700D02*
D03*
X614000Y266000D02*
D03*
X785000Y360000D02*
D03*
X468000Y77000D02*
D03*
X548250Y206750D02*
D03*
X175500Y73500D02*
D03*
X257000Y27000D02*
D03*
X230500Y49000D02*
D03*
X152000Y292000D02*
D03*
X199610Y374000D02*
D03*
X154000Y420000D02*
D03*
X140000Y383000D02*
D03*
X581000Y140000D02*
D03*
X503000D02*
D03*
X574250Y155000D02*
D03*
X522000Y154900D02*
D03*
X567750Y274771D02*
D03*
X353800Y557925D02*
D03*
X315700Y558000D02*
D03*
X303000D02*
D03*
X277600Y557925D02*
D03*
X292000Y234000D02*
D03*
X425000Y138400D02*
D03*
X408000Y223000D02*
D03*
X317000Y218000D02*
D03*
X223000Y76000D02*
D03*
X210850Y510850D02*
D03*
X210500Y554000D02*
D03*
X202478Y457000D02*
D03*
X432000Y77100D02*
D03*
X256500Y122000D02*
D03*
X211478Y49000D02*
D03*
X225000Y245000D02*
D03*
X263000Y68000D02*
D03*
X222000Y279000D02*
D03*
X136750Y536750D02*
D03*
X798000Y580000D02*
D03*
X778000D02*
D03*
X582400Y560200D02*
D03*
X419258Y453686D02*
D03*
X434258Y438686D02*
D03*
X419258Y423686D02*
D03*
X404258Y438686D02*
D03*
X419258D02*
D03*
X434258Y453686D02*
D03*
Y423686D02*
D03*
X404258D02*
D03*
Y453686D02*
D03*
X198500Y419250D02*
D03*
X582400Y332000D02*
D03*
X419258Y108000D02*
D03*
X500000Y32000D02*
D03*
X410000Y57000D02*
D03*
X222000Y164000D02*
D03*
X152000Y151622D02*
D03*
D101*
X14500Y575000D02*
D03*
Y495000D02*
D03*
D102*
Y523000D02*
D03*
Y547000D02*
D03*
D103*
Y523000D02*
D03*
Y547000D02*
D03*
D104*
Y495000D02*
D03*
Y575000D02*
D03*
D105*
X41250Y522000D02*
D03*
Y548000D02*
D03*
Y528500D02*
D03*
Y535000D02*
D03*
Y541500D02*
D03*
M02*
