G04*
G04 #@! TF.GenerationSoftware,Altium Limited,Altium Designer,19.0.10 (269)*
G04*
G04 Layer_Color=8388736*
%FSLAX44Y44*%
%MOMM*%
G71*
G01*
G75*
%ADD13C,0.2000*%
%ADD17C,3.0480*%
%ADD18R,1.6532X1.3532*%
%ADD19R,2.3032X2.3032*%
%ADD20O,0.9532X0.5032*%
%ADD21O,0.5032X0.9532*%
%ADD22R,3.1532X1.4032*%
%ADD23R,1.2532X1.6032*%
%ADD24R,1.3532X1.6532*%
G04:AMPARAMS|DCode=25|XSize=0.6032mm|YSize=0.8532mm|CornerRadius=0.1516mm|HoleSize=0mm|Usage=FLASHONLY|Rotation=270.000|XOffset=0mm|YOffset=0mm|HoleType=Round|Shape=RoundedRectangle|*
%AMROUNDEDRECTD25*
21,1,0.6032,0.5500,0,0,270.0*
21,1,0.3000,0.8532,0,0,270.0*
1,1,0.3032,-0.2750,-0.1500*
1,1,0.3032,-0.2750,0.1500*
1,1,0.3032,0.2750,0.1500*
1,1,0.3032,0.2750,-0.1500*
%
%ADD25ROUNDEDRECTD25*%
%ADD26R,1.6032X1.2532*%
%ADD27R,2.1032X2.6032*%
%ADD28R,2.8032X1.3032*%
%ADD29C,1.1938*%
%ADD30R,1.0532X1.5032*%
%ADD31R,1.1032X1.2032*%
%ADD32R,1.2954X2.6924*%
%ADD33O,0.8032X2.4032*%
%ADD34R,1.0632X1.7032*%
%ADD35R,1.7032X1.0632*%
%ADD36R,6.1622X6.2442*%
%ADD37R,1.7532X1.5532*%
%ADD38R,0.8032X1.5532*%
%ADD39R,1.7032X1.4532*%
%ADD40R,1.1032X0.8532*%
%ADD41R,2.2032X1.0032*%
%ADD42R,1.4532X1.7032*%
%ADD43R,1.5532X3.0032*%
%ADD44R,2.9032X1.3532*%
%ADD45R,1.6032X1.2032*%
%ADD46C,1.8532*%
%ADD47R,1.8532X1.8532*%
%ADD48C,2.8032*%
G04:AMPARAMS|DCode=49|XSize=3.7032mm|YSize=1.7032mm|CornerRadius=0.4766mm|HoleSize=0mm|Usage=FLASHONLY|Rotation=180.000|XOffset=0mm|YOffset=0mm|HoleType=Round|Shape=RoundedRectangle|*
%AMROUNDEDRECTD49*
21,1,3.7032,0.7500,0,0,180.0*
21,1,2.7500,1.7032,0,0,180.0*
1,1,0.9532,-1.3750,0.3750*
1,1,0.9532,1.3750,0.3750*
1,1,0.9532,1.3750,-0.3750*
1,1,0.9532,-1.3750,-0.3750*
%
%ADD49ROUNDEDRECTD49*%
%ADD50C,2.5032*%
G04:AMPARAMS|DCode=51|XSize=3.7032mm|YSize=1.7032mm|CornerRadius=0.4766mm|HoleSize=0mm|Usage=FLASHONLY|Rotation=90.000|XOffset=0mm|YOffset=0mm|HoleType=Round|Shape=RoundedRectangle|*
%AMROUNDEDRECTD51*
21,1,3.7032,0.7500,0,0,90.0*
21,1,2.7500,1.7032,0,0,90.0*
1,1,0.9532,0.3750,1.3750*
1,1,0.9532,0.3750,-1.3750*
1,1,0.9532,-0.3750,-1.3750*
1,1,0.9532,-0.3750,1.3750*
%
%ADD51ROUNDEDRECTD51*%
G04:AMPARAMS|DCode=52|XSize=1.4032mm|YSize=2.1032mm|CornerRadius=0.4016mm|HoleSize=0mm|Usage=FLASHONLY|Rotation=90.000|XOffset=0mm|YOffset=0mm|HoleType=Round|Shape=RoundedRectangle|*
%AMROUNDEDRECTD52*
21,1,1.4032,1.3000,0,0,90.0*
21,1,0.6000,2.1032,0,0,90.0*
1,1,0.8032,0.6500,0.3000*
1,1,0.8032,0.6500,-0.3000*
1,1,0.8032,-0.6500,-0.3000*
1,1,0.8032,-0.6500,0.3000*
%
%ADD52ROUNDEDRECTD52*%
%ADD53C,1.5500*%
G04:AMPARAMS|DCode=54|XSize=2.2032mm|YSize=1.5032mm|CornerRadius=0.4266mm|HoleSize=0mm|Usage=FLASHONLY|Rotation=180.000|XOffset=0mm|YOffset=0mm|HoleType=Round|Shape=RoundedRectangle|*
%AMROUNDEDRECTD54*
21,1,2.2032,0.6500,0,0,180.0*
21,1,1.3500,1.5032,0,0,180.0*
1,1,0.8532,-0.6750,0.3250*
1,1,0.8532,0.6750,0.3250*
1,1,0.8532,0.6750,-0.3250*
1,1,0.8532,-0.6750,-0.3250*
%
%ADD54ROUNDEDRECTD54*%
G04:AMPARAMS|DCode=55|XSize=2.2032mm|YSize=1.5032mm|CornerRadius=0.4266mm|HoleSize=0mm|Usage=FLASHONLY|Rotation=90.000|XOffset=0mm|YOffset=0mm|HoleType=Round|Shape=RoundedRectangle|*
%AMROUNDEDRECTD55*
21,1,2.2032,0.6500,0,0,90.0*
21,1,1.3500,1.5032,0,0,90.0*
1,1,0.8532,0.3250,0.6750*
1,1,0.8532,0.3250,-0.6750*
1,1,0.8532,-0.3250,-0.6750*
1,1,0.8532,-0.3250,0.6750*
%
%ADD55ROUNDEDRECTD55*%
%ADD56C,1.9032*%
%ADD57C,1.6032*%
%ADD58C,0.8032*%
D13*
X0Y0D02*
X810000D01*
X0D02*
X0Y610000D01*
X810000D01*
Y0D02*
Y610000D01*
D17*
X700009Y75088D02*
D03*
X733009Y465088D02*
D03*
X75009Y25088D02*
D03*
D18*
X555000Y151000D02*
D03*
Y133000D02*
D03*
X531600Y246500D02*
D03*
Y228500D02*
D03*
X615000Y246500D02*
D03*
Y228500D02*
D03*
X378000Y225000D02*
D03*
Y207000D02*
D03*
X397000Y142000D02*
D03*
Y160000D02*
D03*
X240000Y229000D02*
D03*
Y247000D02*
D03*
X397000Y121000D02*
D03*
Y103000D02*
D03*
X220000Y111000D02*
D03*
Y129000D02*
D03*
D19*
X135750Y530750D02*
D03*
D20*
X156000Y540500D02*
D03*
Y534000D02*
D03*
Y527500D02*
D03*
Y521000D02*
D03*
X115500D02*
D03*
Y527500D02*
D03*
Y534000D02*
D03*
Y540500D02*
D03*
D21*
X145500Y510500D02*
D03*
X139000D02*
D03*
X132500D02*
D03*
X126000D02*
D03*
Y551000D02*
D03*
X132500D02*
D03*
X139000D02*
D03*
X145500D02*
D03*
D22*
X788250Y558500D02*
D03*
Y532300D02*
D03*
D23*
X531500Y41311D02*
D03*
X512500D02*
D03*
X355500Y245000D02*
D03*
X374500D02*
D03*
X390500D02*
D03*
X409500D02*
D03*
X355500Y285000D02*
D03*
X374500D02*
D03*
X390500D02*
D03*
X409500D02*
D03*
X460000Y94000D02*
D03*
X479000D02*
D03*
X335500Y183000D02*
D03*
X354500D02*
D03*
X354500Y225000D02*
D03*
X335500D02*
D03*
X284500Y135000D02*
D03*
X265500D02*
D03*
X397000Y183000D02*
D03*
X378000D02*
D03*
X324000Y81000D02*
D03*
X343000D02*
D03*
X378500Y39000D02*
D03*
X359500D02*
D03*
X342500D02*
D03*
X323500D02*
D03*
X397500Y82000D02*
D03*
X378500D02*
D03*
X220500Y465000D02*
D03*
X201500D02*
D03*
X220500Y445000D02*
D03*
X201500D02*
D03*
X179500Y416000D02*
D03*
X160500D02*
D03*
D24*
X460000Y41550D02*
D03*
X442000D02*
D03*
X691500Y535000D02*
D03*
X709500D02*
D03*
X339000Y245000D02*
D03*
X321000D02*
D03*
X391000Y265000D02*
D03*
X409000D02*
D03*
X339142Y285000D02*
D03*
X321142D02*
D03*
X428000Y305000D02*
D03*
X446000D02*
D03*
X478000Y41550D02*
D03*
X496000D02*
D03*
X336000Y204000D02*
D03*
X354000D02*
D03*
X360000Y59000D02*
D03*
X378000D02*
D03*
X324000D02*
D03*
X342000D02*
D03*
D25*
X480250Y62050D02*
D03*
Y68550D02*
D03*
Y75050D02*
D03*
X459750D02*
D03*
Y62050D02*
D03*
D26*
X726000Y489514D02*
D03*
Y508514D02*
D03*
X745000D02*
D03*
Y489514D02*
D03*
X616300Y93500D02*
D03*
Y74500D02*
D03*
X443000Y59050D02*
D03*
Y78050D02*
D03*
X399000Y206500D02*
D03*
Y225500D02*
D03*
X220000Y247500D02*
D03*
Y228500D02*
D03*
X240000Y129500D02*
D03*
Y110500D02*
D03*
X788250Y486000D02*
D03*
Y505000D02*
D03*
D27*
X552500Y228500D02*
D03*
X593500D02*
D03*
D28*
X248000Y185000D02*
D03*
X292000D02*
D03*
X168000D02*
D03*
X212000D02*
D03*
X248000Y65000D02*
D03*
X292000D02*
D03*
X168000D02*
D03*
X212000D02*
D03*
D29*
X480000Y160000D02*
D03*
Y123000D02*
D03*
X430000Y195000D02*
D03*
X458194Y195000D02*
D03*
X557750Y88000D02*
D03*
X640000Y88000D02*
D03*
D30*
X373500Y265000D02*
D03*
X356500D02*
D03*
X338500Y303000D02*
D03*
X321500D02*
D03*
X266500Y110000D02*
D03*
X283500D02*
D03*
D31*
X565000Y204000D02*
D03*
X581000D02*
D03*
D32*
X442903Y239000D02*
D03*
X471097D02*
D03*
X443045Y276000D02*
D03*
X471239D02*
D03*
X458194Y160000D02*
D03*
X430000D02*
D03*
X194097Y238000D02*
D03*
X165903D02*
D03*
X458194Y123000D02*
D03*
X430000D02*
D03*
X194097Y118000D02*
D03*
X165903D02*
D03*
D33*
X368100Y155000D02*
D03*
X355400D02*
D03*
X342700D02*
D03*
X330000D02*
D03*
X368100Y107000D02*
D03*
X355400D02*
D03*
X342700D02*
D03*
X330000D02*
D03*
D34*
X582400Y564900D02*
D03*
X569700Y565000D02*
D03*
X557000D02*
D03*
X544300D02*
D03*
X531600D02*
D03*
X518900D02*
D03*
X506200D02*
D03*
X493500D02*
D03*
X480800D02*
D03*
X468100D02*
D03*
X455400D02*
D03*
X442700D02*
D03*
X430000D02*
D03*
X417300D02*
D03*
X404600D02*
D03*
X391900D02*
D03*
X379200D02*
D03*
X366500D02*
D03*
X353800D02*
D03*
X341100D02*
D03*
X328400D02*
D03*
X315700D02*
D03*
X303000D02*
D03*
X290300D02*
D03*
X277600D02*
D03*
Y364900D02*
D03*
X290300D02*
D03*
X303000D02*
D03*
X315700D02*
D03*
X328400D02*
D03*
X341100D02*
D03*
X353800D02*
D03*
X366500D02*
D03*
X379200D02*
D03*
X391900D02*
D03*
X404600D02*
D03*
X417300D02*
D03*
X430000D02*
D03*
X442700D02*
D03*
X455400D02*
D03*
X468100D02*
D03*
X480800D02*
D03*
X493500D02*
D03*
X506200D02*
D03*
X518900D02*
D03*
X531600D02*
D03*
X544300D02*
D03*
X557000D02*
D03*
X569700D02*
D03*
X582400D02*
D03*
D35*
X260100Y388800D02*
D03*
Y401500D02*
D03*
Y414200D02*
D03*
Y426900D02*
D03*
Y439600D02*
D03*
Y452300D02*
D03*
Y465000D02*
D03*
Y477700D02*
D03*
Y490400D02*
D03*
Y503100D02*
D03*
Y515800D02*
D03*
Y528500D02*
D03*
Y541200D02*
D03*
D36*
X418258Y458686D02*
D03*
D37*
X180072Y527000D02*
D03*
Y547000D02*
D03*
D38*
X170000Y465000D02*
D03*
X179500Y441000D02*
D03*
X160500D02*
D03*
D39*
X221000Y526500D02*
D03*
Y505500D02*
D03*
D40*
X709500Y508514D02*
D03*
Y499014D02*
D03*
Y489514D02*
D03*
X685500D02*
D03*
Y499014D02*
D03*
Y508514D02*
D03*
D41*
X626000Y518000D02*
D03*
Y498000D02*
D03*
D42*
X200000Y485000D02*
D03*
X221000D02*
D03*
D43*
X626000Y543000D02*
D03*
X658000D02*
D03*
D44*
X658000Y515000D02*
D03*
Y485000D02*
D03*
D45*
X219000Y406500D02*
D03*
Y425500D02*
D03*
X197000Y416000D02*
D03*
D46*
X80400Y386900D02*
D03*
Y412300D02*
D03*
Y437700D02*
D03*
Y231900D02*
D03*
Y257300D02*
D03*
Y282700D02*
D03*
Y96900D02*
D03*
Y122300D02*
D03*
Y147700D02*
D03*
D47*
Y463100D02*
D03*
Y308100D02*
D03*
Y173100D02*
D03*
D48*
X105000Y75000D02*
D03*
Y185000D02*
D03*
D49*
X120000Y128000D02*
D03*
Y238000D02*
D03*
D50*
X40000Y112500D02*
D03*
Y37500D02*
D03*
Y222500D02*
D03*
Y147500D02*
D03*
D51*
Y75000D02*
D03*
Y185000D02*
D03*
D52*
X14500Y500000D02*
D03*
Y570000D02*
D03*
D53*
X41500Y560000D02*
D03*
Y510000D02*
D03*
D54*
X99000Y355500D02*
D03*
X85000Y331500D02*
D03*
X54000Y259500D02*
D03*
D55*
X131000Y265000D02*
D03*
X21000Y305000D02*
D03*
D56*
X759000Y120050D02*
D03*
Y49950D02*
D03*
Y240050D02*
D03*
Y169950D02*
D03*
Y340050D02*
D03*
Y269950D02*
D03*
D57*
X783900Y107450D02*
D03*
Y62550D02*
D03*
Y227450D02*
D03*
Y182550D02*
D03*
Y327450D02*
D03*
Y282550D02*
D03*
D58*
X487000Y55700D02*
D03*
X567000Y151000D02*
D03*
X557642Y48000D02*
D03*
X588781Y134000D02*
D03*
X135750Y530750D02*
D03*
X144000Y438000D02*
D03*
X205000Y570000D02*
D03*
X353800Y555000D02*
D03*
X798000Y584000D02*
D03*
X778000D02*
D03*
X670000D02*
D03*
X650000D02*
D03*
X95000D02*
D03*
X80400Y584000D02*
D03*
X640000Y88000D02*
D03*
X132500Y498000D02*
D03*
X582400Y575000D02*
D03*
X155500Y504000D02*
D03*
X458194Y195000D02*
D03*
X430000Y195000D02*
D03*
X418258Y473686D02*
D03*
X433258Y458686D02*
D03*
X418258Y443686D02*
D03*
X403258Y458686D02*
D03*
X418258D02*
D03*
X433258Y473686D02*
D03*
Y443686D02*
D03*
X403258D02*
D03*
Y473686D02*
D03*
X180000Y514000D02*
D03*
X221000Y543000D02*
D03*
Y560749D02*
D03*
X315700Y555000D02*
D03*
X303000D02*
D03*
X277600D02*
D03*
X493500D02*
D03*
X233500Y425500D02*
D03*
Y445000D02*
D03*
X185000Y455000D02*
D03*
X582400Y350000D02*
D03*
X488950Y94000D02*
D03*
X231000Y145000D02*
D03*
X491450Y68550D02*
D03*
X544272Y29000D02*
D03*
X544300Y44000D02*
D03*
X531999Y258000D02*
D03*
X526000Y211000D02*
D03*
X590250Y155000D02*
D03*
X615000Y258000D02*
D03*
X480800Y555000D02*
D03*
X557750Y88000D02*
D03*
X469000Y41311D02*
D03*
X200000Y170000D02*
D03*
Y48000D02*
D03*
X487000Y194000D02*
D03*
X496000Y173000D02*
D03*
X795000Y45000D02*
D03*
X624745Y173000D02*
D03*
X570750Y122619D02*
D03*
X609750Y155152D02*
D03*
X64535Y515000D02*
D03*
X405000Y333000D02*
D03*
X630000Y565000D02*
D03*
X620000D02*
D03*
X650000Y470000D02*
D03*
X670000D02*
D03*
X676000Y535000D02*
D03*
Y547000D02*
D03*
X105000Y521000D02*
D03*
X92000Y527000D02*
D03*
Y536000D02*
D03*
X589995Y49950D02*
D03*
X583750Y70000D02*
D03*
X577250Y60000D02*
D03*
X581000Y192000D02*
D03*
X565100D02*
D03*
X616000Y60000D02*
D03*
X608500D02*
D03*
X180072Y560749D02*
D03*
X480000Y123000D02*
D03*
Y160000D02*
D03*
X420000Y265000D02*
D03*
X458000Y305000D02*
D03*
X330000Y265000D02*
D03*
X339000Y258000D02*
D03*
X285000Y300000D02*
D03*
X293000Y296000D02*
D03*
X248000Y75000D02*
D03*
X168000D02*
D03*
X248000Y195000D02*
D03*
X168000Y195000D02*
D03*
X410000Y121000D02*
D03*
X410000Y142000D02*
D03*
X315000Y155000D02*
D03*
M02*
