M48
;Layer_Color=9474304
;FILE_FORMAT=4:4
METRIC,LZ
;TYPE=PLATED
T1F00S00C0.3000
T3F00S00C0.8500
T5F00S00C1.0000
T7F00S00C1.1000
T8F00S00C1.3000
T9F00S00C1.7000
T10F00S00C2.0000
%
T01
X00469Y00041311
X00487Y000557
X0049145Y0006855
X0048895Y00094
X0048Y00123
Y0016
X00496Y00173
X00487Y00194
X00458194Y00195
X005651Y00192
X00581
X0059025Y00155
X0060975Y00155152
X00624745Y00173
X00588781Y00134
X0057075Y00122619
X00567Y00151
X0055775Y00088
X00557642Y00048
X005443Y00044
X00544272Y00029
X0057725Y0006
X0058375Y0007
X00589995Y0004995
X006085Y0006
X00616
X0064Y00088
X00795Y00045
X0041Y00121
X0041Y00142
X0043Y00195
X00315Y00155
X00231Y00145
X002Y0017
X00168Y00195
X00248Y00195
X00248Y00075
X002Y00048
X00168Y00075
X00285Y003
X00293Y00296
X0033Y00265
X00339Y00258
X0042Y00265
X00405Y00333
X00403258Y00443686
X00418258
Y00458686
Y00473686
X00433258
Y00458686
Y00443686
X00403258Y00458686
Y00473686
X003538Y00555
X003157Y00555
X00303
X002776
X00221Y00560749
Y00543
X00205Y0057
X00180072Y00560749
X0018Y00514
X001555Y00504
X001325Y00498
X0013575Y0053075
X00105Y00521
X00092Y00527
Y00536
X00064535Y00515
X000804Y00584
X00095Y00584
X00144Y00438
X00185Y00455
X002335Y00445
Y004255
X00458Y00305
X00531999Y00258
X00526Y00211
X00615Y00258
X005824Y0035
X0065Y0047
X0067
X00676Y00535
Y00547
X0067Y00584
X0065
X0063Y00565
X0062
X005824Y00575
X004935Y00555
X004808
X00778Y00584
X00798
T03
X000415Y0051
Y0056
T05
X007839Y0006255
Y0010745
Y0018255
Y0022745
Y0028255
Y0032745
T07
X000804Y000969
Y001223
Y001477
Y001731
Y002319
Y002573
Y002827
Y003081
Y003869
Y004123
Y004377
Y004631
T08
X00759Y0004995
Y0012005
Y0016995
Y0024005
Y0026995
Y0034005
T09
X0004Y000375
Y001125
Y001475
Y002225
T10
X00105Y00075
Y00185
M30
