G04*
G04 #@! TF.GenerationSoftware,Altium Limited,Altium Designer,19.0.10 (269)*
G04*
G04 Layer_Color=65535*
%FSLAX44Y44*%
%MOMM*%
G71*
G01*
G75*
%ADD10C,0.2500*%
%ADD11C,0.1270*%
%ADD12C,0.4000*%
%ADD13C,0.2000*%
%ADD14C,0.2540*%
%ADD15C,0.1524*%
%ADD16C,0.0254*%
D10*
X157500Y559250D02*
G03*
X157500Y559250I-1250J0D01*
G01*
X481500Y54550D02*
G03*
X481500Y54550I-1250J0D01*
G01*
X377850Y155000D02*
G03*
X377850Y155000I-1250J0D01*
G01*
X153250Y441000D02*
G03*
X153250Y441000I-1250J0D01*
G01*
X686750Y517264D02*
G03*
X686750Y517264I-1250J0D01*
G01*
X220250Y396000D02*
G03*
X220250Y396000I-1250J0D01*
G01*
D11*
X488001Y160000D02*
G03*
X488001Y160000I-8001J0D01*
G01*
Y123000D02*
G03*
X488001Y123000I-8001J0D01*
G01*
X438001Y195000D02*
G03*
X438001Y195000I-8001J0D01*
G01*
X466195Y195000D02*
G03*
X466195Y195000I-8001J0D01*
G01*
X565751Y88000D02*
G03*
X565751Y88000I-8001J0D01*
G01*
X648001Y88000D02*
G03*
X648001Y88000I-8001J0D01*
G01*
D12*
X368050Y132000D02*
G03*
X368050Y132000I-2000J0D01*
G01*
D13*
X561250Y141500D02*
Y142500D01*
X548750Y141500D02*
Y142500D01*
X151000Y552750D02*
X157750D01*
Y546000D02*
Y552750D01*
X113750D02*
X120500D01*
X113750Y546000D02*
Y552750D01*
Y508750D02*
X120500D01*
X113750D02*
Y515500D01*
X151000Y508750D02*
X157750D01*
Y515500D01*
X521500Y35311D02*
X522500D01*
X521500Y47311D02*
X522500D01*
X450500Y35300D02*
X451500D01*
X450500Y47800D02*
X451500D01*
X467000Y57550D02*
X473000D01*
X467000Y79550D02*
X473000D01*
Y57550D02*
Y79550D01*
X467000Y57550D02*
Y79550D01*
X720000Y498514D02*
Y499514D01*
X732000Y498514D02*
Y499514D01*
X751000Y498514D02*
Y499514D01*
X739000Y498514D02*
Y499514D01*
X700000Y541250D02*
X701000D01*
X700000Y528750D02*
X701000D01*
X364500Y259500D02*
X365500D01*
X364500Y270500D02*
X365500D01*
X329500Y238750D02*
X330500D01*
X329500Y251250D02*
X330500D01*
X622300Y83500D02*
Y84500D01*
X610300Y83500D02*
Y84500D01*
X364500Y251000D02*
X365500D01*
X364500Y239000D02*
X365500D01*
X399500Y251000D02*
X400500D01*
X399500Y239000D02*
X400500D01*
X399500Y271250D02*
X400500D01*
X399500Y258750D02*
X400500D01*
X329500Y297500D02*
X330500D01*
X329500Y308500D02*
X330500D01*
X329642Y278750D02*
X330642D01*
X329642Y291250D02*
X330642D01*
X364500Y291000D02*
X365500D01*
X364500Y279000D02*
X365500D01*
X399500Y291000D02*
X400500D01*
X399500Y279000D02*
X400500D01*
X572500Y200000D02*
X573500D01*
X572500Y208000D02*
X573500D01*
X436500Y311250D02*
X437500D01*
X436500Y298750D02*
X437500D01*
X537850Y237000D02*
Y238000D01*
X525350Y237000D02*
Y238000D01*
X621250Y237000D02*
Y238000D01*
X608750Y237000D02*
Y238000D01*
X437000Y68050D02*
Y69050D01*
X449000Y68050D02*
Y69050D01*
X469000Y100000D02*
X470000D01*
X469000Y88000D02*
X470000D01*
X486500Y47800D02*
X487500D01*
X486500Y35300D02*
X487500D01*
X384250Y215500D02*
Y216500D01*
X371750Y215500D02*
Y216500D01*
X344500Y210250D02*
X345500D01*
X344500Y197750D02*
X345500D01*
X344500Y189000D02*
X345500D01*
X344500Y177000D02*
X345500D01*
X393000Y215500D02*
Y216500D01*
X405000Y215500D02*
Y216500D01*
X344500Y219000D02*
X345500D01*
X344500Y231000D02*
X345500D01*
X274500Y129000D02*
X275500D01*
X274500Y141000D02*
X275500D01*
X387000Y177000D02*
X388000D01*
X387000Y189000D02*
X388000D01*
X390750Y150500D02*
Y151500D01*
X403250Y150500D02*
Y151500D01*
X233750Y237500D02*
Y238500D01*
X246250Y237500D02*
Y238500D01*
X226000Y237500D02*
Y238500D01*
X214000Y237500D02*
Y238500D01*
X368500Y65250D02*
X369500D01*
X368500Y52750D02*
X369500D01*
X332500Y65250D02*
X333500D01*
X332500Y52750D02*
X333500D01*
X333000Y87000D02*
X334000D01*
X333000Y75000D02*
X334000D01*
X368500Y33000D02*
X369500D01*
X368500Y45000D02*
X369500D01*
X332500Y33000D02*
X333500D01*
X332500Y45000D02*
X333500D01*
X274500Y115500D02*
X275500D01*
X274500Y104500D02*
X275500D01*
X387500Y76000D02*
X388500D01*
X387500Y88000D02*
X388500D01*
X403250Y111500D02*
Y112500D01*
X390750Y111500D02*
Y112500D01*
X213750Y119500D02*
Y120500D01*
X226250Y119500D02*
Y120500D01*
X246000Y119500D02*
Y120500D01*
X234000Y119500D02*
Y120500D01*
X324050Y140000D02*
X374050D01*
X324050Y122000D02*
X374050D01*
Y140000D01*
X324050Y122000D02*
Y140000D01*
X173322Y536500D02*
Y537500D01*
X186822Y536500D02*
Y537500D01*
X782250Y495000D02*
Y496000D01*
X794250Y495000D02*
Y496000D01*
X177000Y460000D02*
X185000D01*
Y452000D02*
Y460000D01*
X155000D02*
X163000D01*
X155000Y452000D02*
Y460000D01*
X210500Y459000D02*
X211500D01*
X210500Y471000D02*
X211500D01*
X227500Y515500D02*
Y516500D01*
X214500Y515500D02*
Y516500D01*
X701000Y483514D02*
Y514514D01*
X694000Y483514D02*
Y514514D01*
Y483514D02*
X701000D01*
X694000Y514514D02*
X701000D01*
X210500Y439000D02*
X211500D01*
X210500Y451000D02*
X211500D01*
X169500Y410000D02*
X170500D01*
X169500Y422000D02*
X170500D01*
X210000Y491500D02*
X211000D01*
X210000Y478500D02*
X211000D01*
X636500Y556000D02*
X647500D01*
X636500Y530000D02*
X647500D01*
X670500Y494500D02*
Y505500D01*
X645500Y494500D02*
Y505500D01*
X200500Y400500D02*
X208500D01*
X200500D02*
Y407000D01*
Y431500D02*
X208500D01*
X200500Y425000D02*
Y431500D01*
X0Y0D02*
X810000D01*
X0D02*
X0Y610000D01*
X810000D01*
Y0D02*
Y610000D01*
D14*
X548000Y244500D02*
X598000D01*
X548000Y212500D02*
X598000D01*
X290000Y158500D02*
X296500Y165000D01*
X290000Y211500D02*
X296500Y205000D01*
Y165000D02*
Y172000D01*
Y198000D02*
Y205000D01*
X243500Y158500D02*
Y172000D01*
Y158500D02*
X290000D01*
X243500Y211500D02*
X290000D01*
X243500Y198000D02*
Y211500D01*
X210000Y158500D02*
X216500Y165000D01*
X210000Y211500D02*
X216500Y205000D01*
Y165000D02*
Y172000D01*
Y198000D02*
Y205000D01*
X163500Y158500D02*
Y172000D01*
Y158500D02*
X210000D01*
X163500Y211500D02*
X210000D01*
X163500Y198000D02*
Y211500D01*
X290000Y38500D02*
X296500Y45000D01*
X290000Y91500D02*
X296500Y85000D01*
Y45000D02*
Y52000D01*
Y78000D02*
Y85000D01*
X243500Y38500D02*
Y52000D01*
Y38500D02*
X290000D01*
X243500Y91500D02*
X290000D01*
X243500Y78000D02*
Y91500D01*
X210000Y38500D02*
X216500Y45000D01*
X210000Y91500D02*
X216500Y85000D01*
Y45000D02*
Y52000D01*
Y78000D02*
Y85000D01*
X163500Y38500D02*
Y52000D01*
Y38500D02*
X210000D01*
X163500Y91500D02*
X210000D01*
X163500Y78000D02*
Y91500D01*
D15*
X452456Y224268D02*
X461544D01*
X452456Y253732D02*
X461544D01*
X452598Y261268D02*
X461687D01*
X452598Y290732D02*
X461687D01*
X439553Y174732D02*
X448642D01*
X439553Y145268D02*
X448642D01*
X175456Y252732D02*
X184545D01*
X175456Y223268D02*
X184545D01*
X439553Y137732D02*
X448642D01*
X439553Y108268D02*
X448642D01*
X175456Y132732D02*
X184545D01*
X175456Y103268D02*
X184545D01*
D16*
X722398Y259844D02*
Y266194D01*
X722144Y258574D02*
Y267464D01*
X721890Y257050D02*
Y268988D01*
X721636Y255780D02*
Y270258D01*
X721382Y254764D02*
Y271274D01*
X721128Y254002D02*
Y272036D01*
X720874Y253240D02*
Y272798D01*
X720620Y252478D02*
Y273560D01*
X720366Y251716D02*
Y274322D01*
X720112Y251208D02*
Y274830D01*
X719858Y250446D02*
Y275592D01*
X719604Y249938D02*
Y276100D01*
X719350Y249430D02*
Y276608D01*
X719096Y248922D02*
Y277116D01*
X718842Y248414D02*
Y277624D01*
X718588Y247906D02*
Y278132D01*
X718334Y247398D02*
Y278386D01*
X718080Y247144D02*
Y278894D01*
X717826Y246636D02*
Y279402D01*
X717572Y246128D02*
Y279656D01*
X717318Y245874D02*
Y280164D01*
X717064Y245366D02*
Y280418D01*
X716810Y245112D02*
Y280926D01*
X716556Y244858D02*
Y281180D01*
X716302Y244350D02*
Y281688D01*
X716048Y244096D02*
Y281942D01*
X715794Y243842D02*
Y282196D01*
X715540Y243334D02*
Y282450D01*
X715286Y243080D02*
Y282958D01*
X715032Y242826D02*
Y283212D01*
X714778Y242572D02*
Y283466D01*
X714524Y242318D02*
Y283720D01*
X714270Y242064D02*
Y283974D01*
X714016Y241810D02*
Y284228D01*
X713762Y241556D02*
Y284482D01*
X713508Y241048D02*
Y284990D01*
X713254Y241048D02*
Y284990D01*
X713000Y240794D02*
Y284990D01*
X712746Y240540D02*
Y284482D01*
X712492Y240286D02*
Y284228D01*
X712238Y240032D02*
Y283974D01*
X711984Y284736D02*
Y285244D01*
Y239778D02*
Y283720D01*
Y201170D02*
Y205234D01*
Y184914D02*
Y198122D01*
Y157228D02*
Y162562D01*
Y143258D02*
Y147322D01*
Y134114D02*
Y138178D01*
Y125732D02*
Y130050D01*
Y115318D02*
Y119382D01*
X711730Y284482D02*
Y285244D01*
Y239524D02*
Y283466D01*
Y201170D02*
Y205234D01*
Y184914D02*
Y198122D01*
Y156974D02*
Y162562D01*
Y143258D02*
Y147322D01*
Y134114D02*
Y138178D01*
Y125732D02*
Y130050D01*
Y115318D02*
Y119382D01*
X711476Y284228D02*
Y285498D01*
Y239270D02*
Y283212D01*
Y201170D02*
Y205234D01*
Y184914D02*
Y198122D01*
Y156720D02*
Y162054D01*
Y143258D02*
Y147322D01*
Y134114D02*
Y138178D01*
Y125732D02*
Y130050D01*
Y115318D02*
Y119382D01*
X711222Y283974D02*
Y285752D01*
Y239016D02*
Y282958D01*
Y201170D02*
Y205234D01*
Y184914D02*
Y198122D01*
Y156466D02*
Y161800D01*
Y143258D02*
Y147322D01*
Y134114D02*
Y138178D01*
Y125732D02*
Y130050D01*
Y115318D02*
Y119382D01*
X710968Y283720D02*
Y286006D01*
Y238762D02*
Y282704D01*
Y201170D02*
Y205234D01*
Y184914D02*
Y198122D01*
Y156212D02*
Y161546D01*
Y143258D02*
Y147322D01*
Y134114D02*
Y138178D01*
Y125732D02*
Y130050D01*
Y115318D02*
Y119382D01*
X710714Y283466D02*
Y286260D01*
Y238762D02*
Y282450D01*
Y201170D02*
Y205234D01*
Y184914D02*
Y198122D01*
Y155958D02*
Y161292D01*
Y143258D02*
Y147322D01*
Y134114D02*
Y138178D01*
Y125732D02*
Y130050D01*
Y115318D02*
Y119382D01*
X710460Y282958D02*
Y286514D01*
Y238508D02*
Y282196D01*
Y201170D02*
Y205234D01*
Y184914D02*
Y198122D01*
Y155704D02*
Y161038D01*
Y143258D02*
Y147322D01*
Y134114D02*
Y138178D01*
Y125732D02*
Y130050D01*
Y115318D02*
Y119382D01*
X710206Y282958D02*
Y286514D01*
Y238254D02*
Y281942D01*
Y201170D02*
Y205234D01*
Y184914D02*
Y198122D01*
Y155450D02*
Y160784D01*
Y143258D02*
Y147322D01*
Y134114D02*
Y138178D01*
Y125732D02*
Y130050D01*
Y115318D02*
Y119382D01*
X709952Y283212D02*
Y286768D01*
Y238000D02*
Y281688D01*
Y201170D02*
Y205234D01*
Y184914D02*
Y198122D01*
Y155196D02*
Y160530D01*
Y143258D02*
Y147322D01*
Y134114D02*
Y138178D01*
Y125732D02*
Y130050D01*
Y115318D02*
Y119382D01*
X709698Y283466D02*
Y287022D01*
Y238000D02*
Y281434D01*
Y201170D02*
Y205234D01*
Y184914D02*
Y198122D01*
Y154942D02*
Y160276D01*
Y143258D02*
Y147322D01*
Y134114D02*
Y138178D01*
Y125732D02*
Y130050D01*
Y115318D02*
Y119382D01*
X709444Y283720D02*
Y287276D01*
Y237746D02*
Y281180D01*
Y201170D02*
Y205234D01*
Y184914D02*
Y198122D01*
Y154688D02*
Y160276D01*
Y143258D02*
Y147322D01*
Y134114D02*
Y138178D01*
Y125732D02*
Y130050D01*
Y115318D02*
Y119382D01*
X709190Y283974D02*
Y287530D01*
Y237492D02*
Y280926D01*
Y201170D02*
Y205234D01*
Y184914D02*
Y198122D01*
Y154434D02*
Y160022D01*
Y143258D02*
Y147322D01*
Y134114D02*
Y138178D01*
Y125732D02*
Y130050D01*
Y115318D02*
Y119382D01*
X708936Y284228D02*
Y287530D01*
Y237238D02*
Y280672D01*
Y201170D02*
Y205234D01*
Y184914D02*
Y198122D01*
Y154180D02*
Y159768D01*
Y143258D02*
Y147322D01*
Y134114D02*
Y138178D01*
Y125732D02*
Y130050D01*
Y115318D02*
Y119382D01*
X708682Y284482D02*
Y287784D01*
Y281434D02*
Y281942D01*
Y237238D02*
Y280418D01*
Y201170D02*
Y205234D01*
Y184914D02*
Y198122D01*
Y153926D02*
Y159514D01*
Y143258D02*
Y147322D01*
Y134114D02*
Y138178D01*
Y125732D02*
Y130050D01*
Y115318D02*
Y119382D01*
X708428Y284736D02*
Y288038D01*
Y281180D02*
Y282196D01*
Y236984D02*
Y280164D01*
Y201170D02*
Y205234D01*
Y184914D02*
Y198122D01*
Y153672D02*
Y159260D01*
Y143258D02*
Y147322D01*
Y134114D02*
Y138178D01*
Y125732D02*
Y130050D01*
Y115318D02*
Y119382D01*
X708174Y284990D02*
Y288038D01*
Y280926D02*
Y282450D01*
Y236730D02*
Y279910D01*
Y201170D02*
Y205234D01*
Y184914D02*
Y198122D01*
Y153418D02*
Y159006D01*
Y143258D02*
Y147322D01*
Y134114D02*
Y138178D01*
Y125732D02*
Y130050D01*
Y115318D02*
Y119382D01*
X707920Y285244D02*
Y288292D01*
Y280672D02*
Y282704D01*
Y236730D02*
Y279656D01*
Y201170D02*
Y205234D01*
Y184914D02*
Y188978D01*
Y153164D02*
Y158752D01*
Y143258D02*
Y147322D01*
Y134114D02*
Y138178D01*
Y125732D02*
Y130050D01*
Y115318D02*
Y119382D01*
X707666Y285498D02*
Y288546D01*
Y280418D02*
Y282704D01*
Y236476D02*
Y279402D01*
Y201170D02*
Y205234D01*
Y184914D02*
Y188978D01*
Y152910D02*
Y158498D01*
Y143258D02*
Y147322D01*
Y134114D02*
Y138178D01*
Y125732D02*
Y130050D01*
Y115318D02*
Y119382D01*
X707412Y285498D02*
Y288546D01*
Y280164D02*
Y282958D01*
Y236476D02*
Y279148D01*
Y201170D02*
Y205234D01*
Y184914D02*
Y188978D01*
Y152656D02*
Y158244D01*
Y143258D02*
Y147322D01*
Y134114D02*
Y138178D01*
Y125732D02*
Y130050D01*
Y115318D02*
Y119382D01*
X707158Y285752D02*
Y288800D01*
Y279910D02*
Y283212D01*
Y236222D02*
Y278894D01*
Y201170D02*
Y205234D01*
Y184914D02*
Y188978D01*
Y152402D02*
Y157990D01*
Y143258D02*
Y147322D01*
Y134114D02*
Y138178D01*
Y125732D02*
Y130050D01*
Y115318D02*
Y119382D01*
X706904Y286006D02*
Y289054D01*
Y279910D02*
Y283466D01*
Y235968D02*
Y278640D01*
Y201170D02*
Y205234D01*
Y184914D02*
Y188978D01*
Y152148D02*
Y157736D01*
Y143258D02*
Y147322D01*
Y134114D02*
Y138178D01*
Y125732D02*
Y130050D01*
Y115318D02*
Y119382D01*
X706650Y286260D02*
Y289054D01*
Y280164D02*
Y283720D01*
Y235968D02*
Y278386D01*
Y201170D02*
Y205234D01*
Y184914D02*
Y188978D01*
Y151894D02*
Y157482D01*
Y143258D02*
Y147322D01*
Y134114D02*
Y138178D01*
Y125732D02*
Y130050D01*
Y115318D02*
Y119382D01*
X706396Y286514D02*
Y289308D01*
Y280418D02*
Y283720D01*
Y235714D02*
Y278132D01*
Y201170D02*
Y205234D01*
Y184914D02*
Y188978D01*
Y151640D02*
Y157228D01*
Y143258D02*
Y147322D01*
Y134114D02*
Y138178D01*
Y125732D02*
Y130050D01*
Y115318D02*
Y119382D01*
X706142Y286514D02*
Y289308D01*
Y280672D02*
Y283974D01*
Y235714D02*
Y277878D01*
Y201170D02*
Y205234D01*
Y184914D02*
Y188978D01*
Y151386D02*
Y156974D01*
Y143258D02*
Y147322D01*
Y134114D02*
Y138178D01*
Y125732D02*
Y130050D01*
Y115318D02*
Y119382D01*
X705888Y286768D02*
Y289562D01*
Y280926D02*
Y284228D01*
Y235460D02*
Y277624D01*
Y201170D02*
Y205234D01*
Y184914D02*
Y188978D01*
Y151386D02*
Y156720D01*
Y143258D02*
Y147322D01*
Y134114D02*
Y138178D01*
Y125732D02*
Y130050D01*
Y115318D02*
Y119382D01*
X705634Y287022D02*
Y289562D01*
Y281180D02*
Y284228D01*
Y235460D02*
Y277370D01*
Y201170D02*
Y205234D01*
Y184914D02*
Y188978D01*
Y151132D02*
Y156466D01*
Y143258D02*
Y147322D01*
Y134114D02*
Y138178D01*
Y125732D02*
Y130050D01*
Y115318D02*
Y119382D01*
X705380Y287022D02*
Y289816D01*
Y281434D02*
Y284482D01*
Y235206D02*
Y277116D01*
Y201170D02*
Y205234D01*
Y184914D02*
Y188978D01*
Y150878D02*
Y156212D01*
Y143258D02*
Y147322D01*
Y134114D02*
Y138178D01*
Y125732D02*
Y130050D01*
Y115318D02*
Y119382D01*
X705126Y287276D02*
Y289816D01*
Y281688D02*
Y284736D01*
Y235206D02*
Y276862D01*
Y201170D02*
Y205234D01*
Y184914D02*
Y188978D01*
Y150624D02*
Y155958D01*
Y143258D02*
Y147322D01*
Y134114D02*
Y138178D01*
Y125732D02*
Y130050D01*
Y115318D02*
Y119382D01*
X704872Y287530D02*
Y290070D01*
Y281688D02*
Y284736D01*
Y277624D02*
Y278132D01*
Y234952D02*
Y276608D01*
Y201170D02*
Y205234D01*
Y184914D02*
Y188978D01*
Y150370D02*
Y155704D01*
Y143258D02*
Y147322D01*
Y134114D02*
Y138178D01*
Y125732D02*
Y130050D01*
Y115318D02*
Y119382D01*
X704618Y287530D02*
Y290070D01*
Y281942D02*
Y284990D01*
Y277624D02*
Y278386D01*
Y234952D02*
Y276354D01*
Y201170D02*
Y205234D01*
Y184914D02*
Y188978D01*
Y150116D02*
Y155450D01*
Y143258D02*
Y147322D01*
Y134114D02*
Y138178D01*
Y125732D02*
Y130050D01*
Y115318D02*
Y119382D01*
X704364Y287784D02*
Y290324D01*
Y282196D02*
Y285244D01*
Y277116D02*
Y278386D01*
Y234698D02*
Y276100D01*
Y201170D02*
Y205234D01*
Y184914D02*
Y188978D01*
Y149862D02*
Y155196D01*
Y143258D02*
Y147322D01*
Y134114D02*
Y138178D01*
Y125732D02*
Y130050D01*
Y115318D02*
Y119382D01*
X704110Y287784D02*
Y290324D01*
Y282450D02*
Y285244D01*
Y276862D02*
Y278640D01*
Y234698D02*
Y275846D01*
Y201170D02*
Y205234D01*
Y184914D02*
Y188978D01*
Y149608D02*
Y154942D01*
Y143258D02*
Y147322D01*
Y134114D02*
Y138178D01*
Y125732D02*
Y130050D01*
Y115318D02*
Y119382D01*
X703856Y288038D02*
Y290578D01*
Y282704D02*
Y285498D01*
Y276608D02*
Y278894D01*
Y234444D02*
Y275592D01*
Y201170D02*
Y205234D01*
Y184914D02*
Y188978D01*
Y149354D02*
Y154688D01*
Y143258D02*
Y147322D01*
Y134114D02*
Y138178D01*
Y125732D02*
Y130050D01*
Y115318D02*
Y119382D01*
X703602Y288292D02*
Y290578D01*
Y282704D02*
Y285498D01*
Y276354D02*
Y279148D01*
Y234444D02*
Y275338D01*
Y201170D02*
Y205234D01*
Y184914D02*
Y188978D01*
Y149100D02*
Y154434D01*
Y143258D02*
Y147322D01*
Y134114D02*
Y138178D01*
Y125732D02*
Y130050D01*
Y115318D02*
Y119382D01*
X703348Y288292D02*
Y290832D01*
Y282958D02*
Y285752D01*
Y275846D02*
Y279402D01*
Y234190D02*
Y275084D01*
Y201170D02*
Y206250D01*
Y184914D02*
Y188978D01*
Y148846D02*
Y154180D01*
Y143258D02*
Y147322D01*
Y134114D02*
Y138178D01*
Y125732D02*
Y130050D01*
Y115318D02*
Y119382D01*
X703094Y288546D02*
Y290832D01*
Y283212D02*
Y285752D01*
Y275846D02*
Y279402D01*
Y234190D02*
Y274830D01*
Y201170D02*
Y207520D01*
Y184914D02*
Y188978D01*
Y143258D02*
Y153926D01*
Y134114D02*
Y138178D01*
Y125732D02*
Y130050D01*
Y115318D02*
Y119382D01*
X702840Y288546D02*
Y291086D01*
Y283212D02*
Y286006D01*
Y276354D02*
Y279656D01*
Y234190D02*
Y274576D01*
Y201170D02*
Y208536D01*
Y184914D02*
Y188978D01*
Y143258D02*
Y153672D01*
Y134114D02*
Y138178D01*
Y125732D02*
Y130050D01*
Y115318D02*
Y119382D01*
X702586Y288800D02*
Y291086D01*
Y283466D02*
Y286006D01*
Y276608D02*
Y279910D01*
Y233936D02*
Y274322D01*
Y201170D02*
Y209298D01*
Y184914D02*
Y188978D01*
Y143258D02*
Y153418D01*
Y134114D02*
Y138178D01*
Y125732D02*
Y130050D01*
Y115318D02*
Y119382D01*
X702332Y288800D02*
Y291086D01*
Y283720D02*
Y286260D01*
Y276862D02*
Y279910D01*
Y233936D02*
Y274068D01*
Y201170D02*
Y210060D01*
Y184914D02*
Y188978D01*
Y143258D02*
Y153164D01*
Y134114D02*
Y138178D01*
Y125732D02*
Y130050D01*
Y115318D02*
Y119382D01*
X702078Y289054D02*
Y291340D01*
Y283720D02*
Y286260D01*
Y277116D02*
Y280164D01*
Y233682D02*
Y273814D01*
Y201170D02*
Y210822D01*
Y184914D02*
Y188978D01*
Y143258D02*
Y152910D01*
Y134114D02*
Y138178D01*
Y125732D02*
Y130050D01*
Y115318D02*
Y119382D01*
X701824Y289054D02*
Y291340D01*
Y283974D02*
Y286514D01*
Y277370D02*
Y280418D01*
Y233682D02*
Y273560D01*
Y201170D02*
Y211330D01*
Y184914D02*
Y188978D01*
Y143258D02*
Y153164D01*
Y134114D02*
Y138178D01*
Y125732D02*
Y130050D01*
Y115318D02*
Y119382D01*
X701570Y289308D02*
Y291340D01*
Y283974D02*
Y286514D01*
Y277370D02*
Y280418D01*
Y233682D02*
Y273306D01*
Y201170D02*
Y212092D01*
Y184914D02*
Y188978D01*
Y143258D02*
Y153926D01*
Y134114D02*
Y138178D01*
Y125732D02*
Y130050D01*
Y115318D02*
Y119382D01*
X701316Y289308D02*
Y291594D01*
Y284228D02*
Y286768D01*
Y277624D02*
Y280672D01*
Y233428D02*
Y273052D01*
Y201170D02*
Y212600D01*
Y184914D02*
Y188978D01*
Y143258D02*
Y154434D01*
Y134114D02*
Y138178D01*
Y125732D02*
Y130050D01*
Y115318D02*
Y119382D01*
X701062Y289308D02*
Y291594D01*
Y284482D02*
Y286768D01*
Y277878D02*
Y280672D01*
Y233428D02*
Y272798D01*
Y201170D02*
Y213108D01*
Y184914D02*
Y188978D01*
Y143258D02*
Y154942D01*
Y134114D02*
Y138178D01*
Y125732D02*
Y130050D01*
Y115318D02*
Y119382D01*
X700808Y289562D02*
Y291594D01*
Y284482D02*
Y286768D01*
Y278132D02*
Y280926D01*
Y233428D02*
Y272544D01*
Y201170D02*
Y213362D01*
Y184914D02*
Y188978D01*
Y143258D02*
Y155450D01*
Y134114D02*
Y138178D01*
Y125732D02*
Y130050D01*
Y115318D02*
Y119382D01*
X700554Y289562D02*
Y291848D01*
Y284736D02*
Y287022D01*
Y278386D02*
Y280926D01*
Y233174D02*
Y272290D01*
Y201170D02*
Y213870D01*
Y184914D02*
Y188978D01*
Y143258D02*
Y155958D01*
Y134114D02*
Y138178D01*
Y125732D02*
Y130050D01*
Y115318D02*
Y119382D01*
X700300Y289816D02*
Y291848D01*
Y284736D02*
Y287022D01*
Y278386D02*
Y281180D01*
Y233174D02*
Y272036D01*
Y201170D02*
Y214378D01*
Y184914D02*
Y188978D01*
Y143258D02*
Y156212D01*
Y134114D02*
Y138178D01*
Y125732D02*
Y130050D01*
Y115318D02*
Y119382D01*
X700046Y289816D02*
Y291848D01*
Y284990D02*
Y287022D01*
Y278640D02*
Y281180D01*
Y233174D02*
Y271782D01*
Y201170D02*
Y214886D01*
Y184914D02*
Y188978D01*
Y143258D02*
Y156720D01*
Y134114D02*
Y138178D01*
Y125732D02*
Y130050D01*
Y115318D02*
Y119382D01*
X699792Y289816D02*
Y292102D01*
Y284990D02*
Y287276D01*
Y278894D02*
Y281434D01*
Y232920D02*
Y271528D01*
Y201170D02*
Y215140D01*
Y184914D02*
Y188978D01*
Y143258D02*
Y156974D01*
Y134114D02*
Y138178D01*
Y125732D02*
Y130050D01*
Y115318D02*
Y119382D01*
X699538Y290070D02*
Y292102D01*
Y284990D02*
Y287276D01*
Y278894D02*
Y281434D01*
Y232920D02*
Y271274D01*
Y205488D02*
Y215394D01*
Y201170D02*
Y205234D01*
Y184914D02*
Y188978D01*
Y143258D02*
Y157482D01*
Y134114D02*
Y138178D01*
Y125732D02*
Y130050D01*
Y115318D02*
Y119382D01*
X699284Y290070D02*
Y292102D01*
Y285244D02*
Y287276D01*
Y279148D02*
Y281688D01*
Y232920D02*
Y271528D01*
Y206504D02*
Y215902D01*
Y201170D02*
Y205234D01*
Y184914D02*
Y188978D01*
Y143258D02*
Y157736D01*
Y134114D02*
Y138178D01*
Y125732D02*
Y130050D01*
Y115318D02*
Y119382D01*
X699030Y290070D02*
Y292102D01*
Y285244D02*
Y287530D01*
Y279148D02*
Y281688D01*
Y232920D02*
Y271782D01*
Y207520D02*
Y216156D01*
Y201170D02*
Y205234D01*
Y184914D02*
Y188978D01*
Y143258D02*
Y157990D01*
Y134114D02*
Y138178D01*
Y125732D02*
Y130050D01*
Y115318D02*
Y119382D01*
X698776Y290324D02*
Y292356D01*
Y285498D02*
Y287530D01*
Y279402D02*
Y281688D01*
Y232666D02*
Y272036D01*
Y208282D02*
Y216410D01*
Y201170D02*
Y205234D01*
Y184914D02*
Y188978D01*
Y150116D02*
Y158244D01*
Y143258D02*
Y147322D01*
Y134114D02*
Y138178D01*
Y125732D02*
Y130050D01*
Y115318D02*
Y119382D01*
X698522Y290324D02*
Y292356D01*
Y285498D02*
Y287530D01*
Y279402D02*
Y281942D01*
Y232666D02*
Y272036D01*
Y208790D02*
Y216664D01*
Y201170D02*
Y205234D01*
Y184914D02*
Y188978D01*
Y151132D02*
Y158498D01*
Y143258D02*
Y147322D01*
Y134114D02*
Y138178D01*
Y125732D02*
Y130050D01*
Y115318D02*
Y119382D01*
X698268Y290324D02*
Y292356D01*
Y285498D02*
Y287784D01*
Y279656D02*
Y281942D01*
Y232666D02*
Y272290D01*
Y209552D02*
Y216918D01*
Y201170D02*
Y205234D01*
Y184914D02*
Y188978D01*
Y151894D02*
Y158752D01*
Y143258D02*
Y147322D01*
Y134114D02*
Y138178D01*
Y125732D02*
Y130050D01*
Y115318D02*
Y119382D01*
X698014Y290578D02*
Y292356D01*
Y285752D02*
Y287784D01*
Y279910D02*
Y281942D01*
Y232666D02*
Y272544D01*
Y210060D02*
Y217172D01*
Y201170D02*
Y205234D01*
Y184914D02*
Y188978D01*
Y152402D02*
Y159006D01*
Y143258D02*
Y147322D01*
Y134114D02*
Y138178D01*
Y125732D02*
Y130050D01*
Y115318D02*
Y119382D01*
X697760Y290578D02*
Y292356D01*
Y285752D02*
Y287784D01*
Y279910D02*
Y282196D01*
Y232412D02*
Y272798D01*
Y210568D02*
Y217426D01*
Y201170D02*
Y205234D01*
Y184914D02*
Y188978D01*
Y153164D02*
Y159260D01*
Y143258D02*
Y147322D01*
Y134114D02*
Y138178D01*
Y125732D02*
Y130050D01*
Y115318D02*
Y119382D01*
X697506Y290578D02*
Y292610D01*
Y285752D02*
Y287784D01*
Y279910D02*
Y282196D01*
Y232412D02*
Y272798D01*
Y211076D02*
Y217680D01*
Y201170D02*
Y205234D01*
Y184914D02*
Y188978D01*
Y153672D02*
Y159514D01*
Y143258D02*
Y147322D01*
Y134114D02*
Y138178D01*
Y125732D02*
Y130050D01*
Y115318D02*
Y119382D01*
X697252Y290578D02*
Y292610D01*
Y286006D02*
Y287784D01*
Y280164D02*
Y282196D01*
Y232412D02*
Y273052D01*
Y211330D02*
Y217934D01*
Y201170D02*
Y205234D01*
Y184914D02*
Y188978D01*
Y154180D02*
Y159768D01*
Y143258D02*
Y147322D01*
Y134114D02*
Y138178D01*
Y125732D02*
Y130050D01*
Y115318D02*
Y119382D01*
X696998Y290832D02*
Y292610D01*
Y286006D02*
Y288038D01*
Y280164D02*
Y282450D01*
Y232412D02*
Y273306D01*
Y211838D02*
Y217934D01*
Y201170D02*
Y205234D01*
Y184914D02*
Y188978D01*
Y154434D02*
Y160022D01*
Y143258D02*
Y147322D01*
Y134114D02*
Y138178D01*
Y125732D02*
Y130050D01*
Y115318D02*
Y119382D01*
X696744Y290832D02*
Y292610D01*
Y286006D02*
Y288038D01*
Y280418D02*
Y282450D01*
Y232412D02*
Y273306D01*
Y212346D02*
Y218188D01*
Y201170D02*
Y205234D01*
Y184914D02*
Y188978D01*
Y154942D02*
Y160276D01*
Y143258D02*
Y147322D01*
Y134114D02*
Y138178D01*
Y125732D02*
Y130050D01*
Y115318D02*
Y119382D01*
X696490Y290832D02*
Y292610D01*
Y286260D02*
Y288038D01*
Y280418D02*
Y282450D01*
Y232412D02*
Y273560D01*
Y212600D02*
Y218442D01*
Y201170D02*
Y205234D01*
Y184914D02*
Y188978D01*
Y155196D02*
Y160276D01*
Y143258D02*
Y147322D01*
Y134114D02*
Y138178D01*
Y125732D02*
Y130050D01*
Y115318D02*
Y119382D01*
X696236Y290832D02*
Y292610D01*
Y286260D02*
Y288038D01*
Y280418D02*
Y282450D01*
Y232158D02*
Y273560D01*
Y212854D02*
Y218696D01*
Y201170D02*
Y205234D01*
Y184914D02*
Y188978D01*
Y155450D02*
Y160530D01*
Y143258D02*
Y147322D01*
Y134114D02*
Y138178D01*
Y125732D02*
Y130050D01*
Y115318D02*
Y119382D01*
X695982Y290832D02*
Y292864D01*
Y286260D02*
Y288038D01*
Y280672D02*
Y282704D01*
Y232158D02*
Y273560D01*
Y213362D02*
Y218696D01*
Y201170D02*
Y205234D01*
Y184914D02*
Y188978D01*
Y155958D02*
Y160784D01*
Y143258D02*
Y147322D01*
Y134114D02*
Y138178D01*
Y125732D02*
Y130050D01*
Y115318D02*
Y119382D01*
X695728Y291086D02*
Y292864D01*
Y286260D02*
Y288292D01*
Y280672D02*
Y282704D01*
Y232158D02*
Y273814D01*
Y213616D02*
Y218950D01*
Y201170D02*
Y205234D01*
Y184914D02*
Y188978D01*
Y156212D02*
Y161038D01*
Y143258D02*
Y147322D01*
Y134114D02*
Y138178D01*
Y125732D02*
Y130050D01*
Y115318D02*
Y119382D01*
X695474Y291086D02*
Y292864D01*
Y286514D02*
Y288292D01*
Y280672D02*
Y282704D01*
Y232158D02*
Y273814D01*
Y213870D02*
Y219204D01*
Y201170D02*
Y205234D01*
Y184914D02*
Y188978D01*
Y156466D02*
Y161038D01*
Y143258D02*
Y147322D01*
Y134114D02*
Y138178D01*
Y125732D02*
Y130050D01*
Y115318D02*
Y119382D01*
X695220Y291086D02*
Y292864D01*
Y286514D02*
Y288292D01*
Y280926D02*
Y282704D01*
Y232158D02*
Y274068D01*
Y214378D02*
Y219204D01*
Y201170D02*
Y205234D01*
Y184914D02*
Y188978D01*
Y156720D02*
Y161292D01*
Y143258D02*
Y147322D01*
Y134114D02*
Y138178D01*
Y125732D02*
Y130050D01*
Y115318D02*
Y119382D01*
X694966Y291086D02*
Y292864D01*
Y286514D02*
Y288292D01*
Y280926D02*
Y282704D01*
Y232158D02*
Y274068D01*
Y214632D02*
Y219458D01*
Y201170D02*
Y205234D01*
Y184914D02*
Y188978D01*
Y156974D02*
Y161546D01*
Y143258D02*
Y147322D01*
Y134114D02*
Y138178D01*
Y125732D02*
Y130050D01*
Y115318D02*
Y119382D01*
X694712Y291086D02*
Y292864D01*
Y286514D02*
Y288292D01*
Y280926D02*
Y282958D01*
Y232158D02*
Y274068D01*
Y214886D02*
Y219712D01*
Y201170D02*
Y205234D01*
Y184914D02*
Y188978D01*
Y156974D02*
Y161546D01*
Y143258D02*
Y147322D01*
Y134114D02*
Y138178D01*
Y125732D02*
Y130050D01*
Y115318D02*
Y119382D01*
X694458Y291086D02*
Y292864D01*
Y286514D02*
Y288292D01*
Y280926D02*
Y282958D01*
Y231904D02*
Y274322D01*
Y215140D02*
Y219712D01*
Y201170D02*
Y205234D01*
Y184914D02*
Y188978D01*
Y157228D02*
Y161800D01*
Y143258D02*
Y147322D01*
Y134114D02*
Y138178D01*
Y125732D02*
Y130050D01*
Y115318D02*
Y119382D01*
X694204Y291340D02*
Y292864D01*
Y286514D02*
Y288292D01*
Y281180D02*
Y282958D01*
Y231904D02*
Y274322D01*
Y215140D02*
Y219966D01*
Y201170D02*
Y205234D01*
Y184914D02*
Y188978D01*
Y157482D02*
Y161800D01*
Y143258D02*
Y147322D01*
Y134114D02*
Y138178D01*
Y125732D02*
Y130050D01*
Y115318D02*
Y119382D01*
X693950Y291340D02*
Y292864D01*
Y286768D02*
Y288292D01*
Y281180D02*
Y282958D01*
Y231904D02*
Y274322D01*
Y215394D02*
Y219966D01*
Y201170D02*
Y205234D01*
Y184914D02*
Y188978D01*
Y157736D02*
Y162054D01*
Y143258D02*
Y147322D01*
Y134114D02*
Y138178D01*
Y125732D02*
Y130050D01*
Y115318D02*
Y119382D01*
X693696Y291340D02*
Y292864D01*
Y286768D02*
Y288292D01*
Y281180D02*
Y282958D01*
Y231904D02*
Y274322D01*
Y215648D02*
Y220220D01*
Y201170D02*
Y205234D01*
Y184914D02*
Y188978D01*
Y157990D02*
Y162054D01*
Y143258D02*
Y147322D01*
Y134114D02*
Y138178D01*
Y125732D02*
Y130050D01*
Y115318D02*
Y119382D01*
X693442Y291340D02*
Y292864D01*
Y286768D02*
Y288292D01*
Y281180D02*
Y282958D01*
Y231904D02*
Y274576D01*
Y215902D02*
Y220220D01*
Y201170D02*
Y205234D01*
Y184914D02*
Y188978D01*
Y157990D02*
Y162308D01*
Y143258D02*
Y147322D01*
Y134114D02*
Y138178D01*
Y125732D02*
Y130050D01*
Y115318D02*
Y119382D01*
X693188Y291340D02*
Y292864D01*
Y286768D02*
Y288546D01*
Y281180D02*
Y282958D01*
Y231904D02*
Y274576D01*
Y215902D02*
Y220474D01*
Y201170D02*
Y205234D01*
Y184914D02*
Y188978D01*
Y158244D02*
Y162308D01*
Y143258D02*
Y147322D01*
Y134114D02*
Y138178D01*
Y125732D02*
Y130050D01*
Y115318D02*
Y119382D01*
X692934Y291340D02*
Y292864D01*
Y286768D02*
Y288546D01*
Y281434D02*
Y282958D01*
Y231904D02*
Y274576D01*
Y216156D02*
Y220474D01*
Y201170D02*
Y205234D01*
Y184914D02*
Y188978D01*
Y158498D02*
Y162562D01*
Y143258D02*
Y147322D01*
Y134114D02*
Y138178D01*
Y125732D02*
Y130050D01*
Y115318D02*
Y119382D01*
X692680Y291340D02*
Y292864D01*
Y286768D02*
Y288546D01*
Y281434D02*
Y282958D01*
Y231904D02*
Y274576D01*
Y216156D02*
Y220474D01*
Y201170D02*
Y205234D01*
Y184914D02*
Y188978D01*
Y158498D02*
Y162562D01*
Y143258D02*
Y147322D01*
Y134114D02*
Y138178D01*
Y125732D02*
Y130050D01*
Y115318D02*
Y119382D01*
X692426Y291340D02*
Y292864D01*
Y286768D02*
Y288546D01*
Y281434D02*
Y282958D01*
Y231904D02*
Y274576D01*
Y216410D02*
Y220728D01*
Y201170D02*
Y205234D01*
Y184914D02*
Y188978D01*
Y158752D02*
Y162816D01*
Y143258D02*
Y147322D01*
Y134114D02*
Y138178D01*
Y125732D02*
Y130050D01*
Y115318D02*
Y119382D01*
X692172Y291340D02*
Y292864D01*
Y286768D02*
Y288546D01*
Y281434D02*
Y282958D01*
Y231904D02*
Y274576D01*
Y216410D02*
Y220728D01*
Y201170D02*
Y205234D01*
Y184914D02*
Y188978D01*
Y158752D02*
Y162816D01*
Y143258D02*
Y147322D01*
Y134114D02*
Y138178D01*
Y125732D02*
Y130050D01*
Y115318D02*
Y119382D01*
X691918Y291340D02*
Y292864D01*
Y286768D02*
Y288546D01*
Y281434D02*
Y282958D01*
Y263400D02*
Y274576D01*
Y231904D02*
Y262638D01*
Y216664D02*
Y220728D01*
Y201170D02*
Y205234D01*
Y184914D02*
Y188978D01*
Y159006D02*
Y162816D01*
Y143258D02*
Y147322D01*
Y134114D02*
Y138178D01*
Y125732D02*
Y130050D01*
Y115318D02*
Y119382D01*
X691664Y291594D02*
Y292864D01*
Y286768D02*
Y288546D01*
Y281434D02*
Y282958D01*
Y263654D02*
Y274576D01*
Y231904D02*
Y262384D01*
Y216664D02*
Y220982D01*
Y201170D02*
Y205234D01*
Y184914D02*
Y188978D01*
Y159006D02*
Y163070D01*
Y143258D02*
Y147322D01*
Y134114D02*
Y138178D01*
Y125732D02*
Y130050D01*
Y115318D02*
Y119382D01*
X691410Y291594D02*
Y292864D01*
Y287022D02*
Y288546D01*
Y281434D02*
Y282958D01*
Y263654D02*
Y274576D01*
Y231904D02*
Y262384D01*
Y216918D02*
Y220982D01*
Y201170D02*
Y205234D01*
Y184914D02*
Y188978D01*
Y159260D02*
Y163070D01*
Y143258D02*
Y147322D01*
Y134114D02*
Y138178D01*
Y125732D02*
Y130050D01*
Y115318D02*
Y119382D01*
X691156Y291594D02*
Y292864D01*
Y287022D02*
Y288546D01*
Y281434D02*
Y282958D01*
Y263654D02*
Y274576D01*
Y231904D02*
Y262384D01*
Y216918D02*
Y220982D01*
Y201170D02*
Y205234D01*
Y184914D02*
Y188978D01*
Y159260D02*
Y163070D01*
Y143258D02*
Y147322D01*
Y134114D02*
Y138178D01*
Y125732D02*
Y130050D01*
Y115318D02*
Y119382D01*
X690902Y291594D02*
Y292864D01*
Y287022D02*
Y288292D01*
Y281434D02*
Y282958D01*
Y263654D02*
Y274576D01*
Y231904D02*
Y262384D01*
Y216918D02*
Y221236D01*
Y201170D02*
Y205234D01*
Y184914D02*
Y188978D01*
Y159260D02*
Y163324D01*
Y143258D02*
Y147322D01*
Y134114D02*
Y138178D01*
Y125732D02*
Y130050D01*
Y115318D02*
Y119382D01*
X690648Y291594D02*
Y292864D01*
Y287022D02*
Y288292D01*
Y281434D02*
Y282958D01*
Y231904D02*
Y274576D01*
Y217172D02*
Y221236D01*
Y201170D02*
Y205234D01*
Y184914D02*
Y188978D01*
Y159514D02*
Y163324D01*
Y143258D02*
Y147322D01*
Y134114D02*
Y138178D01*
Y125732D02*
Y130050D01*
Y115318D02*
Y119382D01*
X690394Y291594D02*
Y292864D01*
Y287022D02*
Y288292D01*
Y281434D02*
Y282958D01*
Y231904D02*
Y274576D01*
Y217172D02*
Y221236D01*
Y201170D02*
Y205234D01*
Y184914D02*
Y188978D01*
Y159514D02*
Y163324D01*
Y143258D02*
Y147322D01*
Y134114D02*
Y138178D01*
Y125732D02*
Y130050D01*
Y115318D02*
Y119382D01*
X690140Y291594D02*
Y292864D01*
Y287022D02*
Y288292D01*
Y281434D02*
Y282958D01*
Y231904D02*
Y274576D01*
Y217172D02*
Y221236D01*
Y201170D02*
Y205234D01*
Y184914D02*
Y188978D01*
Y159514D02*
Y163578D01*
Y143258D02*
Y147322D01*
Y134114D02*
Y138178D01*
Y125732D02*
Y130050D01*
Y115318D02*
Y119382D01*
X689886Y291594D02*
Y292864D01*
Y287022D02*
Y288292D01*
Y281434D02*
Y282958D01*
Y231904D02*
Y274576D01*
Y217172D02*
Y221490D01*
Y201170D02*
Y205234D01*
Y184914D02*
Y188978D01*
Y159768D02*
Y163578D01*
Y143258D02*
Y147322D01*
Y134114D02*
Y138178D01*
Y125732D02*
Y130050D01*
Y115318D02*
Y119382D01*
X689632Y291594D02*
Y292864D01*
Y286768D02*
Y288292D01*
Y281434D02*
Y282958D01*
Y231904D02*
Y274576D01*
Y217426D02*
Y221490D01*
Y201170D02*
Y205234D01*
Y184914D02*
Y188978D01*
Y159768D02*
Y163578D01*
Y143258D02*
Y147322D01*
Y134114D02*
Y138178D01*
Y125732D02*
Y130050D01*
Y115318D02*
Y119382D01*
X689378Y291340D02*
Y292864D01*
Y286768D02*
Y288292D01*
Y281434D02*
Y282704D01*
Y251208D02*
Y274576D01*
Y231904D02*
Y250700D01*
Y217426D02*
Y221490D01*
Y201170D02*
Y205234D01*
Y184914D02*
Y188978D01*
Y159768D02*
Y163578D01*
Y143258D02*
Y147322D01*
Y134114D02*
Y138178D01*
Y125732D02*
Y130050D01*
Y115318D02*
Y119382D01*
X689124Y291340D02*
Y292864D01*
Y286768D02*
Y288292D01*
Y281434D02*
Y282704D01*
Y251716D02*
Y274322D01*
Y251208D02*
Y251462D01*
Y231904D02*
Y249176D01*
Y217426D02*
Y221490D01*
Y201170D02*
Y205234D01*
Y184914D02*
Y188978D01*
Y159768D02*
Y163832D01*
Y143258D02*
Y147322D01*
Y134114D02*
Y138178D01*
Y125732D02*
Y130050D01*
Y115318D02*
Y119382D01*
X688870Y291340D02*
Y292864D01*
Y286768D02*
Y288292D01*
Y281434D02*
Y282704D01*
Y251462D02*
Y274322D01*
Y231904D02*
Y247652D01*
Y217426D02*
Y221490D01*
Y201170D02*
Y205234D01*
Y184914D02*
Y188978D01*
Y159768D02*
Y163832D01*
Y143258D02*
Y147322D01*
Y134114D02*
Y138178D01*
Y125732D02*
Y130050D01*
Y115318D02*
Y119382D01*
X688616Y291340D02*
Y292864D01*
Y286768D02*
Y288292D01*
Y281434D02*
Y282704D01*
Y250192D02*
Y274322D01*
Y231904D02*
Y246128D01*
Y217426D02*
Y221490D01*
Y201170D02*
Y205234D01*
Y184914D02*
Y188978D01*
Y160022D02*
Y163832D01*
Y143258D02*
Y147322D01*
Y134114D02*
Y138178D01*
Y125732D02*
Y130050D01*
Y115318D02*
Y119382D01*
X688362Y291340D02*
Y292864D01*
Y286768D02*
Y288038D01*
Y281434D02*
Y282704D01*
Y249176D02*
Y274322D01*
Y231904D02*
Y244604D01*
Y217680D02*
Y221744D01*
Y201170D02*
Y205234D01*
Y184914D02*
Y188978D01*
Y160022D02*
Y163832D01*
Y143258D02*
Y147322D01*
Y134114D02*
Y138178D01*
Y125732D02*
Y130050D01*
Y115318D02*
Y119382D01*
X688108Y291340D02*
Y292610D01*
Y286768D02*
Y288038D01*
Y281180D02*
Y282450D01*
Y251970D02*
Y274068D01*
Y248160D02*
Y251462D01*
Y232158D02*
Y243334D01*
Y217680D02*
Y221744D01*
Y201170D02*
Y205234D01*
Y184914D02*
Y188978D01*
Y160022D02*
Y163832D01*
Y143258D02*
Y147322D01*
Y134114D02*
Y138178D01*
Y125732D02*
Y130050D01*
Y115318D02*
Y119382D01*
X687854Y291340D02*
Y292610D01*
Y286768D02*
Y288038D01*
Y281180D02*
Y282450D01*
Y251970D02*
Y274068D01*
Y246890D02*
Y250446D01*
Y232158D02*
Y241810D01*
Y217680D02*
Y221744D01*
Y201170D02*
Y205234D01*
Y184914D02*
Y188978D01*
Y160022D02*
Y163832D01*
Y143258D02*
Y147322D01*
Y134114D02*
Y138178D01*
Y125732D02*
Y130050D01*
Y115318D02*
Y119382D01*
X687600Y291340D02*
Y292610D01*
Y286768D02*
Y288038D01*
Y281180D02*
Y282450D01*
Y251970D02*
Y274068D01*
Y245874D02*
Y249684D01*
Y232158D02*
Y240286D01*
Y217680D02*
Y221744D01*
Y201170D02*
Y205234D01*
Y184914D02*
Y188978D01*
Y160022D02*
Y163832D01*
Y143258D02*
Y147322D01*
Y134114D02*
Y138178D01*
Y125732D02*
Y130050D01*
Y115318D02*
Y119382D01*
X687346Y291340D02*
Y292610D01*
Y286768D02*
Y288038D01*
Y281180D02*
Y282450D01*
Y252224D02*
Y273814D01*
Y244858D02*
Y248668D01*
Y232158D02*
Y238762D01*
Y217680D02*
Y221744D01*
Y201170D02*
Y205234D01*
Y184914D02*
Y188978D01*
Y160022D02*
Y163832D01*
Y143258D02*
Y147322D01*
Y134114D02*
Y138178D01*
Y125732D02*
Y130050D01*
Y115318D02*
Y119382D01*
X687092Y291340D02*
Y292610D01*
Y286768D02*
Y287784D01*
Y281180D02*
Y282196D01*
Y252224D02*
Y273814D01*
Y243588D02*
Y247906D01*
Y232158D02*
Y237238D01*
Y217680D02*
Y221744D01*
Y201170D02*
Y205234D01*
Y184914D02*
Y188978D01*
Y160022D02*
Y164086D01*
Y143258D02*
Y147322D01*
Y134114D02*
Y138178D01*
Y125732D02*
Y130050D01*
Y115318D02*
Y119382D01*
X686838Y291340D02*
Y292610D01*
Y286514D02*
Y287784D01*
Y281180D02*
Y282196D01*
Y252224D02*
Y273814D01*
Y242572D02*
Y246890D01*
Y232158D02*
Y235714D01*
Y217680D02*
Y221744D01*
Y201170D02*
Y205234D01*
Y184914D02*
Y188978D01*
Y160022D02*
Y164086D01*
Y143258D02*
Y147322D01*
Y134114D02*
Y138178D01*
Y125732D02*
Y130050D01*
Y115318D02*
Y119382D01*
X686584Y291086D02*
Y292356D01*
Y286514D02*
Y287784D01*
Y280926D02*
Y282196D01*
Y252478D02*
Y273560D01*
Y241556D02*
Y246128D01*
Y232158D02*
Y234190D01*
Y217680D02*
Y221744D01*
Y201170D02*
Y205234D01*
Y184914D02*
Y188978D01*
Y160022D02*
Y164086D01*
Y143258D02*
Y147322D01*
Y134114D02*
Y138178D01*
Y125732D02*
Y130050D01*
Y115318D02*
Y119382D01*
X686330Y291086D02*
Y292356D01*
Y286514D02*
Y287784D01*
Y280926D02*
Y281942D01*
Y252478D02*
Y273560D01*
Y240286D02*
Y245112D01*
Y232158D02*
Y232920D01*
Y217680D02*
Y221744D01*
Y201170D02*
Y205234D01*
Y184914D02*
Y188978D01*
Y160022D02*
Y164086D01*
Y143258D02*
Y147322D01*
Y134114D02*
Y138178D01*
Y125732D02*
Y130050D01*
Y115318D02*
Y119382D01*
X686076Y291086D02*
Y292356D01*
Y286514D02*
Y287530D01*
Y280926D02*
Y281942D01*
Y252732D02*
Y273306D01*
Y239270D02*
Y244350D01*
Y232412D02*
Y232920D01*
Y217680D02*
Y221744D01*
Y201170D02*
Y205234D01*
Y184914D02*
Y188978D01*
Y160022D02*
Y164086D01*
Y143258D02*
Y147322D01*
Y134114D02*
Y138178D01*
Y125732D02*
Y130050D01*
Y115318D02*
Y119382D01*
X685822Y291086D02*
Y292356D01*
Y286514D02*
Y287530D01*
Y280672D02*
Y281942D01*
Y252732D02*
Y273306D01*
Y238254D02*
Y243334D01*
Y232412D02*
Y232920D01*
Y217680D02*
Y221744D01*
Y201170D02*
Y205234D01*
Y184914D02*
Y188978D01*
Y160022D02*
Y164086D01*
Y143258D02*
Y147322D01*
Y134114D02*
Y138178D01*
Y125732D02*
Y130050D01*
Y115318D02*
Y119382D01*
X685568Y291086D02*
Y292356D01*
Y286260D02*
Y287530D01*
Y280672D02*
Y281688D01*
Y252986D02*
Y273052D01*
Y237238D02*
Y242572D01*
Y232412D02*
Y233174D01*
Y217680D02*
Y221744D01*
Y201170D02*
Y205234D01*
Y184914D02*
Y188978D01*
Y160022D02*
Y164086D01*
Y143258D02*
Y147322D01*
Y134114D02*
Y138178D01*
Y125732D02*
Y130050D01*
Y115318D02*
Y119382D01*
X685314Y291086D02*
Y292102D01*
Y286260D02*
Y287530D01*
Y280672D02*
Y281688D01*
Y253240D02*
Y273052D01*
Y235968D02*
Y241556D01*
Y232412D02*
Y233174D01*
Y217680D02*
Y221744D01*
Y201170D02*
Y205234D01*
Y184914D02*
Y188978D01*
Y160022D02*
Y163832D01*
Y143258D02*
Y147322D01*
Y134114D02*
Y138178D01*
Y125732D02*
Y130050D01*
Y115318D02*
Y119382D01*
X685060Y290832D02*
Y292102D01*
Y286260D02*
Y287276D01*
Y280672D02*
Y281434D01*
Y252986D02*
Y272798D01*
Y234952D02*
Y240794D01*
Y232412D02*
Y233174D01*
Y217680D02*
Y221744D01*
Y201170D02*
Y205234D01*
Y184914D02*
Y188978D01*
Y160022D02*
Y163832D01*
Y143258D02*
Y147322D01*
Y134114D02*
Y138178D01*
Y125732D02*
Y130050D01*
Y115318D02*
Y119382D01*
X684806Y290832D02*
Y292102D01*
Y286260D02*
Y287276D01*
Y280418D02*
Y281434D01*
Y252732D02*
Y272544D01*
Y233936D02*
Y239778D01*
Y232666D02*
Y233174D01*
Y217680D02*
Y221744D01*
Y201170D02*
Y205234D01*
Y184914D02*
Y188978D01*
Y160022D02*
Y163832D01*
Y143258D02*
Y147322D01*
Y134114D02*
Y138178D01*
Y125732D02*
Y130050D01*
Y115318D02*
Y119382D01*
X684552Y290832D02*
Y291848D01*
Y286006D02*
Y287276D01*
Y280418D02*
Y281434D01*
Y252224D02*
Y272290D01*
Y232666D02*
Y239016D01*
Y217680D02*
Y221744D01*
Y201170D02*
Y205234D01*
Y184914D02*
Y188978D01*
Y160022D02*
Y163832D01*
Y143258D02*
Y147322D01*
Y134114D02*
Y138178D01*
Y125732D02*
Y130050D01*
Y115318D02*
Y119382D01*
X684298Y290832D02*
Y291848D01*
Y286006D02*
Y287022D01*
Y280164D02*
Y281180D01*
Y251970D02*
Y272290D01*
Y232666D02*
Y238000D01*
Y217680D02*
Y221744D01*
Y201170D02*
Y205234D01*
Y184914D02*
Y188978D01*
Y160022D02*
Y163832D01*
Y143258D02*
Y147322D01*
Y134114D02*
Y138178D01*
Y125732D02*
Y130050D01*
Y115318D02*
Y119382D01*
X684044Y290578D02*
Y291848D01*
Y286006D02*
Y287022D01*
Y280164D02*
Y281180D01*
Y251462D02*
Y272036D01*
Y232666D02*
Y237238D01*
Y217680D02*
Y221744D01*
Y201170D02*
Y205234D01*
Y184914D02*
Y188978D01*
Y160022D02*
Y163832D01*
Y143258D02*
Y147322D01*
Y134114D02*
Y138178D01*
Y125732D02*
Y130050D01*
Y115318D02*
Y119382D01*
X683790Y290578D02*
Y291848D01*
Y286006D02*
Y287022D01*
Y280164D02*
Y280926D01*
Y251208D02*
Y271782D01*
Y232920D02*
Y236222D01*
Y217680D02*
Y221744D01*
Y201170D02*
Y205234D01*
Y184914D02*
Y188978D01*
Y159768D02*
Y163832D01*
Y143258D02*
Y147322D01*
Y134114D02*
Y138178D01*
Y125732D02*
Y130050D01*
Y115318D02*
Y119382D01*
X683536Y290578D02*
Y291594D01*
Y285752D02*
Y286768D01*
Y279910D02*
Y280926D01*
Y250700D02*
Y271528D01*
Y232920D02*
Y235460D01*
Y217680D02*
Y221744D01*
Y201170D02*
Y205234D01*
Y184914D02*
Y188978D01*
Y159768D02*
Y163578D01*
Y143258D02*
Y147322D01*
Y134114D02*
Y138178D01*
Y125732D02*
Y130050D01*
Y115318D02*
Y119382D01*
X683282Y290578D02*
Y291594D01*
Y285752D02*
Y286768D01*
Y279910D02*
Y280672D01*
Y250446D02*
Y271274D01*
Y232920D02*
Y234444D01*
Y217426D02*
Y221744D01*
Y201170D02*
Y205234D01*
Y184914D02*
Y188978D01*
Y159768D02*
Y163578D01*
Y143258D02*
Y147322D01*
Y134114D02*
Y138178D01*
Y125732D02*
Y130050D01*
Y115318D02*
Y119382D01*
X683028Y290324D02*
Y291594D01*
Y285752D02*
Y286514D01*
Y279656D02*
Y280672D01*
Y249938D02*
Y271020D01*
Y232920D02*
Y233682D01*
Y217426D02*
Y221744D01*
Y201170D02*
Y205234D01*
Y184914D02*
Y188978D01*
Y159768D02*
Y163578D01*
Y143258D02*
Y147322D01*
Y134114D02*
Y138178D01*
Y125732D02*
Y130050D01*
Y115318D02*
Y119382D01*
X682774Y290324D02*
Y291340D01*
Y285498D02*
Y286514D01*
Y279656D02*
Y280418D01*
Y255272D02*
Y270766D01*
Y249684D02*
Y254510D01*
Y233174D02*
Y233682D01*
Y217426D02*
Y221744D01*
Y201170D02*
Y205234D01*
Y184914D02*
Y188978D01*
Y159514D02*
Y163578D01*
Y143258D02*
Y147322D01*
Y134114D02*
Y138178D01*
Y113286D02*
Y130050D01*
X682520Y290324D02*
Y291340D01*
Y285498D02*
Y286514D01*
Y279402D02*
Y280164D01*
Y255526D02*
Y270512D01*
Y249176D02*
Y254256D01*
Y233174D02*
Y233682D01*
Y217426D02*
Y221490D01*
Y201170D02*
Y205234D01*
Y184914D02*
Y188978D01*
Y159514D02*
Y163578D01*
Y143258D02*
Y147322D01*
Y134114D02*
Y138178D01*
Y113286D02*
Y130050D01*
X682266Y290070D02*
Y291340D01*
Y285244D02*
Y286260D01*
Y279402D02*
Y280164D01*
Y255780D02*
Y270258D01*
Y248668D02*
Y254002D01*
Y233174D02*
Y233936D01*
Y217172D02*
Y221490D01*
Y201170D02*
Y205234D01*
Y184914D02*
Y188978D01*
Y159514D02*
Y163324D01*
Y143258D02*
Y147322D01*
Y134114D02*
Y138178D01*
Y113032D02*
Y130050D01*
X682012Y290070D02*
Y291086D01*
Y285244D02*
Y286260D01*
Y279148D02*
Y279910D01*
Y256034D02*
Y270004D01*
Y248414D02*
Y253748D01*
Y233428D02*
Y233936D01*
Y217172D02*
Y221490D01*
Y201170D02*
Y205234D01*
Y184914D02*
Y188978D01*
Y159514D02*
Y163324D01*
Y143258D02*
Y147322D01*
Y134114D02*
Y138178D01*
Y113032D02*
Y130050D01*
X681758Y290070D02*
Y291086D01*
Y285244D02*
Y286006D01*
Y279148D02*
Y279656D01*
Y256542D02*
Y269496D01*
Y247906D02*
Y253494D01*
Y233428D02*
Y233936D01*
Y217172D02*
Y221490D01*
Y201170D02*
Y205234D01*
Y184914D02*
Y188978D01*
Y159260D02*
Y163324D01*
Y143258D02*
Y147322D01*
Y134114D02*
Y138178D01*
Y113032D02*
Y130050D01*
X681504Y290070D02*
Y290832D01*
Y284990D02*
Y286006D01*
Y278894D02*
Y279656D01*
Y256796D02*
Y269242D01*
Y247652D02*
Y253240D01*
Y233428D02*
Y234190D01*
Y216918D02*
Y221236D01*
Y201170D02*
Y205234D01*
Y184914D02*
Y188978D01*
Y159260D02*
Y163324D01*
Y143258D02*
Y147322D01*
Y134114D02*
Y138178D01*
Y112778D02*
Y130050D01*
X681250Y289816D02*
Y290832D01*
Y284990D02*
Y285752D01*
Y278640D02*
Y279402D01*
Y257304D02*
Y268734D01*
Y247144D02*
Y252986D01*
Y233682D02*
Y234190D01*
Y216918D02*
Y221236D01*
Y201170D02*
Y205234D01*
Y184914D02*
Y188978D01*
Y159260D02*
Y163070D01*
Y143258D02*
Y147322D01*
Y134114D02*
Y138178D01*
Y112778D02*
Y130050D01*
X680996Y289816D02*
Y290832D01*
Y284736D02*
Y285752D01*
Y278640D02*
Y279148D01*
Y257812D02*
Y268226D01*
Y246890D02*
Y252732D01*
Y233682D02*
Y234190D01*
Y216918D02*
Y221236D01*
Y201170D02*
Y205234D01*
Y184914D02*
Y188978D01*
Y159006D02*
Y163070D01*
Y143258D02*
Y147322D01*
Y134114D02*
Y138178D01*
Y112778D02*
Y130050D01*
X680742Y289562D02*
Y290578D01*
Y284736D02*
Y285498D01*
Y278386D02*
Y278894D01*
Y258320D02*
Y267718D01*
Y246382D02*
Y252478D01*
Y233682D02*
Y234444D01*
Y216664D02*
Y221236D01*
Y201170D02*
Y205234D01*
Y184914D02*
Y188978D01*
Y159006D02*
Y163070D01*
Y143258D02*
Y147322D01*
Y134114D02*
Y138178D01*
Y112524D02*
Y130050D01*
X680488Y289562D02*
Y290578D01*
Y284482D02*
Y285498D01*
Y278132D02*
Y278894D01*
Y258828D02*
Y267210D01*
Y246128D02*
Y252224D01*
Y233936D02*
Y234444D01*
Y216664D02*
Y220982D01*
Y201170D02*
Y205234D01*
Y184914D02*
Y188978D01*
Y158752D02*
Y162816D01*
Y143258D02*
Y147322D01*
Y134114D02*
Y138178D01*
Y112524D02*
Y130050D01*
X680234Y289562D02*
Y290324D01*
Y284482D02*
Y285244D01*
Y277878D02*
Y278640D01*
Y259590D02*
Y266448D01*
Y245620D02*
Y251970D01*
Y233936D02*
Y234698D01*
Y216410D02*
Y220982D01*
Y201170D02*
Y205234D01*
Y184914D02*
Y188978D01*
Y158752D02*
Y162816D01*
Y143258D02*
Y147322D01*
Y134114D02*
Y138178D01*
Y112524D02*
Y130050D01*
X679980Y289308D02*
Y290324D01*
Y284228D02*
Y284990D01*
Y277624D02*
Y278386D01*
Y260606D02*
Y265432D01*
Y245366D02*
Y251716D01*
Y233936D02*
Y234698D01*
Y216410D02*
Y220982D01*
Y201170D02*
Y205234D01*
Y184914D02*
Y188978D01*
Y158498D02*
Y162816D01*
Y143258D02*
Y147322D01*
Y134114D02*
Y138178D01*
Y112270D02*
Y130050D01*
X679726Y289308D02*
Y290070D01*
Y284228D02*
Y284990D01*
Y277624D02*
Y278132D01*
Y262638D02*
Y263400D01*
Y244858D02*
Y251462D01*
Y234190D02*
Y234698D01*
Y216156D02*
Y220728D01*
Y201170D02*
Y205234D01*
Y184914D02*
Y188978D01*
Y158498D02*
Y162562D01*
Y143258D02*
Y147322D01*
Y134114D02*
Y138178D01*
Y112270D02*
Y130050D01*
X679472Y289054D02*
Y290070D01*
Y283974D02*
Y284736D01*
Y277370D02*
Y277878D01*
Y244604D02*
Y251208D01*
Y234190D02*
Y234952D01*
Y215902D02*
Y220728D01*
Y201170D02*
Y205234D01*
Y184914D02*
Y188978D01*
Y158498D02*
Y162562D01*
Y143258D02*
Y147322D01*
Y134114D02*
Y138178D01*
Y112270D02*
Y130050D01*
X679218Y289054D02*
Y289816D01*
Y283974D02*
Y284482D01*
Y277116D02*
Y277624D01*
Y244096D02*
Y250954D01*
Y234444D02*
Y234952D01*
Y215902D02*
Y220474D01*
Y201170D02*
Y205234D01*
Y184914D02*
Y188978D01*
Y158244D02*
Y162562D01*
Y143258D02*
Y147322D01*
Y134114D02*
Y138178D01*
Y112016D02*
Y130050D01*
X678964Y288800D02*
Y289816D01*
Y283720D02*
Y284482D01*
Y276862D02*
Y277370D01*
Y243842D02*
Y250700D01*
Y234444D02*
Y235206D01*
Y215648D02*
Y220474D01*
Y201170D02*
Y205234D01*
Y184914D02*
Y188978D01*
Y157990D02*
Y162308D01*
Y143258D02*
Y147322D01*
Y134114D02*
Y138178D01*
Y112016D02*
Y130050D01*
X678710Y288800D02*
Y289562D01*
Y283466D02*
Y284228D01*
Y276862D02*
Y277116D01*
Y243334D02*
Y250446D01*
Y234444D02*
Y235206D01*
Y215394D02*
Y220220D01*
Y201170D02*
Y205234D01*
Y184914D02*
Y188978D01*
Y157990D02*
Y162308D01*
Y143258D02*
Y147322D01*
Y134114D02*
Y138178D01*
Y125732D02*
Y130050D01*
Y115318D02*
Y119382D01*
X678456Y288546D02*
Y289562D01*
Y283466D02*
Y283974D01*
Y242826D02*
Y250192D01*
Y234698D02*
Y235460D01*
Y215140D02*
Y220220D01*
Y201170D02*
Y205234D01*
Y184914D02*
Y188978D01*
Y157736D02*
Y162054D01*
Y143258D02*
Y147322D01*
Y134114D02*
Y138178D01*
Y125732D02*
Y130050D01*
Y115318D02*
Y119382D01*
X678202Y288546D02*
Y289308D01*
Y283212D02*
Y283974D01*
Y242572D02*
Y249938D01*
Y234698D02*
Y235460D01*
Y215140D02*
Y219966D01*
Y201170D02*
Y205234D01*
Y184914D02*
Y188978D01*
Y157736D02*
Y162054D01*
Y143258D02*
Y147322D01*
Y134114D02*
Y138178D01*
Y125732D02*
Y130050D01*
Y115318D02*
Y119382D01*
X677948Y288292D02*
Y289308D01*
Y282958D02*
Y283720D01*
Y242064D02*
Y249684D01*
Y234952D02*
Y235714D01*
Y214886D02*
Y219966D01*
Y201170D02*
Y205234D01*
Y184914D02*
Y188978D01*
Y157482D02*
Y161800D01*
Y143258D02*
Y147322D01*
Y134114D02*
Y138178D01*
Y125732D02*
Y130050D01*
Y115318D02*
Y119382D01*
X677694Y288292D02*
Y289054D01*
Y282958D02*
Y283466D01*
Y241810D02*
Y249430D01*
Y234952D02*
Y235714D01*
Y214632D02*
Y219712D01*
Y201170D02*
Y205234D01*
Y184914D02*
Y188978D01*
Y157482D02*
Y161800D01*
Y143258D02*
Y147322D01*
Y134114D02*
Y138178D01*
Y125732D02*
Y130050D01*
Y115318D02*
Y119382D01*
X677440Y288038D02*
Y288800D01*
Y282704D02*
Y283466D01*
Y241302D02*
Y249176D01*
Y235206D02*
Y235968D01*
Y214378D02*
Y219712D01*
Y201170D02*
Y205234D01*
Y184914D02*
Y188978D01*
Y157228D02*
Y161546D01*
Y143258D02*
Y147322D01*
Y134114D02*
Y138178D01*
Y125732D02*
Y130050D01*
Y115318D02*
Y119382D01*
X677186Y288038D02*
Y288800D01*
Y282450D02*
Y283212D01*
Y241048D02*
Y248922D01*
Y235206D02*
Y235968D01*
Y214124D02*
Y219458D01*
Y201170D02*
Y205234D01*
Y184914D02*
Y188978D01*
Y156974D02*
Y161546D01*
Y143258D02*
Y147322D01*
Y134114D02*
Y138178D01*
Y125732D02*
Y130050D01*
Y115318D02*
Y119382D01*
X676932Y287784D02*
Y288546D01*
Y282196D02*
Y282958D01*
Y240540D02*
Y248668D01*
Y235460D02*
Y236222D01*
Y213870D02*
Y219204D01*
Y201170D02*
Y205234D01*
Y184914D02*
Y188978D01*
Y156720D02*
Y161292D01*
Y143258D02*
Y147322D01*
Y134114D02*
Y138178D01*
Y125732D02*
Y130050D01*
Y115318D02*
Y119382D01*
X676678Y287784D02*
Y288292D01*
Y282196D02*
Y282704D01*
Y240286D02*
Y248414D01*
Y235460D02*
Y236222D01*
Y213616D02*
Y218950D01*
Y201170D02*
Y205234D01*
Y184914D02*
Y188978D01*
Y156720D02*
Y161292D01*
Y143258D02*
Y147322D01*
Y134114D02*
Y138178D01*
Y125732D02*
Y130050D01*
Y115318D02*
Y119382D01*
X676424Y287530D02*
Y288292D01*
Y281942D02*
Y282450D01*
Y239778D02*
Y248160D01*
Y235714D02*
Y236476D01*
Y213362D02*
Y218950D01*
Y201170D02*
Y205234D01*
Y184914D02*
Y188978D01*
Y156466D02*
Y161038D01*
Y143258D02*
Y147322D01*
Y134114D02*
Y138178D01*
Y125732D02*
Y130050D01*
Y115318D02*
Y119382D01*
X676170Y287276D02*
Y288038D01*
Y281688D02*
Y282196D01*
Y239524D02*
Y247906D01*
Y235968D02*
Y236476D01*
Y213108D02*
Y218696D01*
Y201170D02*
Y205234D01*
Y184914D02*
Y188978D01*
Y156212D02*
Y161038D01*
Y143258D02*
Y147322D01*
Y134114D02*
Y138178D01*
Y125732D02*
Y130050D01*
Y115318D02*
Y119382D01*
X675916Y287276D02*
Y287784D01*
Y281434D02*
Y282196D01*
Y239016D02*
Y247652D01*
Y235968D02*
Y236730D01*
Y212854D02*
Y218442D01*
Y201170D02*
Y205234D01*
Y184914D02*
Y188978D01*
Y155958D02*
Y160784D01*
Y143258D02*
Y147322D01*
Y134114D02*
Y138178D01*
Y125732D02*
Y130050D01*
Y115318D02*
Y119382D01*
X675662Y287022D02*
Y287784D01*
Y281180D02*
Y281942D01*
Y238762D02*
Y247398D01*
Y236222D02*
Y236730D01*
Y212346D02*
Y218188D01*
Y201170D02*
Y205234D01*
Y184914D02*
Y188978D01*
Y155704D02*
Y160784D01*
Y143258D02*
Y147322D01*
Y134114D02*
Y138178D01*
Y125732D02*
Y130050D01*
Y115318D02*
Y119382D01*
X675408Y286768D02*
Y287530D01*
Y280926D02*
Y281688D01*
Y238254D02*
Y247144D01*
Y236222D02*
Y236984D01*
Y212092D02*
Y217934D01*
Y201170D02*
Y205234D01*
Y184914D02*
Y188978D01*
Y155450D02*
Y160530D01*
Y143258D02*
Y147322D01*
Y134114D02*
Y138178D01*
Y125732D02*
Y130050D01*
Y115318D02*
Y119382D01*
X675154Y286768D02*
Y287276D01*
Y280672D02*
Y281434D01*
Y238000D02*
Y246890D01*
Y236476D02*
Y237492D01*
Y211584D02*
Y217934D01*
Y201170D02*
Y205234D01*
Y184914D02*
Y188978D01*
Y155196D02*
Y160276D01*
Y143258D02*
Y147322D01*
Y134114D02*
Y138178D01*
Y125732D02*
Y130050D01*
Y115318D02*
Y119382D01*
X674900Y286514D02*
Y287276D01*
Y280672D02*
Y281180D01*
Y237492D02*
Y246636D01*
Y236730D02*
Y237238D01*
Y211330D02*
Y217680D01*
Y201170D02*
Y205234D01*
Y184914D02*
Y188978D01*
Y154942D02*
Y160276D01*
Y143258D02*
Y147322D01*
Y134114D02*
Y138178D01*
Y125732D02*
Y130050D01*
Y115318D02*
Y119382D01*
X674646Y286260D02*
Y287022D01*
Y236730D02*
Y246382D01*
Y210822D02*
Y217426D01*
Y201170D02*
Y205234D01*
Y184914D02*
Y188978D01*
Y154688D02*
Y160022D01*
Y143258D02*
Y147322D01*
Y134114D02*
Y138178D01*
Y125732D02*
Y130050D01*
Y115318D02*
Y119382D01*
X674392Y286260D02*
Y286768D01*
Y236984D02*
Y246128D01*
Y210568D02*
Y217172D01*
Y201170D02*
Y205234D01*
Y184914D02*
Y188978D01*
Y154434D02*
Y159768D01*
Y143258D02*
Y147322D01*
Y134114D02*
Y138178D01*
Y125732D02*
Y130050D01*
Y115318D02*
Y119382D01*
X674138Y286006D02*
Y286514D01*
Y236984D02*
Y245874D01*
Y210060D02*
Y216918D01*
Y201170D02*
Y205234D01*
Y184914D02*
Y188978D01*
Y154180D02*
Y159768D01*
Y143258D02*
Y147322D01*
Y134114D02*
Y138178D01*
Y125732D02*
Y130050D01*
Y115318D02*
Y119382D01*
X673884Y285752D02*
Y286260D01*
Y237238D02*
Y245620D01*
Y209552D02*
Y216664D01*
Y201170D02*
Y205234D01*
Y184914D02*
Y188978D01*
Y153672D02*
Y159514D01*
Y143258D02*
Y147322D01*
Y134114D02*
Y138178D01*
Y125732D02*
Y130050D01*
Y115318D02*
Y119382D01*
X673630Y285498D02*
Y286260D01*
Y237492D02*
Y245366D01*
Y209044D02*
Y216410D01*
Y201170D02*
Y205234D01*
Y184914D02*
Y188978D01*
Y153418D02*
Y159260D01*
Y143258D02*
Y147322D01*
Y134114D02*
Y138178D01*
Y125732D02*
Y130050D01*
Y115318D02*
Y119382D01*
X673376Y285244D02*
Y286006D01*
Y237746D02*
Y245112D01*
Y208282D02*
Y215902D01*
Y201170D02*
Y205234D01*
Y184914D02*
Y188978D01*
Y152910D02*
Y159006D01*
Y143258D02*
Y147322D01*
Y134114D02*
Y138178D01*
Y125732D02*
Y130050D01*
Y115318D02*
Y119382D01*
X673122Y284990D02*
Y285752D01*
Y237746D02*
Y244858D01*
Y207520D02*
Y215648D01*
Y201170D02*
Y205234D01*
Y184914D02*
Y188978D01*
Y152402D02*
Y158752D01*
Y143258D02*
Y147322D01*
Y134114D02*
Y138178D01*
Y125732D02*
Y130050D01*
Y115318D02*
Y119382D01*
X672868Y284990D02*
Y285498D01*
Y238000D02*
Y244604D01*
Y206758D02*
Y215394D01*
Y201170D02*
Y205234D01*
Y184914D02*
Y188978D01*
Y151894D02*
Y158498D01*
Y143258D02*
Y147322D01*
Y134114D02*
Y138178D01*
Y125732D02*
Y130050D01*
Y115318D02*
Y119382D01*
X672614Y284736D02*
Y285244D01*
Y238254D02*
Y244350D01*
Y205742D02*
Y215140D01*
Y201170D02*
Y205234D01*
Y184914D02*
Y188978D01*
Y151132D02*
Y158244D01*
Y143258D02*
Y147322D01*
Y134114D02*
Y138178D01*
Y125478D02*
Y129796D01*
Y115318D02*
Y119636D01*
X672360Y284482D02*
Y284990D01*
Y238508D02*
Y244096D01*
Y201170D02*
Y214632D01*
Y184914D02*
Y188978D01*
Y149862D02*
Y157990D01*
Y143258D02*
Y147576D01*
Y134114D02*
Y138178D01*
Y124970D02*
Y129796D01*
Y115318D02*
Y120144D01*
X672106Y284228D02*
Y284736D01*
Y238508D02*
Y243842D01*
Y201170D02*
Y214378D01*
Y184914D02*
Y188978D01*
Y143258D02*
Y157736D01*
Y134114D02*
Y138178D01*
Y124462D02*
Y129796D01*
Y115318D02*
Y120652D01*
X671852Y283974D02*
Y284482D01*
Y238762D02*
Y243588D01*
Y201170D02*
Y213870D01*
Y184914D02*
Y188978D01*
Y143258D02*
Y157482D01*
Y134114D02*
Y138178D01*
Y123700D02*
Y129796D01*
Y115318D02*
Y121414D01*
X671598Y283974D02*
Y284228D01*
Y239016D02*
Y243334D01*
Y201170D02*
Y213616D01*
Y184914D02*
Y188978D01*
Y143258D02*
Y156974D01*
Y134114D02*
Y138178D01*
Y115572D02*
Y129796D01*
X671344Y239270D02*
Y243080D01*
Y201170D02*
Y213108D01*
Y184914D02*
Y188978D01*
Y143258D02*
Y156720D01*
Y134114D02*
Y138178D01*
Y115572D02*
Y129542D01*
X671090Y239524D02*
Y242826D01*
Y201170D02*
Y212600D01*
Y184914D02*
Y188978D01*
Y143258D02*
Y156466D01*
Y134114D02*
Y138178D01*
Y115826D02*
Y129542D01*
X670836Y239524D02*
Y242572D01*
Y201170D02*
Y212346D01*
Y184914D02*
Y188978D01*
Y143258D02*
Y155958D01*
Y134114D02*
Y138178D01*
Y115826D02*
Y129288D01*
X670582Y239778D02*
Y242318D01*
Y201170D02*
Y211838D01*
Y184914D02*
Y188978D01*
Y143258D02*
Y155704D01*
Y134114D02*
Y138178D01*
Y116080D02*
Y129288D01*
X670328Y240032D02*
Y242064D01*
Y201170D02*
Y211076D01*
Y184914D02*
Y188978D01*
Y143258D02*
Y155196D01*
Y134114D02*
Y138178D01*
Y116080D02*
Y129034D01*
X670074Y240286D02*
Y241810D01*
Y201170D02*
Y210568D01*
Y184914D02*
Y188978D01*
Y143258D02*
Y154688D01*
Y134114D02*
Y138178D01*
Y116334D02*
Y129034D01*
X669820Y240540D02*
Y241556D01*
Y201170D02*
Y210060D01*
Y184914D02*
Y188978D01*
Y143258D02*
Y154180D01*
Y134114D02*
Y138178D01*
Y116588D02*
Y128780D01*
X669566Y240794D02*
Y241302D01*
Y201170D02*
Y209298D01*
Y184914D02*
Y188978D01*
Y143258D02*
Y153672D01*
Y134114D02*
Y138178D01*
Y116842D02*
Y128526D01*
X669312Y201170D02*
Y208536D01*
Y184914D02*
Y188978D01*
Y143258D02*
Y152910D01*
Y134114D02*
Y138178D01*
Y117096D02*
Y128272D01*
X669058Y201170D02*
Y207774D01*
Y184914D02*
Y188978D01*
Y143258D02*
Y152148D01*
Y134114D02*
Y138178D01*
Y117350D02*
Y128018D01*
X668804Y201170D02*
Y206758D01*
Y184914D02*
Y188978D01*
Y143258D02*
Y151132D01*
Y134114D02*
Y138178D01*
Y117604D02*
Y127510D01*
X668550Y201170D02*
Y205488D01*
Y184914D02*
Y188978D01*
Y143258D02*
Y149608D01*
Y134114D02*
Y138178D01*
Y118112D02*
Y127256D01*
X668296Y118620D02*
Y126748D01*
X668042Y119128D02*
Y125986D01*
X667788Y120144D02*
Y125224D01*
X667534Y120652D02*
Y124462D01*
M02*
