G04*
G04 #@! TF.GenerationSoftware,Altium Limited,Altium Designer,19.0.10 (269)*
G04*
G04 Layer_Physical_Order=2*
G04 Layer_Color=16711680*
%FSLAX44Y44*%
%MOMM*%
G71*
G01*
G75*
%ADD12C,0.4000*%
%ADD13C,0.2000*%
%ADD14C,0.2540*%
%ADD59R,1.4500X1.1500*%
%ADD64R,1.0500X1.4000*%
%ADD65R,1.1500X1.4500*%
%ADD67R,1.4000X1.0500*%
%ADD77R,1.5500X1.3500*%
%ADD86C,0.1500*%
%ADD88C,0.2032*%
%ADD89C,1.6500*%
%ADD90R,1.6500X1.6500*%
%ADD91C,2.6000*%
G04:AMPARAMS|DCode=92|XSize=3.5mm|YSize=1.5mm|CornerRadius=0.375mm|HoleSize=0mm|Usage=FLASHONLY|Rotation=180.000|XOffset=0mm|YOffset=0mm|HoleType=Round|Shape=RoundedRectangle|*
%AMROUNDEDRECTD92*
21,1,3.5000,0.7500,0,0,180.0*
21,1,2.7500,1.5000,0,0,180.0*
1,1,0.7500,-1.3750,0.3750*
1,1,0.7500,1.3750,0.3750*
1,1,0.7500,1.3750,-0.3750*
1,1,0.7500,-1.3750,-0.3750*
%
%ADD92ROUNDEDRECTD92*%
%ADD93C,2.3000*%
G04:AMPARAMS|DCode=94|XSize=3.5mm|YSize=1.5mm|CornerRadius=0.375mm|HoleSize=0mm|Usage=FLASHONLY|Rotation=90.000|XOffset=0mm|YOffset=0mm|HoleType=Round|Shape=RoundedRectangle|*
%AMROUNDEDRECTD94*
21,1,3.5000,0.7500,0,0,90.0*
21,1,2.7500,1.5000,0,0,90.0*
1,1,0.7500,0.3750,1.3750*
1,1,0.7500,0.3750,-1.3750*
1,1,0.7500,-0.3750,-1.3750*
1,1,0.7500,-0.3750,1.3750*
%
%ADD94ROUNDEDRECTD94*%
G04:AMPARAMS|DCode=95|XSize=1.2mm|YSize=1.9mm|CornerRadius=0.3mm|HoleSize=0mm|Usage=FLASHONLY|Rotation=90.000|XOffset=0mm|YOffset=0mm|HoleType=Round|Shape=RoundedRectangle|*
%AMROUNDEDRECTD95*
21,1,1.2000,1.3000,0,0,90.0*
21,1,0.6000,1.9000,0,0,90.0*
1,1,0.6000,0.6500,0.3000*
1,1,0.6000,0.6500,-0.3000*
1,1,0.6000,-0.6500,-0.3000*
1,1,0.6000,-0.6500,0.3000*
%
%ADD95ROUNDEDRECTD95*%
%ADD96C,1.4500*%
G04:AMPARAMS|DCode=97|XSize=2mm|YSize=1.3mm|CornerRadius=0.325mm|HoleSize=0mm|Usage=FLASHONLY|Rotation=180.000|XOffset=0mm|YOffset=0mm|HoleType=Round|Shape=RoundedRectangle|*
%AMROUNDEDRECTD97*
21,1,2.0000,0.6500,0,0,180.0*
21,1,1.3500,1.3000,0,0,180.0*
1,1,0.6500,-0.6750,0.3250*
1,1,0.6500,0.6750,0.3250*
1,1,0.6500,0.6750,-0.3250*
1,1,0.6500,-0.6750,-0.3250*
%
%ADD97ROUNDEDRECTD97*%
G04:AMPARAMS|DCode=98|XSize=2mm|YSize=1.3mm|CornerRadius=0.325mm|HoleSize=0mm|Usage=FLASHONLY|Rotation=90.000|XOffset=0mm|YOffset=0mm|HoleType=Round|Shape=RoundedRectangle|*
%AMROUNDEDRECTD98*
21,1,2.0000,0.6500,0,0,90.0*
21,1,1.3500,1.3000,0,0,90.0*
1,1,0.6500,0.3250,0.6750*
1,1,0.6500,0.3250,-0.6750*
1,1,0.6500,-0.3250,-0.6750*
1,1,0.6500,-0.3250,0.6750*
%
%ADD98ROUNDEDRECTD98*%
%ADD99C,1.7000*%
%ADD100C,1.4000*%
%ADD101C,0.6000*%
%ADD102R,1.3500X0.4000*%
%ADD103R,0.5500X0.4500*%
%ADD104R,0.4500X0.5500*%
%ADD105O,1.7000X0.3500*%
%ADD106R,0.9500X1.3500*%
%ADD107O,0.4500X2.1000*%
%ADD108C,0.3000*%
G36*
X67961Y588000D02*
Y580000D01*
X68116Y579220D01*
X68558Y578558D01*
X69220Y578116D01*
X70000Y577961D01*
X581908Y577961D01*
X582105Y578000D01*
X582305D01*
X582400Y578019D01*
X582495Y578000D01*
X582696D01*
X582892Y577961D01*
X637961D01*
Y575143D01*
X637324Y574411D01*
X636691Y574039D01*
X586409Y574039D01*
X586212Y574000D01*
X586011D01*
X585826Y573923D01*
X585629Y573884D01*
X585462Y573772D01*
X585276Y573695D01*
X585134Y573554D01*
X584967Y573442D01*
X584855Y573275D01*
X584714Y573133D01*
X584535Y572865D01*
X583555Y572211D01*
X582400Y571981D01*
X581245Y572211D01*
X580265Y572865D01*
X580087Y573133D01*
X579945Y573275D01*
X579833Y573442D01*
X579666Y573554D01*
X579524Y573695D01*
X579338Y573772D01*
X579171Y573884D01*
X578974Y573923D01*
X578789Y574000D01*
X578588D01*
X578391Y574039D01*
X485750Y574039D01*
Y574250D01*
X470250D01*
Y572981D01*
X470116Y572780D01*
X469961Y572000D01*
X469961Y531696D01*
X469922Y531500D01*
Y523796D01*
X460561Y514436D01*
X329000D01*
X329000Y514436D01*
X327439Y514125D01*
X326116Y513241D01*
X271953Y459078D01*
X187896D01*
X186951Y459710D01*
X185000Y460098D01*
X183049Y459710D01*
X181395Y458605D01*
X180290Y456951D01*
X179902Y455000D01*
X180290Y453049D01*
X181395Y451395D01*
X183049Y450290D01*
X185000Y449902D01*
X186951Y450290D01*
X187857Y450896D01*
X188348Y450922D01*
X273642D01*
X273643Y450922D01*
X275203Y451232D01*
X276526Y452116D01*
X330689Y506279D01*
X462251D01*
X462251Y506279D01*
X463811Y506590D01*
X465135Y507474D01*
X476884Y519223D01*
X476884Y519223D01*
X477768Y520546D01*
X478078Y522107D01*
Y526674D01*
X478105Y526972D01*
X478176Y527401D01*
X478257Y527705D01*
X478275Y527750D01*
X485750D01*
Y527961D01*
X637000Y527961D01*
X637961Y526857D01*
Y463000D01*
X638116Y462220D01*
X638558Y461558D01*
X639220Y461116D01*
X640000Y460961D01*
X677000D01*
X677780Y461116D01*
X678442Y461558D01*
X678884Y462220D01*
X679039Y463000D01*
Y523000D01*
X678884Y523780D01*
X678442Y524442D01*
X672039Y530845D01*
Y568155D01*
X679442Y575558D01*
X679884Y576220D01*
X680039Y577000D01*
Y577961D01*
X733679D01*
X733987Y576729D01*
X733658Y576553D01*
X730839Y574240D01*
X728526Y571421D01*
X726807Y568206D01*
X725749Y564716D01*
X725392Y561088D01*
X725749Y557459D01*
X726807Y553970D01*
X728526Y550755D01*
X730839Y547936D01*
X733658Y545623D01*
X736873Y543904D01*
X740362Y542846D01*
X743991Y542488D01*
X747620Y542846D01*
X751109Y543904D01*
X754324Y545623D01*
X757143Y547936D01*
X759456Y550755D01*
X759729Y551265D01*
X760961Y550956D01*
X760961Y351890D01*
X760270Y351284D01*
Y340050D01*
Y328815D01*
X760961Y328210D01*
Y281790D01*
X760270Y281184D01*
Y269950D01*
Y258716D01*
X760961Y258110D01*
Y251890D01*
X760270Y251284D01*
Y240050D01*
Y228815D01*
X760961Y228210D01*
Y181790D01*
X760270Y181184D01*
Y169950D01*
Y158715D01*
X760961Y158110D01*
Y131890D01*
X760270Y131284D01*
Y120050D01*
Y108815D01*
X760961Y108210D01*
Y61790D01*
X760270Y61184D01*
Y49950D01*
X759000D01*
Y48680D01*
X748032D01*
X748244Y47068D01*
X748647Y46095D01*
X747942Y45039D01*
X730185Y45039D01*
X729867Y46309D01*
X732325Y47623D01*
X735143Y49936D01*
X737456Y52755D01*
X739175Y55970D01*
X740233Y59459D01*
X740591Y63088D01*
X740233Y66716D01*
X739175Y70206D01*
X737456Y73421D01*
X735143Y76240D01*
X732325Y78553D01*
X729109Y80272D01*
X725620Y81330D01*
X721991Y81687D01*
X718363Y81330D01*
X714873Y80272D01*
X711658Y78553D01*
X708839Y76240D01*
X706526Y73421D01*
X704807Y70206D01*
X703749Y66716D01*
X703392Y63088D01*
X703749Y59459D01*
X704807Y55970D01*
X706526Y52755D01*
X708839Y49936D01*
X711658Y47623D01*
X714116Y46309D01*
X713798Y45039D01*
X607105Y45039D01*
X600535Y51459D01*
X600211Y51669D01*
X599890Y51884D01*
X599878Y51886D01*
X599868Y51893D01*
X599487Y51964D01*
X599109Y52039D01*
X595134D01*
X595035Y52019D01*
X594934Y52029D01*
X594672Y51950D01*
X593600Y53555D01*
X593364Y53712D01*
X593338Y53740D01*
X593182Y53917D01*
X593057Y54078D01*
X592960Y54221D01*
X592889Y54344D01*
X592841Y54446D01*
X592811Y54525D01*
X592799Y54571D01*
Y91867D01*
X592873Y91936D01*
X594018Y92464D01*
X595092Y91747D01*
X596750Y91417D01*
X598408Y91747D01*
X599814Y92686D01*
X600186D01*
X601592Y91747D01*
X603250Y91417D01*
X604908Y91747D01*
X605676Y92260D01*
X606946Y91581D01*
Y82750D01*
X604000D01*
Y75020D01*
X604000Y74250D01*
X604000Y72980D01*
Y65250D01*
X604000D01*
X604947Y64082D01*
X604902Y63609D01*
X604895Y63605D01*
X603790Y61951D01*
X603402Y60000D01*
X603790Y58049D01*
X604895Y56395D01*
X606549Y55290D01*
X608500Y54902D01*
X610451Y55290D01*
X612105Y56395D01*
X612395D01*
X614049Y55290D01*
X616000Y54902D01*
X617951Y55290D01*
X619605Y56395D01*
X620710Y58049D01*
X621098Y60000D01*
X620710Y61951D01*
X619605Y63605D01*
X619512Y63667D01*
X619498Y64105D01*
X620617Y65250D01*
X621750D01*
Y72980D01*
X621750Y73750D01*
X621750Y75020D01*
Y82750D01*
X619054D01*
Y92512D01*
X619314Y92686D01*
X620253Y94092D01*
X620583Y95750D01*
Y112250D01*
X620253Y113908D01*
X619314Y115314D01*
X617908Y116253D01*
X616250Y116583D01*
X614592Y116253D01*
X613985Y115848D01*
X613000Y115399D01*
X612015Y115848D01*
X611408Y116253D01*
X609750Y116583D01*
X608092Y116253D01*
X608089Y116251D01*
X606819Y116930D01*
Y119666D01*
X606547Y121032D01*
X605773Y122189D01*
X594056Y133907D01*
X593975Y134002D01*
X593901Y134102D01*
X593842Y134194D01*
X593839Y134200D01*
X593491Y135951D01*
X592385Y137605D01*
X590732Y138710D01*
X588781Y139098D01*
X586830Y138710D01*
X585176Y137605D01*
X584071Y135951D01*
X583683Y134000D01*
X584071Y132049D01*
X585176Y130395D01*
X586830Y129290D01*
X588781Y128902D01*
X588891Y128924D01*
X588921Y128905D01*
X589010Y128843D01*
X589118Y128752D01*
X599682Y118188D01*
Y116930D01*
X598411Y116251D01*
X598408Y116253D01*
X596750Y116583D01*
X595092Y116253D01*
X593686Y115314D01*
X593314D01*
X591908Y116253D01*
X590250Y116583D01*
X588592Y116253D01*
X587186Y115314D01*
X586814D01*
X585408Y116253D01*
X583750Y116583D01*
X582092Y116253D01*
X580686Y115314D01*
X580314D01*
X578908Y116253D01*
X577250Y116583D01*
X575592Y116253D01*
X575079Y115911D01*
X573809Y116589D01*
Y118214D01*
X573828Y118307D01*
X573856Y118399D01*
X573892Y118490D01*
X573938Y118584D01*
X573997Y118684D01*
X574072Y118789D01*
X574140Y118871D01*
X574355Y119014D01*
X575460Y120668D01*
X575848Y122619D01*
X575460Y124570D01*
X574355Y126224D01*
X572701Y127329D01*
X570750Y127717D01*
X568799Y127329D01*
X567145Y126224D01*
X566040Y124570D01*
X565652Y122619D01*
X566040Y120668D01*
X567145Y119014D01*
X567360Y118871D01*
X567428Y118789D01*
X567503Y118684D01*
X567562Y118585D01*
X567608Y118490D01*
X567645Y118399D01*
X567672Y118307D01*
X567691Y118214D01*
Y116589D01*
X566421Y115911D01*
X565908Y116253D01*
X564458Y116542D01*
X544000Y137000D01*
Y159801D01*
X544750Y160417D01*
X546408Y160746D01*
X547814Y161686D01*
X548753Y163092D01*
X549083Y164750D01*
Y181250D01*
X548854Y182400D01*
X548856Y182430D01*
X548840Y182472D01*
X548753Y182908D01*
X548592Y183149D01*
X548582Y183177D01*
X548469Y183363D01*
X548400Y183499D01*
X548333Y183661D01*
X548269Y183852D01*
X548211Y184072D01*
X548160Y184321D01*
X548121Y184578D01*
X548084Y185040D01*
Y190625D01*
X547830Y191901D01*
X547108Y192983D01*
X544063Y196027D01*
Y200750D01*
X549979D01*
Y216250D01*
X531479D01*
Y214086D01*
X530209Y213701D01*
X529605Y214605D01*
X527951Y215710D01*
X526000Y216098D01*
X525820Y216062D01*
X525776Y216077D01*
X525707Y216106D01*
X525624Y216151D01*
X525524Y216214D01*
X525436Y216279D01*
X520334Y221381D01*
Y285000D01*
X520080Y286276D01*
X519358Y287358D01*
X467358Y339357D01*
X466276Y340080D01*
X465000Y340334D01*
X439381D01*
X415358Y364357D01*
X414276Y365080D01*
X413000Y365334D01*
X172869D01*
X123846Y414357D01*
X122764Y415080D01*
X121488Y415334D01*
X120000D01*
Y419250D01*
X102000D01*
Y415334D01*
X93305D01*
X93261Y415337D01*
X92914Y415415D01*
X92495Y415566D01*
X92008Y415801D01*
X91460Y416129D01*
X90857Y416552D01*
X90224Y417060D01*
X88760Y418431D01*
X87987Y419250D01*
X87710Y419610D01*
X85569Y421253D01*
X83076Y422286D01*
X80400Y422638D01*
X77724Y422286D01*
X76556Y421802D01*
X75500Y422508D01*
Y427492D01*
X76556Y428198D01*
X77724Y427714D01*
X80400Y427362D01*
X83076Y427714D01*
X85569Y428747D01*
X87710Y430390D01*
X87936Y430684D01*
X88607Y431348D01*
X90223Y432799D01*
X90917Y433345D01*
X91563Y433801D01*
X92140Y434153D01*
X92638Y434404D01*
X93043Y434561D01*
X93343Y434635D01*
X93411Y434641D01*
X139741D01*
X139856Y434620D01*
X139973Y434588D01*
X140092Y434547D01*
X140216Y434494D01*
X140345Y434427D01*
X140393Y434398D01*
X140395Y434395D01*
X140654Y434223D01*
X140817Y434094D01*
X140939Y434032D01*
X142049Y433290D01*
X144000Y432902D01*
X145951Y433290D01*
X147605Y434395D01*
X148710Y436049D01*
X149098Y438000D01*
X148710Y439951D01*
X147605Y441605D01*
X145951Y442710D01*
X144000Y443098D01*
X142049Y442710D01*
X140395Y441605D01*
X140147Y441233D01*
X140116Y441209D01*
X139977Y441048D01*
X139894Y440967D01*
X139820Y440905D01*
X139752Y440859D01*
X139689Y440824D01*
X139626Y440796D01*
X139559Y440774D01*
X139489Y440759D01*
X93411D01*
X93343Y440765D01*
X93043Y440839D01*
X92638Y440996D01*
X92140Y441247D01*
X91563Y441599D01*
X90954Y442029D01*
X88592Y444066D01*
X87936Y444716D01*
X87710Y445010D01*
X85569Y446653D01*
X83076Y447686D01*
X80400Y448038D01*
X77724Y447686D01*
X76556Y447202D01*
X75500Y447908D01*
Y452850D01*
X90650D01*
Y473350D01*
X75500D01*
Y497035D01*
X73309Y499226D01*
Y522250D01*
X77980D01*
X78750Y522250D01*
X80020Y522250D01*
X87750D01*
Y522299D01*
X89020Y522978D01*
X90049Y522290D01*
X92000Y521902D01*
X93951Y522290D01*
X95605Y523395D01*
X96710Y525049D01*
X97098Y527000D01*
X96710Y528951D01*
X95605Y530605D01*
X95215Y530865D01*
Y532135D01*
X95605Y532395D01*
X96710Y534049D01*
X97098Y536000D01*
X96710Y537951D01*
X95605Y539605D01*
X93951Y540710D01*
X92000Y541098D01*
X90049Y540710D01*
X89020Y540022D01*
X87750Y540701D01*
Y540750D01*
X80020D01*
X79250Y540750D01*
X77980Y540750D01*
X70250D01*
Y538059D01*
X50250D01*
Y545500D01*
X32750D01*
Y545000D01*
X24000D01*
Y510000D01*
X31626D01*
Y510000D01*
X31962Y507444D01*
X32949Y505063D01*
X34518Y503018D01*
X36563Y501448D01*
X38944Y500462D01*
X40230Y500293D01*
Y510000D01*
X42770D01*
Y500293D01*
X44056Y500462D01*
X45319Y500985D01*
X70535Y474620D01*
X70150Y473350D01*
X70150D01*
Y452850D01*
X71270D01*
X71270Y442443D01*
X70414Y440376D01*
X70062Y437700D01*
X70414Y435024D01*
X71270Y432957D01*
X71270Y417043D01*
X70414Y414976D01*
X70062Y412300D01*
X70414Y409624D01*
X71270Y407557D01*
X71270Y398000D01*
X75683D01*
X75936Y396730D01*
X74958Y396325D01*
X72705Y394595D01*
X70975Y392342D01*
X69888Y389717D01*
X69684Y388170D01*
X80400D01*
X91116D01*
X90912Y389717D01*
X89825Y392342D01*
X88096Y394595D01*
X85842Y396325D01*
X84864Y396730D01*
X85117Y398000D01*
X130773Y398000D01*
X169130Y359642D01*
X170212Y358920D01*
X171488Y358666D01*
X411619D01*
X435643Y334642D01*
X435732Y333732D01*
X407098Y305098D01*
X373892Y305098D01*
X373101Y306225D01*
X373154Y306597D01*
X373783Y307537D01*
X374073Y309000D01*
X373783Y310463D01*
X374438Y311676D01*
X375014Y311920D01*
X376290Y311666D01*
X379780D01*
X379911Y311654D01*
X379948Y311648D01*
X379988Y311589D01*
X380020Y311484D01*
X380207Y311261D01*
X380369Y311018D01*
X380460Y310957D01*
X380530Y310873D01*
X380788Y310738D01*
X381031Y310576D01*
X381138Y310555D01*
X381235Y310504D01*
X381525Y310478D01*
X381811Y310421D01*
X381918Y310442D01*
X382027Y310432D01*
X382305Y310519D01*
X382591Y310576D01*
X382682Y310637D01*
X382787Y310669D01*
X383010Y310856D01*
X383253Y311018D01*
X383314Y311109D01*
X383398Y311179D01*
X383533Y311437D01*
X383686Y311666D01*
X389000D01*
X390276Y311920D01*
X391358Y312642D01*
X392080Y313724D01*
X392334Y315000D01*
X392080Y316276D01*
X391358Y317358D01*
X390276Y318080D01*
X389000Y318334D01*
X383686D01*
X383533Y318563D01*
X383398Y318821D01*
X383314Y318891D01*
X383253Y318982D01*
X383011Y319144D01*
X382787Y319331D01*
X382682Y319363D01*
X382591Y319424D01*
X382306Y319481D01*
X382027Y319568D01*
X381918Y319558D01*
X381811Y319579D01*
X381525Y319522D01*
X381235Y319496D01*
X381138Y319445D01*
X381031Y319424D01*
X380788Y319262D01*
X380530Y319126D01*
X380460Y319043D01*
X380369Y318982D01*
X380207Y318739D01*
X380020Y318515D01*
X379988Y318411D01*
X379948Y318351D01*
X379911Y318346D01*
X379780Y318334D01*
X378163D01*
X377404Y319491D01*
X377415Y319629D01*
X377450Y319735D01*
X379358Y321642D01*
X380080Y322724D01*
X380334Y324000D01*
Y325250D01*
X398250D01*
Y329666D01*
X400869D01*
X400977Y329650D01*
X401091Y329624D01*
X401182Y329596D01*
X401252Y329569D01*
X401293Y329548D01*
X401395Y329395D01*
X403049Y328290D01*
X405000Y327902D01*
X406951Y328290D01*
X408605Y329395D01*
X409710Y331049D01*
X410098Y333000D01*
X409710Y334951D01*
X408605Y336605D01*
X406951Y337710D01*
X405000Y338098D01*
X403049Y337710D01*
X401395Y336605D01*
X401293Y336452D01*
X401252Y336431D01*
X401182Y336404D01*
X401091Y336376D01*
X400977Y336350D01*
X400869Y336334D01*
X398250D01*
Y340750D01*
X379750D01*
Y335762D01*
X379428D01*
X378152Y335508D01*
X377071Y334785D01*
X374642Y332357D01*
X374176Y331660D01*
X373807Y331522D01*
X372923Y331378D01*
X372651Y331406D01*
X371713Y332032D01*
X370250Y332323D01*
X356750D01*
X356397Y332253D01*
X355990Y332334D01*
X351381D01*
X348638Y335077D01*
X349124Y336250D01*
X349750D01*
Y353750D01*
X336250D01*
Y336250D01*
X339738D01*
Y335928D01*
X339992Y334652D01*
X340715Y333570D01*
X347643Y326642D01*
X347700Y326604D01*
X347315Y325334D01*
X330000D01*
X328724Y325080D01*
X327643Y324357D01*
X322119Y318834D01*
X317172D01*
X316493Y320104D01*
X316782Y320537D01*
X317073Y322000D01*
X316782Y323463D01*
X316493Y323896D01*
X317172Y325166D01*
X319500D01*
X320776Y325420D01*
X321858Y326142D01*
X329358Y333642D01*
X330080Y334724D01*
X330334Y336000D01*
Y336250D01*
X333750D01*
Y353750D01*
X320250D01*
Y336250D01*
X320876D01*
X321362Y335077D01*
X318119Y331834D01*
X315904D01*
X315446Y331859D01*
X314964Y331914D01*
X314862Y331933D01*
X314713Y332032D01*
X313250Y332323D01*
X299750D01*
X298287Y332032D01*
X297047Y331203D01*
X296218Y329963D01*
X295927Y328500D01*
X296218Y327037D01*
X296507Y326604D01*
X295828Y325334D01*
X291750D01*
Y331267D01*
X276250D01*
Y314000D01*
X171968D01*
X117968Y368000D01*
X55000Y368000D01*
X37000Y386000D01*
X37000Y487000D01*
X34000Y490000D01*
Y386000D01*
X54952Y366000D01*
X117834Y366000D01*
X171834Y312000D01*
X298239D01*
X298287Y311968D01*
X299750Y311677D01*
X313250D01*
X314713Y311968D01*
X314762Y312000D01*
X345000D01*
X349993Y307007D01*
X349507Y305834D01*
X347500D01*
X346224Y305580D01*
X345143Y304858D01*
X327643Y287358D01*
X326920Y286276D01*
X326666Y285000D01*
Y269131D01*
X326650Y269023D01*
X326624Y268909D01*
X326596Y268818D01*
X326569Y268748D01*
X326548Y268707D01*
X326395Y268605D01*
X325290Y266951D01*
X324902Y265000D01*
X325290Y263049D01*
X326395Y261395D01*
X328049Y260290D01*
X330000Y259902D01*
X331951Y260290D01*
X333605Y261395D01*
X333617Y261413D01*
X334995Y261190D01*
X335031Y261059D01*
X334290Y259951D01*
X333902Y258000D01*
X334290Y256049D01*
X335395Y254395D01*
X337049Y253290D01*
X339000Y252902D01*
X340951Y253290D01*
X342605Y254395D01*
X343710Y256049D01*
X344098Y258000D01*
X343710Y259951D01*
X342605Y261605D01*
X342452Y261707D01*
X342431Y261748D01*
X342404Y261818D01*
X342376Y261909D01*
X342351Y262023D01*
X342334Y262131D01*
Y283619D01*
X351381Y292666D01*
X354096D01*
X354554Y292641D01*
X355037Y292586D01*
X355138Y292567D01*
X355287Y292468D01*
X356750Y292176D01*
X370250D01*
X371713Y292468D01*
X372954Y293296D01*
X373783Y294537D01*
X374073Y296000D01*
X373783Y297463D01*
X372954Y298703D01*
Y299796D01*
X373783Y301037D01*
X374073Y302500D01*
X374484Y303000D01*
X408000Y303000D01*
X438666Y333666D01*
X463619D01*
X513666Y283619D01*
Y220000D01*
X513920Y218724D01*
X514642Y217642D01*
X517000Y215285D01*
Y207000D01*
X525493Y198507D01*
X525006Y197334D01*
X491131D01*
X491023Y197350D01*
X490909Y197376D01*
X490818Y197404D01*
X490748Y197431D01*
X490707Y197452D01*
X490605Y197605D01*
X488951Y198710D01*
X487000Y199098D01*
X485049Y198710D01*
X483395Y197605D01*
X482290Y195951D01*
X481902Y194000D01*
X482290Y192049D01*
X483395Y190395D01*
X485049Y189290D01*
X487000Y188902D01*
X488951Y189290D01*
X490605Y190395D01*
X490707Y190548D01*
X490748Y190569D01*
X490818Y190596D01*
X490909Y190624D01*
X491023Y190650D01*
X491131Y190666D01*
X525425D01*
X529716Y186375D01*
X529463Y184833D01*
X528686Y184314D01*
X527747Y182908D01*
X527417Y181250D01*
Y176334D01*
X500131D01*
X500023Y176350D01*
X499909Y176376D01*
X499818Y176404D01*
X499748Y176431D01*
X499707Y176452D01*
X499605Y176605D01*
X497951Y177710D01*
X496000Y178098D01*
X494049Y177710D01*
X492395Y176605D01*
X491290Y174951D01*
X490902Y173000D01*
X491290Y171049D01*
X492395Y169395D01*
X494049Y168290D01*
X496000Y167902D01*
X497951Y168290D01*
X499605Y169395D01*
X499707Y169548D01*
X499748Y169569D01*
X499818Y169596D01*
X499909Y169624D01*
X500023Y169650D01*
X500131Y169666D01*
X527417D01*
Y164750D01*
X527747Y163092D01*
X528686Y161686D01*
X530092Y160746D01*
X531750Y160417D01*
X533408Y160746D01*
X534814Y161686D01*
X535186D01*
X536592Y160746D01*
X538250Y160417D01*
X539730Y160711D01*
X540611Y160371D01*
X541000Y160163D01*
X541000Y135000D01*
X558214Y117786D01*
X557898Y116968D01*
X557642Y116562D01*
X556092Y116253D01*
X554686Y115314D01*
X553747Y113908D01*
X553417Y112250D01*
Y95750D01*
X553646Y94600D01*
X553644Y94571D01*
X553660Y94528D01*
X553747Y94092D01*
X553908Y93851D01*
X553918Y93823D01*
X554031Y93637D01*
X554100Y93501D01*
X554167Y93339D01*
X554231Y93148D01*
X554289Y92928D01*
X554340Y92679D01*
X554379Y92422D01*
X554407Y92072D01*
X554400Y92023D01*
X554374Y91909D01*
X554346Y91818D01*
X554319Y91748D01*
X554298Y91707D01*
X554145Y91605D01*
X553040Y89951D01*
X552652Y88000D01*
X552847Y87020D01*
X551829Y85750D01*
X548750D01*
Y70250D01*
X565100D01*
Y53555D01*
X556694D01*
X555938Y54060D01*
X554662Y54314D01*
X524777D01*
X521033Y58057D01*
X519952Y58780D01*
X518676Y59034D01*
X491131D01*
X491023Y59050D01*
X490909Y59076D01*
X490818Y59103D01*
X490748Y59131D01*
X490707Y59152D01*
X490605Y59304D01*
X488951Y60410D01*
X487000Y60798D01*
X485049Y60410D01*
X483395Y59304D01*
X482290Y57651D01*
X481902Y55700D01*
X482290Y53749D01*
X483395Y52095D01*
X485049Y50990D01*
X487000Y50602D01*
X488951Y50990D01*
X490605Y52095D01*
X490707Y52248D01*
X490748Y52268D01*
X490818Y52296D01*
X490909Y52324D01*
X491023Y52349D01*
X491131Y52366D01*
X517295D01*
X521038Y48622D01*
X522000Y47980D01*
X522000Y22000D01*
X94338Y22000D01*
X93485Y22941D01*
X93687Y24991D01*
X93330Y28620D01*
X92272Y32109D01*
X90553Y35324D01*
X88240Y38143D01*
X85421Y40456D01*
X82206Y42175D01*
X78716Y43233D01*
X75088Y43591D01*
X71459Y43233D01*
X67970Y42175D01*
X64755Y40456D01*
X61936Y38143D01*
X59623Y35324D01*
X57904Y32109D01*
X56846Y28620D01*
X56488Y24991D01*
X56690Y22941D01*
X55837Y22000D01*
X2590D01*
X2590Y492332D01*
Y492840D01*
X3860Y493225D01*
X4006Y493006D01*
X5839Y491781D01*
X8000Y491351D01*
X13230D01*
Y500000D01*
X5000D01*
Y507658D01*
X4006Y506994D01*
X3860Y506775D01*
X2590Y507160D01*
Y510000D01*
X5000D01*
Y545000D01*
X2590D01*
Y562840D01*
X3860Y563225D01*
X4006Y563006D01*
X5000Y562342D01*
Y570000D01*
X13230D01*
Y570000D01*
Y578648D01*
X8000D01*
X5839Y578218D01*
X4006Y576994D01*
X3860Y576775D01*
X2590Y577160D01*
Y588000D01*
X67961D01*
D02*
G37*
G36*
X745028Y563672D02*
X745089Y563326D01*
X745190Y563021D01*
X745332Y562757D01*
X745515Y562534D01*
X745739Y562351D01*
X746003Y562209D01*
X746308Y562107D01*
X746653Y562046D01*
X747039Y562026D01*
Y559994D01*
X746653Y559973D01*
X746308Y559912D01*
X746003Y559811D01*
X745739Y559669D01*
X745515Y559486D01*
X745332Y559262D01*
X745190Y558998D01*
X745089Y558693D01*
X745028Y558348D01*
X745007Y557962D01*
X742975D01*
X742955Y558348D01*
X742894Y558693D01*
X742793Y558998D01*
X742650Y559262D01*
X742467Y559486D01*
X742244Y559669D01*
X741980Y559811D01*
X741675Y559912D01*
X741329Y559973D01*
X740943Y559994D01*
Y562026D01*
X741329Y562046D01*
X741675Y562107D01*
X741980Y562209D01*
X742244Y562351D01*
X742467Y562534D01*
X742650Y562757D01*
X742793Y563021D01*
X742894Y563326D01*
X742955Y563672D01*
X742975Y564058D01*
X745007D01*
X745028Y563672D01*
D02*
G37*
G36*
X89858Y533900D02*
X89639Y534109D01*
X89413Y534296D01*
X89181Y534461D01*
X88942Y534604D01*
X88697Y534725D01*
X88445Y534824D01*
X88187Y534901D01*
X87922Y534956D01*
X87650Y534989D01*
X87509Y534995D01*
X87334Y534990D01*
X86989Y534960D01*
X86684Y534910D01*
X86420Y534840D01*
X86197Y534750D01*
X86014Y534640D01*
X85872Y534510D01*
X85770Y534360D01*
X85709Y534190D01*
X85689Y534000D01*
Y538000D01*
X85709Y537810D01*
X85770Y537640D01*
X85872Y537490D01*
X86014Y537360D01*
X86197Y537250D01*
X86420Y537160D01*
X86684Y537090D01*
X86989Y537040D01*
X87334Y537010D01*
X87509Y537005D01*
X87650Y537011D01*
X87922Y537044D01*
X88187Y537099D01*
X88445Y537176D01*
X88697Y537275D01*
X88942Y537396D01*
X89181Y537539D01*
X89413Y537704D01*
X89639Y537891D01*
X89858Y538100D01*
Y533900D01*
D02*
G37*
G36*
X72281Y533280D02*
X72261Y533417D01*
X72200Y533540D01*
X72101Y533647D01*
X71961Y533741D01*
X71781Y533820D01*
X71561Y533885D01*
X71301Y533935D01*
X71000Y533971D01*
X70661Y533993D01*
X70281Y534000D01*
Y536000D01*
X70661Y536010D01*
X71000Y536040D01*
X71301Y536090D01*
X71561Y536160D01*
X71781Y536250D01*
X71961Y536360D01*
X72101Y536490D01*
X72200Y536640D01*
X72261Y536810D01*
X72281Y537000D01*
Y533280D01*
D02*
G37*
G36*
X48240Y536785D02*
X48300Y536620D01*
X48400Y536475D01*
X48540Y536349D01*
X48720Y536242D01*
X48940Y536155D01*
X49200Y536087D01*
X49500Y536039D01*
X49840Y536010D01*
X50220Y536000D01*
Y534000D01*
X49840Y533990D01*
X49500Y533961D01*
X49200Y533913D01*
X48940Y533845D01*
X48720Y533758D01*
X48540Y533651D01*
X48400Y533525D01*
X48300Y533380D01*
X48240Y533215D01*
X48220Y533031D01*
Y536969D01*
X48240Y536785D01*
D02*
G37*
G36*
X578391Y572000D02*
X578795Y571395D01*
X580449Y570290D01*
X582400Y569902D01*
X584351Y570290D01*
X586005Y571395D01*
X586409Y572000D01*
X637000Y572000D01*
X637000Y530000D01*
X472000Y530000D01*
X472000Y572000D01*
X578391Y572000D01*
D02*
G37*
G36*
X89858Y524900D02*
X89639Y525109D01*
X89413Y525296D01*
X89181Y525461D01*
X88942Y525604D01*
X88697Y525725D01*
X88445Y525824D01*
X88187Y525901D01*
X87922Y525956D01*
X87650Y525989D01*
X87509Y525994D01*
X87334Y525990D01*
X86989Y525960D01*
X86684Y525910D01*
X86420Y525840D01*
X86197Y525750D01*
X86014Y525640D01*
X85872Y525510D01*
X85770Y525360D01*
X85709Y525190D01*
X85689Y525000D01*
Y529000D01*
X85709Y528810D01*
X85770Y528640D01*
X85872Y528490D01*
X86014Y528360D01*
X86197Y528250D01*
X86420Y528160D01*
X86684Y528090D01*
X86989Y528040D01*
X87334Y528010D01*
X87509Y528005D01*
X87650Y528011D01*
X87922Y528044D01*
X88187Y528099D01*
X88445Y528176D01*
X88697Y528275D01*
X88942Y528396D01*
X89181Y528539D01*
X89413Y528704D01*
X89639Y528891D01*
X89858Y529100D01*
Y524900D01*
D02*
G37*
G36*
X72281Y527000D02*
X72266Y527142D01*
X72221Y527270D01*
X72146Y527383D01*
X72041Y527480D01*
X71905Y527562D01*
X71740Y527630D01*
X71546Y527682D01*
X71321Y527720D01*
X71066Y527743D01*
X70781Y527750D01*
Y529250D01*
X71066Y529255D01*
X71546Y529292D01*
X71740Y529325D01*
X71905Y529367D01*
X72041Y529419D01*
X72146Y529480D01*
X72221Y529551D01*
X72266Y529630D01*
X72281Y529720D01*
Y527000D01*
D02*
G37*
G36*
X48235Y529857D02*
X48280Y529730D01*
X48355Y529618D01*
X48460Y529520D01*
X48595Y529437D01*
X48760Y529370D01*
X48955Y529318D01*
X49180Y529280D01*
X49435Y529258D01*
X49720Y529250D01*
Y527750D01*
X49435Y527743D01*
X49180Y527720D01*
X48955Y527682D01*
X48760Y527630D01*
X48595Y527562D01*
X48460Y527480D01*
X48355Y527383D01*
X48280Y527270D01*
X48235Y527142D01*
X48220Y527000D01*
Y530000D01*
X48235Y529857D01*
D02*
G37*
G36*
X477620Y529769D02*
X477280Y529646D01*
X476980Y529444D01*
X476720Y529161D01*
X476500Y528798D01*
X476320Y528355D01*
X476180Y527831D01*
X476080Y527228D01*
X476020Y526544D01*
X476000Y525780D01*
X472000D01*
X472281Y529780D01*
X478000Y529811D01*
X477620Y529769D01*
D02*
G37*
G36*
X70250Y522250D02*
X71270D01*
Y499000D01*
X50518D01*
X47657Y501861D01*
X47740Y503128D01*
X48097Y503403D01*
X49580Y505335D01*
X50512Y507585D01*
X50830Y510000D01*
X50512Y512415D01*
X49580Y514665D01*
X48097Y516597D01*
X46165Y518080D01*
X43915Y519012D01*
X41500Y519330D01*
X39085Y519012D01*
X36835Y518080D01*
X35788Y517276D01*
X34518Y517902D01*
Y524426D01*
X70250D01*
Y522250D01*
D02*
G37*
G36*
X187179Y457081D02*
X187250Y457064D01*
X187354Y457049D01*
X187665Y457025D01*
X188694Y457001D01*
X189036Y457000D01*
Y453000D01*
X187143Y452900D01*
Y457100D01*
X187179Y457081D01*
D02*
G37*
G36*
X142078Y435696D02*
X141836Y435887D01*
X141590Y436058D01*
X141341Y436208D01*
X141088Y436339D01*
X140831Y436449D01*
X140571Y436539D01*
X140308Y436610D01*
X140041Y436660D01*
X139770Y436690D01*
X139496Y436700D01*
X139283Y438700D01*
X139565Y438712D01*
X139837Y438747D01*
X140099Y438806D01*
X140351Y438888D01*
X140594Y438994D01*
X140827Y439123D01*
X141049Y439276D01*
X141262Y439452D01*
X141465Y439652D01*
X141658Y439875D01*
X142078Y435696D01*
D02*
G37*
G36*
X87207Y442568D02*
X89698Y440419D01*
X90444Y439894D01*
X91147Y439464D01*
X91809Y439130D01*
X92428Y438891D01*
X93005Y438748D01*
X93539Y438700D01*
Y436700D01*
X93005Y436652D01*
X92428Y436509D01*
X91809Y436270D01*
X91147Y435936D01*
X90444Y435506D01*
X89698Y434981D01*
X88910Y434360D01*
X87207Y432832D01*
X86292Y431925D01*
Y443475D01*
X87207Y442568D01*
D02*
G37*
G36*
X117965Y414299D02*
X118042Y414083D01*
X118170Y413892D01*
X118350Y413727D01*
X118582Y413587D01*
X118864Y413473D01*
X119199Y413384D01*
X119584Y413321D01*
X120021Y413283D01*
X120510Y413270D01*
Y410730D01*
X120021Y410717D01*
X119584Y410679D01*
X119199Y410616D01*
X118864Y410527D01*
X118582Y410412D01*
X118350Y410273D01*
X118170Y410108D01*
X118042Y409917D01*
X117965Y409701D01*
X117939Y409460D01*
Y414540D01*
X117965Y414299D01*
D02*
G37*
G36*
X104061Y409460D02*
X104035Y409701D01*
X103958Y409917D01*
X103830Y410108D01*
X103650Y410273D01*
X103418Y410412D01*
X103136Y410527D01*
X102801Y410616D01*
X102416Y410679D01*
X101979Y410717D01*
X101490Y410730D01*
Y413270D01*
X101979Y413283D01*
X102416Y413321D01*
X102801Y413384D01*
X103136Y413473D01*
X103418Y413587D01*
X103650Y413727D01*
X103830Y413892D01*
X103958Y414083D01*
X104035Y414299D01*
X104061Y414540D01*
Y409460D01*
D02*
G37*
G36*
X87321Y416985D02*
X88888Y415518D01*
X89631Y414921D01*
X90349Y414417D01*
X91040Y414004D01*
X91706Y413683D01*
X92344Y413453D01*
X92957Y413316D01*
X93543Y413270D01*
X93449Y410730D01*
X92886Y410686D01*
X92285Y410553D01*
X91645Y410333D01*
X90966Y410023D01*
X90248Y409626D01*
X89491Y409140D01*
X88696Y408566D01*
X86989Y407154D01*
X86078Y406315D01*
X86498Y417857D01*
X87321Y416985D01*
D02*
G37*
G36*
X329089Y338288D02*
X328917Y338218D01*
X328765Y338103D01*
X328634Y337941D01*
X328523Y337733D01*
X328432Y337479D01*
X328361Y337178D01*
X328311Y336832D01*
X328280Y336439D01*
X328270Y336000D01*
X325730D01*
X325720Y336439D01*
X325690Y336832D01*
X325639Y337178D01*
X325568Y337479D01*
X325477Y337733D01*
X325366Y337941D01*
X325235Y338103D01*
X325083Y338218D01*
X324912Y338288D01*
X324720Y338311D01*
X329281D01*
X329089Y338288D01*
D02*
G37*
G36*
X345219Y338287D02*
X345035Y338216D01*
X344873Y338097D01*
X344732Y337930D01*
X344613Y337715D01*
X344515Y337453D01*
X344440Y337143D01*
X344385Y336786D01*
X344353Y336381D01*
X344342Y335928D01*
X341802D01*
X341791Y336381D01*
X341759Y336786D01*
X341705Y337143D01*
X341629Y337453D01*
X341531Y337715D01*
X341412Y337930D01*
X341272Y338097D01*
X341109Y338216D01*
X340925Y338287D01*
X340720Y338311D01*
X345425D01*
X345219Y338287D01*
D02*
G37*
G36*
X402858Y330900D02*
X402687Y331058D01*
X402502Y331199D01*
X402302Y331323D01*
X402087Y331431D01*
X401857Y331522D01*
X401612Y331597D01*
X401352Y331655D01*
X401077Y331697D01*
X400787Y331722D01*
X400482Y331730D01*
Y334270D01*
X400787Y334278D01*
X401077Y334303D01*
X401352Y334345D01*
X401612Y334403D01*
X401857Y334478D01*
X402087Y334569D01*
X402302Y334677D01*
X402502Y334801D01*
X402687Y334942D01*
X402858Y335100D01*
Y330900D01*
D02*
G37*
G36*
X396215Y335299D02*
X396292Y335083D01*
X396421Y334892D01*
X396600Y334727D01*
X396832Y334588D01*
X397114Y334473D01*
X397449Y334384D01*
X397834Y334321D01*
X398271Y334283D01*
X398760Y334270D01*
Y331730D01*
X398271Y331717D01*
X397834Y331679D01*
X397449Y331616D01*
X397114Y331527D01*
X396832Y331413D01*
X396600Y331273D01*
X396421Y331108D01*
X396292Y330917D01*
X396215Y330701D01*
X396189Y330460D01*
Y335540D01*
X396215Y335299D01*
D02*
G37*
G36*
X381811Y330075D02*
X381787Y330281D01*
X381716Y330465D01*
X381597Y330628D01*
X381430Y330768D01*
X381215Y330887D01*
X380953Y330985D01*
X380643Y331060D01*
X380286Y331115D01*
X379881Y331147D01*
X379428Y331158D01*
Y333698D01*
X379881Y333709D01*
X380286Y333741D01*
X380643Y333795D01*
X380953Y333871D01*
X381215Y333969D01*
X381430Y334088D01*
X381597Y334228D01*
X381716Y334391D01*
X381787Y334575D01*
X381811Y334781D01*
Y330075D01*
D02*
G37*
G36*
X356079Y330120D02*
Y326880D01*
X355816Y327042D01*
X355535Y327186D01*
X355237Y327314D01*
X354921Y327424D01*
X354588Y327518D01*
X354237Y327594D01*
X353868Y327654D01*
X353078Y327721D01*
X352657Y327730D01*
X352556Y330270D01*
X356079Y330120D01*
D02*
G37*
G36*
X314046Y330053D02*
X314211Y329994D01*
X314417Y329941D01*
X314662Y329896D01*
X315275Y329826D01*
X316049Y329784D01*
X316984Y329770D01*
Y327230D01*
X316497Y327226D01*
X314662Y327104D01*
X314417Y327059D01*
X314211Y327006D01*
X314046Y326947D01*
X313921Y326880D01*
Y330120D01*
X314046Y330053D01*
D02*
G37*
G36*
X371041Y323556D02*
X371202Y323500D01*
X371404Y323450D01*
X371647Y323406D01*
X372254Y323340D01*
X373025Y323300D01*
X373960Y323287D01*
X374009Y320746D01*
X373521Y320743D01*
X371678Y320615D01*
X371429Y320567D01*
X371220Y320512D01*
X371051Y320450D01*
X370921Y320380D01*
Y323620D01*
X371041Y323556D01*
D02*
G37*
G36*
X356079Y320380D02*
X355954Y320447D01*
X355789Y320506D01*
X355584Y320559D01*
X355338Y320604D01*
X354725Y320674D01*
X353951Y320716D01*
X353016Y320730D01*
Y323270D01*
X353504Y323274D01*
X355338Y323396D01*
X355584Y323441D01*
X355789Y323494D01*
X355954Y323553D01*
X356079Y323620D01*
Y320380D01*
D02*
G37*
G36*
X299079D02*
X298954Y320447D01*
X298789Y320506D01*
X298584Y320559D01*
X298338Y320604D01*
X297725Y320674D01*
X296951Y320716D01*
X296016Y320730D01*
Y323270D01*
X296504Y323274D01*
X298338Y323396D01*
X298584Y323441D01*
X298789Y323494D01*
X298954Y323553D01*
X299079Y323620D01*
Y320380D01*
D02*
G37*
G36*
X289715Y324299D02*
X289792Y324083D01*
X289921Y323892D01*
X290100Y323727D01*
X290332Y323587D01*
X290614Y323473D01*
X290949Y323384D01*
X291334Y323321D01*
X291771Y323283D01*
X292260Y323270D01*
Y320730D01*
X291771Y320717D01*
X291334Y320679D01*
X290949Y320616D01*
X290614Y320527D01*
X290332Y320412D01*
X290100Y320273D01*
X289921Y320108D01*
X289792Y319917D01*
X289715Y319701D01*
X289689Y319460D01*
Y324540D01*
X289715Y324299D01*
D02*
G37*
G36*
X371046Y317053D02*
X371211Y316994D01*
X371417Y316941D01*
X371662Y316896D01*
X372275Y316826D01*
X373049Y316784D01*
X373984Y316770D01*
Y314230D01*
X373497Y314226D01*
X371662Y314104D01*
X371417Y314059D01*
X371211Y314006D01*
X371046Y313947D01*
X370921Y313880D01*
Y317120D01*
X371046Y317053D01*
D02*
G37*
G36*
X314046D02*
X314211Y316994D01*
X314417Y316941D01*
X314662Y316896D01*
X315275Y316826D01*
X316049Y316784D01*
X316984Y316770D01*
Y314230D01*
X316497Y314226D01*
X314662Y314104D01*
X314417Y314059D01*
X314211Y314006D01*
X314046Y313947D01*
X313921Y313880D01*
Y317120D01*
X314046Y317053D01*
D02*
G37*
G36*
X381811Y312460D02*
X381785Y312701D01*
X381708Y312917D01*
X381580Y313108D01*
X381400Y313273D01*
X381168Y313412D01*
X380886Y313527D01*
X380551Y313616D01*
X380166Y313679D01*
X379729Y313717D01*
X379241Y313730D01*
Y316270D01*
X379729Y316283D01*
X380166Y316321D01*
X380551Y316384D01*
X380886Y316473D01*
X381168Y316588D01*
X381400Y316727D01*
X381580Y316892D01*
X381708Y317083D01*
X381785Y317299D01*
X381811Y317540D01*
Y312460D01*
D02*
G37*
G36*
X354554Y318641D02*
X355037Y318586D01*
X355138Y318567D01*
X355287Y318468D01*
X356750Y318176D01*
X359828D01*
X360507Y316907D01*
X360420Y316776D01*
X360166Y315500D01*
X360420Y314224D01*
X360507Y314093D01*
X359828Y312823D01*
X356750D01*
X355287Y312532D01*
X354047Y311703D01*
X353218Y310463D01*
X353071Y309725D01*
X351693Y309307D01*
X347000Y314000D01*
X328374D01*
X327888Y315173D01*
X331381Y318666D01*
X354096D01*
X354554Y318641D01*
D02*
G37*
G36*
X356079Y300880D02*
X355954Y300947D01*
X355789Y301006D01*
X355584Y301059D01*
X355338Y301104D01*
X354725Y301174D01*
X353951Y301216D01*
X353016Y301230D01*
Y303770D01*
X353504Y303773D01*
X355338Y303896D01*
X355584Y303941D01*
X355789Y303994D01*
X355954Y304053D01*
X356079Y304120D01*
Y300880D01*
D02*
G37*
G36*
Y294380D02*
X355954Y294447D01*
X355789Y294506D01*
X355584Y294559D01*
X355338Y294604D01*
X354725Y294674D01*
X353951Y294716D01*
X353016Y294730D01*
Y297270D01*
X353504Y297274D01*
X355338Y297396D01*
X355584Y297441D01*
X355789Y297494D01*
X355954Y297553D01*
X356079Y297620D01*
Y294380D01*
D02*
G37*
G36*
X331270Y269518D02*
X331278Y269213D01*
X331303Y268923D01*
X331345Y268648D01*
X331403Y268388D01*
X331478Y268143D01*
X331569Y267913D01*
X331677Y267698D01*
X331801Y267498D01*
X331942Y267313D01*
X332100Y267142D01*
X327900Y267142D01*
X328058Y267313D01*
X328199Y267498D01*
X328323Y267698D01*
X328431Y267913D01*
X328523Y268143D01*
X328597Y268388D01*
X328655Y268648D01*
X328697Y268923D01*
X328722Y269213D01*
X328730Y269518D01*
X331270Y269518D01*
D02*
G37*
G36*
X340278Y262213D02*
X340303Y261923D01*
X340345Y261648D01*
X340403Y261388D01*
X340478Y261143D01*
X340569Y260913D01*
X340677Y260698D01*
X340801Y260498D01*
X340942Y260313D01*
X341100Y260142D01*
X336900D01*
X337058Y260313D01*
X337199Y260498D01*
X337323Y260698D01*
X337431Y260913D01*
X337523Y261143D01*
X337597Y261388D01*
X337655Y261648D01*
X337697Y261923D01*
X337722Y262213D01*
X337730Y262518D01*
X340270D01*
X340278Y262213D01*
D02*
G37*
G36*
X523925Y214883D02*
X524147Y214695D01*
X524371Y214530D01*
X524596Y214388D01*
X524822Y214267D01*
X525050Y214169D01*
X525278Y214093D01*
X525508Y214040D01*
X525738Y214009D01*
X525970Y214000D01*
X523000Y211030D01*
X522991Y211262D01*
X522960Y211493D01*
X522907Y211722D01*
X522831Y211950D01*
X522733Y212178D01*
X522612Y212404D01*
X522470Y212629D01*
X522304Y212852D01*
X522117Y213075D01*
X521907Y213297D01*
X523703Y215093D01*
X523925Y214883D01*
D02*
G37*
G36*
X543028Y202785D02*
X542812Y202708D01*
X542621Y202580D01*
X542456Y202400D01*
X542316Y202168D01*
X542202Y201886D01*
X542113Y201551D01*
X542050Y201166D01*
X542012Y200729D01*
X541999Y200240D01*
X539459D01*
X539446Y200729D01*
X539408Y201166D01*
X539345Y201551D01*
X539256Y201886D01*
X539141Y202168D01*
X539002Y202400D01*
X538837Y202580D01*
X538646Y202708D01*
X538430Y202785D01*
X538189Y202811D01*
X543269D01*
X543028Y202785D01*
D02*
G37*
G36*
X489313Y195942D02*
X489498Y195801D01*
X489698Y195677D01*
X489913Y195569D01*
X490143Y195478D01*
X490388Y195403D01*
X490648Y195345D01*
X490923Y195303D01*
X491213Y195278D01*
X491518Y195270D01*
Y192730D01*
X491213Y192722D01*
X490923Y192697D01*
X490648Y192655D01*
X490388Y192597D01*
X490143Y192523D01*
X489913Y192431D01*
X489698Y192323D01*
X489498Y192199D01*
X489313Y192058D01*
X489142Y191900D01*
Y196100D01*
X489313Y195942D01*
D02*
G37*
G36*
X546028Y185168D02*
X546094Y184344D01*
X546151Y183964D01*
X546225Y183604D01*
X546315Y183265D01*
X546422Y182946D01*
X546545Y182649D01*
X546685Y182372D01*
X546841Y182116D01*
X542659D01*
X542815Y182372D01*
X542955Y182649D01*
X543078Y182946D01*
X543185Y183265D01*
X543275Y183604D01*
X543349Y183964D01*
X543406Y184344D01*
X543472Y185168D01*
X543480Y185611D01*
X546020D01*
X546028Y185168D01*
D02*
G37*
G36*
X498313Y174942D02*
X498498Y174801D01*
X498698Y174677D01*
X498913Y174569D01*
X499143Y174478D01*
X499388Y174403D01*
X499648Y174345D01*
X499923Y174303D01*
X500213Y174278D01*
X500518Y174270D01*
Y171730D01*
X500213Y171722D01*
X499923Y171697D01*
X499648Y171655D01*
X499388Y171597D01*
X499143Y171523D01*
X498913Y171431D01*
X498698Y171323D01*
X498498Y171199D01*
X498313Y171058D01*
X498143Y170900D01*
Y175100D01*
X498313Y174942D01*
D02*
G37*
G36*
X529518Y170460D02*
X529492Y170701D01*
X529415Y170917D01*
X529286Y171108D01*
X529106Y171273D01*
X528875Y171413D01*
X528592Y171527D01*
X528258Y171616D01*
X527872Y171679D01*
X527435Y171717D01*
X526947Y171730D01*
Y174270D01*
X527435Y174283D01*
X527872Y174321D01*
X528258Y174384D01*
X528592Y174473D01*
X528875Y174587D01*
X529106Y174727D01*
X529286Y174892D01*
X529415Y175083D01*
X529492Y175299D01*
X529518Y175540D01*
Y170460D01*
D02*
G37*
G36*
X591795Y133897D02*
X591834Y133721D01*
X591895Y133538D01*
X591980Y133348D01*
X592089Y133151D01*
X592220Y132947D01*
X592375Y132735D01*
X592754Y132292D01*
X592978Y132059D01*
X590935Y129860D01*
X590703Y130083D01*
X590257Y130457D01*
X590045Y130608D01*
X589838Y130735D01*
X589639Y130837D01*
X589446Y130915D01*
X589259Y130968D01*
X589080Y130998D01*
X588906Y131003D01*
X591780Y134066D01*
X591795Y133897D01*
D02*
G37*
G36*
X572641Y120258D02*
X572454Y120032D01*
X572289Y119800D01*
X572146Y119561D01*
X572025Y119316D01*
X571926Y119064D01*
X571849Y118806D01*
X571794Y118540D01*
X571761Y118269D01*
X571750Y117991D01*
X569750D01*
X569739Y118269D01*
X569706Y118540D01*
X569651Y118806D01*
X569574Y119064D01*
X569475Y119316D01*
X569354Y119561D01*
X569211Y119800D01*
X569046Y120032D01*
X568859Y120258D01*
X568650Y120477D01*
X572850D01*
X572641Y120258D01*
D02*
G37*
G36*
X571760Y115678D02*
X571838Y114713D01*
X571906Y114321D01*
X571994Y113989D01*
X572101Y113717D01*
X572228Y113506D01*
X572374Y113356D01*
X572539Y113265D01*
X572725Y113235D01*
X568775D01*
X568961Y113265D01*
X569126Y113356D01*
X569272Y113506D01*
X569399Y113717D01*
X569506Y113989D01*
X569594Y114321D01*
X569662Y114713D01*
X569711Y115165D01*
X569750Y116251D01*
X571750D01*
X571760Y115678D01*
D02*
G37*
G36*
X604756Y116354D02*
X604898Y114508D01*
X604963Y114149D01*
X605039Y113829D01*
X605128Y113551D01*
X605229Y113313D01*
X605341Y113116D01*
X601159D01*
X601272Y113313D01*
X601372Y113551D01*
X601461Y113829D01*
X601537Y114149D01*
X601602Y114508D01*
X601697Y115350D01*
X601744Y116354D01*
X601750Y116917D01*
X604750D01*
X604756Y116354D01*
D02*
G37*
G36*
X568517Y102000D02*
X568497Y102190D01*
X568436Y102360D01*
X568335Y102510D01*
X568193Y102640D01*
X568010Y102750D01*
X567787Y102840D01*
X567523Y102910D01*
X567500Y102914D01*
X567477Y102910D01*
X567214Y102840D01*
X566990Y102750D01*
X566807Y102640D01*
X566665Y102510D01*
X566564Y102360D01*
X566503Y102190D01*
X566483Y102000D01*
Y106000D01*
X566503Y105810D01*
X566564Y105640D01*
X566665Y105490D01*
X566807Y105360D01*
X566990Y105250D01*
X567214Y105160D01*
X567477Y105090D01*
X567500Y105086D01*
X567523Y105090D01*
X567787Y105160D01*
X568010Y105250D01*
X568193Y105360D01*
X568335Y105490D01*
X568436Y105640D01*
X568497Y105810D01*
X568517Y106000D01*
Y102000D01*
D02*
G37*
G36*
X591478Y93938D02*
X591339Y93940D01*
X591214Y93900D01*
X591104Y93819D01*
X591009Y93696D01*
X590928Y93532D01*
X590862Y93326D01*
X590811Y93078D01*
X590774Y92789D01*
X590752Y92458D01*
X590745Y92085D01*
X589245Y92252D01*
X589238Y92640D01*
X589180Y93299D01*
X589129Y93572D01*
X589064Y93805D01*
X588984Y94001D01*
X588890Y94158D01*
X588781Y94276D01*
X588658Y94357D01*
X588521Y94398D01*
X591478Y93938D01*
D02*
G37*
G36*
X617594Y94088D02*
X617469Y94029D01*
X617359Y93931D01*
X617264Y93793D01*
X617183Y93615D01*
X617117Y93398D01*
X617066Y93142D01*
X617029Y92846D01*
X617007Y92511D01*
X617000Y92136D01*
X615500D01*
X615493Y92511D01*
X615434Y93142D01*
X615383Y93398D01*
X615317Y93615D01*
X615236Y93793D01*
X615141Y93931D01*
X615031Y94029D01*
X614906Y94088D01*
X614767Y94108D01*
X617733D01*
X617594Y94088D01*
D02*
G37*
G36*
X611094D02*
X610969Y94029D01*
X610859Y93931D01*
X610764Y93793D01*
X610683Y93615D01*
X610617Y93398D01*
X610566Y93142D01*
X610529Y92846D01*
X610507Y92511D01*
X610500Y92136D01*
X609000D01*
X608993Y92511D01*
X608934Y93142D01*
X608883Y93398D01*
X608817Y93615D01*
X608736Y93793D01*
X608641Y93931D01*
X608531Y94029D01*
X608406Y94088D01*
X608267Y94108D01*
X611233D01*
X611094Y94088D01*
D02*
G37*
G36*
X585094D02*
X584969Y94029D01*
X584859Y93931D01*
X584764Y93793D01*
X584683Y93615D01*
X584617Y93398D01*
X584566Y93142D01*
X584529Y92846D01*
X584507Y92511D01*
X584500Y92136D01*
X583000D01*
X582993Y92511D01*
X582934Y93142D01*
X582883Y93398D01*
X582817Y93615D01*
X582736Y93793D01*
X582641Y93931D01*
X582531Y94029D01*
X582406Y94088D01*
X582267Y94108D01*
X585233D01*
X585094Y94088D01*
D02*
G37*
G36*
X578594D02*
X578469Y94029D01*
X578359Y93931D01*
X578264Y93793D01*
X578183Y93615D01*
X578117Y93398D01*
X578066Y93142D01*
X578029Y92846D01*
X578007Y92511D01*
X578000Y92136D01*
X576500D01*
X576493Y92511D01*
X576434Y93142D01*
X576383Y93398D01*
X576317Y93615D01*
X576236Y93793D01*
X576141Y93931D01*
X576031Y94029D01*
X575906Y94088D01*
X575767Y94108D01*
X578733D01*
X578594Y94088D01*
D02*
G37*
G36*
X559685Y94628D02*
X559545Y94351D01*
X559422Y94053D01*
X559315Y93735D01*
X559225Y93396D01*
X559151Y93036D01*
X559094Y92656D01*
X559044Y92030D01*
X559053Y91923D01*
X559095Y91648D01*
X559153Y91388D01*
X559227Y91143D01*
X559319Y90913D01*
X559427Y90698D01*
X559551Y90498D01*
X559692Y90313D01*
X559850Y90142D01*
X555650D01*
X555808Y90313D01*
X555949Y90498D01*
X556073Y90698D01*
X556181Y90913D01*
X556273Y91143D01*
X556347Y91388D01*
X556405Y91648D01*
X556447Y91923D01*
X556456Y92030D01*
X556406Y92656D01*
X556349Y93036D01*
X556275Y93396D01*
X556185Y93735D01*
X556078Y94053D01*
X555955Y94351D01*
X555815Y94628D01*
X555659Y94884D01*
X559841D01*
X559685Y94628D01*
D02*
G37*
G36*
X559030Y85858D02*
X559850D01*
X559692Y85687D01*
X559551Y85502D01*
X559427Y85302D01*
X559319Y85087D01*
X559227Y84857D01*
X559191Y84736D01*
X559223Y84614D01*
X559338Y84332D01*
X559477Y84100D01*
X559642Y83920D01*
X559833Y83792D01*
X560049Y83715D01*
X560290Y83689D01*
X559026D01*
X559020Y83482D01*
X556480D01*
X556474Y83689D01*
X555210D01*
X555451Y83715D01*
X555667Y83792D01*
X555858Y83920D01*
X556023Y84100D01*
X556162Y84332D01*
X556277Y84614D01*
X556309Y84736D01*
X556273Y84857D01*
X556181Y85087D01*
X556073Y85302D01*
X555949Y85502D01*
X555808Y85687D01*
X555650Y85858D01*
X556470D01*
X556480Y86259D01*
X559020D01*
X559030Y85858D01*
D02*
G37*
G36*
X617008Y81929D02*
X617030Y81669D01*
X617067Y81439D01*
X617120Y81240D01*
X617188Y81072D01*
X617270Y80934D01*
X617368Y80827D01*
X617480Y80750D01*
X617608Y80704D01*
X617750Y80689D01*
X614750D01*
X614893Y80704D01*
X615020Y80750D01*
X615133Y80827D01*
X615230Y80934D01*
X615313Y81072D01*
X615380Y81240D01*
X615433Y81439D01*
X615470Y81669D01*
X615493Y81929D01*
X615500Y82219D01*
X617000D01*
X617008Y81929D01*
D02*
G37*
G36*
X610508D02*
X610530Y81669D01*
X610568Y81439D01*
X610620Y81240D01*
X610687Y81072D01*
X610770Y80934D01*
X610868Y80827D01*
X610980Y80750D01*
X611107Y80704D01*
X611250Y80689D01*
X608250D01*
X608392Y80704D01*
X608520Y80750D01*
X608633Y80827D01*
X608730Y80934D01*
X608812Y81072D01*
X608880Y81240D01*
X608932Y81439D01*
X608970Y81669D01*
X608993Y81929D01*
X609000Y82219D01*
X610500D01*
X610508Y81929D01*
D02*
G37*
G36*
X584514Y74456D02*
X584554Y74206D01*
X584622Y73954D01*
X584716Y73700D01*
X584837Y73445D01*
X584986Y73187D01*
X585162Y72929D01*
X585364Y72668D01*
X585593Y72406D01*
X585850Y72142D01*
X581650D01*
X581907Y72406D01*
X582338Y72929D01*
X582514Y73187D01*
X582663Y73445D01*
X582784Y73700D01*
X582878Y73954D01*
X582946Y74206D01*
X582986Y74456D01*
X583000Y74705D01*
X584500D01*
X584514Y74456D01*
D02*
G37*
G36*
X617358Y67265D02*
X617230Y67221D01*
X617118Y67146D01*
X617020Y67041D01*
X616938Y66905D01*
X616870Y66740D01*
X616818Y66546D01*
X616780Y66321D01*
X616758Y66066D01*
X616750Y65781D01*
X615250D01*
X615243Y66066D01*
X615220Y66321D01*
X615183Y66546D01*
X615130Y66740D01*
X615063Y66905D01*
X614980Y67041D01*
X614883Y67146D01*
X614770Y67221D01*
X614643Y67265D01*
X614500Y67281D01*
X617500D01*
X617358Y67265D01*
D02*
G37*
G36*
X609858D02*
X609730Y67221D01*
X609618Y67146D01*
X609520Y67041D01*
X609438Y66905D01*
X609370Y66740D01*
X609318Y66546D01*
X609280Y66321D01*
X609258Y66066D01*
X609250Y65781D01*
X607750D01*
X607743Y66066D01*
X607720Y66321D01*
X607683Y66546D01*
X607630Y66740D01*
X607563Y66905D01*
X607480Y67041D01*
X607383Y67146D01*
X607270Y67221D01*
X607143Y67265D01*
X607000Y67281D01*
X610000D01*
X609858Y67265D01*
D02*
G37*
G36*
X616764Y64456D02*
X616804Y64206D01*
X616872Y63954D01*
X616966Y63700D01*
X617088Y63445D01*
X617236Y63187D01*
X617412Y62929D01*
X617614Y62668D01*
X617844Y62406D01*
X618100Y62142D01*
X613900D01*
X614157Y62406D01*
X614589Y62929D01*
X614764Y63187D01*
X614913Y63445D01*
X615034Y63700D01*
X615129Y63954D01*
X615196Y64206D01*
X615237Y64456D01*
X615250Y64705D01*
X616750D01*
X616764Y64456D01*
D02*
G37*
G36*
X609264D02*
X609304Y64206D01*
X609372Y63954D01*
X609466Y63700D01*
X609588Y63445D01*
X609736Y63187D01*
X609912Y62929D01*
X610114Y62668D01*
X610344Y62406D01*
X610600Y62142D01*
X606400D01*
X606657Y62406D01*
X607089Y62929D01*
X607264Y63187D01*
X607413Y63445D01*
X607534Y63700D01*
X607629Y63954D01*
X607696Y64206D01*
X607737Y64456D01*
X607750Y64705D01*
X609250D01*
X609264Y64456D01*
D02*
G37*
G36*
X578014D02*
X578054Y64206D01*
X578122Y63954D01*
X578216Y63700D01*
X578338Y63445D01*
X578486Y63187D01*
X578662Y62929D01*
X578864Y62668D01*
X579094Y62406D01*
X579350Y62142D01*
X575150D01*
X575406Y62406D01*
X575839Y62929D01*
X576014Y63187D01*
X576163Y63445D01*
X576284Y63700D01*
X576379Y63954D01*
X576446Y64206D01*
X576487Y64456D01*
X576500Y64705D01*
X578000D01*
X578014Y64456D01*
D02*
G37*
G36*
X723028Y65672D02*
X723089Y65326D01*
X723190Y65021D01*
X723333Y64757D01*
X723515Y64534D01*
X723739Y64351D01*
X724003Y64208D01*
X724308Y64107D01*
X724653Y64046D01*
X725039Y64026D01*
Y61994D01*
X724653Y61973D01*
X724308Y61912D01*
X724003Y61811D01*
X723739Y61669D01*
X723515Y61486D01*
X723333Y61262D01*
X723190Y60998D01*
X723089Y60693D01*
X723028Y60348D01*
X723007Y59962D01*
X720975D01*
X720955Y60348D01*
X720894Y60693D01*
X720792Y60998D01*
X720650Y61262D01*
X720467Y61486D01*
X720244Y61669D01*
X719980Y61811D01*
X719675Y61912D01*
X719329Y61973D01*
X718943Y61994D01*
Y64026D01*
X719329Y64046D01*
X719675Y64107D01*
X719980Y64208D01*
X720244Y64351D01*
X720467Y64534D01*
X720650Y64757D01*
X720792Y65021D01*
X720894Y65326D01*
X720955Y65672D01*
X720975Y66058D01*
X723007D01*
X723028Y65672D01*
D02*
G37*
G36*
X489313Y57642D02*
X489498Y57501D01*
X489698Y57376D01*
X489913Y57269D01*
X490143Y57177D01*
X490388Y57102D01*
X490648Y57044D01*
X490923Y57003D01*
X491213Y56978D01*
X491518Y56970D01*
Y54430D01*
X491213Y54421D01*
X490923Y54397D01*
X490648Y54355D01*
X490388Y54297D01*
X490143Y54222D01*
X489913Y54131D01*
X489698Y54023D01*
X489498Y53899D01*
X489313Y53757D01*
X489142Y53600D01*
Y57800D01*
X489313Y57642D01*
D02*
G37*
G36*
X590759Y54406D02*
X590799Y54156D01*
X590867Y53904D01*
X590961Y53650D01*
X591083Y53395D01*
X591231Y53137D01*
X591407Y52879D01*
X591609Y52618D01*
X591839Y52356D01*
X592095Y52092D01*
X587895D01*
X588152Y52356D01*
X588584Y52879D01*
X588759Y53137D01*
X588908Y53395D01*
X589029Y53650D01*
X589124Y53904D01*
X589191Y54156D01*
X589232Y54406D01*
X589245Y54655D01*
X590745D01*
X590759Y54406D01*
D02*
G37*
G36*
X555762Y51678D02*
X556598Y50942D01*
X556674Y50897D01*
X556733Y50873D01*
X556774Y50872D01*
X554770Y48868D01*
X554769Y48909D01*
X554746Y48968D01*
X554700Y49044D01*
X554632Y49139D01*
X554543Y49251D01*
X554142Y49696D01*
X553764Y50082D01*
X555560Y51878D01*
X555762Y51678D01*
D02*
G37*
G36*
X807410Y588000D02*
Y22000D01*
X763000Y22000D01*
Y22000D01*
X525006Y22000D01*
X525006Y47646D01*
X552615D01*
X552932Y46049D01*
X554037Y44395D01*
X555691Y43290D01*
X557642Y42902D01*
X559593Y43290D01*
X561247Y44395D01*
X562352Y46049D01*
X562740Y48000D01*
X562595Y48730D01*
X563637Y50000D01*
X584856Y50000D01*
X584897Y49950D01*
X585285Y47999D01*
X586390Y46345D01*
X588044Y45240D01*
X589995Y44852D01*
X591946Y45240D01*
X593600Y46345D01*
X594705Y47999D01*
X595093Y49950D01*
X595134Y50000D01*
X599109D01*
X606274Y43000D01*
X729000Y43000D01*
X751098Y43000D01*
X751511Y42461D01*
X753705Y40778D01*
X756259Y39720D01*
X759000Y39359D01*
X761741Y39720D01*
X764295Y40778D01*
X766489Y42461D01*
X766902Y43000D01*
X768172Y44655D01*
X769230Y47209D01*
X769591Y49950D01*
X769230Y52691D01*
X768172Y55245D01*
X766489Y57439D01*
X764295Y59122D01*
X763000Y59658D01*
Y110342D01*
X764295Y110878D01*
X766489Y112561D01*
X768172Y114755D01*
X769230Y117309D01*
X769591Y120050D01*
X769230Y122791D01*
X768172Y125345D01*
X766489Y127539D01*
X764295Y129222D01*
X763000Y129758D01*
Y160242D01*
X764295Y160778D01*
X766489Y162461D01*
X768172Y164655D01*
X769230Y167209D01*
X769591Y169950D01*
X769230Y172691D01*
X768172Y175245D01*
X766489Y177439D01*
X764295Y179122D01*
X763000Y179658D01*
Y230342D01*
X764295Y230878D01*
X766489Y232561D01*
X768172Y234755D01*
X769230Y237309D01*
X769591Y240050D01*
X769230Y242791D01*
X768172Y245345D01*
X766489Y247539D01*
X764295Y249222D01*
X763000Y249758D01*
Y260242D01*
X764295Y260778D01*
X766489Y262461D01*
X768172Y264655D01*
X769230Y267209D01*
X769591Y269950D01*
X769230Y272691D01*
X768172Y275245D01*
X766489Y277439D01*
X764295Y279122D01*
X763000Y279658D01*
Y330342D01*
X764295Y330878D01*
X766489Y332561D01*
X768172Y334755D01*
X769230Y337309D01*
X769591Y340050D01*
X769230Y342791D01*
X768172Y345345D01*
X766489Y347539D01*
X764295Y349222D01*
X763000Y349758D01*
X763000Y580000D01*
X678000D01*
Y577000D01*
X670000Y569000D01*
Y530000D01*
X677000Y523000D01*
Y463000D01*
X640000D01*
Y580000D01*
X582892D01*
X582400Y580098D01*
X581908Y580000D01*
X70000Y580000D01*
Y588000D01*
X807410D01*
Y588000D01*
D02*
G37*
G36*
X76202Y27653D02*
X76263Y27308D01*
X76365Y27003D01*
X76507Y26739D01*
X76690Y26515D01*
X76914Y26332D01*
X77178Y26190D01*
X77483Y26089D01*
X77828Y26028D01*
X78214Y26007D01*
Y23975D01*
X77828Y23955D01*
X77483Y23894D01*
X77178Y23793D01*
X76914Y23650D01*
X76690Y23467D01*
X76507Y23244D01*
X76365Y22980D01*
X76263Y22675D01*
X76202Y22329D01*
X76182Y21943D01*
X74150D01*
X74130Y22329D01*
X74069Y22675D01*
X73967Y22980D01*
X73825Y23244D01*
X73642Y23467D01*
X73418Y23650D01*
X73154Y23793D01*
X72850Y23894D01*
X72504Y23955D01*
X72118Y23975D01*
Y26007D01*
X72504Y26028D01*
X72850Y26089D01*
X73154Y26190D01*
X73418Y26332D01*
X73642Y26515D01*
X73825Y26739D01*
X73967Y27003D01*
X74069Y27308D01*
X74130Y27653D01*
X74150Y28039D01*
X76182D01*
X76202Y27653D01*
D02*
G37*
%LPC*%
G36*
X21000Y578648D02*
X15770D01*
Y571270D01*
X26649D01*
Y573000D01*
X26219Y575162D01*
X24994Y576994D01*
X23162Y578218D01*
X21000Y578648D01*
D02*
G37*
G36*
X26649Y568730D02*
X24000D01*
Y562342D01*
X24994Y563006D01*
X26219Y564838D01*
X26649Y567000D01*
Y568730D01*
D02*
G37*
G36*
X42770Y569707D02*
Y561270D01*
X51207D01*
X51038Y562556D01*
X50052Y564937D01*
X48482Y566982D01*
X46437Y568551D01*
X44056Y569538D01*
X42770Y569707D01*
D02*
G37*
G36*
X40230D02*
X38944Y569538D01*
X36563Y568551D01*
X34518Y566982D01*
X32949Y564937D01*
X31962Y562556D01*
X31793Y561270D01*
X40230D01*
Y569707D01*
D02*
G37*
G36*
X180072Y565847D02*
X178121Y565459D01*
X176467Y564354D01*
X176365Y564201D01*
X176324Y564180D01*
X176255Y564153D01*
X176164Y564125D01*
X176049Y564100D01*
X175941Y564083D01*
X144749D01*
X143473Y563829D01*
X142392Y563107D01*
X105564Y526279D01*
X105476Y526214D01*
X105377Y526151D01*
X105293Y526106D01*
X105224Y526077D01*
X105180Y526062D01*
X105000Y526098D01*
X103049Y525710D01*
X101395Y524605D01*
X100290Y522951D01*
X99902Y521000D01*
X100290Y519049D01*
X101395Y517395D01*
X103049Y516290D01*
X105000Y515902D01*
X106951Y516290D01*
X108605Y517395D01*
X109710Y519049D01*
X110098Y521000D01*
X110062Y521180D01*
X110077Y521224D01*
X110106Y521293D01*
X110151Y521377D01*
X110214Y521476D01*
X110279Y521564D01*
X146130Y557415D01*
X175941D01*
X176049Y557399D01*
X176164Y557373D01*
X176255Y557346D01*
X176324Y557318D01*
X176365Y557297D01*
X176467Y557144D01*
X178121Y556039D01*
X180072Y555651D01*
X182023Y556039D01*
X183677Y557144D01*
X184782Y558798D01*
X185170Y560749D01*
X184782Y562700D01*
X183677Y564354D01*
X182023Y565459D01*
X180072Y565847D01*
D02*
G37*
G36*
X51207Y558730D02*
X42770D01*
Y550293D01*
X44056Y550462D01*
X46437Y551448D01*
X48482Y553018D01*
X50052Y555063D01*
X51038Y557444D01*
X51207Y558730D01*
D02*
G37*
G36*
X40230D02*
X31793D01*
X31962Y557444D01*
X32949Y555063D01*
X34518Y553018D01*
X36563Y551448D01*
X38944Y550462D01*
X40230Y550293D01*
Y558730D01*
D02*
G37*
G36*
X205000Y575098D02*
X203049Y574710D01*
X201395Y573605D01*
X200290Y571951D01*
X199902Y570000D01*
X200290Y568049D01*
X201395Y566395D01*
X203049Y565290D01*
X205000Y564902D01*
X206951Y565290D01*
X208605Y566395D01*
X208707Y566548D01*
X208748Y566569D01*
X208818Y566596D01*
X208909Y566624D01*
X209023Y566650D01*
X209131Y566666D01*
X218188D01*
X218965Y565488D01*
X218955Y565396D01*
X217395Y564354D01*
X216290Y562700D01*
X215902Y560749D01*
X216290Y558798D01*
X217395Y557144D01*
X217631Y556987D01*
X217657Y556960D01*
X217813Y556782D01*
X217938Y556621D01*
X218035Y556478D01*
X218106Y556355D01*
X218154Y556254D01*
X218184Y556175D01*
X218196Y556128D01*
Y547621D01*
X218184Y547575D01*
X218154Y547495D01*
X218106Y547394D01*
X218035Y547271D01*
X217955Y547154D01*
X217637Y546769D01*
X217631Y546762D01*
X217395Y546605D01*
X216290Y544951D01*
X215902Y543000D01*
X216290Y541049D01*
X217395Y539395D01*
X219049Y538290D01*
X221000Y537902D01*
X222951Y538290D01*
X224605Y539395D01*
X225710Y541049D01*
X226098Y543000D01*
X225710Y544951D01*
X224605Y546605D01*
X224370Y546762D01*
X224343Y546790D01*
X224187Y546967D01*
X224062Y547128D01*
X223965Y547271D01*
X223894Y547394D01*
X223846Y547495D01*
X223816Y547575D01*
X223804Y547621D01*
Y556128D01*
X223816Y556175D01*
X223846Y556254D01*
X223894Y556355D01*
X223965Y556478D01*
X224045Y556595D01*
X224363Y556980D01*
X224370Y556987D01*
X224605Y557144D01*
X225710Y558798D01*
X226098Y560749D01*
X225710Y562700D01*
X224605Y564354D01*
X223045Y565396D01*
X223035Y565488D01*
X223813Y566666D01*
X317726D01*
X331749Y552643D01*
X332831Y551920D01*
X334107Y551666D01*
X349669D01*
X349777Y551650D01*
X349891Y551624D01*
X349982Y551596D01*
X350052Y551569D01*
X350093Y551548D01*
X350195Y551395D01*
X351849Y550290D01*
X353800Y549902D01*
X355751Y550290D01*
X357405Y551395D01*
X358510Y553049D01*
X358898Y555000D01*
X358510Y556951D01*
X357405Y558605D01*
X355751Y559710D01*
X353800Y560098D01*
X351849Y559710D01*
X350195Y558605D01*
X350093Y558452D01*
X350052Y558431D01*
X349982Y558404D01*
X349891Y558376D01*
X349777Y558350D01*
X349669Y558334D01*
X335488D01*
X321464Y572357D01*
X320383Y573080D01*
X319107Y573334D01*
X209131D01*
X209023Y573350D01*
X208909Y573376D01*
X208818Y573404D01*
X208748Y573431D01*
X208707Y573452D01*
X208605Y573605D01*
X206951Y574710D01*
X205000Y575098D01*
D02*
G37*
G36*
X24000Y507658D02*
Y501270D01*
X26649D01*
Y503000D01*
X26219Y505162D01*
X26039Y505430D01*
X24994Y506994D01*
X24000Y507658D01*
D02*
G37*
G36*
X26649Y498730D02*
X15770D01*
Y491351D01*
X21000D01*
X23162Y491781D01*
X24994Y493006D01*
X26219Y494838D01*
X26649Y497000D01*
Y498730D01*
D02*
G37*
G36*
X132500Y503098D02*
X130549Y502710D01*
X128895Y501605D01*
X127790Y499951D01*
X127402Y498000D01*
X127790Y496049D01*
X128478Y495020D01*
X127799Y493750D01*
X122750D01*
Y476250D01*
X142250D01*
Y493750D01*
X137201D01*
X136522Y495020D01*
X137210Y496049D01*
X137598Y498000D01*
X137210Y499951D01*
X136105Y501605D01*
X134451Y502710D01*
X132500Y503098D01*
D02*
G37*
G36*
X91116Y385630D02*
X81670D01*
Y376184D01*
X83217Y376388D01*
X85842Y377475D01*
X88096Y379204D01*
X89825Y381458D01*
X90912Y384083D01*
X91116Y385630D01*
D02*
G37*
G36*
X79130D02*
X69684D01*
X69888Y384083D01*
X70975Y381458D01*
X72705Y379204D01*
X74958Y377475D01*
X77583Y376388D01*
X79130Y376184D01*
Y385630D01*
D02*
G37*
G36*
X105750Y364103D02*
X92250D01*
X90202Y363695D01*
X88465Y362535D01*
X87305Y360798D01*
X86897Y358750D01*
Y352250D01*
X87305Y350201D01*
X88465Y348465D01*
X90202Y347305D01*
X92250Y346897D01*
X105750D01*
X107799Y347305D01*
X109535Y348465D01*
X110695Y350201D01*
X111103Y352250D01*
Y358750D01*
X110695Y360798D01*
X109535Y362535D01*
X107799Y363695D01*
X105750Y364103D01*
D02*
G37*
G36*
X757730Y351018D02*
X756118Y350806D01*
X753432Y349693D01*
X751126Y347924D01*
X749357Y345618D01*
X748244Y342932D01*
X748032Y341320D01*
X757730D01*
Y351018D01*
D02*
G37*
G36*
Y338780D02*
X748032D01*
X748244Y337168D01*
X749357Y334482D01*
X751126Y332176D01*
X753432Y330407D01*
X756118Y329294D01*
X757730Y329082D01*
Y338780D01*
D02*
G37*
G36*
X91750Y340103D02*
X78250D01*
X76202Y339695D01*
X74465Y338535D01*
X73305Y336798D01*
X72897Y334750D01*
Y328250D01*
X73305Y326202D01*
X74465Y324465D01*
X76202Y323305D01*
X78250Y322897D01*
X91750D01*
X93799Y323305D01*
X95535Y324465D01*
X96695Y326202D01*
X97103Y328250D01*
Y334750D01*
X96695Y336798D01*
X95535Y338535D01*
X93799Y339695D01*
X91750Y340103D01*
D02*
G37*
G36*
X266000Y325350D02*
X264724Y325097D01*
X263643Y324374D01*
X260643Y321374D01*
X259920Y320292D01*
X259666Y319016D01*
X259920Y317741D01*
X260643Y316659D01*
X261724Y315936D01*
X263000Y315682D01*
X264276Y315936D01*
X265358Y316659D01*
X268358Y319659D01*
X269080Y320741D01*
X269334Y322016D01*
X269080Y323292D01*
X268358Y324374D01*
X267276Y325097D01*
X266000Y325350D01*
D02*
G37*
G36*
X24250Y317653D02*
X22270D01*
Y306270D01*
X30154D01*
Y311750D01*
X29704Y314009D01*
X28424Y315924D01*
X26509Y317204D01*
X24250Y317653D01*
D02*
G37*
G36*
X19730D02*
X17750D01*
X15491Y317204D01*
X13576Y315924D01*
X12296Y314009D01*
X11847Y311750D01*
Y306270D01*
X19730D01*
Y317653D01*
D02*
G37*
G36*
X313250Y306323D02*
X299750D01*
X298287Y306032D01*
X298138Y305933D01*
X298084Y305923D01*
X296756Y305834D01*
X287500D01*
X286224Y305580D01*
X285387Y305021D01*
X285000Y305098D01*
X283049Y304710D01*
X281395Y303605D01*
X280290Y301951D01*
X279902Y300000D01*
X280290Y298049D01*
X281395Y296395D01*
X283049Y295290D01*
X285000Y294902D01*
X286951Y295290D01*
X286965Y295299D01*
X288138Y294813D01*
X288290Y294049D01*
X289395Y292395D01*
X291049Y291290D01*
X293000Y290902D01*
X294951Y291290D01*
X296605Y292395D01*
X296707Y292548D01*
X296748Y292569D01*
X296818Y292596D01*
X296909Y292624D01*
X297023Y292650D01*
X297122Y292665D01*
X297554Y292641D01*
X298036Y292586D01*
X298138Y292567D01*
X298287Y292468D01*
X299750Y292176D01*
X313250D01*
X314713Y292468D01*
X315954Y293296D01*
X316782Y294537D01*
X317073Y296000D01*
X316782Y297463D01*
X315954Y298703D01*
Y299796D01*
X316782Y301037D01*
X317073Y302500D01*
X316782Y303963D01*
X315954Y305203D01*
X314713Y306032D01*
X313250Y306323D01*
D02*
G37*
G36*
X90650Y318350D02*
X70150D01*
Y297850D01*
X90650D01*
Y318350D01*
D02*
G37*
G36*
X30154Y303730D02*
X22270D01*
Y292346D01*
X24250D01*
X26509Y292796D01*
X28424Y294076D01*
X29704Y295991D01*
X30154Y298250D01*
Y303730D01*
D02*
G37*
G36*
X19730D02*
X11847D01*
Y298250D01*
X12296Y295991D01*
X13576Y294076D01*
X15491Y292796D01*
X17750Y292346D01*
X19730D01*
Y303730D01*
D02*
G37*
G36*
X81670Y293416D02*
Y283970D01*
X91116D01*
X90912Y285517D01*
X89825Y288142D01*
X88096Y290396D01*
X85842Y292125D01*
X83217Y293212D01*
X81670Y293416D01*
D02*
G37*
G36*
X79130Y293416D02*
X77583Y293212D01*
X74958Y292125D01*
X72705Y290396D01*
X70975Y288142D01*
X69888Y285517D01*
X69684Y283970D01*
X79130D01*
Y293416D01*
D02*
G37*
G36*
X91116Y281430D02*
X81670D01*
Y271984D01*
X83217Y272188D01*
X85842Y273275D01*
X88096Y275005D01*
X89825Y277258D01*
X90912Y279883D01*
X91116Y281430D01*
D02*
G37*
G36*
X79130D02*
X69684D01*
X69888Y279883D01*
X70975Y277258D01*
X72705Y275005D01*
X74958Y273275D01*
X77583Y272188D01*
X79130Y271984D01*
Y281430D01*
D02*
G37*
G36*
X757730Y280918D02*
X756118Y280706D01*
X753432Y279593D01*
X751126Y277824D01*
X749357Y275518D01*
X748244Y272832D01*
X748032Y271220D01*
X757730D01*
Y280918D01*
D02*
G37*
G36*
Y268680D02*
X748032D01*
X748244Y267068D01*
X749357Y264382D01*
X751126Y262076D01*
X753432Y260307D01*
X756118Y259194D01*
X757730Y258982D01*
Y268680D01*
D02*
G37*
G36*
X134250Y277103D02*
X127750D01*
X125702Y276695D01*
X123965Y275535D01*
X122805Y273798D01*
X122397Y271750D01*
Y258250D01*
X122805Y256201D01*
X123965Y254465D01*
X125702Y253305D01*
X127750Y252897D01*
X134250D01*
X136299Y253305D01*
X138035Y254465D01*
X139195Y256201D01*
X139603Y258250D01*
Y271750D01*
X139195Y273798D01*
X138035Y275535D01*
X136299Y276695D01*
X134250Y277103D01*
D02*
G37*
G36*
X60750Y268103D02*
X47250D01*
X45202Y267695D01*
X43465Y266535D01*
X42305Y264798D01*
X41897Y262750D01*
Y256250D01*
X42305Y254202D01*
X43465Y252465D01*
X45202Y251305D01*
X47250Y250897D01*
X60750D01*
X62799Y251305D01*
X64535Y252465D01*
X65695Y254202D01*
X66103Y256250D01*
Y262750D01*
X65695Y264798D01*
X64535Y266535D01*
X62799Y267695D01*
X60750Y268103D01*
D02*
G37*
G36*
X80400Y267638D02*
X77724Y267286D01*
X75231Y266253D01*
X73090Y264610D01*
X71447Y262469D01*
X70414Y259976D01*
X70062Y257300D01*
X70414Y254624D01*
X71447Y252131D01*
X73090Y249990D01*
X75231Y248347D01*
X77724Y247314D01*
X80400Y246962D01*
X83076Y247314D01*
X85569Y248347D01*
X87710Y249990D01*
X89353Y252131D01*
X90386Y254624D01*
X90738Y257300D01*
X90386Y259976D01*
X89353Y262469D01*
X87710Y264610D01*
X85569Y266253D01*
X83076Y267286D01*
X80400Y267638D01*
D02*
G37*
G36*
X757730Y251018D02*
X756118Y250806D01*
X753432Y249693D01*
X751126Y247924D01*
X749357Y245618D01*
X748244Y242932D01*
X748032Y241320D01*
X757730D01*
Y251018D01*
D02*
G37*
G36*
X81670Y242616D02*
Y233170D01*
X91116D01*
X90912Y234717D01*
X89825Y237342D01*
X88096Y239596D01*
X85842Y241325D01*
X83217Y242412D01*
X81670Y242616D01*
D02*
G37*
G36*
X79130Y242616D02*
X77583Y242412D01*
X74958Y241325D01*
X72705Y239596D01*
X70975Y237342D01*
X69888Y234717D01*
X69684Y233170D01*
X79130D01*
Y242616D01*
D02*
G37*
G36*
X757730Y238780D02*
X748032D01*
X748244Y237168D01*
X749357Y234482D01*
X751126Y232176D01*
X753432Y230406D01*
X756118Y229294D01*
X757730Y229082D01*
Y238780D01*
D02*
G37*
G36*
X133750Y247613D02*
X106250D01*
X104007Y247166D01*
X102105Y245896D01*
X100834Y243993D01*
X100387Y241750D01*
Y234250D01*
X100834Y232006D01*
X102105Y230105D01*
X104007Y228834D01*
X106250Y228387D01*
X133750D01*
X135993Y228834D01*
X137895Y230105D01*
X139166Y232006D01*
X139613Y234250D01*
Y241750D01*
X139166Y243993D01*
X137895Y245896D01*
X135993Y247166D01*
X133750Y247613D01*
D02*
G37*
G36*
X91116Y230630D02*
X81670D01*
Y221184D01*
X83217Y221388D01*
X85842Y222475D01*
X88096Y224205D01*
X89825Y226458D01*
X90912Y229083D01*
X91116Y230630D01*
D02*
G37*
G36*
X79130D02*
X69684D01*
X69888Y229083D01*
X70975Y226458D01*
X72705Y224205D01*
X74958Y222475D01*
X77583Y221388D01*
X79130Y221184D01*
Y230630D01*
D02*
G37*
G36*
X40000Y236117D02*
X36476Y235653D01*
X33192Y234292D01*
X30372Y232128D01*
X28208Y229308D01*
X26848Y226024D01*
X26384Y222500D01*
X26848Y218976D01*
X28208Y215692D01*
X30372Y212872D01*
X33192Y210708D01*
X36476Y209347D01*
X40000Y208883D01*
X43524Y209347D01*
X46808Y210708D01*
X49628Y212872D01*
X51792Y215692D01*
X53152Y218976D01*
X53616Y222500D01*
X53152Y226024D01*
X51792Y229308D01*
X49628Y232128D01*
X46808Y234292D01*
X43524Y235653D01*
X40000Y236117D01*
D02*
G37*
G36*
X593250Y216250D02*
X574750D01*
Y200750D01*
X580666D01*
Y197867D01*
X580826Y197063D01*
X579049Y196710D01*
X577395Y195605D01*
X577293Y195452D01*
X577252Y195431D01*
X577182Y195404D01*
X577091Y195376D01*
X576977Y195350D01*
X576869Y195334D01*
X574936D01*
X573660Y195080D01*
X572579Y194357D01*
X571282Y193061D01*
X569904Y193479D01*
X569810Y193951D01*
X568705Y195605D01*
X567051Y196710D01*
X565525Y197013D01*
X564987Y198272D01*
X565358Y198642D01*
X566080Y199724D01*
X566284Y200750D01*
X572250D01*
Y216250D01*
X553750D01*
Y200750D01*
X556376D01*
X556862Y199577D01*
X555392Y198107D01*
X554670Y197026D01*
X554416Y195750D01*
Y185040D01*
X554379Y184578D01*
X554340Y184321D01*
X554289Y184072D01*
X554231Y183852D01*
X554167Y183661D01*
X554100Y183499D01*
X554031Y183363D01*
X553918Y183177D01*
X553908Y183149D01*
X553747Y182908D01*
X553660Y182472D01*
X553644Y182430D01*
X553646Y182400D01*
X553417Y181250D01*
Y164750D01*
X553747Y163092D01*
X554686Y161686D01*
X556092Y160746D01*
X557750Y160417D01*
X559408Y160746D01*
X560015Y161152D01*
X561000Y161601D01*
X561985Y161152D01*
X562592Y160746D01*
X564250Y160417D01*
X565908Y160746D01*
X566515Y161152D01*
X567500Y161601D01*
X568485Y161152D01*
X569092Y160746D01*
X570750Y160417D01*
X572408Y160746D01*
X573814Y161686D01*
X574753Y163092D01*
X575083Y164750D01*
Y181250D01*
X574855Y182400D01*
X574856Y182430D01*
X574840Y182472D01*
X574753Y182908D01*
X574592Y183149D01*
X574582Y183177D01*
X574469Y183363D01*
X574400Y183499D01*
X574333Y183661D01*
X574269Y183852D01*
X574211Y184072D01*
X574160Y184321D01*
X574121Y184578D01*
X574084Y185040D01*
Y186433D01*
X576114Y188462D01*
X577395Y188395D01*
X579049Y187290D01*
X580633Y186975D01*
X580416Y185883D01*
Y185040D01*
X580379Y184578D01*
X580340Y184321D01*
X580289Y184072D01*
X580231Y183852D01*
X580167Y183661D01*
X580100Y183499D01*
X580031Y183363D01*
X579918Y183177D01*
X579908Y183149D01*
X579747Y182908D01*
X579660Y182472D01*
X579644Y182430D01*
X579646Y182400D01*
X579417Y181250D01*
Y164750D01*
X579747Y163092D01*
X580686Y161686D01*
X582092Y160746D01*
X583750Y160417D01*
X585408Y160746D01*
X585646Y160905D01*
X586916Y160226D01*
Y159131D01*
X586900Y159023D01*
X586874Y158909D01*
X586846Y158818D01*
X586819Y158748D01*
X586798Y158707D01*
X586645Y158605D01*
X585540Y156951D01*
X585152Y155000D01*
X585540Y153049D01*
X586645Y151395D01*
X588299Y150290D01*
X590250Y149902D01*
X592201Y150290D01*
X593855Y151395D01*
X594960Y153049D01*
X595348Y155000D01*
X594960Y156951D01*
X593855Y158605D01*
X593702Y158707D01*
X593681Y158748D01*
X593654Y158818D01*
X593626Y158909D01*
X593601Y159023D01*
X593584Y159131D01*
Y160226D01*
X594854Y160905D01*
X595092Y160746D01*
X596750Y160417D01*
X598408Y160746D01*
X599814Y161686D01*
X600753Y163092D01*
X601083Y164750D01*
Y181250D01*
X600753Y182908D01*
X599814Y184314D01*
X598408Y185253D01*
X596750Y185583D01*
X595092Y185253D01*
X593686Y184314D01*
X593314D01*
X591908Y185253D01*
X590250Y185583D01*
X589890Y185512D01*
X589264Y186682D01*
X589628Y187045D01*
X590350Y188127D01*
X590604Y189403D01*
Y194597D01*
X590350Y195873D01*
X589627Y196955D01*
X587334Y199248D01*
Y200750D01*
X593250D01*
Y216250D01*
D02*
G37*
G36*
X43750Y205163D02*
X41270D01*
Y186270D01*
X50163D01*
Y198750D01*
X49675Y201204D01*
X48285Y203285D01*
X46204Y204675D01*
X43750Y205163D01*
D02*
G37*
G36*
X38730D02*
X36250D01*
X33796Y204675D01*
X31715Y203285D01*
X30325Y201204D01*
X29837Y198750D01*
Y186270D01*
X38730D01*
Y205163D01*
D02*
G37*
G36*
X219250Y179000D02*
X204750D01*
Y174298D01*
X204620Y174112D01*
X204059Y173832D01*
X203480Y173688D01*
X201951Y174710D01*
X200000Y175098D01*
X198049Y174710D01*
X196395Y173605D01*
X196264Y173408D01*
X196257Y173403D01*
X196209Y173379D01*
X196144Y173353D01*
X196058Y173326D01*
X195947Y173300D01*
X194750Y173764D01*
Y178950D01*
X180250D01*
Y160950D01*
X194750D01*
Y166371D01*
X196009Y166600D01*
X196127Y166574D01*
X196222Y166545D01*
X196296Y166516D01*
X196323Y166504D01*
X196395Y166395D01*
X198049Y165290D01*
X200000Y164902D01*
X201951Y165290D01*
X203480Y166312D01*
X204177Y166139D01*
X204415Y166033D01*
X204524Y165924D01*
X204750Y165637D01*
Y161000D01*
X219250D01*
Y179000D01*
D02*
G37*
G36*
X757730Y180918D02*
X756118Y180706D01*
X753432Y179593D01*
X751126Y177824D01*
X749357Y175518D01*
X748244Y172832D01*
X748032Y171220D01*
X757730D01*
Y180918D01*
D02*
G37*
G36*
X105000Y200073D02*
X102059Y199783D01*
X99232Y198925D01*
X96626Y197532D01*
X94342Y195658D01*
X92468Y193374D01*
X91075Y190768D01*
X90217Y187941D01*
X89927Y185000D01*
X89997Y184291D01*
X89144Y183350D01*
X70150D01*
Y162850D01*
X90650D01*
Y177332D01*
X91920Y177651D01*
X92468Y176626D01*
X94342Y174342D01*
X96626Y172468D01*
X99232Y171075D01*
X102059Y170217D01*
X105000Y169927D01*
X107941Y170217D01*
X110768Y171075D01*
X113374Y172468D01*
X115658Y174342D01*
X117532Y176626D01*
X118925Y179232D01*
X119783Y182059D01*
X120073Y185000D01*
X119783Y187941D01*
X118925Y190768D01*
X117532Y193374D01*
X115658Y195658D01*
X113374Y197532D01*
X110768Y198925D01*
X107941Y199783D01*
X105000Y200073D01*
D02*
G37*
G36*
X619250Y216250D02*
X600750D01*
Y200750D01*
X606691D01*
Y184742D01*
X606676Y184311D01*
X606674Y184296D01*
X605747Y182908D01*
X605417Y181250D01*
Y164750D01*
X605747Y163092D01*
X606662Y161721D01*
X606691Y161361D01*
Y159558D01*
X606672Y159464D01*
X606645Y159372D01*
X606608Y159281D01*
X606562Y159186D01*
X606503Y159087D01*
X606428Y158982D01*
X606360Y158900D01*
X606145Y158757D01*
X605040Y157103D01*
X604652Y155152D01*
X605040Y153201D01*
X606145Y151547D01*
X607799Y150442D01*
X609750Y150054D01*
X611701Y150442D01*
X613355Y151547D01*
X614460Y153201D01*
X614848Y155152D01*
X614460Y157103D01*
X613355Y158757D01*
X613140Y158900D01*
X613072Y158982D01*
X612997Y159087D01*
X612938Y159186D01*
X612892Y159281D01*
X612856Y159372D01*
X612828Y159464D01*
X612809Y159558D01*
Y160410D01*
X614079Y161089D01*
X614592Y160746D01*
X616250Y160417D01*
X617908Y160746D01*
X619314Y161686D01*
X620253Y163092D01*
X620583Y164750D01*
Y168240D01*
X621853Y168919D01*
X622794Y168290D01*
X624745Y167902D01*
X626696Y168290D01*
X628350Y169395D01*
X629455Y171049D01*
X629843Y173000D01*
X629455Y174951D01*
X628350Y176605D01*
X626696Y177710D01*
X624745Y178098D01*
X622794Y177710D01*
X621853Y177081D01*
X620583Y177760D01*
Y181250D01*
X620253Y182908D01*
X619314Y184314D01*
X617908Y185253D01*
X616250Y185583D01*
X614592Y185253D01*
X614079Y184911D01*
X612809Y185589D01*
Y200750D01*
X619250D01*
Y216250D01*
D02*
G37*
G36*
X50163Y183730D02*
X41270D01*
Y164837D01*
X43750D01*
X46204Y165325D01*
X48285Y166715D01*
X49675Y168796D01*
X50163Y171250D01*
Y183730D01*
D02*
G37*
G36*
X38730D02*
X29837D01*
Y171250D01*
X30325Y168796D01*
X31715Y166715D01*
X33796Y165325D01*
X36250Y164837D01*
X38730D01*
Y183730D01*
D02*
G37*
G36*
X757730Y168680D02*
X748032D01*
X748244Y167068D01*
X749357Y164382D01*
X751126Y162076D01*
X753432Y160307D01*
X756118Y159194D01*
X757730Y158982D01*
Y168680D01*
D02*
G37*
G36*
X81670Y158416D02*
Y148970D01*
X91116D01*
X90912Y150517D01*
X89825Y153142D01*
X88096Y155395D01*
X85842Y157125D01*
X83217Y158212D01*
X81670Y158416D01*
D02*
G37*
G36*
X79130Y158416D02*
X77583Y158212D01*
X74958Y157125D01*
X72705Y155395D01*
X70975Y153142D01*
X69888Y150517D01*
X69684Y148970D01*
X79130D01*
Y158416D01*
D02*
G37*
G36*
X91116Y146430D02*
X81670D01*
Y136984D01*
X83217Y137188D01*
X85842Y138275D01*
X88096Y140005D01*
X89825Y142258D01*
X90912Y144883D01*
X91116Y146430D01*
D02*
G37*
G36*
X79130D02*
X69684D01*
X69888Y144883D01*
X70975Y142258D01*
X72705Y140005D01*
X74958Y138275D01*
X77583Y137188D01*
X79130Y136984D01*
Y146430D01*
D02*
G37*
G36*
X40000Y161117D02*
X36476Y160653D01*
X33192Y159292D01*
X30372Y157128D01*
X28208Y154308D01*
X26848Y151024D01*
X26384Y147500D01*
X26848Y143976D01*
X28208Y140692D01*
X30372Y137872D01*
X33192Y135708D01*
X36476Y134347D01*
X40000Y133883D01*
X43524Y134347D01*
X46808Y135708D01*
X49628Y137872D01*
X51792Y140692D01*
X53152Y143976D01*
X53616Y147500D01*
X53152Y151024D01*
X51792Y154308D01*
X49628Y157128D01*
X46808Y159292D01*
X43524Y160653D01*
X40000Y161117D01*
D02*
G37*
G36*
X480000Y165098D02*
X478049Y164710D01*
X476395Y163605D01*
X475290Y161951D01*
X474902Y160000D01*
X475290Y158049D01*
X476395Y156395D01*
X478049Y155290D01*
X480000Y154902D01*
X480180Y154938D01*
X480224Y154923D01*
X480293Y154894D01*
X480377Y154849D01*
X480476Y154786D01*
X480564Y154721D01*
X502643Y132642D01*
X503724Y131920D01*
X505000Y131666D01*
X526619D01*
X530778Y127507D01*
X530292Y126334D01*
X484131D01*
X484023Y126350D01*
X483909Y126376D01*
X483818Y126404D01*
X483748Y126431D01*
X483707Y126452D01*
X483605Y126605D01*
X481951Y127710D01*
X480000Y128098D01*
X478049Y127710D01*
X476395Y126605D01*
X475290Y124951D01*
X474902Y123000D01*
X475290Y121049D01*
X476395Y119395D01*
X478049Y118290D01*
X480000Y117902D01*
X481951Y118290D01*
X483605Y119395D01*
X483707Y119548D01*
X483748Y119569D01*
X483818Y119596D01*
X483909Y119624D01*
X484023Y119649D01*
X484131Y119666D01*
X532619D01*
X534385Y117900D01*
X534300Y117185D01*
X534085Y116960D01*
X533003Y116334D01*
X531750Y116583D01*
X530092Y116253D01*
X528686Y115314D01*
X527747Y113908D01*
X527417Y112250D01*
Y95750D01*
X527646Y94600D01*
X527644Y94571D01*
X527660Y94528D01*
X527747Y94092D01*
X527908Y93851D01*
X527918Y93823D01*
X528031Y93637D01*
X528100Y93501D01*
X528167Y93339D01*
X528231Y93148D01*
X528289Y92928D01*
X528340Y92679D01*
X528379Y92422D01*
X528416Y91960D01*
Y85750D01*
X522750D01*
Y70250D01*
X541250D01*
Y85750D01*
X535084D01*
Y91227D01*
X536354Y91905D01*
X536592Y91747D01*
X538250Y91417D01*
X539908Y91747D01*
X541314Y92686D01*
X541686D01*
X543092Y91747D01*
X544750Y91417D01*
X546408Y91747D01*
X547814Y92686D01*
X548753Y94092D01*
X549083Y95750D01*
Y112250D01*
X548854Y113400D01*
X548856Y113429D01*
X548840Y113472D01*
X548753Y113908D01*
X548592Y114149D01*
X548582Y114177D01*
X548469Y114363D01*
X548400Y114499D01*
X548333Y114661D01*
X548269Y114852D01*
X548211Y115071D01*
X548160Y115321D01*
X548121Y115578D01*
X548084Y116040D01*
Y118671D01*
X547830Y119946D01*
X547108Y121028D01*
X537238Y130898D01*
X536157Y131620D01*
X536080Y131636D01*
X530358Y137358D01*
X529276Y138080D01*
X528000Y138334D01*
X506381D01*
X485279Y159436D01*
X485214Y159524D01*
X485151Y159623D01*
X485106Y159707D01*
X485077Y159776D01*
X485062Y159820D01*
X485098Y160000D01*
X484710Y161951D01*
X483605Y163605D01*
X481951Y164710D01*
X480000Y165098D01*
D02*
G37*
G36*
X757730Y131018D02*
X756118Y130806D01*
X753432Y129693D01*
X751126Y127924D01*
X749357Y125618D01*
X748244Y122932D01*
X748032Y121320D01*
X757730D01*
Y131018D01*
D02*
G37*
G36*
X133750Y137613D02*
X106250D01*
X104007Y137166D01*
X102105Y135896D01*
X100834Y133994D01*
X100387Y131750D01*
Y124250D01*
X100834Y122007D01*
X102105Y120105D01*
X104007Y118834D01*
X106250Y118387D01*
X133750D01*
X135993Y118834D01*
X137895Y120105D01*
X139166Y122007D01*
X139613Y124250D01*
Y131750D01*
X139166Y133994D01*
X137895Y135896D01*
X135993Y137166D01*
X133750Y137613D01*
D02*
G37*
G36*
X80400Y132638D02*
X77724Y132286D01*
X75231Y131253D01*
X73090Y129610D01*
X71447Y127469D01*
X70414Y124976D01*
X70062Y122300D01*
X70414Y119624D01*
X71447Y117131D01*
X73090Y114990D01*
X75231Y113347D01*
X77724Y112314D01*
X80400Y111962D01*
X83076Y112314D01*
X85569Y113347D01*
X87710Y114990D01*
X89353Y117131D01*
X90386Y119624D01*
X90738Y122300D01*
X90386Y124976D01*
X89353Y127469D01*
X87710Y129610D01*
X85569Y131253D01*
X83076Y132286D01*
X80400Y132638D01*
D02*
G37*
G36*
X757730Y118780D02*
X748032D01*
X748244Y117168D01*
X749357Y114482D01*
X751126Y112176D01*
X753432Y110407D01*
X756118Y109294D01*
X757730Y109082D01*
Y118780D01*
D02*
G37*
G36*
X40000Y126117D02*
X36476Y125653D01*
X33192Y124292D01*
X30372Y122128D01*
X28208Y119308D01*
X26848Y116024D01*
X26384Y112500D01*
X26848Y108976D01*
X28208Y105692D01*
X30372Y102872D01*
X33192Y100708D01*
X36476Y99347D01*
X40000Y98883D01*
X43524Y99347D01*
X46808Y100708D01*
X49628Y102872D01*
X51792Y105692D01*
X53152Y108976D01*
X53616Y112500D01*
X53152Y116024D01*
X51792Y119308D01*
X49628Y122128D01*
X46808Y124292D01*
X43524Y125653D01*
X40000Y126117D01*
D02*
G37*
G36*
X81670Y107616D02*
Y98170D01*
X91116D01*
X90912Y99717D01*
X89825Y102342D01*
X88096Y104595D01*
X85842Y106325D01*
X83217Y107412D01*
X81670Y107616D01*
D02*
G37*
G36*
X79130Y107616D02*
X77583Y107412D01*
X74958Y106325D01*
X72705Y104595D01*
X70975Y102342D01*
X69888Y99717D01*
X69684Y98170D01*
X79130D01*
Y107616D01*
D02*
G37*
G36*
X91116Y95630D02*
X81670D01*
Y86184D01*
X83217Y86388D01*
X85842Y87475D01*
X88096Y89205D01*
X89825Y91458D01*
X90912Y94083D01*
X91116Y95630D01*
D02*
G37*
G36*
X79130D02*
X69684D01*
X69888Y94083D01*
X70975Y91458D01*
X72705Y89205D01*
X74958Y87475D01*
X77583Y86388D01*
X79130Y86184D01*
Y95630D01*
D02*
G37*
G36*
X43750Y95163D02*
X41270D01*
Y76270D01*
X50163D01*
Y88750D01*
X49675Y91204D01*
X48285Y93285D01*
X46204Y94675D01*
X43750Y95163D01*
D02*
G37*
G36*
X38730D02*
X36250D01*
X33796Y94675D01*
X31715Y93285D01*
X30325Y91204D01*
X29837Y88750D01*
Y76270D01*
X38730D01*
Y95163D01*
D02*
G37*
G36*
X105000Y90073D02*
X102059Y89783D01*
X99232Y88925D01*
X96626Y87532D01*
X94342Y85658D01*
X92468Y83374D01*
X91075Y80768D01*
X90217Y77941D01*
X89927Y75000D01*
X90217Y72059D01*
X91075Y69232D01*
X92468Y66626D01*
X94342Y64342D01*
X96626Y62468D01*
X99232Y61075D01*
X102059Y60217D01*
X105000Y59927D01*
X107941Y60217D01*
X110768Y61075D01*
X113374Y62468D01*
X115658Y64342D01*
X117532Y66626D01*
X118925Y69232D01*
X119783Y72059D01*
X120073Y75000D01*
X119783Y77941D01*
X118925Y80768D01*
X117532Y83374D01*
X115658Y85658D01*
X113374Y87532D01*
X110768Y88925D01*
X107941Y89783D01*
X105000Y90073D01*
D02*
G37*
G36*
X50163Y73730D02*
X41270D01*
Y54837D01*
X43750D01*
X46204Y55325D01*
X48285Y56715D01*
X49675Y58796D01*
X50163Y61250D01*
Y73730D01*
D02*
G37*
G36*
X38730D02*
X29837D01*
Y61250D01*
X30325Y58796D01*
X31715Y56715D01*
X33796Y55325D01*
X36250Y54837D01*
X38730D01*
Y73730D01*
D02*
G37*
G36*
X219250Y57000D02*
X204750D01*
Y52331D01*
X204568Y52086D01*
X204059Y51831D01*
X203480Y51688D01*
X201951Y52710D01*
X200000Y53098D01*
X198049Y52710D01*
X196395Y51605D01*
X196293Y51452D01*
X196252Y51431D01*
X196182Y51404D01*
X196091Y51376D01*
X195977Y51350D01*
X194750Y51698D01*
Y57000D01*
X180250D01*
Y39000D01*
X194750D01*
Y44302D01*
X195977Y44650D01*
X196091Y44624D01*
X196182Y44596D01*
X196252Y44568D01*
X196293Y44548D01*
X196395Y44395D01*
X198049Y43290D01*
X200000Y42902D01*
X201951Y43290D01*
X203480Y44312D01*
X204059Y44168D01*
X204568Y43914D01*
X204750Y43669D01*
Y39000D01*
X219250D01*
Y57000D01*
D02*
G37*
G36*
X757730Y60918D02*
X756118Y60706D01*
X753432Y59593D01*
X751126Y57824D01*
X749357Y55518D01*
X748244Y52832D01*
X748032Y51220D01*
X757730D01*
Y60918D01*
D02*
G37*
G36*
X238250Y179000D02*
X223750D01*
Y161000D01*
X227666D01*
Y149131D01*
X227650Y149023D01*
X227624Y148909D01*
X227596Y148818D01*
X227569Y148748D01*
X227548Y148707D01*
X227395Y148605D01*
X226290Y146951D01*
X225902Y145000D01*
X226290Y143049D01*
X227395Y141395D01*
X227548Y141293D01*
X227569Y141252D01*
X227596Y141182D01*
X227624Y141091D01*
X227650Y140977D01*
X227666Y140869D01*
Y57000D01*
X223750D01*
Y39000D01*
X238250D01*
Y42666D01*
X302000D01*
X303276Y42920D01*
X304358Y43642D01*
X361358Y100642D01*
X362080Y101724D01*
X362334Y103000D01*
Y125750D01*
X366750D01*
Y144250D01*
X351250D01*
Y125750D01*
X355666D01*
Y104381D01*
X300619Y49334D01*
X238250D01*
Y57000D01*
X234334D01*
Y140869D01*
X234350Y140977D01*
X234376Y141091D01*
X234404Y141182D01*
X234431Y141252D01*
X234452Y141293D01*
X234605Y141395D01*
X235710Y143049D01*
X236098Y145000D01*
X235710Y146951D01*
X234605Y148605D01*
X234452Y148707D01*
X234431Y148748D01*
X234404Y148818D01*
X234376Y148909D01*
X234350Y149023D01*
X234334Y149131D01*
Y161000D01*
X238250D01*
Y179000D01*
D02*
G37*
G36*
X40000Y51116D02*
X36476Y50652D01*
X33192Y49292D01*
X30372Y47128D01*
X28208Y44308D01*
X26848Y41024D01*
X26384Y37500D01*
X26848Y33976D01*
X28208Y30692D01*
X30372Y27872D01*
X33192Y25708D01*
X36476Y24348D01*
X40000Y23884D01*
X43524Y24348D01*
X46808Y25708D01*
X49628Y27872D01*
X51792Y30692D01*
X53152Y33976D01*
X53616Y37500D01*
X53152Y41024D01*
X51792Y44308D01*
X49628Y47128D01*
X46808Y49292D01*
X43524Y50652D01*
X40000Y51116D01*
D02*
G37*
%LPD*%
G36*
X177930Y558649D02*
X177759Y558807D01*
X177574Y558948D01*
X177374Y559072D01*
X177159Y559180D01*
X176929Y559272D01*
X176684Y559346D01*
X176424Y559404D01*
X176149Y559446D01*
X175859Y559471D01*
X175554Y559479D01*
Y562019D01*
X175859Y562028D01*
X176149Y562052D01*
X176424Y562094D01*
X176684Y562152D01*
X176929Y562227D01*
X177159Y562318D01*
X177374Y562426D01*
X177574Y562550D01*
X177759Y562691D01*
X177930Y562849D01*
Y558649D01*
D02*
G37*
G36*
X109093Y523297D02*
X108883Y523075D01*
X108696Y522853D01*
X108531Y522629D01*
X108388Y522404D01*
X108267Y522178D01*
X108169Y521950D01*
X108093Y521722D01*
X108040Y521493D01*
X108009Y521262D01*
X108000Y521030D01*
X105030Y524000D01*
X105262Y524009D01*
X105493Y524040D01*
X105722Y524093D01*
X105950Y524169D01*
X106178Y524267D01*
X106404Y524388D01*
X106629Y524530D01*
X106853Y524696D01*
X107075Y524883D01*
X107297Y525093D01*
X109093Y523297D01*
D02*
G37*
G36*
X207313Y571942D02*
X207498Y571801D01*
X207698Y571677D01*
X207913Y571569D01*
X208143Y571478D01*
X208388Y571403D01*
X208648Y571345D01*
X208923Y571303D01*
X209213Y571278D01*
X209518Y571270D01*
Y568730D01*
X209213Y568722D01*
X208923Y568697D01*
X208648Y568655D01*
X208388Y568597D01*
X208143Y568522D01*
X207913Y568431D01*
X207698Y568323D01*
X207498Y568199D01*
X207313Y568058D01*
X207142Y567900D01*
Y572100D01*
X207313Y571942D01*
D02*
G37*
G36*
X222843Y558343D02*
X222411Y557820D01*
X222236Y557562D01*
X222087Y557304D01*
X221966Y557049D01*
X221871Y556795D01*
X221804Y556543D01*
X221763Y556293D01*
X221750Y556044D01*
X220250D01*
X220236Y556293D01*
X220196Y556543D01*
X220128Y556795D01*
X220034Y557049D01*
X219912Y557304D01*
X219764Y557562D01*
X219589Y557820D01*
X219386Y558081D01*
X219156Y558343D01*
X218900Y558607D01*
X223100D01*
X222843Y558343D01*
D02*
G37*
G36*
X351658Y552900D02*
X351487Y553058D01*
X351302Y553199D01*
X351102Y553323D01*
X350887Y553431D01*
X350657Y553522D01*
X350412Y553597D01*
X350152Y553655D01*
X349877Y553697D01*
X349587Y553722D01*
X349282Y553730D01*
Y556270D01*
X349587Y556278D01*
X349877Y556303D01*
X350152Y556345D01*
X350412Y556403D01*
X350657Y556478D01*
X350887Y556569D01*
X351102Y556677D01*
X351302Y556801D01*
X351487Y556942D01*
X351658Y557100D01*
Y552900D01*
D02*
G37*
G36*
X221763Y547456D02*
X221804Y547206D01*
X221871Y546954D01*
X221966Y546700D01*
X222087Y546445D01*
X222236Y546188D01*
X222411Y545929D01*
X222614Y545668D01*
X222843Y545406D01*
X223100Y545142D01*
X218900D01*
X219156Y545406D01*
X219589Y545929D01*
X219764Y546188D01*
X219912Y546445D01*
X220034Y546700D01*
X220128Y546954D01*
X220196Y547206D01*
X220236Y547456D01*
X220250Y547705D01*
X221750D01*
X221763Y547456D01*
D02*
G37*
G36*
X134442Y495687D02*
X134301Y495502D01*
X134177Y495302D01*
X134069Y495087D01*
X133977Y494857D01*
X133903Y494612D01*
X133845Y494352D01*
X133803Y494077D01*
X133781Y493823D01*
X133783Y493771D01*
X133821Y493334D01*
X133884Y492949D01*
X133973Y492614D01*
X134087Y492332D01*
X134227Y492100D01*
X134392Y491920D01*
X134583Y491792D01*
X134799Y491715D01*
X135040Y491689D01*
X129960D01*
X130201Y491715D01*
X130417Y491792D01*
X130608Y491920D01*
X130773Y492100D01*
X130913Y492332D01*
X131027Y492614D01*
X131116Y492949D01*
X131179Y493334D01*
X131217Y493771D01*
X131219Y493823D01*
X131197Y494077D01*
X131155Y494352D01*
X131097Y494612D01*
X131023Y494857D01*
X130931Y495087D01*
X130823Y495302D01*
X130699Y495502D01*
X130558Y495687D01*
X130400Y495858D01*
X134600D01*
X134442Y495687D01*
D02*
G37*
G36*
X299079Y300880D02*
X298954Y300947D01*
X298789Y301006D01*
X298584Y301059D01*
X298338Y301104D01*
X297725Y301174D01*
X296951Y301216D01*
X296016Y301230D01*
Y303770D01*
X296504Y303773D01*
X298338Y303896D01*
X298584Y303941D01*
X298789Y303994D01*
X298954Y304053D01*
X299079Y304120D01*
Y300880D01*
D02*
G37*
G36*
X295313Y297942D02*
X295498Y297801D01*
X295698Y297677D01*
X295913Y297569D01*
X296143Y297477D01*
X296388Y297403D01*
X296648Y297345D01*
X296923Y297303D01*
X296934Y297302D01*
X298338Y297396D01*
X298584Y297441D01*
X298789Y297494D01*
X298954Y297553D01*
X299079Y297620D01*
Y294380D01*
X298954Y294447D01*
X298789Y294506D01*
X298584Y294559D01*
X298338Y294604D01*
X297725Y294674D01*
X297071Y294709D01*
X296923Y294697D01*
X296648Y294655D01*
X296388Y294597D01*
X296143Y294522D01*
X295913Y294431D01*
X295698Y294323D01*
X295498Y294199D01*
X295313Y294058D01*
X295142Y293900D01*
Y298100D01*
X295313Y297942D01*
D02*
G37*
G36*
X563100Y207234D02*
X563034Y207227D01*
X562971Y207215D01*
X562909Y207199D01*
X562850Y207179D01*
X562792Y207155D01*
X562736Y207126D01*
X562682Y207093D01*
X562629Y207056D01*
X562579Y207015D01*
X562530Y206970D01*
X561470Y208030D01*
X561515Y208079D01*
X561557Y208129D01*
X561594Y208181D01*
X561626Y208236D01*
X561655Y208292D01*
X561679Y208349D01*
X561699Y208409D01*
X561715Y208471D01*
X561727Y208534D01*
X561734Y208600D01*
X563100Y207234D01*
D02*
G37*
G36*
X564683Y202793D02*
X564597Y202738D01*
X564520Y202648D01*
X564454Y202521D01*
X564398Y202358D01*
X564352Y202159D01*
X564316Y201924D01*
X564291Y201652D01*
X564270Y201000D01*
X561730D01*
X561725Y201344D01*
X561684Y201924D01*
X561648Y202159D01*
X561602Y202358D01*
X561546Y202521D01*
X561480Y202648D01*
X561403Y202738D01*
X561317Y202793D01*
X561220Y202811D01*
X564781D01*
X564683Y202793D01*
D02*
G37*
G36*
X586299Y202785D02*
X586083Y202708D01*
X585892Y202580D01*
X585727Y202400D01*
X585588Y202168D01*
X585473Y201886D01*
X585384Y201551D01*
X585321Y201166D01*
X585283Y200729D01*
X585270Y200240D01*
X582730D01*
X582717Y200729D01*
X582679Y201166D01*
X582616Y201551D01*
X582527Y201886D01*
X582413Y202168D01*
X582273Y202400D01*
X582108Y202580D01*
X581917Y202708D01*
X581701Y202785D01*
X581460Y202811D01*
X586540D01*
X586299Y202785D01*
D02*
G37*
G36*
X578858Y189900D02*
X578687Y190058D01*
X578502Y190199D01*
X578302Y190323D01*
X578087Y190431D01*
X577857Y190522D01*
X577612Y190597D01*
X577352Y190655D01*
X577077Y190697D01*
X576787Y190722D01*
X576482Y190730D01*
Y193270D01*
X576787Y193278D01*
X577077Y193303D01*
X577352Y193345D01*
X577612Y193403D01*
X577857Y193477D01*
X578087Y193569D01*
X578302Y193677D01*
X578502Y193801D01*
X578687Y193942D01*
X578858Y194100D01*
Y189900D01*
D02*
G37*
G36*
X566507Y189350D02*
X566320Y189235D01*
X566152Y189098D01*
X566004Y188939D01*
X565875Y188759D01*
X565767Y188558D01*
X565678Y188335D01*
X565609Y188091D01*
X565560Y187825D01*
X565530Y187538D01*
X565520Y187229D01*
X562980Y188077D01*
X562975Y188383D01*
X562935Y188956D01*
X562900Y189222D01*
X562800Y189715D01*
X562735Y189941D01*
X562659Y190154D01*
X562574Y190354D01*
X562479Y190540D01*
X566507Y189350D01*
D02*
G37*
G36*
X585028Y185168D02*
X585094Y184344D01*
X585151Y183964D01*
X585225Y183604D01*
X585316Y183265D01*
X585422Y182946D01*
X585545Y182649D01*
X585685Y182372D01*
X585841Y182116D01*
X581659D01*
X581815Y182372D01*
X581955Y182649D01*
X582078Y182946D01*
X582185Y183265D01*
X582275Y183604D01*
X582349Y183964D01*
X582406Y184344D01*
X582472Y185168D01*
X582480Y185611D01*
X585020D01*
X585028Y185168D01*
D02*
G37*
G36*
X572028D02*
X572094Y184344D01*
X572151Y183964D01*
X572225Y183604D01*
X572315Y183265D01*
X572422Y182946D01*
X572545Y182649D01*
X572685Y182372D01*
X572841Y182116D01*
X568659D01*
X568815Y182372D01*
X568955Y182649D01*
X569078Y182946D01*
X569185Y183265D01*
X569275Y183604D01*
X569349Y183964D01*
X569406Y184344D01*
X569472Y185168D01*
X569480Y185611D01*
X572020D01*
X572028Y185168D01*
D02*
G37*
G36*
X565528D02*
X565594Y184344D01*
X565651Y183964D01*
X565725Y183604D01*
X565816Y183265D01*
X565922Y182946D01*
X566045Y182649D01*
X566185Y182372D01*
X566341Y182116D01*
X562159D01*
X562315Y182372D01*
X562455Y182649D01*
X562578Y182946D01*
X562685Y183265D01*
X562775Y183604D01*
X562849Y183964D01*
X562906Y184344D01*
X562972Y185168D01*
X562980Y185611D01*
X565520D01*
X565528Y185168D01*
D02*
G37*
G36*
X559028D02*
X559094Y184344D01*
X559151Y183964D01*
X559225Y183604D01*
X559315Y183265D01*
X559422Y182946D01*
X559545Y182649D01*
X559685Y182372D01*
X559841Y182116D01*
X555659D01*
X555815Y182372D01*
X555955Y182649D01*
X556078Y182946D01*
X556185Y183265D01*
X556275Y183604D01*
X556349Y183964D01*
X556406Y184344D01*
X556472Y185168D01*
X556480Y185611D01*
X559020D01*
X559028Y185168D01*
D02*
G37*
G36*
X592185Y163628D02*
X592045Y163351D01*
X591922Y163053D01*
X591815Y162735D01*
X591725Y162396D01*
X591651Y162036D01*
X591594Y161656D01*
X591528Y160832D01*
X591520Y160389D01*
X588980D01*
X588972Y160832D01*
X588906Y161656D01*
X588849Y162036D01*
X588775Y162396D01*
X588685Y162735D01*
X588578Y163053D01*
X588455Y163351D01*
X588315Y163628D01*
X588159Y163884D01*
X592341D01*
X592185Y163628D01*
D02*
G37*
G36*
X591528Y159213D02*
X591553Y158923D01*
X591595Y158648D01*
X591653Y158388D01*
X591727Y158143D01*
X591819Y157913D01*
X591927Y157698D01*
X592051Y157498D01*
X592192Y157313D01*
X592350Y157142D01*
X588150D01*
X588308Y157313D01*
X588449Y157498D01*
X588573Y157698D01*
X588681Y157913D01*
X588773Y158143D01*
X588847Y158388D01*
X588905Y158648D01*
X588947Y158923D01*
X588972Y159213D01*
X588980Y159518D01*
X591520D01*
X591528Y159213D01*
D02*
G37*
G36*
X206811Y167410D02*
X206785Y167651D01*
X206708Y167867D01*
X206580Y168058D01*
X206400Y168223D01*
X206168Y168363D01*
X205886Y168477D01*
X205551Y168566D01*
X205166Y168629D01*
X204729Y168667D01*
X204369Y168677D01*
X204189Y168672D01*
X203899Y168647D01*
X203624Y168607D01*
X203363Y168549D01*
X203117Y168476D01*
X202886Y168386D01*
X202669Y168280D01*
X202467Y168158D01*
X202280Y168020D01*
X202107Y167865D01*
X200000Y169930D01*
X197893Y167865D01*
X197720Y168020D01*
X197533Y168158D01*
X197331Y168280D01*
X197114Y168386D01*
X196883Y168476D01*
X196637Y168549D01*
X196376Y168607D01*
X196101Y168647D01*
X195811Y168672D01*
X195506Y168680D01*
X195459Y171220D01*
X195764Y171228D01*
X196054Y171254D01*
X196329Y171296D01*
X196588Y171355D01*
X196832Y171431D01*
X197061Y171524D01*
X197274Y171633D01*
X197472Y171760D01*
X197655Y171904D01*
X197823Y172064D01*
X200000Y169930D01*
X202177Y172064D01*
X202345Y171904D01*
X202528Y171760D01*
X202726Y171633D01*
X202939Y171524D01*
X203168Y171431D01*
X203412Y171355D01*
X203671Y171296D01*
X203946Y171254D01*
X204236Y171228D01*
X204395Y171224D01*
X204729Y171233D01*
X205166Y171271D01*
X205551Y171334D01*
X205886Y171423D01*
X206168Y171537D01*
X206400Y171677D01*
X206580Y171842D01*
X206708Y172033D01*
X206785Y172249D01*
X206811Y172490D01*
Y167410D01*
D02*
G37*
G36*
X192715Y172249D02*
X192792Y172033D01*
X192920Y171842D01*
X193100Y171677D01*
X193332Y171537D01*
X193615Y171423D01*
X193949Y171334D01*
X194334Y171271D01*
X194771Y171233D01*
X195260Y171220D01*
Y168680D01*
X194771Y168667D01*
X194334Y168629D01*
X193949Y168566D01*
X193615Y168477D01*
X193332Y168363D01*
X193100Y168223D01*
X192920Y168058D01*
X192792Y167867D01*
X192715Y167651D01*
X192689Y167410D01*
Y172490D01*
X192715Y172249D01*
D02*
G37*
G36*
X611560Y202791D02*
X611390Y202730D01*
X611240Y202628D01*
X611110Y202486D01*
X611000Y202303D01*
X610910Y202080D01*
X610840Y201816D01*
X610790Y201511D01*
X610760Y201166D01*
X610750Y200780D01*
X608750D01*
X608740Y201166D01*
X608710Y201511D01*
X608660Y201816D01*
X608590Y202080D01*
X608500Y202303D01*
X608390Y202486D01*
X608260Y202628D01*
X608110Y202730D01*
X607940Y202791D01*
X607750Y202811D01*
X611750D01*
X611560Y202791D01*
D02*
G37*
G36*
X610760Y184678D02*
X610838Y183713D01*
X610906Y183321D01*
X610994Y182989D01*
X611101Y182717D01*
X611228Y182506D01*
X611374Y182355D01*
X611539Y182265D01*
X611725Y182235D01*
X607775D01*
X607961Y182265D01*
X608126Y182355D01*
X608273Y182506D01*
X608399Y182717D01*
X608506Y182989D01*
X608594Y183321D01*
X608662Y183713D01*
X608711Y184165D01*
X608750Y185251D01*
X610750D01*
X610760Y184678D01*
D02*
G37*
G36*
X618508Y175299D02*
X618585Y175083D01*
X618714Y174892D01*
X618894Y174727D01*
X619125Y174587D01*
X619408Y174473D01*
X619742Y174384D01*
X620128Y174321D01*
X620565Y174283D01*
X620579Y174282D01*
X620822Y174303D01*
X621097Y174345D01*
X621357Y174403D01*
X621602Y174478D01*
X621832Y174569D01*
X622047Y174677D01*
X622247Y174801D01*
X622433Y174942D01*
X622603Y175100D01*
Y170900D01*
X622433Y171058D01*
X622247Y171199D01*
X622047Y171323D01*
X621832Y171431D01*
X621602Y171523D01*
X621357Y171597D01*
X621097Y171655D01*
X620822Y171697D01*
X620579Y171718D01*
X620565Y171717D01*
X620128Y171679D01*
X619742Y171616D01*
X619408Y171527D01*
X619125Y171413D01*
X618894Y171273D01*
X618714Y171108D01*
X618585Y170917D01*
X618508Y170701D01*
X618483Y170460D01*
Y175540D01*
X618508Y175299D01*
D02*
G37*
G36*
X611539Y163735D02*
X611374Y163644D01*
X611228Y163494D01*
X611101Y163283D01*
X610994Y163011D01*
X610906Y162679D01*
X610838Y162287D01*
X610789Y161835D01*
X610750Y160749D01*
X608750D01*
X608740Y161322D01*
X608662Y162287D01*
X608594Y162679D01*
X608506Y163011D01*
X608399Y163283D01*
X608273Y163494D01*
X608126Y163644D01*
X607961Y163735D01*
X607775Y163765D01*
X611725D01*
X611539Y163735D01*
D02*
G37*
G36*
X610761Y159502D02*
X610794Y159230D01*
X610849Y158965D01*
X610926Y158707D01*
X611025Y158455D01*
X611146Y158210D01*
X611289Y157971D01*
X611454Y157739D01*
X611641Y157513D01*
X611850Y157294D01*
X607650D01*
X607859Y157513D01*
X608046Y157739D01*
X608211Y157971D01*
X608354Y158210D01*
X608475Y158455D01*
X608574Y158707D01*
X608651Y158965D01*
X608706Y159230D01*
X608739Y159502D01*
X608750Y159780D01*
X610750D01*
X610761Y159502D01*
D02*
G37*
G36*
X483009Y159738D02*
X483040Y159507D01*
X483093Y159278D01*
X483169Y159050D01*
X483267Y158822D01*
X483388Y158596D01*
X483531Y158371D01*
X483696Y158147D01*
X483883Y157925D01*
X484093Y157703D01*
X482297Y155907D01*
X482075Y156117D01*
X481853Y156304D01*
X481629Y156469D01*
X481404Y156612D01*
X481178Y156733D01*
X480951Y156831D01*
X480722Y156907D01*
X480493Y156960D01*
X480262Y156991D01*
X480030Y157000D01*
X483000Y159970D01*
X483009Y159738D01*
D02*
G37*
G36*
X482313Y124942D02*
X482498Y124801D01*
X482698Y124677D01*
X482913Y124569D01*
X483143Y124477D01*
X483388Y124403D01*
X483648Y124345D01*
X483923Y124303D01*
X484213Y124278D01*
X484518Y124270D01*
Y121730D01*
X484213Y121722D01*
X483923Y121697D01*
X483648Y121655D01*
X483388Y121597D01*
X483143Y121523D01*
X482913Y121431D01*
X482698Y121323D01*
X482498Y121199D01*
X482313Y121058D01*
X482142Y120900D01*
Y125100D01*
X482313Y124942D01*
D02*
G37*
G36*
X546028Y116168D02*
X546094Y115344D01*
X546151Y114964D01*
X546225Y114604D01*
X546315Y114265D01*
X546422Y113946D01*
X546545Y113649D01*
X546685Y113372D01*
X546841Y113116D01*
X542659D01*
X542815Y113372D01*
X542955Y113649D01*
X543078Y113946D01*
X543185Y114265D01*
X543275Y114604D01*
X543349Y114964D01*
X543406Y115344D01*
X543472Y116168D01*
X543480Y116611D01*
X546020D01*
X546028Y116168D01*
D02*
G37*
G36*
X539528D02*
X539594Y115344D01*
X539651Y114964D01*
X539725Y114604D01*
X539815Y114265D01*
X539922Y113946D01*
X540045Y113649D01*
X540185Y113372D01*
X540341Y113116D01*
X536159D01*
X536315Y113372D01*
X536455Y113649D01*
X536578Y113946D01*
X536685Y114265D01*
X536775Y114604D01*
X536849Y114964D01*
X536906Y115344D01*
X536972Y116168D01*
X536980Y116611D01*
X539520D01*
X539528Y116168D01*
D02*
G37*
G36*
X533685Y94628D02*
X533545Y94351D01*
X533422Y94053D01*
X533316Y93735D01*
X533225Y93396D01*
X533151Y93036D01*
X533094Y92656D01*
X533028Y91832D01*
X533020Y91389D01*
X530480D01*
X530472Y91832D01*
X530406Y92656D01*
X530349Y93036D01*
X530275Y93396D01*
X530185Y93735D01*
X530078Y94053D01*
X529955Y94351D01*
X529815Y94628D01*
X529659Y94884D01*
X533841D01*
X533685Y94628D01*
D02*
G37*
G36*
X533033Y85771D02*
X533071Y85334D01*
X533134Y84949D01*
X533223Y84614D01*
X533338Y84332D01*
X533477Y84100D01*
X533642Y83920D01*
X533833Y83792D01*
X534049Y83715D01*
X534290Y83689D01*
X529210D01*
X529451Y83715D01*
X529667Y83792D01*
X529858Y83920D01*
X530023Y84100D01*
X530163Y84332D01*
X530277Y84614D01*
X530366Y84949D01*
X530429Y85334D01*
X530467Y85771D01*
X530480Y86259D01*
X533020D01*
X533033Y85771D01*
D02*
G37*
G36*
X206811Y45460D02*
X206785Y45701D01*
X206708Y45917D01*
X206580Y46108D01*
X206400Y46273D01*
X206168Y46412D01*
X205886Y46527D01*
X205551Y46616D01*
X205166Y46679D01*
X204729Y46717D01*
X204382Y46726D01*
X204213Y46722D01*
X203923Y46697D01*
X203648Y46655D01*
X203388Y46597D01*
X203143Y46522D01*
X202913Y46431D01*
X202698Y46323D01*
X202498Y46199D01*
X202313Y46058D01*
X202143Y45900D01*
X200000Y48000D01*
X202143Y50100D01*
X202313Y49942D01*
X202498Y49801D01*
X202698Y49677D01*
X202913Y49569D01*
X203143Y49477D01*
X203388Y49403D01*
X203648Y49345D01*
X203923Y49303D01*
X204213Y49278D01*
X204382Y49274D01*
X204729Y49283D01*
X205166Y49321D01*
X205551Y49384D01*
X205886Y49473D01*
X206168Y49587D01*
X206400Y49727D01*
X206580Y49892D01*
X206708Y50083D01*
X206785Y50299D01*
X206811Y50540D01*
Y45460D01*
D02*
G37*
G36*
X200000Y48000D02*
X197858Y45900D01*
X197687Y46058D01*
X197502Y46199D01*
X197302Y46323D01*
X197087Y46431D01*
X196857Y46522D01*
X196612Y46597D01*
X196352Y46655D01*
X196077Y46697D01*
X195787Y46722D01*
X195482Y46730D01*
X195482Y49270D01*
X195787Y49278D01*
X196077Y49303D01*
X196352Y49345D01*
X196612Y49403D01*
X196857Y49477D01*
X197087Y49569D01*
X197302Y49677D01*
X197502Y49801D01*
X197687Y49942D01*
X197858Y50100D01*
X200000Y48000D01*
D02*
G37*
G36*
X192715Y50299D02*
X192792Y50083D01*
X192920Y49892D01*
X193100Y49727D01*
X193332Y49587D01*
X193615Y49473D01*
X193949Y49384D01*
X194334Y49321D01*
X194771Y49283D01*
X195260Y49270D01*
Y46730D01*
X194771Y46717D01*
X194334Y46679D01*
X193949Y46616D01*
X193615Y46527D01*
X193332Y46412D01*
X193100Y46273D01*
X192920Y46108D01*
X192792Y45917D01*
X192715Y45701D01*
X192689Y45460D01*
Y50540D01*
X192715Y50299D01*
D02*
G37*
G36*
X233299Y163035D02*
X233083Y162958D01*
X232892Y162830D01*
X232727Y162650D01*
X232588Y162418D01*
X232473Y162136D01*
X232384Y161801D01*
X232321Y161416D01*
X232283Y160979D01*
X232270Y160490D01*
X229730D01*
X229717Y160979D01*
X229679Y161416D01*
X229616Y161801D01*
X229527Y162136D01*
X229412Y162418D01*
X229273Y162650D01*
X229108Y162830D01*
X228917Y162958D01*
X228701Y163035D01*
X228460Y163061D01*
X233540D01*
X233299Y163035D01*
D02*
G37*
G36*
X232278Y149213D02*
X232303Y148923D01*
X232345Y148648D01*
X232403Y148388D01*
X232477Y148143D01*
X232569Y147913D01*
X232677Y147698D01*
X232801Y147498D01*
X232942Y147313D01*
X233100Y147142D01*
X228900D01*
X229058Y147313D01*
X229199Y147498D01*
X229323Y147698D01*
X229431Y147913D01*
X229523Y148143D01*
X229597Y148388D01*
X229655Y148648D01*
X229697Y148923D01*
X229722Y149213D01*
X229730Y149518D01*
X232270D01*
X232278Y149213D01*
D02*
G37*
G36*
X232942Y142687D02*
X232801Y142502D01*
X232677Y142302D01*
X232569Y142087D01*
X232477Y141857D01*
X232403Y141612D01*
X232345Y141352D01*
X232303Y141077D01*
X232278Y140787D01*
X232270Y140482D01*
X229730D01*
X229722Y140787D01*
X229697Y141077D01*
X229655Y141352D01*
X229597Y141612D01*
X229523Y141857D01*
X229431Y142087D01*
X229323Y142302D01*
X229199Y142502D01*
X229058Y142687D01*
X228900Y142858D01*
X233100D01*
X232942Y142687D01*
D02*
G37*
G36*
X361299Y127785D02*
X361083Y127708D01*
X360892Y127580D01*
X360727Y127400D01*
X360588Y127168D01*
X360473Y126885D01*
X360384Y126551D01*
X360321Y126166D01*
X360283Y125729D01*
X360270Y125240D01*
X357730D01*
X357717Y125729D01*
X357679Y126166D01*
X357616Y126551D01*
X357527Y126885D01*
X357413Y127168D01*
X357273Y127400D01*
X357108Y127580D01*
X356917Y127708D01*
X356701Y127785D01*
X356460Y127811D01*
X361540D01*
X361299Y127785D01*
D02*
G37*
G36*
X232283Y57021D02*
X232321Y56584D01*
X232384Y56199D01*
X232473Y55864D01*
X232588Y55582D01*
X232727Y55350D01*
X232892Y55170D01*
X233083Y55042D01*
X233299Y54965D01*
X233540Y54939D01*
X228460D01*
X228701Y54965D01*
X228917Y55042D01*
X229108Y55170D01*
X229273Y55350D01*
X229412Y55582D01*
X229527Y55864D01*
X229616Y56199D01*
X229679Y56584D01*
X229717Y57021D01*
X229730Y57509D01*
X232270D01*
X232283Y57021D01*
D02*
G37*
G36*
X236245Y48299D02*
X236321Y48083D01*
X236448Y47892D01*
X236626Y47727D01*
X236855Y47587D01*
X237134Y47473D01*
X237464Y47384D01*
X237845Y47321D01*
X238277Y47283D01*
X238760Y47270D01*
Y44730D01*
X238277Y44717D01*
X237845Y44679D01*
X237464Y44616D01*
X237134Y44527D01*
X236855Y44412D01*
X236626Y44273D01*
X236448Y44108D01*
X236321Y43917D01*
X236245Y43701D01*
X236220Y43460D01*
Y48540D01*
X236245Y48299D01*
D02*
G37*
%LPC*%
G36*
X783900Y336528D02*
X781551Y336218D01*
X779361Y335311D01*
X777481Y333869D01*
X776039Y331989D01*
X775132Y329799D01*
X774822Y327450D01*
X774855Y327200D01*
X774811Y325605D01*
X774741Y324876D01*
X774640Y324209D01*
X774514Y323624D01*
X774368Y323125D01*
X774208Y322713D01*
X774041Y322386D01*
X773885Y322150D01*
X773142Y321408D01*
X772420Y320326D01*
X772166Y319050D01*
Y314000D01*
X768250D01*
Y296000D01*
X782750D01*
Y314000D01*
X778834D01*
Y317590D01*
X778836Y317591D01*
X779163Y317757D01*
X779576Y317918D01*
X780074Y318064D01*
X780659Y318190D01*
X781302Y318287D01*
X782928Y318403D01*
X783619Y318409D01*
X783900Y318372D01*
X786249Y318682D01*
X788439Y319589D01*
X790319Y321031D01*
X791761Y322911D01*
X792668Y325101D01*
X792978Y327450D01*
X792668Y329799D01*
X791761Y331989D01*
X790319Y333869D01*
X788439Y335311D01*
X786249Y336218D01*
X783900Y336528D01*
D02*
G37*
G36*
X801750Y314000D02*
X787250D01*
Y296000D01*
X791166D01*
Y289848D01*
X789896Y289293D01*
X788439Y290411D01*
X786249Y291318D01*
X783900Y291628D01*
X781551Y291318D01*
X779361Y290411D01*
X777481Y288969D01*
X776039Y287089D01*
X775132Y284900D01*
X774822Y282550D01*
X775132Y280201D01*
X776039Y278011D01*
X777481Y276131D01*
X779361Y274688D01*
X781551Y273782D01*
X783900Y273472D01*
X786249Y273782D01*
X788439Y274688D01*
X789896Y275807D01*
X791166Y275252D01*
Y234748D01*
X789896Y234193D01*
X788439Y235311D01*
X786249Y236218D01*
X783900Y236528D01*
X781551Y236218D01*
X779361Y235311D01*
X777481Y233869D01*
X776039Y231989D01*
X775132Y229799D01*
X774822Y227450D01*
X774855Y227200D01*
X774811Y225605D01*
X774741Y224876D01*
X774640Y224209D01*
X774514Y223624D01*
X774368Y223125D01*
X774208Y222713D01*
X774041Y222386D01*
X773885Y222150D01*
X773142Y221408D01*
X772420Y220326D01*
X772166Y219050D01*
Y214000D01*
X768250D01*
Y196000D01*
X782750D01*
Y214000D01*
X778834D01*
Y217590D01*
X778836Y217591D01*
X779163Y217757D01*
X779576Y217918D01*
X780074Y218064D01*
X780659Y218190D01*
X781302Y218287D01*
X782928Y218403D01*
X783619Y218409D01*
X783900Y218372D01*
X786249Y218682D01*
X788439Y219589D01*
X789896Y220707D01*
X791166Y220152D01*
Y214000D01*
X787250D01*
Y196000D01*
X791166D01*
Y189848D01*
X789896Y189293D01*
X788439Y190411D01*
X786249Y191318D01*
X783900Y191628D01*
X781551Y191318D01*
X779361Y190411D01*
X777481Y188969D01*
X776039Y187089D01*
X775132Y184900D01*
X774822Y182550D01*
X775132Y180201D01*
X776039Y178011D01*
X777481Y176131D01*
X779361Y174688D01*
X781551Y173782D01*
X783900Y173472D01*
X786249Y173782D01*
X788439Y174688D01*
X789896Y175807D01*
X791166Y175252D01*
Y114748D01*
X789896Y114193D01*
X788439Y115311D01*
X786249Y116218D01*
X783900Y116528D01*
X781551Y116218D01*
X779361Y115311D01*
X777481Y113869D01*
X776039Y111989D01*
X775132Y109799D01*
X774822Y107450D01*
X774855Y107200D01*
X774811Y105604D01*
X774741Y104876D01*
X774640Y104209D01*
X774514Y103624D01*
X774368Y103125D01*
X774208Y102713D01*
X774041Y102386D01*
X773885Y102150D01*
X773142Y101407D01*
X772420Y100326D01*
X772166Y99050D01*
Y94000D01*
X768250D01*
Y76000D01*
X782750D01*
Y94000D01*
X778834D01*
Y97590D01*
X778836Y97591D01*
X779163Y97757D01*
X779576Y97918D01*
X780074Y98064D01*
X780659Y98190D01*
X781302Y98287D01*
X782928Y98404D01*
X783619Y98409D01*
X783900Y98372D01*
X786249Y98682D01*
X788439Y99588D01*
X789896Y100707D01*
X791166Y100152D01*
Y94000D01*
X787250D01*
Y76000D01*
X791941D01*
Y68941D01*
X790671Y68510D01*
X790319Y68969D01*
X788439Y70411D01*
X786249Y71318D01*
X783900Y71628D01*
X781551Y71318D01*
X779361Y70411D01*
X777481Y68969D01*
X776039Y67089D01*
X775132Y64899D01*
X774822Y62550D01*
X775132Y60201D01*
X776039Y58011D01*
X777481Y56131D01*
X779361Y54689D01*
X781551Y53782D01*
X783900Y53472D01*
X786249Y53782D01*
X788439Y54689D01*
X790319Y56131D01*
X790671Y56590D01*
X791941Y56159D01*
Y49405D01*
X791922Y49312D01*
X791895Y49220D01*
X791859Y49128D01*
X791812Y49034D01*
X791753Y48935D01*
X791678Y48830D01*
X791610Y48748D01*
X791395Y48605D01*
X790290Y46951D01*
X789902Y45000D01*
X790290Y43049D01*
X791395Y41395D01*
X793049Y40290D01*
X795000Y39902D01*
X796951Y40290D01*
X798605Y41395D01*
X799612Y42902D01*
X799710Y43049D01*
X800098Y45000D01*
X799710Y46951D01*
X798605Y48605D01*
X798390Y48748D01*
X798322Y48830D01*
X798247Y48935D01*
X798188Y49034D01*
X798142Y49128D01*
X798106Y49220D01*
X798078Y49312D01*
X798059Y49405D01*
Y76000D01*
X801750D01*
Y94000D01*
X797834D01*
Y196000D01*
X801750D01*
Y214000D01*
X797834D01*
Y296000D01*
X801750D01*
Y314000D01*
D02*
G37*
%LPD*%
G36*
X783830Y320450D02*
X782847Y320442D01*
X781077Y320315D01*
X780291Y320197D01*
X779571Y320042D01*
X778917Y319850D01*
X778329Y319621D01*
X777807Y319356D01*
X777351Y319053D01*
X776961Y318715D01*
X775165Y320510D01*
X775503Y320901D01*
X775806Y321357D01*
X776071Y321879D01*
X776300Y322467D01*
X776492Y323121D01*
X776647Y323841D01*
X776766Y324627D01*
X776847Y325479D01*
X776900Y327380D01*
X783830Y320450D01*
D02*
G37*
G36*
X776783Y314021D02*
X776821Y313584D01*
X776884Y313199D01*
X776973Y312864D01*
X777087Y312582D01*
X777227Y312350D01*
X777392Y312170D01*
X777583Y312042D01*
X777799Y311965D01*
X778040Y311939D01*
X772960D01*
X773201Y311965D01*
X773417Y312042D01*
X773608Y312170D01*
X773773Y312350D01*
X773913Y312582D01*
X774027Y312864D01*
X774116Y313199D01*
X774179Y313584D01*
X774217Y314021D01*
X774230Y314510D01*
X776770D01*
X776783Y314021D01*
D02*
G37*
G36*
X796799Y298035D02*
X796583Y297958D01*
X796392Y297830D01*
X796227Y297650D01*
X796087Y297418D01*
X795973Y297136D01*
X795884Y296801D01*
X795821Y296416D01*
X795783Y295979D01*
X795770Y295490D01*
X793230D01*
X793217Y295979D01*
X793179Y296416D01*
X793116Y296801D01*
X793027Y297136D01*
X792913Y297418D01*
X792773Y297650D01*
X792608Y297830D01*
X792417Y297958D01*
X792201Y298035D01*
X791960Y298061D01*
X797040D01*
X796799Y298035D01*
D02*
G37*
G36*
X783830Y220450D02*
X782847Y220442D01*
X781077Y220315D01*
X780291Y220197D01*
X779571Y220042D01*
X778917Y219850D01*
X778329Y219621D01*
X777807Y219356D01*
X777351Y219053D01*
X776961Y218715D01*
X775165Y220511D01*
X775503Y220901D01*
X775806Y221357D01*
X776071Y221879D01*
X776300Y222467D01*
X776492Y223121D01*
X776647Y223841D01*
X776766Y224627D01*
X776847Y225479D01*
X776900Y227380D01*
X783830Y220450D01*
D02*
G37*
G36*
X795783Y214021D02*
X795821Y213584D01*
X795884Y213199D01*
X795973Y212864D01*
X796087Y212582D01*
X796227Y212350D01*
X796392Y212170D01*
X796583Y212042D01*
X796799Y211965D01*
X797040Y211939D01*
X791960D01*
X792201Y211965D01*
X792417Y212042D01*
X792608Y212170D01*
X792773Y212350D01*
X792913Y212582D01*
X793027Y212864D01*
X793116Y213199D01*
X793179Y213584D01*
X793217Y214021D01*
X793230Y214510D01*
X795770D01*
X795783Y214021D01*
D02*
G37*
G36*
X776783D02*
X776821Y213584D01*
X776884Y213199D01*
X776973Y212864D01*
X777087Y212582D01*
X777227Y212350D01*
X777392Y212170D01*
X777583Y212042D01*
X777799Y211965D01*
X778040Y211939D01*
X772960D01*
X773201Y211965D01*
X773417Y212042D01*
X773608Y212170D01*
X773773Y212350D01*
X773913Y212582D01*
X774027Y212864D01*
X774116Y213199D01*
X774179Y213584D01*
X774217Y214021D01*
X774230Y214510D01*
X776770D01*
X776783Y214021D01*
D02*
G37*
G36*
X796799Y198035D02*
X796583Y197958D01*
X796392Y197830D01*
X796227Y197650D01*
X796087Y197418D01*
X795973Y197136D01*
X795884Y196801D01*
X795821Y196416D01*
X795783Y195979D01*
X795770Y195490D01*
X793230D01*
X793217Y195979D01*
X793179Y196416D01*
X793116Y196801D01*
X793027Y197136D01*
X792913Y197418D01*
X792773Y197650D01*
X792608Y197830D01*
X792417Y197958D01*
X792201Y198035D01*
X791960Y198061D01*
X797040D01*
X796799Y198035D01*
D02*
G37*
G36*
X783830Y100450D02*
X782847Y100442D01*
X781077Y100315D01*
X780291Y100197D01*
X779571Y100042D01*
X778917Y99850D01*
X778329Y99621D01*
X777807Y99356D01*
X777351Y99053D01*
X776961Y98715D01*
X775165Y100511D01*
X775503Y100901D01*
X775806Y101357D01*
X776071Y101879D01*
X776300Y102467D01*
X776492Y103121D01*
X776647Y103841D01*
X776766Y104627D01*
X776847Y105479D01*
X776900Y107380D01*
X783830Y100450D01*
D02*
G37*
G36*
X795783Y94021D02*
X795821Y93584D01*
X795884Y93198D01*
X795973Y92864D01*
X796087Y92582D01*
X796227Y92350D01*
X796392Y92170D01*
X796583Y92042D01*
X796799Y91965D01*
X797040Y91939D01*
X791960D01*
X792201Y91965D01*
X792417Y92042D01*
X792608Y92170D01*
X792773Y92350D01*
X792913Y92582D01*
X793027Y92864D01*
X793116Y93198D01*
X793179Y93584D01*
X793217Y94021D01*
X793230Y94509D01*
X795770D01*
X795783Y94021D01*
D02*
G37*
G36*
X776783D02*
X776821Y93584D01*
X776884Y93198D01*
X776973Y92864D01*
X777087Y92582D01*
X777227Y92350D01*
X777392Y92170D01*
X777583Y92042D01*
X777799Y91965D01*
X778040Y91939D01*
X772960D01*
X773201Y91965D01*
X773417Y92042D01*
X773608Y92170D01*
X773773Y92350D01*
X773913Y92582D01*
X774027Y92864D01*
X774116Y93198D01*
X774179Y93584D01*
X774217Y94021D01*
X774230Y94509D01*
X776770D01*
X776783Y94021D01*
D02*
G37*
G36*
X796810Y78041D02*
X796640Y77980D01*
X796490Y77878D01*
X796360Y77736D01*
X796250Y77553D01*
X796160Y77330D01*
X796090Y77066D01*
X796040Y76761D01*
X796010Y76416D01*
X796000Y76031D01*
X794000D01*
X793990Y76416D01*
X793960Y76761D01*
X793910Y77066D01*
X793840Y77330D01*
X793750Y77553D01*
X793640Y77736D01*
X793510Y77878D01*
X793360Y77980D01*
X793190Y78041D01*
X793000Y78061D01*
X797000D01*
X796810Y78041D01*
D02*
G37*
G36*
X796011Y49350D02*
X796044Y49078D01*
X796099Y48813D01*
X796176Y48555D01*
X796275Y48303D01*
X796396Y48058D01*
X796539Y47819D01*
X796704Y47587D01*
X796891Y47361D01*
X797100Y47142D01*
X792900D01*
X793109Y47361D01*
X793296Y47587D01*
X793461Y47819D01*
X793604Y48058D01*
X793725Y48303D01*
X793824Y48555D01*
X793901Y48813D01*
X793956Y49078D01*
X793989Y49350D01*
X794000Y49628D01*
X796000D01*
X796011Y49350D01*
D02*
G37*
D12*
X474000Y522107D02*
Y531500D01*
X462251Y510358D02*
X474000Y522107D01*
X329000Y510358D02*
X462251D01*
X273643Y455000D02*
X329000Y510358D01*
X185000Y455000D02*
X273643D01*
D13*
X80400Y437700D02*
X144000D01*
X474000Y531500D02*
X478000Y535500D01*
Y537000D01*
X794500Y85000D02*
X795000Y84500D01*
Y45000D02*
Y84500D01*
X564250Y104000D02*
X570750D01*
X609750Y155152D02*
Y173000D01*
X570750Y104000D02*
Y122619D01*
X73500Y535000D02*
X74500Y536000D01*
X41500Y535000D02*
X73500D01*
X83500Y527000D02*
X92000D01*
X83500Y536000D02*
X92000D01*
X609750Y208250D02*
X610000Y208500D01*
X609750Y173000D02*
Y208250D01*
X0Y0D02*
X810000D01*
X0D02*
X0Y610000D01*
X810000D01*
Y0D02*
Y610000D01*
D14*
X518676Y55700D02*
X523396Y50980D01*
X487000Y55700D02*
X518676D01*
X554662Y50980D02*
X557642Y48000D01*
X523396Y50980D02*
X554662D01*
X111000Y412000D02*
X121488D01*
X80400Y412300D02*
X80700Y412000D01*
X111000D01*
X205000Y570000D02*
X319107D01*
X334107Y555000D01*
X353800D01*
X144749Y560749D02*
X180072D01*
X132500Y485000D02*
Y498000D01*
X231000Y145000D02*
Y170000D01*
Y48000D02*
Y145000D01*
X517000Y220000D02*
Y285000D01*
Y220000D02*
X526000Y211000D01*
X465000Y337000D02*
X517000Y285000D01*
X171488Y362000D02*
X413000D01*
X438000Y337000D01*
X465000D01*
X121488Y412000D02*
X171488Y362000D01*
X590250Y155000D02*
Y173000D01*
X557750Y88000D02*
Y104000D01*
Y78250D02*
Y88000D01*
X187500Y48000D02*
X212000D01*
X187500Y169950D02*
X211950D01*
X487000Y194000D02*
X526806D01*
X537270Y183536D01*
Y182760D02*
Y183536D01*
Y182760D02*
X538250Y181780D01*
Y173000D02*
Y181780D01*
X496000Y173000D02*
X531750D01*
X616250D02*
X624745D01*
X389000Y333000D02*
X405000D01*
X284000Y322016D02*
X284017Y322000D01*
X306500D01*
X377000Y324000D02*
Y330000D01*
X375017Y322016D02*
X377000Y324000D01*
X363517Y322016D02*
X375017D01*
X377000Y330000D02*
X379428Y332428D01*
X263000Y319016D02*
X266000Y322016D01*
X375790Y315500D02*
X376290Y315000D01*
X363500Y315500D02*
X375790D01*
X376290Y315000D02*
X389000D01*
X306500Y315500D02*
X323500D01*
X330000Y322000D01*
X363500D01*
X233000Y46000D02*
X302000D01*
X231000Y48000D02*
X233000Y46000D01*
X302000D02*
X359000Y103000D01*
Y135000D01*
X212000Y48000D02*
X212000Y48000D01*
X211950Y169950D02*
X212000Y170000D01*
X105000Y521000D02*
X144749Y560749D01*
X589995Y173255D02*
X590250Y173000D01*
X584000Y197867D02*
Y208500D01*
Y197867D02*
X587270Y194597D01*
X540729Y194646D02*
X544750Y190625D01*
Y173000D02*
Y190625D01*
X540729Y194646D02*
Y208500D01*
X551250Y173000D02*
Y226250D01*
X587270Y189403D02*
Y194597D01*
X583750Y185883D02*
X587270Y189403D01*
X583750Y173000D02*
Y185883D01*
X570750Y187814D02*
X574936Y192000D01*
X581000D01*
X570750Y173000D02*
Y187814D01*
X565100Y191064D02*
Y192000D01*
X564250Y190214D02*
X565100Y191064D01*
X564250Y173000D02*
Y190214D01*
X563000Y201000D02*
Y208500D01*
X557750Y195750D02*
X563000Y201000D01*
X557750Y173000D02*
Y195750D01*
Y78250D02*
X558000Y78000D01*
X531750Y78250D02*
X532000Y78000D01*
X531750Y78250D02*
Y104000D01*
X534000Y123000D02*
X538250Y118750D01*
X480000Y123000D02*
X534000D01*
X775500Y85000D02*
Y99050D01*
X783900Y107450D01*
X775500Y205000D02*
Y219050D01*
X783900Y227450D01*
X775500Y305000D02*
Y319050D01*
X783900Y327450D01*
X794500Y85000D02*
Y205000D01*
Y305000D01*
X505000Y135000D02*
X528000D01*
X480000Y160000D02*
X505000Y135000D01*
X528000D02*
X534460Y128540D01*
X534881D01*
X544750Y118671D01*
Y104000D02*
Y118671D01*
X538250Y104000D02*
Y118750D01*
X315000Y143000D02*
X323000Y135000D01*
X341000D01*
X315000Y143000D02*
Y155000D01*
X339000Y258000D02*
Y285000D01*
X350000Y296000D01*
X363500D01*
X330000Y265000D02*
Y285000D01*
X330000Y265000D02*
X330000Y265000D01*
Y285000D02*
X347500Y302500D01*
X363500D01*
X293000Y296000D02*
X306500D01*
X285000Y300000D02*
X287500Y302500D01*
X306500D01*
X363500Y322000D02*
X363517Y322016D01*
X379428Y332428D02*
X388428D01*
X389000Y333000D01*
X282500Y320517D02*
X284000Y322016D01*
X306316Y322184D02*
X306500Y322000D01*
X350000Y329000D02*
X355990D01*
X356490Y328500D01*
X363500D01*
X343072Y335928D02*
X350000Y329000D01*
X343072Y335928D02*
Y344928D01*
X343000Y345000D02*
X343072Y344928D01*
X327000Y336000D02*
Y345000D01*
X319500Y328500D02*
X327000Y336000D01*
X306500Y328500D02*
X319500D01*
D59*
X389000Y315000D02*
D03*
Y333000D02*
D03*
X558000Y60000D02*
D03*
Y78000D02*
D03*
X532000Y60000D02*
D03*
Y78000D02*
D03*
X610000Y226500D02*
D03*
Y208500D02*
D03*
X563000Y226500D02*
D03*
Y208500D02*
D03*
X584000Y226500D02*
D03*
Y208500D02*
D03*
X540729Y226500D02*
D03*
Y208500D02*
D03*
D64*
X775500Y305000D02*
D03*
X794500D02*
D03*
X775500Y205000D02*
D03*
X794500D02*
D03*
X775500Y85000D02*
D03*
X794500D02*
D03*
X231000Y170000D02*
D03*
X212000D02*
D03*
X168500Y169950D02*
D03*
X187500D02*
D03*
X231000Y48000D02*
D03*
X212000D02*
D03*
X168500Y48000D02*
D03*
X187500D02*
D03*
D65*
X478000Y565000D02*
D03*
X460000D02*
D03*
X478000Y537000D02*
D03*
X460000D02*
D03*
X266000Y322016D02*
D03*
X284000D02*
D03*
X341000Y135000D02*
D03*
X359000D02*
D03*
D67*
X111000Y412000D02*
D03*
Y393000D02*
D03*
D77*
X132500Y485000D02*
D03*
Y465000D02*
D03*
D86*
X221000Y543000D02*
Y560749D01*
X73000Y528500D02*
X74500Y527000D01*
X41500Y528500D02*
X73000D01*
X589995Y49950D02*
Y103745D01*
X590250Y104000D01*
X583750Y70000D02*
Y104000D01*
X577250Y60000D02*
Y104000D01*
X562000Y207500D02*
X563000Y208500D01*
X616000Y60000D02*
Y68500D01*
X617000Y69500D01*
X608500Y60000D02*
Y69250D01*
X608750Y69500D01*
X616250Y79250D02*
X617000Y78500D01*
X616250Y79250D02*
Y104000D01*
X608750Y78500D02*
X609750Y79500D01*
Y104000D01*
D88*
X67166Y24991D02*
X83666D01*
X75166Y16991D02*
Y32991D01*
X743991Y552510D02*
Y569010D01*
X735991Y561010D02*
X751991D01*
X721991Y54510D02*
Y71010D01*
X713991Y63010D02*
X729991D01*
D89*
X80400Y386900D02*
D03*
Y412300D02*
D03*
Y437700D02*
D03*
Y231900D02*
D03*
Y257300D02*
D03*
Y282700D02*
D03*
Y96900D02*
D03*
Y122300D02*
D03*
Y147700D02*
D03*
D90*
Y463100D02*
D03*
Y308100D02*
D03*
Y173100D02*
D03*
D91*
X105000Y75000D02*
D03*
Y185000D02*
D03*
D92*
X120000Y128000D02*
D03*
Y238000D02*
D03*
D93*
X40000Y112500D02*
D03*
Y37500D02*
D03*
Y222500D02*
D03*
Y147500D02*
D03*
D94*
Y75000D02*
D03*
Y185000D02*
D03*
D95*
X14500Y500000D02*
D03*
Y570000D02*
D03*
D96*
X41500Y560000D02*
D03*
Y510000D02*
D03*
D97*
X99000Y355500D02*
D03*
X85000Y331500D02*
D03*
X54000Y259500D02*
D03*
D98*
X131000Y265000D02*
D03*
X21000Y305000D02*
D03*
D99*
X759000Y120050D02*
D03*
Y49950D02*
D03*
Y240050D02*
D03*
Y169950D02*
D03*
Y340050D02*
D03*
Y269950D02*
D03*
D100*
X783900Y107450D02*
D03*
Y62550D02*
D03*
Y227450D02*
D03*
Y182550D02*
D03*
Y327450D02*
D03*
Y282550D02*
D03*
D101*
X487000Y55700D02*
D03*
X567000Y151000D02*
D03*
X557642Y48000D02*
D03*
X588781Y134000D02*
D03*
X135750Y530750D02*
D03*
X144000Y438000D02*
D03*
X205000Y570000D02*
D03*
X353800Y555000D02*
D03*
X798000Y584000D02*
D03*
X778000D02*
D03*
X670000D02*
D03*
X650000D02*
D03*
X95000D02*
D03*
X80400Y584000D02*
D03*
X640000Y88000D02*
D03*
X132500Y498000D02*
D03*
X582400Y575000D02*
D03*
X155500Y504000D02*
D03*
X458194Y195000D02*
D03*
X430000Y195000D02*
D03*
X418258Y473686D02*
D03*
X433258Y458686D02*
D03*
X418258Y443686D02*
D03*
X403258Y458686D02*
D03*
X418258D02*
D03*
X433258Y473686D02*
D03*
Y443686D02*
D03*
X403258D02*
D03*
Y473686D02*
D03*
X180000Y514000D02*
D03*
X221000Y543000D02*
D03*
Y560749D02*
D03*
X315700Y555000D02*
D03*
X303000D02*
D03*
X277600D02*
D03*
X493500D02*
D03*
X233500Y425500D02*
D03*
Y445000D02*
D03*
X185000Y455000D02*
D03*
X582400Y350000D02*
D03*
X488950Y94000D02*
D03*
X231000Y145000D02*
D03*
X491450Y68550D02*
D03*
X544272Y29000D02*
D03*
X544300Y44000D02*
D03*
X531999Y258000D02*
D03*
X526000Y211000D02*
D03*
X590250Y155000D02*
D03*
X615000Y258000D02*
D03*
X480800Y555000D02*
D03*
X557750Y88000D02*
D03*
X469000Y41311D02*
D03*
X200000Y170000D02*
D03*
Y48000D02*
D03*
X487000Y194000D02*
D03*
X496000Y173000D02*
D03*
X795000Y45000D02*
D03*
X624745Y173000D02*
D03*
X570750Y122619D02*
D03*
X609750Y155152D02*
D03*
X64535Y515000D02*
D03*
X405000Y333000D02*
D03*
X630000Y565000D02*
D03*
X620000D02*
D03*
X650000Y470000D02*
D03*
X670000D02*
D03*
X676000Y535000D02*
D03*
Y547000D02*
D03*
X105000Y521000D02*
D03*
X92000Y527000D02*
D03*
Y536000D02*
D03*
X589995Y49950D02*
D03*
X583750Y70000D02*
D03*
X577250Y60000D02*
D03*
X581000Y192000D02*
D03*
X565100D02*
D03*
X616000Y60000D02*
D03*
X608500D02*
D03*
X180072Y560749D02*
D03*
X480000Y123000D02*
D03*
Y160000D02*
D03*
X420000Y265000D02*
D03*
X458000Y305000D02*
D03*
X330000Y265000D02*
D03*
X339000Y258000D02*
D03*
X285000Y300000D02*
D03*
X293000Y296000D02*
D03*
X248000Y75000D02*
D03*
X168000D02*
D03*
X248000Y195000D02*
D03*
X168000Y195000D02*
D03*
X410000Y121000D02*
D03*
X410000Y142000D02*
D03*
X315000Y155000D02*
D03*
D102*
X41500Y541500D02*
D03*
Y548000D02*
D03*
Y535000D02*
D03*
Y528500D02*
D03*
Y522000D02*
D03*
D103*
X608750Y78500D02*
D03*
Y69500D02*
D03*
X617000Y78500D02*
D03*
Y69500D02*
D03*
D104*
X83500Y536000D02*
D03*
X74500D02*
D03*
X83500Y527000D02*
D03*
X74500D02*
D03*
D105*
X363500Y328500D02*
D03*
Y322000D02*
D03*
Y315500D02*
D03*
Y309000D02*
D03*
Y302500D02*
D03*
Y296000D02*
D03*
Y289500D02*
D03*
X306500Y328500D02*
D03*
Y322000D02*
D03*
Y315500D02*
D03*
Y309000D02*
D03*
Y302500D02*
D03*
Y296000D02*
D03*
Y289500D02*
D03*
D106*
X327000Y345000D02*
D03*
X343000D02*
D03*
D107*
X616250Y104000D02*
D03*
X609750D02*
D03*
X603250D02*
D03*
X596750D02*
D03*
X590250D02*
D03*
X583750D02*
D03*
X577250D02*
D03*
X570750D02*
D03*
X564250D02*
D03*
X557750D02*
D03*
X551250D02*
D03*
X544750D02*
D03*
X538250D02*
D03*
X531750D02*
D03*
X616250Y173000D02*
D03*
X609750D02*
D03*
X603250D02*
D03*
X596750D02*
D03*
X590250D02*
D03*
X583750D02*
D03*
X577250D02*
D03*
X570750D02*
D03*
X564250D02*
D03*
X557750D02*
D03*
X551250D02*
D03*
X544750D02*
D03*
X538250D02*
D03*
X531750D02*
D03*
D108*
X588916Y134000D02*
X603250Y119666D01*
Y104000D02*
Y119666D01*
M02*
