M48
;Layer_Color=9474304
;FILE_FORMAT=4:4
METRIC,LZ
;TYPE=PLATED
T2F00S00C0.6000
T4F00S00C0.9000
T6F00S00C1.0000
%
G90
G05
T02
G00X00011Y005
M15
G01X00018
M16
G00X00018Y0057
M15
G01X00011
M16
T04
G00X00021Y003015
M15
G01Y003085
M16
G00X000575Y002595
M15
G01X000505
M16
G00X00131Y002615
M15
G01Y002685
M16
G00X000885Y003315
M15
G01X000815
M16
G00X001025Y003555
M15
G01X000955
M16
T06
G00X0013Y00128
M15
G01X0011
M16
G00X0004Y00065
M15
G01Y00085
M16
G00X0004Y00175
M15
G01Y00195
M16
G00X0013Y00238
M15
G01X0011
M16
M17
M30
