G04*
G04 #@! TF.GenerationSoftware,Altium Limited,Altium Designer,19.0.10 (269)*
G04*
G04 Layer_Physical_Order=1*
G04 Layer_Color=255*
%FSLAX44Y44*%
%MOMM*%
G71*
G01*
G75*
%ADD12C,0.4000*%
%ADD13C,0.2000*%
%ADD14C,0.2540*%
%ADD32R,1.2954X2.6924*%
%ADD59R,1.4500X1.1500*%
%ADD60R,2.1000X2.1000*%
%ADD61O,0.7500X0.3000*%
%ADD62O,0.3000X0.7500*%
%ADD63R,2.9500X1.2000*%
%ADD64R,1.0500X1.4000*%
%ADD65R,1.1500X1.4500*%
G04:AMPARAMS|DCode=66|XSize=0.4mm|YSize=0.65mm|CornerRadius=0.05mm|HoleSize=0mm|Usage=FLASHONLY|Rotation=270.000|XOffset=0mm|YOffset=0mm|HoleType=Round|Shape=RoundedRectangle|*
%AMROUNDEDRECTD66*
21,1,0.4000,0.5500,0,0,270.0*
21,1,0.3000,0.6500,0,0,270.0*
1,1,0.1000,-0.2750,-0.1500*
1,1,0.1000,-0.2750,0.1500*
1,1,0.1000,0.2750,0.1500*
1,1,0.1000,0.2750,-0.1500*
%
%ADD66ROUNDEDRECTD66*%
%ADD67R,1.4000X1.0500*%
%ADD68R,1.9000X2.4000*%
%ADD69R,2.6000X1.1000*%
%ADD70C,0.9906*%
%ADD71R,0.8500X1.3000*%
%ADD72R,0.9000X1.0000*%
%ADD73O,0.6000X2.2000*%
%ADD74R,0.8600X1.5000*%
%ADD75R,1.5000X0.8600*%
%ADD76R,5.9590X6.0410*%
%ADD77R,1.5500X1.3500*%
%ADD78R,0.6000X1.3500*%
%ADD79R,1.5000X1.2500*%
%ADD80R,0.9000X0.6500*%
%ADD81R,2.0000X0.8000*%
%ADD82R,1.2500X1.5000*%
%ADD83R,1.3500X2.8000*%
%ADD84R,2.7000X1.1500*%
%ADD85R,1.4000X1.0000*%
%ADD86C,0.1500*%
%ADD87C,0.5000*%
%ADD88C,0.2032*%
%ADD89C,1.6500*%
%ADD90R,1.6500X1.6500*%
%ADD91C,2.6000*%
G04:AMPARAMS|DCode=92|XSize=3.5mm|YSize=1.5mm|CornerRadius=0.375mm|HoleSize=0mm|Usage=FLASHONLY|Rotation=180.000|XOffset=0mm|YOffset=0mm|HoleType=Round|Shape=RoundedRectangle|*
%AMROUNDEDRECTD92*
21,1,3.5000,0.7500,0,0,180.0*
21,1,2.7500,1.5000,0,0,180.0*
1,1,0.7500,-1.3750,0.3750*
1,1,0.7500,1.3750,0.3750*
1,1,0.7500,1.3750,-0.3750*
1,1,0.7500,-1.3750,-0.3750*
%
%ADD92ROUNDEDRECTD92*%
%ADD93C,2.3000*%
G04:AMPARAMS|DCode=94|XSize=3.5mm|YSize=1.5mm|CornerRadius=0.375mm|HoleSize=0mm|Usage=FLASHONLY|Rotation=90.000|XOffset=0mm|YOffset=0mm|HoleType=Round|Shape=RoundedRectangle|*
%AMROUNDEDRECTD94*
21,1,3.5000,0.7500,0,0,90.0*
21,1,2.7500,1.5000,0,0,90.0*
1,1,0.7500,0.3750,1.3750*
1,1,0.7500,0.3750,-1.3750*
1,1,0.7500,-0.3750,-1.3750*
1,1,0.7500,-0.3750,1.3750*
%
%ADD94ROUNDEDRECTD94*%
G04:AMPARAMS|DCode=95|XSize=1.2mm|YSize=1.9mm|CornerRadius=0.3mm|HoleSize=0mm|Usage=FLASHONLY|Rotation=90.000|XOffset=0mm|YOffset=0mm|HoleType=Round|Shape=RoundedRectangle|*
%AMROUNDEDRECTD95*
21,1,1.2000,1.3000,0,0,90.0*
21,1,0.6000,1.9000,0,0,90.0*
1,1,0.6000,0.6500,0.3000*
1,1,0.6000,0.6500,-0.3000*
1,1,0.6000,-0.6500,-0.3000*
1,1,0.6000,-0.6500,0.3000*
%
%ADD95ROUNDEDRECTD95*%
%ADD96C,1.4500*%
G04:AMPARAMS|DCode=97|XSize=2mm|YSize=1.3mm|CornerRadius=0.325mm|HoleSize=0mm|Usage=FLASHONLY|Rotation=180.000|XOffset=0mm|YOffset=0mm|HoleType=Round|Shape=RoundedRectangle|*
%AMROUNDEDRECTD97*
21,1,2.0000,0.6500,0,0,180.0*
21,1,1.3500,1.3000,0,0,180.0*
1,1,0.6500,-0.6750,0.3250*
1,1,0.6500,0.6750,0.3250*
1,1,0.6500,0.6750,-0.3250*
1,1,0.6500,-0.6750,-0.3250*
%
%ADD97ROUNDEDRECTD97*%
G04:AMPARAMS|DCode=98|XSize=2mm|YSize=1.3mm|CornerRadius=0.325mm|HoleSize=0mm|Usage=FLASHONLY|Rotation=90.000|XOffset=0mm|YOffset=0mm|HoleType=Round|Shape=RoundedRectangle|*
%AMROUNDEDRECTD98*
21,1,2.0000,0.6500,0,0,90.0*
21,1,1.3500,1.3000,0,0,90.0*
1,1,0.6500,0.3250,0.6750*
1,1,0.6500,0.3250,-0.6750*
1,1,0.6500,-0.3250,-0.6750*
1,1,0.6500,-0.3250,0.6750*
%
%ADD98ROUNDEDRECTD98*%
%ADD99C,1.7000*%
%ADD100C,1.4000*%
%ADD101C,0.6000*%
G36*
X544885Y573599D02*
X544905Y573356D01*
X544937Y573141D01*
X544983Y572955D01*
X545042Y572797D01*
X545113Y572668D01*
X545198Y572568D01*
X545296Y572496D01*
X545407Y572453D01*
X545531Y572439D01*
X542727D01*
X542851Y572453D01*
X542962Y572496D01*
X543059Y572568D01*
X543144Y572668D01*
X543216Y572797D01*
X543274Y572955D01*
X543320Y573141D01*
X543353Y573356D01*
X543372Y573599D01*
X543379Y573871D01*
X544879D01*
X544885Y573599D01*
D02*
G37*
G36*
X583683Y574421D02*
X583721Y573984D01*
X583784Y573599D01*
X583873Y573264D01*
X583988Y572982D01*
X584062Y572858D01*
X584500D01*
X584342Y572687D01*
X584271Y572594D01*
X584292Y572570D01*
X584483Y572442D01*
X584699Y572365D01*
X584940Y572339D01*
X584100D01*
X584077Y572302D01*
X583969Y572087D01*
X583877Y571857D01*
X583803Y571612D01*
X583745Y571352D01*
X583703Y571077D01*
X583678Y570787D01*
X583670Y570482D01*
X581130D01*
X581122Y570787D01*
X581097Y571077D01*
X581055Y571352D01*
X580997Y571612D01*
X580923Y571857D01*
X580831Y572087D01*
X580723Y572302D01*
X580700Y572339D01*
X579860D01*
X580101Y572365D01*
X580317Y572442D01*
X580508Y572570D01*
X580529Y572594D01*
X580458Y572687D01*
X580300Y572858D01*
X580738D01*
X580813Y572982D01*
X580927Y573264D01*
X581016Y573599D01*
X581079Y573984D01*
X581117Y574421D01*
X581130Y574910D01*
X583670D01*
X583683Y574421D01*
D02*
G37*
G36*
X807410Y569000D02*
X638624D01*
Y570000D01*
X638148Y571148D01*
X637000Y571624D01*
X615000D01*
X613852Y571148D01*
X613376Y570000D01*
Y569000D01*
X588200D01*
Y573900D01*
X587770D01*
X586965Y574882D01*
X586988Y575000D01*
X586639Y576756D01*
X585644Y578244D01*
X584156Y579239D01*
X582400Y579588D01*
X580644Y579239D01*
X579156Y578244D01*
X578161Y576756D01*
X577812Y575000D01*
X577835Y574882D01*
X577588Y574580D01*
X576600Y573900D01*
X575500Y574000D01*
Y574000D01*
X575372Y574000D01*
X563900D01*
Y574000D01*
X562800D01*
Y574000D01*
X551200D01*
Y574000D01*
X550100D01*
Y574000D01*
X546462D01*
X546344Y574266D01*
X546248Y574749D01*
X545751Y575493D01*
X541343Y579901D01*
X540599Y580398D01*
X539721Y580573D01*
X253279D01*
X253279Y580573D01*
X252401Y580398D01*
X251657Y579901D01*
X251656Y579901D01*
X240756Y569000D01*
X210390D01*
X209585Y569982D01*
X209588Y570000D01*
X209239Y571756D01*
X208244Y573244D01*
X206756Y574239D01*
X205000Y574588D01*
X203244Y574239D01*
X201756Y573244D01*
X200761Y571756D01*
X200412Y570000D01*
X200415Y569982D01*
X199610Y569000D01*
X187178D01*
X186999Y569119D01*
X186121Y569294D01*
X144000D01*
X143122Y569119D01*
X142943Y569000D01*
X89000D01*
Y539408D01*
X88756Y539244D01*
X87761Y537756D01*
X87412Y536000D01*
X87761Y534244D01*
X88756Y532756D01*
X89000Y532592D01*
Y530407D01*
X88756Y530244D01*
X87761Y528756D01*
X87412Y527000D01*
X87761Y525244D01*
X88756Y523756D01*
X89000Y523592D01*
Y473890D01*
X81670D01*
Y463100D01*
X80400D01*
Y461830D01*
X69610D01*
Y455000D01*
X41500D01*
Y501175D01*
X43784Y501475D01*
X45913Y502357D01*
X47741Y503759D01*
X49143Y505587D01*
X50025Y507716D01*
X50326Y510000D01*
X50025Y512284D01*
X49143Y514413D01*
X47741Y516241D01*
X45913Y517643D01*
X43784Y518525D01*
X41500Y518825D01*
Y551175D01*
X43784Y551475D01*
X45913Y552357D01*
X47741Y553759D01*
X49143Y555587D01*
X50025Y557716D01*
X50326Y560000D01*
X50025Y562284D01*
X49143Y564413D01*
X47741Y566241D01*
X45913Y567643D01*
X43784Y568525D01*
X41500Y568825D01*
Y588000D01*
X807410Y588000D01*
Y569000D01*
D02*
G37*
G36*
X206843Y567594D02*
X206411Y567071D01*
X206236Y566813D01*
X206087Y566555D01*
X205966Y566300D01*
X205872Y566046D01*
X205804Y565794D01*
X205763Y565544D01*
X205750Y565295D01*
X204250D01*
X204237Y565544D01*
X204196Y565794D01*
X204128Y566046D01*
X204034Y566300D01*
X203913Y566555D01*
X203764Y566813D01*
X203589Y567071D01*
X203386Y567332D01*
X203157Y567594D01*
X202900Y567858D01*
X207100D01*
X206843Y567594D01*
D02*
G37*
G36*
X789533Y566521D02*
X789571Y566084D01*
X789634Y565699D01*
X789723Y565364D01*
X789838Y565082D01*
X789977Y564850D01*
X790142Y564670D01*
X790333Y564542D01*
X790549Y564465D01*
X790790Y564439D01*
X785710D01*
X785951Y564465D01*
X786167Y564542D01*
X786358Y564670D01*
X786523Y564850D01*
X786663Y565082D01*
X786777Y565364D01*
X786866Y565699D01*
X786929Y566084D01*
X786967Y566521D01*
X786980Y567010D01*
X789520D01*
X789533Y566521D01*
D02*
G37*
G36*
X223406Y562593D02*
X223929Y562161D01*
X224188Y561985D01*
X224445Y561837D01*
X224700Y561715D01*
X224954Y561621D01*
X225206Y561553D01*
X225456Y561513D01*
X225705Y561499D01*
Y559999D01*
X225456Y559986D01*
X225206Y559945D01*
X224954Y559878D01*
X224700Y559783D01*
X224445Y559662D01*
X224188Y559513D01*
X223929Y559338D01*
X223668Y559135D01*
X223406Y558906D01*
X223143Y558649D01*
Y562849D01*
X223406Y562593D01*
D02*
G37*
G36*
X177930Y558649D02*
X177759Y558807D01*
X177574Y558948D01*
X177374Y559072D01*
X177159Y559180D01*
X176929Y559272D01*
X176684Y559346D01*
X176424Y559404D01*
X176149Y559446D01*
X175859Y559471D01*
X175554Y559479D01*
Y562019D01*
X175859Y562028D01*
X176149Y562052D01*
X176424Y562094D01*
X176684Y562152D01*
X176929Y562227D01*
X177159Y562318D01*
X177374Y562426D01*
X177574Y562550D01*
X177759Y562691D01*
X177930Y562849D01*
Y558649D01*
D02*
G37*
G36*
X494778Y559213D02*
X494803Y558923D01*
X494845Y558648D01*
X494903Y558388D01*
X494977Y558143D01*
X495069Y557913D01*
X495177Y557698D01*
X495262Y557561D01*
X496031D01*
X495791Y557535D01*
X495577Y557458D01*
X495415Y557349D01*
X495442Y557313D01*
X495600Y557142D01*
X495219D01*
X495085Y556921D01*
X494972Y556639D01*
X494883Y556306D01*
X494821Y555922D01*
X494783Y555487D01*
X494770Y555000D01*
X492230D01*
X492217Y555487D01*
X492180Y555922D01*
X492117Y556306D01*
X492028Y556639D01*
X491915Y556921D01*
X491782Y557142D01*
X491400D01*
X491558Y557313D01*
X491585Y557349D01*
X491423Y557458D01*
X491209Y557535D01*
X490970Y557561D01*
X491738D01*
X491823Y557698D01*
X491931Y557913D01*
X492023Y558143D01*
X492097Y558388D01*
X492155Y558648D01*
X492197Y558923D01*
X492222Y559213D01*
X492230Y559518D01*
X494770D01*
X494778Y559213D01*
D02*
G37*
G36*
X482078D02*
X482103Y558923D01*
X482145Y558648D01*
X482203Y558388D01*
X482277Y558143D01*
X482369Y557913D01*
X482477Y557698D01*
X482562Y557561D01*
X483330D01*
X483091Y557535D01*
X482877Y557458D01*
X482715Y557349D01*
X482742Y557313D01*
X482900Y557142D01*
X482519D01*
X482385Y556921D01*
X482272Y556639D01*
X482183Y556306D01*
X482121Y555922D01*
X482083Y555487D01*
X482070Y555000D01*
X479530D01*
X479518Y555487D01*
X479480Y555922D01*
X479417Y556306D01*
X479328Y556639D01*
X479215Y556921D01*
X479082Y557142D01*
X478700D01*
X478858Y557313D01*
X478885Y557349D01*
X478723Y557458D01*
X478509Y557535D01*
X478270Y557561D01*
X479038D01*
X479123Y557698D01*
X479231Y557913D01*
X479323Y558143D01*
X479397Y558388D01*
X479455Y558648D01*
X479497Y558923D01*
X479522Y559213D01*
X479530Y559518D01*
X482070D01*
X482078Y559213D01*
D02*
G37*
G36*
X316978D02*
X317003Y558923D01*
X317045Y558648D01*
X317103Y558388D01*
X317178Y558143D01*
X317269Y557913D01*
X317377Y557698D01*
X317462Y557561D01*
X318230D01*
X317991Y557535D01*
X317777Y557458D01*
X317615Y557349D01*
X317642Y557313D01*
X317800Y557142D01*
X317418D01*
X317285Y556921D01*
X317172Y556639D01*
X317083Y556306D01*
X317020Y555922D01*
X316983Y555487D01*
X316970Y555000D01*
X314430D01*
X314417Y555487D01*
X314380Y555922D01*
X314317Y556306D01*
X314228Y556639D01*
X314115Y556921D01*
X313982Y557142D01*
X313600D01*
X313758Y557313D01*
X313785Y557349D01*
X313623Y557458D01*
X313409Y557535D01*
X313170Y557561D01*
X313938D01*
X314023Y557698D01*
X314131Y557913D01*
X314223Y558143D01*
X314297Y558388D01*
X314355Y558648D01*
X314397Y558923D01*
X314422Y559213D01*
X314430Y559518D01*
X316970D01*
X316978Y559213D01*
D02*
G37*
G36*
X304278D02*
X304303Y558923D01*
X304345Y558648D01*
X304403Y558388D01*
X304478Y558143D01*
X304569Y557913D01*
X304677Y557698D01*
X304762Y557561D01*
X305530D01*
X305291Y557535D01*
X305077Y557458D01*
X304915Y557349D01*
X304942Y557313D01*
X305100Y557142D01*
X304718D01*
X304585Y556921D01*
X304472Y556639D01*
X304384Y556306D01*
X304321Y555922D01*
X304283Y555487D01*
X304270Y555000D01*
X301730D01*
X301717Y555487D01*
X301680Y555922D01*
X301617Y556306D01*
X301528Y556639D01*
X301415Y556921D01*
X301282Y557142D01*
X300900D01*
X301058Y557313D01*
X301085Y557349D01*
X300923Y557458D01*
X300709Y557535D01*
X300470Y557561D01*
X301238D01*
X301323Y557698D01*
X301431Y557913D01*
X301523Y558143D01*
X301597Y558388D01*
X301655Y558648D01*
X301697Y558923D01*
X301722Y559213D01*
X301730Y559518D01*
X304270D01*
X304278Y559213D01*
D02*
G37*
G36*
X278878D02*
X278903Y558923D01*
X278945Y558648D01*
X279003Y558388D01*
X279077Y558143D01*
X279169Y557913D01*
X279277Y557698D01*
X279362Y557561D01*
X280131D01*
X279891Y557535D01*
X279677Y557458D01*
X279515Y557349D01*
X279542Y557313D01*
X279700Y557142D01*
X279319D01*
X279185Y556921D01*
X279072Y556639D01*
X278983Y556306D01*
X278920Y555922D01*
X278883Y555487D01*
X278870Y555000D01*
X276330D01*
X276318Y555487D01*
X276280Y555922D01*
X276217Y556306D01*
X276128Y556639D01*
X276015Y556921D01*
X275882Y557142D01*
X275500D01*
X275658Y557313D01*
X275685Y557349D01*
X275523Y557458D01*
X275309Y557535D01*
X275070Y557561D01*
X275838D01*
X275923Y557698D01*
X276031Y557913D01*
X276123Y558143D01*
X276197Y558388D01*
X276255Y558648D01*
X276297Y558923D01*
X276322Y559213D01*
X276330Y559518D01*
X278870D01*
X278878Y559213D01*
D02*
G37*
G36*
X146884Y553823D02*
X144116D01*
X144137Y553881D01*
X144157Y553987D01*
X144174Y554139D01*
X144212Y554881D01*
X144230Y556534D01*
X146770D01*
X146884Y553823D01*
D02*
G37*
G36*
X139756Y555770D02*
X139775Y555531D01*
X139807Y555297D01*
X139852Y555068D01*
X139909Y554846D01*
X139978Y554630D01*
X140061Y554419D01*
X140156Y554215D01*
X140264Y554016D01*
X140384Y553823D01*
X137616D01*
X137736Y554016D01*
X137844Y554215D01*
X137939Y554419D01*
X138022Y554630D01*
X138091Y554846D01*
X138149Y555068D01*
X138193Y555297D01*
X138225Y555531D01*
X138244Y555770D01*
X138250Y556016D01*
X139750D01*
X139756Y555770D01*
D02*
G37*
G36*
X182014Y558437D02*
X181873Y558251D01*
X181749Y558051D01*
X181641Y557836D01*
X181550Y557606D01*
X181475Y557361D01*
X181417Y557101D01*
X181375Y556826D01*
X181350Y556536D01*
X181343Y556245D01*
X181355Y555777D01*
X181393Y555345D01*
X181456Y554964D01*
X181545Y554634D01*
X181660Y554355D01*
X181799Y554126D01*
X181964Y553948D01*
X182155Y553821D01*
X182371Y553745D01*
X182612Y553719D01*
X177532D01*
X177773Y553745D01*
X177989Y553821D01*
X178180Y553948D01*
X178345Y554126D01*
X178485Y554355D01*
X178599Y554634D01*
X178688Y554964D01*
X178751Y555345D01*
X178789Y555777D01*
X178802Y556245D01*
X178794Y556536D01*
X178769Y556826D01*
X178727Y557101D01*
X178669Y557361D01*
X178595Y557606D01*
X178503Y557836D01*
X178395Y558051D01*
X178271Y558251D01*
X178130Y558437D01*
X177972Y558607D01*
X182172D01*
X182014Y558437D01*
D02*
G37*
G36*
X133863Y548119D02*
X133843Y548013D01*
X133826Y547861D01*
X133788Y547118D01*
X133770Y545466D01*
X131230D01*
X131116Y548177D01*
X133884D01*
X133863Y548119D01*
D02*
G37*
G36*
X133783Y543271D02*
X133821Y542834D01*
X133884Y542449D01*
X133973Y542114D01*
X134087Y541832D01*
X134227Y541600D01*
X134392Y541420D01*
X134583Y541292D01*
X134799Y541215D01*
X135040Y541189D01*
X129960D01*
X130201Y541215D01*
X130417Y541292D01*
X130608Y541420D01*
X130773Y541600D01*
X130913Y541832D01*
X131027Y542114D01*
X131116Y542449D01*
X131179Y542834D01*
X131217Y543271D01*
X131230Y543759D01*
X133770D01*
X133783Y543271D01*
D02*
G37*
G36*
X222843Y540594D02*
X222411Y540071D01*
X222236Y539813D01*
X222087Y539555D01*
X221966Y539300D01*
X221871Y539046D01*
X221804Y538794D01*
X221763Y538544D01*
X221750Y538295D01*
X220250D01*
X220236Y538544D01*
X220196Y538794D01*
X220128Y539046D01*
X220034Y539300D01*
X219912Y539555D01*
X219764Y539813D01*
X219589Y540071D01*
X219386Y540332D01*
X219156Y540594D01*
X218900Y540858D01*
X223100D01*
X222843Y540594D01*
D02*
G37*
G36*
X94361Y537891D02*
X94587Y537704D01*
X94819Y537539D01*
X95058Y537396D01*
X95303Y537275D01*
X95555Y537176D01*
X95813Y537099D01*
X96079Y537044D01*
X96350Y537011D01*
X96629Y537000D01*
Y535000D01*
X96350Y534989D01*
X96079Y534956D01*
X95813Y534901D01*
X95555Y534824D01*
X95303Y534725D01*
X95058Y534604D01*
X94819Y534461D01*
X94587Y534296D01*
X94361Y534109D01*
X94143Y533900D01*
Y538100D01*
X94361Y537891D01*
D02*
G37*
G36*
X221758Y533929D02*
X221780Y533669D01*
X221817Y533439D01*
X221870Y533240D01*
X221938Y533072D01*
X222020Y532934D01*
X222118Y532827D01*
X222230Y532750D01*
X222358Y532704D01*
X222500Y532689D01*
X219500D01*
X219643Y532704D01*
X219770Y532750D01*
X219883Y532827D01*
X219980Y532934D01*
X220063Y533072D01*
X220130Y533240D01*
X220182Y533439D01*
X220220Y533669D01*
X220243Y533929D01*
X220250Y534220D01*
X221750D01*
X221758Y533929D01*
D02*
G37*
G36*
X159016Y535264D02*
X159215Y535156D01*
X159419Y535061D01*
X159630Y534978D01*
X159846Y534908D01*
X160068Y534851D01*
X160297Y534807D01*
X160531Y534775D01*
X160770Y534756D01*
X161016Y534750D01*
Y533250D01*
X160770Y533244D01*
X160531Y533225D01*
X160297Y533193D01*
X160068Y533148D01*
X159846Y533091D01*
X159630Y533022D01*
X159419Y532939D01*
X159215Y532844D01*
X159016Y532736D01*
X158823Y532616D01*
Y535384D01*
X159016Y535264D01*
D02*
G37*
G36*
X112677Y532616D02*
X112548Y532689D01*
X112392Y532754D01*
X112208Y532812D01*
X111996Y532862D01*
X111758Y532904D01*
X111198Y532965D01*
X110527Y532996D01*
X110151Y533000D01*
Y535000D01*
X110527Y535004D01*
X111758Y535096D01*
X111996Y535138D01*
X112208Y535188D01*
X112392Y535246D01*
X112548Y535311D01*
X112677Y535384D01*
Y532616D01*
D02*
G37*
G36*
X133689Y534616D02*
X134133Y534239D01*
X134341Y534089D01*
X134541Y533965D01*
X134732Y533866D01*
X134913Y533793D01*
X135086Y533746D01*
X135249Y533725D01*
X135404Y533730D01*
X132770Y531096D01*
X132775Y531251D01*
X132753Y531414D01*
X132707Y531587D01*
X132634Y531768D01*
X132535Y531959D01*
X132411Y532159D01*
X132261Y532367D01*
X132086Y532585D01*
X131657Y533047D01*
X133453Y534843D01*
X133689Y534616D01*
D02*
G37*
G36*
X112677Y526116D02*
X112548Y526189D01*
X112392Y526254D01*
X112208Y526312D01*
X111996Y526362D01*
X111758Y526404D01*
X111198Y526465D01*
X110527Y526496D01*
X110151Y526500D01*
Y528500D01*
X110527Y528504D01*
X111758Y528596D01*
X111996Y528638D01*
X112208Y528688D01*
X112392Y528746D01*
X112548Y528811D01*
X112677Y528884D01*
Y526116D01*
D02*
G37*
G36*
X711310Y527791D02*
X711140Y527730D01*
X710990Y527628D01*
X710860Y527486D01*
X710750Y527303D01*
X710660Y527080D01*
X710590Y526816D01*
X710540Y526511D01*
X710510Y526166D01*
X710500Y525780D01*
X708500D01*
X708490Y526166D01*
X708460Y526511D01*
X708410Y526816D01*
X708340Y527080D01*
X708250Y527303D01*
X708140Y527486D01*
X708010Y527628D01*
X707860Y527730D01*
X707690Y527791D01*
X707500Y527811D01*
X711500D01*
X711310Y527791D01*
D02*
G37*
G36*
X94361Y528891D02*
X94587Y528704D01*
X94819Y528539D01*
X95058Y528396D01*
X95303Y528275D01*
X95555Y528176D01*
X95813Y528099D01*
X96079Y528044D01*
X96350Y528011D01*
X96629Y528000D01*
Y526000D01*
X96350Y525989D01*
X96079Y525956D01*
X95813Y525901D01*
X95555Y525824D01*
X95303Y525725D01*
X95058Y525604D01*
X94819Y525461D01*
X94587Y525296D01*
X94361Y525109D01*
X94143Y524900D01*
Y529100D01*
X94361Y528891D01*
D02*
G37*
G36*
X790549Y526335D02*
X790333Y526258D01*
X790142Y526130D01*
X789977Y525950D01*
X789838Y525718D01*
X789723Y525436D01*
X789634Y525101D01*
X789571Y524716D01*
X789533Y524279D01*
X789520Y523791D01*
X786980D01*
X786967Y524279D01*
X786929Y524716D01*
X786866Y525101D01*
X786777Y525436D01*
X786663Y525718D01*
X786523Y525950D01*
X786358Y526130D01*
X786167Y526258D01*
X785951Y526335D01*
X785710Y526361D01*
X790790D01*
X790549Y526335D01*
D02*
G37*
G36*
X112677Y519616D02*
X112619Y519637D01*
X112514Y519657D01*
X112361Y519674D01*
X111619Y519712D01*
X109966Y519730D01*
Y522270D01*
X112677Y522384D01*
Y519616D01*
D02*
G37*
G36*
X107313Y522942D02*
X107498Y522801D01*
X107698Y522677D01*
X107913Y522569D01*
X108143Y522477D01*
X108388Y522403D01*
X108648Y522345D01*
X108923Y522303D01*
X109213Y522278D01*
X109518Y522270D01*
Y519730D01*
X109213Y519722D01*
X108923Y519697D01*
X108648Y519655D01*
X108388Y519597D01*
X108143Y519523D01*
X107913Y519431D01*
X107698Y519323D01*
X107498Y519199D01*
X107313Y519058D01*
X107142Y518900D01*
Y523100D01*
X107313Y522942D01*
D02*
G37*
G36*
X158040Y519532D02*
X157799Y519518D01*
X157583Y519450D01*
X157392Y519328D01*
X157227Y519151D01*
X157087Y518921D01*
X156973Y518637D01*
X156884Y518299D01*
X156821Y517907D01*
X156783Y517462D01*
X156770Y516962D01*
X154230D01*
X154218Y517487D01*
X154180Y517958D01*
X154117Y518376D01*
X154030Y518739D01*
X153917Y519048D01*
X153779Y519304D01*
X153616Y519505D01*
X153428Y519653D01*
X153215Y519746D01*
X152977Y519786D01*
X158040Y519532D01*
D02*
G37*
G36*
X106942Y518687D02*
X106801Y518502D01*
X106677Y518302D01*
X106569Y518087D01*
X106477Y517857D01*
X106403Y517612D01*
X106345Y517352D01*
X106303Y517077D01*
X106278Y516787D01*
X106270Y516482D01*
X103730D01*
X103722Y516787D01*
X103697Y517077D01*
X103655Y517352D01*
X103597Y517612D01*
X103523Y517857D01*
X103431Y518087D01*
X103323Y518302D01*
X103199Y518502D01*
X103058Y518687D01*
X102900Y518858D01*
X107100D01*
X106942Y518687D01*
D02*
G37*
G36*
X182371Y520285D02*
X182155Y520208D01*
X181964Y520080D01*
X181799Y519900D01*
X181660Y519668D01*
X181545Y519386D01*
X181456Y519051D01*
X181393Y518666D01*
X181355Y518229D01*
X181353Y518148D01*
X181374Y517888D01*
X181415Y517613D01*
X181472Y517352D01*
X181544Y517105D01*
X181633Y516873D01*
X181738Y516656D01*
X181860Y516453D01*
X181997Y516265D01*
X182151Y516091D01*
X177952Y516192D01*
X178114Y516359D01*
X178258Y516541D01*
X178386Y516738D01*
X178496Y516951D01*
X178590Y517179D01*
X178666Y517422D01*
X178726Y517681D01*
X178768Y517956D01*
X178790Y518205D01*
X178789Y518229D01*
X178751Y518666D01*
X178688Y519051D01*
X178599Y519386D01*
X178485Y519668D01*
X178345Y519900D01*
X178180Y520080D01*
X177989Y520208D01*
X177773Y520285D01*
X177532Y520311D01*
X182612D01*
X182371Y520285D01*
D02*
G37*
G36*
X637000Y514000D02*
X615000D01*
Y570000D01*
X637000D01*
Y514000D01*
D02*
G37*
G36*
X746010Y515354D02*
X746040Y515014D01*
X746090Y514714D01*
X746160Y514454D01*
X746250Y514234D01*
X746360Y514053D01*
X746490Y513913D01*
X746640Y513814D01*
X746810Y513754D01*
X747000Y513733D01*
X743000D01*
X743190Y513754D01*
X743360Y513814D01*
X743510Y513913D01*
X743640Y514053D01*
X743750Y514234D01*
X743840Y514454D01*
X743910Y514714D01*
X743960Y515014D01*
X743990Y515354D01*
X744000Y515733D01*
X746000D01*
X746010Y515354D01*
D02*
G37*
G36*
X710510Y513348D02*
X710540Y513003D01*
X710590Y512698D01*
X710660Y512434D01*
X710750Y512211D01*
X710860Y512028D01*
X710990Y511886D01*
X711140Y511784D01*
X711310Y511723D01*
X711500Y511703D01*
X707500D01*
X707690Y511723D01*
X707860Y511784D01*
X708010Y511886D01*
X708140Y512028D01*
X708250Y512211D01*
X708340Y512434D01*
X708410Y512698D01*
X708460Y513003D01*
X708490Y513348D01*
X708500Y513733D01*
X710500D01*
X710510Y513348D01*
D02*
G37*
G36*
X789533Y512271D02*
X789571Y511834D01*
X789634Y511449D01*
X789723Y511114D01*
X789838Y510832D01*
X789977Y510600D01*
X790142Y510420D01*
X790333Y510292D01*
X790549Y510215D01*
X790790Y510189D01*
X785710D01*
X785951Y510215D01*
X786167Y510292D01*
X786358Y510420D01*
X786523Y510600D01*
X786663Y510832D01*
X786777Y511114D01*
X786866Y511449D01*
X786929Y511834D01*
X786967Y512271D01*
X786980Y512760D01*
X789520D01*
X789533Y512271D01*
D02*
G37*
G36*
X156778Y508213D02*
X156803Y507923D01*
X156845Y507648D01*
X156903Y507388D01*
X156978Y507143D01*
X157069Y506913D01*
X157177Y506698D01*
X157301Y506498D01*
X157442Y506313D01*
X157600Y506142D01*
X153400D01*
X153558Y506313D01*
X153699Y506498D01*
X153823Y506698D01*
X153931Y506913D01*
X154023Y507143D01*
X154097Y507388D01*
X154155Y507648D01*
X154197Y507923D01*
X154222Y508213D01*
X154230Y508518D01*
X156770D01*
X156778Y508213D01*
D02*
G37*
G36*
X133863Y507619D02*
X133843Y507513D01*
X133826Y507361D01*
X133788Y506618D01*
X133770Y504966D01*
X131230D01*
X131116Y507677D01*
X133884D01*
X133863Y507619D01*
D02*
G37*
G36*
X733000Y548000D02*
Y503000D01*
X715500D01*
Y503764D01*
Y513264D01*
X712147D01*
X712132Y513439D01*
X712123Y513776D01*
X712049Y513942D01*
Y525572D01*
X712123Y525738D01*
X712132Y526075D01*
X712147Y526250D01*
X716750D01*
Y543750D01*
X702250D01*
Y526250D01*
X706853D01*
X706868Y526075D01*
X706877Y525738D01*
X706951Y525572D01*
Y513942D01*
X706877Y513776D01*
X706868Y513439D01*
X706853Y513264D01*
X703500D01*
Y503764D01*
Y503000D01*
X698624D01*
X698624Y526250D01*
X698750D01*
Y543750D01*
X684250D01*
Y542902D01*
X683876Y542000D01*
X683876Y526000D01*
X684352Y524852D01*
X689876Y519328D01*
Y503764D01*
X679500D01*
Y503624D01*
X643000D01*
Y562451D01*
X718549D01*
X733000Y548000D01*
D02*
G37*
G36*
X133778Y502213D02*
X133803Y501923D01*
X133845Y501648D01*
X133903Y501388D01*
X133977Y501143D01*
X134069Y500913D01*
X134177Y500698D01*
X134301Y500498D01*
X134442Y500313D01*
X134600Y500142D01*
X130400D01*
X130558Y500313D01*
X130699Y500498D01*
X130823Y500698D01*
X130931Y500913D01*
X131023Y501143D01*
X131097Y501388D01*
X131155Y501648D01*
X131197Y501923D01*
X131222Y502213D01*
X131230Y502518D01*
X133770D01*
X133778Y502213D01*
D02*
G37*
G36*
X705061Y496325D02*
X705037Y496531D01*
X704966Y496715D01*
X704847Y496877D01*
X704680Y497018D01*
X704465Y497137D01*
X704203Y497235D01*
X703893Y497310D01*
X703536Y497365D01*
X703131Y497397D01*
X702678Y497408D01*
Y499948D01*
X703131Y499959D01*
X703536Y499991D01*
X703893Y500045D01*
X704203Y500121D01*
X704465Y500219D01*
X704680Y500338D01*
X704847Y500478D01*
X704966Y500641D01*
X705037Y500825D01*
X705061Y501031D01*
Y496325D01*
D02*
G37*
G36*
X697000Y496000D02*
X679000Y496000D01*
X677000Y494000D01*
X616000D01*
X616000Y501102D01*
X616898Y502000D01*
X691500D01*
Y520000D01*
X685500Y526000D01*
X685500Y542000D01*
X697000D01*
X697000Y496000D01*
D02*
G37*
G36*
X134442Y495687D02*
X134301Y495502D01*
X134177Y495302D01*
X134069Y495087D01*
X133977Y494857D01*
X133903Y494612D01*
X133845Y494352D01*
X133803Y494077D01*
X133778Y493787D01*
X133770Y493482D01*
X131230D01*
X131222Y493787D01*
X131197Y494077D01*
X131155Y494352D01*
X131097Y494612D01*
X131023Y494857D01*
X130931Y495087D01*
X130823Y495302D01*
X130699Y495502D01*
X130558Y495687D01*
X130400Y495858D01*
X134600D01*
X134442Y495687D01*
D02*
G37*
G36*
X200758Y493679D02*
X200780Y493419D01*
X200818Y493189D01*
X200870Y492990D01*
X200938Y492822D01*
X201020Y492684D01*
X201117Y492577D01*
X201230Y492500D01*
X201357Y492454D01*
X201500Y492439D01*
X198500D01*
X198643Y492454D01*
X198770Y492500D01*
X198883Y492577D01*
X198980Y492684D01*
X199062Y492822D01*
X199130Y492990D01*
X199182Y493189D01*
X199220Y493419D01*
X199242Y493679D01*
X199250Y493969D01*
X200750D01*
X200758Y493679D01*
D02*
G37*
G36*
X738061Y487514D02*
X738041Y487704D01*
X737980Y487874D01*
X737878Y488024D01*
X737736Y488154D01*
X737553Y488264D01*
X737330Y488354D01*
X737066Y488424D01*
X736761Y488474D01*
X736416Y488504D01*
X736031Y488514D01*
Y490514D01*
X736416Y490524D01*
X736761Y490554D01*
X737066Y490604D01*
X737330Y490674D01*
X737553Y490764D01*
X737736Y490874D01*
X737878Y491004D01*
X737980Y491154D01*
X738041Y491324D01*
X738061Y491514D01*
Y487514D01*
D02*
G37*
G36*
X732959Y491324D02*
X733020Y491154D01*
X733122Y491004D01*
X733264Y490874D01*
X733447Y490764D01*
X733670Y490674D01*
X733934Y490604D01*
X734239Y490554D01*
X734584Y490524D01*
X734969Y490514D01*
Y488514D01*
X734584Y488504D01*
X734239Y488474D01*
X733934Y488424D01*
X733670Y488354D01*
X733447Y488264D01*
X733264Y488154D01*
X733122Y488024D01*
X733020Y487874D01*
X732959Y487704D01*
X732939Y487514D01*
Y491514D01*
X732959Y491324D01*
D02*
G37*
G36*
X719061Y487514D02*
X719041Y487704D01*
X718980Y487874D01*
X718878Y488024D01*
X718736Y488154D01*
X718553Y488264D01*
X718330Y488354D01*
X718066Y488424D01*
X717762Y488474D01*
X717416Y488504D01*
X717030Y488514D01*
Y490514D01*
X717416Y490524D01*
X717762Y490554D01*
X718066Y490604D01*
X718330Y490674D01*
X718553Y490764D01*
X718736Y490874D01*
X718878Y491004D01*
X718980Y491154D01*
X719041Y491324D01*
X719061Y491514D01*
Y487514D01*
D02*
G37*
G36*
X713990Y491324D02*
X714050Y491154D01*
X714150Y491004D01*
X714290Y490874D01*
X714470Y490764D01*
X714690Y490674D01*
X714950Y490604D01*
X715250Y490554D01*
X715590Y490524D01*
X715970Y490514D01*
Y488514D01*
X715590Y488504D01*
X715250Y488474D01*
X714950Y488424D01*
X714690Y488354D01*
X714470Y488264D01*
X714290Y488154D01*
X714150Y488024D01*
X714050Y487874D01*
X713990Y487704D01*
X713970Y487514D01*
Y491514D01*
X713990Y491324D01*
D02*
G37*
G36*
X193811Y483500D02*
X193796Y483643D01*
X193750Y483770D01*
X193673Y483882D01*
X193566Y483980D01*
X193428Y484062D01*
X193260Y484130D01*
X193061Y484183D01*
X192831Y484220D01*
X192571Y484243D01*
X192281Y484250D01*
Y485750D01*
X192571Y485757D01*
X192831Y485780D01*
X193061Y485817D01*
X193260Y485870D01*
X193428Y485938D01*
X193566Y486020D01*
X193673Y486118D01*
X193750Y486230D01*
X193796Y486357D01*
X193811Y486500D01*
Y483500D01*
D02*
G37*
G36*
X790060Y480760D02*
X789890Y480700D01*
X789740Y480601D01*
X789610Y480461D01*
X789500Y480280D01*
X789410Y480061D01*
X789340Y479800D01*
X789290Y479501D01*
X789260Y479160D01*
X789250Y478781D01*
X787250D01*
X787240Y479160D01*
X787210Y479501D01*
X787160Y479800D01*
X787090Y480061D01*
X787000Y480280D01*
X786890Y480461D01*
X786760Y480601D01*
X786610Y480700D01*
X786440Y480760D01*
X786250Y480780D01*
X790250D01*
X790060Y480760D01*
D02*
G37*
G36*
X734045Y467672D02*
X734106Y467326D01*
X734208Y467021D01*
X734350Y466757D01*
X734533Y466534D01*
X734756Y466351D01*
X735020Y466208D01*
X735325Y466107D01*
X735671Y466046D01*
X736057Y466026D01*
Y463994D01*
X735671Y463973D01*
X735325Y463912D01*
X735020Y463811D01*
X734756Y463669D01*
X734533Y463486D01*
X734350Y463262D01*
X734208Y462998D01*
X734106Y462693D01*
X734045Y462348D01*
X734025Y461962D01*
X731993D01*
X731972Y462348D01*
X731911Y462693D01*
X731810Y462998D01*
X731667Y463262D01*
X731485Y463486D01*
X731261Y463669D01*
X730997Y463811D01*
X730692Y463912D01*
X730347Y463973D01*
X729961Y463994D01*
Y466026D01*
X730347Y466046D01*
X730692Y466107D01*
X730997Y466208D01*
X731261Y466351D01*
X731485Y466534D01*
X731667Y466757D01*
X731810Y467021D01*
X731911Y467326D01*
X731972Y467672D01*
X731993Y468058D01*
X734025D01*
X734045Y467672D01*
D02*
G37*
G36*
X252661Y461000D02*
X252621Y461380D01*
X252500Y461720D01*
X252298Y462020D01*
X252016Y462280D01*
X251653Y462500D01*
X251210Y462680D01*
X250686Y462820D01*
X250082Y462920D01*
X249396Y462980D01*
X248631Y463000D01*
Y467000D01*
X249396Y467020D01*
X250082Y467080D01*
X250686Y467180D01*
X251210Y467320D01*
X251653Y467500D01*
X252016Y467720D01*
X252298Y467980D01*
X252500Y468280D01*
X252621Y468620D01*
X252661Y469000D01*
Y461000D01*
D02*
G37*
G36*
X225760Y468620D02*
X225880Y468280D01*
X226080Y467980D01*
X226360Y467720D01*
X226720Y467500D01*
X227160Y467320D01*
X227680Y467180D01*
X228280Y467080D01*
X228960Y467020D01*
X229720Y467000D01*
Y463000D01*
X228960Y462980D01*
X228280Y462920D01*
X227680Y462820D01*
X227160Y462680D01*
X226720Y462500D01*
X226360Y462280D01*
X226080Y462020D01*
X225880Y461720D01*
X225760Y461380D01*
X225720Y461000D01*
Y469000D01*
X225760Y468620D01*
D02*
G37*
G36*
X196311Y461000D02*
X196271Y461380D01*
X196150Y461720D01*
X195948Y462020D01*
X195666Y462280D01*
X195303Y462500D01*
X194860Y462680D01*
X194336Y462820D01*
X193731Y462920D01*
X193046Y462980D01*
X192281Y463000D01*
Y467000D01*
X193046Y467020D01*
X193731Y467080D01*
X194336Y467180D01*
X194860Y467320D01*
X195303Y467500D01*
X195666Y467720D01*
X195948Y467980D01*
X196150Y468280D01*
X196271Y468620D01*
X196311Y469000D01*
Y461000D01*
D02*
G37*
G36*
X172979Y468620D02*
X173100Y468280D01*
X173302Y467980D01*
X173584Y467720D01*
X173947Y467500D01*
X174390Y467320D01*
X174914Y467180D01*
X175519Y467080D01*
X176204Y467020D01*
X176970Y467000D01*
Y463000D01*
X176204Y462980D01*
X175519Y462920D01*
X174914Y462820D01*
X174390Y462680D01*
X173947Y462500D01*
X173584Y462280D01*
X173302Y462020D01*
X173100Y461720D01*
X172979Y461380D01*
X172939Y461000D01*
Y469000D01*
X172979Y468620D01*
D02*
G37*
G36*
X202888Y463519D02*
X202863Y463375D01*
X202841Y463154D01*
X202793Y462029D01*
X202770Y459455D01*
X200230D01*
X200085Y463587D01*
X202915D01*
X202888Y463519D01*
D02*
G37*
G36*
X203799Y458035D02*
X203583Y457958D01*
X203392Y457830D01*
X203227Y457650D01*
X203088Y457418D01*
X202973Y457136D01*
X202884Y456801D01*
X202821Y456416D01*
X202783Y455979D01*
X202770Y455490D01*
X200230D01*
X200217Y455979D01*
X200179Y456416D01*
X200116Y456801D01*
X200027Y457136D01*
X199913Y457418D01*
X199773Y457650D01*
X199608Y457830D01*
X199417Y457958D01*
X199201Y458035D01*
X198960Y458061D01*
X204040D01*
X203799Y458035D01*
D02*
G37*
G36*
X202783Y454021D02*
X202821Y453584D01*
X202884Y453199D01*
X202973Y452864D01*
X203088Y452582D01*
X203227Y452350D01*
X203392Y452170D01*
X203583Y452042D01*
X203799Y451965D01*
X204040Y451939D01*
X198960D01*
X199201Y451965D01*
X199417Y452042D01*
X199608Y452170D01*
X199773Y452350D01*
X199913Y452582D01*
X200027Y452864D01*
X200116Y453199D01*
X200179Y453584D01*
X200217Y454021D01*
X200230Y454510D01*
X202770D01*
X202783Y454021D01*
D02*
G37*
G36*
X184970Y452000D02*
X184931Y451988D01*
X184869Y451950D01*
X184784Y451887D01*
X184548Y451684D01*
X183803Y450973D01*
X183560Y450732D01*
X180732Y453560D01*
X182000Y454970D01*
X184970Y452000D01*
D02*
G37*
G36*
X690000Y491284D02*
X690071Y491083D01*
X690198Y490892D01*
X690376Y490727D01*
X690605Y490588D01*
X690884Y490473D01*
X691214Y490384D01*
X691595Y490321D01*
X692027Y490283D01*
X692510Y490270D01*
Y487730D01*
X692027Y487717D01*
X691595Y487679D01*
X691214Y487616D01*
X690884Y487527D01*
X690605Y487412D01*
X690376Y487273D01*
X690198Y487108D01*
X690071Y486917D01*
X690000Y486716D01*
X690000Y450000D01*
X644000D01*
X644000Y491000D01*
X678000D01*
X680000Y493000D01*
X690000D01*
Y491284D01*
D02*
G37*
G36*
X181353Y449625D02*
X181385Y449225D01*
X181440Y448872D01*
X181515Y448566D01*
X181613Y448308D01*
X181732Y448096D01*
X181873Y447931D01*
X182035Y447814D01*
X182219Y447743D01*
X182425Y447719D01*
X181392D01*
X181365Y447102D01*
X181342Y444527D01*
X178802D01*
X178690Y447719D01*
X177720D01*
X177925Y447743D01*
X178109Y447814D01*
X178272Y447931D01*
X178412Y448096D01*
X178531Y448308D01*
X178629Y448566D01*
X178705Y448872D01*
X178759Y449225D01*
X178791Y449625D01*
X178802Y450072D01*
X181342D01*
X181353Y449625D01*
D02*
G37*
G36*
X231358Y442900D02*
X231187Y443058D01*
X231002Y443199D01*
X230802Y443323D01*
X230587Y443431D01*
X230357Y443522D01*
X230112Y443597D01*
X229852Y443655D01*
X229577Y443697D01*
X229287Y443722D01*
X228982Y443730D01*
X228982Y446270D01*
X229287Y446278D01*
X229577Y446303D01*
X229852Y446345D01*
X230112Y446403D01*
X230357Y446478D01*
X230587Y446569D01*
X230802Y446677D01*
X231002Y446801D01*
X231187Y446942D01*
X231358Y447100D01*
X231358Y442900D01*
D02*
G37*
G36*
X225745Y447299D02*
X225821Y447083D01*
X225948Y446892D01*
X226126Y446727D01*
X226355Y446587D01*
X226634Y446473D01*
X226964Y446384D01*
X227345Y446321D01*
X227777Y446283D01*
X228260Y446270D01*
Y443730D01*
X227777Y443717D01*
X227345Y443679D01*
X226964Y443616D01*
X226634Y443527D01*
X226355Y443413D01*
X226126Y443273D01*
X225948Y443108D01*
X225821Y442917D01*
X225745Y442701D01*
X225720Y442460D01*
Y447540D01*
X225745Y447299D01*
D02*
G37*
G36*
X144763Y442456D02*
X144804Y442206D01*
X144872Y441954D01*
X144966Y441700D01*
X145087Y441445D01*
X145236Y441188D01*
X145412Y440929D01*
X145614Y440668D01*
X145843Y440406D01*
X146100Y440142D01*
X141900D01*
X142156Y440406D01*
X142589Y440929D01*
X142764Y441188D01*
X142913Y441445D01*
X143034Y441700D01*
X143128Y441954D01*
X143196Y442206D01*
X143237Y442456D01*
X143250Y442705D01*
X144750D01*
X144763Y442456D01*
D02*
G37*
G36*
X162799Y434285D02*
X162583Y434208D01*
X162392Y434080D01*
X162227Y433900D01*
X162088Y433668D01*
X161973Y433386D01*
X161884Y433051D01*
X161821Y432666D01*
X161783Y432229D01*
X161770Y431740D01*
X159230D01*
X159217Y432229D01*
X159179Y432666D01*
X159116Y433051D01*
X159027Y433386D01*
X158913Y433668D01*
X158773Y433900D01*
X158608Y434080D01*
X158417Y434208D01*
X158201Y434285D01*
X157960Y434311D01*
X163040D01*
X162799Y434285D01*
D02*
G37*
G36*
X231358Y423400D02*
X231187Y423558D01*
X231002Y423699D01*
X230802Y423823D01*
X230587Y423931D01*
X230357Y424022D01*
X230112Y424097D01*
X229852Y424155D01*
X229577Y424197D01*
X229287Y424222D01*
X228982Y424230D01*
Y426770D01*
X229287Y426778D01*
X229577Y426803D01*
X229852Y426845D01*
X230112Y426903D01*
X230357Y426977D01*
X230587Y427069D01*
X230802Y427177D01*
X231002Y427301D01*
X231187Y427442D01*
X231358Y427600D01*
Y423400D01*
D02*
G37*
G36*
X225965Y427799D02*
X226042Y427583D01*
X226170Y427392D01*
X226350Y427227D01*
X226582Y427087D01*
X226864Y426973D01*
X227199Y426884D01*
X227584Y426821D01*
X228021Y426783D01*
X228510Y426770D01*
Y424230D01*
X228021Y424217D01*
X227584Y424179D01*
X227199Y424116D01*
X226864Y424027D01*
X226582Y423912D01*
X226350Y423773D01*
X226170Y423608D01*
X226042Y423417D01*
X225965Y423201D01*
X225939Y422960D01*
Y428040D01*
X225965Y427799D01*
D02*
G37*
G36*
X161783Y425021D02*
X161821Y424584D01*
X161884Y424198D01*
X161973Y423864D01*
X162088Y423582D01*
X162227Y423350D01*
X162392Y423170D01*
X162583Y423042D01*
X162799Y422965D01*
X163040Y422939D01*
X157960D01*
X158201Y422965D01*
X158417Y423042D01*
X158608Y423170D01*
X158773Y423350D01*
X158913Y423582D01*
X159027Y423864D01*
X159116Y424198D01*
X159179Y424584D01*
X159217Y425021D01*
X159230Y425509D01*
X161770D01*
X161783Y425021D01*
D02*
G37*
G36*
X190030Y413460D02*
X190005Y413701D01*
X189929Y413917D01*
X189802Y414108D01*
X189624Y414273D01*
X189396Y414412D01*
X189116Y414527D01*
X188786Y414616D01*
X188405Y414679D01*
X187973Y414717D01*
X187491Y414730D01*
Y417270D01*
X187973Y417283D01*
X188405Y417321D01*
X188786Y417384D01*
X189116Y417473D01*
X189396Y417588D01*
X189624Y417727D01*
X189802Y417892D01*
X189929Y418083D01*
X190005Y418299D01*
X190030Y418540D01*
Y413460D01*
D02*
G37*
G36*
X184745Y418299D02*
X184821Y418083D01*
X184948Y417892D01*
X185126Y417727D01*
X185355Y417588D01*
X185634Y417473D01*
X185964Y417384D01*
X186345Y417321D01*
X186777Y417283D01*
X187260Y417270D01*
Y414730D01*
X186777Y414717D01*
X186345Y414679D01*
X185964Y414616D01*
X185634Y414527D01*
X185355Y414412D01*
X185126Y414273D01*
X184948Y414108D01*
X184821Y413917D01*
X184745Y413701D01*
X184720Y413460D01*
Y418540D01*
X184745Y418299D01*
D02*
G37*
G36*
X212031Y405000D02*
X212015Y405142D01*
X211971Y405270D01*
X211896Y405382D01*
X211791Y405480D01*
X211656Y405563D01*
X211490Y405630D01*
X211296Y405682D01*
X211070Y405720D01*
X210816Y405742D01*
X210530Y405750D01*
Y407250D01*
X210816Y407257D01*
X211070Y407280D01*
X211296Y407317D01*
X211490Y407370D01*
X211656Y407437D01*
X211791Y407520D01*
X211896Y407617D01*
X211971Y407730D01*
X212015Y407858D01*
X212031Y408000D01*
Y405000D01*
D02*
G37*
G36*
X291658Y357446D02*
X291530Y357400D01*
X291418Y357323D01*
X291320Y357216D01*
X291238Y357078D01*
X291170Y356910D01*
X291118Y356711D01*
X291080Y356481D01*
X291058Y356221D01*
X291050Y355930D01*
X289550D01*
X289543Y356221D01*
X289520Y356481D01*
X289483Y356711D01*
X289430Y356910D01*
X289363Y357078D01*
X289280Y357216D01*
X289183Y357323D01*
X289070Y357400D01*
X288943Y357446D01*
X288800Y357461D01*
X291800D01*
X291658Y357446D01*
D02*
G37*
G36*
X278958D02*
X278830Y357400D01*
X278718Y357323D01*
X278620Y357216D01*
X278538Y357078D01*
X278470Y356910D01*
X278418Y356711D01*
X278380Y356481D01*
X278358Y356221D01*
X278350Y355930D01*
X276850D01*
X276843Y356221D01*
X276820Y356481D01*
X276783Y356711D01*
X276730Y356910D01*
X276663Y357078D01*
X276580Y357216D01*
X276483Y357323D01*
X276370Y357400D01*
X276243Y357446D01*
X276100Y357461D01*
X279100D01*
X278958Y357446D01*
D02*
G37*
G36*
X406410Y357441D02*
X406240Y357380D01*
X406090Y357278D01*
X405960Y357136D01*
X405850Y356953D01*
X405760Y356730D01*
X405690Y356466D01*
X405640Y356161D01*
X405610Y355816D01*
X405600Y355430D01*
X403600D01*
X403590Y355816D01*
X403560Y356161D01*
X403510Y356466D01*
X403440Y356730D01*
X403350Y356953D01*
X403240Y357136D01*
X403110Y357278D01*
X402960Y357380D01*
X402790Y357441D01*
X402600Y357461D01*
X406600D01*
X406410Y357441D01*
D02*
G37*
G36*
X584699Y357435D02*
X584483Y357358D01*
X584292Y357230D01*
X584127Y357050D01*
X583988Y356818D01*
X583873Y356536D01*
X583784Y356201D01*
X583721Y355816D01*
X583683Y355379D01*
X583670Y354891D01*
X581130D01*
X581117Y355379D01*
X581079Y355816D01*
X581016Y356201D01*
X580927Y356536D01*
X580813Y356818D01*
X580673Y357050D01*
X580508Y357230D01*
X580317Y357358D01*
X580101Y357435D01*
X579860Y357461D01*
X584940D01*
X584699Y357435D01*
D02*
G37*
G36*
X89033Y352960D02*
X89008Y353201D01*
X88930Y353417D01*
X88802Y353608D01*
X88622Y353773D01*
X88391Y353913D01*
X88108Y354027D01*
X87774Y354116D01*
X87388Y354179D01*
X86951Y354217D01*
X86463Y354230D01*
Y356770D01*
X86951Y356783D01*
X87388Y356821D01*
X87774Y356884D01*
X88108Y356973D01*
X88391Y357088D01*
X88622Y357227D01*
X88802Y357392D01*
X88930Y357583D01*
X89008Y357799D01*
X89033Y358040D01*
Y352960D01*
D02*
G37*
G36*
X583678Y354213D02*
X583703Y353923D01*
X583745Y353648D01*
X583803Y353388D01*
X583877Y353143D01*
X583969Y352913D01*
X584077Y352698D01*
X584201Y352498D01*
X584342Y352313D01*
X584500Y352142D01*
X580300D01*
X580458Y352313D01*
X580599Y352498D01*
X580723Y352698D01*
X580831Y352913D01*
X580923Y353143D01*
X580997Y353388D01*
X581055Y353648D01*
X581097Y353923D01*
X581122Y354213D01*
X581130Y354518D01*
X583670D01*
X583678Y354213D01*
D02*
G37*
G36*
X408009Y332738D02*
X408040Y332507D01*
X408093Y332278D01*
X408169Y332049D01*
X408267Y331822D01*
X408388Y331596D01*
X408531Y331371D01*
X408696Y331147D01*
X408883Y330925D01*
X409093Y330703D01*
X407297Y328907D01*
X407075Y329117D01*
X406853Y329304D01*
X406629Y329469D01*
X406404Y329612D01*
X406178Y329733D01*
X405951Y329831D01*
X405722Y329907D01*
X405493Y329960D01*
X405262Y329991D01*
X405030Y330000D01*
X408000Y332970D01*
X408009Y332738D01*
D02*
G37*
G36*
X72704Y317610D02*
X73642Y316813D01*
X74056Y316523D01*
X74433Y316304D01*
X74774Y316157D01*
X75079Y316083D01*
X75346Y316080D01*
X75578Y316148D01*
X75773Y316289D01*
X72211Y312727D01*
X72352Y312922D01*
X72420Y313154D01*
X72417Y313421D01*
X72343Y313726D01*
X72196Y314067D01*
X71977Y314444D01*
X71687Y314858D01*
X71325Y315309D01*
X70384Y316320D01*
X72181Y318116D01*
X72704Y317610D01*
D02*
G37*
G36*
X88615Y310399D02*
X88692Y310183D01*
X88820Y309992D01*
X89000Y309827D01*
X89232Y309688D01*
X89514Y309573D01*
X89849Y309484D01*
X90234Y309421D01*
X90671Y309383D01*
X91159Y309370D01*
Y306830D01*
X90671Y306817D01*
X90234Y306779D01*
X89849Y306716D01*
X89514Y306627D01*
X89232Y306513D01*
X89000Y306373D01*
X88820Y306208D01*
X88692Y306017D01*
X88615Y305801D01*
X88589Y305560D01*
Y310640D01*
X88615Y310399D01*
D02*
G37*
G36*
X451715Y307299D02*
X451792Y307083D01*
X451920Y306892D01*
X452100Y306727D01*
X452332Y306587D01*
X452614Y306473D01*
X452949Y306384D01*
X453334Y306321D01*
X453771Y306283D01*
X453823Y306281D01*
X454077Y306303D01*
X454352Y306345D01*
X454612Y306403D01*
X454857Y306477D01*
X455087Y306569D01*
X455302Y306677D01*
X455502Y306801D01*
X455687Y306942D01*
X455858Y307100D01*
X455858Y302900D01*
X455687Y303058D01*
X455502Y303199D01*
X455302Y303323D01*
X455087Y303431D01*
X454857Y303522D01*
X454612Y303597D01*
X454352Y303655D01*
X454077Y303697D01*
X453823Y303719D01*
X453771Y303717D01*
X453334Y303679D01*
X452949Y303616D01*
X452614Y303527D01*
X452332Y303412D01*
X452100Y303273D01*
X451920Y303108D01*
X451792Y302917D01*
X451715Y302701D01*
X451689Y302460D01*
Y307540D01*
X451715Y307299D01*
D02*
G37*
G36*
X422281Y302460D02*
X422255Y302701D01*
X422179Y302917D01*
X422052Y303108D01*
X421874Y303273D01*
X421646Y303412D01*
X421366Y303527D01*
X421036Y303616D01*
X420655Y303679D01*
X420223Y303717D01*
X419740Y303730D01*
Y306270D01*
X420223Y306283D01*
X420655Y306321D01*
X421036Y306384D01*
X421366Y306473D01*
X421646Y306587D01*
X421874Y306727D01*
X422052Y306892D01*
X422179Y307083D01*
X422255Y307299D01*
X422281Y307540D01*
Y302460D01*
D02*
G37*
G36*
X342715Y305299D02*
X342792Y305083D01*
X342920Y304892D01*
X343100Y304727D01*
X343332Y304587D01*
X343615Y304473D01*
X343949Y304384D01*
X344334Y304321D01*
X344771Y304283D01*
X345260Y304270D01*
Y301730D01*
X344771Y301717D01*
X344334Y301679D01*
X343949Y301616D01*
X343615Y301527D01*
X343332Y301413D01*
X343100Y301273D01*
X342920Y301108D01*
X342792Y300917D01*
X342715Y300701D01*
X342689Y300460D01*
Y305540D01*
X342715Y305299D01*
D02*
G37*
G36*
X317281Y300460D02*
X317255Y300701D01*
X317179Y300917D01*
X317052Y301108D01*
X316874Y301273D01*
X316646Y301413D01*
X316366Y301527D01*
X316036Y301616D01*
X315655Y301679D01*
X315223Y301717D01*
X314741Y301730D01*
Y304270D01*
X315223Y304283D01*
X315655Y304321D01*
X316036Y304384D01*
X316366Y304473D01*
X316646Y304587D01*
X316874Y304727D01*
X317052Y304892D01*
X317179Y305083D01*
X317255Y305299D01*
X317281Y305540D01*
Y300460D01*
D02*
G37*
G36*
X289093Y302297D02*
X288883Y302075D01*
X288696Y301852D01*
X288531Y301629D01*
X288388Y301404D01*
X288267Y301178D01*
X288169Y300951D01*
X288093Y300722D01*
X288040Y300492D01*
X288009Y300262D01*
X288000Y300030D01*
X285030Y303000D01*
X285262Y303009D01*
X285493Y303040D01*
X285722Y303093D01*
X285951Y303169D01*
X286178Y303267D01*
X286404Y303388D01*
X286629Y303530D01*
X286853Y303696D01*
X287075Y303883D01*
X287297Y304093D01*
X289093Y302297D01*
D02*
G37*
G36*
X282858Y297900D02*
X282687Y298058D01*
X282502Y298199D01*
X282302Y298323D01*
X282087Y298431D01*
X281857Y298522D01*
X281612Y298597D01*
X281352Y298655D01*
X281077Y298697D01*
X280787Y298722D01*
X280482Y298730D01*
Y301270D01*
X280787Y301278D01*
X281077Y301303D01*
X281352Y301345D01*
X281612Y301403D01*
X281857Y301478D01*
X282087Y301569D01*
X282302Y301677D01*
X282502Y301801D01*
X282687Y301942D01*
X282858Y302100D01*
Y297900D01*
D02*
G37*
G36*
X323441Y296535D02*
X323225Y296458D01*
X323034Y296330D01*
X322869Y296150D01*
X322730Y295918D01*
X322615Y295636D01*
X322526Y295301D01*
X322463Y294916D01*
X322425Y294479D01*
X322422Y294375D01*
X322425Y294271D01*
X322463Y293834D01*
X322526Y293449D01*
X322615Y293114D01*
X322730Y292832D01*
X322869Y292600D01*
X323034Y292420D01*
X323225Y292292D01*
X323441Y292215D01*
X323682Y292189D01*
X318602D01*
X318843Y292215D01*
X319059Y292292D01*
X319250Y292420D01*
X319415Y292600D01*
X319555Y292832D01*
X319669Y293114D01*
X319758Y293449D01*
X319821Y293834D01*
X319859Y294271D01*
X319862Y294375D01*
X319859Y294479D01*
X319821Y294916D01*
X319758Y295301D01*
X319669Y295636D01*
X319555Y295918D01*
X319415Y296150D01*
X319250Y296330D01*
X319059Y296458D01*
X318843Y296535D01*
X318602Y296561D01*
X323682D01*
X323441Y296535D01*
D02*
G37*
G36*
X391783Y294021D02*
X391821Y293584D01*
X391884Y293199D01*
X391973Y292864D01*
X392088Y292582D01*
X392227Y292350D01*
X392392Y292170D01*
X392583Y292042D01*
X392799Y291965D01*
X393040Y291939D01*
X387960D01*
X388201Y291965D01*
X388417Y292042D01*
X388608Y292170D01*
X388773Y292350D01*
X388913Y292582D01*
X389027Y292864D01*
X389116Y293199D01*
X389179Y293584D01*
X389217Y294021D01*
X389230Y294509D01*
X391770D01*
X391783Y294021D01*
D02*
G37*
G36*
X375783D02*
X375821Y293584D01*
X375884Y293199D01*
X375973Y292864D01*
X376087Y292582D01*
X376227Y292350D01*
X376392Y292170D01*
X376583Y292042D01*
X376799Y291965D01*
X377040Y291939D01*
X371960D01*
X372201Y291965D01*
X372417Y292042D01*
X372608Y292170D01*
X372773Y292350D01*
X372912Y292582D01*
X373027Y292864D01*
X373116Y293199D01*
X373179Y293584D01*
X373217Y294021D01*
X373230Y294509D01*
X375770D01*
X375783Y294021D01*
D02*
G37*
G36*
X294942Y293687D02*
X294801Y293502D01*
X294677Y293302D01*
X294569Y293087D01*
X294478Y292857D01*
X294403Y292612D01*
X294345Y292352D01*
X294303Y292077D01*
X294278Y291787D01*
X294270Y291482D01*
X291730D01*
X291722Y291787D01*
X291697Y292077D01*
X291655Y292352D01*
X291597Y292612D01*
X291523Y292857D01*
X291431Y293087D01*
X291323Y293302D01*
X291199Y293502D01*
X291058Y293687D01*
X290900Y293858D01*
X295100D01*
X294942Y293687D01*
D02*
G37*
G36*
X414715Y287299D02*
X414792Y287083D01*
X414920Y286892D01*
X415100Y286727D01*
X415332Y286587D01*
X415614Y286473D01*
X415949Y286384D01*
X416334Y286321D01*
X416771Y286283D01*
X417259Y286270D01*
Y283730D01*
X416771Y283717D01*
X416334Y283679D01*
X415949Y283616D01*
X415614Y283527D01*
X415332Y283412D01*
X415100Y283273D01*
X414920Y283108D01*
X414792Y282917D01*
X414715Y282701D01*
X414689Y282460D01*
Y287540D01*
X414715Y287299D01*
D02*
G37*
G36*
X385280Y282460D02*
X385255Y282701D01*
X385179Y282917D01*
X385052Y283108D01*
X384874Y283273D01*
X384646Y283412D01*
X384366Y283527D01*
X384036Y283616D01*
X383655Y283679D01*
X383223Y283717D01*
X382741Y283730D01*
Y286270D01*
X383223Y286283D01*
X383655Y286321D01*
X384036Y286384D01*
X384366Y286473D01*
X384646Y286587D01*
X384874Y286727D01*
X385052Y286892D01*
X385179Y287083D01*
X385255Y287299D01*
X385280Y287540D01*
Y282460D01*
D02*
G37*
G36*
X379715Y287299D02*
X379792Y287083D01*
X379920Y286892D01*
X380100Y286727D01*
X380332Y286587D01*
X380615Y286473D01*
X380949Y286384D01*
X381334Y286321D01*
X381771Y286283D01*
X382260Y286270D01*
Y283730D01*
X381771Y283717D01*
X381334Y283679D01*
X380949Y283616D01*
X380615Y283527D01*
X380332Y283412D01*
X380100Y283273D01*
X379920Y283108D01*
X379792Y282917D01*
X379715Y282701D01*
X379689Y282460D01*
Y287540D01*
X379715Y287299D01*
D02*
G37*
G36*
X350280Y282460D02*
X350255Y282701D01*
X350179Y282917D01*
X350052Y283108D01*
X349874Y283273D01*
X349646Y283412D01*
X349366Y283527D01*
X349036Y283616D01*
X348655Y283679D01*
X348223Y283717D01*
X347741Y283730D01*
Y286270D01*
X348223Y286283D01*
X348655Y286321D01*
X349036Y286384D01*
X349366Y286473D01*
X349646Y286587D01*
X349874Y286727D01*
X350052Y286892D01*
X350179Y287083D01*
X350255Y287299D01*
X350280Y287540D01*
Y282460D01*
D02*
G37*
G36*
X344887Y287299D02*
X344963Y287083D01*
X345090Y286892D01*
X345268Y286727D01*
X345497Y286587D01*
X345776Y286473D01*
X346106Y286384D01*
X346487Y286321D01*
X346919Y286283D01*
X347402Y286270D01*
Y283730D01*
X346919Y283717D01*
X346487Y283679D01*
X346106Y283616D01*
X345776Y283527D01*
X345497Y283412D01*
X345268Y283273D01*
X345090Y283108D01*
X344963Y282917D01*
X344887Y282701D01*
X344862Y282460D01*
Y287540D01*
X344887Y287299D01*
D02*
G37*
G36*
X778596Y277981D02*
X777915Y278745D01*
X776614Y280031D01*
X775995Y280553D01*
X775397Y280995D01*
X774820Y281357D01*
X774264Y281638D01*
X773729Y281839D01*
X773215Y281960D01*
X772722Y282000D01*
X772852Y284000D01*
X773308Y284038D01*
X773805Y284150D01*
X774342Y284338D01*
X774919Y284602D01*
X775536Y284940D01*
X776193Y285354D01*
X777629Y286407D01*
X778408Y287047D01*
X779226Y287761D01*
X778596Y277981D01*
D02*
G37*
G36*
X341299Y277785D02*
X341083Y277708D01*
X340892Y277580D01*
X340727Y277400D01*
X340588Y277168D01*
X340473Y276886D01*
X340384Y276551D01*
X340321Y276166D01*
X340283Y275729D01*
X340270Y275240D01*
X337730D01*
X337717Y275729D01*
X337679Y276166D01*
X337616Y276551D01*
X337527Y276886D01*
X337413Y277168D01*
X337273Y277400D01*
X337108Y277580D01*
X336917Y277708D01*
X336701Y277785D01*
X336460Y277811D01*
X341540D01*
X341299Y277785D01*
D02*
G37*
G36*
X477681Y278299D02*
X477758Y278083D01*
X477886Y277892D01*
X478066Y277727D01*
X478298Y277588D01*
X478581Y277473D01*
X478915Y277384D01*
X479300Y277321D01*
X479737Y277283D01*
X480226Y277270D01*
Y274730D01*
X479737Y274717D01*
X479300Y274679D01*
X478915Y274616D01*
X478581Y274527D01*
X478298Y274412D01*
X478066Y274273D01*
X477886Y274108D01*
X477758Y273917D01*
X477681Y273701D01*
X477655Y273460D01*
Y278540D01*
X477681Y278299D01*
D02*
G37*
G36*
X436629Y273460D02*
X436603Y273701D01*
X436526Y273917D01*
X436398Y274108D01*
X436218Y274273D01*
X435986Y274412D01*
X435704Y274527D01*
X435369Y274616D01*
X434984Y274679D01*
X434547Y274717D01*
X434058Y274730D01*
Y277270D01*
X434547Y277283D01*
X434984Y277321D01*
X435369Y277384D01*
X435704Y277473D01*
X435986Y277588D01*
X436218Y277727D01*
X436398Y277892D01*
X436526Y278083D01*
X436603Y278299D01*
X436629Y278540D01*
Y273460D01*
D02*
G37*
G36*
X332313Y266942D02*
X332498Y266801D01*
X332698Y266677D01*
X332913Y266569D01*
X333143Y266477D01*
X333388Y266403D01*
X333648Y266345D01*
X333923Y266303D01*
X334213Y266278D01*
X334518Y266270D01*
Y263730D01*
X334213Y263722D01*
X333923Y263697D01*
X333648Y263655D01*
X333388Y263597D01*
X333143Y263522D01*
X332913Y263431D01*
X332698Y263323D01*
X332498Y263199D01*
X332313Y263058D01*
X332142Y262900D01*
Y267100D01*
X332313Y266942D01*
D02*
G37*
G36*
X414715Y267299D02*
X414792Y267083D01*
X414920Y266892D01*
X415100Y266727D01*
X415332Y266587D01*
X415614Y266473D01*
X415949Y266384D01*
X416267Y266332D01*
X416352Y266345D01*
X416612Y266403D01*
X416857Y266477D01*
X417087Y266569D01*
X417302Y266677D01*
X417502Y266801D01*
X417687Y266942D01*
X417858Y267100D01*
Y262900D01*
X417687Y263058D01*
X417502Y263199D01*
X417302Y263323D01*
X417087Y263431D01*
X416857Y263522D01*
X416612Y263597D01*
X416352Y263655D01*
X416267Y263668D01*
X415949Y263616D01*
X415614Y263527D01*
X415332Y263412D01*
X415100Y263273D01*
X414920Y263108D01*
X414792Y262917D01*
X414715Y262701D01*
X414689Y262460D01*
Y267540D01*
X414715Y267299D01*
D02*
G37*
G36*
X352281Y262460D02*
X352255Y262701D01*
X352179Y262917D01*
X352052Y263108D01*
X351874Y263273D01*
X351646Y263412D01*
X351366Y263527D01*
X351036Y263616D01*
X350655Y263679D01*
X350223Y263717D01*
X349740Y263730D01*
Y266270D01*
X350223Y266283D01*
X350655Y266321D01*
X351036Y266384D01*
X351366Y266473D01*
X351646Y266588D01*
X351874Y266727D01*
X352052Y266892D01*
X352179Y267083D01*
X352255Y267299D01*
X352281Y267540D01*
Y262460D01*
D02*
G37*
G36*
X385280Y262460D02*
X385255Y262701D01*
X385179Y262917D01*
X385052Y263108D01*
X384874Y263273D01*
X384646Y263412D01*
X384366Y263527D01*
X384036Y263616D01*
X383655Y263679D01*
X383223Y263717D01*
X382741Y263730D01*
Y266270D01*
X383223Y266283D01*
X383655Y266321D01*
X384036Y266384D01*
X384366Y266473D01*
X384646Y266587D01*
X384874Y266727D01*
X385052Y266892D01*
X385179Y267083D01*
X385255Y267299D01*
X385280Y267540D01*
Y262460D01*
D02*
G37*
G36*
X377715Y267299D02*
X377792Y267083D01*
X377920Y266892D01*
X378100Y266727D01*
X378332Y266587D01*
X378615Y266473D01*
X378949Y266384D01*
X379334Y266321D01*
X379771Y266283D01*
X380260Y266270D01*
Y263730D01*
X379771Y263717D01*
X379334Y263679D01*
X378949Y263616D01*
X378615Y263527D01*
X378332Y263412D01*
X378100Y263273D01*
X377920Y263108D01*
X377792Y262917D01*
X377715Y262701D01*
X377689Y262460D01*
Y267540D01*
X377715Y267299D01*
D02*
G37*
G36*
X327858Y264112D02*
X329970Y262000D01*
X329738Y261991D01*
X329507Y261960D01*
X329278Y261907D01*
X329049Y261831D01*
X328822Y261733D01*
X328596Y261612D01*
X328371Y261469D01*
X328148Y261304D01*
X327925Y261117D01*
X327703Y260907D01*
X325907Y262703D01*
X326117Y262925D01*
X326305Y263147D01*
X326470Y263371D01*
X326612Y263596D01*
X326613Y263597D01*
X326612Y263597D01*
X326352Y263655D01*
X326077Y263697D01*
X325787Y263722D01*
X325482Y263730D01*
Y266270D01*
X325787Y266278D01*
X326077Y266303D01*
X326352Y266345D01*
X326612Y266403D01*
X326857Y266477D01*
X327087Y266569D01*
X327302Y266677D01*
X327502Y266801D01*
X327687Y266942D01*
X327858Y267100D01*
Y264112D01*
D02*
G37*
G36*
X63993Y261799D02*
X64070Y261583D01*
X64198Y261392D01*
X64378Y261227D01*
X64609Y261087D01*
X64892Y260973D01*
X65226Y260884D01*
X65612Y260821D01*
X66049Y260783D01*
X66537Y260770D01*
Y258230D01*
X66049Y258217D01*
X65612Y258179D01*
X65226Y258116D01*
X64892Y258027D01*
X64609Y257913D01*
X64378Y257773D01*
X64198Y257608D01*
X64070Y257417D01*
X63993Y257201D01*
X63967Y256960D01*
Y262040D01*
X63993Y261799D01*
D02*
G37*
G36*
X392799Y257785D02*
X392583Y257708D01*
X392392Y257579D01*
X392227Y257400D01*
X392088Y257168D01*
X391973Y256886D01*
X391884Y256551D01*
X391821Y256166D01*
X391783Y255729D01*
X391770Y255240D01*
X389230D01*
X389217Y255729D01*
X389179Y256166D01*
X389116Y256551D01*
X389027Y256886D01*
X388913Y257168D01*
X388773Y257400D01*
X388608Y257579D01*
X388417Y257708D01*
X388201Y257785D01*
X387960Y257811D01*
X393040D01*
X392799Y257785D01*
D02*
G37*
G36*
X73014Y253625D02*
X72758Y254082D01*
X72470Y254491D01*
X72150Y254851D01*
X71797Y255164D01*
X71412Y255429D01*
X70994Y255645D01*
X70544Y255814D01*
X70062Y255934D01*
X69547Y256006D01*
X69000Y256030D01*
Y258570D01*
X69547Y258594D01*
X70062Y258666D01*
X70544Y258787D01*
X70994Y258955D01*
X71412Y259171D01*
X71797Y259436D01*
X72150Y259748D01*
X72470Y260109D01*
X72758Y260518D01*
X73014Y260975D01*
Y253625D01*
D02*
G37*
G36*
X616942Y255687D02*
X616801Y255502D01*
X616677Y255302D01*
X616569Y255087D01*
X616478Y254857D01*
X616403Y254612D01*
X616345Y254352D01*
X616303Y254077D01*
X616301Y254056D01*
X616321Y253834D01*
X616384Y253449D01*
X616473Y253114D01*
X616587Y252832D01*
X616727Y252600D01*
X616892Y252420D01*
X617083Y252292D01*
X617299Y252215D01*
X617540Y252189D01*
X612460D01*
X612701Y252215D01*
X612917Y252292D01*
X613108Y252420D01*
X613273Y252600D01*
X613413Y252832D01*
X613527Y253114D01*
X613616Y253449D01*
X613679Y253834D01*
X613699Y254056D01*
X613697Y254077D01*
X613655Y254352D01*
X613597Y254612D01*
X613522Y254857D01*
X613431Y255087D01*
X613323Y255302D01*
X613199Y255502D01*
X613058Y255687D01*
X612900Y255858D01*
X617100D01*
X616942Y255687D01*
D02*
G37*
G36*
X533941D02*
X533800Y255502D01*
X533676Y255302D01*
X533568Y255087D01*
X533476Y254857D01*
X533402Y254612D01*
X533344Y254352D01*
X533302Y254077D01*
X533300Y254056D01*
X533320Y253834D01*
X533383Y253449D01*
X533472Y253114D01*
X533587Y252832D01*
X533726Y252600D01*
X533891Y252420D01*
X534082Y252292D01*
X534298Y252215D01*
X534539Y252189D01*
X529459D01*
X529700Y252215D01*
X529916Y252292D01*
X530107Y252420D01*
X530272Y252600D01*
X530411Y252832D01*
X530526Y253114D01*
X530615Y253449D01*
X530678Y253834D01*
X530698Y254056D01*
X530696Y254077D01*
X530654Y254352D01*
X530596Y254612D01*
X530522Y254857D01*
X530430Y255087D01*
X530322Y255302D01*
X530198Y255502D01*
X530057Y255687D01*
X529899Y255858D01*
X534099D01*
X533941Y255687D01*
D02*
G37*
G36*
X340942D02*
X340801Y255502D01*
X340677Y255302D01*
X340569Y255087D01*
X340478Y254857D01*
X340403Y254612D01*
X340345Y254352D01*
X340303Y254077D01*
X340302Y254056D01*
X340321Y253834D01*
X340384Y253449D01*
X340473Y253114D01*
X340588Y252832D01*
X340727Y252600D01*
X340892Y252420D01*
X341083Y252292D01*
X341299Y252215D01*
X341540Y252189D01*
X336460D01*
X336701Y252215D01*
X336917Y252292D01*
X337108Y252420D01*
X337273Y252600D01*
X337413Y252832D01*
X337527Y253114D01*
X337616Y253449D01*
X337679Y253834D01*
X337699Y254056D01*
X337697Y254077D01*
X337655Y254352D01*
X337597Y254612D01*
X337523Y254857D01*
X337431Y255087D01*
X337323Y255302D01*
X337199Y255502D01*
X337058Y255687D01*
X336900Y255858D01*
X341100D01*
X340942Y255687D01*
D02*
G37*
G36*
X322283Y254271D02*
X322321Y253834D01*
X322384Y253449D01*
X322473Y253114D01*
X322588Y252832D01*
X322727Y252600D01*
X322892Y252420D01*
X323083Y252292D01*
X323299Y252215D01*
X323540Y252189D01*
X318460D01*
X318701Y252215D01*
X318917Y252292D01*
X319108Y252420D01*
X319273Y252600D01*
X319413Y252832D01*
X319527Y253114D01*
X319616Y253449D01*
X319679Y253834D01*
X319717Y254271D01*
X319730Y254760D01*
X322270D01*
X322283Y254271D01*
D02*
G37*
G36*
X391783Y254021D02*
X391821Y253584D01*
X391884Y253199D01*
X391973Y252864D01*
X392088Y252582D01*
X392227Y252350D01*
X392392Y252170D01*
X392583Y252042D01*
X392799Y251965D01*
X393040Y251939D01*
X387960D01*
X388201Y251965D01*
X388417Y252042D01*
X388608Y252170D01*
X388773Y252350D01*
X388913Y252582D01*
X389027Y252864D01*
X389116Y253199D01*
X389179Y253584D01*
X389217Y254021D01*
X389230Y254509D01*
X391770D01*
X391783Y254021D01*
D02*
G37*
G36*
X87321Y261985D02*
X88888Y260518D01*
X89631Y259921D01*
X90349Y259417D01*
X91040Y259004D01*
X91706Y258683D01*
X92344Y258454D01*
X92957Y258316D01*
X93543Y258270D01*
X93449Y255730D01*
X92886Y255686D01*
X92285Y255553D01*
X91645Y255333D01*
X90966Y255023D01*
X90248Y254626D01*
X89491Y254140D01*
X88696Y253566D01*
X86989Y252153D01*
X86078Y251315D01*
X86498Y262857D01*
X87321Y261985D01*
D02*
G37*
G36*
X232811Y244960D02*
X232785Y245201D01*
X232708Y245417D01*
X232580Y245608D01*
X232400Y245773D01*
X232168Y245912D01*
X231886Y246027D01*
X231551Y246116D01*
X231166Y246179D01*
X230729Y246217D01*
X230240Y246230D01*
Y248770D01*
X230729Y248783D01*
X231166Y248821D01*
X231551Y248884D01*
X231886Y248973D01*
X232168Y249088D01*
X232400Y249227D01*
X232580Y249392D01*
X232708Y249583D01*
X232785Y249799D01*
X232811Y250040D01*
Y244960D01*
D02*
G37*
G36*
X226965Y249799D02*
X227042Y249583D01*
X227170Y249392D01*
X227350Y249227D01*
X227582Y249088D01*
X227864Y248973D01*
X228199Y248884D01*
X228584Y248821D01*
X229021Y248783D01*
X229510Y248770D01*
Y246230D01*
X229021Y246217D01*
X228584Y246179D01*
X228199Y246116D01*
X227864Y246027D01*
X227582Y245912D01*
X227350Y245773D01*
X227170Y245608D01*
X227042Y245417D01*
X226965Y245201D01*
X226939Y244960D01*
Y250040D01*
X226965Y249799D01*
D02*
G37*
G36*
X213061Y244325D02*
X213037Y244531D01*
X212966Y244715D01*
X212847Y244877D01*
X212680Y245018D01*
X212465Y245137D01*
X212203Y245235D01*
X211893Y245310D01*
X211536Y245364D01*
X211131Y245397D01*
X210678Y245408D01*
Y247948D01*
X211131Y247959D01*
X211536Y247991D01*
X211893Y248045D01*
X212203Y248121D01*
X212465Y248218D01*
X212680Y248338D01*
X212847Y248478D01*
X212966Y248641D01*
X213037Y248825D01*
X213061Y249030D01*
Y244325D01*
D02*
G37*
G36*
X247213Y248575D02*
X247284Y248391D01*
X247404Y248228D01*
X247570Y248088D01*
X247785Y247969D01*
X248047Y247871D01*
X248357Y247795D01*
X248714Y247741D01*
X249119Y247709D01*
X249572Y247698D01*
Y245158D01*
X249119Y245147D01*
X248714Y245115D01*
X248357Y245061D01*
X248047Y244985D01*
X247785Y244887D01*
X247570Y244768D01*
X247404Y244627D01*
X247284Y244465D01*
X247213Y244281D01*
X247189Y244075D01*
Y248780D01*
X247213Y248575D01*
D02*
G37*
G36*
X350280Y242460D02*
X350255Y242701D01*
X350179Y242917D01*
X350052Y243108D01*
X349874Y243273D01*
X349646Y243412D01*
X349366Y243527D01*
X349036Y243616D01*
X348655Y243679D01*
X348223Y243717D01*
X347741Y243730D01*
Y246270D01*
X348223Y246283D01*
X348655Y246321D01*
X349036Y246384D01*
X349366Y246473D01*
X349646Y246588D01*
X349874Y246727D01*
X350052Y246892D01*
X350179Y247083D01*
X350255Y247299D01*
X350280Y247540D01*
Y242460D01*
D02*
G37*
G36*
X344745Y247299D02*
X344821Y247083D01*
X344948Y246892D01*
X345126Y246727D01*
X345355Y246588D01*
X345634Y246473D01*
X345964Y246384D01*
X346345Y246321D01*
X346777Y246283D01*
X347260Y246270D01*
Y243730D01*
X346777Y243717D01*
X346345Y243679D01*
X345964Y243616D01*
X345634Y243527D01*
X345355Y243412D01*
X345126Y243273D01*
X344948Y243108D01*
X344821Y242917D01*
X344745Y242701D01*
X344720Y242460D01*
Y247540D01*
X344745Y247299D01*
D02*
G37*
G36*
X414715Y247299D02*
X414792Y247083D01*
X414920Y246892D01*
X415100Y246727D01*
X415332Y246587D01*
X415614Y246473D01*
X415949Y246384D01*
X416334Y246321D01*
X416771Y246283D01*
X417259Y246270D01*
Y243730D01*
X416771Y243717D01*
X416334Y243679D01*
X415949Y243616D01*
X415614Y243527D01*
X415332Y243412D01*
X415100Y243273D01*
X414920Y243108D01*
X414792Y242917D01*
X414715Y242701D01*
X414689Y242460D01*
Y247540D01*
X414715Y247299D01*
D02*
G37*
G36*
X385280Y242460D02*
X385255Y242701D01*
X385179Y242917D01*
X385052Y243108D01*
X384874Y243273D01*
X384646Y243412D01*
X384366Y243527D01*
X384036Y243616D01*
X383655Y243679D01*
X383223Y243717D01*
X382741Y243730D01*
Y246270D01*
X383223Y246283D01*
X383655Y246321D01*
X384036Y246384D01*
X384366Y246473D01*
X384646Y246587D01*
X384874Y246727D01*
X385052Y246892D01*
X385179Y247083D01*
X385255Y247299D01*
X385280Y247540D01*
Y242460D01*
D02*
G37*
G36*
X379715Y247299D02*
X379792Y247083D01*
X379920Y246892D01*
X380100Y246727D01*
X380332Y246587D01*
X380615Y246473D01*
X380949Y246384D01*
X381334Y246321D01*
X381771Y246283D01*
X382260Y246270D01*
Y243730D01*
X381771Y243717D01*
X381334Y243679D01*
X380949Y243616D01*
X380615Y243527D01*
X380332Y243412D01*
X380100Y243273D01*
X379920Y243108D01*
X379792Y242917D01*
X379715Y242701D01*
X379689Y242460D01*
Y247540D01*
X379715Y247299D01*
D02*
G37*
G36*
X200528Y239421D02*
X200573Y239389D01*
X200647Y239361D01*
X200751Y239337D01*
X200885Y239317D01*
X201242Y239287D01*
X202000Y239270D01*
Y236730D01*
X201717Y236728D01*
X200751Y236663D01*
X200647Y236639D01*
X200573Y236611D01*
X200528Y236579D01*
X200513Y236544D01*
Y239456D01*
X200528Y239421D01*
D02*
G37*
G36*
X436487Y236460D02*
X436461Y236701D01*
X436384Y236917D01*
X436256Y237108D01*
X436076Y237273D01*
X435844Y237412D01*
X435562Y237527D01*
X435228Y237616D01*
X434842Y237679D01*
X434405Y237717D01*
X433917Y237730D01*
Y240270D01*
X434405Y240283D01*
X434842Y240321D01*
X435228Y240384D01*
X435562Y240473D01*
X435844Y240588D01*
X436076Y240727D01*
X436256Y240892D01*
X436384Y241083D01*
X436461Y241299D01*
X436487Y241540D01*
Y236460D01*
D02*
G37*
G36*
X137497Y240299D02*
X137574Y240083D01*
X137703Y239892D01*
X137882Y239727D01*
X138114Y239587D01*
X138397Y239473D01*
X138731Y239384D01*
X139116Y239321D01*
X139553Y239283D01*
X140042Y239270D01*
Y236730D01*
X139553Y236717D01*
X139116Y236679D01*
X138731Y236616D01*
X138397Y236527D01*
X138114Y236413D01*
X137882Y236273D01*
X137703Y236108D01*
X137574Y235917D01*
X137497Y235701D01*
X137471Y235460D01*
Y240540D01*
X137497Y240299D01*
D02*
G37*
G36*
X159487Y235460D02*
Y235460D01*
X159461Y235701D01*
X159384Y235917D01*
X159256Y236108D01*
X159076Y236273D01*
X158844Y236413D01*
X158562Y236527D01*
X158228Y236616D01*
X157842Y236679D01*
X157405Y236717D01*
X156917Y236730D01*
Y236730D01*
Y239270D01*
Y239270D01*
X157405Y239283D01*
X157842Y239321D01*
X158228Y239384D01*
X158562Y239473D01*
X158844Y239587D01*
X159076Y239727D01*
X159256Y239892D01*
X159384Y240083D01*
X159461Y240299D01*
X159487Y240540D01*
Y235460D01*
D02*
G37*
G36*
X477537Y237251D02*
X477608Y237067D01*
X477728Y236904D01*
X477894Y236764D01*
X478109Y236644D01*
X478371Y236547D01*
X478681Y236471D01*
X479038Y236417D01*
X479443Y236385D01*
X479896Y236374D01*
Y233834D01*
X479443Y233823D01*
X479038Y233791D01*
X478681Y233736D01*
X478371Y233661D01*
X478109Y233563D01*
X477894Y233444D01*
X477728Y233303D01*
X477608Y233141D01*
X477537Y232957D01*
X477513Y232751D01*
Y237456D01*
X477537Y237251D01*
D02*
G37*
G36*
X543061Y225960D02*
X543035Y226201D01*
X542958Y226417D01*
X542830Y226608D01*
X542650Y226773D01*
X542418Y226912D01*
X542136Y227027D01*
X541801Y227116D01*
X541416Y227179D01*
X540979Y227217D01*
X540925Y227219D01*
X540871Y227217D01*
X540434Y227179D01*
X540049Y227116D01*
X539715Y227027D01*
X539432Y226912D01*
X539200Y226773D01*
X539020Y226608D01*
X538892Y226417D01*
X538815Y226201D01*
X538789Y225960D01*
Y231040D01*
X538815Y230799D01*
X538892Y230583D01*
X539020Y230392D01*
X539200Y230227D01*
X539432Y230088D01*
X539715Y229973D01*
X540049Y229884D01*
X540434Y229821D01*
X540871Y229783D01*
X540925Y229781D01*
X540979Y229783D01*
X541416Y229821D01*
X541801Y229884D01*
X542136Y229973D01*
X542418Y230088D01*
X542650Y230227D01*
X542830Y230392D01*
X542958Y230583D01*
X543035Y230799D01*
X543061Y231040D01*
Y225960D01*
D02*
G37*
G36*
X607811D02*
X607785Y226201D01*
X607708Y226417D01*
X607580Y226608D01*
X607400Y226773D01*
X607168Y226912D01*
X606886Y227027D01*
X606552Y227116D01*
X606166Y227179D01*
X605729Y227217D01*
X605375Y227227D01*
X605021Y227217D01*
X604584Y227179D01*
X604199Y227116D01*
X603865Y227027D01*
X603582Y226912D01*
X603350Y226773D01*
X603170Y226608D01*
X603042Y226417D01*
X602965Y226201D01*
X602939Y225960D01*
Y231040D01*
X602965Y230799D01*
X603042Y230583D01*
X603170Y230392D01*
X603350Y230227D01*
X603582Y230088D01*
X603865Y229973D01*
X604199Y229884D01*
X604584Y229821D01*
X605021Y229783D01*
X605375Y229774D01*
X605729Y229783D01*
X606166Y229821D01*
X606552Y229884D01*
X606886Y229973D01*
X607168Y230088D01*
X607400Y230227D01*
X607580Y230392D01*
X607708Y230583D01*
X607785Y230799D01*
X607811Y231040D01*
Y225960D01*
D02*
G37*
G36*
X122299Y230503D02*
X122083Y230426D01*
X121892Y230298D01*
X121727Y230118D01*
X121587Y229886D01*
X121473Y229604D01*
X121384Y229269D01*
X121321Y228884D01*
X121283Y228447D01*
X121270Y227958D01*
X118730D01*
X118717Y228447D01*
X118679Y228884D01*
X118616Y229269D01*
X118527Y229604D01*
X118413Y229886D01*
X118273Y230118D01*
X118108Y230298D01*
X117917Y230426D01*
X117701Y230503D01*
X117460Y230529D01*
X122540D01*
X122299Y230503D01*
D02*
G37*
G36*
X232811Y225960D02*
X232785Y226201D01*
X232708Y226417D01*
X232580Y226608D01*
X232400Y226773D01*
X232168Y226912D01*
X231886Y227027D01*
X231551Y227116D01*
X231166Y227179D01*
X230729Y227217D01*
X230240Y227230D01*
Y229770D01*
X230729Y229783D01*
X231166Y229821D01*
X231551Y229884D01*
X231886Y229973D01*
X232168Y230088D01*
X232400Y230227D01*
X232580Y230392D01*
X232708Y230583D01*
X232785Y230799D01*
X232811Y231040D01*
Y225960D01*
D02*
G37*
G36*
X226965Y230799D02*
X227042Y230583D01*
X227170Y230392D01*
X227350Y230227D01*
X227582Y230088D01*
X227864Y229973D01*
X228199Y229884D01*
X228584Y229821D01*
X229021Y229783D01*
X229510Y229770D01*
Y227230D01*
X229021Y227217D01*
X228584Y227179D01*
X228199Y227116D01*
X227864Y227027D01*
X227582Y226912D01*
X227350Y226773D01*
X227170Y226608D01*
X227042Y226417D01*
X226965Y226201D01*
X226939Y225960D01*
Y231040D01*
X226965Y230799D01*
D02*
G37*
G36*
X370811Y222460D02*
X370785Y222701D01*
X370708Y222917D01*
X370580Y223108D01*
X370400Y223273D01*
X370168Y223412D01*
X369886Y223527D01*
X369552Y223616D01*
X369166Y223679D01*
X368729Y223717D01*
X368241Y223730D01*
Y226270D01*
X368729Y226283D01*
X369166Y226321D01*
X369552Y226384D01*
X369886Y226473D01*
X370168Y226588D01*
X370400Y226727D01*
X370580Y226892D01*
X370708Y227083D01*
X370785Y227299D01*
X370811Y227540D01*
Y222460D01*
D02*
G37*
G36*
X359745Y227299D02*
X359821Y227083D01*
X359948Y226892D01*
X360126Y226727D01*
X360355Y226588D01*
X360634Y226473D01*
X360964Y226384D01*
X361345Y226321D01*
X361777Y226283D01*
X362260Y226270D01*
Y223730D01*
X361777Y223717D01*
X361345Y223679D01*
X360964Y223616D01*
X360634Y223527D01*
X360355Y223412D01*
X360126Y223273D01*
X359948Y223108D01*
X359821Y222917D01*
X359745Y222701D01*
X359720Y222460D01*
Y227540D01*
X359745Y227299D01*
D02*
G37*
G36*
X392061Y222460D02*
X392035Y222701D01*
X391958Y222917D01*
X391830Y223108D01*
X391650Y223273D01*
X391418Y223412D01*
X391136Y223527D01*
X390802Y223616D01*
X390416Y223679D01*
X389979Y223717D01*
X389491Y223730D01*
Y226270D01*
X389979Y226283D01*
X390416Y226321D01*
X390802Y226384D01*
X391136Y226473D01*
X391418Y226588D01*
X391650Y226727D01*
X391830Y226892D01*
X391958Y227083D01*
X392035Y227299D01*
X392061Y227540D01*
Y222460D01*
D02*
G37*
G36*
X385215Y227299D02*
X385292Y227083D01*
X385420Y226892D01*
X385600Y226727D01*
X385832Y226588D01*
X386115Y226473D01*
X386449Y226384D01*
X386834Y226321D01*
X387271Y226283D01*
X387760Y226270D01*
Y223730D01*
X387271Y223717D01*
X386834Y223679D01*
X386449Y223616D01*
X386115Y223527D01*
X385832Y223412D01*
X385600Y223273D01*
X385420Y223108D01*
X385292Y222917D01*
X385215Y222701D01*
X385189Y222460D01*
Y227540D01*
X385215Y227299D01*
D02*
G37*
G36*
X223299Y223285D02*
X223083Y223208D01*
X222892Y223080D01*
X222727Y222900D01*
X222588Y222668D01*
X222473Y222386D01*
X222384Y222051D01*
X222321Y221666D01*
X222283Y221229D01*
X222270Y220741D01*
X219730D01*
X219717Y221229D01*
X219679Y221666D01*
X219616Y222051D01*
X219527Y222386D01*
X219412Y222668D01*
X219273Y222900D01*
X219108Y223080D01*
X218917Y223208D01*
X218701Y223285D01*
X218460Y223311D01*
X223540D01*
X223299Y223285D01*
D02*
G37*
G36*
X356799Y218035D02*
X356583Y217958D01*
X356392Y217830D01*
X356227Y217650D01*
X356088Y217418D01*
X355973Y217136D01*
X355884Y216801D01*
X355821Y216416D01*
X355783Y215979D01*
X355770Y215490D01*
X353230D01*
X353217Y215979D01*
X353179Y216416D01*
X353116Y216801D01*
X353027Y217136D01*
X352913Y217418D01*
X352773Y217650D01*
X352608Y217830D01*
X352417Y217958D01*
X352201Y218035D01*
X351960Y218061D01*
X357040D01*
X356799Y218035D01*
D02*
G37*
G36*
X337799D02*
X337583Y217958D01*
X337392Y217830D01*
X337227Y217650D01*
X337088Y217418D01*
X336973Y217136D01*
X336884Y216801D01*
X336821Y216416D01*
X336783Y215979D01*
X336770Y215490D01*
X334230D01*
X334217Y215979D01*
X334179Y216416D01*
X334116Y216801D01*
X334027Y217136D01*
X333913Y217418D01*
X333773Y217650D01*
X333608Y217830D01*
X333417Y217958D01*
X333201Y218035D01*
X332960Y218061D01*
X338040D01*
X337799Y218035D01*
D02*
G37*
G36*
X355783Y213271D02*
X355821Y212834D01*
X355884Y212449D01*
X355973Y212114D01*
X356088Y211832D01*
X356227Y211600D01*
X356392Y211420D01*
X356583Y211292D01*
X356799Y211215D01*
X357040Y211189D01*
X351960D01*
X352201Y211215D01*
X352417Y211292D01*
X352608Y211420D01*
X352773Y211600D01*
X352913Y211832D01*
X353027Y212114D01*
X353116Y212449D01*
X353179Y212834D01*
X353217Y213271D01*
X353230Y213759D01*
X355770D01*
X355783Y213271D01*
D02*
G37*
G36*
X336783D02*
X336821Y212834D01*
X336884Y212449D01*
X336973Y212114D01*
X337088Y211832D01*
X337227Y211600D01*
X337392Y211420D01*
X337583Y211292D01*
X337799Y211215D01*
X338040Y211189D01*
X332960D01*
X333201Y211215D01*
X333417Y211292D01*
X333608Y211420D01*
X333773Y211600D01*
X333913Y211832D01*
X334027Y212114D01*
X334116Y212449D01*
X334179Y212834D01*
X334217Y213271D01*
X334230Y213759D01*
X336770D01*
X336783Y213271D01*
D02*
G37*
G36*
X582283Y211021D02*
X582321Y210584D01*
X582384Y210198D01*
X582473Y209864D01*
X582588Y209582D01*
X582727Y209350D01*
X582892Y209170D01*
X583083Y209042D01*
X583299Y208965D01*
X583540Y208939D01*
X578460D01*
X578701Y208965D01*
X578917Y209042D01*
X579108Y209170D01*
X579273Y209350D01*
X579412Y209582D01*
X579527Y209864D01*
X579616Y210198D01*
X579679Y210584D01*
X579717Y211021D01*
X579730Y211509D01*
X582270D01*
X582283Y211021D01*
D02*
G37*
G36*
X566283D02*
X566321Y210584D01*
X566384Y210198D01*
X566473Y209864D01*
X566587Y209582D01*
X566727Y209350D01*
X566892Y209170D01*
X567083Y209042D01*
X567299Y208965D01*
X567540Y208939D01*
X562460D01*
X562701Y208965D01*
X562917Y209042D01*
X563108Y209170D01*
X563273Y209350D01*
X563413Y209582D01*
X563527Y209864D01*
X563616Y210198D01*
X563679Y210584D01*
X563717Y211021D01*
X563730Y211509D01*
X566270D01*
X566283Y211021D01*
D02*
G37*
G36*
X529009Y210738D02*
X529040Y210507D01*
X529093Y210278D01*
X529169Y210049D01*
X529267Y209822D01*
X529388Y209596D01*
X529530Y209371D01*
X529696Y209147D01*
X529883Y208925D01*
X530093Y208703D01*
X528297Y206907D01*
X528075Y207117D01*
X527853Y207304D01*
X527629Y207470D01*
X527404Y207612D01*
X527178Y207733D01*
X526950Y207831D01*
X526722Y207907D01*
X526493Y207960D01*
X526262Y207991D01*
X526030Y208000D01*
X529000Y210970D01*
X529009Y210738D01*
D02*
G37*
G36*
X392061Y203960D02*
X392035Y204201D01*
X391958Y204417D01*
X391830Y204608D01*
X391650Y204773D01*
X391418Y204912D01*
X391136Y205027D01*
X390802Y205116D01*
X390416Y205179D01*
X389979Y205217D01*
X389491Y205230D01*
Y207770D01*
X389979Y207783D01*
X390416Y207821D01*
X390802Y207884D01*
X391136Y207973D01*
X391418Y208088D01*
X391650Y208227D01*
X391830Y208392D01*
X391958Y208583D01*
X392035Y208799D01*
X392061Y209040D01*
Y203960D01*
D02*
G37*
G36*
X385215Y208799D02*
X385292Y208583D01*
X385420Y208392D01*
X385600Y208227D01*
X385832Y208088D01*
X386115Y207973D01*
X386449Y207884D01*
X386834Y207821D01*
X387271Y207783D01*
X387760Y207770D01*
Y205230D01*
X387271Y205217D01*
X386834Y205179D01*
X386449Y205116D01*
X386115Y205027D01*
X385832Y204912D01*
X385600Y204773D01*
X385420Y204608D01*
X385292Y204417D01*
X385215Y204201D01*
X385189Y203960D01*
Y209040D01*
X385215Y208799D01*
D02*
G37*
G36*
X380299Y201255D02*
X380083Y201179D01*
X379892Y201052D01*
X379727Y200874D01*
X379588Y200645D01*
X379473Y200366D01*
X379384Y200036D01*
X379321Y199655D01*
X379283Y199223D01*
X379270Y198740D01*
X376730D01*
X376717Y199223D01*
X376679Y199655D01*
X376616Y200036D01*
X376527Y200366D01*
X376413Y200645D01*
X376273Y200874D01*
X376108Y201052D01*
X375917Y201179D01*
X375701Y201255D01*
X375460Y201280D01*
X380540D01*
X380299Y201255D01*
D02*
G37*
G36*
X488278Y198213D02*
X488303Y197923D01*
X488345Y197648D01*
X488403Y197388D01*
X488478Y197143D01*
X488569Y196913D01*
X488677Y196698D01*
X488801Y196498D01*
X488942Y196313D01*
X489100Y196142D01*
X484900D01*
X485058Y196313D01*
X485199Y196498D01*
X485323Y196698D01*
X485431Y196913D01*
X485522Y197143D01*
X485597Y197388D01*
X485655Y197648D01*
X485697Y197923D01*
X485722Y198213D01*
X485730Y198518D01*
X488270D01*
X488278Y198213D01*
D02*
G37*
G36*
X337799Y196785D02*
X337583Y196708D01*
X337392Y196580D01*
X337227Y196400D01*
X337088Y196168D01*
X336973Y195886D01*
X336884Y195551D01*
X336821Y195166D01*
X336783Y194729D01*
X336770Y194240D01*
X334230D01*
X334217Y194729D01*
X334179Y195166D01*
X334116Y195551D01*
X334027Y195886D01*
X333913Y196168D01*
X333773Y196400D01*
X333608Y196580D01*
X333417Y196708D01*
X333201Y196785D01*
X332960Y196811D01*
X338040D01*
X337799Y196785D01*
D02*
G37*
G36*
X583299Y199035D02*
X583083Y198958D01*
X582892Y198830D01*
X582727Y198650D01*
X582588Y198418D01*
X582473Y198136D01*
X582384Y197801D01*
X582321Y197416D01*
X582283Y196979D01*
X582270Y196504D01*
X582278Y196213D01*
X582303Y195923D01*
X582345Y195648D01*
X582403Y195388D01*
X582477Y195143D01*
X582569Y194913D01*
X582677Y194698D01*
X582801Y194498D01*
X582942Y194313D01*
X583100Y194142D01*
X578900D01*
X579058Y194313D01*
X579199Y194498D01*
X579323Y194698D01*
X579431Y194913D01*
X579523Y195143D01*
X579597Y195388D01*
X579655Y195648D01*
X579697Y195923D01*
X579722Y196213D01*
X579730Y196504D01*
X579717Y196979D01*
X579679Y197416D01*
X579616Y197801D01*
X579527Y198136D01*
X579412Y198418D01*
X579273Y198650D01*
X579108Y198830D01*
X578917Y198958D01*
X578701Y199035D01*
X578460Y199061D01*
X583540D01*
X583299Y199035D01*
D02*
G37*
G36*
X567399D02*
X567183Y198958D01*
X566992Y198830D01*
X566827Y198650D01*
X566688Y198418D01*
X566573Y198136D01*
X566484Y197801D01*
X566421Y197416D01*
X566383Y196979D01*
X566370Y196504D01*
X566378Y196213D01*
X566403Y195923D01*
X566445Y195648D01*
X566503Y195388D01*
X566577Y195143D01*
X566669Y194913D01*
X566777Y194698D01*
X566901Y194498D01*
X567042Y194313D01*
X567200Y194142D01*
X563000D01*
X563158Y194313D01*
X563299Y194498D01*
X563423Y194698D01*
X563531Y194913D01*
X563623Y195143D01*
X563697Y195388D01*
X563755Y195648D01*
X563797Y195923D01*
X563822Y196213D01*
X563830Y196504D01*
X563817Y196979D01*
X563779Y197416D01*
X563716Y197801D01*
X563627Y198136D01*
X563512Y198418D01*
X563373Y198650D01*
X563208Y198830D01*
X563017Y198958D01*
X562801Y199035D01*
X562560Y199061D01*
X567640D01*
X567399Y199035D01*
D02*
G37*
G36*
X249274Y192857D02*
X250100D01*
X249942Y192687D01*
X249801Y192502D01*
X249677Y192302D01*
X249569Y192087D01*
X249478Y191857D01*
X249405Y191620D01*
X249473Y191364D01*
X249587Y191082D01*
X249727Y190850D01*
X249892Y190670D01*
X250083Y190542D01*
X250299Y190465D01*
X250540Y190439D01*
X245460D01*
X245701Y190465D01*
X245917Y190542D01*
X246108Y190670D01*
X246273Y190850D01*
X246413Y191082D01*
X246527Y191364D01*
X246595Y191620D01*
X246523Y191857D01*
X246431Y192087D01*
X246323Y192302D01*
X246199Y192502D01*
X246058Y192687D01*
X245900Y192857D01*
X246726D01*
X246730Y193009D01*
X249270D01*
X249274Y192857D01*
D02*
G37*
G36*
X213283Y192521D02*
X213321Y192084D01*
X213384Y191698D01*
X213473Y191364D01*
X213588Y191082D01*
X213727Y190850D01*
X213892Y190670D01*
X214083Y190542D01*
X214299Y190465D01*
X214540Y190439D01*
X209460D01*
X209701Y190465D01*
X209917Y190542D01*
X210108Y190670D01*
X210273Y190850D01*
X210413Y191082D01*
X210527Y191364D01*
X210616Y191698D01*
X210679Y192084D01*
X210717Y192521D01*
X210730Y193009D01*
X213270D01*
X213283Y192521D01*
D02*
G37*
G36*
X169274Y192858D02*
X170100D01*
X169942Y192687D01*
X169801Y192502D01*
X169677Y192302D01*
X169569Y192087D01*
X169478Y191857D01*
X169405Y191620D01*
X169473Y191364D01*
X169587Y191082D01*
X169727Y190850D01*
X169892Y190670D01*
X170083Y190542D01*
X170299Y190465D01*
X170540Y190439D01*
X165460D01*
X165701Y190465D01*
X165917Y190542D01*
X166108Y190670D01*
X166273Y190850D01*
X166413Y191082D01*
X166527Y191364D01*
X166595Y191620D01*
X166523Y191857D01*
X166431Y192087D01*
X166323Y192302D01*
X166199Y192502D01*
X166058Y192687D01*
X165900Y192858D01*
X166726D01*
X166730Y193009D01*
X169270D01*
X169274Y192858D01*
D02*
G37*
G36*
X379283Y192021D02*
X379321Y191584D01*
X379384Y191199D01*
X379473Y190864D01*
X379588Y190582D01*
X379727Y190350D01*
X379892Y190170D01*
X380083Y190042D01*
X380299Y189965D01*
X380540Y189939D01*
X375460D01*
X375701Y189965D01*
X375917Y190042D01*
X376108Y190170D01*
X376273Y190350D01*
X376413Y190582D01*
X376527Y190864D01*
X376616Y191199D01*
X376679Y191584D01*
X376717Y192021D01*
X376730Y192509D01*
X379270D01*
X379283Y192021D01*
D02*
G37*
G36*
X336783Y192021D02*
X336821Y191584D01*
X336884Y191199D01*
X336973Y190864D01*
X337088Y190582D01*
X337227Y190350D01*
X337392Y190170D01*
X337583Y190042D01*
X337799Y189965D01*
X338040Y189939D01*
X332960D01*
X333201Y189965D01*
X333417Y190042D01*
X333608Y190170D01*
X333773Y190350D01*
X333913Y190582D01*
X334027Y190864D01*
X334116Y191199D01*
X334179Y191584D01*
X334217Y192021D01*
X334230Y192509D01*
X336770D01*
X336783Y192021D01*
D02*
G37*
G36*
X82283Y183371D02*
X82321Y182934D01*
X82384Y182549D01*
X82473Y182214D01*
X82587Y181932D01*
X82727Y181700D01*
X82892Y181520D01*
X83083Y181392D01*
X83299Y181315D01*
X83540Y181289D01*
X78460D01*
X78701Y181315D01*
X78917Y181392D01*
X79108Y181520D01*
X79273Y181700D01*
X79412Y181932D01*
X79527Y182214D01*
X79616Y182549D01*
X79679Y182934D01*
X79717Y183371D01*
X79730Y183860D01*
X82270D01*
X82283Y183371D01*
D02*
G37*
G36*
X778901Y177650D02*
X778152Y178391D01*
X776744Y179639D01*
X776086Y180146D01*
X775457Y180575D01*
X774860Y180926D01*
X774292Y181199D01*
X773755Y181394D01*
X773248Y181511D01*
X772772Y181550D01*
Y183550D01*
X773248Y183589D01*
X773755Y183706D01*
X774292Y183901D01*
X774860Y184174D01*
X775457Y184525D01*
X776086Y184954D01*
X776744Y185461D01*
X778152Y186709D01*
X778901Y187450D01*
Y177650D01*
D02*
G37*
G36*
X294299Y179505D02*
X294083Y179429D01*
X293892Y179302D01*
X293727Y179124D01*
X293588Y178895D01*
X293473Y178616D01*
X293384Y178286D01*
X293321Y177905D01*
X293283Y177473D01*
X293270Y176991D01*
X290730D01*
X290717Y177473D01*
X290679Y177905D01*
X290616Y178286D01*
X290527Y178616D01*
X290413Y178895D01*
X290273Y179124D01*
X290108Y179302D01*
X289917Y179429D01*
X289701Y179505D01*
X289460Y179531D01*
X294540D01*
X294299Y179505D01*
D02*
G37*
G36*
X214299D02*
X214083Y179429D01*
X213892Y179302D01*
X213727Y179124D01*
X213588Y178895D01*
X213473Y178616D01*
X213384Y178286D01*
X213321Y177905D01*
X213283Y177473D01*
X213270Y176991D01*
X210730D01*
X210717Y177473D01*
X210679Y177905D01*
X210616Y178286D01*
X210527Y178616D01*
X210413Y178895D01*
X210273Y179124D01*
X210108Y179302D01*
X209917Y179429D01*
X209701Y179505D01*
X209460Y179531D01*
X214540D01*
X214299Y179505D01*
D02*
G37*
G36*
X497278Y177213D02*
X497303Y176923D01*
X497345Y176648D01*
X497403Y176388D01*
X497477Y176143D01*
X497569Y175913D01*
X497677Y175698D01*
X497801Y175498D01*
X497942Y175313D01*
X498100Y175142D01*
X493900D01*
X494058Y175313D01*
X494199Y175498D01*
X494323Y175698D01*
X494431Y175913D01*
X494523Y176143D01*
X494597Y176388D01*
X494655Y176648D01*
X494697Y176923D01*
X494722Y177213D01*
X494730Y177518D01*
X497270D01*
X497278Y177213D01*
D02*
G37*
G36*
X377825Y176037D02*
X377641Y175966D01*
X377478Y175847D01*
X377338Y175680D01*
X377219Y175465D01*
X377121Y175203D01*
X377045Y174893D01*
X376991Y174536D01*
X376959Y174131D01*
X376948Y173678D01*
X374408D01*
X374397Y174131D01*
X374365Y174536D01*
X374310Y174893D01*
X374235Y175203D01*
X374137Y175465D01*
X374018Y175680D01*
X373877Y175847D01*
X373715Y175966D01*
X373531Y176037D01*
X373325Y176061D01*
X378031D01*
X377825Y176037D01*
D02*
G37*
G36*
X399299Y176035D02*
X399083Y175958D01*
X398892Y175830D01*
X398727Y175650D01*
X398587Y175418D01*
X398473Y175136D01*
X398384Y174801D01*
X398321Y174416D01*
X398283Y173979D01*
X398270Y173491D01*
X395730D01*
X395717Y173979D01*
X395679Y174416D01*
X395616Y174801D01*
X395527Y175136D01*
X395412Y175418D01*
X395273Y175650D01*
X395108Y175830D01*
X394917Y175958D01*
X394701Y176035D01*
X394460Y176061D01*
X399540D01*
X399299Y176035D01*
D02*
G37*
G36*
X357699Y176035D02*
X357483Y175958D01*
X357292Y175830D01*
X357127Y175650D01*
X356988Y175418D01*
X356873Y175135D01*
X356784Y174801D01*
X356721Y174416D01*
X356683Y173979D01*
X356670Y173490D01*
X354130D01*
X354117Y173979D01*
X354079Y174416D01*
X354016Y174801D01*
X353927Y175135D01*
X353813Y175418D01*
X353673Y175650D01*
X353508Y175830D01*
X353317Y175958D01*
X353101Y176035D01*
X352860Y176061D01*
X357940D01*
X357699Y176035D01*
D02*
G37*
G36*
X626636Y170639D02*
X626449Y170413D01*
X626284Y170181D01*
X626141Y169942D01*
X626020Y169697D01*
X625921Y169445D01*
X625844Y169187D01*
X625789Y168922D01*
X625756Y168650D01*
X625745Y168372D01*
X623745D01*
X623734Y168650D01*
X623701Y168922D01*
X623646Y169187D01*
X623569Y169445D01*
X623470Y169697D01*
X623349Y169942D01*
X623206Y170181D01*
X623041Y170413D01*
X622854Y170639D01*
X622645Y170858D01*
X626845D01*
X626636Y170639D01*
D02*
G37*
G36*
X202345Y171904D02*
X202528Y171760D01*
X202726Y171633D01*
X202939Y171524D01*
X203168Y171431D01*
X203412Y171355D01*
X203671Y171296D01*
X203946Y171254D01*
X204236Y171228D01*
X204541Y171220D01*
X204494Y168680D01*
X204189Y168672D01*
X203899Y168647D01*
X203624Y168607D01*
X203363Y168549D01*
X203117Y168476D01*
X202886Y168386D01*
X202669Y168280D01*
X202467Y168158D01*
X202280Y168020D01*
X202107Y167865D01*
X202177Y172064D01*
X202345Y171904D01*
D02*
G37*
G36*
X398283Y167777D02*
X398321Y167345D01*
X398384Y166964D01*
X398473Y166634D01*
X398587Y166355D01*
X398727Y166126D01*
X398892Y165948D01*
X399083Y165821D01*
X399299Y165745D01*
X399540Y165720D01*
X394460D01*
X394701Y165745D01*
X394917Y165821D01*
X395108Y165948D01*
X395273Y166126D01*
X395412Y166355D01*
X395527Y166634D01*
X395616Y166964D01*
X395679Y167345D01*
X395717Y167777D01*
X395730Y168260D01*
X398270D01*
X398283Y167777D01*
D02*
G37*
G36*
X356683Y167529D02*
X356782Y166352D01*
X356869Y165874D01*
X356982Y165469D01*
X357118Y165138D01*
X357281Y164880D01*
X357467Y164696D01*
X357679Y164586D01*
X357916Y164549D01*
X352884D01*
X353121Y164586D01*
X353333Y164696D01*
X353520Y164880D01*
X353682Y165138D01*
X353819Y165469D01*
X353931Y165874D01*
X354018Y166352D01*
X354080Y166904D01*
X354118Y167529D01*
X354130Y168228D01*
X356670D01*
X356683Y167529D01*
D02*
G37*
G36*
X343983D02*
X344082Y166352D01*
X344169Y165874D01*
X344282Y165469D01*
X344418Y165138D01*
X344580Y164880D01*
X344767Y164696D01*
X344979Y164586D01*
X345216Y164549D01*
X340184D01*
X340421Y164586D01*
X340633Y164696D01*
X340820Y164880D01*
X340982Y165138D01*
X341119Y165469D01*
X341231Y165874D01*
X341318Y166352D01*
X341380Y166904D01*
X341418Y167529D01*
X341430Y168228D01*
X343970D01*
X343983Y167529D01*
D02*
G37*
G36*
X475748Y161277D02*
X475787Y161278D01*
X476077Y161303D01*
X476352Y161345D01*
X476612Y161403D01*
X476857Y161478D01*
X477087Y161569D01*
X477302Y161677D01*
X477502Y161801D01*
X477687Y161942D01*
X477858Y162100D01*
Y157900D01*
X477687Y158058D01*
X477502Y158199D01*
X477302Y158323D01*
X477087Y158431D01*
X476857Y158523D01*
X476612Y158597D01*
X476352Y158655D01*
X476077Y158697D01*
X475787Y158722D01*
X475748Y158723D01*
Y157460D01*
X475581Y157701D01*
X475382Y157917D01*
X475153Y158108D01*
X474892Y158273D01*
X474600Y158413D01*
X474277Y158527D01*
X473922Y158616D01*
X473537Y158679D01*
X473120Y158717D01*
X472673Y158730D01*
Y161270D01*
X473120Y161283D01*
X473537Y161321D01*
X473922Y161384D01*
X474277Y161473D01*
X474600Y161588D01*
X474892Y161727D01*
X475153Y161892D01*
X475382Y162083D01*
X475581Y162299D01*
X475748Y162540D01*
Y161277D01*
D02*
G37*
G36*
X464636Y162299D02*
X464713Y162083D01*
X464841Y161892D01*
X465021Y161727D01*
X465253Y161588D01*
X465536Y161473D01*
X465870Y161384D01*
X466255Y161321D01*
X466692Y161283D01*
X467181Y161270D01*
Y158730D01*
X466692Y158717D01*
X466255Y158679D01*
X465870Y158616D01*
X465536Y158527D01*
X465253Y158413D01*
X465021Y158273D01*
X464841Y158108D01*
X464713Y157917D01*
X464636Y157701D01*
X464610Y157460D01*
Y162540D01*
X464636Y162299D01*
D02*
G37*
G36*
X423584Y157460D02*
X423558Y157701D01*
X423481Y157917D01*
X423353Y158108D01*
X423173Y158273D01*
X422941Y158413D01*
X422659Y158527D01*
X422324Y158616D01*
X421939Y158679D01*
X421502Y158717D01*
X421013Y158730D01*
Y161270D01*
X421502Y161283D01*
X421939Y161321D01*
X422324Y161384D01*
X422659Y161473D01*
X422941Y161588D01*
X423173Y161727D01*
X423353Y161892D01*
X423481Y162083D01*
X423558Y162299D01*
X423584Y162540D01*
Y157460D01*
D02*
G37*
G36*
X404215Y162299D02*
X404292Y162083D01*
X404420Y161892D01*
X404600Y161727D01*
X404832Y161588D01*
X405114Y161473D01*
X405449Y161384D01*
X405834Y161321D01*
X406271Y161283D01*
X406759Y161270D01*
Y158730D01*
X406271Y158717D01*
X405834Y158679D01*
X405449Y158616D01*
X405114Y158527D01*
X404832Y158413D01*
X404600Y158273D01*
X404420Y158108D01*
X404292Y157917D01*
X404215Y157701D01*
X404189Y157460D01*
Y162540D01*
X404215Y162299D01*
D02*
G37*
G36*
X610761Y159502D02*
X610794Y159230D01*
X610849Y158965D01*
X610926Y158707D01*
X611025Y158455D01*
X611146Y158210D01*
X611289Y157971D01*
X611454Y157739D01*
X611641Y157513D01*
X611850Y157294D01*
X607650D01*
X607859Y157513D01*
X608046Y157739D01*
X608211Y157971D01*
X608354Y158210D01*
X608475Y158455D01*
X608574Y158707D01*
X608651Y158965D01*
X608706Y159230D01*
X608739Y159502D01*
X608750Y159780D01*
X610750D01*
X610761Y159502D01*
D02*
G37*
G36*
X588108Y152900D02*
X587937Y153058D01*
X587752Y153199D01*
X587552Y153323D01*
X587337Y153431D01*
X587107Y153523D01*
X586862Y153597D01*
X586602Y153655D01*
X586327Y153697D01*
X586037Y153722D01*
X585732Y153730D01*
Y156270D01*
X586037Y156278D01*
X586327Y156303D01*
X586602Y156345D01*
X586862Y156403D01*
X587107Y156477D01*
X587337Y156569D01*
X587552Y156677D01*
X587752Y156801D01*
X587937Y156942D01*
X588108Y157100D01*
Y152900D01*
D02*
G37*
G36*
X317313Y156942D02*
X317498Y156801D01*
X317698Y156677D01*
X317913Y156569D01*
X318143Y156477D01*
X318388Y156403D01*
X318648Y156345D01*
X318923Y156303D01*
X319213Y156278D01*
X319518Y156270D01*
Y153730D01*
X319213Y153722D01*
X318923Y153697D01*
X318648Y153655D01*
X318388Y153597D01*
X318143Y153523D01*
X317913Y153431D01*
X317698Y153323D01*
X317498Y153199D01*
X317313Y153058D01*
X317143Y152900D01*
Y157100D01*
X317313Y156942D01*
D02*
G37*
G36*
X327035Y152460D02*
X327010Y152701D01*
X326933Y152917D01*
X326804Y153108D01*
X326624Y153273D01*
X326393Y153413D01*
X326110Y153527D01*
X325776Y153616D01*
X325390Y153679D01*
X324953Y153717D01*
X324465Y153730D01*
Y156270D01*
X324953Y156283D01*
X325390Y156321D01*
X325776Y156384D01*
X326110Y156473D01*
X326393Y156587D01*
X326624Y156727D01*
X326804Y156892D01*
X326933Y157083D01*
X327010Y157299D01*
X327035Y157540D01*
Y152460D01*
D02*
G37*
G36*
X611641Y152791D02*
X611454Y152565D01*
X611289Y152333D01*
X611146Y152094D01*
X611025Y151849D01*
X610926Y151597D01*
X610849Y151339D01*
X610794Y151074D01*
X610761Y150802D01*
X610750Y150524D01*
X608750D01*
X608739Y150802D01*
X608706Y151074D01*
X608651Y151339D01*
X608574Y151597D01*
X608475Y151849D01*
X608354Y152094D01*
X608211Y152333D01*
X608046Y152565D01*
X607859Y152791D01*
X607650Y153010D01*
X611850D01*
X611641Y152791D01*
D02*
G37*
G36*
X562215Y153299D02*
X562292Y153083D01*
X562420Y152892D01*
X562600Y152727D01*
X562832Y152587D01*
X563114Y152473D01*
X563449Y152384D01*
X563495Y152377D01*
X563612Y152403D01*
X563857Y152478D01*
X564087Y152569D01*
X564302Y152677D01*
X564502Y152801D01*
X564687Y152942D01*
X564858Y153100D01*
Y148900D01*
X564687Y149058D01*
X564502Y149199D01*
X564302Y149323D01*
X564087Y149431D01*
X563857Y149522D01*
X563612Y149597D01*
X563495Y149623D01*
X563449Y149616D01*
X563114Y149527D01*
X562832Y149412D01*
X562600Y149273D01*
X562420Y149108D01*
X562292Y148917D01*
X562215Y148701D01*
X562189Y148460D01*
Y153540D01*
X562215Y153299D01*
D02*
G37*
G36*
X233313Y146942D02*
X233498Y146801D01*
X233698Y146677D01*
X233913Y146569D01*
X234143Y146477D01*
X234388Y146403D01*
X234648Y146345D01*
X234923Y146303D01*
X235213Y146278D01*
X235518Y146270D01*
Y143730D01*
X235213Y143722D01*
X234923Y143697D01*
X234648Y143655D01*
X234388Y143597D01*
X234143Y143523D01*
X233913Y143431D01*
X233698Y143323D01*
X233498Y143199D01*
X233313Y143058D01*
X233143Y142900D01*
Y147100D01*
X233313Y146942D01*
D02*
G37*
G36*
X356926Y144492D02*
X356872Y144428D01*
X356825Y144323D01*
X356784Y144175D01*
X356749Y143984D01*
X356721Y143752D01*
X356683Y143160D01*
X356670Y142400D01*
X354130D01*
X354127Y142801D01*
X354051Y143984D01*
X354016Y144175D01*
X353975Y144323D01*
X353928Y144428D01*
X353874Y144492D01*
X353814Y144513D01*
X356986D01*
X356926Y144492D01*
D02*
G37*
G36*
X266783Y144021D02*
X266821Y143584D01*
X266884Y143198D01*
X266973Y142864D01*
X267088Y142582D01*
X267227Y142350D01*
X267392Y142170D01*
X267583Y142042D01*
X267799Y141965D01*
X268040Y141939D01*
X262960D01*
X263201Y141965D01*
X263417Y142042D01*
X263608Y142170D01*
X263773Y142350D01*
X263913Y142582D01*
X264027Y142864D01*
X264116Y143198D01*
X264179Y143584D01*
X264217Y144021D01*
X264230Y144509D01*
X266770D01*
X266783Y144021D01*
D02*
G37*
G36*
X404215Y144299D02*
X404292Y144083D01*
X404420Y143892D01*
X404600Y143727D01*
X404832Y143588D01*
X405114Y143473D01*
X405449Y143384D01*
X405834Y143321D01*
X406056Y143301D01*
X406077Y143303D01*
X406352Y143345D01*
X406612Y143403D01*
X406857Y143477D01*
X407087Y143569D01*
X407302Y143677D01*
X407502Y143801D01*
X407687Y143942D01*
X407858Y144100D01*
Y139900D01*
X407687Y140058D01*
X407502Y140199D01*
X407302Y140323D01*
X407087Y140431D01*
X406857Y140522D01*
X406612Y140597D01*
X406352Y140655D01*
X406077Y140697D01*
X406056Y140699D01*
X405834Y140679D01*
X405449Y140616D01*
X405114Y140527D01*
X404832Y140413D01*
X404600Y140273D01*
X404420Y140108D01*
X404292Y139917D01*
X404215Y139701D01*
X404189Y139460D01*
Y144540D01*
X404215Y144299D01*
D02*
G37*
G36*
X289745Y137299D02*
X289821Y137083D01*
X289948Y136892D01*
X290126Y136727D01*
X290355Y136587D01*
X290634Y136473D01*
X290964Y136384D01*
X291345Y136321D01*
X291777Y136283D01*
X292260Y136270D01*
Y133730D01*
X291777Y133717D01*
X291345Y133679D01*
X290964Y133616D01*
X290634Y133527D01*
X290355Y133413D01*
X290126Y133273D01*
X289948Y133108D01*
X289821Y132917D01*
X289745Y132701D01*
X289720Y132460D01*
Y137540D01*
X289745Y137299D01*
D02*
G37*
G36*
X586638Y131900D02*
X586468Y132058D01*
X586283Y132199D01*
X586083Y132323D01*
X585868Y132431D01*
X585638Y132522D01*
X585393Y132597D01*
X585133Y132655D01*
X584858Y132697D01*
X584568Y132722D01*
X584263Y132730D01*
Y135270D01*
X584568Y135278D01*
X584858Y135303D01*
X585133Y135345D01*
X585393Y135403D01*
X585638Y135478D01*
X585868Y135569D01*
X586083Y135677D01*
X586283Y135801D01*
X586468Y135942D01*
X586638Y136100D01*
Y131900D01*
D02*
G37*
G36*
X562215Y135299D02*
X562292Y135083D01*
X562420Y134892D01*
X562600Y134727D01*
X562832Y134587D01*
X563114Y134473D01*
X563449Y134384D01*
X563834Y134321D01*
X564271Y134283D01*
X564760Y134270D01*
Y131730D01*
X564271Y131717D01*
X563834Y131679D01*
X563449Y131616D01*
X563114Y131527D01*
X562832Y131412D01*
X562600Y131273D01*
X562420Y131108D01*
X562292Y130917D01*
X562215Y130701D01*
X562189Y130460D01*
Y135540D01*
X562215Y135299D01*
D02*
G37*
G36*
X552062Y127281D02*
X551824Y127384D01*
X551540Y127405D01*
X551208Y127343D01*
X550830Y127198D01*
X550404Y126970D01*
X549932Y126659D01*
X549412Y126265D01*
X548232Y125229D01*
X547572Y124586D01*
X545984Y126591D01*
X546518Y127143D01*
X547350Y128118D01*
X547648Y128542D01*
X547867Y128923D01*
X548007Y129260D01*
X548068Y129555D01*
X548051Y129808D01*
X547955Y130017D01*
X547780Y130183D01*
X552062Y127281D01*
D02*
G37*
G36*
X233061Y126960D02*
X233035Y127201D01*
X232958Y127417D01*
X232830Y127608D01*
X232650Y127773D01*
X232418Y127913D01*
X232136Y128027D01*
X231801Y128116D01*
X231416Y128179D01*
X230979Y128217D01*
X230490Y128230D01*
Y130770D01*
X230979Y130783D01*
X231416Y130821D01*
X231801Y130884D01*
X232136Y130973D01*
X232418Y131088D01*
X232650Y131227D01*
X232830Y131392D01*
X232958Y131583D01*
X233035Y131799D01*
X233061Y132040D01*
Y126960D01*
D02*
G37*
G36*
X227215Y131799D02*
X227292Y131583D01*
X227420Y131392D01*
X227600Y131227D01*
X227832Y131088D01*
X228114Y130973D01*
X228449Y130884D01*
X228834Y130821D01*
X229271Y130783D01*
X229760Y130770D01*
Y128230D01*
X229271Y128217D01*
X228834Y128179D01*
X228449Y128116D01*
X228114Y128027D01*
X227832Y127913D01*
X227600Y127773D01*
X227420Y127608D01*
X227292Y127417D01*
X227215Y127201D01*
X227189Y126960D01*
Y132040D01*
X227215Y131799D01*
D02*
G37*
G36*
X137497Y130299D02*
X137574Y130083D01*
X137703Y129892D01*
X137882Y129727D01*
X138114Y129587D01*
X138397Y129473D01*
X138731Y129384D01*
X139116Y129321D01*
X139553Y129283D01*
X140042Y129270D01*
Y126730D01*
X139553Y126717D01*
X139116Y126679D01*
X138731Y126616D01*
X138397Y126527D01*
X138114Y126412D01*
X137882Y126273D01*
X137703Y126108D01*
X137574Y125917D01*
X137497Y125701D01*
X137471Y125460D01*
Y130540D01*
X137497Y130299D01*
D02*
G37*
G36*
X102529Y124285D02*
X102505Y124485D01*
X102435Y124663D01*
X102317Y124821D01*
X102153Y124958D01*
X101941Y125073D01*
X101683Y125168D01*
X101377Y125241D01*
X101024Y125294D01*
X100625Y125325D01*
X100178Y125336D01*
Y127876D01*
X100625Y127886D01*
X101024Y127918D01*
X101377Y127970D01*
X101683Y128044D01*
X101941Y128138D01*
X102153Y128254D01*
X102317Y128390D01*
X102435Y128548D01*
X102505Y128727D01*
X102529Y128926D01*
Y124285D01*
D02*
G37*
G36*
X212780Y123280D02*
X212757Y123447D01*
X212686Y123596D01*
X212569Y123728D01*
X212404Y123842D01*
X212192Y123939D01*
X211934Y124017D01*
X211628Y124079D01*
X211275Y124123D01*
X210875Y124149D01*
X210428Y124158D01*
Y126698D01*
X210879Y126709D01*
X211283Y126741D01*
X211640Y126795D01*
X211950Y126871D01*
X212211Y126968D01*
X212426Y127088D01*
X212593Y127228D01*
X212713Y127391D01*
X212786Y127575D01*
X212811Y127780D01*
X212780Y123280D01*
D02*
G37*
G36*
X475748Y124277D02*
X475787Y124278D01*
X476077Y124303D01*
X476352Y124345D01*
X476612Y124403D01*
X476857Y124477D01*
X477087Y124569D01*
X477302Y124677D01*
X477502Y124801D01*
X477687Y124942D01*
X477858Y125100D01*
Y120900D01*
X477687Y121058D01*
X477502Y121199D01*
X477302Y121323D01*
X477087Y121431D01*
X476857Y121523D01*
X476612Y121597D01*
X476352Y121655D01*
X476077Y121697D01*
X475787Y121722D01*
X475748Y121723D01*
Y120460D01*
X475581Y120701D01*
X475382Y120917D01*
X475153Y121108D01*
X474892Y121273D01*
X474600Y121412D01*
X474277Y121527D01*
X473922Y121616D01*
X473537Y121679D01*
X473120Y121717D01*
X472673Y121730D01*
Y124270D01*
X473120Y124283D01*
X473537Y124321D01*
X473922Y124384D01*
X474277Y124473D01*
X474600Y124587D01*
X474892Y124727D01*
X475153Y124892D01*
X475382Y125083D01*
X475581Y125299D01*
X475748Y125540D01*
Y124277D01*
D02*
G37*
G36*
X573111Y124510D02*
X573337Y124323D01*
X573569Y124158D01*
X573808Y124015D01*
X574053Y123894D01*
X574305Y123795D01*
X574563Y123718D01*
X574828Y123663D01*
X575100Y123630D01*
X575378Y123619D01*
Y121619D01*
X575100Y121608D01*
X574828Y121575D01*
X574563Y121520D01*
X574305Y121443D01*
X574053Y121344D01*
X573808Y121223D01*
X573569Y121080D01*
X573337Y120915D01*
X573111Y120728D01*
X572892Y120519D01*
Y124719D01*
X573111Y124510D01*
D02*
G37*
G36*
X464636Y125299D02*
X464713Y125083D01*
X464841Y124892D01*
X465021Y124727D01*
X465253Y124587D01*
X465536Y124473D01*
X465870Y124384D01*
X466255Y124321D01*
X466692Y124283D01*
X467181Y124270D01*
Y121730D01*
X466692Y121717D01*
X466255Y121679D01*
X465870Y121616D01*
X465536Y121527D01*
X465253Y121412D01*
X465021Y121273D01*
X464841Y121108D01*
X464713Y120917D01*
X464636Y120701D01*
X464610Y120460D01*
Y125540D01*
X464636Y125299D01*
D02*
G37*
G36*
X404215Y123299D02*
X404292Y123083D01*
X404421Y122892D01*
X404600Y122727D01*
X404832Y122587D01*
X405115Y122473D01*
X405449Y122384D01*
X405834Y122321D01*
X406056Y122301D01*
X406077Y122303D01*
X406352Y122345D01*
X406612Y122403D01*
X406857Y122477D01*
X407087Y122569D01*
X407302Y122677D01*
X407502Y122801D01*
X407687Y122942D01*
X407858Y123100D01*
Y118900D01*
X407687Y119058D01*
X407502Y119199D01*
X407302Y119323D01*
X407087Y119431D01*
X406857Y119522D01*
X406612Y119597D01*
X406352Y119655D01*
X406077Y119697D01*
X406056Y119698D01*
X405834Y119679D01*
X405449Y119616D01*
X405115Y119527D01*
X404832Y119412D01*
X404600Y119273D01*
X404421Y119108D01*
X404292Y118917D01*
X404215Y118701D01*
X404189Y118460D01*
Y123540D01*
X404215Y123299D01*
D02*
G37*
G36*
X87159Y127219D02*
X88795Y125777D01*
X89565Y125192D01*
X90302Y124696D01*
X91007Y124291D01*
X91679Y123975D01*
X92319Y123750D01*
X92927Y123615D01*
X93502Y123570D01*
Y121030D01*
X92927Y120985D01*
X92319Y120850D01*
X91679Y120625D01*
X91007Y120309D01*
X90302Y119904D01*
X89565Y119408D01*
X88795Y118823D01*
X87159Y117381D01*
X86292Y116525D01*
Y128075D01*
X87159Y127219D01*
D02*
G37*
G36*
X200538Y120231D02*
X200613Y120029D01*
X200737Y119851D01*
X200911Y119697D01*
X201135Y119567D01*
X201408Y119460D01*
X201732Y119377D01*
X202105Y119317D01*
X202528Y119282D01*
X203000Y119270D01*
Y116730D01*
X202528Y116718D01*
X202105Y116683D01*
X201732Y116623D01*
X201408Y116540D01*
X201135Y116433D01*
X200911Y116303D01*
X200737Y116149D01*
X200613Y115971D01*
X200538Y115769D01*
X200513Y115543D01*
Y120456D01*
X200538Y120231D01*
D02*
G37*
G36*
X159487Y115460D02*
X159461Y115701D01*
X159384Y115917D01*
X159256Y116108D01*
X159076Y116273D01*
X158844Y116412D01*
X158562Y116527D01*
X158228Y116616D01*
X157842Y116679D01*
X157405Y116717D01*
X156917Y116730D01*
Y119270D01*
X157405Y119283D01*
X157842Y119321D01*
X158228Y119384D01*
X158562Y119473D01*
X158844Y119587D01*
X159076Y119727D01*
X159256Y119892D01*
X159384Y120083D01*
X159461Y120299D01*
X159487Y120540D01*
Y115460D01*
D02*
G37*
G36*
X430512Y109553D02*
X430461Y109506D01*
X430416Y109427D01*
X430378Y109318D01*
X430345Y109176D01*
X430318Y109004D01*
X430282Y108565D01*
X430270Y108000D01*
X427730D01*
X427727Y108298D01*
X427682Y109004D01*
X427655Y109176D01*
X427623Y109318D01*
X427584Y109427D01*
X427539Y109506D01*
X427488Y109553D01*
X427432Y109568D01*
X430569D01*
X430512Y109553D01*
D02*
G37*
G36*
X287740Y111810D02*
X287800Y111640D01*
X287900Y111490D01*
X288040Y111360D01*
X288220Y111250D01*
X288440Y111160D01*
X288700Y111090D01*
X289000Y111040D01*
X289340Y111010D01*
X289720Y111000D01*
Y109000D01*
X289340Y108990D01*
X289000Y108960D01*
X288700Y108910D01*
X288440Y108840D01*
X288220Y108750D01*
X288040Y108640D01*
X287900Y108510D01*
X287800Y108360D01*
X287740Y108190D01*
X287720Y108000D01*
Y112000D01*
X287740Y111810D01*
D02*
G37*
G36*
X233061Y107960D02*
X233035Y108201D01*
X232958Y108417D01*
X232830Y108608D01*
X232650Y108773D01*
X232418Y108912D01*
X232136Y109027D01*
X231801Y109116D01*
X231416Y109179D01*
X230979Y109217D01*
X230490Y109230D01*
Y111770D01*
X230979Y111783D01*
X231416Y111821D01*
X231801Y111884D01*
X232136Y111973D01*
X232418Y112087D01*
X232650Y112227D01*
X232830Y112392D01*
X232958Y112583D01*
X233035Y112799D01*
X233061Y113040D01*
Y107960D01*
D02*
G37*
G36*
X227215Y112799D02*
X227292Y112583D01*
X227420Y112392D01*
X227600Y112227D01*
X227832Y112087D01*
X228114Y111973D01*
X228449Y111884D01*
X228834Y111821D01*
X229271Y111783D01*
X229760Y111770D01*
Y109230D01*
X229271Y109217D01*
X228834Y109179D01*
X228449Y109116D01*
X228114Y109027D01*
X227832Y108912D01*
X227600Y108773D01*
X227420Y108608D01*
X227292Y108417D01*
X227215Y108201D01*
X227189Y107960D01*
Y113040D01*
X227215Y112799D01*
D02*
G37*
G36*
X371090Y109299D02*
X371167Y109083D01*
X371296Y108892D01*
X371476Y108727D01*
X371707Y108588D01*
X371990Y108473D01*
X372324Y108384D01*
X372710Y108321D01*
X373147Y108283D01*
X373635Y108270D01*
Y105730D01*
X373147Y105717D01*
X372710Y105679D01*
X372324Y105616D01*
X371990Y105527D01*
X371707Y105413D01*
X371476Y105273D01*
X371296Y105108D01*
X371167Y104917D01*
X371090Y104701D01*
X371065Y104460D01*
Y109540D01*
X371090Y109299D01*
D02*
G37*
G36*
X327035Y104460D02*
X327010Y104701D01*
X326933Y104917D01*
X326804Y105108D01*
X326624Y105273D01*
X326393Y105413D01*
X326110Y105527D01*
X325776Y105616D01*
X325390Y105679D01*
X324953Y105717D01*
X324465Y105730D01*
Y108270D01*
X324953Y108283D01*
X325390Y108321D01*
X325776Y108384D01*
X326110Y108473D01*
X326393Y108588D01*
X326624Y108727D01*
X326804Y108892D01*
X326933Y109083D01*
X327010Y109299D01*
X327035Y109540D01*
Y104460D01*
D02*
G37*
G36*
X381270Y107000D02*
X378730Y103190D01*
X378705Y103673D01*
X378629Y104104D01*
X378502Y104485D01*
X378324Y104816D01*
X378095Y105095D01*
X377816Y105324D01*
X377486Y105501D01*
X377104Y105628D01*
X376673Y105705D01*
X376190Y105730D01*
Y108270D01*
X376673Y108295D01*
X377104Y108372D01*
X377486Y108499D01*
X377816Y108676D01*
X378095Y108905D01*
X378324Y109184D01*
X378502Y109515D01*
X378629Y109896D01*
X378705Y110327D01*
X378730Y110810D01*
X381270Y107000D01*
D02*
G37*
G36*
X222299Y105285D02*
X222083Y105208D01*
X221892Y105080D01*
X221727Y104900D01*
X221588Y104668D01*
X221473Y104386D01*
X221384Y104051D01*
X221321Y103666D01*
X221283Y103229D01*
X221270Y102740D01*
X218730D01*
X218717Y103229D01*
X218679Y103666D01*
X218616Y104051D01*
X218527Y104386D01*
X218412Y104668D01*
X218273Y104900D01*
X218108Y105080D01*
X217917Y105208D01*
X217701Y105285D01*
X217460Y105311D01*
X222540D01*
X222299Y105285D01*
D02*
G37*
G36*
X268799Y103535D02*
X268583Y103458D01*
X268392Y103330D01*
X268227Y103150D01*
X268088Y102918D01*
X267973Y102636D01*
X267884Y102301D01*
X267821Y101916D01*
X267783Y101479D01*
X267770Y100990D01*
X265230D01*
X265217Y101479D01*
X265179Y101916D01*
X265116Y102301D01*
X265027Y102636D01*
X264913Y102918D01*
X264773Y103150D01*
X264608Y103330D01*
X264417Y103458D01*
X264201Y103535D01*
X263960Y103561D01*
X269040D01*
X268799Y103535D01*
D02*
G37*
G36*
X404215Y105299D02*
X404292Y105083D01*
X404421Y104892D01*
X404600Y104727D01*
X404832Y104587D01*
X405115Y104473D01*
X405449Y104384D01*
X405834Y104321D01*
X406271Y104283D01*
X406760Y104270D01*
Y101730D01*
X406271Y101717D01*
X405834Y101679D01*
X405449Y101616D01*
X405115Y101527D01*
X404832Y101412D01*
X404600Y101273D01*
X404421Y101108D01*
X404292Y100917D01*
X404215Y100701D01*
X404189Y100460D01*
Y105540D01*
X404215Y105299D01*
D02*
G37*
G36*
X617611Y100339D02*
X617641Y100000D01*
X617691Y99699D01*
X617761Y99439D01*
X617851Y99220D01*
X617961Y99039D01*
X618091Y98899D01*
X618241Y98799D01*
X618411Y98740D01*
X618601Y98720D01*
X614601D01*
X614791Y98740D01*
X614961Y98799D01*
X615111Y98899D01*
X615241Y99039D01*
X615351Y99220D01*
X615441Y99439D01*
X615511Y99699D01*
X615561Y100000D01*
X615591Y100339D01*
X615601Y100719D01*
X617601D01*
X617611Y100339D01*
D02*
G37*
G36*
X399799Y97255D02*
X399583Y97179D01*
X399392Y97052D01*
X399227Y96874D01*
X399088Y96645D01*
X398973Y96366D01*
X398884Y96036D01*
X398821Y95655D01*
X398783Y95223D01*
X398770Y94740D01*
X396230D01*
X396217Y95223D01*
X396179Y95655D01*
X396116Y96036D01*
X396027Y96366D01*
X395913Y96645D01*
X395773Y96874D01*
X395608Y97052D01*
X395417Y97179D01*
X395201Y97255D01*
X394960Y97280D01*
X400040D01*
X399799Y97255D01*
D02*
G37*
G36*
X357679Y97414D02*
X357467Y97304D01*
X357281Y97120D01*
X357118Y96862D01*
X356982Y96531D01*
X356869Y96126D01*
X356782Y95648D01*
X356720Y95096D01*
X356683Y94471D01*
X356670Y93772D01*
X354130D01*
X354118Y94471D01*
X354018Y95648D01*
X353931Y96126D01*
X353819Y96531D01*
X353682Y96862D01*
X353520Y97120D01*
X353333Y97304D01*
X353121Y97414D01*
X352884Y97451D01*
X357916D01*
X357679Y97414D01*
D02*
G37*
G36*
X484215Y96299D02*
X484292Y96083D01*
X484420Y95892D01*
X484600Y95727D01*
X484832Y95588D01*
X485114Y95473D01*
X485449Y95384D01*
X485466Y95381D01*
X485562Y95403D01*
X485807Y95478D01*
X486037Y95569D01*
X486252Y95677D01*
X486452Y95801D01*
X486637Y95942D01*
X486808Y96100D01*
Y91900D01*
X486637Y92058D01*
X486452Y92199D01*
X486252Y92323D01*
X486037Y92431D01*
X485807Y92522D01*
X485562Y92597D01*
X485466Y92619D01*
X485449Y92616D01*
X485114Y92527D01*
X484832Y92413D01*
X484600Y92273D01*
X484420Y92108D01*
X484292Y91917D01*
X484215Y91701D01*
X484189Y91460D01*
Y96540D01*
X484215Y96299D01*
D02*
G37*
G36*
X398783Y91021D02*
X398821Y90584D01*
X398884Y90198D01*
X398973Y89864D01*
X399088Y89582D01*
X399227Y89350D01*
X399392Y89170D01*
X399583Y89042D01*
X399799Y88965D01*
X400040Y88939D01*
X394960D01*
X395201Y88965D01*
X395417Y89042D01*
X395608Y89170D01*
X395773Y89350D01*
X395913Y89582D01*
X396027Y89864D01*
X396116Y90198D01*
X396179Y90584D01*
X396217Y91021D01*
X396230Y91510D01*
X398770D01*
X398783Y91021D01*
D02*
G37*
G36*
X344979Y97414D02*
X344767Y97304D01*
X344580Y97120D01*
X344418Y96862D01*
X344282Y96531D01*
X344169Y96126D01*
X344082Y95648D01*
X344020Y95096D01*
X343983Y94471D01*
X343970Y93772D01*
X343416D01*
X343970Y93000D01*
X342183Y90510D01*
X343970D01*
X343983Y90021D01*
X344021Y89584D01*
X344084Y89199D01*
X344173Y88864D01*
X344288Y88582D01*
X344427Y88350D01*
X344592Y88170D01*
X344783Y88042D01*
X344999Y87965D01*
X345240Y87939D01*
X340160D01*
X340401Y87965D01*
X340617Y88042D01*
X340808Y88170D01*
X340973Y88350D01*
X341113Y88582D01*
X341227Y88864D01*
X341316Y89199D01*
X341379Y89584D01*
X341410Y89939D01*
X341410Y89943D01*
X341350Y90374D01*
X341250Y90755D01*
X341110Y91086D01*
X340930Y91365D01*
X340710Y91594D01*
X340450Y91771D01*
X340150Y91898D01*
X339810Y91975D01*
X339430Y92000D01*
Y94000D01*
X339810Y94025D01*
X340150Y94102D01*
X340450Y94229D01*
X340710Y94406D01*
X340930Y94635D01*
X341110Y94914D01*
X341250Y95245D01*
X341327Y95539D01*
X341318Y95648D01*
X341231Y96126D01*
X341119Y96531D01*
X340982Y96862D01*
X340820Y97120D01*
X340633Y97304D01*
X340421Y97414D01*
X340184Y97451D01*
X345216D01*
X344979Y97414D01*
D02*
G37*
G36*
X462049Y87035D02*
X461833Y86958D01*
X461642Y86830D01*
X461477Y86650D01*
X461338Y86418D01*
X461223Y86136D01*
X461134Y85801D01*
X461071Y85416D01*
X461033Y84979D01*
X461020Y84490D01*
X458480D01*
X458467Y84979D01*
X458429Y85416D01*
X458366Y85801D01*
X458277Y86136D01*
X458162Y86418D01*
X458023Y86650D01*
X457858Y86830D01*
X457667Y86958D01*
X457451Y87035D01*
X457210Y87061D01*
X462290D01*
X462049Y87035D01*
D02*
G37*
G36*
X559692Y85687D02*
X559551Y85502D01*
X559427Y85302D01*
X559319Y85087D01*
X559227Y84857D01*
X559153Y84612D01*
X559095Y84352D01*
X559053Y84077D01*
X559028Y83787D01*
X559027Y83748D01*
X560290D01*
X560049Y83581D01*
X559833Y83382D01*
X559642Y83152D01*
X559477Y82892D01*
X559338Y82600D01*
X559223Y82277D01*
X559134Y81922D01*
X559071Y81537D01*
X559033Y81120D01*
X559020Y80673D01*
X556480D01*
X556467Y81120D01*
X556429Y81537D01*
X556366Y81922D01*
X556277Y82277D01*
X556162Y82600D01*
X556023Y82892D01*
X555858Y83152D01*
X555667Y83382D01*
X555451Y83581D01*
X555210Y83748D01*
X556473D01*
X556472Y83787D01*
X556447Y84077D01*
X556405Y84352D01*
X556347Y84612D01*
X556273Y84857D01*
X556181Y85087D01*
X556073Y85302D01*
X555949Y85502D01*
X555808Y85687D01*
X555650Y85858D01*
X559850D01*
X559692Y85687D01*
D02*
G37*
G36*
X373311Y80460D02*
X373285Y80701D01*
X373208Y80917D01*
X373080Y81108D01*
X372900Y81273D01*
X372668Y81412D01*
X372386Y81527D01*
X372052Y81616D01*
X371666Y81679D01*
X371229Y81717D01*
X370741Y81730D01*
Y84270D01*
X371229Y84283D01*
X371666Y84321D01*
X372052Y84384D01*
X372386Y84473D01*
X372668Y84587D01*
X372900Y84727D01*
X373080Y84892D01*
X373208Y85083D01*
X373285Y85299D01*
X373311Y85540D01*
Y80460D01*
D02*
G37*
G36*
X461033Y79110D02*
X461071Y78673D01*
X461134Y78287D01*
X461223Y77953D01*
X461338Y77670D01*
X461477Y77439D01*
X461642Y77259D01*
X461833Y77130D01*
X462049Y77053D01*
X462290Y77028D01*
X457210D01*
X457451Y77053D01*
X457667Y77130D01*
X457858Y77259D01*
X458023Y77439D01*
X458162Y77670D01*
X458277Y77953D01*
X458366Y78287D01*
X458429Y78673D01*
X458467Y79110D01*
X458480Y79598D01*
X461020D01*
X461033Y79110D01*
D02*
G37*
G36*
X449960Y79936D02*
X450022Y79807D01*
X450125Y79693D01*
X450269Y79594D01*
X450454Y79510D01*
X450681Y79442D01*
X450949Y79388D01*
X451258Y79350D01*
X451609Y79328D01*
X452000Y79320D01*
Y76780D01*
X451609Y76772D01*
X450949Y76712D01*
X450681Y76658D01*
X450454Y76590D01*
X450269Y76506D01*
X450125Y76407D01*
X450022Y76293D01*
X449960Y76164D01*
X449939Y76020D01*
Y80080D01*
X449960Y79936D01*
D02*
G37*
G36*
X456522Y73558D02*
X456507Y73649D01*
X456456Y73731D01*
X456369Y73803D01*
X456246Y73865D01*
X456086Y73918D01*
X455890Y73961D01*
X455657Y73994D01*
X455389Y74018D01*
X454742Y74038D01*
Y76578D01*
X455078Y76581D01*
X456097Y76660D01*
X456271Y76697D01*
X456412Y76740D01*
X456521Y76790D01*
X456597Y76846D01*
X456641Y76909D01*
X456522Y73558D01*
D02*
G37*
G36*
X483430Y76797D02*
X483545Y76697D01*
X483704Y76609D01*
X483907Y76532D01*
X484154Y76467D01*
X484445Y76414D01*
X484780Y76373D01*
X485581Y76326D01*
X486048Y76320D01*
Y73780D01*
X485581Y73774D01*
X484445Y73686D01*
X484154Y73633D01*
X483907Y73568D01*
X483704Y73491D01*
X483545Y73403D01*
X483430Y73303D01*
X483359Y73191D01*
Y76909D01*
X483430Y76797D01*
D02*
G37*
G36*
X380299Y75035D02*
X380083Y74958D01*
X379892Y74830D01*
X379727Y74650D01*
X379588Y74418D01*
X379473Y74136D01*
X379384Y73801D01*
X379321Y73416D01*
X379283Y72979D01*
X379270Y72491D01*
X376730D01*
X376717Y72979D01*
X376679Y73416D01*
X376616Y73801D01*
X376527Y74136D01*
X376413Y74418D01*
X376273Y74650D01*
X376108Y74830D01*
X375917Y74958D01*
X375701Y75035D01*
X375460Y75061D01*
X380540D01*
X380299Y75035D01*
D02*
G37*
G36*
X499831Y76846D02*
X499508Y76487D01*
X499257Y76128D01*
X499077Y75768D01*
X498969Y75409D01*
X498933Y75050D01*
X498969Y74691D01*
X499077Y74331D01*
X499257Y73972D01*
X499508Y73613D01*
X499831Y73254D01*
X497509Y71984D01*
X497142Y72325D01*
X496761Y72631D01*
X496365Y72900D01*
X495953Y73133D01*
X495527Y73331D01*
X495086Y73493D01*
X494630Y73618D01*
X494159Y73708D01*
X493674Y73762D01*
X493173Y73780D01*
Y76320D01*
X493674Y76338D01*
X494159Y76392D01*
X494630Y76482D01*
X495086Y76607D01*
X495527Y76769D01*
X495953Y76967D01*
X496365Y77200D01*
X496761Y77469D01*
X497142Y77775D01*
X497509Y78116D01*
X499831Y76846D01*
D02*
G37*
G36*
X701045Y77672D02*
X701106Y77326D01*
X701208Y77021D01*
X701350Y76757D01*
X701533Y76534D01*
X701756Y76351D01*
X702020Y76209D01*
X702325Y76107D01*
X702671Y76046D01*
X703057Y76026D01*
Y73994D01*
X702671Y73973D01*
X702325Y73912D01*
X702020Y73811D01*
X701756Y73668D01*
X701533Y73486D01*
X701350Y73262D01*
X701208Y72998D01*
X701106Y72693D01*
X701045Y72348D01*
X701025Y71962D01*
X698993D01*
X698972Y72348D01*
X698911Y72693D01*
X698810Y72998D01*
X698668Y73262D01*
X698485Y73486D01*
X698261Y73668D01*
X697997Y73811D01*
X697692Y73912D01*
X697347Y73973D01*
X696961Y73994D01*
Y76026D01*
X697347Y76046D01*
X697692Y76107D01*
X697997Y76209D01*
X698261Y76351D01*
X698485Y76534D01*
X698668Y76757D01*
X698810Y77021D01*
X698911Y77326D01*
X698972Y77672D01*
X698993Y78058D01*
X701025D01*
X701045Y77672D01*
D02*
G37*
G36*
X326299Y74035D02*
X326083Y73958D01*
X325892Y73830D01*
X325727Y73650D01*
X325588Y73418D01*
X325473Y73136D01*
X325384Y72801D01*
X325321Y72416D01*
X325283Y71979D01*
X325270Y71491D01*
X322730D01*
X322717Y71979D01*
X322679Y72416D01*
X322616Y72801D01*
X322527Y73136D01*
X322413Y73418D01*
X322273Y73650D01*
X322108Y73830D01*
X321917Y73958D01*
X321701Y74035D01*
X321460Y74061D01*
X326540D01*
X326299Y74035D01*
D02*
G37*
G36*
X293283Y72513D02*
X293321Y72078D01*
X293384Y71694D01*
X293472Y71361D01*
X293585Y71079D01*
X293724Y70849D01*
X293888Y70669D01*
X294077Y70541D01*
X294291Y70465D01*
X294531Y70439D01*
X289470D01*
X289709Y70465D01*
X289923Y70541D01*
X290112Y70669D01*
X290276Y70849D01*
X290415Y71079D01*
X290528Y71361D01*
X290617Y71694D01*
X290680Y72078D01*
X290718Y72513D01*
X290730Y73000D01*
X293270D01*
X293283Y72513D01*
D02*
G37*
G36*
X249274Y72858D02*
X250100D01*
X249942Y72687D01*
X249801Y72502D01*
X249677Y72302D01*
X249569Y72087D01*
X249478Y71857D01*
X249405Y71620D01*
X249473Y71364D01*
X249588Y71082D01*
X249727Y70850D01*
X249892Y70670D01*
X250083Y70542D01*
X250299Y70465D01*
X250540Y70439D01*
X245460D01*
X245701Y70465D01*
X245917Y70542D01*
X246108Y70670D01*
X246273Y70850D01*
X246413Y71082D01*
X246527Y71364D01*
X246595Y71620D01*
X246523Y71857D01*
X246431Y72087D01*
X246323Y72302D01*
X246199Y72502D01*
X246058Y72687D01*
X245900Y72858D01*
X246726D01*
X246730Y73010D01*
X249270D01*
X249274Y72858D01*
D02*
G37*
G36*
X215283Y72521D02*
X215321Y72084D01*
X215384Y71698D01*
X215473Y71364D01*
X215588Y71082D01*
X215727Y70850D01*
X215892Y70670D01*
X216083Y70542D01*
X216299Y70465D01*
X216540Y70439D01*
X211460D01*
X211701Y70465D01*
X211917Y70542D01*
X212108Y70670D01*
X212273Y70850D01*
X212413Y71082D01*
X212527Y71364D01*
X212616Y71698D01*
X212679Y72084D01*
X212717Y72521D01*
X212730Y73010D01*
X215270D01*
X215283Y72521D01*
D02*
G37*
G36*
X169274Y72858D02*
X170100D01*
X169942Y72687D01*
X169801Y72502D01*
X169677Y72302D01*
X169569Y72087D01*
X169478Y71857D01*
X169405Y71620D01*
X169473Y71364D01*
X169587Y71082D01*
X169727Y70850D01*
X169892Y70670D01*
X170083Y70542D01*
X170299Y70465D01*
X170540Y70439D01*
X165460D01*
X165701Y70465D01*
X165917Y70542D01*
X166108Y70670D01*
X166273Y70850D01*
X166413Y71082D01*
X166527Y71364D01*
X166595Y71620D01*
X166523Y71857D01*
X166431Y72087D01*
X166323Y72302D01*
X166199Y72502D01*
X166058Y72687D01*
X165900Y72858D01*
X166726D01*
X166730Y73010D01*
X169270D01*
X169274Y72858D01*
D02*
G37*
G36*
X617358Y69296D02*
X617230Y69250D01*
X617118Y69173D01*
X617020Y69066D01*
X616938Y68928D01*
X616870Y68760D01*
X616818Y68561D01*
X616780Y68331D01*
X616758Y68071D01*
X616750Y67780D01*
X615250D01*
X615243Y68071D01*
X615220Y68331D01*
X615183Y68561D01*
X615130Y68760D01*
X615063Y68928D01*
X614980Y69066D01*
X614883Y69173D01*
X614770Y69250D01*
X614643Y69296D01*
X614500Y69311D01*
X617500D01*
X617358Y69296D01*
D02*
G37*
G36*
X483430Y70297D02*
X483545Y70197D01*
X483704Y70109D01*
X483907Y70032D01*
X484154Y69967D01*
X484445Y69914D01*
X484780Y69873D01*
X485581Y69826D01*
X486048Y69820D01*
Y67280D01*
X485581Y67274D01*
X484445Y67186D01*
X484154Y67133D01*
X483907Y67068D01*
X483704Y66991D01*
X483545Y66903D01*
X483430Y66803D01*
X483359Y66691D01*
Y70409D01*
X483430Y70297D01*
D02*
G37*
G36*
X489308Y66450D02*
X489137Y66608D01*
X488952Y66749D01*
X488752Y66873D01*
X488537Y66981D01*
X488307Y67073D01*
X488062Y67147D01*
X487802Y67205D01*
X487527Y67247D01*
X487237Y67272D01*
X486932Y67280D01*
Y69820D01*
X487237Y69828D01*
X487527Y69853D01*
X487802Y69895D01*
X488062Y69953D01*
X488307Y70027D01*
X488537Y70119D01*
X488752Y70227D01*
X488952Y70351D01*
X489137Y70492D01*
X489308Y70650D01*
Y66450D01*
D02*
G37*
G36*
X379283Y68271D02*
X379321Y67834D01*
X379384Y67449D01*
X379473Y67114D01*
X379588Y66832D01*
X379727Y66600D01*
X379892Y66420D01*
X380083Y66292D01*
X380299Y66215D01*
X380540Y66189D01*
X375460D01*
X375701Y66215D01*
X375917Y66292D01*
X376108Y66420D01*
X376273Y66600D01*
X376413Y66832D01*
X376527Y67114D01*
X376616Y67449D01*
X376679Y67834D01*
X376717Y68271D01*
X376730Y68759D01*
X379270D01*
X379283Y68271D01*
D02*
G37*
G36*
X325283D02*
X325321Y67834D01*
X325384Y67449D01*
X325473Y67114D01*
X325588Y66832D01*
X325727Y66600D01*
X325892Y66420D01*
X326083Y66292D01*
X326299Y66215D01*
X326540Y66189D01*
X321460D01*
X321701Y66215D01*
X321917Y66292D01*
X322108Y66420D01*
X322273Y66600D01*
X322413Y66832D01*
X322527Y67114D01*
X322616Y67449D01*
X322679Y67834D01*
X322717Y68271D01*
X322730Y68759D01*
X325270D01*
X325283Y68271D01*
D02*
G37*
G36*
X586757Y69667D02*
X586784Y69376D01*
X586832Y69095D01*
X586899Y68825D01*
X586987Y68566D01*
X587095Y68318D01*
X587224Y68081D01*
X587372Y67854D01*
X587541Y67639D01*
X587730Y67434D01*
X586316Y66020D01*
X586111Y66209D01*
X585896Y66378D01*
X585669Y66526D01*
X585432Y66655D01*
X585184Y66763D01*
X584925Y66851D01*
X584655Y66918D01*
X584374Y66966D01*
X584083Y66993D01*
X583780Y67000D01*
X586750Y69970D01*
X586757Y69667D01*
D02*
G37*
G36*
X616764Y64456D02*
X616804Y64206D01*
X616872Y63954D01*
X616966Y63700D01*
X617088Y63445D01*
X617236Y63187D01*
X617412Y62929D01*
X617614Y62668D01*
X617844Y62406D01*
X618100Y62142D01*
X613900D01*
X614157Y62406D01*
X614589Y62929D01*
X614764Y63187D01*
X614913Y63445D01*
X615034Y63700D01*
X615129Y63954D01*
X615196Y64206D01*
X615237Y64456D01*
X615250Y64705D01*
X616750D01*
X616764Y64456D01*
D02*
G37*
G36*
X483430Y63797D02*
X483545Y63697D01*
X483704Y63609D01*
X483907Y63532D01*
X484154Y63467D01*
X484445Y63414D01*
X484780Y63373D01*
X485581Y63326D01*
X486048Y63320D01*
Y60780D01*
X485581Y60774D01*
X484445Y60686D01*
X484154Y60633D01*
X483907Y60568D01*
X483704Y60491D01*
X483545Y60403D01*
X483430Y60303D01*
X483359Y60191D01*
Y63909D01*
X483430Y63797D01*
D02*
G37*
G36*
X462930D02*
X463045Y63697D01*
X463204Y63609D01*
X463407Y63532D01*
X463654Y63467D01*
X463945Y63414D01*
X464280Y63373D01*
X465081Y63326D01*
X465548Y63320D01*
Y60780D01*
X465081Y60774D01*
X463945Y60686D01*
X463654Y60633D01*
X463407Y60568D01*
X463204Y60491D01*
X463045Y60403D01*
X462930Y60303D01*
X462859Y60191D01*
Y63909D01*
X462930Y63797D01*
D02*
G37*
G36*
X456641Y60191D02*
X456574Y60303D01*
X456471Y60403D01*
X456332Y60491D01*
X456157Y60568D01*
X455946Y60633D01*
X455699Y60686D01*
X455416Y60727D01*
X455097Y60756D01*
X454350Y60780D01*
Y63320D01*
X454742Y63326D01*
X455416Y63373D01*
X455699Y63414D01*
X455946Y63467D01*
X456157Y63532D01*
X456332Y63609D01*
X456471Y63697D01*
X456574Y63797D01*
X456641Y63909D01*
Y60191D01*
D02*
G37*
G36*
X579611Y61891D02*
X579837Y61704D01*
X580069Y61539D01*
X580308Y61396D01*
X580553Y61275D01*
X580805Y61176D01*
X581063Y61099D01*
X581329Y61044D01*
X581600Y61011D01*
X581879Y61000D01*
Y59000D01*
X581600Y58989D01*
X581329Y58956D01*
X581063Y58901D01*
X580805Y58824D01*
X580553Y58725D01*
X580308Y58604D01*
X580069Y58461D01*
X579837Y58296D01*
X579611Y58109D01*
X579393Y57900D01*
Y62100D01*
X579611Y61891D01*
D02*
G37*
G36*
X449960Y61586D02*
X450022Y61456D01*
X450125Y61342D01*
X450269Y61244D01*
X450454Y61160D01*
X450681Y61091D01*
X450949Y61038D01*
X451258Y61000D01*
X451609Y60977D01*
X452000Y60970D01*
Y58430D01*
X451609Y58422D01*
X450949Y58361D01*
X450681Y58308D01*
X450454Y58240D01*
X450269Y58156D01*
X450125Y58057D01*
X450022Y57943D01*
X449960Y57814D01*
X449939Y57669D01*
Y61730D01*
X449960Y61586D01*
D02*
G37*
G36*
X778901Y57650D02*
X778152Y58391D01*
X776744Y59639D01*
X776086Y60146D01*
X775457Y60575D01*
X774860Y60926D01*
X774292Y61199D01*
X773755Y61394D01*
X773248Y61511D01*
X772772Y61550D01*
Y63550D01*
X773248Y63589D01*
X773755Y63706D01*
X774292Y63901D01*
X774860Y64174D01*
X775457Y64525D01*
X776086Y64954D01*
X776744Y65461D01*
X778152Y66709D01*
X778901Y67450D01*
Y57650D01*
D02*
G37*
G36*
X214299Y59505D02*
X214083Y59429D01*
X213892Y59302D01*
X213727Y59124D01*
X213588Y58896D01*
X213473Y58616D01*
X213384Y58286D01*
X213321Y57905D01*
X213283Y57473D01*
X213270Y56990D01*
X210730D01*
X210717Y57473D01*
X210679Y57905D01*
X210616Y58286D01*
X210527Y58616D01*
X210413Y58896D01*
X210273Y59124D01*
X210108Y59302D01*
X209917Y59429D01*
X209701Y59505D01*
X209460Y59531D01*
X214540D01*
X214299Y59505D01*
D02*
G37*
G36*
X433296Y62377D02*
X433372Y61946D01*
X433499Y61564D01*
X433676Y61234D01*
X433905Y60955D01*
X434184Y60726D01*
X434515Y60549D01*
X434833Y60443D01*
X435136Y60523D01*
X435418Y60637D01*
X435650Y60777D01*
X435830Y60942D01*
X435958Y61133D01*
X436035Y61349D01*
X436061Y61590D01*
Y56510D01*
X436035Y56751D01*
X435958Y56967D01*
X435830Y57158D01*
X435650Y57323D01*
X435418Y57462D01*
X435136Y57577D01*
X434801Y57666D01*
X434416Y57729D01*
X433979Y57767D01*
X433491Y57780D01*
Y58774D01*
X432000Y57780D01*
X428190Y60320D01*
X428673Y60345D01*
X429104Y60422D01*
X429486Y60549D01*
X429816Y60726D01*
X430095Y60955D01*
X430324Y61234D01*
X430502Y61564D01*
X430629Y61946D01*
X430705Y62377D01*
X430730Y62860D01*
X433270D01*
X433296Y62377D01*
D02*
G37*
G36*
X354311Y56460D02*
X354285Y56701D01*
X354208Y56917D01*
X354080Y57108D01*
X353900Y57273D01*
X353668Y57413D01*
X353386Y57527D01*
X353051Y57616D01*
X352666Y57679D01*
X352229Y57717D01*
X351740Y57730D01*
Y60270D01*
X352229Y60283D01*
X352666Y60321D01*
X353051Y60384D01*
X353386Y60473D01*
X353668Y60588D01*
X353900Y60727D01*
X354080Y60892D01*
X354208Y61083D01*
X354285Y61299D01*
X354311Y61540D01*
Y56460D01*
D02*
G37*
G36*
X347745Y61299D02*
X347821Y61083D01*
X347948Y60892D01*
X348126Y60727D01*
X348355Y60588D01*
X348634Y60473D01*
X348964Y60384D01*
X349345Y60321D01*
X349777Y60283D01*
X350260Y60270D01*
Y57730D01*
X349777Y57717D01*
X349345Y57679D01*
X348964Y57616D01*
X348634Y57527D01*
X348355Y57413D01*
X348126Y57273D01*
X347948Y57108D01*
X347821Y56917D01*
X347745Y56701D01*
X347720Y56460D01*
Y61540D01*
X347745Y61299D01*
D02*
G37*
G36*
X611505Y59602D02*
X611569Y58927D01*
X611628Y58620D01*
X611705Y58333D01*
X611800Y58067D01*
X611912Y57821D01*
X612043Y57595D01*
X612191Y57389D01*
X612357Y57204D01*
X611297Y56143D01*
X611111Y56309D01*
X610905Y56458D01*
X610680Y56588D01*
X610433Y56701D01*
X610167Y56795D01*
X609880Y56872D01*
X609573Y56931D01*
X609246Y56972D01*
X608898Y56995D01*
X608530Y57000D01*
X611500Y59970D01*
X611505Y59602D01*
D02*
G37*
G36*
X618066Y57781D02*
X617665Y57205D01*
X617502Y56927D01*
X617364Y56655D01*
X617251Y56389D01*
X617163Y56130D01*
X617100Y55877D01*
X617063Y55630D01*
X617050Y55390D01*
X615550Y55234D01*
X615536Y55489D01*
X615493Y55741D01*
X615422Y55991D01*
X615322Y56238D01*
X615194Y56481D01*
X615037Y56722D01*
X614852Y56961D01*
X614638Y57196D01*
X614396Y57428D01*
X614125Y57658D01*
X618304Y58078D01*
X618066Y57781D01*
D02*
G37*
G36*
X484858Y53600D02*
X484687Y53757D01*
X484502Y53899D01*
X484302Y54023D01*
X484087Y54131D01*
X483857Y54222D01*
X483612Y54297D01*
X483352Y54355D01*
X483077Y54397D01*
X482787Y54421D01*
X482482Y54430D01*
Y56970D01*
X482787Y56978D01*
X483077Y57003D01*
X483352Y57044D01*
X483612Y57102D01*
X483857Y57177D01*
X484087Y57269D01*
X484302Y57376D01*
X484502Y57501D01*
X484687Y57642D01*
X484858Y57800D01*
Y53600D01*
D02*
G37*
G36*
X559020Y52465D02*
X559028Y52160D01*
X559052Y51870D01*
X559092Y51594D01*
X559148Y51333D01*
X559220Y51086D01*
X559307Y50853D01*
X559411Y50634D01*
X559531Y50430D01*
X559666Y50241D01*
X559818Y50065D01*
X555621Y50217D01*
X555784Y50381D01*
X555930Y50561D01*
X556059Y50757D01*
X556171Y50969D01*
X556265Y51196D01*
X556343Y51439D01*
X556403Y51697D01*
X556446Y51971D01*
X556471Y52261D01*
X556480Y52566D01*
X559020Y52465D01*
D02*
G37*
G36*
X380799Y51785D02*
X380583Y51708D01*
X380392Y51580D01*
X380227Y51400D01*
X380088Y51168D01*
X379973Y50886D01*
X379884Y50551D01*
X379821Y50166D01*
X379783Y49729D01*
X379770Y49240D01*
X377230D01*
X377217Y49729D01*
X377179Y50166D01*
X377116Y50551D01*
X377027Y50886D01*
X376913Y51168D01*
X376773Y51400D01*
X376608Y51580D01*
X376417Y51708D01*
X376201Y51785D01*
X375960Y51811D01*
X381040D01*
X380799Y51785D01*
D02*
G37*
G36*
X362299D02*
X362083Y51708D01*
X361892Y51580D01*
X361727Y51400D01*
X361588Y51168D01*
X361473Y50886D01*
X361384Y50551D01*
X361321Y50166D01*
X361283Y49729D01*
X361270Y49240D01*
X358730D01*
X358717Y49729D01*
X358679Y50166D01*
X358616Y50551D01*
X358527Y50886D01*
X358413Y51168D01*
X358273Y51400D01*
X358108Y51580D01*
X357917Y51708D01*
X357701Y51785D01*
X357460Y51811D01*
X362540D01*
X362299Y51785D01*
D02*
G37*
G36*
X344799D02*
X344583Y51708D01*
X344392Y51580D01*
X344227Y51400D01*
X344088Y51168D01*
X343973Y50886D01*
X343884Y50551D01*
X343821Y50166D01*
X343783Y49729D01*
X343770Y49240D01*
X341230D01*
X341217Y49729D01*
X341179Y50166D01*
X341116Y50551D01*
X341027Y50886D01*
X340913Y51168D01*
X340773Y51400D01*
X340608Y51580D01*
X340417Y51708D01*
X340201Y51785D01*
X339960Y51811D01*
X345040D01*
X344799Y51785D01*
D02*
G37*
G36*
X326299D02*
X326083Y51708D01*
X325892Y51580D01*
X325727Y51400D01*
X325588Y51168D01*
X325473Y50886D01*
X325384Y50551D01*
X325321Y50166D01*
X325283Y49729D01*
X325270Y49240D01*
X322730D01*
X322717Y49729D01*
X322679Y50166D01*
X322616Y50551D01*
X322527Y50886D01*
X322413Y51168D01*
X322273Y51400D01*
X322108Y51580D01*
X321917Y51708D01*
X321701Y51785D01*
X321460Y51811D01*
X326540D01*
X326299Y51785D01*
D02*
G37*
G36*
X497283Y50821D02*
X497321Y50384D01*
X497384Y49999D01*
X497473Y49664D01*
X497588Y49382D01*
X497727Y49150D01*
X497892Y48970D01*
X498083Y48842D01*
X498299Y48765D01*
X498540Y48739D01*
X493460D01*
X493701Y48765D01*
X493917Y48842D01*
X494108Y48970D01*
X494273Y49150D01*
X494413Y49382D01*
X494527Y49664D01*
X494616Y49999D01*
X494679Y50384D01*
X494717Y50821D01*
X494730Y51309D01*
X497270D01*
X497283Y50821D01*
D02*
G37*
G36*
X444299Y53805D02*
X444083Y53729D01*
X443892Y53602D01*
X443727Y53424D01*
X443588Y53195D01*
X443473Y52916D01*
X443384Y52586D01*
X443321Y52205D01*
X443283Y51773D01*
X443270Y51300D01*
X443283Y50821D01*
X443321Y50384D01*
X443384Y49998D01*
X443473Y49664D01*
X443588Y49382D01*
X443727Y49150D01*
X443892Y48970D01*
X444083Y48842D01*
X444299Y48765D01*
X444540Y48739D01*
X439460D01*
X439701Y48765D01*
X439917Y48842D01*
X440108Y48970D01*
X440273Y49150D01*
X440413Y49382D01*
X440527Y49664D01*
X440616Y49998D01*
X440679Y50384D01*
X440717Y50821D01*
X440730Y51300D01*
X440717Y51773D01*
X440679Y52205D01*
X440616Y52586D01*
X440527Y52916D01*
X440413Y53195D01*
X440273Y53424D01*
X440108Y53602D01*
X439917Y53729D01*
X439701Y53805D01*
X439460Y53830D01*
X444540D01*
X444299Y53805D01*
D02*
G37*
G36*
X513283Y50332D02*
X513321Y49895D01*
X513384Y49510D01*
X513473Y49175D01*
X513587Y48893D01*
X513727Y48661D01*
X513892Y48481D01*
X514083Y48353D01*
X514299Y48276D01*
X514540Y48250D01*
X509460D01*
X509701Y48276D01*
X509917Y48353D01*
X510108Y48481D01*
X510273Y48661D01*
X510412Y48893D01*
X510527Y49175D01*
X510616Y49510D01*
X510679Y49895D01*
X510717Y50332D01*
X510730Y50820D01*
X513270D01*
X513283Y50332D01*
D02*
G37*
G36*
X593002Y49617D02*
X593029Y49326D01*
X593077Y49045D01*
X593144Y48775D01*
X593232Y48516D01*
X593340Y48268D01*
X593469Y48031D01*
X593617Y47804D01*
X593786Y47589D01*
X593975Y47384D01*
X592561Y45970D01*
X592356Y46159D01*
X592141Y46328D01*
X591914Y46476D01*
X591677Y46605D01*
X591429Y46713D01*
X591170Y46801D01*
X590900Y46868D01*
X590619Y46916D01*
X590328Y46943D01*
X590025Y46950D01*
X592995Y49920D01*
X593002Y49617D01*
D02*
G37*
G36*
X379783Y48021D02*
X379821Y47584D01*
X379884Y47199D01*
X379973Y46864D01*
X380088Y46582D01*
X380227Y46350D01*
X380392Y46170D01*
X380583Y46042D01*
X380799Y45965D01*
X381040Y45939D01*
X375960D01*
X376201Y45965D01*
X376417Y46042D01*
X376608Y46170D01*
X376773Y46350D01*
X376913Y46582D01*
X377027Y46864D01*
X377116Y47199D01*
X377179Y47584D01*
X377217Y48021D01*
X377230Y48509D01*
X379770D01*
X379783Y48021D01*
D02*
G37*
G36*
X361283D02*
X361321Y47584D01*
X361384Y47199D01*
X361473Y46864D01*
X361588Y46582D01*
X361727Y46350D01*
X361892Y46170D01*
X362083Y46042D01*
X362299Y45965D01*
X362540Y45939D01*
X357460D01*
X357701Y45965D01*
X357917Y46042D01*
X358108Y46170D01*
X358273Y46350D01*
X358413Y46582D01*
X358527Y46864D01*
X358616Y47199D01*
X358679Y47584D01*
X358717Y48021D01*
X358730Y48509D01*
X361270D01*
X361283Y48021D01*
D02*
G37*
G36*
X343783D02*
X343821Y47584D01*
X343884Y47199D01*
X343973Y46864D01*
X344088Y46582D01*
X344227Y46350D01*
X344392Y46170D01*
X344583Y46042D01*
X344799Y45965D01*
X345040Y45939D01*
X339960D01*
X340201Y45965D01*
X340417Y46042D01*
X340608Y46170D01*
X340773Y46350D01*
X340913Y46582D01*
X341027Y46864D01*
X341116Y47199D01*
X341179Y47584D01*
X341217Y48021D01*
X341230Y48509D01*
X343770D01*
X343783Y48021D01*
D02*
G37*
G36*
X325283D02*
X325321Y47584D01*
X325384Y47199D01*
X325473Y46864D01*
X325588Y46582D01*
X325727Y46350D01*
X325892Y46170D01*
X326083Y46042D01*
X326299Y45965D01*
X326540Y45939D01*
X321460D01*
X321701Y45965D01*
X321917Y46042D01*
X322108Y46170D01*
X322273Y46350D01*
X322413Y46582D01*
X322527Y46864D01*
X322616Y47199D01*
X322679Y47584D01*
X322717Y48021D01*
X322730Y48509D01*
X325270D01*
X325283Y48021D01*
D02*
G37*
G36*
X202313Y49942D02*
X202498Y49801D01*
X202698Y49677D01*
X202913Y49569D01*
X203143Y49477D01*
X203388Y49403D01*
X203648Y49345D01*
X203923Y49303D01*
X204213Y49278D01*
X204518Y49270D01*
Y46730D01*
X204213Y46722D01*
X203923Y46697D01*
X203648Y46655D01*
X203388Y46597D01*
X203143Y46522D01*
X202913Y46431D01*
X202698Y46323D01*
X202498Y46199D01*
X202313Y46058D01*
X202143Y45900D01*
Y50100D01*
X202313Y49942D01*
D02*
G37*
G36*
X565100Y22100D02*
X565000Y22000D01*
X525000D01*
Y49929D01*
X525050Y49950D01*
X552147D01*
X553189Y48680D01*
X553054Y48000D01*
X553403Y46244D01*
X554398Y44756D01*
X555886Y43761D01*
X557642Y43412D01*
X559398Y43761D01*
X560886Y44756D01*
X561881Y46244D01*
X562230Y48000D01*
X562095Y48680D01*
X563137Y49950D01*
X565100D01*
Y22100D01*
D02*
G37*
G36*
X472311Y42737D02*
X472388Y42714D01*
X472648Y42656D01*
X472923Y42614D01*
X473213Y42589D01*
X473518Y42581D01*
Y40041D01*
X473213Y40033D01*
X472923Y40008D01*
X472648Y39966D01*
X472388Y39908D01*
X472311Y39885D01*
Y38771D01*
X472285Y39012D01*
X472208Y39228D01*
X472080Y39419D01*
X471900Y39584D01*
X471763Y39667D01*
X471698Y39634D01*
X471498Y39510D01*
X471313Y39369D01*
X471143Y39211D01*
Y39902D01*
X471051Y39927D01*
X470666Y39990D01*
X470229Y40028D01*
X469741Y40041D01*
Y42581D01*
X470229Y42594D01*
X470666Y42632D01*
X471051Y42695D01*
X471143Y42719D01*
Y43411D01*
X471313Y43253D01*
X471498Y43112D01*
X471698Y42988D01*
X471763Y42955D01*
X471900Y43038D01*
X472080Y43203D01*
X472208Y43394D01*
X472285Y43610D01*
X472311Y43851D01*
Y42737D01*
D02*
G37*
G36*
X794970Y42000D02*
X794668Y41993D01*
X794376Y41966D01*
X794095Y41918D01*
X793825Y41851D01*
X793566Y41763D01*
X793318Y41655D01*
X793081Y41526D01*
X792854Y41378D01*
X792639Y41209D01*
X792434Y41020D01*
X791020Y42434D01*
X791209Y42639D01*
X791378Y42854D01*
X791526Y43081D01*
X791655Y43318D01*
X791763Y43566D01*
X791851Y43825D01*
X791918Y44095D01*
X791966Y44376D01*
X791993Y44667D01*
X792000Y44970D01*
X794970Y42000D01*
D02*
G37*
G36*
X465715Y43610D02*
X465792Y43394D01*
X465920Y43203D01*
X466100Y43038D01*
X466238Y42955D01*
X466302Y42988D01*
X466502Y43112D01*
X466687Y43253D01*
X466858Y43411D01*
Y42719D01*
X466949Y42695D01*
X467334Y42632D01*
X467771Y42594D01*
X468260Y42581D01*
Y40041D01*
X467771Y40028D01*
X467334Y39990D01*
X466949Y39927D01*
X466858Y39902D01*
Y39211D01*
X466687Y39369D01*
X466502Y39510D01*
X466302Y39634D01*
X466238Y39667D01*
X466100Y39584D01*
X465920Y39419D01*
X465792Y39228D01*
X465715Y39012D01*
X465689Y38771D01*
Y39885D01*
X465612Y39908D01*
X465352Y39966D01*
X465077Y40008D01*
X464787Y40033D01*
X464482Y40041D01*
Y42581D01*
X464787Y42589D01*
X465077Y42614D01*
X465352Y42656D01*
X465612Y42714D01*
X465689Y42737D01*
Y43851D01*
X465715Y43610D01*
D02*
G37*
G36*
X507311Y39010D02*
X507285Y39251D01*
X507208Y39467D01*
X507080Y39658D01*
X506900Y39823D01*
X506668Y39962D01*
X506386Y40077D01*
X506051Y40166D01*
X505666Y40229D01*
X505229Y40267D01*
X504740Y40280D01*
Y42820D01*
X505229Y42833D01*
X505666Y42871D01*
X506051Y42934D01*
X506386Y43023D01*
X506668Y43137D01*
X506900Y43277D01*
X507080Y43442D01*
X507208Y43633D01*
X507285Y43849D01*
X507311Y44090D01*
Y39010D01*
D02*
G37*
G36*
X501745Y43849D02*
X501821Y43633D01*
X501948Y43442D01*
X502126Y43277D01*
X502355Y43137D01*
X502634Y43023D01*
X502964Y42934D01*
X503345Y42871D01*
X503777Y42833D01*
X504260Y42820D01*
Y40280D01*
X503777Y40267D01*
X503345Y40229D01*
X502964Y40166D01*
X502634Y40077D01*
X502355Y39962D01*
X502126Y39823D01*
X501948Y39658D01*
X501821Y39467D01*
X501745Y39251D01*
X501720Y39010D01*
Y44090D01*
X501745Y43849D01*
D02*
G37*
G36*
X76045Y27672D02*
X76106Y27326D01*
X76207Y27021D01*
X76350Y26757D01*
X76533Y26534D01*
X76756Y26351D01*
X77020Y26209D01*
X77325Y26107D01*
X77671Y26046D01*
X78057Y26026D01*
Y23994D01*
X77671Y23973D01*
X77325Y23912D01*
X77020Y23811D01*
X76756Y23668D01*
X76533Y23486D01*
X76350Y23262D01*
X76207Y22998D01*
X76106Y22693D01*
X76045Y22348D01*
X76025Y21962D01*
X73993D01*
X73972Y22348D01*
X73911Y22693D01*
X73810Y22998D01*
X73667Y23262D01*
X73485Y23486D01*
X73261Y23668D01*
X72997Y23811D01*
X72692Y23912D01*
X72347Y23973D01*
X71961Y23994D01*
Y26026D01*
X72347Y26046D01*
X72692Y26107D01*
X72997Y26209D01*
X73261Y26351D01*
X73485Y26534D01*
X73667Y26757D01*
X73810Y27021D01*
X73911Y27326D01*
X73972Y27672D01*
X73993Y28058D01*
X76025D01*
X76045Y27672D01*
D02*
G37*
%LPC*%
G36*
X79130Y473890D02*
X69610D01*
Y464370D01*
X79130D01*
Y473890D01*
D02*
G37*
%LPD*%
D12*
X180072Y450072D02*
X185000Y455000D01*
X179500Y449500D02*
X180072Y450072D01*
X179500Y441000D02*
Y449500D01*
X170000Y465000D02*
X201500D01*
X220500D02*
X260100D01*
D13*
X564000Y103000D02*
X568250Y98750D01*
X564000Y103000D02*
Y123745D01*
X568374Y128119D01*
X573028D01*
X573147Y128000D01*
X592000D01*
X595619Y131619D01*
Y140631D01*
X590250Y146000D02*
X595619Y140631D01*
X582000Y146000D02*
X590250D01*
X609750Y136750D02*
Y155152D01*
X595619Y122619D02*
X609750Y136750D01*
X570750Y122619D02*
X595619D01*
X568250Y56272D02*
Y98750D01*
Y56272D02*
X592272Y32250D01*
X624745Y123745D02*
Y173000D01*
X571750Y70750D02*
X624745Y123745D01*
X571750Y57722D02*
Y70750D01*
X520500Y207500D02*
X582000Y146000D01*
X520500Y207500D02*
Y294500D01*
X462000Y353000D02*
X520500Y294500D01*
X406000Y353000D02*
X462000D01*
X587723Y60000D02*
X604973Y42750D01*
X577250Y60000D02*
X587723D01*
X593722Y35750D02*
X785750D01*
X571750Y57722D02*
X593722Y35750D01*
X592272Y32250D02*
X795250D01*
X600695Y39250D02*
X726250D01*
X589995Y49950D02*
X600695Y39250D01*
X604973Y42750D02*
X724800D01*
X722700Y46250D02*
X740000Y63550D01*
X607500Y46250D02*
X722700D01*
X724800Y42750D02*
X744000Y61950D01*
X726250Y39250D02*
X749550Y62550D01*
X795250Y32250D02*
X801000Y38000D01*
X785750Y35750D02*
X795000Y45000D01*
X740000Y63550D02*
Y273000D01*
X583750Y70000D02*
X607500Y46250D01*
X630000Y565000D02*
X720000D01*
X625000D02*
X630000D01*
X750000Y283000D02*
X783450D01*
X740000Y273000D02*
X750000Y283000D01*
X749550Y62550D02*
X783900D01*
X744000Y61950D02*
Y176000D01*
X750550Y182550D01*
X783900D01*
X801000Y38000D02*
Y426000D01*
X788250Y438750D02*
X801000Y426000D01*
X788250Y438750D02*
Y486000D01*
X404600Y354400D02*
X406000Y353000D01*
X404600Y354400D02*
Y364900D01*
X616601Y93800D02*
Y110000D01*
X616300Y93500D02*
X616601Y93800D01*
Y110000D02*
X632172Y125571D01*
Y175828D01*
X629000Y179000D02*
X632172Y175828D01*
X620500Y179000D02*
X629000D01*
X609750Y168250D02*
X620500Y179000D01*
X609750Y155152D02*
Y168250D01*
X283500Y110000D02*
X295000D01*
X312000Y93000D01*
X342700D01*
X720000Y565000D02*
X745000Y540000D01*
Y508514D02*
Y540000D01*
X709500Y489514D02*
X726000D01*
X745000D01*
X709500Y508514D02*
Y535000D01*
X92000Y527000D02*
X103000D01*
X103500Y527500D01*
X116000D01*
X104000Y534000D02*
X116000D01*
X102000Y536000D02*
X104000Y534000D01*
X92000Y536000D02*
X102000D01*
X783450Y283000D02*
X783900Y282550D01*
X0Y0D02*
X810000D01*
X0D02*
X0Y610000D01*
X810000D01*
Y0D02*
Y610000D01*
D14*
X468500Y62050D02*
X474850Y55700D01*
X459750Y62050D02*
X468500D01*
X474850Y55700D02*
X487000D01*
X511739Y41550D02*
X512000Y41811D01*
X496000Y41550D02*
Y59000D01*
X492950Y62050D02*
X496000Y59000D01*
X480250Y62050D02*
X492950D01*
X566150Y134000D02*
X588781D01*
X565150Y133000D02*
X566150Y134000D01*
X555000Y133000D02*
X565150D01*
X496239Y75050D02*
X549020Y127831D01*
Y128520D02*
X553500Y133000D01*
X549020Y127831D02*
Y128520D01*
X553500Y133000D02*
X555000D01*
X555000Y151000D02*
X567000D01*
X512000Y41811D02*
Y59289D01*
X496239Y75050D02*
X512000Y59289D01*
X480250Y75050D02*
X496239D01*
X555000Y151000D02*
X555000Y151000D01*
X557642Y48000D02*
X557750Y48108D01*
Y88000D01*
X81000Y173700D02*
Y203000D01*
X80400Y173100D02*
X81000Y173700D01*
Y203000D02*
X89000Y211000D01*
X108000D01*
X120000Y223000D01*
Y238000D01*
X63000Y325500D02*
X80400Y308100D01*
X63000Y325500D02*
Y343000D01*
X75500Y355500D01*
X99000D01*
X146400Y308100D02*
X154500Y300000D01*
X80400Y308100D02*
X146400D01*
X99000Y355500D02*
X101373D01*
X80700Y257000D02*
X98000D01*
X80400Y257300D02*
X80700Y257000D01*
X98000D02*
X130000Y289000D01*
X69000Y257300D02*
X80400D01*
X66800Y259500D02*
X69000Y257300D01*
X54000Y259500D02*
X66800D01*
X145500Y550500D02*
Y558000D01*
X148249Y560749D02*
X180072D01*
X145500Y558000D02*
X148249Y560749D01*
X787250Y558500D02*
X787750Y558000D01*
X64535Y489965D02*
Y515000D01*
X563000Y228500D02*
X565000Y226500D01*
X552500Y228500D02*
X563000D01*
X565000Y223000D02*
Y226500D01*
Y223000D02*
X565000Y223000D01*
Y204000D02*
Y223000D01*
X531600Y228500D02*
X552500D01*
X132500Y498000D02*
Y511000D01*
Y491500D02*
Y498000D01*
X155000Y118000D02*
X165903D01*
X145000Y128000D02*
X155000Y118000D01*
X120000Y128000D02*
X145000D01*
X95872Y122300D02*
X100178Y126606D01*
X118606D01*
X120000Y128000D01*
X80400Y122300D02*
X95872D01*
X165903Y238000D02*
X165903Y238000D01*
X120000Y238000D02*
X165903D01*
X145300Y238000D02*
X165903D01*
X132500Y534000D02*
Y550500D01*
Y534000D02*
X135750Y530750D01*
X582400Y564900D02*
Y575000D01*
X155500Y504000D02*
Y521000D01*
X180000Y514000D02*
X180072Y514072D01*
Y527000D01*
X315700Y555000D02*
Y565000D01*
X303000Y555000D02*
Y565000D01*
X277600Y555000D02*
Y565000D01*
X493500Y555000D02*
Y565000D01*
X480800Y555000D02*
Y565000D01*
X233500Y445000D02*
X233500Y445000D01*
X220500Y445000D02*
X233500D01*
X219000Y425500D02*
X233500D01*
X197000Y416000D02*
X197000Y416000D01*
X179500Y416000D02*
X197000D01*
X180072Y441572D02*
Y450072D01*
X179500Y441000D02*
X180072Y441572D01*
X201500Y465000D02*
X201500Y465000D01*
X160500Y441000D02*
X160500Y441000D01*
Y416000D02*
Y441000D01*
X201500Y445000D02*
Y465000D01*
X220500D02*
X220500Y465000D01*
X582400Y350000D02*
Y364900D01*
X479000Y94000D02*
X488950D01*
X459750Y93750D02*
X460000Y94000D01*
X459750Y75050D02*
Y93750D01*
X505000Y122000D02*
Y277538D01*
X432000Y59050D02*
X443000D01*
X398950D02*
X432000D01*
X488000Y105000D02*
X505000Y122000D01*
X443000Y105000D02*
X488000D01*
X432000Y94000D02*
X443000Y105000D01*
X432000Y59050D02*
Y94000D01*
X380000Y107000D02*
Y118000D01*
X373910Y124090D02*
X380000Y118000D01*
X259910Y124090D02*
X373910D01*
X246000Y145000D02*
X254000Y137000D01*
Y130000D02*
Y137000D01*
Y130000D02*
X259910Y124090D01*
X231000Y145000D02*
X246000D01*
X257378Y120050D02*
X299950D01*
X247928Y129500D02*
X257378Y120050D01*
X240000Y129500D02*
X247928D01*
X299950Y120050D02*
X313000Y107000D01*
X380000Y98000D02*
Y107000D01*
Y98000D02*
X388000Y90000D01*
Y70000D02*
Y90000D01*
Y70000D02*
X398950Y59050D01*
X480250Y68550D02*
X491450D01*
X496000Y41550D02*
X511739D01*
X443650Y59700D02*
X452000D01*
X443000Y59050D02*
X443650Y59700D01*
X452000D02*
X454350Y62050D01*
X459750D01*
X443000Y78050D02*
X452000D01*
X454742Y75308D01*
X459492D01*
X459750Y75050D01*
X442000Y58050D02*
X443000Y59050D01*
X442000Y41550D02*
Y58050D01*
X531999Y246899D02*
Y258000D01*
X531600Y246500D02*
X531999Y246899D01*
X582000Y155000D02*
X590250D01*
X526000Y211000D02*
X582000Y155000D01*
X788250Y558500D02*
Y584000D01*
Y505000D02*
Y532300D01*
X581000Y192000D02*
Y204000D01*
X565000D02*
X565100Y203900D01*
Y192000D02*
Y203900D01*
X593500Y228500D02*
X615000D01*
X583000D02*
X593500D01*
X581000Y226500D02*
X583000Y228500D01*
X581000Y204000D02*
Y226500D01*
X615000Y246500D02*
Y258000D01*
X154500Y300000D02*
X285000D01*
X463538Y319000D02*
X505000Y277538D01*
X419000Y319000D02*
X463538D01*
X405000Y333000D02*
X419000Y319000D01*
X460239Y41311D02*
X469000D01*
X460000Y41550D02*
X460239Y41311D01*
X469000D02*
X477761D01*
X478000Y41550D01*
X374500Y285000D02*
X390500D01*
X338500Y303000D02*
X368000D01*
X374500Y296500D01*
Y285000D02*
Y296500D01*
X200000Y48000D02*
X207000D01*
X212000Y53000D01*
Y65000D01*
X200050Y169950D02*
X207000D01*
X200000Y170000D02*
X200050Y169950D01*
X207000D02*
X212000Y174950D01*
Y185000D01*
X471239Y276000D02*
X482000D01*
X496000Y262000D01*
Y173000D02*
Y262000D01*
X487000Y194000D02*
Y228000D01*
X479896Y235104D02*
X487000Y228000D01*
X474993Y235104D02*
X479896D01*
X471097Y239000D02*
X474993Y235104D01*
X64535Y515000D02*
X85000D01*
X109928Y490072D01*
X119928D01*
X120000Y490000D01*
X131000D02*
X132500Y491500D01*
X120000Y490000D02*
X131000D01*
X281000Y289000D02*
X305000Y265000D01*
X130000Y289000D02*
X281000D01*
X342700Y93000D02*
Y107000D01*
Y81300D02*
Y93000D01*
X787750Y558000D02*
X788250Y558500D01*
X686014Y489000D02*
X697000D01*
X685500Y489514D02*
X686014Y489000D01*
X697000D02*
X701000Y493000D01*
Y497000D01*
X702678Y498678D01*
X709164D01*
X709500Y499014D01*
X105000Y510000D02*
Y521000D01*
Y510000D02*
X111000Y504000D01*
X124000D01*
X126000Y506000D01*
Y511000D01*
X105000Y521000D02*
X116000D01*
X429000Y108000D02*
Y122000D01*
X430000Y123000D01*
X424000Y103000D02*
X429000Y108000D01*
X397000Y103000D02*
X424000D01*
X458194Y123000D02*
X480000D01*
X180072Y547000D02*
Y560749D01*
X458194Y160000D02*
X480000D01*
X368100Y107000D02*
X380000D01*
X409500Y285000D02*
X422000D01*
X431000Y276000D01*
X443045D01*
X420000Y245000D02*
X426000Y239000D01*
X442903D01*
X409500Y245000D02*
X420000D01*
X409000Y265000D02*
X420000D01*
X458000Y305000D02*
X458000Y305000D01*
X446000Y305000D02*
X458000D01*
X305000Y265000D02*
X330000D01*
X356500D01*
X321000Y256000D02*
X330000Y265000D01*
X339000Y245000D02*
Y258000D01*
X321000Y245000D02*
Y256000D01*
X441246Y277799D02*
X443045Y276000D01*
X390500Y285000D02*
Y296000D01*
X399500Y305000D01*
X428000D01*
X339000Y274000D02*
Y284858D01*
X339142Y285000D01*
X337000Y272000D02*
X339000Y274000D01*
X311000Y272000D02*
X337000D01*
X293000Y290000D02*
X311000Y272000D01*
X293000Y290000D02*
Y296000D01*
X339142Y285000D02*
X339142Y285000D01*
X355500D01*
X285000Y300000D02*
X290000Y305000D01*
X294000D01*
X296000Y303000D01*
X321500D01*
X321142Y302642D02*
X321500Y303000D01*
X321142Y285000D02*
Y302642D01*
X409500Y245000D02*
X409500Y245000D01*
X373500Y265000D02*
X373500Y265000D01*
X391000D01*
X390500Y264500D02*
X391000Y265000D01*
X390500Y245000D02*
Y264500D01*
X374500Y245000D02*
X390500D01*
X355500Y245000D02*
X355500Y245000D01*
X339000Y245000D02*
X355500D01*
X248000Y195000D02*
X248000Y195000D01*
X248000Y185000D02*
Y195000D01*
X168000Y185000D02*
Y195000D01*
X248000Y65000D02*
Y75000D01*
X248000Y65000D02*
X248000Y65000D01*
X168000Y65000D02*
Y75000D01*
X340000Y172000D02*
X342700Y169300D01*
Y155000D02*
Y169300D01*
X316000Y172000D02*
X340000D01*
X410000Y121000D02*
X410000Y121000D01*
X397000Y121000D02*
X410000D01*
X397000Y142000D02*
X410000D01*
X315000Y155000D02*
X330000D01*
X354500Y183000D02*
X355400Y182100D01*
Y155000D02*
Y182100D01*
X397000Y160000D02*
X430000D01*
X397000Y103000D02*
X397500Y102500D01*
Y82000D02*
Y102500D01*
X378000Y81500D02*
X378500Y82000D01*
X378000Y59000D02*
Y81500D01*
Y59000D02*
X378500Y58500D01*
Y39000D02*
Y58500D01*
X359500Y39000D02*
X360000Y39500D01*
Y59000D01*
X342000D02*
X360000D01*
X342000D02*
X342500Y58500D01*
Y39000D02*
Y58500D01*
X323500Y39000D02*
X324000Y39500D01*
Y59000D01*
Y81000D01*
X342700Y81300D02*
X343000Y81000D01*
X362000Y83000D02*
X377500D01*
X378500Y82000D01*
X355400Y89600D02*
X362000Y83000D01*
X355400Y89600D02*
Y107000D01*
X368762Y166762D02*
X375678Y173678D01*
Y180678D01*
X378000Y183000D01*
X368762Y155662D02*
Y166762D01*
X368100Y155000D02*
X368762Y155662D01*
X397000Y160000D02*
X397000Y160000D01*
Y183000D01*
X378000Y207000D02*
X378500Y206500D01*
X399000D01*
X378000Y183000D02*
X378000Y183000D01*
Y207000D01*
X398500Y225000D02*
X399000Y225500D01*
X378000Y225000D02*
X398500D01*
X378000Y225000D02*
X378000Y225000D01*
X354500Y225000D02*
X378000D01*
X354000Y204000D02*
X354500Y204500D01*
Y225000D01*
X335500Y203500D02*
Y225000D01*
X335500Y203500D02*
X335500Y203500D01*
X335500Y183000D02*
Y203500D01*
X240000Y247000D02*
X240572Y246428D01*
X239500Y247500D02*
X240000Y247000D01*
X249572Y246428D02*
X255000Y241000D01*
X240572Y246428D02*
X249572D01*
X255000Y212000D02*
Y241000D01*
Y212000D02*
X269000Y198000D01*
X309000D01*
X314000Y193000D01*
Y174000D02*
Y193000D01*
Y174000D02*
X316000Y172000D01*
X221000Y212000D02*
Y227500D01*
X220000Y228500D02*
X221000Y227500D01*
X212000Y203000D02*
X221000Y212000D01*
X212000Y185000D02*
Y203000D01*
X239500Y228500D02*
X240000Y229000D01*
X220000Y228500D02*
X239500D01*
X220000Y247500D02*
X239500D01*
X194097Y238000D02*
X202000D01*
X210678Y246678D01*
X219178D01*
X220000Y247500D01*
X194097Y118000D02*
X203000D01*
X210428Y125428D01*
X216428D01*
X220000Y129000D01*
X220500Y129500D01*
X240000D01*
X220000Y111000D02*
X220500Y110500D01*
X240000D01*
X214000Y67000D02*
Y85000D01*
X212000Y65000D02*
X214000Y67000D01*
Y85000D02*
X220000Y91000D01*
Y111000D01*
X266500Y98500D02*
X292000Y73000D01*
Y65000D02*
Y73000D01*
X266500Y98500D02*
Y110000D01*
X313000Y107000D02*
X330000D01*
X284500Y135000D02*
X316000D01*
X320000Y139000D01*
X352000D01*
X355400Y142400D01*
Y155000D01*
X265500Y135000D02*
Y148000D01*
X292000Y174500D01*
Y185000D01*
D32*
X442903Y239000D02*
D03*
X471097D02*
D03*
X443045Y276000D02*
D03*
X471239D02*
D03*
X458194Y160000D02*
D03*
X430000D02*
D03*
X194097Y238000D02*
D03*
X165903D02*
D03*
X458194Y123000D02*
D03*
X430000D02*
D03*
X194097Y118000D02*
D03*
X165903D02*
D03*
D59*
X555000Y151000D02*
D03*
Y133000D02*
D03*
X531600Y246500D02*
D03*
Y228500D02*
D03*
X615000Y246500D02*
D03*
Y228500D02*
D03*
X378000Y225000D02*
D03*
Y207000D02*
D03*
X397000Y142000D02*
D03*
Y160000D02*
D03*
X240000Y229000D02*
D03*
Y247000D02*
D03*
X397000Y121000D02*
D03*
Y103000D02*
D03*
X220000Y111000D02*
D03*
Y129000D02*
D03*
D60*
X135750Y530750D02*
D03*
D61*
X156000Y540500D02*
D03*
Y534000D02*
D03*
Y527500D02*
D03*
Y521000D02*
D03*
X115500D02*
D03*
Y527500D02*
D03*
Y534000D02*
D03*
Y540500D02*
D03*
D62*
X145500Y510500D02*
D03*
X139000D02*
D03*
X132500D02*
D03*
X126000D02*
D03*
Y551000D02*
D03*
X132500D02*
D03*
X139000D02*
D03*
X145500D02*
D03*
D63*
X788250Y558500D02*
D03*
Y532300D02*
D03*
D64*
X531500Y41311D02*
D03*
X512500D02*
D03*
X355500Y245000D02*
D03*
X374500D02*
D03*
X390500D02*
D03*
X409500D02*
D03*
X355500Y285000D02*
D03*
X374500D02*
D03*
X390500D02*
D03*
X409500D02*
D03*
X460000Y94000D02*
D03*
X479000D02*
D03*
X335500Y183000D02*
D03*
X354500D02*
D03*
X354500Y225000D02*
D03*
X335500D02*
D03*
X284500Y135000D02*
D03*
X265500D02*
D03*
X397000Y183000D02*
D03*
X378000D02*
D03*
X324000Y81000D02*
D03*
X343000D02*
D03*
X378500Y39000D02*
D03*
X359500D02*
D03*
X342500D02*
D03*
X323500D02*
D03*
X397500Y82000D02*
D03*
X378500D02*
D03*
X220500Y465000D02*
D03*
X201500D02*
D03*
X220500Y445000D02*
D03*
X201500D02*
D03*
X179500Y416000D02*
D03*
X160500D02*
D03*
D65*
X460000Y41550D02*
D03*
X442000D02*
D03*
X691500Y535000D02*
D03*
X709500D02*
D03*
X339000Y245000D02*
D03*
X321000D02*
D03*
X391000Y265000D02*
D03*
X409000D02*
D03*
X339142Y285000D02*
D03*
X321142D02*
D03*
X428000Y305000D02*
D03*
X446000D02*
D03*
X478000Y41550D02*
D03*
X496000D02*
D03*
X336000Y204000D02*
D03*
X354000D02*
D03*
X360000Y59000D02*
D03*
X378000D02*
D03*
X324000D02*
D03*
X342000D02*
D03*
D66*
X480250Y62050D02*
D03*
Y68550D02*
D03*
Y75050D02*
D03*
X459750D02*
D03*
Y62050D02*
D03*
D67*
X726000Y489514D02*
D03*
Y508514D02*
D03*
X745000D02*
D03*
Y489514D02*
D03*
X616300Y93500D02*
D03*
Y74500D02*
D03*
X443000Y59050D02*
D03*
Y78050D02*
D03*
X399000Y206500D02*
D03*
Y225500D02*
D03*
X220000Y247500D02*
D03*
Y228500D02*
D03*
X240000Y129500D02*
D03*
Y110500D02*
D03*
X788250Y486000D02*
D03*
Y505000D02*
D03*
D68*
X552500Y228500D02*
D03*
X593500D02*
D03*
D69*
X248000Y185000D02*
D03*
X292000D02*
D03*
X168000D02*
D03*
X212000D02*
D03*
X248000Y65000D02*
D03*
X292000D02*
D03*
X168000D02*
D03*
X212000D02*
D03*
D70*
X480000Y160000D02*
D03*
Y123000D02*
D03*
X430000Y195000D02*
D03*
X458194Y195000D02*
D03*
X557750Y88000D02*
D03*
X640000Y88000D02*
D03*
D71*
X373500Y265000D02*
D03*
X356500D02*
D03*
X338500Y303000D02*
D03*
X321500D02*
D03*
X266500Y110000D02*
D03*
X283500D02*
D03*
D72*
X565000Y204000D02*
D03*
X581000D02*
D03*
D73*
X368100Y155000D02*
D03*
X355400D02*
D03*
X342700D02*
D03*
X330000D02*
D03*
X368100Y107000D02*
D03*
X355400D02*
D03*
X342700D02*
D03*
X330000D02*
D03*
D74*
X582400Y564900D02*
D03*
X569700Y565000D02*
D03*
X557000D02*
D03*
X544300D02*
D03*
X531600D02*
D03*
X518900D02*
D03*
X506200D02*
D03*
X493500D02*
D03*
X480800D02*
D03*
X468100D02*
D03*
X455400D02*
D03*
X442700D02*
D03*
X430000D02*
D03*
X417300D02*
D03*
X404600D02*
D03*
X391900D02*
D03*
X379200D02*
D03*
X366500D02*
D03*
X353800D02*
D03*
X341100D02*
D03*
X328400D02*
D03*
X315700D02*
D03*
X303000D02*
D03*
X290300D02*
D03*
X277600D02*
D03*
Y364900D02*
D03*
X290300D02*
D03*
X303000D02*
D03*
X315700D02*
D03*
X328400D02*
D03*
X341100D02*
D03*
X353800D02*
D03*
X366500D02*
D03*
X379200D02*
D03*
X391900D02*
D03*
X404600D02*
D03*
X417300D02*
D03*
X430000D02*
D03*
X442700D02*
D03*
X455400D02*
D03*
X468100D02*
D03*
X480800D02*
D03*
X493500D02*
D03*
X506200D02*
D03*
X518900D02*
D03*
X531600D02*
D03*
X544300D02*
D03*
X557000D02*
D03*
X569700D02*
D03*
X582400D02*
D03*
D75*
X260100Y388800D02*
D03*
Y401500D02*
D03*
Y414200D02*
D03*
Y426900D02*
D03*
Y439600D02*
D03*
Y452300D02*
D03*
Y465000D02*
D03*
Y477700D02*
D03*
Y490400D02*
D03*
Y503100D02*
D03*
Y515800D02*
D03*
Y528500D02*
D03*
Y541200D02*
D03*
D76*
X418258Y458686D02*
D03*
D77*
X180072Y527000D02*
D03*
Y547000D02*
D03*
D78*
X170000Y465000D02*
D03*
X179500Y441000D02*
D03*
X160500D02*
D03*
D79*
X221000Y526500D02*
D03*
Y505500D02*
D03*
D80*
X709500Y508514D02*
D03*
Y499014D02*
D03*
Y489514D02*
D03*
X685500D02*
D03*
Y499014D02*
D03*
Y508514D02*
D03*
D81*
X626000Y518000D02*
D03*
Y498000D02*
D03*
D82*
X200000Y485000D02*
D03*
X221000D02*
D03*
D83*
X626000Y543000D02*
D03*
X658000D02*
D03*
D84*
X658000Y515000D02*
D03*
Y485000D02*
D03*
D85*
X219000Y406500D02*
D03*
Y425500D02*
D03*
X197000Y416000D02*
D03*
D86*
X182000Y495000D02*
X200761Y513761D01*
X172486Y495000D02*
X182000D01*
X144000Y466514D02*
X172486Y495000D01*
X144000Y438000D02*
Y466514D01*
X178014Y499014D02*
X193121Y514121D01*
X169257Y499014D02*
X178014D01*
X137000Y466757D02*
X169257Y499014D01*
X137000Y417000D02*
Y466757D01*
Y417000D02*
X189100Y364900D01*
X134000Y468000D02*
X165903Y499903D01*
X134000Y415757D02*
Y468000D01*
Y415757D02*
X187857Y361900D01*
X193121Y514121D02*
Y560000D01*
X165903Y499903D02*
Y530000D01*
X174000Y485000D02*
X200000D01*
X151000Y462000D02*
X174000Y485000D01*
X200761Y513761D02*
Y550005D01*
X205000Y554244D01*
Y570000D01*
X213000Y552000D02*
X233000D01*
X208000Y547000D02*
X213000Y552000D01*
X208000Y512000D02*
Y547000D01*
X200000Y504000D02*
X208000Y512000D01*
X200000Y485000D02*
Y504000D01*
X529750Y574750D02*
X531500Y573000D01*
Y565100D02*
Y573000D01*
Y565100D02*
X531600Y565000D01*
X255750Y574750D02*
X529750D01*
X253279Y578279D02*
X539721D01*
X235749Y560749D02*
X253279Y578279D01*
X221000Y560749D02*
X235749D01*
X233000Y552000D02*
X255750Y574750D01*
X221000Y526500D02*
Y543000D01*
X144000Y567000D02*
X186121D01*
X193121Y560000D01*
X539721Y578279D02*
X544129Y573871D01*
Y565171D02*
Y573871D01*
Y565171D02*
X544300Y565000D01*
X193500Y406500D02*
X219000D01*
X190000Y403000D02*
X193500Y406500D01*
X156000Y403000D02*
X190000D01*
X151000Y408000D02*
X156000Y403000D01*
X151000Y408000D02*
Y462000D01*
X189100Y364900D02*
X252000D01*
X263380Y353520D01*
X276520D01*
X277600Y354600D01*
Y364900D01*
X290300Y354000D02*
Y364900D01*
X286820Y350520D02*
X290300Y354000D01*
X261480Y350520D02*
X286820D01*
X250100Y361900D02*
X261480Y350520D01*
X187857Y361900D02*
X250100D01*
X616000Y74200D02*
X616300Y74500D01*
X616000Y60000D02*
Y74200D01*
X161903Y534000D02*
X165903Y530000D01*
X155500Y534000D02*
X161903D01*
X139000Y562000D02*
X144000Y567000D01*
X139000Y550500D02*
Y562000D01*
X561600Y343550D02*
Y357271D01*
X565100Y345000D02*
Y357271D01*
X561600Y343550D02*
X575650Y329500D01*
X565100Y345000D02*
X577100Y333000D01*
X575650Y329500D02*
X621500D01*
X577100Y333000D02*
X622950D01*
X621500Y329500D02*
X652000Y299000D01*
X622950Y333000D02*
X655500Y300450D01*
X652000Y61000D02*
Y299000D01*
X655500Y59550D02*
Y300450D01*
X644000Y53000D02*
X652000Y61000D01*
X645450Y49500D02*
X655500Y59550D01*
X618050Y53000D02*
X644000D01*
X616601Y49500D02*
X645450D01*
X616300Y54750D02*
X618050Y53000D01*
X612800Y53300D02*
X616601Y49500D01*
X616300Y54750D02*
Y59700D01*
X612800Y53300D02*
Y55700D01*
X608500Y60000D02*
X612800Y55700D01*
X616000Y60000D02*
X616300Y59700D01*
X569700Y361700D02*
Y364900D01*
X566150Y358150D02*
X569700Y361700D01*
X565979Y358150D02*
X566150D01*
X565100Y357271D02*
X565979Y358150D01*
X557000Y361700D02*
Y364900D01*
Y361700D02*
X560550Y358150D01*
X560721D01*
X561600Y357271D01*
D87*
X95000Y584000D02*
X95000Y584000D01*
D88*
X700009Y66510D02*
Y83010D01*
X692009Y75010D02*
X708009D01*
X733009Y456510D02*
Y473010D01*
X725009Y465010D02*
X741009D01*
X75009Y16510D02*
Y33010D01*
X67009Y25010D02*
X83009D01*
D89*
X80400Y386900D02*
D03*
Y412300D02*
D03*
Y437700D02*
D03*
Y231900D02*
D03*
Y257300D02*
D03*
Y282700D02*
D03*
Y96900D02*
D03*
Y122300D02*
D03*
Y147700D02*
D03*
D90*
Y463100D02*
D03*
Y308100D02*
D03*
Y173100D02*
D03*
D91*
X105000Y75000D02*
D03*
Y185000D02*
D03*
D92*
X120000Y128000D02*
D03*
Y238000D02*
D03*
D93*
X40000Y112500D02*
D03*
Y37500D02*
D03*
Y222500D02*
D03*
Y147500D02*
D03*
D94*
Y75000D02*
D03*
Y185000D02*
D03*
D95*
X14500Y500000D02*
D03*
Y570000D02*
D03*
D96*
X41500Y560000D02*
D03*
Y510000D02*
D03*
D97*
X99000Y355500D02*
D03*
X85000Y331500D02*
D03*
X54000Y259500D02*
D03*
D98*
X131000Y265000D02*
D03*
X21000Y305000D02*
D03*
D99*
X759000Y120050D02*
D03*
Y49950D02*
D03*
Y240050D02*
D03*
Y169950D02*
D03*
Y340050D02*
D03*
Y269950D02*
D03*
D100*
X783900Y107450D02*
D03*
Y62550D02*
D03*
Y227450D02*
D03*
Y182550D02*
D03*
Y327450D02*
D03*
Y282550D02*
D03*
D101*
X487000Y55700D02*
D03*
X567000Y151000D02*
D03*
X557642Y48000D02*
D03*
X588781Y134000D02*
D03*
X135750Y530750D02*
D03*
X144000Y438000D02*
D03*
X205000Y570000D02*
D03*
X353800Y555000D02*
D03*
X798000Y584000D02*
D03*
X778000D02*
D03*
X670000D02*
D03*
X650000D02*
D03*
X95000D02*
D03*
X80400Y584000D02*
D03*
X640000Y88000D02*
D03*
X132500Y498000D02*
D03*
X582400Y575000D02*
D03*
X155500Y504000D02*
D03*
X458194Y195000D02*
D03*
X430000Y195000D02*
D03*
X418258Y473686D02*
D03*
X433258Y458686D02*
D03*
X418258Y443686D02*
D03*
X403258Y458686D02*
D03*
X418258D02*
D03*
X433258Y473686D02*
D03*
Y443686D02*
D03*
X403258D02*
D03*
Y473686D02*
D03*
X180000Y514000D02*
D03*
X221000Y543000D02*
D03*
Y560749D02*
D03*
X315700Y555000D02*
D03*
X303000D02*
D03*
X277600D02*
D03*
X493500D02*
D03*
X233500Y425500D02*
D03*
Y445000D02*
D03*
X185000Y455000D02*
D03*
X582400Y350000D02*
D03*
X488950Y94000D02*
D03*
X231000Y145000D02*
D03*
X491450Y68550D02*
D03*
X544272Y29000D02*
D03*
X544300Y44000D02*
D03*
X531999Y258000D02*
D03*
X526000Y211000D02*
D03*
X590250Y155000D02*
D03*
X615000Y258000D02*
D03*
X480800Y555000D02*
D03*
X557750Y88000D02*
D03*
X469000Y41311D02*
D03*
X200000Y170000D02*
D03*
Y48000D02*
D03*
X487000Y194000D02*
D03*
X496000Y173000D02*
D03*
X795000Y45000D02*
D03*
X624745Y173000D02*
D03*
X570750Y122619D02*
D03*
X609750Y155152D02*
D03*
X64535Y515000D02*
D03*
X405000Y333000D02*
D03*
X630000Y565000D02*
D03*
X620000D02*
D03*
X650000Y470000D02*
D03*
X670000D02*
D03*
X676000Y535000D02*
D03*
Y547000D02*
D03*
X105000Y521000D02*
D03*
X92000Y527000D02*
D03*
Y536000D02*
D03*
X589995Y49950D02*
D03*
X583750Y70000D02*
D03*
X577250Y60000D02*
D03*
X581000Y192000D02*
D03*
X565100D02*
D03*
X616000Y60000D02*
D03*
X608500D02*
D03*
X180072Y560749D02*
D03*
X480000Y123000D02*
D03*
Y160000D02*
D03*
X420000Y265000D02*
D03*
X458000Y305000D02*
D03*
X330000Y265000D02*
D03*
X339000Y258000D02*
D03*
X285000Y300000D02*
D03*
X293000Y296000D02*
D03*
X248000Y75000D02*
D03*
X168000D02*
D03*
X248000Y195000D02*
D03*
X168000Y195000D02*
D03*
X410000Y121000D02*
D03*
X410000Y142000D02*
D03*
X315000Y155000D02*
D03*
M02*
