G04*
G04 #@! TF.GenerationSoftware,Altium Limited,Altium Designer,19.0.10 (269)*
G04*
G04 Layer_Color=16711935*
%FSLAX44Y44*%
%MOMM*%
G71*
G01*
G75*
%ADD13C,0.2000*%
%ADD17C,3.0480*%
%ADD18R,1.6532X1.3532*%
%ADD23R,1.2532X1.6032*%
%ADD24R,1.3532X1.6532*%
%ADD26R,1.6032X1.2532*%
%ADD37R,1.7532X1.5532*%
%ADD46C,1.8532*%
%ADD47R,1.8532X1.8532*%
%ADD48C,2.8032*%
G04:AMPARAMS|DCode=49|XSize=3.7032mm|YSize=1.7032mm|CornerRadius=0.4766mm|HoleSize=0mm|Usage=FLASHONLY|Rotation=180.000|XOffset=0mm|YOffset=0mm|HoleType=Round|Shape=RoundedRectangle|*
%AMROUNDEDRECTD49*
21,1,3.7032,0.7500,0,0,180.0*
21,1,2.7500,1.7032,0,0,180.0*
1,1,0.9532,-1.3750,0.3750*
1,1,0.9532,1.3750,0.3750*
1,1,0.9532,1.3750,-0.3750*
1,1,0.9532,-1.3750,-0.3750*
%
%ADD49ROUNDEDRECTD49*%
%ADD50C,2.5032*%
G04:AMPARAMS|DCode=51|XSize=3.7032mm|YSize=1.7032mm|CornerRadius=0.4766mm|HoleSize=0mm|Usage=FLASHONLY|Rotation=90.000|XOffset=0mm|YOffset=0mm|HoleType=Round|Shape=RoundedRectangle|*
%AMROUNDEDRECTD51*
21,1,3.7032,0.7500,0,0,90.0*
21,1,2.7500,1.7032,0,0,90.0*
1,1,0.9532,0.3750,1.3750*
1,1,0.9532,0.3750,-1.3750*
1,1,0.9532,-0.3750,-1.3750*
1,1,0.9532,-0.3750,1.3750*
%
%ADD51ROUNDEDRECTD51*%
G04:AMPARAMS|DCode=52|XSize=1.4032mm|YSize=2.1032mm|CornerRadius=0.4016mm|HoleSize=0mm|Usage=FLASHONLY|Rotation=90.000|XOffset=0mm|YOffset=0mm|HoleType=Round|Shape=RoundedRectangle|*
%AMROUNDEDRECTD52*
21,1,1.4032,1.3000,0,0,90.0*
21,1,0.6000,2.1032,0,0,90.0*
1,1,0.8032,0.6500,0.3000*
1,1,0.8032,0.6500,-0.3000*
1,1,0.8032,-0.6500,-0.3000*
1,1,0.8032,-0.6500,0.3000*
%
%ADD52ROUNDEDRECTD52*%
%ADD53C,1.5500*%
G04:AMPARAMS|DCode=54|XSize=2.2032mm|YSize=1.5032mm|CornerRadius=0.4266mm|HoleSize=0mm|Usage=FLASHONLY|Rotation=180.000|XOffset=0mm|YOffset=0mm|HoleType=Round|Shape=RoundedRectangle|*
%AMROUNDEDRECTD54*
21,1,2.2032,0.6500,0,0,180.0*
21,1,1.3500,1.5032,0,0,180.0*
1,1,0.8532,-0.6750,0.3250*
1,1,0.8532,0.6750,0.3250*
1,1,0.8532,0.6750,-0.3250*
1,1,0.8532,-0.6750,-0.3250*
%
%ADD54ROUNDEDRECTD54*%
G04:AMPARAMS|DCode=55|XSize=2.2032mm|YSize=1.5032mm|CornerRadius=0.4266mm|HoleSize=0mm|Usage=FLASHONLY|Rotation=90.000|XOffset=0mm|YOffset=0mm|HoleType=Round|Shape=RoundedRectangle|*
%AMROUNDEDRECTD55*
21,1,2.2032,0.6500,0,0,90.0*
21,1,1.3500,1.5032,0,0,90.0*
1,1,0.8532,0.3250,0.6750*
1,1,0.8532,0.3250,-0.6750*
1,1,0.8532,-0.3250,-0.6750*
1,1,0.8532,-0.3250,0.6750*
%
%ADD55ROUNDEDRECTD55*%
%ADD56C,1.9032*%
%ADD57C,1.6032*%
%ADD58C,0.8032*%
%ADD109R,1.4500X0.5000*%
%ADD110R,0.6500X0.5500*%
%ADD111R,0.5500X0.6500*%
%ADD112O,1.9032X0.5532*%
%ADD113R,1.1532X1.5532*%
%ADD114O,0.5500X2.2000*%
G36*
X23000Y517000D02*
X23000Y533000D01*
X7000Y533000D01*
X7000Y517000D01*
X23000Y517000D01*
D02*
G37*
G36*
X7000Y553000D02*
X7000Y537000D01*
X23000Y537000D01*
X23000Y553000D01*
X7000Y553000D01*
D02*
G37*
D13*
X0Y0D02*
X810000D01*
X0D02*
X0Y610000D01*
X810000D01*
Y0D02*
Y610000D01*
D17*
X75088Y24991D02*
D03*
X743991Y561088D02*
D03*
X721991Y63088D02*
D03*
D18*
X389000Y315000D02*
D03*
Y333000D02*
D03*
X558000Y60000D02*
D03*
Y78000D02*
D03*
X532000Y60000D02*
D03*
Y78000D02*
D03*
X610000Y226500D02*
D03*
Y208500D02*
D03*
X563000Y226500D02*
D03*
Y208500D02*
D03*
X584000Y226500D02*
D03*
Y208500D02*
D03*
X540729Y226500D02*
D03*
Y208500D02*
D03*
D23*
X775500Y305000D02*
D03*
X794500D02*
D03*
X775500Y205000D02*
D03*
X794500D02*
D03*
X775500Y85000D02*
D03*
X794500D02*
D03*
X231000Y170000D02*
D03*
X212000D02*
D03*
X168500Y169950D02*
D03*
X187500D02*
D03*
X231000Y48000D02*
D03*
X212000D02*
D03*
X168500Y48000D02*
D03*
X187500D02*
D03*
D24*
X478000Y565000D02*
D03*
X460000D02*
D03*
X478000Y537000D02*
D03*
X460000D02*
D03*
X266000Y322016D02*
D03*
X284000D02*
D03*
X341000Y135000D02*
D03*
X359000D02*
D03*
D26*
X111000Y412000D02*
D03*
Y393000D02*
D03*
D37*
X132500Y485000D02*
D03*
Y465000D02*
D03*
D46*
X80400Y386900D02*
D03*
Y412300D02*
D03*
Y437700D02*
D03*
Y231900D02*
D03*
Y257300D02*
D03*
Y282700D02*
D03*
Y96900D02*
D03*
Y122300D02*
D03*
Y147700D02*
D03*
D47*
Y463100D02*
D03*
Y308100D02*
D03*
Y173100D02*
D03*
D48*
X105000Y75000D02*
D03*
Y185000D02*
D03*
D49*
X120000Y128000D02*
D03*
Y238000D02*
D03*
D50*
X40000Y112500D02*
D03*
Y37500D02*
D03*
Y222500D02*
D03*
Y147500D02*
D03*
D51*
Y75000D02*
D03*
Y185000D02*
D03*
D52*
X14500Y500000D02*
D03*
Y570000D02*
D03*
D53*
X41500Y560000D02*
D03*
Y510000D02*
D03*
D54*
X99000Y355500D02*
D03*
X85000Y331500D02*
D03*
X54000Y259500D02*
D03*
D55*
X131000Y265000D02*
D03*
X21000Y305000D02*
D03*
D56*
X759000Y120050D02*
D03*
Y49950D02*
D03*
Y240050D02*
D03*
Y169950D02*
D03*
Y340050D02*
D03*
Y269950D02*
D03*
D57*
X783900Y107450D02*
D03*
Y62550D02*
D03*
Y227450D02*
D03*
Y182550D02*
D03*
Y327450D02*
D03*
Y282550D02*
D03*
D58*
X487000Y55700D02*
D03*
X567000Y151000D02*
D03*
X557642Y48000D02*
D03*
X588781Y134000D02*
D03*
X135750Y530750D02*
D03*
X144000Y438000D02*
D03*
X205000Y570000D02*
D03*
X353800Y555000D02*
D03*
X798000Y584000D02*
D03*
X778000D02*
D03*
X670000D02*
D03*
X650000D02*
D03*
X95000D02*
D03*
X80400Y584000D02*
D03*
X640000Y88000D02*
D03*
X132500Y498000D02*
D03*
X582400Y575000D02*
D03*
X155500Y504000D02*
D03*
X458194Y195000D02*
D03*
X430000Y195000D02*
D03*
X418258Y473686D02*
D03*
X433258Y458686D02*
D03*
X418258Y443686D02*
D03*
X403258Y458686D02*
D03*
X418258D02*
D03*
X433258Y473686D02*
D03*
Y443686D02*
D03*
X403258D02*
D03*
Y473686D02*
D03*
X180000Y514000D02*
D03*
X221000Y543000D02*
D03*
Y560749D02*
D03*
X315700Y555000D02*
D03*
X303000D02*
D03*
X277600D02*
D03*
X493500D02*
D03*
X233500Y425500D02*
D03*
Y445000D02*
D03*
X185000Y455000D02*
D03*
X582400Y350000D02*
D03*
X488950Y94000D02*
D03*
X231000Y145000D02*
D03*
X491450Y68550D02*
D03*
X544272Y29000D02*
D03*
X544300Y44000D02*
D03*
X531999Y258000D02*
D03*
X526000Y211000D02*
D03*
X590250Y155000D02*
D03*
X615000Y258000D02*
D03*
X480800Y555000D02*
D03*
X557750Y88000D02*
D03*
X469000Y41311D02*
D03*
X200000Y170000D02*
D03*
Y48000D02*
D03*
X487000Y194000D02*
D03*
X496000Y173000D02*
D03*
X795000Y45000D02*
D03*
X624745Y173000D02*
D03*
X570750Y122619D02*
D03*
X609750Y155152D02*
D03*
X64535Y515000D02*
D03*
X405000Y333000D02*
D03*
X630000Y565000D02*
D03*
X620000D02*
D03*
X650000Y470000D02*
D03*
X670000D02*
D03*
X676000Y535000D02*
D03*
Y547000D02*
D03*
X105000Y521000D02*
D03*
X92000Y527000D02*
D03*
Y536000D02*
D03*
X589995Y49950D02*
D03*
X583750Y70000D02*
D03*
X577250Y60000D02*
D03*
X581000Y192000D02*
D03*
X565100D02*
D03*
X616000Y60000D02*
D03*
X608500D02*
D03*
X180072Y560749D02*
D03*
X480000Y123000D02*
D03*
Y160000D02*
D03*
X420000Y265000D02*
D03*
X458000Y305000D02*
D03*
X330000Y265000D02*
D03*
X339000Y258000D02*
D03*
X285000Y300000D02*
D03*
X293000Y296000D02*
D03*
X248000Y75000D02*
D03*
X168000D02*
D03*
X248000Y195000D02*
D03*
X168000Y195000D02*
D03*
X410000Y121000D02*
D03*
X410000Y142000D02*
D03*
X315000Y155000D02*
D03*
D109*
X41500Y541500D02*
D03*
Y548000D02*
D03*
Y535000D02*
D03*
Y528500D02*
D03*
Y522000D02*
D03*
D110*
X608750Y78500D02*
D03*
Y69500D02*
D03*
X617000Y78500D02*
D03*
Y69500D02*
D03*
D111*
X83500Y536000D02*
D03*
X74500D02*
D03*
X83500Y527000D02*
D03*
X74500D02*
D03*
D112*
X363500Y328500D02*
D03*
Y322000D02*
D03*
Y315500D02*
D03*
Y309000D02*
D03*
Y302500D02*
D03*
Y296000D02*
D03*
Y289500D02*
D03*
X306500Y328500D02*
D03*
Y322000D02*
D03*
Y315500D02*
D03*
Y309000D02*
D03*
Y302500D02*
D03*
Y296000D02*
D03*
Y289500D02*
D03*
D113*
X327000Y345000D02*
D03*
X343000D02*
D03*
D114*
X616250Y104000D02*
D03*
X609750D02*
D03*
X603250D02*
D03*
X596750D02*
D03*
X590250D02*
D03*
X583750D02*
D03*
X577250D02*
D03*
X570750D02*
D03*
X564250D02*
D03*
X557750D02*
D03*
X551250D02*
D03*
X544750D02*
D03*
X538250D02*
D03*
X531750D02*
D03*
X616250Y173000D02*
D03*
X609750D02*
D03*
X603250D02*
D03*
X596750D02*
D03*
X590250D02*
D03*
X583750D02*
D03*
X577250D02*
D03*
X570750D02*
D03*
X564250D02*
D03*
X557750D02*
D03*
X551250D02*
D03*
X544750D02*
D03*
X538250D02*
D03*
X531750D02*
D03*
M02*
