G04*
G04 #@! TF.GenerationSoftware,Altium Limited,Altium Designer,19.0.10 (269)*
G04*
G04 Layer_Physical_Order=2*
G04 Layer_Color=16711680*
%FSLAX44Y44*%
%MOMM*%
G71*
G01*
G75*
%ADD10C,0.2540*%
%ADD11C,0.2000*%
G04:AMPARAMS|DCode=22|XSize=6mm|YSize=6mm|CornerRadius=1.5mm|HoleSize=0mm|Usage=FLASHONLY|Rotation=0.000|XOffset=0mm|YOffset=0mm|HoleType=Round|Shape=RoundedRectangle|*
%AMROUNDEDRECTD22*
21,1,6.0000,3.0000,0,0,0.0*
21,1,3.0000,6.0000,0,0,0.0*
1,1,3.0000,1.5000,-1.5000*
1,1,3.0000,-1.5000,-1.5000*
1,1,3.0000,-1.5000,1.5000*
1,1,3.0000,1.5000,1.5000*
%
%ADD22ROUNDEDRECTD22*%
G04:AMPARAMS|DCode=23|XSize=11mm|YSize=3.5mm|CornerRadius=0.875mm|HoleSize=0mm|Usage=FLASHONLY|Rotation=180.000|XOffset=0mm|YOffset=0mm|HoleType=Round|Shape=RoundedRectangle|*
%AMROUNDEDRECTD23*
21,1,11.0000,1.7500,0,0,180.0*
21,1,9.2500,3.5000,0,0,180.0*
1,1,1.7500,-4.6250,0.8750*
1,1,1.7500,4.6250,0.8750*
1,1,1.7500,4.6250,-0.8750*
1,1,1.7500,-4.6250,-0.8750*
%
%ADD23ROUNDEDRECTD23*%
%ADD24C,1.5000*%
%ADD25R,1.5000X1.5000*%
%ADD26C,2.3000*%
%ADD27C,2.0000*%
%ADD28R,1.8000X1.0500*%
%ADD29R,1.4000X1.0500*%
%ADD30R,1.0500X1.4000*%
%ADD31R,1.1500X1.4500*%
%ADD32R,1.2500X1.5000*%
%ADD33R,1.6000X1.6000*%
%ADD34C,0.4000*%
G36*
X-192939Y62460D02*
X-192965Y62701D01*
X-193042Y62917D01*
X-193170Y63108D01*
X-193350Y63273D01*
X-193582Y63412D01*
X-193864Y63527D01*
X-194199Y63616D01*
X-194584Y63679D01*
X-195021Y63717D01*
X-195509Y63730D01*
Y66270D01*
X-195021Y66283D01*
X-194584Y66321D01*
X-194199Y66384D01*
X-193864Y66473D01*
X-193582Y66588D01*
X-193350Y66727D01*
X-193170Y66892D01*
X-193042Y67083D01*
X-192965Y67299D01*
X-192939Y67540D01*
Y62460D01*
D02*
G37*
G36*
X-205035Y67299D02*
X-204958Y67083D01*
X-204830Y66892D01*
X-204650Y66727D01*
X-204418Y66588D01*
X-204136Y66473D01*
X-203801Y66384D01*
X-203416Y66321D01*
X-202979Y66283D01*
X-202491Y66270D01*
Y63730D01*
X-202979Y63717D01*
X-203416Y63679D01*
X-203801Y63616D01*
X-204136Y63527D01*
X-204418Y63412D01*
X-204650Y63273D01*
X-204830Y63108D01*
X-204958Y62917D01*
X-205035Y62701D01*
X-205061Y62460D01*
Y67540D01*
X-205035Y67299D01*
D02*
G37*
G36*
X-254939Y62460D02*
X-254965Y62701D01*
X-255042Y62917D01*
X-255170Y63108D01*
X-255350Y63273D01*
X-255582Y63412D01*
X-255864Y63527D01*
X-256199Y63616D01*
X-256584Y63679D01*
X-257021Y63717D01*
X-257509Y63730D01*
Y66270D01*
X-257021Y66283D01*
X-256584Y66321D01*
X-256199Y66384D01*
X-255864Y66473D01*
X-255582Y66588D01*
X-255350Y66727D01*
X-255170Y66892D01*
X-255042Y67083D01*
X-254965Y67299D01*
X-254939Y67540D01*
Y62460D01*
D02*
G37*
G36*
X-183701Y40755D02*
X-183917Y40679D01*
X-184108Y40552D01*
X-184273Y40374D01*
X-184412Y40146D01*
X-184527Y39866D01*
X-184616Y39536D01*
X-184679Y39155D01*
X-184717Y38723D01*
X-184730Y38240D01*
X-187270D01*
X-187283Y38723D01*
X-187321Y39155D01*
X-187384Y39536D01*
X-187473Y39866D01*
X-187588Y40146D01*
X-187727Y40374D01*
X-187892Y40552D01*
X-188083Y40679D01*
X-188299Y40755D01*
X-188540Y40781D01*
X-183460D01*
X-183701Y40755D01*
D02*
G37*
G36*
X-59900Y22299D02*
X-59824Y22083D01*
X-59697Y21892D01*
X-59519Y21727D01*
X-59290Y21588D01*
X-59011Y21473D01*
X-58681Y21384D01*
X-58300Y21321D01*
X-57868Y21283D01*
X-57385Y21270D01*
Y18730D01*
X-57868Y18717D01*
X-58300Y18679D01*
X-58681Y18616D01*
X-59011Y18527D01*
X-59290Y18412D01*
X-59519Y18273D01*
X-59697Y18108D01*
X-59824Y17917D01*
X-59900Y17701D01*
X-59925Y17460D01*
Y22540D01*
X-59900Y22299D01*
D02*
G37*
G36*
X-89334Y17460D02*
X-89360Y17701D01*
X-89437Y17917D01*
X-89565Y18108D01*
X-89745Y18273D01*
X-89976Y18412D01*
X-90259Y18527D01*
X-90593Y18616D01*
X-90979Y18679D01*
X-91416Y18717D01*
X-91904Y18730D01*
Y21270D01*
X-91416Y21283D01*
X-90979Y21321D01*
X-90593Y21384D01*
X-90259Y21473D01*
X-89976Y21588D01*
X-89745Y21727D01*
X-89565Y21892D01*
X-89437Y22083D01*
X-89360Y22299D01*
X-89334Y22540D01*
Y17460D01*
D02*
G37*
G36*
X-132255Y22299D02*
X-132179Y22083D01*
X-132052Y21892D01*
X-131874Y21727D01*
X-131645Y21588D01*
X-131366Y21473D01*
X-131036Y21384D01*
X-130655Y21321D01*
X-130223Y21283D01*
X-129740Y21270D01*
Y18730D01*
X-130223Y18717D01*
X-130655Y18679D01*
X-131036Y18616D01*
X-131366Y18527D01*
X-131645Y18412D01*
X-131874Y18273D01*
X-132052Y18108D01*
X-132179Y17917D01*
X-132255Y17701D01*
X-132281Y17460D01*
Y22540D01*
X-132255Y22299D01*
D02*
G37*
G36*
X-46000Y17975D02*
X-48000Y17368D01*
X-48253Y17747D01*
X-53253Y22747D01*
X-54514Y23589D01*
X-56000Y23885D01*
X-57355D01*
Y29790D01*
X-73355D01*
X-73935Y29790D01*
X-75355D01*
X-75935Y29790D01*
X-91935D01*
Y23885D01*
X-94254D01*
X-94316Y23890D01*
X-94675Y23977D01*
X-95159Y24161D01*
X-95753Y24457D01*
X-96443Y24875D01*
X-97169Y25382D01*
X-100002Y27816D01*
X-100789Y28595D01*
X-101056Y28944D01*
X-103676Y30954D01*
X-106726Y32217D01*
X-110000Y32648D01*
X-113274Y32217D01*
X-116324Y30954D01*
X-118944Y28944D01*
X-119211Y28595D01*
X-120016Y27798D01*
X-121953Y26065D01*
X-122783Y25415D01*
X-123557Y24875D01*
X-124247Y24457D01*
X-124841Y24161D01*
X-125325Y23977D01*
X-125684Y23890D01*
X-125746Y23885D01*
X-129710D01*
Y30040D01*
X-147290D01*
Y9960D01*
X-129710D01*
Y16115D01*
X-125746D01*
X-125684Y16110D01*
X-125325Y16022D01*
X-124841Y15839D01*
X-124247Y15543D01*
X-123557Y15125D01*
X-122831Y14618D01*
X-119998Y12184D01*
X-119211Y11405D01*
X-118944Y11056D01*
X-116324Y9046D01*
X-113274Y7783D01*
X-110000Y7352D01*
X-106726Y7783D01*
X-103676Y9046D01*
X-101056Y11056D01*
X-100789Y11405D01*
X-99984Y12202D01*
X-98047Y13935D01*
X-97217Y14585D01*
X-96443Y15125D01*
X-95753Y15543D01*
X-95159Y15839D01*
X-94675Y16022D01*
X-94316Y16110D01*
X-94254Y16115D01*
X-91935D01*
Y10210D01*
X-75935D01*
X-75355Y10210D01*
X-73935D01*
X-73355Y10210D01*
X-57355D01*
Y11370D01*
X-55355Y12427D01*
X-54885Y12106D01*
Y-29460D01*
X-59290D01*
Y-48540D01*
X-46000D01*
Y-89000D01*
X-281684D01*
X-286503Y-88041D01*
X-295027Y-85456D01*
X-303256Y-82048D01*
X-311111Y-77849D01*
X-318517Y-72900D01*
X-325402Y-67250D01*
X-331700Y-60952D01*
X-337350Y-54067D01*
X-342299Y-46661D01*
X-346497Y-38805D01*
X-348000Y-35178D01*
Y25000D01*
X-298000D01*
Y-34000D01*
X-296000Y-36000D01*
X-181738D01*
X-171652Y-46086D01*
X-153541Y-64197D01*
X-152281Y-65039D01*
X-150794Y-65335D01*
X-148140D01*
Y-71490D01*
X-128060D01*
Y-54412D01*
X-126060Y-53584D01*
X-123715Y-55928D01*
X-123591Y-56119D01*
X-123440Y-56425D01*
X-123286Y-56834D01*
X-123141Y-57345D01*
X-123014Y-57958D01*
X-122916Y-58638D01*
X-122797Y-60395D01*
X-122791Y-61179D01*
X-122827Y-61450D01*
X-122482Y-64071D01*
X-121470Y-66513D01*
X-119861Y-68611D01*
X-117763Y-70220D01*
X-115321Y-71232D01*
X-112700Y-71577D01*
X-110079Y-71232D01*
X-107637Y-70220D01*
X-105539Y-68611D01*
X-103930Y-66513D01*
X-102918Y-64071D01*
X-102573Y-61450D01*
X-102918Y-58829D01*
X-103930Y-56387D01*
X-105539Y-54289D01*
X-107637Y-52680D01*
X-110079Y-51668D01*
X-112700Y-51323D01*
X-112971Y-51359D01*
X-113755Y-51353D01*
X-115512Y-51234D01*
X-116192Y-51136D01*
X-116805Y-51009D01*
X-117316Y-50865D01*
X-117725Y-50711D01*
X-118031Y-50559D01*
X-118222Y-50435D01*
X-123403Y-45253D01*
X-124663Y-44411D01*
X-126150Y-44115D01*
X-155451D01*
X-162393Y-37173D01*
X-173115Y-26451D01*
Y26000D01*
X-173411Y27487D01*
X-173500Y27620D01*
Y80000D01*
X-46000D01*
Y17975D01*
D02*
G37*
G36*
X-101760Y25911D02*
X-98758Y23333D01*
X-97856Y22703D01*
X-97003Y22187D01*
X-96199Y21786D01*
X-95444Y21499D01*
X-94738Y21327D01*
X-94081Y21270D01*
Y18730D01*
X-94738Y18673D01*
X-95444Y18501D01*
X-96199Y18214D01*
X-97003Y17813D01*
X-97856Y17298D01*
X-98758Y16667D01*
X-99710Y15922D01*
X-101760Y14089D01*
X-102859Y13000D01*
Y27000D01*
X-101760Y25911D01*
D02*
G37*
G36*
X-117141Y13000D02*
X-118240Y14089D01*
X-121242Y16667D01*
X-122144Y17298D01*
X-122997Y17813D01*
X-123801Y18214D01*
X-124556Y18501D01*
X-125262Y18673D01*
X-125919Y18730D01*
Y21270D01*
X-125262Y21327D01*
X-124556Y21499D01*
X-123801Y21786D01*
X-122997Y22187D01*
X-122144Y22703D01*
X-121242Y23333D01*
X-120290Y24078D01*
X-118240Y25911D01*
X-117141Y27000D01*
Y13000D01*
D02*
G37*
G36*
X-49717Y-29979D02*
X-49679Y-30416D01*
X-49616Y-30801D01*
X-49527Y-31136D01*
X-49412Y-31418D01*
X-49273Y-31650D01*
X-49108Y-31830D01*
X-48917Y-31958D01*
X-48701Y-32035D01*
X-48460Y-32061D01*
X-53540D01*
X-53299Y-32035D01*
X-53083Y-31958D01*
X-52892Y-31830D01*
X-52727Y-31650D01*
X-52587Y-31418D01*
X-52473Y-31136D01*
X-52384Y-30801D01*
X-52321Y-30416D01*
X-52283Y-29979D01*
X-52270Y-29490D01*
X-49730D01*
X-49717Y-29979D01*
D02*
G37*
G36*
X-119801Y-52497D02*
X-119317Y-52812D01*
X-118759Y-53088D01*
X-118127Y-53327D01*
X-117420Y-53527D01*
X-116640Y-53688D01*
X-115785Y-53811D01*
X-113853Y-53942D01*
X-112775Y-53950D01*
X-120200Y-61375D01*
X-120208Y-60297D01*
X-120339Y-58365D01*
X-120462Y-57510D01*
X-120624Y-56730D01*
X-120823Y-56023D01*
X-121062Y-55391D01*
X-121338Y-54833D01*
X-121653Y-54349D01*
X-122007Y-53939D01*
X-120211Y-52143D01*
X-119801Y-52497D01*
D02*
G37*
G36*
X-145539Y-63990D02*
X-145565Y-63749D01*
X-145642Y-63533D01*
X-145770Y-63342D01*
X-145950Y-63177D01*
X-146182Y-63038D01*
X-146464Y-62923D01*
X-146799Y-62834D01*
X-147184Y-62771D01*
X-147621Y-62733D01*
X-148110Y-62720D01*
Y-60180D01*
X-147621Y-60167D01*
X-147184Y-60129D01*
X-146799Y-60066D01*
X-146464Y-59977D01*
X-146182Y-59862D01*
X-145950Y-59723D01*
X-145770Y-59558D01*
X-145642Y-59367D01*
X-145565Y-59151D01*
X-145539Y-58910D01*
Y-63990D01*
D02*
G37*
G36*
X292500Y-80000D02*
X50000D01*
Y80000D01*
X292500D01*
Y-80000D01*
D02*
G37*
%LPC*%
G36*
X-145355Y69517D02*
X-149021Y69034D01*
X-152436Y67619D01*
X-154353Y66149D01*
X-145355Y57151D01*
X-136358Y66149D01*
X-138275Y67619D01*
X-141690Y69034D01*
X-145355Y69517D01*
D02*
G37*
G36*
X-74645D02*
X-78310Y69034D01*
X-81725Y67619D01*
X-83642Y66149D01*
X-74645Y57151D01*
X-65648Y66149D01*
X-67564Y67619D01*
X-70979Y69034D01*
X-74645Y69517D01*
D02*
G37*
G36*
X-85438Y64352D02*
X-86909Y62436D01*
X-88323Y59021D01*
X-88806Y55355D01*
X-88323Y51690D01*
X-86909Y48275D01*
X-85438Y46358D01*
X-76441Y55355D01*
X-85438Y64352D01*
D02*
G37*
G36*
X-134562Y64353D02*
X-143559Y55355D01*
X-134562Y46358D01*
X-133091Y48275D01*
X-131677Y51690D01*
X-131194Y55355D01*
X-131677Y59021D01*
X-133091Y62436D01*
X-134562Y64353D01*
D02*
G37*
G36*
X-156149Y64353D02*
X-157619Y62436D01*
X-159034Y59021D01*
X-159516Y55355D01*
X-159034Y51690D01*
X-157619Y48275D01*
X-156149Y46358D01*
X-147151Y55355D01*
X-156149Y64353D01*
D02*
G37*
G36*
X-63851D02*
X-72849Y55355D01*
X-63851Y46358D01*
X-62381Y48275D01*
X-60966Y51690D01*
X-60483Y55355D01*
X-60966Y59021D01*
X-62381Y62436D01*
X-63851Y64353D01*
D02*
G37*
G36*
X-74645Y53559D02*
X-83642Y44562D01*
X-81725Y43091D01*
X-78310Y41677D01*
X-74645Y41194D01*
X-70979Y41677D01*
X-67564Y43091D01*
X-65648Y44562D01*
X-74645Y53559D01*
D02*
G37*
G36*
X-145355Y53559D02*
X-154353Y44562D01*
X-152436Y43091D01*
X-149021Y41677D01*
X-145355Y41194D01*
X-141690Y41677D01*
X-138275Y43091D01*
X-136358Y44562D01*
X-145355Y53559D01*
D02*
G37*
G36*
X-74645Y-1194D02*
X-78310Y-1677D01*
X-81725Y-3091D01*
X-83642Y-4562D01*
X-74645Y-13559D01*
X-65648Y-4562D01*
X-67564Y-3091D01*
X-70979Y-1677D01*
X-74645Y-1194D01*
D02*
G37*
G36*
X-146062Y-1901D02*
X-149728Y-2384D01*
X-153143Y-3799D01*
X-155060Y-5269D01*
X-146062Y-14266D01*
X-137065Y-5269D01*
X-138982Y-3799D01*
X-142397Y-2384D01*
X-146062Y-1901D01*
D02*
G37*
G36*
X-85438Y-6358D02*
X-86909Y-8275D01*
X-88323Y-11690D01*
X-88806Y-15355D01*
X-88323Y-19021D01*
X-86909Y-22436D01*
X-85438Y-24353D01*
X-76441Y-15355D01*
X-85438Y-6358D01*
D02*
G37*
G36*
X-63851Y-6358D02*
X-72849Y-15355D01*
X-63851Y-24353D01*
X-62381Y-22436D01*
X-60966Y-19021D01*
X-60483Y-15355D01*
X-60966Y-11690D01*
X-62381Y-8275D01*
X-63851Y-6358D01*
D02*
G37*
G36*
X-156856Y-7065D02*
X-158326Y-8982D01*
X-159741Y-12397D01*
X-160224Y-16062D01*
X-159741Y-19728D01*
X-158326Y-23143D01*
X-156856Y-25060D01*
X-147858Y-16062D01*
X-156856Y-7065D01*
D02*
G37*
G36*
X-135269Y-7065D02*
X-144266Y-16062D01*
X-135269Y-25060D01*
X-133799Y-23143D01*
X-132384Y-19728D01*
X-131901Y-16062D01*
X-132384Y-12397D01*
X-133799Y-8982D01*
X-135269Y-7065D01*
D02*
G37*
G36*
X-146062Y-17859D02*
X-155060Y-26856D01*
X-153143Y-28326D01*
X-149728Y-29741D01*
X-146062Y-30224D01*
X-142397Y-29741D01*
X-138982Y-28326D01*
X-137065Y-26856D01*
X-146062Y-17859D01*
D02*
G37*
G36*
X-74645Y-17151D02*
X-83642Y-26149D01*
X-81725Y-27619D01*
X-79849Y-28396D01*
X-78290Y-29460D01*
Y-35115D01*
X-80052D01*
X-81539Y-35411D01*
X-82799Y-36253D01*
X-90047Y-43501D01*
X-90889Y-44761D01*
X-91185Y-46248D01*
Y-49757D01*
X-91232Y-49979D01*
X-91341Y-50303D01*
X-91521Y-50701D01*
X-91780Y-51165D01*
X-92124Y-51688D01*
X-92535Y-52238D01*
X-93694Y-53565D01*
X-94244Y-54123D01*
X-94461Y-54289D01*
X-96070Y-56387D01*
X-97082Y-58829D01*
X-97427Y-61450D01*
X-97082Y-64071D01*
X-96070Y-66513D01*
X-94461Y-68611D01*
X-92363Y-70220D01*
X-89921Y-71232D01*
X-87300Y-71577D01*
X-84679Y-71232D01*
X-82237Y-70220D01*
X-80139Y-68611D01*
X-78530Y-66513D01*
X-77518Y-64071D01*
X-77173Y-61450D01*
X-77518Y-58829D01*
X-78530Y-56387D01*
X-80139Y-54289D01*
X-80357Y-54123D01*
X-80907Y-53564D01*
X-82065Y-52238D01*
X-82476Y-51688D01*
X-82820Y-51165D01*
X-83079Y-50701D01*
X-83259Y-50303D01*
X-83368Y-49979D01*
X-83415Y-49757D01*
Y-47857D01*
X-80290Y-44731D01*
X-78290Y-45560D01*
Y-48540D01*
X-62710D01*
Y-29460D01*
X-66792D01*
X-67335Y-28166D01*
X-67357Y-27460D01*
X-65648Y-26149D01*
X-74645Y-17151D01*
D02*
G37*
G36*
X-60630Y-51491D02*
Y-60180D01*
X-51941D01*
X-52118Y-58829D01*
X-53130Y-56387D01*
X-54739Y-54289D01*
X-56837Y-52680D01*
X-59279Y-51668D01*
X-60630Y-51491D01*
D02*
G37*
G36*
X-63170D02*
X-64521Y-51668D01*
X-66963Y-52680D01*
X-69061Y-54289D01*
X-70670Y-56387D01*
X-71682Y-58829D01*
X-71859Y-60180D01*
X-63170D01*
Y-51491D01*
D02*
G37*
G36*
X-51941Y-62720D02*
X-60630D01*
Y-71409D01*
X-59279Y-71232D01*
X-56837Y-70220D01*
X-54739Y-68611D01*
X-53130Y-66513D01*
X-52118Y-64071D01*
X-51941Y-62720D01*
D02*
G37*
G36*
X-63170D02*
X-71859D01*
X-71682Y-64071D01*
X-70670Y-66513D01*
X-69061Y-68611D01*
X-66963Y-70220D01*
X-64521Y-71232D01*
X-63170Y-71409D01*
Y-62720D01*
D02*
G37*
%LPD*%
G36*
X-75719Y-41540D02*
X-75745Y-41299D01*
X-75821Y-41083D01*
X-75948Y-40892D01*
X-76126Y-40727D01*
X-76354Y-40588D01*
X-76634Y-40473D01*
X-76964Y-40384D01*
X-77345Y-40321D01*
X-77777Y-40283D01*
X-78260Y-40270D01*
Y-37730D01*
X-77777Y-37717D01*
X-77345Y-37679D01*
X-76964Y-37616D01*
X-76634Y-37527D01*
X-76354Y-37413D01*
X-76126Y-37273D01*
X-75948Y-37108D01*
X-75821Y-36917D01*
X-75745Y-36701D01*
X-75719Y-36460D01*
Y-41540D01*
D02*
G37*
G36*
X-85990Y-50098D02*
X-85871Y-50663D01*
X-85672Y-51253D01*
X-85393Y-51869D01*
X-85035Y-52509D01*
X-84597Y-53176D01*
X-84080Y-53867D01*
X-82806Y-55326D01*
X-82050Y-56094D01*
X-92550D01*
X-91794Y-55326D01*
X-90520Y-53867D01*
X-90003Y-53176D01*
X-89565Y-52509D01*
X-89207Y-51869D01*
X-88928Y-51253D01*
X-88729Y-50663D01*
X-88610Y-50098D01*
X-88570Y-49558D01*
X-86030D01*
X-85990Y-50098D01*
D02*
G37*
%LPC*%
G36*
X194645Y69517D02*
X190979Y69034D01*
X187564Y67619D01*
X185648Y66149D01*
X194645Y57151D01*
X203642Y66149D01*
X201725Y67619D01*
X198310Y69034D01*
X194645Y69517D01*
D02*
G37*
G36*
X145355D02*
X141690Y69034D01*
X138275Y67619D01*
X136358Y66149D01*
X145355Y57151D01*
X154353Y66149D01*
X152436Y67619D01*
X149021Y69034D01*
X145355Y69517D01*
D02*
G37*
G36*
X265355D02*
X261690Y69034D01*
X258275Y67619D01*
X256358Y66149D01*
X265355Y57151D01*
X274352Y66149D01*
X272436Y67619D01*
X269021Y69034D01*
X265355Y69517D01*
D02*
G37*
G36*
X74645D02*
X70979Y69034D01*
X67564Y67619D01*
X65647Y66149D01*
X74645Y57151D01*
X83642Y66149D01*
X81725Y67619D01*
X78310Y69034D01*
X74645Y69517D01*
D02*
G37*
G36*
X156149Y64353D02*
X147151Y55355D01*
X156149Y46358D01*
X157619Y48275D01*
X159034Y51690D01*
X159516Y55355D01*
X159034Y59021D01*
X157619Y62436D01*
X156149Y64353D01*
D02*
G37*
G36*
X205438Y64353D02*
X196441Y55355D01*
X205438Y46358D01*
X206909Y48275D01*
X208323Y51690D01*
X208806Y55355D01*
X208323Y59021D01*
X206909Y62436D01*
X205438Y64353D01*
D02*
G37*
G36*
X183851D02*
X182381Y62436D01*
X180966Y59021D01*
X180483Y55355D01*
X180966Y51690D01*
X182381Y48275D01*
X183851Y46358D01*
X192849Y55355D01*
X183851Y64353D01*
D02*
G37*
G36*
X254562Y64353D02*
X253091Y62436D01*
X251677Y59021D01*
X251194Y55355D01*
X251677Y51690D01*
X253091Y48275D01*
X254562Y46358D01*
X263559Y55355D01*
X254562Y64353D01*
D02*
G37*
G36*
X276149D02*
X267151Y55355D01*
X276149Y46358D01*
X277619Y48275D01*
X279034Y51690D01*
X279517Y55355D01*
X279034Y59021D01*
X277619Y62436D01*
X276149Y64353D01*
D02*
G37*
G36*
X63851D02*
X62381Y62436D01*
X60966Y59021D01*
X60483Y55355D01*
X60966Y51690D01*
X62381Y48275D01*
X63851Y46358D01*
X72849Y55355D01*
X63851Y64353D01*
D02*
G37*
G36*
X134562Y64353D02*
X133091Y62436D01*
X131677Y59021D01*
X131194Y55355D01*
X131677Y51690D01*
X133091Y48275D01*
X134562Y46358D01*
X143559Y55355D01*
X134562Y64353D01*
D02*
G37*
G36*
X85438Y64353D02*
X76441Y55355D01*
X85438Y46358D01*
X86909Y48275D01*
X88323Y51690D01*
X88806Y55355D01*
X88323Y59021D01*
X86909Y62436D01*
X85438Y64353D01*
D02*
G37*
G36*
X265355Y53559D02*
X256358Y44562D01*
X258275Y43091D01*
X261690Y41677D01*
X265355Y41194D01*
X269021Y41677D01*
X272436Y43091D01*
X274352Y44562D01*
X265355Y53559D01*
D02*
G37*
G36*
X194645Y53559D02*
X185647Y44562D01*
X187564Y43091D01*
X190979Y41677D01*
X194645Y41194D01*
X198310Y41677D01*
X201725Y43091D01*
X203642Y44562D01*
X194645Y53559D01*
D02*
G37*
G36*
X145355Y53559D02*
X136358Y44562D01*
X138275Y43091D01*
X141690Y41677D01*
X145355Y41194D01*
X149021Y41677D01*
X152436Y43091D01*
X154353Y44562D01*
X145355Y53559D01*
D02*
G37*
G36*
X74645Y53559D02*
X65648Y44562D01*
X67564Y43091D01*
X70979Y41677D01*
X74645Y41194D01*
X78310Y41677D01*
X81725Y43091D01*
X83642Y44562D01*
X74645Y53559D01*
D02*
G37*
G36*
X265355Y-1194D02*
X261690Y-1677D01*
X258275Y-3091D01*
X256358Y-4562D01*
X265355Y-13559D01*
X274352Y-4562D01*
X272436Y-3091D01*
X269021Y-1677D01*
X265355Y-1194D01*
D02*
G37*
G36*
X145355D02*
X141690Y-1677D01*
X138275Y-3091D01*
X136358Y-4562D01*
X145355Y-13559D01*
X154353Y-4562D01*
X152436Y-3091D01*
X149021Y-1677D01*
X145355Y-1194D01*
D02*
G37*
G36*
X193938Y-1901D02*
X190272Y-2384D01*
X186857Y-3799D01*
X184940Y-5269D01*
X193938Y-14266D01*
X202935Y-5269D01*
X201018Y-3799D01*
X197603Y-2384D01*
X193938Y-1901D01*
D02*
G37*
G36*
X73938D02*
X70272Y-2384D01*
X66857Y-3799D01*
X64940Y-5269D01*
X73938Y-14266D01*
X82935Y-5269D01*
X81018Y-3799D01*
X77603Y-2384D01*
X73938Y-1901D01*
D02*
G37*
G36*
X156149Y-6358D02*
X147151Y-15355D01*
X156149Y-24353D01*
X157619Y-22436D01*
X159034Y-19021D01*
X159516Y-15355D01*
X159034Y-11690D01*
X157619Y-8275D01*
X156149Y-6358D01*
D02*
G37*
G36*
X276149Y-6358D02*
X267151Y-15355D01*
X276149Y-24353D01*
X277619Y-22436D01*
X279034Y-19021D01*
X279517Y-15355D01*
X279034Y-11690D01*
X277619Y-8275D01*
X276149Y-6358D01*
D02*
G37*
G36*
X254562D02*
X253091Y-8275D01*
X251677Y-11690D01*
X251194Y-15355D01*
X251677Y-19021D01*
X253091Y-22436D01*
X254562Y-24353D01*
X263559Y-15355D01*
X254562Y-6358D01*
D02*
G37*
G36*
X134562Y-6358D02*
X133091Y-8275D01*
X131677Y-11690D01*
X131194Y-15355D01*
X131677Y-19021D01*
X133091Y-22436D01*
X134562Y-24353D01*
X143559Y-15355D01*
X134562Y-6358D01*
D02*
G37*
G36*
X204731Y-7065D02*
X195734Y-16062D01*
X204731Y-25060D01*
X206201Y-23143D01*
X207616Y-19728D01*
X208099Y-16062D01*
X207616Y-12397D01*
X206201Y-8982D01*
X204731Y-7065D01*
D02*
G37*
G36*
X183144D02*
X181674Y-8982D01*
X180259Y-12397D01*
X179776Y-16062D01*
X180259Y-19728D01*
X181674Y-23143D01*
X183144Y-25060D01*
X192141Y-16062D01*
X183144Y-7065D01*
D02*
G37*
G36*
X84731D02*
X75734Y-16063D01*
X84731Y-25060D01*
X86201Y-23143D01*
X87616Y-19728D01*
X88099Y-16062D01*
X87616Y-12397D01*
X86201Y-8982D01*
X84731Y-7065D01*
D02*
G37*
G36*
X63144D02*
X61674Y-8982D01*
X60259Y-12397D01*
X59776Y-16062D01*
X60259Y-19728D01*
X61674Y-23143D01*
X63144Y-25060D01*
X72141Y-16063D01*
X63144Y-7065D01*
D02*
G37*
G36*
X265355Y-17151D02*
X256358Y-26149D01*
X258275Y-27619D01*
X261690Y-29034D01*
X265355Y-29516D01*
X269021Y-29034D01*
X272436Y-27619D01*
X274352Y-26149D01*
X265355Y-17151D01*
D02*
G37*
G36*
X145355D02*
X136358Y-26149D01*
X138275Y-27619D01*
X141690Y-29034D01*
X145355Y-29516D01*
X149021Y-29034D01*
X152436Y-27619D01*
X154353Y-26149D01*
X145355Y-17151D01*
D02*
G37*
G36*
X193938Y-17859D02*
X184940Y-26856D01*
X186857Y-28326D01*
X190272Y-29741D01*
X193938Y-30224D01*
X197603Y-29741D01*
X201018Y-28326D01*
X202935Y-26856D01*
X193938Y-17859D01*
D02*
G37*
G36*
X73938D02*
X64940Y-26856D01*
X66857Y-28326D01*
X70272Y-29741D01*
X73938Y-30224D01*
X77603Y-29741D01*
X81018Y-28326D01*
X82935Y-26856D01*
X73938Y-17859D01*
D02*
G37*
G36*
X230000Y32648D02*
X226726Y32217D01*
X223676Y30954D01*
X221056Y28944D01*
X219046Y26324D01*
X217783Y23274D01*
X217352Y20000D01*
X217783Y16726D01*
X219046Y13676D01*
X221056Y11056D01*
X221356Y10827D01*
X222849Y9238D01*
X223494Y8445D01*
X224051Y7674D01*
X224504Y6951D01*
X224857Y6281D01*
X225114Y5671D01*
X225283Y5123D01*
X225371Y4663D01*
Y-23083D01*
X210583Y-37871D01*
X187500D01*
X187500Y-37871D01*
X185729Y-38223D01*
X184227Y-39227D01*
X184227Y-39227D01*
X179427Y-44027D01*
X178423Y-45529D01*
X178071Y-47300D01*
X178071Y-47300D01*
Y-50206D01*
X178029Y-50479D01*
X177928Y-50877D01*
X177779Y-51293D01*
X177578Y-51732D01*
X177318Y-52194D01*
X176998Y-52678D01*
X176611Y-53183D01*
X176158Y-53706D01*
X175746Y-54131D01*
X175539Y-54289D01*
X173930Y-56387D01*
X172918Y-58829D01*
X172573Y-61450D01*
X172918Y-64071D01*
X173930Y-66513D01*
X175539Y-68611D01*
X177637Y-70220D01*
X180079Y-71232D01*
X182700Y-71577D01*
X185321Y-71232D01*
X187763Y-70220D01*
X189861Y-68611D01*
X191470Y-66513D01*
X192482Y-64071D01*
X192827Y-61450D01*
X192482Y-58829D01*
X191470Y-56387D01*
X189861Y-54289D01*
X189654Y-54131D01*
X189242Y-53706D01*
X188789Y-53183D01*
X188403Y-52678D01*
X188081Y-52194D01*
X187822Y-51733D01*
X187621Y-51293D01*
X187472Y-50876D01*
X187371Y-50479D01*
X187329Y-50206D01*
Y-49217D01*
X189417Y-47129D01*
X212500D01*
X212500Y-47129D01*
X214271Y-46777D01*
X215773Y-45773D01*
X233273Y-28273D01*
X233273Y-28273D01*
X234277Y-26771D01*
X234629Y-25000D01*
Y4663D01*
X234717Y5123D01*
X234886Y5671D01*
X235143Y6282D01*
X235496Y6951D01*
X235949Y7674D01*
X236487Y8418D01*
X237960Y10139D01*
X238605Y10797D01*
X238944Y11056D01*
X240954Y13676D01*
X242217Y16726D01*
X242648Y20000D01*
X242217Y23274D01*
X240954Y26324D01*
X238944Y28944D01*
X236324Y30954D01*
X233274Y32217D01*
X230000Y32648D01*
D02*
G37*
G36*
X209370Y-51491D02*
Y-60180D01*
X218059D01*
X217882Y-58829D01*
X216870Y-56387D01*
X215261Y-54289D01*
X213163Y-52680D01*
X210721Y-51668D01*
X209370Y-51491D01*
D02*
G37*
G36*
X206830D02*
X205479Y-51668D01*
X203037Y-52680D01*
X200939Y-54289D01*
X199330Y-56387D01*
X198318Y-58829D01*
X198141Y-60180D01*
X206830D01*
Y-51491D01*
D02*
G37*
G36*
X158570D02*
Y-60180D01*
X167259D01*
X167082Y-58829D01*
X166070Y-56387D01*
X164461Y-54289D01*
X162363Y-52680D01*
X159921Y-51668D01*
X158570Y-51491D01*
D02*
G37*
G36*
X156030D02*
X154679Y-51668D01*
X152237Y-52680D01*
X150139Y-54289D01*
X148530Y-56387D01*
X147518Y-58829D01*
X147341Y-60180D01*
X156030D01*
Y-51491D01*
D02*
G37*
G36*
X218059Y-62720D02*
X209370D01*
Y-71409D01*
X210721Y-71232D01*
X213163Y-70220D01*
X215261Y-68611D01*
X216870Y-66513D01*
X217882Y-64071D01*
X218059Y-62720D01*
D02*
G37*
G36*
X206830D02*
X198141D01*
X198318Y-64071D01*
X199330Y-66513D01*
X200939Y-68611D01*
X203037Y-70220D01*
X205479Y-71232D01*
X206830Y-71409D01*
Y-62720D01*
D02*
G37*
G36*
X167259D02*
X158570D01*
Y-71409D01*
X159921Y-71232D01*
X162363Y-70220D01*
X164461Y-68611D01*
X166070Y-66513D01*
X167082Y-64071D01*
X167259Y-62720D01*
D02*
G37*
G36*
X156030D02*
X147341D01*
X147518Y-64071D01*
X148530Y-66513D01*
X150139Y-68611D01*
X152237Y-70220D01*
X154679Y-71232D01*
X156030Y-71409D01*
Y-62720D01*
D02*
G37*
G36*
X110000Y32648D02*
X106726Y32217D01*
X103676Y30954D01*
X101056Y28944D01*
X99046Y26324D01*
X97783Y23274D01*
X97352Y20000D01*
X97783Y16726D01*
X99046Y13676D01*
X101056Y11056D01*
X101356Y10827D01*
X102849Y9238D01*
X103494Y8445D01*
X104051Y7674D01*
X104504Y6951D01*
X104857Y6281D01*
X105114Y5671D01*
X105283Y5123D01*
X105371Y4663D01*
Y-25000D01*
X105371Y-25000D01*
X105723Y-26771D01*
X106727Y-28273D01*
X127271Y-48817D01*
Y-50852D01*
X127249Y-51107D01*
X127199Y-51410D01*
X121860D01*
Y-71490D01*
X141940D01*
Y-51410D01*
X136601D01*
X136551Y-51107D01*
X136529Y-50852D01*
Y-46900D01*
X136529Y-46900D01*
X136177Y-45129D01*
X135173Y-43627D01*
X135173Y-43627D01*
X114629Y-23083D01*
Y4663D01*
X114717Y5123D01*
X114887Y5671D01*
X115143Y6282D01*
X115496Y6951D01*
X115949Y7674D01*
X116487Y8418D01*
X117960Y10139D01*
X118605Y10797D01*
X118944Y11056D01*
X120954Y13676D01*
X122217Y16726D01*
X122648Y20000D01*
X122217Y23274D01*
X120954Y26324D01*
X118944Y28944D01*
X116324Y30954D01*
X113274Y32217D01*
X110000Y32648D01*
D02*
G37*
%LPD*%
G36*
X236050Y11890D02*
X234450Y10021D01*
X233800Y9121D01*
X233250Y8244D01*
X232800Y7390D01*
X232450Y6558D01*
X232200Y5750D01*
X232050Y4965D01*
X232000Y4202D01*
X228000D01*
X227950Y4965D01*
X227800Y5750D01*
X227550Y6558D01*
X227200Y7390D01*
X226750Y8244D01*
X226200Y9121D01*
X225550Y10021D01*
X224800Y10944D01*
X223000Y12859D01*
X237000D01*
X236050Y11890D01*
D02*
G37*
G36*
X184732Y-50359D02*
X184830Y-50996D01*
X184993Y-51634D01*
X185220Y-52271D01*
X185513Y-52908D01*
X185870Y-53545D01*
X186292Y-54182D01*
X186780Y-54820D01*
X187332Y-55457D01*
X187950Y-56094D01*
X177450D01*
X178067Y-55457D01*
X178620Y-54820D01*
X179107Y-54182D01*
X179530Y-53545D01*
X179888Y-52908D01*
X180180Y-52271D01*
X180408Y-51634D01*
X180570Y-50996D01*
X180667Y-50359D01*
X180700Y-49722D01*
X184700D01*
X184732Y-50359D01*
D02*
G37*
G36*
X116050Y11890D02*
X114450Y10021D01*
X113800Y9121D01*
X113250Y8244D01*
X112800Y7390D01*
X112450Y6558D01*
X112200Y5750D01*
X112050Y4965D01*
X112000Y4202D01*
X108000D01*
X107950Y4965D01*
X107800Y5750D01*
X107550Y6558D01*
X107200Y7390D01*
X106750Y8244D01*
X106200Y9121D01*
X105550Y10021D01*
X104800Y10944D01*
X103000Y12859D01*
X117000D01*
X116050Y11890D01*
D02*
G37*
G36*
X133920Y-50746D02*
X133980Y-51431D01*
X134080Y-52036D01*
X134220Y-52560D01*
X134400Y-53003D01*
X134620Y-53366D01*
X134880Y-53648D01*
X135180Y-53850D01*
X135520Y-53971D01*
X135900Y-54011D01*
X127900D01*
X128280Y-53971D01*
X128620Y-53850D01*
X128920Y-53648D01*
X129180Y-53366D01*
X129400Y-53003D01*
X129580Y-52560D01*
X129720Y-52036D01*
X129820Y-51431D01*
X129880Y-50746D01*
X129900Y-49981D01*
X133900D01*
X133920Y-50746D01*
D02*
G37*
D10*
X-157060Y-48000D02*
X-126150D01*
X-177000Y-28060D02*
X-157060Y-48000D01*
X-180244Y-32000D02*
X-150794Y-61450D01*
X-138100D01*
X-271000Y-32000D02*
X-180244D01*
X-278000Y-25000D02*
X-271000Y-32000D01*
X-177000Y-28060D02*
Y26000D01*
X-87300Y-46248D02*
X-80052Y-39000D01*
X-70500D01*
X-51000D02*
Y15000D01*
X-87300Y-61450D02*
Y-46248D01*
X-126150Y-48000D02*
X-112700Y-61450D01*
X-213000Y65000D02*
X-186000D01*
Y35000D02*
X-177000Y26000D01*
X-186000Y35000D02*
Y46000D01*
X-278000Y-25000D02*
Y52000D01*
X-265000Y65000D01*
X-247000D01*
X-56000Y20000D02*
X-51000Y15000D01*
X-65645Y20000D02*
X-56000D01*
X-83645Y20000D02*
X-83645Y20000D01*
X-110000Y20000D02*
X-83645D01*
X-138500D02*
X-110000D01*
D11*
X-264450Y95750D02*
G03*
X-264450Y-95750I0J-95750D01*
G01*
X264450D02*
G03*
X264450Y95750I0J95750D01*
G01*
X-264450Y-95750D02*
X264450D01*
X-264450Y95750D02*
X264450D01*
D22*
X-322650Y0D02*
D03*
D23*
X-230000Y-61000D02*
D03*
D24*
X-112700Y-61450D02*
D03*
X-87300D02*
D03*
X-61900D02*
D03*
X208100D02*
D03*
X182700D02*
D03*
X157300D02*
D03*
D25*
X-138100D02*
D03*
X131900D02*
D03*
D26*
X-145355Y55355D02*
D03*
X-74645Y-15355D02*
D03*
X-146062Y-16062D02*
D03*
X-74645Y55355D02*
D03*
X74645D02*
D03*
X145355Y-15355D02*
D03*
X73938Y-16062D02*
D03*
X145355Y55355D02*
D03*
X194645D02*
D03*
X265355Y-15355D02*
D03*
X193938Y-16062D02*
D03*
X265355Y55355D02*
D03*
D27*
X-110000Y20000D02*
D03*
X110000D02*
D03*
X230000D02*
D03*
D28*
X-230000Y10000D02*
D03*
D29*
X-186000Y65000D02*
D03*
Y46000D02*
D03*
D30*
X-51500Y-39000D02*
D03*
X-70500D02*
D03*
D31*
X-65645Y20000D02*
D03*
X-83645D02*
D03*
D32*
X-138500Y20000D02*
D03*
X-159500D02*
D03*
D33*
X-213000Y65000D02*
D03*
X-247000D02*
D03*
D34*
X230000Y-25000D02*
Y20000D01*
X212500Y-42500D02*
X230000Y-25000D01*
X187500Y-42500D02*
X212500D01*
X182700Y-47300D02*
X187500Y-42500D01*
X182700Y-61450D02*
Y-47300D01*
X131900Y-61450D02*
Y-46900D01*
X110000Y-25000D02*
X131900Y-46900D01*
X110000Y-25000D02*
Y20000D01*
M02*
