G04*
G04 #@! TF.GenerationSoftware,Altium Limited,Altium Designer,19.0.10 (269)*
G04*
G04 Layer_Physical_Order=1*
G04 Layer_Color=255*
%FSLAX44Y44*%
%MOMM*%
G71*
G01*
G75*
%ADD11C,0.2000*%
G04:AMPARAMS|DCode=22|XSize=6mm|YSize=6mm|CornerRadius=1.5mm|HoleSize=0mm|Usage=FLASHONLY|Rotation=0.000|XOffset=0mm|YOffset=0mm|HoleType=Round|Shape=RoundedRectangle|*
%AMROUNDEDRECTD22*
21,1,6.0000,3.0000,0,0,0.0*
21,1,3.0000,6.0000,0,0,0.0*
1,1,3.0000,1.5000,-1.5000*
1,1,3.0000,-1.5000,-1.5000*
1,1,3.0000,-1.5000,1.5000*
1,1,3.0000,1.5000,1.5000*
%
%ADD22ROUNDEDRECTD22*%
G04:AMPARAMS|DCode=23|XSize=11mm|YSize=3.5mm|CornerRadius=0.875mm|HoleSize=0mm|Usage=FLASHONLY|Rotation=180.000|XOffset=0mm|YOffset=0mm|HoleType=Round|Shape=RoundedRectangle|*
%AMROUNDEDRECTD23*
21,1,11.0000,1.7500,0,0,180.0*
21,1,9.2500,3.5000,0,0,180.0*
1,1,1.7500,-4.6250,0.8750*
1,1,1.7500,4.6250,0.8750*
1,1,1.7500,4.6250,-0.8750*
1,1,1.7500,-4.6250,-0.8750*
%
%ADD23ROUNDEDRECTD23*%
%ADD24C,1.5000*%
%ADD25R,1.5000X1.5000*%
%ADD26C,2.3000*%
%ADD27C,2.0000*%
%ADD28R,1.8000X1.0500*%
D11*
X-264450Y95750D02*
G03*
X-264450Y-95750I0J-95750D01*
G01*
X264450D02*
G03*
X264450Y95750I0J95750D01*
G01*
X-264450Y-95750D02*
X264450D01*
X-264450Y95750D02*
X264450D01*
D22*
X-322650Y0D02*
D03*
D23*
X-230000Y-61000D02*
D03*
D24*
X-112700Y-61450D02*
D03*
X-87300D02*
D03*
X-61900D02*
D03*
X208100D02*
D03*
X182700D02*
D03*
X157300D02*
D03*
D25*
X-138100D02*
D03*
X131900D02*
D03*
D26*
X-145355Y55355D02*
D03*
X-74645Y-15355D02*
D03*
X-146062Y-16062D02*
D03*
X-74645Y55355D02*
D03*
X74645D02*
D03*
X145355Y-15355D02*
D03*
X73938Y-16062D02*
D03*
X145355Y55355D02*
D03*
X194645D02*
D03*
X265355Y-15355D02*
D03*
X193938Y-16062D02*
D03*
X265355Y55355D02*
D03*
D27*
X-110000Y20000D02*
D03*
X110000D02*
D03*
X230000D02*
D03*
D28*
X-230000Y10000D02*
D03*
M02*
