G04*
G04 #@! TF.GenerationSoftware,Altium Limited,Altium Designer,19.0.10 (269)*
G04*
G04 Layer_Color=65535*
%FSLAX44Y44*%
%MOMM*%
G71*
G01*
G75*
%ADD10C,0.2540*%
%ADD11C,0.2000*%
D10*
X347650Y0D02*
G03*
X347650Y0I-25000J0D01*
G01*
X302650D02*
G03*
X322650Y-20000I20000J0D01*
G01*
X342650Y0D02*
G03*
X322650Y20000I-20000J0D01*
G01*
X342650Y0D02*
G03*
X322650Y20000I-20000J0D01*
G01*
X40000Y-2750D02*
G03*
X40000Y-2750I-40000J0D01*
G01*
X297650Y0D02*
X302650D01*
X322650Y20000D02*
Y25000D01*
X342650Y0D02*
X347650D01*
X322650Y-25000D02*
Y-20000D01*
X135000Y72000D02*
Y87235D01*
X142618D01*
X145157Y84696D01*
Y79618D01*
X142618Y77078D01*
X135000D01*
X150235Y87235D02*
Y72000D01*
Y79618D01*
X160392D01*
Y87235D01*
Y72000D01*
X173088Y87235D02*
X168009D01*
X165470Y84696D01*
Y74539D01*
X168009Y72000D01*
X173088D01*
X175627Y74539D01*
Y84696D01*
X173088Y87235D01*
X180705Y72000D02*
Y87235D01*
X190862Y72000D01*
Y87235D01*
X203558D02*
X198479D01*
X195940Y84696D01*
Y74539D01*
X198479Y72000D01*
X203558D01*
X206097Y74539D01*
Y84696D01*
X203558Y87235D01*
X-50000D02*
Y72000D01*
X-39843D01*
X-34765Y87235D02*
X-29687D01*
X-32226D01*
Y72000D01*
X-34765D01*
X-29687D01*
X-22069D02*
Y87235D01*
X-11912Y72000D01*
Y87235D01*
X3323D02*
X-6834D01*
Y72000D01*
X3323D01*
X-6834Y79618D02*
X-1756D01*
X31254Y87235D02*
X26175D01*
X23636Y84696D01*
Y74539D01*
X26175Y72000D01*
X31254D01*
X33793Y74539D01*
Y84696D01*
X31254Y87235D01*
X38871D02*
Y74539D01*
X41410Y72000D01*
X46489D01*
X49028Y74539D01*
Y87235D01*
X54106D02*
X64263D01*
X59185D01*
Y72000D01*
X-139843Y84696D02*
X-142382Y87235D01*
X-147461D01*
X-150000Y84696D01*
Y82157D01*
X-147461Y79618D01*
X-142382D01*
X-139843Y77078D01*
Y74539D01*
X-142382Y72000D01*
X-147461D01*
X-150000Y74539D01*
X-134765Y72000D02*
X-124608Y82157D01*
X-119530Y72000D02*
Y87235D01*
X-111912D01*
X-109373Y84696D01*
Y79618D01*
X-111912Y77078D01*
X-119530D01*
X-104295Y87235D02*
Y72000D01*
X-96677D01*
X-94138Y74539D01*
Y84696D01*
X-96677Y87235D01*
X-104295D01*
X-89060D02*
X-83981D01*
X-86521D01*
Y72000D01*
X-89060D01*
X-83981D01*
X-66207Y87235D02*
X-76364D01*
Y79618D01*
X-71286D01*
X-76364D01*
Y72000D01*
D11*
X-264450Y95750D02*
G03*
X-264450Y-95750I0J-95750D01*
G01*
X264450D02*
G03*
X264450Y95750I0J95750D01*
G01*
X-264450Y-95750D02*
X264450D01*
X-264450Y95750D02*
X264450D01*
M02*
