M48
;Layer_Color=9474304
;FILE_FORMAT=4:4
METRIC,LZ
;TYPE=PLATED
T1F00S00C1.0000
T2F00S00C1.2000
T3F00S00C1.7000
T5F00S00C3.5000
;TYPE=NON_PLATED
T7F00S00C3.5000
T8F00S00C4.6000
T9F00S00C6.0000
%
T01
X001319Y-0006145
X001573
X001827
X002081
X-000619
X-000873
X-001127
X-001381
T02
X0011Y0002
X0023
X-0011
T03
X00073938Y-00016062
X00074645Y00055355
X00145355
X00194645
X00265355
Y-00015355
X00193938Y-00016062
X00145355Y-00015355
X-00074645
Y00055355
X-00145355
X-00146062Y-00016062
T05
X-0032265Y0
T07
X0032265Y0
T08
X-0023Y0001
T09
X0Y-0000275
M30
