G04*
G04 #@! TF.GenerationSoftware,Altium Limited,Altium Designer,19.0.15 (446)*
G04*
G04 Layer_Color=65535*
%FSLAX44Y44*%
%MOMM*%
G71*
G01*
G75*
%ADD10C,0.0052*%
%ADD11C,0.0053*%
%ADD12C,0.0085*%
%ADD13C,0.0146*%
%ADD14C,0.2000*%
D10*
X-1294Y-31006D02*
X-468D01*
X-1501Y-31058D02*
X-261D01*
X-1656Y-31109D02*
X-106D01*
X-1760Y-31161D02*
X-3D01*
X-1863Y-31212D02*
X101D01*
X-1966Y-31264D02*
X204D01*
X-2070Y-31316D02*
X308D01*
X-2121Y-31368D02*
X359D01*
X-2173Y-31419D02*
X411D01*
X-2276Y-31471D02*
X514D01*
X-2328Y-31523D02*
X566D01*
X-2380Y-31574D02*
X618D01*
X-2431Y-31626D02*
X669D01*
X-2483Y-31678D02*
X721D01*
X-2535Y-31729D02*
X773D01*
X-2535Y-31781D02*
X773D01*
X-2587Y-31833D02*
X824D01*
X-2638Y-31884D02*
X876D01*
X-2690Y-31936D02*
X928D01*
X-2690Y-31988D02*
X928D01*
X-2742Y-32039D02*
X979D01*
X-2742Y-32091D02*
X979D01*
X-2793Y-32143D02*
X1031D01*
X-2793Y-32194D02*
X1031D01*
X-2845Y-32246D02*
X1083D01*
X-2845Y-32298D02*
X1083D01*
X-2897Y-32350D02*
X1134D01*
X-2897Y-32401D02*
X1134D01*
X-2897Y-32453D02*
X1134D01*
X-2948Y-32504D02*
X1186D01*
X-2948Y-32556D02*
X1186D01*
X-2948Y-32608D02*
X1186D01*
X-3000Y-32659D02*
X1238D01*
X-3000Y-32711D02*
X1238D01*
X-3000Y-32763D02*
X1238D01*
X-3000Y-32815D02*
X1238D01*
X-3000Y-32866D02*
X1238D01*
X-3000Y-32918D02*
X1238D01*
X-3000Y-32970D02*
X1238D01*
X-3000Y-33021D02*
X1238D01*
X-3000Y-33073D02*
X1238D01*
X-3000Y-33125D02*
X1238D01*
X-3000Y-33176D02*
X1238D01*
X-3000Y-33228D02*
X1238D01*
X-3000Y-33280D02*
X1238D01*
X-3000Y-33331D02*
X1238D01*
X-3000Y-33383D02*
X1238D01*
X-3000Y-33435D02*
X1238D01*
X-3000Y-33486D02*
X1238D01*
X-3000Y-33538D02*
X1238D01*
X-3000Y-33590D02*
X1238D01*
X-3000Y-33642D02*
X1238D01*
X-3000Y-33693D02*
X1238D01*
X-3000Y-33745D02*
X1238D01*
X-3000Y-33797D02*
X1238D01*
X-3000Y-33848D02*
X1238D01*
X-3000Y-33900D02*
X1238D01*
X-3000Y-33952D02*
X1238D01*
X-3000Y-34003D02*
X1238D01*
X-3000Y-34055D02*
X1238D01*
X-3000Y-34107D02*
X1238D01*
X-3000Y-34158D02*
X1238D01*
X-3000Y-34210D02*
X1238D01*
X-3000Y-34262D02*
X1238D01*
X-3000Y-34313D02*
X1238D01*
X-3000Y-34365D02*
X1238D01*
X-3000Y-34417D02*
X1238D01*
X-3000Y-34468D02*
X1238D01*
X-3000Y-34520D02*
X1238D01*
X-3000Y-34572D02*
X1238D01*
X-3000Y-34623D02*
X1238D01*
X-3000Y-34675D02*
X1238D01*
X-3000Y-34727D02*
X1238D01*
X-3000Y-34778D02*
X1238D01*
X-3000Y-34830D02*
X1238D01*
X-3000Y-34882D02*
X1238D01*
X-3000Y-34934D02*
X1238D01*
X-3000Y-34985D02*
X1238D01*
X-3000Y-35037D02*
X1238D01*
X-3000Y-35089D02*
X1238D01*
X-3000Y-35140D02*
X1238D01*
X-3000Y-35192D02*
X1238D01*
X-3000Y-35244D02*
X1238D01*
X-3000Y-35295D02*
X1238D01*
X-3000Y-35347D02*
X1238D01*
X-3000Y-35399D02*
X1238D01*
X-3000Y-35450D02*
X1238D01*
X-3000Y-35502D02*
X1238D01*
X-3000Y-35554D02*
X1238D01*
X-3000Y-35605D02*
X1238D01*
X-3000Y-35657D02*
X1238D01*
X-3000Y-35709D02*
X1238D01*
X-3000Y-35760D02*
X1238D01*
X-3000Y-35812D02*
X1238D01*
X-3000Y-35864D02*
X1238D01*
X-3000Y-35915D02*
X1238D01*
X-3000Y-35967D02*
X1238D01*
X-3000Y-36019D02*
X1238D01*
X-3000Y-36070D02*
X1238D01*
X-3000Y-36122D02*
X1238D01*
X-3000Y-36174D02*
X1238D01*
X-3000Y-36226D02*
X1238D01*
X-3000Y-36277D02*
X1238D01*
X-3000Y-36329D02*
X1238D01*
X-3000Y-36381D02*
X1238D01*
X-3000Y-36432D02*
X1238D01*
X-3000Y-36484D02*
X1238D01*
X-3000Y-36536D02*
X1238D01*
X-3000Y-36587D02*
X1238D01*
X-3000Y-36639D02*
X1238D01*
X-3000Y-36691D02*
X1238D01*
X-3000Y-36742D02*
X1238D01*
X-3000Y-36794D02*
X1238D01*
X-3000Y-36846D02*
X1238D01*
X-3000Y-36897D02*
X1238D01*
X-3000Y-36949D02*
X1238D01*
X-3000Y-37001D02*
X1238D01*
X-3000Y-37052D02*
X1238D01*
X-3000Y-37104D02*
X1238D01*
X-3000Y-37156D02*
X1238D01*
X-3000Y-37207D02*
X1238D01*
X-3000Y-37259D02*
X1238D01*
X-3000Y-37311D02*
X1238D01*
X-3000Y-37362D02*
X1238D01*
X-3000Y-37414D02*
X1238D01*
X-3000Y-37466D02*
X1238D01*
X-3000Y-37517D02*
X1238D01*
X-3000Y-37569D02*
X1238D01*
X-3000Y-37621D02*
X1238D01*
X-3000Y-37673D02*
X1238D01*
X-3000Y-37724D02*
X1238D01*
X-3000Y-37776D02*
X1238D01*
X-3000Y-37828D02*
X1238D01*
X-3000Y-37879D02*
X1238D01*
X-3000Y-37931D02*
X1238D01*
X-3000Y-37983D02*
X1238D01*
X-3000Y-38034D02*
X1238D01*
X-3000Y-38086D02*
X1238D01*
X-3000Y-38138D02*
X1238D01*
X-3000Y-38189D02*
X1238D01*
X-3000Y-38241D02*
X1238D01*
X-3000Y-38293D02*
X1238D01*
X-3000Y-38344D02*
X1238D01*
X-3000Y-38396D02*
X1238D01*
X-3000Y-38448D02*
X1238D01*
X-3000Y-38499D02*
X1238D01*
X-3000Y-38551D02*
X1238D01*
X-3000Y-38603D02*
X1238D01*
X-3000Y-38654D02*
X1238D01*
X-3000Y-38706D02*
X1238D01*
X-3000Y-38758D02*
X1238D01*
X-3000Y-38809D02*
X1238D01*
X-3000Y-38861D02*
X1238D01*
X-3000Y-38913D02*
X1238D01*
X-3000Y-38965D02*
X1238D01*
X-3000Y-39016D02*
X1238D01*
X-3000Y-39068D02*
X1238D01*
X-3000Y-39120D02*
X1238D01*
X-3000Y-39171D02*
X1238D01*
X-3000Y-39223D02*
X1238D01*
X-3000Y-39275D02*
X1238D01*
X-3000Y-39326D02*
X1238D01*
X-3000Y-39378D02*
X1238D01*
X-3000Y-39430D02*
X1238D01*
X-3000Y-39481D02*
X1238D01*
X-3000Y-39533D02*
X1238D01*
X-3000Y-39585D02*
X1238D01*
X-3000Y-39636D02*
X1238D01*
X-3000Y-39688D02*
X1238D01*
X-3000Y-39740D02*
X1238D01*
X-3000Y-39791D02*
X1238D01*
X-3000Y-39843D02*
X1238D01*
X-3000Y-39895D02*
X1238D01*
X-10287Y-39946D02*
X8525D01*
X-10442Y-39998D02*
X8680D01*
X-10597Y-40050D02*
X8835D01*
X-10700Y-40101D02*
X8938D01*
X-10804Y-40153D02*
X9042D01*
X-10907Y-40205D02*
X9145D01*
X-11010Y-40257D02*
X9248D01*
X-11062Y-40308D02*
X9300D01*
X-11114Y-40360D02*
X9352D01*
X-11217Y-40412D02*
X9455D01*
X-11269Y-40463D02*
X9507D01*
X-11321Y-40515D02*
X9558D01*
X-11372Y-40567D02*
X9610D01*
X-11424Y-40618D02*
X9662D01*
X-11476Y-40670D02*
X9713D01*
X-11476Y-40722D02*
X9713D01*
X-11527Y-40773D02*
X9765D01*
X-11579Y-40825D02*
X9817D01*
X-11631Y-40877D02*
X9868D01*
X-11631Y-40928D02*
X9868D01*
X-11682Y-40980D02*
X9920D01*
X-11682Y-41032D02*
X9920D01*
X-11734Y-41083D02*
X9972D01*
X-11734Y-41135D02*
X9972D01*
X-11786Y-41187D02*
X10023D01*
X-11786Y-41238D02*
X10023D01*
X-11837Y-41290D02*
X10075D01*
X-11837Y-41342D02*
X10075D01*
X-11837Y-41393D02*
X10075D01*
X-11889Y-41445D02*
X10127D01*
X-11889Y-41497D02*
X10127D01*
X-11889Y-41549D02*
X10127D01*
X-11889Y-41600D02*
X10127D01*
X-11941Y-41652D02*
X10179D01*
X-11941Y-41704D02*
X10179D01*
X-11941Y-41755D02*
X10179D01*
X-11941Y-41807D02*
X10179D01*
X-11941Y-41859D02*
X10179D01*
X-11941Y-41910D02*
X10179D01*
X-11941Y-41962D02*
X10179D01*
X-11941Y-42014D02*
X10179D01*
X-11941Y-42065D02*
X10179D01*
X-11941Y-42117D02*
X10179D01*
X-11941Y-42169D02*
X10179D01*
X-11941Y-42220D02*
X10179D01*
X-11941Y-42272D02*
X10179D01*
X-11941Y-42324D02*
X10179D01*
X-11941Y-42375D02*
X10179D01*
X-11941Y-42427D02*
X10179D01*
X-11889Y-42479D02*
X10127D01*
X-11889Y-42530D02*
X10127D01*
X-11889Y-42582D02*
X10127D01*
X-11889Y-42634D02*
X10127D01*
X-11837Y-42685D02*
X10075D01*
X-11837Y-42737D02*
X10075D01*
X-11837Y-42789D02*
X10075D01*
X-11786Y-42841D02*
X10023D01*
X-11786Y-42892D02*
X10023D01*
X-11734Y-42944D02*
X9972D01*
X-11734Y-42996D02*
X9972D01*
X-11682Y-43047D02*
X9920D01*
X-11682Y-43099D02*
X9920D01*
X-11631Y-43151D02*
X9868D01*
X-11631Y-43202D02*
X9868D01*
X-11579Y-43254D02*
X9817D01*
X-11527Y-43306D02*
X9765D01*
X-11476Y-43357D02*
X9713D01*
X-11476Y-43409D02*
X9713D01*
X-11424Y-43461D02*
X9662D01*
X-11372Y-43512D02*
X9610D01*
X-11321Y-43564D02*
X9558D01*
X-11269Y-43616D02*
X9507D01*
X-11217Y-43667D02*
X9455D01*
X-11114Y-43719D02*
X9352D01*
X-11062Y-43771D02*
X9300D01*
X-11010Y-43822D02*
X9248D01*
X-10907Y-43874D02*
X9145D01*
X-10804Y-43926D02*
X9042D01*
X-10700Y-43978D02*
X8938D01*
X-10597Y-44029D02*
X8835D01*
X-10442Y-44081D02*
X8680D01*
X-10287Y-44133D02*
X8525D01*
X-3000Y-44184D02*
X1238D01*
X-3000Y-44236D02*
X1238D01*
X-3000Y-44288D02*
X1238D01*
X-3000Y-44339D02*
X1238D01*
X-3000Y-44391D02*
X1238D01*
X-3000Y-44443D02*
X1238D01*
X-3000Y-44494D02*
X1238D01*
X-3000Y-44546D02*
X1238D01*
X-3000Y-44598D02*
X1238D01*
X-3000Y-44649D02*
X1238D01*
X-3000Y-44701D02*
X1238D01*
X-3000Y-44753D02*
X1238D01*
X-3000Y-44804D02*
X1238D01*
X-3000Y-44856D02*
X1238D01*
X-3000Y-44908D02*
X1238D01*
X-3000Y-44960D02*
X1238D01*
X-3000Y-45011D02*
X1238D01*
X-3000Y-45063D02*
X1238D01*
X-3000Y-45114D02*
X1238D01*
X-3000Y-45166D02*
X1238D01*
X-3000Y-45218D02*
X1238D01*
X-3000Y-45270D02*
X1238D01*
X-3000Y-45321D02*
X1238D01*
X-3000Y-45373D02*
X1238D01*
X-3000Y-45425D02*
X1238D01*
X-3000Y-45476D02*
X1238D01*
X-3000Y-45528D02*
X1238D01*
X-3000Y-45580D02*
X1238D01*
X-3000Y-45631D02*
X1238D01*
X-3000Y-45683D02*
X1238D01*
X-3000Y-45735D02*
X1238D01*
X-3000Y-45786D02*
X1238D01*
X-3000Y-45838D02*
X1238D01*
X-3000Y-45890D02*
X1238D01*
X-3000Y-45941D02*
X1238D01*
X-3000Y-45993D02*
X1238D01*
X-3000Y-46045D02*
X1238D01*
X-3000Y-46097D02*
X1238D01*
X-3000Y-46148D02*
X1238D01*
X-3000Y-46200D02*
X1238D01*
X-3000Y-46252D02*
X1238D01*
X-3000Y-46303D02*
X1238D01*
X-3000Y-46355D02*
X1238D01*
X-3000Y-46406D02*
X1238D01*
X-3000Y-46458D02*
X1238D01*
X-3000Y-46510D02*
X1238D01*
X-3000Y-46562D02*
X1238D01*
X-3000Y-46613D02*
X1238D01*
X-3000Y-46665D02*
X1238D01*
X-3000Y-46717D02*
X1238D01*
X-3000Y-46768D02*
X1238D01*
X-3000Y-46820D02*
X1238D01*
X-3000Y-46872D02*
X1238D01*
X-3000Y-46923D02*
X1238D01*
X-3000Y-46975D02*
X1238D01*
X-3000Y-47027D02*
X1238D01*
X-3000Y-47078D02*
X1238D01*
X-3000Y-47130D02*
X1238D01*
X-3000Y-47182D02*
X1238D01*
X-3000Y-47233D02*
X1238D01*
X-3000Y-47285D02*
X1238D01*
X-3000Y-47337D02*
X1238D01*
X-3000Y-47388D02*
X1238D01*
X-3000Y-47440D02*
X1238D01*
X-3000Y-47492D02*
X1238D01*
X-3000Y-47544D02*
X1238D01*
X-3000Y-47595D02*
X1238D01*
X-3000Y-47647D02*
X1238D01*
X-3000Y-47698D02*
X1238D01*
X-3000Y-47750D02*
X1238D01*
X-3000Y-47802D02*
X1238D01*
X-3000Y-47854D02*
X1238D01*
X-3000Y-47905D02*
X1238D01*
X-3000Y-47957D02*
X1238D01*
X-3000Y-48009D02*
X1238D01*
X-3000Y-48060D02*
X1238D01*
X-3000Y-48112D02*
X1238D01*
X-3000Y-48164D02*
X1238D01*
X-3000Y-48215D02*
X1238D01*
X-3000Y-48267D02*
X1238D01*
X-3000Y-48319D02*
X1238D01*
X-3000Y-48370D02*
X1238D01*
X-3000Y-48422D02*
X1238D01*
X-3000Y-48474D02*
X1238D01*
X-3000Y-48525D02*
X1238D01*
X-3000Y-48577D02*
X1238D01*
X-3000Y-48629D02*
X1238D01*
X-3000Y-48681D02*
X1238D01*
X-3000Y-48732D02*
X1238D01*
X-3000Y-48784D02*
X1238D01*
X-3000Y-48836D02*
X1238D01*
X-3000Y-48887D02*
X1238D01*
X-3000Y-48939D02*
X1238D01*
X-3000Y-48991D02*
X1238D01*
X-3000Y-49042D02*
X1238D01*
X-3000Y-49094D02*
X1238D01*
X-3000Y-49146D02*
X1238D01*
X-3000Y-49197D02*
X1238D01*
X-3000Y-49249D02*
X1238D01*
X-3000Y-49301D02*
X1238D01*
X-3000Y-49352D02*
X1238D01*
X-3000Y-49404D02*
X1238D01*
X-3000Y-49456D02*
X1238D01*
X-3000Y-49507D02*
X1238D01*
X-3000Y-49559D02*
X1238D01*
X-3000Y-49611D02*
X1238D01*
X-3000Y-49662D02*
X1238D01*
X-3000Y-49714D02*
X1238D01*
X-3000Y-49766D02*
X1238D01*
X-3000Y-49817D02*
X1238D01*
X-3000Y-49869D02*
X1238D01*
X-3000Y-49921D02*
X1238D01*
X-3000Y-49973D02*
X1238D01*
X-3000Y-50024D02*
X1238D01*
X-3000Y-50076D02*
X1238D01*
X-3000Y-50128D02*
X1238D01*
X-3000Y-50179D02*
X1238D01*
X-3000Y-50231D02*
X1238D01*
X-3000Y-50283D02*
X1238D01*
X-3000Y-50334D02*
X1238D01*
X-3000Y-50386D02*
X1238D01*
X-3000Y-50438D02*
X1238D01*
X-3000Y-50489D02*
X1238D01*
X-3000Y-50541D02*
X1238D01*
X-3000Y-50593D02*
X1238D01*
X-3000Y-50644D02*
X1238D01*
X-3000Y-50696D02*
X1238D01*
X-3000Y-50748D02*
X1238D01*
X-3000Y-50799D02*
X1238D01*
X-3000Y-50851D02*
X1238D01*
X-3000Y-50903D02*
X1238D01*
X-3000Y-50954D02*
X1238D01*
X-3000Y-51006D02*
X1238D01*
X-3000Y-51058D02*
X1238D01*
X-3000Y-51109D02*
X1238D01*
X-3000Y-51161D02*
X1238D01*
X-3000Y-51213D02*
X1238D01*
X-3000Y-51265D02*
X1238D01*
X-3000Y-51316D02*
X1238D01*
X-3000Y-51368D02*
X1238D01*
X-3000Y-51420D02*
X1238D01*
X-2948Y-51471D02*
X1186D01*
X-2948Y-51523D02*
X1186D01*
X-2948Y-51575D02*
X1186D01*
X-2897Y-51626D02*
X1134D01*
X-2897Y-51678D02*
X1134D01*
X-2897Y-51730D02*
X1134D01*
X-2845Y-51781D02*
X1083D01*
X-2845Y-51833D02*
X1083D01*
X-2793Y-51885D02*
X1031D01*
X-2793Y-51936D02*
X1031D01*
X-2742Y-51988D02*
X979D01*
X-2742Y-52040D02*
X979D01*
X-2690Y-52091D02*
X928D01*
X-2690Y-52143D02*
X928D01*
X-2638Y-52195D02*
X876D01*
X-2587Y-52246D02*
X824D01*
X-2535Y-52298D02*
X773D01*
X-2535Y-52350D02*
X773D01*
X-2483Y-52401D02*
X721D01*
X-2431Y-52453D02*
X669D01*
X-2380Y-52505D02*
X618D01*
X-2328Y-52557D02*
X566D01*
X-2276Y-52608D02*
X514D01*
X-2173Y-52660D02*
X411D01*
X-2121Y-52712D02*
X359D01*
X-2070Y-52763D02*
X308D01*
X-1966Y-52815D02*
X204D01*
X-1863Y-52867D02*
X101D01*
X-1760Y-52918D02*
X-3D01*
X-1656Y-52970D02*
X-106D01*
X-1501Y-53022D02*
X-261D01*
X-1294Y-53073D02*
X-468D01*
D11*
X-110000Y-40882D02*
X-90811D01*
X-110158Y-40934D02*
X-90653D01*
X-110316Y-40987D02*
X-90495D01*
X-110422Y-41040D02*
X-90390D01*
X-110527Y-41092D02*
X-90284D01*
X-110633Y-41145D02*
X-90179D01*
X-110738Y-41198D02*
X-90073D01*
X-110791Y-41251D02*
X-90021D01*
X-110843Y-41303D02*
X-89968D01*
X-110949Y-41356D02*
X-89862D01*
X-111002Y-41409D02*
X-89810D01*
X-111054Y-41461D02*
X-89757D01*
X-111107Y-41514D02*
X-89704D01*
X-111160Y-41567D02*
X-89652D01*
X-111213Y-41620D02*
X-89599D01*
X-111213Y-41672D02*
X-89599D01*
X-111265Y-41725D02*
X-89546D01*
X-111318Y-41778D02*
X-89494D01*
X-111371Y-41830D02*
X-89441D01*
X-111371Y-41883D02*
X-89441D01*
X-111423Y-41936D02*
X-89388D01*
X-111423Y-41989D02*
X-89388D01*
X-111476Y-42041D02*
X-89335D01*
X-111476Y-42094D02*
X-89335D01*
X-111529Y-42147D02*
X-89283D01*
X-111529Y-42199D02*
X-89283D01*
X-111581Y-42252D02*
X-89230D01*
X-111581Y-42305D02*
X-89230D01*
X-111581Y-42358D02*
X-89230D01*
X-111634Y-42410D02*
X-89177D01*
X-111634Y-42463D02*
X-89177D01*
X-111634Y-42516D02*
X-89177D01*
X-111634Y-42568D02*
X-89177D01*
X-111687Y-42621D02*
X-89124D01*
X-111687Y-42674D02*
X-89124D01*
X-111687Y-42726D02*
X-89124D01*
X-111687Y-42779D02*
X-89124D01*
X-111687Y-42832D02*
X-89124D01*
X-111687Y-42885D02*
X-89124D01*
X-111687Y-42937D02*
X-89124D01*
X-111687Y-42990D02*
X-89124D01*
X-111687Y-43043D02*
X-89124D01*
X-111687Y-43096D02*
X-89124D01*
X-111687Y-43148D02*
X-89124D01*
X-111687Y-43201D02*
X-89124D01*
X-111687Y-43254D02*
X-89124D01*
X-111687Y-43306D02*
X-89124D01*
X-111687Y-43359D02*
X-89124D01*
X-111687Y-43412D02*
X-89124D01*
X-111634Y-43465D02*
X-89177D01*
X-111634Y-43517D02*
X-89177D01*
X-111634Y-43570D02*
X-89177D01*
X-111634Y-43623D02*
X-89177D01*
X-111581Y-43675D02*
X-89230D01*
X-111581Y-43728D02*
X-89230D01*
X-111581Y-43781D02*
X-89230D01*
X-111529Y-43834D02*
X-89283D01*
X-111529Y-43886D02*
X-89283D01*
X-111476Y-43939D02*
X-89335D01*
X-111476Y-43992D02*
X-89335D01*
X-111423Y-44044D02*
X-89388D01*
X-111423Y-44097D02*
X-89388D01*
X-111371Y-44150D02*
X-89441D01*
X-111371Y-44203D02*
X-89441D01*
X-111318Y-44255D02*
X-89494D01*
X-111265Y-44308D02*
X-89546D01*
X-111213Y-44361D02*
X-89599D01*
X-111213Y-44413D02*
X-89599D01*
X-111160Y-44466D02*
X-89652D01*
X-111107Y-44519D02*
X-89704D01*
X-111054Y-44572D02*
X-89757D01*
X-111002Y-44624D02*
X-89810D01*
X-110949Y-44677D02*
X-89862D01*
X-110843Y-44730D02*
X-89968D01*
X-110791Y-44783D02*
X-90021D01*
X-110738Y-44835D02*
X-90073D01*
X-110633Y-44888D02*
X-90179D01*
X-110527Y-44941D02*
X-90284D01*
X-110422Y-44993D02*
X-90390D01*
X-110316Y-45046D02*
X-90495D01*
X-110158Y-45099D02*
X-90653D01*
X-110000Y-45152D02*
X-90811D01*
D12*
X-217171Y-30436D02*
X-217000D01*
X-217342Y-30521D02*
X-217000D01*
X-217427Y-30606D02*
X-217000D01*
X-217512Y-30692D02*
X-217000D01*
X-217683Y-30777D02*
X-217000D01*
X-217769Y-30863D02*
X-217000D01*
X-217854Y-30948D02*
X-217000D01*
X-217939Y-31033D02*
X-217000D01*
X-218110Y-31119D02*
X-217000D01*
X-218196Y-31204D02*
X-217000D01*
X-218281Y-31290D02*
X-217000D01*
X-218366Y-31375D02*
X-217000D01*
X-218537Y-31460D02*
X-217000D01*
X-218622Y-31546D02*
X-217000D01*
X-218708Y-31631D02*
X-217000D01*
X-218879Y-31716D02*
X-217000D01*
X-218964Y-31802D02*
X-217000D01*
X-219049Y-31887D02*
X-217000D01*
X-219135Y-31973D02*
X-217000D01*
X-219306Y-32058D02*
X-217000D01*
X-219391Y-32143D02*
X-217000D01*
X-219477Y-32229D02*
X-217000D01*
X-219562Y-32314D02*
X-217000D01*
X-219733Y-32400D02*
X-217000D01*
X-219818Y-32485D02*
X-217000D01*
X-219904Y-32571D02*
X-217000D01*
X-220074Y-32656D02*
X-217000D01*
X-220160Y-32741D02*
X-217000D01*
X-220245Y-32827D02*
X-217000D01*
X-220331Y-32912D02*
X-217000D01*
X-220501Y-32998D02*
X-217000D01*
X-220587Y-33083D02*
X-217000D01*
X-220672Y-33168D02*
X-217000D01*
X-220843Y-33254D02*
X-217000D01*
X-220928Y-33339D02*
X-217000D01*
X-221014Y-33424D02*
X-217000D01*
X-221099Y-33510D02*
X-217000D01*
X-221270Y-33595D02*
X-217000D01*
X-221355Y-33681D02*
X-217000D01*
X-221441Y-33766D02*
X-217000D01*
X-221526Y-33851D02*
X-217000D01*
X-221697Y-33937D02*
X-217000D01*
X-221782Y-34022D02*
X-217000D01*
X-221868Y-34108D02*
X-217000D01*
X-222038Y-34193D02*
X-217000D01*
X-222124Y-34278D02*
X-217000D01*
X-222209Y-34364D02*
X-217000D01*
X-222295Y-34449D02*
X-217000D01*
X-222465Y-34535D02*
X-217000D01*
X-222551Y-34620D02*
X-217000D01*
X-222636Y-34705D02*
X-217000D01*
X-222722Y-34791D02*
X-217000D01*
X-222892Y-34876D02*
X-217000D01*
X-222978Y-34962D02*
X-217000D01*
X-223063Y-35047D02*
X-217000D01*
X-223234Y-35132D02*
X-217000D01*
X-223319Y-35218D02*
X-217000D01*
X-223405Y-35303D02*
X-217000D01*
X-223490Y-35389D02*
X-217000D01*
X-223661Y-35474D02*
X-217000D01*
X-223746Y-35559D02*
X-217000D01*
X-223917Y-35645D02*
X-217000D01*
X-224003Y-35730D02*
X-217000D01*
X-224173Y-35816D02*
X-217000D01*
X-224344Y-35901D02*
X-217000D01*
X-224515Y-35986D02*
X-217000D01*
X-224686Y-36072D02*
X-217000D01*
X-224856Y-36157D02*
X-217000D01*
X-225113Y-36243D02*
X-217000D01*
X-225284Y-36328D02*
X-217000D01*
X-225625Y-36413D02*
X-217000D01*
X-225967Y-36499D02*
X-217000D01*
X-226394Y-36584D02*
X-217000D01*
X-230749Y-36670D02*
X-217000D01*
X-231176Y-36755D02*
X-217000D01*
X-231432Y-36840D02*
X-217000D01*
X-231603Y-36926D02*
X-217000D01*
X-231774Y-37011D02*
X-217000D01*
X-231859Y-37097D02*
X-217000D01*
X-231945Y-37182D02*
X-217000D01*
X-232030Y-37267D02*
X-217000D01*
X-232115Y-37353D02*
X-217000D01*
X-232201Y-37438D02*
X-217000D01*
X-232286Y-37524D02*
X-217000D01*
X-232286Y-37609D02*
X-217000D01*
X-232372Y-37694D02*
X-217000D01*
X-232457Y-37780D02*
X-217000D01*
X-232457Y-37865D02*
X-217000D01*
X-232542Y-37950D02*
X-217000D01*
X-232542Y-38036D02*
X-217000D01*
X-232542Y-38121D02*
X-217000D01*
X-232542Y-38207D02*
X-217000D01*
X-232628Y-38292D02*
X-217000D01*
X-232628Y-38377D02*
X-217000D01*
X-232628Y-38463D02*
X-217000D01*
X-232628Y-38548D02*
X-217000D01*
X-232628Y-38634D02*
X-217000D01*
X-232628Y-38719D02*
X-217000D01*
X-232628Y-38805D02*
X-217000D01*
X-232628Y-38890D02*
X-217000D01*
X-232628Y-38975D02*
X-217000D01*
X-232628Y-39061D02*
X-217000D01*
X-232628Y-39146D02*
X-217000D01*
X-232628Y-39232D02*
X-217000D01*
X-232628Y-39317D02*
X-217000D01*
X-232628Y-39402D02*
X-217000D01*
X-232628Y-39488D02*
X-217000D01*
X-232628Y-39573D02*
X-217000D01*
X-232628Y-39659D02*
X-217000D01*
X-232628Y-39744D02*
X-217000D01*
X-232628Y-39829D02*
X-217000D01*
X-232628Y-39915D02*
X-217000D01*
X-213242D02*
X-212474D01*
X-206240D02*
X-205471D01*
X-232628Y-40000D02*
X-217000D01*
X-213499D02*
X-212218D01*
X-206496D02*
X-205215D01*
X-232628Y-40086D02*
X-217000D01*
X-213584D02*
X-212132D01*
X-206581D02*
X-205130D01*
X-232628Y-40171D02*
X-217000D01*
X-213669D02*
X-212047D01*
X-206667D02*
X-205044D01*
X-232628Y-40256D02*
X-217000D01*
X-213755D02*
X-211962D01*
X-206752D02*
X-204959D01*
X-232628Y-40342D02*
X-217000D01*
X-213840D02*
X-211876D01*
X-206838D02*
X-204874D01*
X-232628Y-40427D02*
X-217000D01*
X-213926D02*
X-211791D01*
X-206923D02*
X-204788D01*
X-232628Y-40512D02*
X-217000D01*
X-213926D02*
X-211705D01*
X-207008D02*
X-204788D01*
X-232628Y-40598D02*
X-217000D01*
X-214011D02*
X-211620D01*
X-207094D02*
X-204703D01*
X-232628Y-40683D02*
X-217000D01*
X-214011D02*
X-211535D01*
X-207179D02*
X-204703D01*
X-232628Y-40769D02*
X-217000D01*
X-214011D02*
X-211449D01*
X-207265D02*
X-204703D01*
X-232628Y-40854D02*
X-217000D01*
X-214097D02*
X-211364D01*
X-207350D02*
X-204617D01*
X-232628Y-40939D02*
X-217000D01*
X-214097D02*
X-211278D01*
X-207435D02*
X-204617D01*
X-232628Y-41025D02*
X-217000D01*
X-214097D02*
X-211193D01*
X-207521D02*
X-204617D01*
X-232628Y-41110D02*
X-217000D01*
X-214097D02*
X-211108D01*
X-207606D02*
X-204617D01*
X-232628Y-41196D02*
X-217000D01*
X-214097D02*
X-211022D01*
X-207692D02*
X-204617D01*
X-232628Y-41281D02*
X-217000D01*
X-214097D02*
X-210937D01*
X-207777D02*
X-204617D01*
X-232628Y-41366D02*
X-217000D01*
X-214011D02*
X-210851D01*
X-207862D02*
X-204703D01*
X-232628Y-41452D02*
X-217000D01*
X-214011D02*
X-210766D01*
X-207948D02*
X-204703D01*
X-232628Y-41537D02*
X-217000D01*
X-214011D02*
X-210681D01*
X-208033D02*
X-204703D01*
X-232628Y-41623D02*
X-217000D01*
X-213926D02*
X-210595D01*
X-208119D02*
X-204788D01*
X-232628Y-41708D02*
X-217000D01*
X-213926D02*
X-210510D01*
X-208204D02*
X-204788D01*
X-232628Y-41793D02*
X-217000D01*
X-213840D02*
X-210424D01*
X-208289D02*
X-204874D01*
X-232628Y-41879D02*
X-217000D01*
X-213755D02*
X-210339D01*
X-208375D02*
X-204959D01*
X-232628Y-41964D02*
X-217000D01*
X-213669D02*
X-210254D01*
X-208460D02*
X-205044D01*
X-232628Y-42050D02*
X-217000D01*
X-213584D02*
X-210168D01*
X-208546D02*
X-205130D01*
X-232628Y-42135D02*
X-217000D01*
X-213499D02*
X-210083D01*
X-208631D02*
X-205215D01*
X-232628Y-42220D02*
X-217000D01*
X-213413D02*
X-209997D01*
X-208716D02*
X-205301D01*
X-232628Y-42306D02*
X-217000D01*
X-213328D02*
X-209912D01*
X-208802D02*
X-205386D01*
X-232628Y-42391D02*
X-217000D01*
X-213242D02*
X-209827D01*
X-208887D02*
X-205471D01*
X-232628Y-42477D02*
X-217000D01*
X-213157D02*
X-209741D01*
X-208973D02*
X-205557D01*
X-232628Y-42562D02*
X-217000D01*
X-213072D02*
X-209656D01*
X-209058D02*
X-205642D01*
X-232628Y-42647D02*
X-217000D01*
X-212986D02*
X-209570D01*
X-209143D02*
X-205728D01*
X-232628Y-42733D02*
X-217000D01*
X-212901D02*
X-209485D01*
X-209229D02*
X-205813D01*
X-232628Y-42818D02*
X-217000D01*
X-212815D02*
X-209400D01*
X-209314D02*
X-205898D01*
X-232628Y-42904D02*
X-217000D01*
X-212730D02*
X-205984D01*
X-232628Y-42989D02*
X-217000D01*
X-212645D02*
X-206069D01*
X-232628Y-43074D02*
X-217000D01*
X-212559D02*
X-206154D01*
X-232628Y-43160D02*
X-217000D01*
X-212474D02*
X-206240D01*
X-232628Y-43245D02*
X-217000D01*
X-212388D02*
X-206325D01*
X-232628Y-43331D02*
X-217000D01*
X-212303D02*
X-206411D01*
X-232628Y-43416D02*
X-217000D01*
X-212218D02*
X-206496D01*
X-232628Y-43501D02*
X-217000D01*
X-212132D02*
X-206581D01*
X-232628Y-43587D02*
X-217000D01*
X-212047D02*
X-206667D01*
X-232628Y-43672D02*
X-217000D01*
X-211962D02*
X-206752D01*
X-232628Y-43758D02*
X-217000D01*
X-211876D02*
X-206838D01*
X-232628Y-43843D02*
X-217000D01*
X-211791D02*
X-206923D01*
X-232628Y-43928D02*
X-217000D01*
X-211705D02*
X-207008D01*
X-232628Y-44014D02*
X-217000D01*
X-211620D02*
X-207094D01*
X-232628Y-44099D02*
X-217000D01*
X-211535D02*
X-207179D01*
X-232628Y-44184D02*
X-217000D01*
X-211449D02*
X-207265D01*
X-232628Y-44270D02*
X-217000D01*
X-211364D02*
X-207350D01*
X-232628Y-44355D02*
X-217000D01*
X-211278D02*
X-207435D01*
X-232628Y-44441D02*
X-217000D01*
X-211193D02*
X-207521D01*
X-232628Y-44526D02*
X-217000D01*
X-211108D02*
X-207606D01*
X-232628Y-44612D02*
X-217000D01*
X-211108D02*
X-207606D01*
X-232628Y-44697D02*
X-217000D01*
X-211193D02*
X-207521D01*
X-232628Y-44782D02*
X-217000D01*
X-211278D02*
X-207435D01*
X-232628Y-44868D02*
X-217000D01*
X-211364D02*
X-207350D01*
X-232628Y-44953D02*
X-217000D01*
X-211449D02*
X-207265D01*
X-232628Y-45038D02*
X-217000D01*
X-211535D02*
X-207179D01*
X-232628Y-45124D02*
X-217000D01*
X-211620D02*
X-207094D01*
X-232628Y-45209D02*
X-217000D01*
X-211705D02*
X-207008D01*
X-232628Y-45295D02*
X-217000D01*
X-211791D02*
X-206923D01*
X-232628Y-45380D02*
X-217000D01*
X-211876D02*
X-206838D01*
X-232628Y-45465D02*
X-217000D01*
X-211962D02*
X-206752D01*
X-232628Y-45551D02*
X-217000D01*
X-212047D02*
X-206667D01*
X-232628Y-45636D02*
X-217000D01*
X-212132D02*
X-206581D01*
X-232628Y-45722D02*
X-217000D01*
X-212218D02*
X-206496D01*
X-232628Y-45807D02*
X-217000D01*
X-212303D02*
X-206411D01*
X-232628Y-45893D02*
X-217000D01*
X-212388D02*
X-206325D01*
X-232628Y-45978D02*
X-217000D01*
X-212474D02*
X-206240D01*
X-232628Y-46063D02*
X-217000D01*
X-212559D02*
X-206154D01*
X-232628Y-46149D02*
X-217000D01*
X-212645D02*
X-206069D01*
X-232628Y-46234D02*
X-217000D01*
X-212730D02*
X-205984D01*
X-232628Y-46319D02*
X-217000D01*
X-212815D02*
X-209400D01*
X-209314D02*
X-205898D01*
X-232628Y-46405D02*
X-217000D01*
X-212901D02*
X-209485D01*
X-209229D02*
X-205813D01*
X-232628Y-46490D02*
X-217000D01*
X-212986D02*
X-209570D01*
X-209143D02*
X-205728D01*
X-232628Y-46576D02*
X-217000D01*
X-213072D02*
X-209656D01*
X-209058D02*
X-205642D01*
X-232628Y-46661D02*
X-217000D01*
X-213157D02*
X-209741D01*
X-208973D02*
X-205557D01*
X-232628Y-46747D02*
X-217000D01*
X-213242D02*
X-209827D01*
X-208887D02*
X-205471D01*
X-232628Y-46832D02*
X-217000D01*
X-213328D02*
X-209912D01*
X-208802D02*
X-205386D01*
X-232628Y-46917D02*
X-217000D01*
X-213413D02*
X-209997D01*
X-208716D02*
X-205301D01*
X-232628Y-47003D02*
X-217000D01*
X-213499D02*
X-210083D01*
X-208631D02*
X-205215D01*
X-232628Y-47088D02*
X-217000D01*
X-213584D02*
X-210168D01*
X-208546D02*
X-205130D01*
X-232628Y-47174D02*
X-217000D01*
X-213669D02*
X-210254D01*
X-208460D02*
X-205044D01*
X-232628Y-47259D02*
X-217000D01*
X-213755D02*
X-210339D01*
X-208375D02*
X-204959D01*
X-232628Y-47344D02*
X-217000D01*
X-213840D02*
X-210424D01*
X-208289D02*
X-204874D01*
X-232628Y-47430D02*
X-217000D01*
X-213926D02*
X-210510D01*
X-208204D02*
X-204788D01*
X-232628Y-47515D02*
X-217000D01*
X-213926D02*
X-210595D01*
X-208119D02*
X-204788D01*
X-232628Y-47600D02*
X-217000D01*
X-214011D02*
X-210681D01*
X-208033D02*
X-204703D01*
X-232628Y-47686D02*
X-217000D01*
X-214011D02*
X-210766D01*
X-207948D02*
X-204703D01*
X-232628Y-47771D02*
X-217000D01*
X-214011D02*
X-210851D01*
X-207862D02*
X-204703D01*
X-232628Y-47857D02*
X-217000D01*
X-214097D02*
X-210937D01*
X-207777D02*
X-204617D01*
X-232628Y-47942D02*
X-217000D01*
X-214097D02*
X-211022D01*
X-207692D02*
X-204617D01*
X-232628Y-48027D02*
X-217000D01*
X-214097D02*
X-211108D01*
X-207606D02*
X-204617D01*
X-232628Y-48113D02*
X-217000D01*
X-214097D02*
X-211193D01*
X-207521D02*
X-204617D01*
X-232628Y-48198D02*
X-217000D01*
X-214097D02*
X-211278D01*
X-207435D02*
X-204617D01*
X-232628Y-48284D02*
X-217000D01*
X-214097D02*
X-211364D01*
X-207350D02*
X-204617D01*
X-232628Y-48369D02*
X-217000D01*
X-214011D02*
X-211449D01*
X-207265D02*
X-204703D01*
X-232628Y-48454D02*
X-217000D01*
X-214011D02*
X-211535D01*
X-207179D02*
X-204703D01*
X-232628Y-48540D02*
X-217000D01*
X-214011D02*
X-211620D01*
X-207094D02*
X-204703D01*
X-232628Y-48625D02*
X-217000D01*
X-213926D02*
X-211705D01*
X-207008D02*
X-204788D01*
X-232628Y-48711D02*
X-217000D01*
X-213926D02*
X-211791D01*
X-206923D02*
X-204788D01*
X-232628Y-48796D02*
X-217000D01*
X-213840D02*
X-211876D01*
X-206838D02*
X-204874D01*
X-232628Y-48881D02*
X-217000D01*
X-213755D02*
X-211962D01*
X-206752D02*
X-204959D01*
X-232628Y-48967D02*
X-217000D01*
X-213669D02*
X-212047D01*
X-206667D02*
X-205044D01*
X-232628Y-49052D02*
X-217000D01*
X-213584D02*
X-212132D01*
X-206581D02*
X-205130D01*
X-232628Y-49138D02*
X-217000D01*
X-213499D02*
X-212303D01*
X-206496D02*
X-205215D01*
X-232628Y-49223D02*
X-217000D01*
X-213242D02*
X-212474D01*
X-206240D02*
X-205471D01*
X-232628Y-49308D02*
X-217000D01*
X-232628Y-49394D02*
X-217000D01*
X-232628Y-49479D02*
X-217000D01*
X-232628Y-49565D02*
X-217000D01*
X-232628Y-49650D02*
X-217000D01*
X-232628Y-49735D02*
X-217000D01*
X-232628Y-49821D02*
X-217000D01*
X-232628Y-49906D02*
X-217000D01*
X-232628Y-49992D02*
X-217000D01*
X-232628Y-50077D02*
X-217000D01*
X-232628Y-50162D02*
X-217000D01*
X-232628Y-50248D02*
X-217000D01*
X-232628Y-50333D02*
X-217000D01*
X-232628Y-50419D02*
X-217000D01*
X-232628Y-50504D02*
X-217000D01*
X-232628Y-50589D02*
X-217000D01*
X-232628Y-50675D02*
X-217000D01*
X-232628Y-50760D02*
X-217000D01*
X-232628Y-50845D02*
X-217000D01*
X-232542Y-50931D02*
X-217000D01*
X-232542Y-51016D02*
X-217000D01*
X-232542Y-51102D02*
X-217000D01*
X-232542Y-51187D02*
X-217000D01*
X-232457Y-51273D02*
X-217000D01*
X-232457Y-51358D02*
X-217000D01*
X-232372Y-51443D02*
X-217000D01*
X-232286Y-51529D02*
X-217000D01*
X-232286Y-51614D02*
X-217000D01*
X-232201Y-51700D02*
X-217000D01*
X-232115Y-51785D02*
X-217000D01*
X-232030Y-51870D02*
X-217000D01*
X-231945Y-51956D02*
X-217000D01*
X-231859Y-52041D02*
X-217000D01*
X-231774Y-52126D02*
X-217000D01*
X-231603Y-52212D02*
X-217000D01*
X-231432Y-52297D02*
X-217000D01*
X-231176Y-52383D02*
X-217000D01*
X-230749Y-52468D02*
X-217000D01*
X-225625Y-52554D02*
X-217000D01*
X-225369Y-52639D02*
X-217000D01*
X-225027Y-52724D02*
X-217000D01*
X-224771Y-52810D02*
X-217000D01*
X-224600Y-52895D02*
X-217000D01*
X-224430Y-52980D02*
X-217000D01*
X-224259Y-53066D02*
X-217000D01*
X-224088Y-53151D02*
X-217000D01*
X-224003Y-53237D02*
X-217000D01*
X-223832Y-53322D02*
X-217000D01*
X-223746Y-53408D02*
X-217000D01*
X-223576Y-53493D02*
X-217000D01*
X-223490Y-53578D02*
X-217000D01*
X-223405Y-53664D02*
X-217000D01*
X-223319Y-53749D02*
X-217000D01*
X-223149Y-53835D02*
X-217000D01*
X-223063Y-53920D02*
X-217000D01*
X-222978Y-54005D02*
X-217000D01*
X-222892Y-54091D02*
X-217000D01*
X-222807Y-54176D02*
X-217000D01*
X-222636Y-54261D02*
X-217000D01*
X-222551Y-54347D02*
X-217000D01*
X-222465Y-54432D02*
X-217000D01*
X-222380Y-54518D02*
X-217000D01*
X-222209Y-54603D02*
X-217000D01*
X-222124Y-54688D02*
X-217000D01*
X-222038Y-54774D02*
X-217000D01*
X-221953Y-54859D02*
X-217000D01*
X-221782Y-54945D02*
X-217000D01*
X-221697Y-55030D02*
X-217000D01*
X-221611Y-55115D02*
X-217000D01*
X-221526Y-55201D02*
X-217000D01*
X-221441Y-55286D02*
X-217000D01*
X-221270Y-55372D02*
X-217000D01*
X-221185Y-55457D02*
X-217000D01*
X-221099Y-55542D02*
X-217000D01*
X-221014Y-55628D02*
X-217000D01*
X-220843Y-55713D02*
X-217000D01*
X-220758Y-55799D02*
X-217000D01*
X-220672Y-55884D02*
X-217000D01*
X-220587Y-55969D02*
X-217000D01*
X-220416Y-56055D02*
X-217000D01*
X-220331Y-56140D02*
X-217000D01*
X-220245Y-56226D02*
X-217000D01*
X-220160Y-56311D02*
X-217000D01*
X-220074Y-56396D02*
X-217000D01*
X-219904Y-56482D02*
X-217000D01*
X-219818Y-56567D02*
X-217000D01*
X-219733Y-56653D02*
X-217000D01*
X-219647Y-56738D02*
X-217000D01*
X-219477Y-56823D02*
X-217000D01*
X-219391Y-56909D02*
X-217000D01*
X-219306Y-56994D02*
X-217000D01*
X-219220Y-57080D02*
X-217000D01*
X-219135Y-57165D02*
X-217000D01*
X-218964Y-57250D02*
X-217000D01*
X-218879Y-57336D02*
X-217000D01*
X-218793Y-57421D02*
X-217000D01*
X-218708Y-57506D02*
X-217000D01*
X-218537Y-57592D02*
X-217000D01*
X-218452Y-57677D02*
X-217000D01*
X-218366Y-57763D02*
X-217000D01*
X-218281Y-57848D02*
X-217000D01*
X-218110Y-57934D02*
X-217000D01*
X-218025Y-58019D02*
X-217000D01*
X-217939Y-58104D02*
X-217000D01*
X-217854Y-58190D02*
X-217000D01*
X-217769Y-58275D02*
X-217000D01*
X-217598Y-58361D02*
X-217000D01*
X-217512Y-58446D02*
X-217000D01*
X-217427Y-58531D02*
X-217000D01*
X-217342Y-58617D02*
X-217000D01*
X-217171Y-58702D02*
X-217000D01*
D13*
X127788Y-34797D02*
X131575D01*
X125895Y-34652D02*
X133322D01*
X124875Y-34506D02*
X134487D01*
X123856Y-34361D02*
X135507D01*
X123128Y-34215D02*
X136235D01*
X122400Y-34069D02*
X136963D01*
X121671Y-33924D02*
X137692D01*
X121089Y-33778D02*
X138128D01*
X120506Y-33632D02*
X138711D01*
X120069Y-33487D02*
X139293D01*
X119632Y-33341D02*
X139731D01*
X132449Y-33196D02*
X140167D01*
X119050D02*
X127060D01*
X133905Y-33050D02*
X140604D01*
X118613D02*
X125604D01*
X134924Y-32904D02*
X141041D01*
X118322D02*
X124438D01*
X135798Y-32759D02*
X141478D01*
X117885D02*
X123710D01*
X136526Y-32613D02*
X141915D01*
X117448D02*
X122836D01*
X137109Y-32467D02*
X142206D01*
X117011D02*
X122108D01*
X137837Y-32322D02*
X142643D01*
X116720D02*
X121526D01*
X138420Y-32176D02*
X142935D01*
X116428D02*
X121089D01*
X138857Y-32030D02*
X143226D01*
X115991D02*
X120506D01*
X139439Y-31885D02*
X143663D01*
X115700D02*
X119924D01*
X139876Y-31739D02*
X143954D01*
X115409D02*
X119487D01*
X140313Y-31593D02*
X144245D01*
X115118D02*
X119050D01*
X140750Y-31448D02*
X144537D01*
X114826D02*
X118613D01*
X141041Y-31302D02*
X144828D01*
X114389D02*
X118322D01*
X141478Y-31156D02*
X145119D01*
X114098D02*
X117885D01*
X141915Y-31011D02*
X145410D01*
X113807D02*
X117448D01*
X142206Y-30865D02*
X145702D01*
X113661D02*
X117157D01*
X142643Y-30719D02*
X145993D01*
X113370D02*
X116720D01*
X142935Y-30574D02*
X146284D01*
X113079D02*
X116428D01*
X143226Y-30428D02*
X146430D01*
X112787D02*
X116137D01*
X143517Y-30283D02*
X146721D01*
X112496D02*
X115846D01*
X143808Y-30137D02*
X147012D01*
X112205D02*
X115555D01*
X144245Y-29991D02*
X147304D01*
X112059D02*
X115263D01*
X144537Y-29846D02*
X147595D01*
X111768D02*
X114826D01*
X144682Y-29700D02*
X147741D01*
X111622D02*
X114535D01*
X144973Y-29555D02*
X148032D01*
X111331D02*
X114244D01*
X145265Y-29409D02*
X148177D01*
X111040D02*
X114098D01*
X145556Y-29263D02*
X148469D01*
X110894D02*
X113807D01*
X145847Y-29118D02*
X148614D01*
X110603D02*
X113516D01*
X146138Y-28972D02*
X148906D01*
X110457D02*
X113224D01*
X146284Y-28826D02*
X149051D01*
X110166D02*
X113079D01*
X146575Y-28681D02*
X149343D01*
X110020D02*
X112787D01*
X146867Y-28535D02*
X149488D01*
X109875D02*
X112496D01*
X147012Y-28389D02*
X149780D01*
X109583D02*
X112205D01*
X147304Y-28244D02*
X149925D01*
X109438D02*
X112059D01*
X147595Y-28098D02*
X150071D01*
X109146D02*
X111768D01*
X147741Y-27952D02*
X150362D01*
X109001D02*
X111622D01*
X148032Y-27807D02*
X150508D01*
X108855D02*
X111331D01*
X148177Y-27661D02*
X150653D01*
X108564D02*
X111185D01*
X148323Y-27516D02*
X150799D01*
X108418D02*
X111040D01*
X148614Y-27370D02*
X151090D01*
X108273D02*
X110749D01*
X148760Y-27224D02*
X151236D01*
X108127D02*
X110603D01*
X149051Y-27079D02*
X151382D01*
X107836D02*
X110312D01*
X149197Y-26933D02*
X151673D01*
X107690D02*
X110166D01*
X149488Y-26787D02*
X151819D01*
X107544D02*
X109875D01*
X149634Y-26642D02*
X151964D01*
X107399D02*
X109729D01*
X149780Y-26496D02*
X152110D01*
X107253D02*
X109583D01*
X149925Y-26350D02*
X152255D01*
X106962D02*
X109438D01*
X150216Y-26205D02*
X152401D01*
X106816D02*
X109146D01*
X150362Y-26059D02*
X152692D01*
X106671D02*
X109001D01*
X150508Y-25914D02*
X152838D01*
X106525D02*
X108855D01*
X150653Y-25768D02*
X152984D01*
X106379D02*
X108709D01*
X150945Y-25622D02*
X153129D01*
X106234D02*
X108418D01*
X151090Y-25477D02*
X153275D01*
X106088D02*
X108273D01*
X151236Y-25331D02*
X153420D01*
X105942D02*
X108127D01*
X151382Y-25185D02*
X153566D01*
X105797D02*
X107981D01*
X151527Y-25040D02*
X153712D01*
X105651D02*
X107836D01*
X156770Y-24894D02*
X167547D01*
X151673D02*
X153857D01*
X105505D02*
X107690D01*
X91961D02*
X102593D01*
X156916Y-24748D02*
X168421D01*
X151819D02*
X154003D01*
X105360D02*
X107399D01*
X91087D02*
X102447D01*
X156916Y-24603D02*
X168858D01*
X152110D02*
X154149D01*
X105214D02*
X107253D01*
X90650D02*
X102301D01*
X157061Y-24457D02*
X169149D01*
X152255D02*
X154294D01*
X105069D02*
X107107D01*
X90359D02*
X102156D01*
X157207Y-24311D02*
X169441D01*
X152401D02*
X154440D01*
X104923D02*
X106962D01*
X90068D02*
X102156D01*
X157353Y-24166D02*
X169586D01*
X152547D02*
X154586D01*
X104777D02*
X106816D01*
X89776D02*
X102010D01*
X157498Y-24020D02*
X169878D01*
X152692D02*
X154731D01*
X104632D02*
X106671D01*
X89631D02*
X101865D01*
X157644Y-23875D02*
X170023D01*
X152838D02*
X154877D01*
X104486D02*
X106525D01*
X89485D02*
X101719D01*
X157790Y-23729D02*
X170169D01*
X152984D02*
X155022D01*
X134342D02*
X137400D01*
X104340D02*
X106379D01*
X89340D02*
X101573D01*
X157790Y-23583D02*
X170315D01*
X153129D02*
X155168D01*
X133468D02*
X138420D01*
X104195D02*
X106234D01*
X89194D02*
X101428D01*
X157935Y-23438D02*
X170315D01*
X153275D02*
X155314D01*
X132740D02*
X139002D01*
X104049D02*
X106088D01*
X89048D02*
X101428D01*
X158081Y-23292D02*
X170460D01*
X153420D02*
X155459D01*
X132303D02*
X139585D01*
X103903D02*
X105942D01*
X89048D02*
X101282D01*
X158227Y-23146D02*
X170606D01*
X153566D02*
X155459D01*
X131866D02*
X140022D01*
X103758D02*
X105797D01*
X88903D02*
X101136D01*
X158227Y-23001D02*
X170751D01*
X153712D02*
X155605D01*
X131429D02*
X140313D01*
X103612D02*
X105651D01*
X88757D02*
X100991D01*
X158372Y-22855D02*
X170751D01*
X153857D02*
X155751D01*
X136526D02*
X140604D01*
X131138D02*
X136235D01*
X106525D02*
X107253D01*
X103612D02*
X105505D01*
X88611D02*
X100991D01*
X158518Y-22709D02*
X170897D01*
X154003D02*
X155896D01*
X137983D02*
X140896D01*
X130992D02*
X134051D01*
X103467D02*
X108855D01*
X88611D02*
X100845D01*
X158664Y-22564D02*
X171043D01*
X154149D02*
X156042D01*
X138565D02*
X141187D01*
X130701D02*
X133177D01*
X103321D02*
X109729D01*
X88466D02*
X100699D01*
X158664Y-22418D02*
X171188D01*
X154149D02*
X156188D01*
X139148D02*
X141478D01*
X130410D02*
X132740D01*
X103175D02*
X110166D01*
X88320D02*
X100554D01*
X158809Y-22273D02*
X171188D01*
X154294D02*
X156333D01*
X139585D02*
X141624D01*
X130118D02*
X132303D01*
X119341D02*
X121963D01*
X103030D02*
X110603D01*
X88174D02*
X100554D01*
X158955Y-22127D02*
X171334D01*
X154440D02*
X156333D01*
X139876D02*
X141915D01*
X129973D02*
X131866D01*
X118613D02*
X122691D01*
X102884D02*
X110894D01*
X88029D02*
X100408D01*
X159100Y-21981D02*
X171480D01*
X154586D02*
X156479D01*
X140313D02*
X142061D01*
X129827D02*
X131575D01*
X118176D02*
X123128D01*
X102884D02*
X111185D01*
X88029D02*
X100262D01*
X159100Y-21836D02*
X171625D01*
X154731D02*
X156625D01*
X140604D02*
X142352D01*
X129536D02*
X131284D01*
X117739D02*
X123565D01*
X108418D02*
X111477D01*
X102738D02*
X105942D01*
X87883D02*
X100117D01*
X159246Y-21690D02*
X171771D01*
X154877D02*
X156770D01*
X140896D02*
X142498D01*
X129390D02*
X130992D01*
X117302D02*
X123856D01*
X109146D02*
X111768D01*
X102593D02*
X104777D01*
X87738D02*
X100117D01*
X159392Y-21544D02*
X171917D01*
X155022D02*
X156916D01*
X141041D02*
X142643D01*
X129244D02*
X130701D01*
X116865D02*
X124293D01*
X109875D02*
X111914D01*
X102447D02*
X104340D01*
X87592D02*
X99971D01*
X159537Y-21399D02*
X172062D01*
X155022D02*
X156916D01*
X141333D02*
X142935D01*
X129099D02*
X130555D01*
X121380D02*
X124584D01*
X116574D02*
X119778D01*
X110312D02*
X112205D01*
X102301D02*
X104195D01*
X87301D02*
X99826D01*
X159537Y-21253D02*
X172353D01*
X155168D02*
X157061D01*
X141478D02*
X143080D01*
X128953D02*
X130410D01*
X122254D02*
X124875D01*
X116283D02*
X119050D01*
X110603D02*
X112350D01*
X102301D02*
X104195D01*
X87155D02*
X99680D01*
X159683Y-21107D02*
X172645D01*
X155314D02*
X157207D01*
X150071D02*
X151527D01*
X141769D02*
X143226D01*
X128808D02*
X130118D01*
X122836D02*
X125021D01*
X115991D02*
X118467D01*
X110894D02*
X112496D01*
X102156D02*
X104049D01*
X86864D02*
X99680D01*
X159829Y-20962D02*
X172936D01*
X155459D02*
X157353D01*
X148906D02*
X152838D01*
X141915D02*
X143371D01*
X128662D02*
X129973D01*
X123273D02*
X125312D01*
X115700D02*
X118030D01*
X111185D02*
X112642D01*
X102010D02*
X103903D01*
X86573D02*
X99534D01*
X159829Y-20816D02*
X173227D01*
X155605D02*
X157353D01*
X148323D02*
X153566D01*
X142061D02*
X143517D01*
X128516D02*
X129827D01*
X123565D02*
X125604D01*
X115409D02*
X117593D01*
X111331D02*
X112787D01*
X101865D02*
X103758D01*
X86281D02*
X99534D01*
X159974Y-20671D02*
X173664D01*
X155751D02*
X157498D01*
X147741D02*
X154003D01*
X142352D02*
X143663D01*
X128371D02*
X129682D01*
X123856D02*
X125749D01*
X115118D02*
X117302D01*
X111622D02*
X112933D01*
X101865D02*
X103612D01*
X85699D02*
X99389D01*
X160120Y-20525D02*
X174393D01*
X155751D02*
X157644D01*
X147304D02*
X154586D01*
X142498D02*
X143808D01*
X128371D02*
X129536D01*
X124147D02*
X126040D01*
X114972D02*
X116865D01*
X111768D02*
X113079D01*
X101719D02*
X103612D01*
X85116D02*
X99243D01*
X160120Y-20379D02*
X175557D01*
X155896D02*
X157790D01*
X146867D02*
X155168D01*
X142643D02*
X143954D01*
X128225D02*
X129390D01*
X124438D02*
X126332D01*
X114681D02*
X116574D01*
X111914D02*
X113224D01*
X101573D02*
X103467D01*
X83951D02*
X99243D01*
X160266Y-20234D02*
X178179D01*
X156042D02*
X157935D01*
X146430D02*
X155459D01*
X142789D02*
X144100D01*
X128079D02*
X129244D01*
X124730D02*
X126623D01*
X114389D02*
X116283D01*
X112059D02*
X113370D01*
X101573D02*
X103321D01*
X81329D02*
X99097D01*
X160266Y-20088D02*
X179053D01*
X156188D02*
X157935D01*
X152255D02*
X155896D01*
X146138D02*
X149634D01*
X142935D02*
X144245D01*
X128079D02*
X129099D01*
X125021D02*
X126769D01*
X114244D02*
X115991D01*
X112205D02*
X113370D01*
X101428D02*
X103175D01*
X80456D02*
X98952D01*
X160411Y-19942D02*
X179490D01*
X153129D02*
X158081D01*
X145847D02*
X148760D01*
X143080D02*
X144391D01*
X127934D02*
X129099D01*
X125167D02*
X126914D01*
X113953D02*
X115846D01*
X112350D02*
X113516D01*
X101282D02*
X103175D01*
X80019D02*
X98952D01*
X160557Y-19797D02*
X179781D01*
X153712D02*
X158227D01*
X145556D02*
X148032D01*
X143226D02*
X144537D01*
X127788D02*
X128953D01*
X125458D02*
X127206D01*
X113807D02*
X115555D01*
X112496D02*
X113661D01*
X101136D02*
X103030D01*
X79582D02*
X98806D01*
X160557Y-19651D02*
X180072D01*
X154294D02*
X158227D01*
X145265D02*
X147595D01*
X143371D02*
X144682D01*
X127788D02*
X128808D01*
X125749D02*
X127351D01*
X112642D02*
X115263D01*
X101136D02*
X102884D01*
X79436D02*
X98660D01*
X160702Y-19505D02*
X180364D01*
X154731D02*
X158372D01*
X143517D02*
X147158D01*
X126040D02*
X128808D01*
X112787D02*
X114972D01*
X100991D02*
X102738D01*
X79145D02*
X98660D01*
X160848Y-19360D02*
X180509D01*
X155168D02*
X158518D01*
X143663D02*
X146867D01*
X126186D02*
X128662D01*
X112787D02*
X114826D01*
X100845D02*
X102738D01*
X78999D02*
X98515D01*
X160848Y-19214D02*
X180655D01*
X155605D02*
X158518D01*
X143808D02*
X146430D01*
X126332D02*
X128662D01*
X112933D02*
X114535D01*
X100845D02*
X102593D01*
X78854D02*
X98515D01*
X160994Y-19068D02*
X180801D01*
X155896D02*
X158664D01*
X143954D02*
X146138D01*
X126623D02*
X128516D01*
X112642D02*
X114389D01*
X100699D02*
X102447D01*
X78708D02*
X98369D01*
X161139Y-18923D02*
X180946D01*
X156333D02*
X158809D01*
X143954D02*
X145847D01*
X126769D02*
X128516D01*
X112496D02*
X114244D01*
X100554D02*
X102301D01*
X78562D02*
X98224D01*
X161139Y-18777D02*
X181092D01*
X156625D02*
X158809D01*
X143663D02*
X145702D01*
X127060D02*
X128662D01*
X112205D02*
X114244D01*
X100554D02*
X102301D01*
X78417D02*
X98224D01*
X161285Y-18632D02*
X181092D01*
X156916D02*
X158955D01*
X143517D02*
X145847D01*
X127206D02*
X128953D01*
X112059D02*
X114244D01*
X100408D02*
X102156D01*
X78417D02*
X98078D01*
X161285Y-18486D02*
X181237D01*
X157207D02*
X158955D01*
X143226D02*
X145993D01*
X127206D02*
X129099D01*
X111914D02*
X114389D01*
X100262D02*
X102156D01*
X78271D02*
X98078D01*
X161431Y-18340D02*
X181237D01*
X157353D02*
X159100D01*
X142935D02*
X146138D01*
X127206D02*
X129390D01*
X113370D02*
X114389D01*
X111622D02*
X113224D01*
X100262D02*
X102010D01*
X78271D02*
X97932D01*
X161431Y-18195D02*
X181237D01*
X157498D02*
X159246D01*
X144973D02*
X146284D01*
X142643D02*
X144537D01*
X127060D02*
X129536D01*
X113516D02*
X114535D01*
X111477D02*
X113079D01*
X100117D02*
X101865D01*
X78125D02*
X97932D01*
X161576Y-18049D02*
X181383D01*
X157498D02*
X159246D01*
X145119D02*
X146430D01*
X142352D02*
X144245D01*
X127060D02*
X129827D01*
X113516D02*
X114535D01*
X111185D02*
X112787D01*
X100117D02*
X101865D01*
X78125D02*
X97787D01*
X161576Y-17903D02*
X181383D01*
X157644D02*
X159392D01*
X145265D02*
X146721D01*
X142061D02*
X144100D01*
X128371D02*
X129973D01*
X126914D02*
X127934D01*
X113661D02*
X114681D01*
X111040D02*
X112642D01*
X99971D02*
X101719D01*
X77980D02*
X97641D01*
X161722Y-17758D02*
X181529D01*
X157790D02*
X159392D01*
X145410D02*
X146867D01*
X141769D02*
X143808D01*
X128516D02*
X130264D01*
X126914D02*
X127934D01*
X113661D02*
X114681D01*
X110749D02*
X112496D01*
X99826D02*
X102010D01*
X77980D02*
X97641D01*
X161722Y-17612D02*
X181529D01*
X157790D02*
X159537D01*
X145556D02*
X147158D01*
X141478D02*
X143517D01*
X128808D02*
X130555D01*
X126914D02*
X127788D01*
X113661D02*
X114681D01*
X110457D02*
X112205D01*
X99826D02*
X102301D01*
X77834D02*
X97495D01*
X161868Y-17466D02*
X181674D01*
X157935D02*
X159683D01*
X145702D02*
X147304D01*
X141187D02*
X143371D01*
X128953D02*
X130847D01*
X126769D02*
X127788D01*
X113807D02*
X114826D01*
X110312D02*
X112059D01*
X99680D02*
X102593D01*
X77834D02*
X97495D01*
X161868Y-17321D02*
X181674D01*
X157790D02*
X159683D01*
X145847D02*
X147595D01*
X140896D02*
X143080D01*
X129244D02*
X131138D01*
X126769D02*
X127788D01*
X113807D02*
X114826D01*
X110020D02*
X111768D01*
X99680D02*
X102884D01*
X77688D02*
X97350D01*
X162013Y-17175D02*
X181820D01*
X157353D02*
X159829D01*
X146138D02*
X147741D01*
X140459D02*
X142789D01*
X129390D02*
X131575D01*
X126623D02*
X127642D01*
X113953D02*
X114972D01*
X109729D02*
X111622D01*
X99534D02*
X103321D01*
X77688D02*
X97350D01*
X162013Y-17030D02*
X181820D01*
X157061D02*
X159829D01*
X146284D02*
X148032D01*
X140022D02*
X142498D01*
X129682D02*
X131866D01*
X126623D02*
X127642D01*
X113953D02*
X114972D01*
X109438D02*
X111331D01*
X101428D02*
X103612D01*
X99534D02*
X101136D01*
X77688D02*
X97204D01*
X162159Y-16884D02*
X181966D01*
X156625D02*
X159974D01*
X146575D02*
X148323D01*
X139439D02*
X142061D01*
X129973D02*
X132303D01*
X126477D02*
X127497D01*
X114098D02*
X115118D01*
X108855D02*
X111040D01*
X101719D02*
X104049D01*
X99389D02*
X101136D01*
X77543D02*
X97204D01*
X162304Y-16738D02*
X181966D01*
X156188D02*
X159974D01*
X146721D02*
X148760D01*
X139002D02*
X141769D01*
X130264D02*
X132740D01*
X126477D02*
X127497D01*
X114098D02*
X115118D01*
X108418D02*
X110894D01*
X102010D02*
X104632D01*
X99243D02*
X100991D01*
X77397D02*
X97058D01*
X162304Y-16593D02*
X182111D01*
X155605D02*
X160120D01*
X146867D02*
X149051D01*
X138420D02*
X141478D01*
X130555D02*
X133322D01*
X126477D02*
X127497D01*
X114098D02*
X115118D01*
X107836D02*
X110603D01*
X102156D02*
X105214D01*
X99243D02*
X100845D01*
X77397D02*
X97058D01*
X162450Y-16447D02*
X182257D01*
X158518D02*
X160120D01*
X155022D02*
X158081D01*
X147158D02*
X149488D01*
X137692D02*
X141187D01*
X130847D02*
X134196D01*
X126332D02*
X127351D01*
X114244D02*
X115263D01*
X102593D02*
X110312D01*
X99097D02*
X100845D01*
X77252D02*
X96913D01*
X162450Y-16301D02*
X182403D01*
X158518D02*
X160266D01*
X154440D02*
X157790D01*
X147449D02*
X150071D01*
X131138D02*
X140750D01*
X126332D02*
X127351D01*
X114244D02*
X115263D01*
X102884D02*
X110020D01*
X99097D02*
X100699D01*
X77106D02*
X96913D01*
X162596Y-16156D02*
X182548D01*
X158664D02*
X160411D01*
X153566D02*
X157353D01*
X147741D02*
X150799D01*
X131575D02*
X140313D01*
X126186D02*
X127206D01*
X114389D02*
X115409D01*
X103321D02*
X109729D01*
X98952D02*
X100699D01*
X76960D02*
X96767D01*
X162596Y-16010D02*
X182839D01*
X158809D02*
X160411D01*
X148032D02*
X156916D01*
X132012D02*
X139876D01*
X126186D02*
X127206D01*
X114389D02*
X115409D01*
X103758D02*
X109292D01*
X98952D02*
X100554D01*
X76669D02*
X96767D01*
X162741Y-15864D02*
X182985D01*
X158809D02*
X160557D01*
X148323D02*
X156479D01*
X132449D02*
X139439D01*
X126040D02*
X127060D01*
X114535D02*
X115555D01*
X104195D02*
X108855D01*
X98806D02*
X100554D01*
X76523D02*
X96622D01*
X162741Y-15719D02*
X183276D01*
X158955D02*
X160557D01*
X148760D02*
X156042D01*
X132886D02*
X138857D01*
X126040D02*
X127060D01*
X114535D02*
X115700D01*
X104777D02*
X108418D01*
X98806D02*
X100408D01*
X76087D02*
X96622D01*
X162741Y-15573D02*
X183713D01*
X158955D02*
X160702D01*
X149197D02*
X155459D01*
X133614D02*
X138274D01*
X125895D02*
X126914D01*
X114681D02*
X115700D01*
X105505D02*
X107399D01*
X98660D02*
X100408D01*
X75650D02*
X96476D01*
X162887Y-15428D02*
X184442D01*
X159100D02*
X160702D01*
X149634D02*
X154877D01*
X134633D02*
X137255D01*
X125895D02*
X126914D01*
X114681D02*
X115846D01*
X98660D02*
X100262D01*
X74921D02*
X96476D01*
X162887Y-15282D02*
X186480D01*
X159100D02*
X160848D01*
X150362D02*
X154149D01*
X125749D02*
X126769D01*
X114826D02*
X115846D01*
X98515D02*
X100262D01*
X72882D02*
X96476D01*
X163033Y-15136D02*
X187645D01*
X159246D02*
X160848D01*
X151382D02*
X152984D01*
X125749D02*
X126769D01*
X114826D02*
X115991D01*
X98515D02*
X100117D01*
X71717D02*
X96330D01*
X163033Y-14991D02*
X188228D01*
X159246D02*
X160994D01*
X125604D02*
X126623D01*
X114972D02*
X115991D01*
X98369D02*
X100117D01*
X71280D02*
X96330D01*
X163178Y-14845D02*
X188665D01*
X159392D02*
X160994D01*
X125604D02*
X126623D01*
X114972D02*
X116137D01*
X98369D02*
X99971D01*
X70844D02*
X96185D01*
X163178Y-14699D02*
X188811D01*
X159392D02*
X160994D01*
X125458D02*
X126477D01*
X115118D02*
X116137D01*
X98224D02*
X99971D01*
X70552D02*
X96185D01*
X163178Y-14554D02*
X189102D01*
X159537D02*
X161139D01*
X125312D02*
X126477D01*
X115263D02*
X116283D01*
X98224D02*
X99826D01*
X70407D02*
X96039D01*
X163324Y-14408D02*
X189247D01*
X159537D02*
X161139D01*
X125312D02*
X126332D01*
X115263D02*
X116428D01*
X98224D02*
X99826D01*
X70261D02*
X96039D01*
X163324Y-14262D02*
X189393D01*
X159683D02*
X161285D01*
X125167D02*
X126332D01*
X115409D02*
X116428D01*
X98078D02*
X99680D01*
X70115D02*
X96039D01*
X163470Y-14117D02*
X189539D01*
X159683D02*
X161285D01*
X125021D02*
X126186D01*
X115409D02*
X116574D01*
X98078D02*
X99680D01*
X69970D02*
X95893D01*
X163470Y-13971D02*
X189685D01*
X159829D02*
X161431D01*
X125021D02*
X126040D01*
X115555D02*
X116720D01*
X97932D02*
X99534D01*
X69824D02*
X95893D01*
X163470Y-13826D02*
X189685D01*
X159829D02*
X161431D01*
X124875D02*
X126040D01*
X115700D02*
X116720D01*
X97932D02*
X99534D01*
X69678D02*
X95748D01*
X163615Y-13680D02*
X189830D01*
X159829D02*
X161431D01*
X124730D02*
X125895D01*
X115700D02*
X116865D01*
X97787D02*
X99534D01*
X69678D02*
X95748D01*
X163615Y-13534D02*
X189976D01*
X159974D02*
X161576D01*
X124730D02*
X125749D01*
X115846D02*
X117011D01*
X97787D02*
X99389D01*
X69533D02*
X95748D01*
X163761Y-13389D02*
X189976D01*
X159974D02*
X161576D01*
X124584D02*
X125749D01*
X115991D02*
X117157D01*
X97787D02*
X99389D01*
X69533D02*
X95602D01*
X163761Y-13243D02*
X190121D01*
X160120D02*
X161722D01*
X124438D02*
X125604D01*
X115991D02*
X117157D01*
X97641D02*
X99243D01*
X69387D02*
X95602D01*
X163761Y-13097D02*
X190121D01*
X160120D02*
X161722D01*
X124293D02*
X125458D01*
X116137D02*
X117302D01*
X97641D02*
X99243D01*
X69387D02*
X95456D01*
X163906Y-12952D02*
X190121D01*
X160120D02*
X161868D01*
X124147D02*
X125458D01*
X116283D02*
X117448D01*
X97495D02*
X99097D01*
X69241D02*
X95456D01*
X163906Y-12806D02*
X190267D01*
X160266D02*
X161868D01*
X124147D02*
X125312D01*
X116428D02*
X117593D01*
X97495D02*
X99097D01*
X69241D02*
X95456D01*
X163906Y-12660D02*
X190267D01*
X160266D02*
X161868D01*
X124002D02*
X125167D01*
X116574D02*
X117739D01*
X97350D02*
X99097D01*
X69241D02*
X95311D01*
X164052Y-12515D02*
X190413D01*
X160411D02*
X162013D01*
X123856D02*
X125021D01*
X116574D02*
X117885D01*
X97350D02*
X98952D01*
X69096D02*
X95311D01*
X164052Y-12369D02*
X190413D01*
X160411D02*
X162013D01*
X123710D02*
X124875D01*
X116720D02*
X118030D01*
X97350D02*
X98952D01*
X69096D02*
X95311D01*
X164052Y-12224D02*
X190413D01*
X160557D02*
X162013D01*
X123565D02*
X124875D01*
X116865D02*
X118176D01*
X97204D02*
X98806D01*
X68950D02*
X95165D01*
X164198Y-12078D02*
X190558D01*
X160557D02*
X162159D01*
X123419D02*
X124730D01*
X117011D02*
X118322D01*
X97204D02*
X98806D01*
X68950D02*
X95165D01*
X164198Y-11932D02*
X190558D01*
X160557D02*
X162159D01*
X123128D02*
X124584D01*
X117157D02*
X118467D01*
X97204D02*
X98806D01*
X68805D02*
X95165D01*
X164198Y-11787D02*
X190704D01*
X160702D02*
X162304D01*
X122982D02*
X124438D01*
X117302D02*
X118759D01*
X97058D02*
X98660D01*
X68805D02*
X95020D01*
X164343Y-11641D02*
X190704D01*
X160702D02*
X162304D01*
X122691D02*
X124293D01*
X117448D02*
X118904D01*
X97058D02*
X98660D01*
X68805D02*
X95020D01*
X164343Y-11495D02*
X190849D01*
X160702D02*
X162304D01*
X122545D02*
X124147D01*
X117593D02*
X119195D01*
X97058D02*
X98660D01*
X68659D02*
X95020D01*
X164343Y-11350D02*
X190849D01*
X160848D02*
X162450D01*
X122254D02*
X124002D01*
X117739D02*
X119487D01*
X96913D02*
X98515D01*
X68513D02*
X94874D01*
X164489Y-11204D02*
X190995D01*
X160848D02*
X162450D01*
X121817D02*
X123710D01*
X117885D02*
X119924D01*
X96913D02*
X98515D01*
X68513D02*
X94874D01*
X164489Y-11058D02*
X191141D01*
X160848D02*
X162450D01*
X121234D02*
X123565D01*
X118176D02*
X120652D01*
X96913D02*
X98515D01*
X68368D02*
X94874D01*
X164489Y-10913D02*
X191287D01*
X160994D02*
X162596D01*
X118322D02*
X123273D01*
X96767D02*
X98369D01*
X68222D02*
X94728D01*
X164635Y-10767D02*
X191287D01*
X160994D02*
X162596D01*
X118613D02*
X123128D01*
X96767D02*
X98369D01*
X68076D02*
X94728D01*
X164635Y-10622D02*
X191432D01*
X160994D02*
X162596D01*
X118904D02*
X122836D01*
X96767D02*
X98369D01*
X67931D02*
X94728D01*
X164635Y-10476D02*
X191723D01*
X161139D02*
X162741D01*
X119050D02*
X122545D01*
X96622D02*
X98224D01*
X67785D02*
X94728D01*
X164780Y-10330D02*
X191869D01*
X161139D02*
X162741D01*
X119487D02*
X122254D01*
X96622D02*
X98224D01*
X67639D02*
X94583D01*
X164780Y-10185D02*
X192015D01*
X161139D02*
X162741D01*
X119924D02*
X121817D01*
X96622D02*
X98224D01*
X67494D02*
X94583D01*
X164780Y-10039D02*
X192306D01*
X161285D02*
X162741D01*
X96476D02*
X98078D01*
X67203D02*
X94583D01*
X164780Y-9893D02*
X192597D01*
X161285D02*
X162887D01*
X96476D02*
X98078D01*
X66911D02*
X94437D01*
X164926Y-9748D02*
X192889D01*
X161285D02*
X162887D01*
X96476D02*
X98078D01*
X66474D02*
X94437D01*
X164926Y-9602D02*
X193471D01*
X161431D02*
X162887D01*
X96476D02*
X97932D01*
X66038D02*
X94437D01*
X164926Y-9456D02*
X194054D01*
X161431D02*
X163033D01*
X96330D02*
X97932D01*
X65455D02*
X94437D01*
X164926Y-9311D02*
X194927D01*
X161431D02*
X163033D01*
X96330D02*
X97932D01*
X64581D02*
X94291D01*
X165072Y-9165D02*
X197695D01*
X161431D02*
X163033D01*
X96330D02*
X97787D01*
X61814D02*
X94291D01*
X165072Y-9019D02*
X199151D01*
X161576D02*
X163033D01*
X96330D02*
X97787D01*
X60358D02*
X94291D01*
X165072Y-8874D02*
X200025D01*
X161576D02*
X163178D01*
X128808D02*
X130555D01*
X96185D02*
X97787D01*
X59484D02*
X94291D01*
X165072Y-8728D02*
X200462D01*
X161576D02*
X163178D01*
X127934D02*
X131429D01*
X96185D02*
X97787D01*
X59047D02*
X94291D01*
X165217Y-8583D02*
X200899D01*
X161722D02*
X163178D01*
X127351D02*
X132012D01*
X96185D02*
X97641D01*
X58610D02*
X94146D01*
X165217Y-8437D02*
X201336D01*
X161722D02*
X163178D01*
X126914D02*
X132449D01*
X96185D02*
X97641D01*
X58173D02*
X94146D01*
X165217Y-8291D02*
X201627D01*
X161722D02*
X163324D01*
X126477D02*
X132886D01*
X96039D02*
X97641D01*
X57882D02*
X94146D01*
X165217Y-8146D02*
X201918D01*
X161722D02*
X163324D01*
X126186D02*
X133177D01*
X96039D02*
X97641D01*
X57445D02*
X94146D01*
X165217Y-8000D02*
X202355D01*
X161868D02*
X163324D01*
X125895D02*
X133468D01*
X96039D02*
X97495D01*
X57154D02*
X94000D01*
X165363Y-7854D02*
X202501D01*
X161868D02*
X163324D01*
X125604D02*
X133759D01*
X96039D02*
X97495D01*
X57008D02*
X94000D01*
X165363Y-7709D02*
X202792D01*
X161868D02*
X163470D01*
X125312D02*
X134051D01*
X95893D02*
X97495D01*
X56717D02*
X94000D01*
X165363Y-7563D02*
X202938D01*
X161868D02*
X163470D01*
X125021D02*
X134342D01*
X95893D02*
X97495D01*
X56425D02*
X94000D01*
X165363Y-7417D02*
X203229D01*
X161868D02*
X163470D01*
X124875D02*
X134487D01*
X95893D02*
X97350D01*
X56280D02*
X93854D01*
X165508Y-7272D02*
X203375D01*
X162013D02*
X163470D01*
X124584D02*
X134779D01*
X95893D02*
X97350D01*
X56134D02*
X93854D01*
X165508Y-7126D02*
X203520D01*
X162013D02*
X163470D01*
X124438D02*
X134924D01*
X95748D02*
X97350D01*
X55988D02*
X93854D01*
X165508Y-6981D02*
X203666D01*
X162013D02*
X163615D01*
X124293D02*
X135070D01*
X95748D02*
X97350D01*
X55697D02*
X93854D01*
X165508Y-6835D02*
X203957D01*
X162013D02*
X163615D01*
X124002D02*
X135216D01*
X95748D02*
X97350D01*
X55552D02*
X93854D01*
X165508Y-6689D02*
X204103D01*
X162013D02*
X163615D01*
X123856D02*
X135361D01*
X95748D02*
X97204D01*
X55406D02*
X93854D01*
X165508Y-6544D02*
X204103D01*
X162159D02*
X163615D01*
X123710D02*
X135653D01*
X95748D02*
X97204D01*
X55260D02*
X93709D01*
X165654Y-6398D02*
X204248D01*
X162159D02*
X163615D01*
X123565D02*
X135798D01*
X95748D02*
X97204D01*
X55115D02*
X93709D01*
X165654Y-6252D02*
X204394D01*
X162159D02*
X163761D01*
X123419D02*
X135944D01*
X95602D02*
X97204D01*
X54969D02*
X93709D01*
X165654Y-6107D02*
X204540D01*
X162159D02*
X163761D01*
X123273D02*
X136090D01*
X95602D02*
X97204D01*
X54969D02*
X93709D01*
X165654Y-5961D02*
X204685D01*
X162159D02*
X163761D01*
X123128D02*
X136090D01*
X95602D02*
X97204D01*
X54823D02*
X93709D01*
X165654Y-5815D02*
X204831D01*
X162304D02*
X163761D01*
X122982D02*
X136235D01*
X95602D02*
X97058D01*
X54678D02*
X93709D01*
X165654Y-5670D02*
X204831D01*
X162304D02*
X163761D01*
X122982D02*
X136381D01*
X95602D02*
X97058D01*
X54532D02*
X93709D01*
X165654Y-5524D02*
X204977D01*
X162304D02*
X163761D01*
X122836D02*
X136526D01*
X95602D02*
X97058D01*
X54532D02*
X93563D01*
X165800Y-5379D02*
X205122D01*
X162304D02*
X163906D01*
X122691D02*
X136672D01*
X95456D02*
X97058D01*
X54386D02*
X93563D01*
X165800Y-5233D02*
X205122D01*
X162304D02*
X163906D01*
X122545D02*
X136672D01*
X95456D02*
X97058D01*
X54386D02*
X93563D01*
X165800Y-5087D02*
X205268D01*
X162304D02*
X163906D01*
X122545D02*
X136818D01*
X95456D02*
X97058D01*
X54241D02*
X93563D01*
X165800Y-4942D02*
X205268D01*
X162450D02*
X163906D01*
X122400D02*
X136963D01*
X95456D02*
X96913D01*
X54095D02*
X93563D01*
X165800Y-4796D02*
X205413D01*
X162450D02*
X163906D01*
X122254D02*
X136963D01*
X95456D02*
X96913D01*
X54095D02*
X93563D01*
X165800Y-4650D02*
X205413D01*
X162450D02*
X163906D01*
X122254D02*
X137109D01*
X95456D02*
X96913D01*
X53949D02*
X93563D01*
X165800Y-4505D02*
X205559D01*
X162450D02*
X163906D01*
X122108D02*
X137255D01*
X95456D02*
X96913D01*
X53949D02*
X93417D01*
X165945Y-4359D02*
X205559D01*
X162450D02*
X163906D01*
X122108D02*
X137255D01*
X95311D02*
X96913D01*
X53949D02*
X93417D01*
X165945Y-4213D02*
X205705D01*
X162450D02*
X164052D01*
X121963D02*
X137400D01*
X95311D02*
X96913D01*
X53804D02*
X93417D01*
X165945Y-4068D02*
X205705D01*
X162450D02*
X164052D01*
X121963D02*
X137400D01*
X95311D02*
X96913D01*
X53804D02*
X93417D01*
X165945Y-3922D02*
X205705D01*
X162450D02*
X164052D01*
X121817D02*
X137546D01*
X95311D02*
X96913D01*
X53658D02*
X93417D01*
X165945Y-3776D02*
X205850D01*
X162450D02*
X164052D01*
X121817D02*
X137546D01*
X95311D02*
X96767D01*
X53658D02*
X93417D01*
X165945Y-3631D02*
X205850D01*
X162596D02*
X164052D01*
X121671D02*
X137692D01*
X95311D02*
X96767D01*
X53658D02*
X93417D01*
X165945Y-3485D02*
X205850D01*
X162596D02*
X164052D01*
X121671D02*
X137692D01*
X95311D02*
X96767D01*
X53658D02*
X93417D01*
X165945Y-3340D02*
X205996D01*
X162596D02*
X164052D01*
X121671D02*
X137692D01*
X95311D02*
X96767D01*
X53513D02*
X93417D01*
X165945Y-3194D02*
X205996D01*
X162596D02*
X164052D01*
X121526D02*
X137837D01*
X95311D02*
X96767D01*
X53513D02*
X93417D01*
X165945Y-3048D02*
X205996D01*
X162596D02*
X164052D01*
X121526D02*
X137837D01*
X95311D02*
X96767D01*
X53513D02*
X93417D01*
X165945Y-2903D02*
X205996D01*
X162596D02*
X164052D01*
X121380D02*
X137837D01*
X95311D02*
X96767D01*
X53367D02*
X93272D01*
X165945Y-2757D02*
X206142D01*
X162596D02*
X164198D01*
X121380D02*
X137983D01*
X95165D02*
X96767D01*
X53367D02*
X93272D01*
X166091Y-2611D02*
X206142D01*
X162596D02*
X164198D01*
X130118D02*
X137983D01*
X121380D02*
X129244D01*
X95165D02*
X96767D01*
X53367D02*
X93272D01*
X166091Y-2466D02*
X206142D01*
X162596D02*
X164198D01*
X130701D02*
X137983D01*
X121380D02*
X128662D01*
X95165D02*
X96767D01*
X53367D02*
X93272D01*
X166091Y-2320D02*
X206142D01*
X162596D02*
X164198D01*
X130847D02*
X137983D01*
X121234D02*
X128371D01*
X95165D02*
X96767D01*
X53367D02*
X93272D01*
X166091Y-2174D02*
X206142D01*
X162596D02*
X164198D01*
X131138D02*
X138128D01*
X121234D02*
X128225D01*
X95165D02*
X96622D01*
X53367D02*
X93272D01*
X166091Y-2029D02*
X206142D01*
X162596D02*
X164198D01*
X131284D02*
X138128D01*
X121234D02*
X128079D01*
X95165D02*
X96622D01*
X53221D02*
X93272D01*
X166091Y-1883D02*
X206142D01*
X162596D02*
X164198D01*
X131429D02*
X138128D01*
X121234D02*
X127934D01*
X95165D02*
X96622D01*
X53221D02*
X93272D01*
X166091Y-1738D02*
X206142D01*
X162741D02*
X164198D01*
X131575D02*
X138128D01*
X121234D02*
X127788D01*
X95165D02*
X96622D01*
X53221D02*
X93272D01*
X166091Y-1592D02*
X172936D01*
X162741D02*
X164198D01*
X131720D02*
X138128D01*
X121089D02*
X127642D01*
X95165D02*
X96622D01*
X86427D02*
X93272D01*
X166091Y-1446D02*
X172936D01*
X162741D02*
X164198D01*
X131720D02*
X138274D01*
X121089D02*
X127642D01*
X95165D02*
X96622D01*
X86427D02*
X93272D01*
X166091Y-1301D02*
X172936D01*
X162741D02*
X164198D01*
X131866D02*
X138274D01*
X121089D02*
X127497D01*
X95165D02*
X96622D01*
X86427D02*
X93272D01*
X166091Y-1155D02*
X172936D01*
X162741D02*
X164198D01*
X131866D02*
X138274D01*
X121089D02*
X127497D01*
X95165D02*
X96622D01*
X86427D02*
X93272D01*
X166091Y-1009D02*
X172936D01*
X162741D02*
X164198D01*
X131866D02*
X138274D01*
X121089D02*
X127351D01*
X95165D02*
X96622D01*
X86427D02*
X93272D01*
X166091Y-864D02*
X172936D01*
X162741D02*
X164198D01*
X132012D02*
X138274D01*
X121089D02*
X127351D01*
X95165D02*
X96622D01*
X86427D02*
X93272D01*
X166091Y-718D02*
X172936D01*
X162741D02*
X164198D01*
X132012D02*
X138274D01*
X121089D02*
X127351D01*
X95165D02*
X96622D01*
X86427D02*
X93272D01*
X166091Y-573D02*
X172936D01*
X162741D02*
X164198D01*
X132012D02*
X138274D01*
X121089D02*
X127351D01*
X95165D02*
X96622D01*
X86427D02*
X93272D01*
X166091Y-427D02*
X172936D01*
X162741D02*
X164198D01*
X132012D02*
X138274D01*
X121089D02*
X127351D01*
X95165D02*
X96622D01*
X86427D02*
X93272D01*
X166091Y-281D02*
X172936D01*
X162741D02*
X164198D01*
X132012D02*
X138274D01*
X121089D02*
X127351D01*
X95165D02*
X96622D01*
X86427D02*
X93272D01*
X166091Y-136D02*
X172936D01*
X162741D02*
X164198D01*
X132012D02*
X138274D01*
X121089D02*
X127351D01*
X95165D02*
X96622D01*
X86427D02*
X93272D01*
X166091Y10D02*
X172936D01*
X162741D02*
X164198D01*
X132012D02*
X138274D01*
X121089D02*
X127351D01*
X95165D02*
X96622D01*
X86427D02*
X93272D01*
X166091Y156D02*
X172936D01*
X162741D02*
X164198D01*
X132012D02*
X138274D01*
X121089D02*
X127351D01*
X95165D02*
X96622D01*
X86427D02*
X93272D01*
X166091Y301D02*
X172936D01*
X162741D02*
X164198D01*
X132012D02*
X138274D01*
X121089D02*
X127351D01*
X95165D02*
X96622D01*
X86427D02*
X93272D01*
X166091Y447D02*
X172936D01*
X162741D02*
X164198D01*
X132012D02*
X138274D01*
X121089D02*
X127351D01*
X95165D02*
X96622D01*
X86427D02*
X93272D01*
X166091Y593D02*
X172936D01*
X162741D02*
X164198D01*
X131866D02*
X138274D01*
X121089D02*
X127497D01*
X95165D02*
X96622D01*
X86427D02*
X93272D01*
X166091Y738D02*
X172936D01*
X162741D02*
X164198D01*
X131866D02*
X138274D01*
X121089D02*
X127497D01*
X95165D02*
X96622D01*
X86427D02*
X93272D01*
X166091Y884D02*
X172936D01*
X162741D02*
X164198D01*
X131720D02*
X138274D01*
X121089D02*
X127642D01*
X95165D02*
X96622D01*
X86427D02*
X93272D01*
X166091Y1030D02*
X172936D01*
X162741D02*
X164198D01*
X131720D02*
X138128D01*
X121089D02*
X127642D01*
X95165D02*
X96622D01*
X86427D02*
X93272D01*
X166091Y1175D02*
X172936D01*
X162741D02*
X164198D01*
X131575D02*
X138128D01*
X121234D02*
X127788D01*
X95165D02*
X96622D01*
X86427D02*
X93272D01*
X166091Y1321D02*
X172936D01*
X162741D02*
X164198D01*
X131429D02*
X138128D01*
X121234D02*
X127934D01*
X95165D02*
X96622D01*
X86427D02*
X93272D01*
X166091Y1467D02*
X172936D01*
X162596D02*
X164198D01*
X131284D02*
X138128D01*
X121234D02*
X128079D01*
X95165D02*
X96622D01*
X90359D02*
X93272D01*
X86427D02*
X89485D01*
X166091Y1612D02*
X172936D01*
X162596D02*
X164198D01*
X131138D02*
X138128D01*
X121234D02*
X128225D01*
X95165D02*
X96767D01*
X90505D02*
X93272D01*
X86427D02*
X89194D01*
X170023Y1758D02*
X172936D01*
X166091D02*
X169149D01*
X162596D02*
X164198D01*
X130992D02*
X137983D01*
X121234D02*
X128371D01*
X95165D02*
X96767D01*
X90650D02*
X93272D01*
X86427D02*
X89194D01*
X170169Y1903D02*
X172936D01*
X166091D02*
X168858D01*
X162596D02*
X164198D01*
X130701D02*
X137983D01*
X121380D02*
X128662D01*
X95165D02*
X96767D01*
X90796D02*
X93272D01*
X86427D02*
X89048D01*
X170315Y2049D02*
X172790D01*
X166091D02*
X168713D01*
X162596D02*
X164198D01*
X130264D02*
X137983D01*
X121380D02*
X129099D01*
X95165D02*
X96767D01*
X90796D02*
X93272D01*
X86427D02*
X89048D01*
X170460Y2195D02*
X172790D01*
X166091D02*
X168713D01*
X162596D02*
X164198D01*
X121380D02*
X137983D01*
X95165D02*
X96767D01*
X90796D02*
X93272D01*
X86427D02*
X89048D01*
X170460Y2340D02*
X172790D01*
X166091D02*
X168713D01*
X162596D02*
X164052D01*
X121380D02*
X137837D01*
X95165D02*
X96767D01*
X90796D02*
X93272D01*
X86573D02*
X89048D01*
X170460Y2486D02*
X172790D01*
X165945D02*
X168713D01*
X162596D02*
X164052D01*
X121526D02*
X137837D01*
X95311D02*
X96767D01*
X90796D02*
X93272D01*
X86573D02*
X89048D01*
X170460Y2632D02*
X172790D01*
X165945D02*
X168713D01*
X162596D02*
X164052D01*
X121526D02*
X137837D01*
X95311D02*
X96767D01*
X90796D02*
X93272D01*
X86573D02*
X89048D01*
X170460Y2777D02*
X172790D01*
X165945D02*
X168713D01*
X162596D02*
X164052D01*
X121671D02*
X137692D01*
X95311D02*
X96767D01*
X90650D02*
X93417D01*
X86573D02*
X89194D01*
X170315Y2923D02*
X172790D01*
X165945D02*
X168713D01*
X162596D02*
X164052D01*
X121671D02*
X137692D01*
X95311D02*
X96767D01*
X90505D02*
X93417D01*
X86573D02*
X89340D01*
X170315Y3068D02*
X172790D01*
X165945D02*
X168858D01*
X162596D02*
X164052D01*
X121671D02*
X137692D01*
X95311D02*
X96767D01*
X90359D02*
X93417D01*
X86573D02*
X89485D01*
X170169Y3214D02*
X172790D01*
X165945D02*
X168858D01*
X162596D02*
X164052D01*
X121817D02*
X137546D01*
X95311D02*
X96767D01*
X86573D02*
X93417D01*
X170023Y3360D02*
X172790D01*
X165945D02*
X169149D01*
X162450D02*
X164052D01*
X121817D02*
X137546D01*
X95311D02*
X96767D01*
X86573D02*
X93417D01*
X165945Y3505D02*
X172790D01*
X162450D02*
X164052D01*
X121963D02*
X137400D01*
X95311D02*
X96913D01*
X86573D02*
X93417D01*
X165945Y3651D02*
X172790D01*
X162450D02*
X163906D01*
X121963D02*
X137400D01*
X95311D02*
X96913D01*
X86573D02*
X93417D01*
X165945Y3797D02*
X172790D01*
X162450D02*
X163906D01*
X122108D02*
X137255D01*
X95311D02*
X96913D01*
X86573D02*
X93417D01*
X165945Y3942D02*
X172645D01*
X162450D02*
X163906D01*
X122108D02*
X137255D01*
X95456D02*
X96913D01*
X86573D02*
X93417D01*
X165800Y4088D02*
X172645D01*
X162450D02*
X163906D01*
X122254D02*
X137109D01*
X95456D02*
X96913D01*
X86718D02*
X93417D01*
X165800Y4234D02*
X172645D01*
X162450D02*
X163906D01*
X122254D02*
X136963D01*
X95456D02*
X96913D01*
X86718D02*
X93417D01*
X165800Y4379D02*
X172645D01*
X162450D02*
X163906D01*
X122400D02*
X136963D01*
X95456D02*
X96913D01*
X86718D02*
X93563D01*
X165800Y4525D02*
X172645D01*
X162304D02*
X163906D01*
X122545D02*
X136818D01*
X95456D02*
X97058D01*
X86718D02*
X93563D01*
X165800Y4670D02*
X172645D01*
X162304D02*
X163906D01*
X122545D02*
X136672D01*
X95456D02*
X97058D01*
X86718D02*
X93563D01*
X165800Y4816D02*
X172645D01*
X162304D02*
X163906D01*
X122691D02*
X136672D01*
X95456D02*
X97058D01*
X86718D02*
X93563D01*
X165800Y4962D02*
X172645D01*
X162304D02*
X163761D01*
X151527D02*
X152110D01*
X122836D02*
X136526D01*
X95602D02*
X97058D01*
X86718D02*
X93563D01*
X165800Y5107D02*
X172645D01*
X162304D02*
X163761D01*
X151527D02*
X152547D01*
X122982D02*
X136381D01*
X95602D02*
X97058D01*
X86718D02*
X93563D01*
X165654Y5253D02*
X172645D01*
X162304D02*
X163761D01*
X151527D02*
X152547D01*
X122982D02*
X136235D01*
X95602D02*
X97058D01*
X86718D02*
X93563D01*
X165654Y5399D02*
X172499D01*
X162159D02*
X163761D01*
X151382D02*
X152547D01*
X123128D02*
X136235D01*
X95602D02*
X97058D01*
X86718D02*
X93709D01*
X165654Y5544D02*
X172499D01*
X162159D02*
X163761D01*
X151382D02*
X152547D01*
X123273D02*
X136090D01*
X95602D02*
X97204D01*
X86864D02*
X93709D01*
X165654Y5690D02*
X172499D01*
X162159D02*
X163615D01*
X154731D02*
X155314D01*
X151382D02*
X152401D01*
X123419D02*
X135944D01*
X95602D02*
X97204D01*
X86864D02*
X93709D01*
X165654Y5836D02*
X172499D01*
X162159D02*
X163615D01*
X154731D02*
X156042D01*
X151382D02*
X152401D01*
X123565D02*
X135798D01*
X95602D02*
X97204D01*
X86864D02*
X93709D01*
X165654Y5981D02*
X172499D01*
X162159D02*
X163615D01*
X154731D02*
X156625D01*
X151236D02*
X152401D01*
X123710D02*
X135653D01*
X95748D02*
X97204D01*
X86864D02*
X93709D01*
X165508Y6127D02*
X172499D01*
X162013D02*
X163615D01*
X154731D02*
X157207D01*
X151236D02*
X152401D01*
X123856D02*
X135507D01*
X95748D02*
X97204D01*
X86864D02*
X93709D01*
X165508Y6273D02*
X172353D01*
X162013D02*
X163615D01*
X154586D02*
X157935D01*
X151236D02*
X152255D01*
X124002D02*
X135216D01*
X95748D02*
X97350D01*
X86864D02*
X93854D01*
X165508Y6418D02*
X172353D01*
X162013D02*
X163615D01*
X154586D02*
X158518D01*
X151236D02*
X152255D01*
X124147D02*
X135070D01*
X95748D02*
X97350D01*
X86864D02*
X93854D01*
X165508Y6564D02*
X172353D01*
X162013D02*
X163470D01*
X154586D02*
X159100D01*
X151090D02*
X152255D01*
X124438D02*
X134924D01*
X95748D02*
X97350D01*
X87009D02*
X93854D01*
X165508Y6709D02*
X172353D01*
X162013D02*
X163470D01*
X154586D02*
X159246D01*
X151090D02*
X152255D01*
X124584D02*
X134779D01*
X95893D02*
X97350D01*
X87009D02*
X93854D01*
X165508Y6855D02*
X172353D01*
X162013D02*
X163470D01*
X154440D02*
X159246D01*
X150945D02*
X152110D01*
X124730D02*
X134487D01*
X95893D02*
X97350D01*
X87009D02*
X93854D01*
X165363Y7001D02*
X172353D01*
X161868D02*
X163470D01*
X154440D02*
X159100D01*
X150945D02*
X152110D01*
X125021D02*
X134342D01*
X95893D02*
X97495D01*
X87009D02*
X94000D01*
X165363Y7146D02*
X172353D01*
X161868D02*
X163470D01*
X154440D02*
X159100D01*
X150945D02*
X151964D01*
X125312D02*
X134051D01*
X95893D02*
X97495D01*
X87009D02*
X94000D01*
X165363Y7292D02*
X172208D01*
X161868D02*
X163324D01*
X154440D02*
X159100D01*
X150799D02*
X151964D01*
X125458D02*
X133759D01*
X96039D02*
X97495D01*
X87155D02*
X94000D01*
X165363Y7438D02*
X172208D01*
X161868D02*
X163324D01*
X154294D02*
X159100D01*
X150799D02*
X151964D01*
X125749D02*
X133614D01*
X96039D02*
X97495D01*
X87155D02*
X94000D01*
X165217Y7583D02*
X172208D01*
X161722D02*
X163324D01*
X154294D02*
X158955D01*
X150799D02*
X151819D01*
X126040D02*
X133177D01*
X96039D02*
X97641D01*
X91233D02*
X94000D01*
X87155D02*
X90359D01*
X165217Y7729D02*
X172208D01*
X161722D02*
X163324D01*
X154294D02*
X158955D01*
X150653D02*
X151819D01*
X126477D02*
X132886D01*
X96039D02*
X97641D01*
X91379D02*
X94146D01*
X87155D02*
X90213D01*
X169004Y7875D02*
X172208D01*
X165217D02*
X168276D01*
X161722D02*
X163178D01*
X154149D02*
X158955D01*
X150653D02*
X151819D01*
X126769D02*
X132449D01*
X96039D02*
X97641D01*
X91524D02*
X94146D01*
X87155D02*
X90068D01*
X169295Y8020D02*
X172208D01*
X165217D02*
X167984D01*
X161722D02*
X163178D01*
X154149D02*
X158955D01*
X150653D02*
X151673D01*
X127206D02*
X132012D01*
X96185D02*
X97641D01*
X91670D02*
X94146D01*
X87155D02*
X89922D01*
X169441Y8166D02*
X172062D01*
X165217D02*
X167839D01*
X161576D02*
X163178D01*
X154003D02*
X158809D01*
X150508D02*
X151673D01*
X127788D02*
X131575D01*
X96185D02*
X97787D01*
X91670D02*
X94146D01*
X87301D02*
X89922D01*
X169441Y8311D02*
X172062D01*
X165072D02*
X167839D01*
X161576D02*
X163178D01*
X154003D02*
X158809D01*
X150508D02*
X151673D01*
X128662D02*
X130555D01*
X96185D02*
X97787D01*
X91670D02*
X94146D01*
X87301D02*
X89922D01*
X169441Y8457D02*
X172062D01*
X165072D02*
X167693D01*
X161576D02*
X163033D01*
X154003D02*
X158809D01*
X150362D02*
X151527D01*
X96185D02*
X97787D01*
X91670D02*
X94291D01*
X87301D02*
X89922D01*
X169586Y8603D02*
X172062D01*
X165072D02*
X167693D01*
X161576D02*
X163033D01*
X153857D02*
X158664D01*
X150362D02*
X151527D01*
X96330D02*
X97787D01*
X91670D02*
X94291D01*
X87301D02*
X89922D01*
X169586Y8748D02*
X171917D01*
X165072D02*
X167693D01*
X161431D02*
X163033D01*
X153857D02*
X158664D01*
X150362D02*
X151382D01*
X96330D02*
X97932D01*
X91670D02*
X94291D01*
X87301D02*
X89922D01*
X169441Y8894D02*
X171917D01*
X164926D02*
X167693D01*
X161431D02*
X163033D01*
X153857D02*
X158664D01*
X150216D02*
X151382D01*
X96330D02*
X97932D01*
X91524D02*
X94291D01*
X87446D02*
X90068D01*
X169441Y9040D02*
X171917D01*
X164926D02*
X167839D01*
X161431D02*
X162887D01*
X153712D02*
X158518D01*
X150216D02*
X151382D01*
X96330D02*
X97932D01*
X91379D02*
X94437D01*
X87446D02*
X90068D01*
X169441Y9185D02*
X171917D01*
X164926D02*
X167839D01*
X161285D02*
X162887D01*
X153712D02*
X158518D01*
X150071D02*
X151236D01*
X96476D02*
X98078D01*
X91233D02*
X94437D01*
X87446D02*
X90213D01*
X169295Y9331D02*
X171917D01*
X164926D02*
X167984D01*
X161285D02*
X162887D01*
X153712D02*
X158518D01*
X150071D02*
X151236D01*
X96476D02*
X98078D01*
X87446D02*
X94437D01*
X169149Y9477D02*
X171771D01*
X164780D02*
X168130D01*
X161285D02*
X162741D01*
X153566D02*
X158372D01*
X149925D02*
X151090D01*
X96476D02*
X98078D01*
X87446D02*
X94583D01*
X164780Y9622D02*
X171771D01*
X161139D02*
X162741D01*
X153566D02*
X158372D01*
X149925D02*
X151090D01*
X96622D02*
X98078D01*
X87592D02*
X94583D01*
X164780Y9768D02*
X171771D01*
X161139D02*
X162741D01*
X153420D02*
X158372D01*
X149780D02*
X150945D01*
X96622D02*
X98224D01*
X87592D02*
X94583D01*
X164635Y9913D02*
X171771D01*
X161139D02*
X162741D01*
X153420D02*
X158227D01*
X149780D02*
X150945D01*
X96622D02*
X98224D01*
X87592D02*
X94583D01*
X164635Y10059D02*
X171625D01*
X160994D02*
X162596D01*
X153275D02*
X158227D01*
X149634D02*
X150799D01*
X96767D02*
X98224D01*
X87738D02*
X94728D01*
X164635Y10205D02*
X171625D01*
X160994D02*
X162596D01*
X153275D02*
X158227D01*
X149634D02*
X150799D01*
X96767D02*
X98369D01*
X87738D02*
X94728D01*
X164635Y10350D02*
X171625D01*
X160994D02*
X162596D01*
X153129D02*
X158081D01*
X149488D02*
X150653D01*
X96767D02*
X98369D01*
X87738D02*
X94728D01*
X164489Y10496D02*
X171625D01*
X160848D02*
X162450D01*
X153129D02*
X158081D01*
X149488D02*
X150653D01*
X96913D02*
X98369D01*
X87738D02*
X94874D01*
X164489Y10642D02*
X171480D01*
X160848D02*
X162450D01*
X152984D02*
X157935D01*
X149343D02*
X150508D01*
X96913D02*
X98515D01*
X87883D02*
X94874D01*
X164489Y10787D02*
X171480D01*
X160848D02*
X162450D01*
X152984D02*
X157935D01*
X149343D02*
X150508D01*
X96913D02*
X98515D01*
X87883D02*
X94874D01*
X164343Y10933D02*
X171480D01*
X160702D02*
X162304D01*
X152838D02*
X157935D01*
X149197D02*
X150362D01*
X97058D02*
X98660D01*
X87883D02*
X94874D01*
X164343Y11079D02*
X171480D01*
X160702D02*
X162304D01*
X152838D02*
X157790D01*
X149051D02*
X150362D01*
X97058D02*
X98660D01*
X87883D02*
X95020D01*
X164343Y11224D02*
X171334D01*
X160702D02*
X162304D01*
X152838D02*
X157790D01*
X149051D02*
X150216D01*
X97058D02*
X98660D01*
X88029D02*
X95020D01*
X164198Y11370D02*
X171334D01*
X160557D02*
X162159D01*
X152692D02*
X157644D01*
X148906D02*
X150071D01*
X97204D02*
X98806D01*
X88029D02*
X95020D01*
X164198Y11516D02*
X171334D01*
X160557D02*
X162159D01*
X152692D02*
X157644D01*
X148760D02*
X150071D01*
X97204D02*
X98806D01*
X88029D02*
X95165D01*
X164198Y11661D02*
X171188D01*
X160411D02*
X162159D01*
X152547D02*
X157498D01*
X148760D02*
X149925D01*
X97204D02*
X98806D01*
X88029D02*
X95165D01*
X164052Y11807D02*
X171188D01*
X160411D02*
X162013D01*
X152547D02*
X157498D01*
X148614D02*
X149925D01*
X97350D02*
X98952D01*
X88174D02*
X95165D01*
X164052Y11953D02*
X171188D01*
X160411D02*
X162013D01*
X152401D02*
X157498D01*
X148614D02*
X149780D01*
X97350D02*
X98952D01*
X88174D02*
X95311D01*
X164052Y12098D02*
X171188D01*
X160266D02*
X161868D01*
X152255D02*
X157353D01*
X148469D02*
X149634D01*
X97495D02*
X98952D01*
X88174D02*
X95311D01*
X163906Y12244D02*
X171043D01*
X160266D02*
X161868D01*
X152255D02*
X157353D01*
X148323D02*
X149634D01*
X97495D02*
X99097D01*
X88174D02*
X95456D01*
X163906Y12389D02*
X171043D01*
X160266D02*
X161868D01*
X152110D02*
X157207D01*
X148323D02*
X149488D01*
X97495D02*
X99097D01*
X88320D02*
X95456D01*
X163906Y12535D02*
X171043D01*
X160120D02*
X161722D01*
X152110D02*
X157207D01*
X148177D02*
X149488D01*
X97641D02*
X99243D01*
X88320D02*
X95456D01*
X163761Y12681D02*
X171043D01*
X160120D02*
X161722D01*
X151964D02*
X157061D01*
X148032D02*
X149343D01*
X97641D02*
X99243D01*
X88320D02*
X95602D01*
X163761Y12826D02*
X170897D01*
X159974D02*
X161576D01*
X151819D02*
X157061D01*
X148032D02*
X149197D01*
X97787D02*
X99389D01*
X88466D02*
X95602D01*
X163615Y12972D02*
X170897D01*
X159974D02*
X161576D01*
X151819D02*
X156916D01*
X147886D02*
X149197D01*
X97787D02*
X99389D01*
X88466D02*
X95602D01*
X163615Y13118D02*
X170897D01*
X159829D02*
X161576D01*
X151673D02*
X156916D01*
X147741D02*
X149051D01*
X97787D02*
X99534D01*
X88466D02*
X95748D01*
X163615Y13263D02*
X170751D01*
X159829D02*
X161431D01*
X151673D02*
X156770D01*
X147595D02*
X148906D01*
X97932D02*
X99534D01*
X88611D02*
X95748D01*
X163470Y13409D02*
X170751D01*
X159683D02*
X161431D01*
X151527D02*
X156770D01*
X147595D02*
X148760D01*
X97932D02*
X99534D01*
X88611D02*
X95893D01*
X163470Y13555D02*
X170751D01*
X159683D02*
X161285D01*
X151382D02*
X156625D01*
X147449D02*
X148760D01*
X98078D02*
X99680D01*
X92981D02*
X95893D01*
X88611D02*
X92107D01*
X163324Y13700D02*
X170606D01*
X159683D02*
X161285D01*
X151382D02*
X156625D01*
X147304D02*
X148614D01*
X98078D02*
X99680D01*
X93272D02*
X95893D01*
X88757D02*
X91961D01*
X167256Y13846D02*
X170606D01*
X163324D02*
X166237D01*
X159537D02*
X161139D01*
X151236D02*
X156479D01*
X147158D02*
X148469D01*
X98078D02*
X99826D01*
X93417D02*
X96039D01*
X88757D02*
X91816D01*
X167402Y13991D02*
X170460D01*
X163324D02*
X166091D01*
X159537D02*
X161139D01*
X151236D02*
X156479D01*
X147158D02*
X148323D01*
X98224D02*
X99826D01*
X93417D02*
X96039D01*
X88757D02*
X91816D01*
X167547Y14137D02*
X170460D01*
X163178D02*
X165945D01*
X159392D02*
X160994D01*
X151090D02*
X156333D01*
X147012D02*
X148323D01*
X98224D02*
X99971D01*
X93417D02*
X96185D01*
X88903D02*
X91670D01*
X167547Y14283D02*
X170460D01*
X163178D02*
X165945D01*
X159392D02*
X160994D01*
X150945D02*
X156333D01*
X146867D02*
X148177D01*
X98369D02*
X99971D01*
X93563D02*
X96185D01*
X88903D02*
X91670D01*
X167693Y14428D02*
X170315D01*
X163033D02*
X165945D01*
X159246D02*
X160848D01*
X150799D02*
X156188D01*
X146721D02*
X148032D01*
X98369D02*
X100117D01*
X93563D02*
X96185D01*
X88903D02*
X91670D01*
X167693Y14574D02*
X170315D01*
X163033D02*
X165800D01*
X159246D02*
X160848D01*
X150799D02*
X156042D01*
X146575D02*
X147886D01*
X98515D02*
X100117D01*
X93417D02*
X96330D01*
X89048D02*
X91670D01*
X167693Y14720D02*
X170315D01*
X163033D02*
X165800D01*
X159100D02*
X160702D01*
X150653D02*
X156042D01*
X146430D02*
X147886D01*
X98515D02*
X100262D01*
X93417D02*
X96330D01*
X89048D02*
X91816D01*
X167693Y14865D02*
X170169D01*
X162887D02*
X165945D01*
X159100D02*
X160702D01*
X150508D02*
X155896D01*
X146284D02*
X147741D01*
X98660D02*
X100262D01*
X93417D02*
X96476D01*
X89048D02*
X91816D01*
X167547Y15011D02*
X170169D01*
X162887D02*
X165945D01*
X158955D02*
X160702D01*
X150362D02*
X155896D01*
X146138D02*
X147595D01*
X98660D02*
X100408D01*
X93272D02*
X96476D01*
X89194D02*
X91961D01*
X167547Y15157D02*
X170169D01*
X162741D02*
X165945D01*
X158955D02*
X160557D01*
X150362D02*
X155751D01*
X145993D02*
X147449D01*
X98806D02*
X100408D01*
X92981D02*
X96622D01*
X89194D02*
X92107D01*
X167402Y15302D02*
X170023D01*
X162741D02*
X166091D01*
X158809D02*
X160557D01*
X150216D02*
X155605D01*
X145847D02*
X147304D01*
X98806D02*
X100554D01*
X89340D02*
X96622D01*
X167256Y15448D02*
X170023D01*
X162596D02*
X166382D01*
X158809D02*
X160411D01*
X150071D02*
X155605D01*
X145847D02*
X147158D01*
X98952D02*
X100554D01*
X89340D02*
X96767D01*
X162596Y15593D02*
X170023D01*
X158664D02*
X160411D01*
X149925D02*
X155459D01*
X145702D02*
X147012D01*
X98952D02*
X100699D01*
X89340D02*
X96767D01*
X162450Y15739D02*
X169878D01*
X158518D02*
X160266D01*
X149925D02*
X155459D01*
X145556D02*
X146867D01*
X99097D02*
X100699D01*
X89485D02*
X96913D01*
X162450Y15885D02*
X169878D01*
X158518D02*
X160266D01*
X149780D02*
X155314D01*
X145410D02*
X146721D01*
X99097D02*
X100845D01*
X89485D02*
X96913D01*
X162304Y16030D02*
X169732D01*
X158372D02*
X160120D01*
X149634D02*
X155168D01*
X145119D02*
X146721D01*
X99243D02*
X100991D01*
X89631D02*
X97058D01*
X162304Y16176D02*
X169732D01*
X158372D02*
X159974D01*
X149488D02*
X155168D01*
X144973D02*
X146575D01*
X99243D02*
X100991D01*
X89631D02*
X97058D01*
X162159Y16322D02*
X169586D01*
X158227D02*
X159974D01*
X149343D02*
X155022D01*
X144828D02*
X146430D01*
X99389D02*
X101136D01*
X89631D02*
X97204D01*
X162159Y16467D02*
X169586D01*
X158227D02*
X159829D01*
X149197D02*
X154877D01*
X144682D02*
X146284D01*
X99534D02*
X101136D01*
X89776D02*
X97204D01*
X162013Y16613D02*
X169586D01*
X158081D02*
X159829D01*
X149051D02*
X154877D01*
X144537D02*
X146138D01*
X99534D02*
X101282D01*
X89776D02*
X97204D01*
X162013Y16759D02*
X169441D01*
X157935D02*
X159683D01*
X148906D02*
X154731D01*
X144391D02*
X145993D01*
X99680D02*
X101282D01*
X89922D02*
X97350D01*
X161868Y16904D02*
X169441D01*
X157935D02*
X159683D01*
X148906D02*
X154586D01*
X144245D02*
X145702D01*
X99680D02*
X101428D01*
X89922D02*
X97350D01*
X161868Y17050D02*
X169295D01*
X157790D02*
X159537D01*
X148760D02*
X154586D01*
X144100D02*
X145556D01*
X99826D02*
X101573D01*
X89922D02*
X97495D01*
X161722Y17195D02*
X169295D01*
X157790D02*
X159392D01*
X148614D02*
X154440D01*
X143954D02*
X145410D01*
X99971D02*
X101573D01*
X90068D02*
X97641D01*
X161722Y17341D02*
X169295D01*
X157644D02*
X159392D01*
X148469D02*
X154294D01*
X143663D02*
X145265D01*
X99971D02*
X101719D01*
X90068D02*
X97641D01*
X161576Y17487D02*
X169149D01*
X157498D02*
X159246D01*
X148323D02*
X154149D01*
X143517D02*
X145119D01*
X100117D02*
X101865D01*
X90213D02*
X97787D01*
X161576Y17632D02*
X169149D01*
X157498D02*
X159246D01*
X148177D02*
X154149D01*
X143371D02*
X144973D01*
X100117D02*
X101865D01*
X90213D02*
X97787D01*
X161431Y17778D02*
X169004D01*
X157353D02*
X159100D01*
X148032D02*
X154003D01*
X143080D02*
X144828D01*
X100262D02*
X102010D01*
X90359D02*
X97932D01*
X161285Y17924D02*
X169004D01*
X157207D02*
X158955D01*
X147886D02*
X153857D01*
X142935D02*
X144682D01*
X100408D02*
X102010D01*
X90359D02*
X97932D01*
X161285Y18069D02*
X168858D01*
X157207D02*
X158955D01*
X147741D02*
X153712D01*
X142789D02*
X144391D01*
X100408D02*
X102156D01*
X90505D02*
X98078D01*
X161139Y18215D02*
X168858D01*
X157061D02*
X158809D01*
X147595D02*
X153712D01*
X142498D02*
X144245D01*
X100554D02*
X102301D01*
X90505D02*
X98224D01*
X161139Y18361D02*
X168713D01*
X156916D02*
X158809D01*
X147449D02*
X153566D01*
X142352D02*
X144100D01*
X100554D02*
X102301D01*
X90650D02*
X98224D01*
X160994Y18506D02*
X168713D01*
X156916D02*
X158664D01*
X147304D02*
X153420D01*
X142061D02*
X143808D01*
X100699D02*
X102447D01*
X90650D02*
X98369D01*
X160994Y18652D02*
X168567D01*
X156770D02*
X158518D01*
X147158D02*
X153275D01*
X141915D02*
X143663D01*
X100845D02*
X102593D01*
X90796D02*
X98369D01*
X160848Y18798D02*
X168567D01*
X156625D02*
X158518D01*
X146867D02*
X153275D01*
X141624D02*
X143517D01*
X100845D02*
X102738D01*
X90796D02*
X98515D01*
X160702Y18943D02*
X168421D01*
X156625D02*
X158372D01*
X146721D02*
X153129D01*
X141333D02*
X143226D01*
X100991D02*
X102738D01*
X90942D02*
X98515D01*
X160702Y19089D02*
X168421D01*
X156479D02*
X158227D01*
X146575D02*
X152984D01*
X141187D02*
X143080D01*
X101136D02*
X102884D01*
X95602D02*
X98660D01*
X90942D02*
X95020D01*
X160557Y19234D02*
X168276D01*
X156333D02*
X158081D01*
X146430D02*
X152838D01*
X140896D02*
X142935D01*
X101136D02*
X103030D01*
X95893D02*
X98806D01*
X90942D02*
X94728D01*
X164343Y19380D02*
X168276D01*
X160411D02*
X163615D01*
X156188D02*
X158081D01*
X146284D02*
X152692D01*
X140604D02*
X142643D01*
X101282D02*
X103175D01*
X96039D02*
X98806D01*
X91087D02*
X94583D01*
X164635Y19526D02*
X168130D01*
X160411D02*
X163324D01*
X156188D02*
X157935D01*
X146138D02*
X152547D01*
X140459D02*
X142498D01*
X101428D02*
X103175D01*
X96185D02*
X98952D01*
X91087D02*
X94583D01*
X164780Y19671D02*
X168130D01*
X160266D02*
X163324D01*
X156042D02*
X157790D01*
X145847D02*
X152401D01*
X140167D02*
X142206D01*
X101573D02*
X103321D01*
X96185D02*
X99097D01*
X91233D02*
X94437D01*
X164780Y19817D02*
X167984D01*
X160266D02*
X163178D01*
X155896D02*
X157790D01*
X145702D02*
X152255D01*
X139876D02*
X141915D01*
X101573D02*
X103467D01*
X96185D02*
X99097D01*
X91233D02*
X94437D01*
X164926Y19963D02*
X167984D01*
X160120D02*
X163178D01*
X155751D02*
X157644D01*
X145556D02*
X152110D01*
X139585D02*
X141769D01*
X101719D02*
X103467D01*
X96185D02*
X99243D01*
X91379D02*
X94437D01*
X164926Y20108D02*
X167839D01*
X159974D02*
X163033D01*
X155751D02*
X157498D01*
X145265D02*
X151964D01*
X139439D02*
X141478D01*
X101865D02*
X103612D01*
X96185D02*
X99389D01*
X91379D02*
X94437D01*
X164926Y20254D02*
X167839D01*
X159974D02*
X163178D01*
X155605D02*
X157498D01*
X145119D02*
X151819D01*
X139585D02*
X141187D01*
X101865D02*
X103758D01*
X96185D02*
X99389D01*
X91524D02*
X94437D01*
X164926Y20399D02*
X167693D01*
X159829D02*
X163178D01*
X155459D02*
X157353D01*
X144973D02*
X151819D01*
X139585D02*
X141041D01*
X102010D02*
X103903D01*
X96185D02*
X99534D01*
X91670D02*
X94583D01*
X164780Y20545D02*
X167693D01*
X159683D02*
X163178D01*
X155314D02*
X157207D01*
X144682D02*
X151673D01*
X139731D02*
X140750D01*
X102156D02*
X104049D01*
X96039D02*
X99680D01*
X91670D02*
X94583D01*
X164780Y20691D02*
X167547D01*
X159683D02*
X163178D01*
X155168D02*
X157061D01*
X144537D02*
X151527D01*
X139731D02*
X140459D01*
X102156D02*
X104049D01*
X95893D02*
X99680D01*
X91816D02*
X94728D01*
X164635Y20836D02*
X167547D01*
X159537D02*
X163324D01*
X155168D02*
X157061D01*
X144391D02*
X151382D01*
X139876D02*
X140167D01*
X102301D02*
X104195D01*
X95456D02*
X99826D01*
X91816D02*
X95311D01*
X164489Y20982D02*
X167402D01*
X159392D02*
X163470D01*
X155022D02*
X156916D01*
X144100D02*
X151236D01*
X102447D02*
X104340D01*
X91961D02*
X99971D01*
X159246Y21128D02*
X167256D01*
X154877D02*
X156770D01*
X143954D02*
X151090D01*
X102593D02*
X104486D01*
X91961D02*
X99971D01*
X159246Y21273D02*
X167256D01*
X154731D02*
X156625D01*
X143663D02*
X150945D01*
X102738D02*
X104632D01*
X92107D02*
X100117D01*
X159100Y21419D02*
X167111D01*
X154586D02*
X156479D01*
X143371D02*
X150799D01*
X102884D02*
X104777D01*
X92252D02*
X100262D01*
X158955Y21565D02*
X167111D01*
X154440D02*
X156333D01*
X143226D02*
X150653D01*
X102884D02*
X104777D01*
X92252D02*
X100408D01*
X158955Y21710D02*
X166965D01*
X154294D02*
X156333D01*
X142935D02*
X150362D01*
X103030D02*
X104923D01*
X92398D02*
X100408D01*
X158809Y21856D02*
X166965D01*
X154294D02*
X156188D01*
X142643D02*
X150216D01*
X103175D02*
X105069D01*
X92398D02*
X100554D01*
X158664Y22002D02*
X166819D01*
X154149D02*
X156042D01*
X142498D02*
X150071D01*
X103321D02*
X105214D01*
X92544D02*
X100699D01*
X158518Y22147D02*
X166819D01*
X154003D02*
X155896D01*
X142206D02*
X149925D01*
X103467D02*
X105360D01*
X92544D02*
X100699D01*
X158518Y22293D02*
X166674D01*
X153857D02*
X155751D01*
X141915D02*
X149780D01*
X103612D02*
X105505D01*
X92689D02*
X100845D01*
X158372Y22438D02*
X166528D01*
X153712D02*
X155751D01*
X141624D02*
X149634D01*
X103612D02*
X105651D01*
X92835D02*
X100991D01*
X158227Y22584D02*
X166528D01*
X153566D02*
X155605D01*
X141333D02*
X149488D01*
X103758D02*
X105797D01*
X92835D02*
X101136D01*
X158081Y22730D02*
X166382D01*
X153420D02*
X155459D01*
X141041D02*
X149343D01*
X103903D02*
X105942D01*
X92981D02*
X101282D01*
X157935Y22875D02*
X166237D01*
X153275D02*
X155314D01*
X140750D02*
X149197D01*
X104049D02*
X106088D01*
X92981D02*
X101282D01*
X157935Y23021D02*
X166237D01*
X153129D02*
X155168D01*
X140896D02*
X148906D01*
X104195D02*
X106234D01*
X93126D02*
X101428D01*
X157790Y23167D02*
X166091D01*
X152984D02*
X155022D01*
X140896D02*
X148760D01*
X104340D02*
X106379D01*
X93272D02*
X101573D01*
X157644Y23312D02*
X165945D01*
X152838D02*
X154877D01*
X141041D02*
X148614D01*
X104486D02*
X106525D01*
X93272D02*
X101719D01*
X157498Y23458D02*
X165945D01*
X152692D02*
X154731D01*
X141041D02*
X148323D01*
X104632D02*
X106671D01*
X93417D02*
X101865D01*
X157353Y23603D02*
X165800D01*
X152547D02*
X154586D01*
X141187D02*
X148177D01*
X104777D02*
X106816D01*
X93563D02*
X102010D01*
X157207Y23749D02*
X165800D01*
X152401D02*
X154440D01*
X141187D02*
X148032D01*
X104923D02*
X106962D01*
X93563D02*
X102010D01*
X157207Y23895D02*
X165654D01*
X152255D02*
X154294D01*
X141333D02*
X147741D01*
X105069D02*
X107107D01*
X93709D02*
X102156D01*
X157061Y24040D02*
X165508D01*
X152110D02*
X154149D01*
X141333D02*
X147595D01*
X105214D02*
X107253D01*
X93854D02*
X102301D01*
X156916Y24186D02*
X165508D01*
X151964D02*
X154003D01*
X141478D02*
X147449D01*
X105360D02*
X107399D01*
X99097D02*
X102447D01*
X93854D02*
X98515D01*
X156770Y24332D02*
X165363D01*
X151673D02*
X153857D01*
X141478D02*
X147158D01*
X105505D02*
X107544D01*
X99389D02*
X102593D01*
X94000D02*
X98224D01*
X160848Y24477D02*
X165217D01*
X156625D02*
X159974D01*
X151527D02*
X153712D01*
X141624D02*
X147012D01*
X105651D02*
X107690D01*
X99680D02*
X102738D01*
X94146D02*
X98224D01*
X160994Y24623D02*
X165217D01*
X156479D02*
X159829D01*
X151382D02*
X153566D01*
X141624D02*
X146867D01*
X105797D02*
X107981D01*
X99680D02*
X102884D01*
X94146D02*
X98078D01*
X161139Y24769D02*
X165072D01*
X156333D02*
X159683D01*
X151236D02*
X153420D01*
X141769D02*
X146575D01*
X105942D02*
X108127D01*
X99680D02*
X103030D01*
X94291D02*
X98078D01*
X161285Y24914D02*
X164926D01*
X156188D02*
X159537D01*
X151090D02*
X153275D01*
X141769D02*
X146284D01*
X106088D02*
X108273D01*
X99826D02*
X103175D01*
X94437D02*
X97932D01*
X161285Y25060D02*
X164780D01*
X156042D02*
X159537D01*
X150945D02*
X153129D01*
X141915D02*
X146138D01*
X106234D02*
X108418D01*
X99826D02*
X103321D01*
X94437D02*
X97932D01*
X161285Y25206D02*
X164780D01*
X155896D02*
X159537D01*
X150653D02*
X152984D01*
X141915D02*
X145847D01*
X106379D02*
X108564D01*
X99826D02*
X103321D01*
X94583D02*
X97932D01*
X161285Y25351D02*
X164635D01*
X155751D02*
X159537D01*
X150508D02*
X152838D01*
X141915D02*
X145556D01*
X106525D02*
X108855D01*
X99680D02*
X103467D01*
X94728D02*
X98078D01*
X161285Y25497D02*
X164489D01*
X155605D02*
X159537D01*
X150362D02*
X152692D01*
X142061D02*
X145410D01*
X106671D02*
X109001D01*
X99680D02*
X103612D01*
X94874D02*
X98078D01*
X161285Y25642D02*
X164343D01*
X155459D02*
X159537D01*
X150216D02*
X152547D01*
X142061D02*
X145119D01*
X106816D02*
X109146D01*
X99534D02*
X103758D01*
X94874D02*
X98224D01*
X161139Y25788D02*
X164343D01*
X155314D02*
X159683D01*
X150071D02*
X152255D01*
X142206D02*
X144973D01*
X106962D02*
X109292D01*
X99389D02*
X103903D01*
X95020D02*
X98369D01*
X160994Y25934D02*
X164198D01*
X155168D02*
X159683D01*
X149780D02*
X152110D01*
X142206D02*
X144682D01*
X107253D02*
X109583D01*
X99097D02*
X104049D01*
X95165D02*
X98660D01*
X160848Y26079D02*
X164052D01*
X155022D02*
X159974D01*
X149634D02*
X151964D01*
X142352D02*
X144391D01*
X107399D02*
X109729D01*
X95311D02*
X104195D01*
X154877Y26225D02*
X164052D01*
X149488D02*
X151819D01*
X142352D02*
X144100D01*
X107544D02*
X109875D01*
X95311D02*
X104340D01*
X154731Y26371D02*
X163906D01*
X149197D02*
X151673D01*
X142498D02*
X143808D01*
X107690D02*
X110166D01*
X95456D02*
X104632D01*
X154586Y26516D02*
X163761D01*
X149051D02*
X151527D01*
X142498D02*
X143517D01*
X107836D02*
X110312D01*
X95602D02*
X104777D01*
X154440Y26662D02*
X163615D01*
X148906D02*
X151236D01*
X142643D02*
X143226D01*
X107981D02*
X110457D01*
X95748D02*
X104923D01*
X154294Y26808D02*
X163615D01*
X148614D02*
X151090D01*
X142643D02*
X142935D01*
X108273D02*
X110749D01*
X95748D02*
X105069D01*
X154149Y26953D02*
X163470D01*
X148469D02*
X150945D01*
X108418D02*
X110894D01*
X95893D02*
X105214D01*
X154003Y27099D02*
X163324D01*
X148177D02*
X150653D01*
X108564D02*
X111185D01*
X96039D02*
X105360D01*
X153857Y27245D02*
X163178D01*
X148032D02*
X150508D01*
X108855D02*
X111331D01*
X96185D02*
X105505D01*
X153712Y27390D02*
X163033D01*
X147741D02*
X150362D01*
X109001D02*
X111622D01*
X96330D02*
X105651D01*
X153566Y27536D02*
X162887D01*
X147595D02*
X150216D01*
X109146D02*
X111768D01*
X96330D02*
X105797D01*
X153420Y27681D02*
X162887D01*
X147304D02*
X149925D01*
X109438D02*
X112059D01*
X96476D02*
X105942D01*
X153129Y27827D02*
X162741D01*
X147158D02*
X149780D01*
X109583D02*
X112205D01*
X96622D02*
X106234D01*
X152984Y27973D02*
X162596D01*
X146867D02*
X149488D01*
X109729D02*
X112496D01*
X96767D02*
X106379D01*
X152838Y28118D02*
X162450D01*
X146575D02*
X149343D01*
X110020D02*
X112642D01*
X96913D02*
X106525D01*
X152692Y28264D02*
X162304D01*
X146430D02*
X149051D01*
X110166D02*
X112933D01*
X97058D02*
X106671D01*
X152401Y28410D02*
X162159D01*
X146138D02*
X148906D01*
X110457D02*
X113224D01*
X97204D02*
X106816D01*
X152255Y28555D02*
X162159D01*
X145847D02*
X148614D01*
X110603D02*
X113516D01*
X97204D02*
X107107D01*
X152110Y28701D02*
X162013D01*
X145556D02*
X148469D01*
X110894D02*
X113807D01*
X103612D02*
X107253D01*
X97350D02*
X102884D01*
X156188Y28846D02*
X161868D01*
X151964D02*
X155896D01*
X145702D02*
X148177D01*
X111185D02*
X113953D01*
X103758D02*
X107399D01*
X97495D02*
X102593D01*
X156625Y28992D02*
X161722D01*
X151673D02*
X155459D01*
X145847D02*
X148032D01*
X111331D02*
X114244D01*
X103903D02*
X107544D01*
X97641D02*
X102447D01*
X156770Y29138D02*
X161576D01*
X151527D02*
X155314D01*
X145847D02*
X147741D01*
X111622D02*
X114535D01*
X104049D02*
X107836D01*
X97787D02*
X102301D01*
X156916Y29283D02*
X161431D01*
X151819D02*
X155314D01*
X145993D02*
X147595D01*
X143954D02*
X144682D01*
X111768D02*
X114826D01*
X104049D02*
X107981D01*
X97932D02*
X102301D01*
X156916Y29429D02*
X161285D01*
X151964D02*
X155168D01*
X146138D02*
X147304D01*
X143517D02*
X144828D01*
X112059D02*
X115118D01*
X104049D02*
X108127D01*
X98078D02*
X102301D01*
X156916Y29575D02*
X161139D01*
X152110D02*
X155168D01*
X149343D02*
X150508D01*
X146138D02*
X147012D01*
X143371D02*
X144973D01*
X112350D02*
X115409D01*
X104049D02*
X108418D01*
X98224D02*
X102301D01*
X156916Y29720D02*
X160994D01*
X152255D02*
X155168D01*
X149197D02*
X150799D01*
X146284D02*
X146867D01*
X143080D02*
X145119D01*
X112496D02*
X115700D01*
X104049D02*
X108418D01*
X98369D02*
X102301D01*
X156916Y29866D02*
X160848D01*
X152401D02*
X155168D01*
X149051D02*
X151090D01*
X146284D02*
X146575D01*
X143080D02*
X145265D01*
X112787D02*
X115991D01*
X104049D02*
X108127D01*
X98369D02*
X102301D01*
X156916Y30012D02*
X160702D01*
X152547D02*
X155168D01*
X148906D02*
X151236D01*
X142935D02*
X145410D01*
X113079D02*
X116428D01*
X103903D02*
X107836D01*
X98515D02*
X102447D01*
X156916Y30157D02*
X160557D01*
X152692D02*
X155314D01*
X148760D02*
X151382D01*
X143954D02*
X145410D01*
X142789D02*
X143663D01*
X113370D02*
X116720D01*
X103903D02*
X107690D01*
X98806D02*
X102447D01*
X156770Y30303D02*
X160411D01*
X152838D02*
X155314D01*
X148614D02*
X151527D01*
X144391D02*
X145556D01*
X142789D02*
X143371D01*
X113661D02*
X117011D01*
X103758D02*
X107399D01*
X98952D02*
X102738D01*
X156625Y30449D02*
X160411D01*
X152838D02*
X155459D01*
X148469D02*
X151673D01*
X144537D02*
X145556D01*
X142643D02*
X143371D01*
X113807D02*
X117448D01*
X109292D02*
X111040D01*
X99097D02*
X107253D01*
X156333Y30594D02*
X160120D01*
X152838D02*
X155751D01*
X150216D02*
X151819D01*
X148469D02*
X149488D01*
X144537D02*
X145702D01*
X142643D02*
X143371D01*
X141478D02*
X141769D01*
X114098D02*
X117739D01*
X108709D02*
X111622D01*
X99243D02*
X107107D01*
X152838Y30740D02*
X159974D01*
X150508D02*
X151964D01*
X148323D02*
X149343D01*
X144682D02*
X145702D01*
X142643D02*
X143371D01*
X141041D02*
X141769D01*
X114389D02*
X118176D01*
X108418D02*
X111914D01*
X99389D02*
X106962D01*
X152838Y30886D02*
X159829D01*
X150799D02*
X151964D01*
X148323D02*
X149197D01*
X144682D02*
X145847D01*
X142643D02*
X143517D01*
X140604D02*
X141769D01*
X114826D02*
X118613D01*
X108127D02*
X112205D01*
X99534D02*
X106816D01*
X152838Y31031D02*
X159683D01*
X150945D02*
X151819D01*
X148177D02*
X149051D01*
X142643D02*
X145847D01*
X140313D02*
X141769D01*
X115118D02*
X119050D01*
X110166D02*
X112350D01*
X107981D02*
X110020D01*
X99680D02*
X106816D01*
X152838Y31177D02*
X159537D01*
X151236D02*
X151673D01*
X148177D02*
X149051D01*
X142643D02*
X147012D01*
X139876D02*
X141769D01*
X115409D02*
X119487D01*
X110894D02*
X112496D01*
X107836D02*
X109438D01*
X99826D02*
X106671D01*
X152692Y31322D02*
X159392D01*
X151382D02*
X151527D01*
X148177D02*
X149051D01*
X142789D02*
X147449D01*
X139439D02*
X141769D01*
X115700D02*
X119924D01*
X111185D02*
X112496D01*
X107690D02*
X109146D01*
X99971D02*
X106671D01*
X152692Y31468D02*
X159246D01*
X148177D02*
X149051D01*
X142789D02*
X147741D01*
X138857D02*
X141769D01*
X115991D02*
X120360D01*
X111331D02*
X112642D01*
X107544D02*
X109001D01*
X100117D02*
X106525D01*
X152547Y31614D02*
X159100D01*
X149925D02*
X150216D01*
X148177D02*
X149051D01*
X142935D02*
X147886D01*
X138274D02*
X141915D01*
X116283D02*
X120943D01*
X111477D02*
X112787D01*
X107544D02*
X108709D01*
X100262D02*
X106525D01*
X152547Y31759D02*
X158955D01*
X149925D02*
X150508D01*
X143226D02*
X149051D01*
X137837D02*
X141915D01*
X116720D02*
X121526D01*
X111477D02*
X112787D01*
X107399D02*
X108709D01*
X100408D02*
X106525D01*
X152401Y31905D02*
X158809D01*
X150071D02*
X150653D01*
X145265D02*
X149051D01*
X137109D02*
X142061D01*
X117157D02*
X122108D01*
X111622D02*
X112933D01*
X107399D02*
X108564D01*
X100554D02*
X106379D01*
X152110Y32050D02*
X158664D01*
X150362D02*
X150799D01*
X146575D02*
X149051D01*
X145265D02*
X146430D01*
X144828D02*
X144973D01*
X136526D02*
X141915D01*
X117448D02*
X122691D01*
X111622D02*
X112933D01*
X109875D02*
X110166D01*
X107253D02*
X108564D01*
X100699D02*
X106379D01*
X151964Y32196D02*
X158518D01*
X150653D02*
X151090D01*
X146867D02*
X149051D01*
X144391D02*
X146430D01*
X135798D02*
X141478D01*
X117885D02*
X123419D01*
X111768D02*
X112933D01*
X107253D02*
X108564D01*
X100845D02*
X106379D01*
X150945Y32342D02*
X158372D01*
X147158D02*
X149197D01*
X144100D02*
X146575D01*
X134924D02*
X141041D01*
X118322D02*
X124293D01*
X111768D02*
X112933D01*
X111185D02*
X111331D01*
X107253D02*
X108564D01*
X100991D02*
X106379D01*
X151382Y32487D02*
X158227D01*
X147449D02*
X149343D01*
X143954D02*
X146575D01*
X134051D02*
X140750D01*
X118613D02*
X125312D01*
X111040D02*
X113079D01*
X107399D02*
X108709D01*
X101136D02*
X106379D01*
X151673Y32633D02*
X157935D01*
X147741D02*
X149488D01*
X143808D02*
X146721D01*
X132594D02*
X140313D01*
X119050D02*
X126477D01*
X111040D02*
X113079D01*
X107399D02*
X108855D01*
X101282D02*
X106525D01*
X151964Y32779D02*
X157790D01*
X147886D02*
X149780D01*
X143663D02*
X146721D01*
X130118D02*
X139876D01*
X119632D02*
X129390D01*
X111040D02*
X113079D01*
X107544D02*
X109292D01*
X101573D02*
X106525D01*
X152255Y32924D02*
X157644D01*
X148032D02*
X150071D01*
X143517D02*
X146721D01*
X120069D02*
X139293D01*
X115846D02*
X117011D01*
X110894D02*
X113079D01*
X107690D02*
X109583D01*
X101719D02*
X106525D01*
X152547Y33070D02*
X157498D01*
X148177D02*
X150362D01*
X145265D02*
X146867D01*
X143517D02*
X144682D01*
X142061D02*
X142935D01*
X120652D02*
X138857D01*
X115555D02*
X117302D01*
X111040D02*
X113079D01*
X107981D02*
X109438D01*
X101865D02*
X106671D01*
X152692Y33216D02*
X157353D01*
X148323D02*
X150653D01*
X145556D02*
X146867D01*
X143371D02*
X144391D01*
X141915D02*
X143226D01*
X121089D02*
X138274D01*
X115263D02*
X117593D01*
X111331D02*
X113370D01*
X108418D02*
X109146D01*
X102010D02*
X106671D01*
X152984Y33361D02*
X157207D01*
X148469D02*
X151090D01*
X145847D02*
X147012D01*
X141769D02*
X144391D01*
X121671D02*
X137692D01*
X114972D02*
X117739D01*
X111768D02*
X113661D01*
X102156D02*
X106816D01*
X153129Y33507D02*
X156916D01*
X148614D02*
X151382D01*
X145993D02*
X147012D01*
X141624D02*
X144391D01*
X122400D02*
X137109D01*
X114826D02*
X117885D01*
X111914D02*
X113953D01*
X102301D02*
X106962D01*
X153275Y33653D02*
X156770D01*
X148614D02*
X151673D01*
X146138D02*
X147158D01*
X141478D02*
X144391D01*
X123128D02*
X136381D01*
X116574D02*
X117885D01*
X114681D02*
X115991D01*
X111914D02*
X114244D01*
X110166D02*
X110312D01*
X102593D02*
X107107D01*
X153420Y33798D02*
X156625D01*
X148760D02*
X151964D01*
X146138D02*
X147158D01*
X141478D02*
X144391D01*
X123710D02*
X135653D01*
X118613D02*
X119341D01*
X116720D02*
X118030D01*
X111914D02*
X115846D01*
X110020D02*
X110457D01*
X102738D02*
X107399D01*
X153712Y33944D02*
X156479D01*
X148760D02*
X152110D01*
X146284D02*
X147304D01*
X141333D02*
X144391D01*
X139439D02*
X139876D01*
X124875D02*
X134633D01*
X118322D02*
X119924D01*
X117011D02*
X118030D01*
X111768D02*
X115555D01*
X109729D02*
X110749D01*
X102884D02*
X107690D01*
X153857Y34090D02*
X156333D01*
X148906D02*
X152401D01*
X146284D02*
X147304D01*
X142498D02*
X144537D01*
X141333D02*
X142206D01*
X139148D02*
X139876D01*
X126040D02*
X133614D01*
X117157D02*
X120215D01*
X113224D02*
X115409D01*
X111768D02*
X113079D01*
X109438D02*
X110894D01*
X103030D02*
X108273D01*
X153857Y34235D02*
X156042D01*
X150653D02*
X152547D01*
X149051D02*
X150216D01*
X146430D02*
X147449D01*
X142789D02*
X144537D01*
X141333D02*
X142206D01*
X139002D02*
X140022D01*
X137983D02*
X138274D01*
X127642D02*
X131866D01*
X117302D02*
X120360D01*
X113661D02*
X115263D01*
X111768D02*
X112933D01*
X103321D02*
X110894D01*
X154003Y34381D02*
X155896D01*
X150799D02*
X152838D01*
X149051D02*
X150362D01*
X146430D02*
X147449D01*
X142935D02*
X144682D01*
X141187D02*
X142206D01*
X139002D02*
X140022D01*
X137400D02*
X138711D01*
X117302D02*
X120506D01*
X113807D02*
X115118D01*
X111768D02*
X112933D01*
X103467D02*
X110894D01*
X154149Y34526D02*
X155751D01*
X151090D02*
X152984D01*
X149197D02*
X150508D01*
X146430D02*
X147595D01*
X143080D02*
X144682D01*
X141187D02*
X142206D01*
X137109D02*
X140022D01*
X117302D02*
X120652D01*
X113807D02*
X114972D01*
X111768D02*
X112933D01*
X103612D02*
X110894D01*
X154294Y34672D02*
X155459D01*
X151382D02*
X153129D01*
X149343D02*
X150653D01*
X146575D02*
X147595D01*
X143226D02*
X144828D01*
X141333D02*
X142352D01*
X136963D02*
X140022D01*
X119487D02*
X120652D01*
X117448D02*
X118904D01*
X116137D02*
X116428D01*
X113661D02*
X114826D01*
X111768D02*
X112933D01*
X103903D02*
X110894D01*
X154294Y34818D02*
X155314D01*
X151673D02*
X153129D01*
X149488D02*
X150799D01*
X146575D02*
X147741D01*
X143371D02*
X144828D01*
X141333D02*
X142352D01*
X136818D02*
X140167D01*
X122400D02*
X123419D01*
X119632D02*
X120798D01*
X117448D02*
X118759D01*
X115991D02*
X116428D01*
X113661D02*
X114826D01*
X111768D02*
X112933D01*
X104049D02*
X110749D01*
X154440Y34963D02*
X155168D01*
X151819D02*
X153275D01*
X149488D02*
X150799D01*
X146721D02*
X147741D01*
X143517D02*
X144973D01*
X141333D02*
X142352D01*
X136672D02*
X140167D01*
X122108D02*
X123710D01*
X119778D02*
X120798D01*
X117448D02*
X118759D01*
X115846D02*
X116574D01*
X113516D02*
X114681D01*
X111768D02*
X112933D01*
X104195D02*
X110749D01*
X154440Y35109D02*
X154877D01*
X152110D02*
X153420D01*
X149634D02*
X150945D01*
X146721D02*
X147886D01*
X143663D02*
X144973D01*
X141333D02*
X142498D01*
X136672D02*
X140167D01*
X121963D02*
X124002D01*
X119778D02*
X120798D01*
X117448D02*
X118759D01*
X115700D02*
X116574D01*
X113370D02*
X114535D01*
X111622D02*
X112787D01*
X104486D02*
X110749D01*
X154586Y35255D02*
X154731D01*
X152255D02*
X153566D01*
X149780D02*
X151090D01*
X146867D02*
X147886D01*
X143808D02*
X145119D01*
X141333D02*
X142498D01*
X138274D02*
X140167D01*
X136526D02*
X137546D01*
X132012D02*
X132886D01*
X121817D02*
X124147D01*
X119924D02*
X120798D01*
X117448D02*
X118613D01*
X115555D02*
X116574D01*
X113370D02*
X114535D01*
X111622D02*
X112787D01*
X104632D02*
X110749D01*
X152401Y35400D02*
X153566D01*
X149925D02*
X151382D01*
X146867D02*
X148032D01*
X143808D02*
X145119D01*
X141478D02*
X142643D01*
X138420D02*
X140313D01*
X136526D02*
X137546D01*
X131575D02*
X133177D01*
X123128D02*
X124293D01*
X121817D02*
X122982D01*
X119924D02*
X120798D01*
X117448D02*
X118613D01*
X115409D02*
X116574D01*
X113224D02*
X114389D01*
X111622D02*
X112787D01*
X104777D02*
X110749D01*
X152547Y35546D02*
X153712D01*
X150071D02*
X151527D01*
X147012D02*
X148032D01*
X143954D02*
X145265D01*
X141478D02*
X142643D01*
X138565D02*
X140313D01*
X136526D02*
X137400D01*
X131284D02*
X133468D01*
X123419D02*
X124293D01*
X121671D02*
X122691D01*
X119924D02*
X120943D01*
X117448D02*
X118613D01*
X115409D02*
X116428D01*
X113079D02*
X114244D01*
X111622D02*
X112787D01*
X105069D02*
X110749D01*
X152692Y35691D02*
X153712D01*
X150216D02*
X151673D01*
X147012D02*
X148032D01*
X144100D02*
X145265D01*
X141478D02*
X142643D01*
X138711D02*
X140313D01*
X136381D02*
X137400D01*
X131138D02*
X133614D01*
X123565D02*
X124438D01*
X121526D02*
X122545D01*
X119924D02*
X120943D01*
X117448D02*
X118613D01*
X115263D02*
X116428D01*
X113079D02*
X114244D01*
X111622D02*
X112642D01*
X105214D02*
X110603D01*
X152838Y35837D02*
X153712D01*
X150362D02*
X151819D01*
X148906D02*
X149051D01*
X147012D02*
X147886D01*
X144100D02*
X145410D01*
X141624D02*
X142789D01*
X138857D02*
X140313D01*
X136381D02*
X137546D01*
X130992D02*
X133759D01*
X123710D02*
X124293D01*
X121526D02*
X122545D01*
X120069D02*
X120943D01*
X117448D02*
X118467D01*
X115118D02*
X116428D01*
X112933D02*
X114098D01*
X111477D02*
X112642D01*
X105505D02*
X110603D01*
X152984Y35983D02*
X153857D01*
X150508D02*
X152110D01*
X148906D02*
X149197D01*
X147158D02*
X147886D01*
X144245D02*
X145410D01*
X141624D02*
X142789D01*
X139002D02*
X140313D01*
X136381D02*
X137546D01*
X130847D02*
X133905D01*
X123856D02*
X124002D01*
X121526D02*
X122400D01*
X120069D02*
X120943D01*
X117302D02*
X118467D01*
X115118D02*
X116428D01*
X112933D02*
X113953D01*
X111477D02*
X112642D01*
X105651D02*
X110603D01*
X152984Y36128D02*
X153857D01*
X150653D02*
X152255D01*
X148906D02*
X149343D01*
X147304D02*
X147595D01*
X144245D02*
X145556D01*
X141624D02*
X142789D01*
X139002D02*
X140459D01*
X136381D02*
X137546D01*
X135216D02*
X135507D01*
X130701D02*
X134051D01*
X121380D02*
X122400D01*
X120069D02*
X120943D01*
X117302D02*
X118467D01*
X114972D02*
X116428D01*
X112787D02*
X113953D01*
X111477D02*
X112642D01*
X105942D02*
X110603D01*
X152984Y36274D02*
X153857D01*
X150799D02*
X152692D01*
X148760D02*
X149488D01*
X144391D02*
X145556D01*
X141769D02*
X142935D01*
X139148D02*
X140459D01*
X136381D02*
X137546D01*
X135361D02*
X135507D01*
X130701D02*
X134196D01*
X125167D02*
X125895D01*
X121380D02*
X122400D01*
X120069D02*
X120943D01*
X117302D02*
X118467D01*
X114826D02*
X116428D01*
X112787D02*
X113807D01*
X111477D02*
X112642D01*
X106088D02*
X110457D01*
X150945Y36420D02*
X153857D01*
X148614D02*
X149634D01*
X144391D02*
X145702D01*
X141769D02*
X142935D01*
X139293D02*
X140459D01*
X136381D02*
X137546D01*
X135361D02*
X135507D01*
X132594D02*
X134342D01*
X130555D02*
X131575D01*
X125021D02*
X127642D01*
X121380D02*
X122400D01*
X120069D02*
X120943D01*
X117302D02*
X118467D01*
X114826D02*
X116428D01*
X111331D02*
X113661D01*
X106379D02*
X110457D01*
X151236Y36565D02*
X153857D01*
X148614D02*
X149780D01*
X144537D02*
X145702D01*
X141915D02*
X142935D01*
X139293D02*
X140604D01*
X136526D02*
X137546D01*
X135507D02*
X135653D01*
X132886D02*
X134342D01*
X130555D02*
X131429D01*
X124875D02*
X129390D01*
X121380D02*
X122400D01*
X120069D02*
X120943D01*
X117302D02*
X118467D01*
X114681D02*
X116283D01*
X111331D02*
X113661D01*
X106525D02*
X110457D01*
X151382Y36711D02*
X153712D01*
X148469D02*
X149925D01*
X144537D02*
X145702D01*
X141915D02*
X142935D01*
X139439D02*
X140750D01*
X136526D02*
X137692D01*
X135507D02*
X135653D01*
X133031D02*
X134487D01*
X130410D02*
X131284D01*
X124584D02*
X129390D01*
X121380D02*
X122400D01*
X120069D02*
X120943D01*
X117302D02*
X118322D01*
X114535D02*
X116283D01*
X111331D02*
X113516D01*
X106816D02*
X110457D01*
X151673Y36857D02*
X153712D01*
X148177D02*
X150071D01*
X146575D02*
X146721D01*
X144682D02*
X145702D01*
X141915D02*
X142935D01*
X139439D02*
X140896D01*
X136526D02*
X137692D01*
X133177D02*
X134633D01*
X130410D02*
X131284D01*
X124293D02*
X129390D01*
X123273D02*
X123565D01*
X121380D02*
X122400D01*
X120069D02*
X120943D01*
X117157D02*
X118322D01*
X114535D02*
X116283D01*
X111331D02*
X113516D01*
X106962D02*
X110312D01*
X151964Y37002D02*
X153712D01*
X147886D02*
X150216D01*
X146575D02*
X147012D01*
X144682D02*
X145556D01*
X141915D02*
X142935D01*
X139439D02*
X141187D01*
X136526D02*
X137692D01*
X133177D02*
X134633D01*
X130264D02*
X131138D01*
X123273D02*
X129244D01*
X121380D02*
X122400D01*
X120069D02*
X120943D01*
X117157D02*
X118322D01*
X114389D02*
X116283D01*
X111185D02*
X113370D01*
X107253D02*
X110312D01*
X152255Y37148D02*
X153566D01*
X146575D02*
X150362D01*
X144828D02*
X145410D01*
X142061D02*
X142935D01*
X139439D02*
X141333D01*
X136672D02*
X137837D01*
X133322D02*
X134779D01*
X130264D02*
X131138D01*
X123273D02*
X129244D01*
X121380D02*
X122400D01*
X120069D02*
X120943D01*
X117157D02*
X118322D01*
X114389D02*
X116283D01*
X111185D02*
X113370D01*
X107544D02*
X110312D01*
X152692Y37294D02*
X153420D01*
X146430D02*
X150653D01*
X144973D02*
X145119D01*
X139585D02*
X142935D01*
X136672D02*
X137837D01*
X133468D02*
X134779D01*
X132012D02*
X132303D01*
X130118D02*
X131138D01*
X123273D02*
X129244D01*
X121380D02*
X122400D01*
X120069D02*
X120943D01*
X117157D02*
X118322D01*
X114244D02*
X116283D01*
X111185D02*
X113224D01*
X107690D02*
X110312D01*
X146430Y37439D02*
X150799D01*
X143808D02*
X143954D01*
X139585D02*
X142935D01*
X136672D02*
X137837D01*
X133468D02*
X134924D01*
X132012D02*
X132449D01*
X130118D02*
X130992D01*
X123273D02*
X129099D01*
X121380D02*
X122400D01*
X120069D02*
X120943D01*
X117157D02*
X118176D01*
X114244D02*
X116137D01*
X111185D02*
X113079D01*
X107981D02*
X110166D01*
X146284Y37585D02*
X151090D01*
X143808D02*
X143954D01*
X139585D02*
X142789D01*
X136672D02*
X137837D01*
X133614D02*
X134924D01*
X131866D02*
X132449D01*
X130118D02*
X130992D01*
X123273D02*
X129099D01*
X121380D02*
X122400D01*
X120215D02*
X120943D01*
X119050D02*
X119195D01*
X117157D02*
X118176D01*
X114098D02*
X116137D01*
X111040D02*
X113079D01*
X108273D02*
X110166D01*
X146138Y37731D02*
X150799D01*
X143663D02*
X144100D01*
X139731D02*
X142643D01*
X136818D02*
X137983D01*
X133614D02*
X135070D01*
X131866D02*
X132594D01*
X129973D02*
X130992D01*
X123419D02*
X129099D01*
X121380D02*
X122400D01*
X120215D02*
X120943D01*
X119050D02*
X119195D01*
X117011D02*
X118176D01*
X113953D02*
X116137D01*
X111040D02*
X112933D01*
X108564D02*
X110166D01*
X145993Y37876D02*
X150653D01*
X143663D02*
X144245D01*
X139731D02*
X142643D01*
X136818D02*
X137983D01*
X133759D02*
X135070D01*
X131866D02*
X132740D01*
X129973D02*
X130992D01*
X123419D02*
X129099D01*
X121526D02*
X122400D01*
X120215D02*
X120943D01*
X119050D02*
X119195D01*
X117011D02*
X118176D01*
X113953D02*
X116137D01*
X111040D02*
X112933D01*
X108709D02*
X110020D01*
X145702Y38022D02*
X150362D01*
X143517D02*
X144391D01*
X139731D02*
X142498D01*
X136818D02*
X137983D01*
X133905D02*
X135070D01*
X131866D02*
X132740D01*
X129973D02*
X130992D01*
X123419D02*
X128953D01*
X121526D02*
X122545D01*
X120215D02*
X120943D01*
X119050D02*
X119195D01*
X117011D02*
X118030D01*
X113807D02*
X116137D01*
X111040D02*
X112787D01*
X109001D02*
X110020D01*
X145410Y38167D02*
X150071D01*
X143517D02*
X144682D01*
X141187D02*
X142352D01*
X139731D02*
X140896D01*
X136963D02*
X138128D01*
X133905D02*
X135216D01*
X131866D02*
X132886D01*
X129973D02*
X130992D01*
X123419D02*
X128953D01*
X121526D02*
X122545D01*
X120215D02*
X120943D01*
X119050D02*
X119195D01*
X117157D02*
X118030D01*
X113807D02*
X116137D01*
X110894D02*
X112787D01*
X109292D02*
X110020D01*
X143371Y38313D02*
X149780D01*
X141478D02*
X142206D01*
X139876D02*
X140896D01*
X136963D02*
X138128D01*
X133905D02*
X135216D01*
X131866D02*
X133031D01*
X129827D02*
X130992D01*
X123419D02*
X128953D01*
X121526D02*
X122545D01*
X120215D02*
X120943D01*
X118904D02*
X119195D01*
X113661D02*
X116137D01*
X110894D02*
X112642D01*
X109583D02*
X110020D01*
X143371Y38459D02*
X149488D01*
X139876D02*
X140896D01*
X136963D02*
X138128D01*
X134051D02*
X135216D01*
X131866D02*
X133031D01*
X129827D02*
X130992D01*
X123419D02*
X128953D01*
X121526D02*
X122545D01*
X120215D02*
X120943D01*
X118904D02*
X119195D01*
X113661D02*
X116283D01*
X110894D02*
X112642D01*
X143226Y38604D02*
X149197D01*
X139876D02*
X140896D01*
X137109D02*
X138128D01*
X134051D02*
X135361D01*
X131866D02*
X133031D01*
X129827D02*
X130992D01*
X123565D02*
X128953D01*
X120215D02*
X122545D01*
X118759D02*
X119050D01*
X113516D02*
X116283D01*
X110894D02*
X112496D01*
X143080Y38750D02*
X148906D01*
X139876D02*
X140750D01*
X137109D02*
X138274D01*
X134196D02*
X135361D01*
X131720D02*
X133177D01*
X129827D02*
X130847D01*
X123565D02*
X128953D01*
X120215D02*
X122545D01*
X118759D02*
X118904D01*
X113516D02*
X116137D01*
X110749D02*
X112496D01*
X142935Y38896D02*
X148614D01*
X140022D02*
X140604D01*
X137109D02*
X138274D01*
X134196D02*
X135507D01*
X131720D02*
X133177D01*
X129827D02*
X130847D01*
X123565D02*
X128953D01*
X120215D02*
X122545D01*
X118467D02*
X118759D01*
X113370D02*
X115991D01*
X110749D02*
X112350D01*
X142643Y39041D02*
X148323D01*
X140022D02*
X140167D01*
X137255D02*
X138128D01*
X134196D02*
X135507D01*
X131866D02*
X133322D01*
X129827D02*
X130847D01*
X123565D02*
X128953D01*
X119924D02*
X122545D01*
X113370D02*
X115991D01*
X110749D02*
X112350D01*
X142352Y39187D02*
X148032D01*
X137255D02*
X137983D01*
X134342D02*
X135507D01*
X131866D02*
X133322D01*
X129827D02*
X130847D01*
X123419D02*
X128808D01*
X119778D02*
X122400D01*
X117011D02*
X117302D01*
X113224D02*
X115991D01*
X110603D02*
X112350D01*
X141478Y39332D02*
X147741D01*
X139002D02*
X139148D01*
X137255D02*
X137837D01*
X134342D02*
X135653D01*
X131866D02*
X133322D01*
X129827D02*
X130847D01*
X123419D02*
X128808D01*
X121380D02*
X122108D01*
X119632D02*
X120943D01*
X116865D02*
X117593D01*
X113224D02*
X115846D01*
X110603D02*
X112205D01*
X141333Y39478D02*
X147449D01*
X139002D02*
X139293D01*
X134342D02*
X135653D01*
X131866D02*
X133468D01*
X129682D02*
X130847D01*
X123273D02*
X128808D01*
X119487D02*
X120943D01*
X116720D02*
X117739D01*
X113079D02*
X115846D01*
X110603D02*
X112205D01*
X141041Y39624D02*
X147158D01*
X134487D02*
X135798D01*
X131866D02*
X133468D01*
X129682D02*
X130992D01*
X123273D02*
X128808D01*
X119341D02*
X120943D01*
X116720D02*
X117885D01*
X113079D02*
X115846D01*
X110603D02*
X112059D01*
X140896Y39769D02*
X146721D01*
X139439D02*
X139585D01*
X134487D02*
X135798D01*
X131866D02*
X133614D01*
X129682D02*
X130992D01*
X123128D02*
X128808D01*
X120215D02*
X120943D01*
X119195D02*
X119924D01*
X116720D02*
X117885D01*
X112933D02*
X115846D01*
X110457D02*
X112059D01*
X140459Y39915D02*
X146430D01*
X139439D02*
X139876D01*
X134633D02*
X135798D01*
X131866D02*
X133614D01*
X129682D02*
X130992D01*
X122982D02*
X128808D01*
X120069D02*
X120943D01*
X119050D02*
X119778D01*
X116720D02*
X117885D01*
X112933D02*
X115846D01*
X110457D02*
X111914D01*
X139585Y40061D02*
X146138D01*
X134633D02*
X135944D01*
X131866D02*
X133614D01*
X129682D02*
X130992D01*
X122691D02*
X128808D01*
X120069D02*
X120798D01*
X118904D02*
X119632D01*
X116720D02*
X117885D01*
X113224D02*
X115846D01*
X110457D02*
X111914D01*
X139731Y40206D02*
X145702D01*
X138128D02*
X138274D01*
X134633D02*
X135944D01*
X131866D02*
X133759D01*
X129682D02*
X130992D01*
X122400D02*
X128808D01*
X120069D02*
X120798D01*
X118759D02*
X119487D01*
X116720D02*
X117739D01*
X113661D02*
X115846D01*
X110457D02*
X111768D01*
X139731Y40352D02*
X145410D01*
X137837D02*
X138711D01*
X134779D02*
X135944D01*
X131866D02*
X133759D01*
X129682D02*
X130992D01*
X121671D02*
X128808D01*
X120069D02*
X120798D01*
X118759D02*
X119341D01*
X117157D02*
X117302D01*
X113953D02*
X115846D01*
X110312D02*
X111768D01*
X139731Y40498D02*
X144973D01*
X137692D02*
X138857D01*
X134779D02*
X136090D01*
X131866D02*
X133759D01*
X129827D02*
X130992D01*
X121671D02*
X128808D01*
X119924D02*
X120652D01*
X118613D02*
X119341D01*
X114389D02*
X115846D01*
X110312D02*
X111768D01*
X139731Y40643D02*
X144682D01*
X137692D02*
X138857D01*
X134924D02*
X136090D01*
X131866D02*
X133905D01*
X129827D02*
X130992D01*
X121526D02*
X128808D01*
X119924D02*
X120652D01*
X118613D02*
X119341D01*
X114681D02*
X115991D01*
X110312D02*
X111622D01*
X139731Y40789D02*
X144245D01*
X137692D02*
X138857D01*
X134924D02*
X136090D01*
X131866D02*
X133905D01*
X129827D02*
X130992D01*
X121526D02*
X128808D01*
X119778D02*
X120506D01*
X118467D02*
X119341D01*
X115118D02*
X115991D01*
X110312D02*
X111622D01*
X139731Y40935D02*
X143808D01*
X137692D02*
X138857D01*
X134924D02*
X136090D01*
X131866D02*
X134051D01*
X129827D02*
X130992D01*
X121526D02*
X128808D01*
X118467D02*
X120360D01*
X115555D02*
X116137D01*
X110166D02*
X111622D01*
X139731Y41080D02*
X143371D01*
X137837D02*
X138711D01*
X135070D02*
X136235D01*
X131866D02*
X134051D01*
X129827D02*
X130992D01*
X121380D02*
X128953D01*
X118467D02*
X120215D01*
X115991D02*
X116428D01*
X110166D02*
X111477D01*
X139731Y41226D02*
X142935D01*
X137837D02*
X138565D01*
X135070D02*
X136235D01*
X131866D02*
X134051D01*
X129827D02*
X130992D01*
X121234D02*
X128953D01*
X118613D02*
X119924D01*
X117448D02*
X117593D01*
X116428D02*
X116865D01*
X110166D02*
X111477D01*
X139731Y41371D02*
X142498D01*
X137983D02*
X138420D01*
X135070D02*
X136235D01*
X131866D02*
X134196D01*
X129827D02*
X130992D01*
X121234D02*
X128953D01*
X118759D02*
X119778D01*
X116865D02*
X117593D01*
X110166D02*
X111477D01*
X139585Y41517D02*
X142061D01*
X135070D02*
X136235D01*
X132012D02*
X134196D01*
X129827D02*
X130992D01*
X121089D02*
X128953D01*
X118904D02*
X119487D01*
X117302D02*
X117739D01*
X110020D02*
X111331D01*
X139439Y41663D02*
X141478D01*
X135216D02*
X136381D01*
X132012D02*
X134196D01*
X129827D02*
X130992D01*
X120943D02*
X128953D01*
X110020D02*
X111331D01*
X139293Y41808D02*
X141041D01*
X135216D02*
X136381D01*
X132012D02*
X134196D01*
X129827D02*
X131138D01*
X120798D02*
X128953D01*
X110020D02*
X111331D01*
X139148Y41954D02*
X140459D01*
X135216D02*
X136381D01*
X132012D02*
X134342D01*
X129827D02*
X131138D01*
X120652D02*
X128953D01*
X110020D02*
X111185D01*
X139002Y42100D02*
X139876D01*
X135361D02*
X136526D01*
X132012D02*
X134342D01*
X129827D02*
X131138D01*
X120360D02*
X128953D01*
X110020D02*
X111185D01*
X138711Y42245D02*
X139293D01*
X137400D02*
X137546D01*
X135361D02*
X136526D01*
X132012D02*
X134342D01*
X129827D02*
X131138D01*
X120069D02*
X128953D01*
X109875D02*
X111185D01*
X137546Y42391D02*
X138565D01*
X135361D02*
X136526D01*
X132012D02*
X134487D01*
X129827D02*
X131138D01*
X120798D02*
X128953D01*
X109875D02*
X111040D01*
X137546Y42537D02*
X137983D01*
X135361D02*
X136526D01*
X132012D02*
X134487D01*
X129827D02*
X131138D01*
X121380D02*
X128953D01*
X110020D02*
X110894D01*
X135507Y42682D02*
X136672D01*
X132012D02*
X134487D01*
X129827D02*
X131138D01*
X122108D02*
X128953D01*
X135507Y42828D02*
X136672D01*
X132157D02*
X134487D01*
X129827D02*
X131138D01*
X123128D02*
X128953D01*
X135507Y42973D02*
X136672D01*
X132157D02*
X134633D01*
X129827D02*
X131138D01*
X124147D02*
X128953D01*
X135507Y43119D02*
X136818D01*
X132157D02*
X133905D01*
X129827D02*
X131284D01*
X125458D02*
X128953D01*
X135653Y43265D02*
X136818D01*
X129827D02*
X131284D01*
X127206D02*
X128953D01*
X135653Y43410D02*
X136818D01*
X129827D02*
X131284D01*
X135653Y43556D02*
X136818D01*
X129827D02*
X131284D01*
X135653Y43702D02*
X136963D01*
X129973D02*
X131284D01*
X135653Y43847D02*
X136963D01*
X129973D02*
X131284D01*
X135798Y43993D02*
X136963D01*
X129973D02*
X131284D01*
X135798Y44138D02*
X136963D01*
X129973D02*
X131284D01*
X135798Y44284D02*
X136963D01*
X129973D02*
X131284D01*
X135798Y44430D02*
X136963D01*
X129973D02*
X131429D01*
X135798Y44576D02*
X136963D01*
X129973D02*
X131429D01*
X135798Y44721D02*
X137109D01*
X129973D02*
X131429D01*
X135944Y44867D02*
X137109D01*
X129973D02*
X131429D01*
X135944Y45012D02*
X137109D01*
X129973D02*
X131429D01*
X135944Y45158D02*
X136963D01*
X129973D02*
X131429D01*
X135944Y45304D02*
X136963D01*
X129973D02*
X131429D01*
X135944Y45449D02*
X136672D01*
X129973D02*
X131429D01*
X129973Y45595D02*
X131429D01*
X129973Y45741D02*
X131429D01*
X129973Y45886D02*
X130847D01*
D14*
X-264450Y95750D02*
G03*
X-264450Y-95750I0J-95750D01*
G01*
X264450D02*
G03*
X264450Y95750I0J95750D01*
G01*
X-264450Y-95750D02*
X264450D01*
X-264450Y95750D02*
X264450D01*
M02*
