G04*
G04 #@! TF.GenerationSoftware,Altium Limited,Altium Designer,19.0.15 (446)*
G04*
G04 Layer_Physical_Order=2*
G04 Layer_Color=16711680*
%FSLAX44Y44*%
%MOMM*%
G71*
G01*
G75*
%ADD14C,0.2000*%
%ADD15C,4.5000*%
%ADD18R,0.1000X0.1000*%
%ADD19R,1.8000X1.0500*%
G36*
X278136Y92263D02*
X287113Y90478D01*
X295873Y87820D01*
X304329Y84318D01*
X312402Y80003D01*
X320013Y74917D01*
X327088Y69110D01*
X333561Y62638D01*
X339367Y55563D01*
X344453Y47952D01*
X348768Y39879D01*
X352270Y31423D01*
X354927Y22663D01*
X356713Y13686D01*
X357610Y4577D01*
Y-4577D01*
X356713Y-13686D01*
X354927Y-22663D01*
X352270Y-31423D01*
X348768Y-39879D01*
X344453Y-47952D01*
X339367Y-55563D01*
X333560Y-62638D01*
X327088Y-69111D01*
X320013Y-74917D01*
X312402Y-80003D01*
X304329Y-84318D01*
X295873Y-87820D01*
X287113Y-90478D01*
X278136Y-92263D01*
X269027Y-93160D01*
X-269027D01*
X-278136Y-92263D01*
X-287113Y-90478D01*
X-295873Y-87820D01*
X-304329Y-84318D01*
X-312402Y-80003D01*
X-320013Y-74917D01*
X-327088Y-69110D01*
X-333561Y-62638D01*
X-339367Y-55563D01*
X-344453Y-47952D01*
X-348768Y-39879D01*
X-352270Y-31423D01*
X-354927Y-22663D01*
X-356713Y-13686D01*
X-357610Y-4577D01*
Y4577D01*
X-356713Y13686D01*
X-354927Y22663D01*
X-352270Y31423D01*
X-348768Y39879D01*
X-344453Y47952D01*
X-339367Y55563D01*
X-333560Y62638D01*
X-327088Y69111D01*
X-320013Y74917D01*
X-312402Y80003D01*
X-304329Y84318D01*
X-295873Y87820D01*
X-287113Y90478D01*
X-278136Y92263D01*
X-269027Y93160D01*
X269027D01*
X278136Y92263D01*
D02*
G37*
%LPC*%
G36*
X0Y32242D02*
X-4125Y31836D01*
X-8091Y30633D01*
X-11746Y28679D01*
X-14950Y26049D01*
X-17579Y22846D01*
X-19533Y19191D01*
X-20736Y15225D01*
X-21142Y11100D01*
X-20736Y6975D01*
X-19533Y3009D01*
X-17579Y-646D01*
X-14950Y-3850D01*
X-11746Y-6479D01*
X-8091Y-8432D01*
X-4125Y-9636D01*
X0Y-10042D01*
X4125Y-9636D01*
X8091Y-8432D01*
X11746Y-6479D01*
X14950Y-3850D01*
X17579Y-646D01*
X19533Y3009D01*
X20736Y6975D01*
X21142Y11100D01*
X20736Y15225D01*
X19533Y19191D01*
X17579Y22846D01*
X14950Y26049D01*
X11746Y28679D01*
X8091Y30633D01*
X4125Y31836D01*
X0Y32242D01*
D02*
G37*
G36*
X-100000D02*
X-104125Y31836D01*
X-108091Y30633D01*
X-111746Y28679D01*
X-114950Y26049D01*
X-117579Y22846D01*
X-119532Y19191D01*
X-120736Y15225D01*
X-121142Y11100D01*
X-120736Y6975D01*
X-119532Y3009D01*
X-117579Y-646D01*
X-114950Y-3850D01*
X-111746Y-6479D01*
X-108091Y-8432D01*
X-104125Y-9636D01*
X-100000Y-10042D01*
X-95875Y-9636D01*
X-91909Y-8432D01*
X-88254Y-6479D01*
X-85050Y-3850D01*
X-82421Y-646D01*
X-80468Y3009D01*
X-79264Y6975D01*
X-78858Y11100D01*
X-79264Y15225D01*
X-80468Y19191D01*
X-82421Y22846D01*
X-85050Y26049D01*
X-88254Y28679D01*
X-91909Y30633D01*
X-95875Y31836D01*
X-100000Y32242D01*
D02*
G37*
G36*
X-220000D02*
X-224125Y31836D01*
X-228091Y30633D01*
X-231746Y28679D01*
X-234949Y26049D01*
X-237579Y22846D01*
X-239533Y19191D01*
X-240736Y15225D01*
X-241142Y11100D01*
X-240736Y6975D01*
X-239533Y3009D01*
X-237579Y-646D01*
X-234949Y-3850D01*
X-231746Y-6479D01*
X-228091Y-8432D01*
X-224125Y-9636D01*
X-220000Y-10042D01*
X-215875Y-9636D01*
X-211909Y-8432D01*
X-208254Y-6479D01*
X-205051Y-3850D01*
X-202421Y-646D01*
X-200467Y3009D01*
X-199264Y6975D01*
X-198858Y11100D01*
X-199264Y15225D01*
X-200467Y19191D01*
X-202421Y22846D01*
X-205051Y26049D01*
X-208254Y28679D01*
X-211909Y30633D01*
X-215875Y31836D01*
X-220000Y32242D01*
D02*
G37*
G36*
X240000Y-16395D02*
X238032Y-16654D01*
X236197Y-17414D01*
X234622Y-18622D01*
X233414Y-20198D01*
X232654Y-22032D01*
X232395Y-24000D01*
X232654Y-25968D01*
X233414Y-27803D01*
X234622Y-29378D01*
X236197Y-30586D01*
X238032Y-31346D01*
X240000Y-31605D01*
X241968Y-31346D01*
X243803Y-30586D01*
X245378Y-29378D01*
X246586Y-27803D01*
X247346Y-25968D01*
X247605Y-24000D01*
X247346Y-22032D01*
X246586Y-20198D01*
X245378Y-18622D01*
X243803Y-17414D01*
X241968Y-16654D01*
X240000Y-16395D01*
D02*
G37*
%LPD*%
D14*
X-264450Y95750D02*
G03*
X-264450Y-95750I0J-95750D01*
G01*
X264450D02*
G03*
X264450Y95750I0J95750D01*
G01*
X-264450Y-95750D02*
X264450D01*
X-264450Y95750D02*
X264450D01*
D15*
X-322650Y0D02*
D03*
X322650D02*
D03*
D18*
X240000Y-24000D02*
D03*
D19*
X0Y11100D02*
D03*
X-100000D02*
D03*
X-220000D02*
D03*
M02*
