G04*
G04 #@! TF.GenerationSoftware,Altium Limited,Altium Designer,18.1.7 (191)*
G04*
G04 Layer_Color=16711935*
%FSLAX44Y44*%
%MOMM*%
G71*
G01*
G75*
%ADD14C,0.2540*%
%ADD54C,1.8532*%
%ADD55R,1.8532X1.8532*%
%ADD56C,1.7272*%
%ADD57C,2.3032*%
%ADD58R,1.8532X1.8532*%
%ADD59R,2.0032X2.0032*%
%ADD60C,2.0032*%
%ADD61C,1.7032*%
%ADD62C,1.1032*%
%ADD63C,0.9032*%
D14*
X480000Y761900D02*
X521900D01*
X521900Y468100D02*
X521900Y761900D01*
X480000Y468100D02*
X521900D01*
X480000D02*
X480000Y761900D01*
X0Y0D02*
Y900000D01*
X1210000D01*
X1210000Y0D01*
X0D02*
X1210000D01*
D54*
X830000Y577500D02*
D03*
X147500Y478100D02*
D03*
X1040000Y577500D02*
D03*
X147500Y675000D02*
D03*
D55*
X830000Y652500D02*
D03*
X1040000D02*
D03*
D56*
X462500Y870000D02*
D03*
X537500D02*
D03*
D57*
X1138100Y751900D02*
D03*
X1112700D02*
D03*
X1087300D02*
D03*
X1061900D02*
D03*
X1138100Y828100D02*
D03*
X1112700D02*
D03*
X1087300D02*
D03*
X1061900D02*
D03*
X1138100Y401900D02*
D03*
X1112700D02*
D03*
X1087300D02*
D03*
X1061900D02*
D03*
X1138100Y478100D02*
D03*
X1112700D02*
D03*
X1087300D02*
D03*
X1061900D02*
D03*
D58*
X72500D02*
D03*
Y675000D02*
D03*
D59*
X640000Y440000D02*
D03*
D60*
Y490000D02*
D03*
Y540000D02*
D03*
Y590000D02*
D03*
Y640000D02*
D03*
Y690000D02*
D03*
Y740000D02*
D03*
Y790000D02*
D03*
X290000D02*
D03*
Y740000D02*
D03*
Y690000D02*
D03*
Y640000D02*
D03*
Y590000D02*
D03*
Y540000D02*
D03*
Y490000D02*
D03*
Y440000D02*
D03*
D61*
X298000Y330000D02*
D03*
X148000D02*
D03*
D62*
X971000Y38000D02*
D03*
X1120000Y170000D02*
D03*
X1176000Y719000D02*
D03*
X976000Y720000D02*
D03*
X778000Y97000D02*
D03*
Y113000D02*
D03*
X641500Y223000D02*
D03*
X1024500Y218000D02*
D03*
X975000D02*
D03*
X1180000Y30000D02*
D03*
Y70000D02*
D03*
X1010000Y110000D02*
D03*
Y190000D02*
D03*
X939000Y328250D02*
D03*
X971000Y66000D02*
D03*
X885500Y69000D02*
D03*
X657500Y223000D02*
D03*
X613000Y264600D02*
D03*
X763000Y210750D02*
D03*
X856000Y235000D02*
D03*
X921000Y445400D02*
D03*
Y796600D02*
D03*
X869400Y475400D02*
D03*
X891170D02*
D03*
Y455400D02*
D03*
X869400D02*
D03*
X870400Y825400D02*
D03*
X892170D02*
D03*
Y805400D02*
D03*
X870400D02*
D03*
X260000Y225000D02*
D03*
X281770D02*
D03*
Y245000D02*
D03*
X260000D02*
D03*
X521900Y260000D02*
D03*
X501000D02*
D03*
X480000D02*
D03*
X70000Y780000D02*
D03*
X162500D02*
D03*
X1145000Y582942D02*
D03*
X935000Y586925D02*
D03*
X870000Y159050D02*
D03*
X858740Y146350D02*
D03*
X955000Y281350D02*
D03*
X947000Y133650D02*
D03*
X1023500Y307000D02*
D03*
D63*
X1120000Y220250D02*
D03*
M02*
