M48
;Layer_Color=9474304
;FILE_FORMAT=4:4
METRIC,LZ
;TYPE=PLATED
T1F00S00C0.3000
T2F00S00C0.8000
T3F00S00C0.9000
T4F00S00C1.1000
T5F00S00C1.2000
T6F00S00C1.4500
%
T01
X008855Y00069
X00971Y00066
Y00038
X0118Y0003
Y0007
X0112Y0017
Y0022025
X010245Y00218
X0101Y0019
X00975Y00218
X00955Y0028135
X00939Y0032825
X010235Y00307
X0101Y0011
X00947Y0013365
X0085874Y0014635
X0087Y0015905
X00856Y00235
X00763Y0021075
X00778Y00113
Y00097
X008694Y004554
Y004754
X0089117
Y004554
X00921Y004454
X006575Y00223
X006415
X00613Y002646
X005219Y0026
X00501
X0048
X0028177Y00245
Y00225
X0026
Y00245
X001625Y0078
X0007
X008704Y008054
Y008254
X0089217
Y008054
X00921Y007966
X00976Y0072
X00935Y00586925
X01145Y00582942
X01176Y00719
T02
X004625Y0087
X005375
T03
X00298Y0033
X00148
T04
X000725Y004781
X001475
Y00675
X000725
X0083Y006525
Y005775
X0104
Y006525
T05
X0064Y0044
Y0049
X0029
Y0044
Y0054
Y0059
Y0064
Y0069
Y0074
Y0079
X0064
Y0074
Y0069
Y0064
Y0059
Y0054
T06
X011127Y004019
X011381
Y004781
X011127
X010873
X010619
Y004019
X010873
Y007519
X010619
Y008281
X010873
X011127
X011381
Y007519
X011127
M30
