G04*
G04 #@! TF.GenerationSoftware,Altium Limited,Altium Designer,18.1.7 (191)*
G04*
G04 Layer_Color=65535*
%FSLAX44Y44*%
%MOMM*%
G71*
G01*
G75*
%ADD10C,0.6000*%
%ADD11C,0.2500*%
%ADD12C,0.2000*%
%ADD13C,0.1000*%
%ADD14C,0.2540*%
%ADD15C,0.1270*%
%ADD16C,0.4000*%
%ADD17C,0.3000*%
%ADD18C,0.1500*%
D10*
X895250Y97500D02*
G03*
X895250Y97500I-3000J0D01*
G01*
D11*
X915750Y87050D02*
G03*
X915750Y87050I-1250J0D01*
G01*
X272750Y27050D02*
G03*
X272750Y27050I-1250J0D01*
G01*
X337250Y131600D02*
G03*
X337250Y131600I-1250J0D01*
G01*
X977250Y753400D02*
G03*
X977250Y753400I-1250J0D01*
G01*
X977750Y403000D02*
G03*
X977750Y403000I-1250J0D01*
G01*
X883750Y754350D02*
G03*
X883750Y754350I-1250J0D01*
G01*
X882750Y404350D02*
G03*
X882750Y404350I-1250J0D01*
G01*
X272750Y173350D02*
G03*
X272750Y173350I-1250J0D01*
G01*
X337350Y276600D02*
G03*
X337350Y276600I-1250J0D01*
G01*
X674250Y119400D02*
G03*
X674250Y119400I-1250J0D01*
G01*
X977750Y302550D02*
G03*
X977750Y302550I-1250J0D01*
G01*
D12*
X920000Y615000D02*
G03*
X920000Y615000I-90000J0D01*
G01*
X1130000D02*
G03*
X1130000Y615000I-90000J0D01*
G01*
X879500Y209500D02*
X880500D01*
X879500Y220500D02*
X880500D01*
X1114500Y195000D02*
Y196000D01*
X1125500Y195000D02*
Y196000D01*
X1114500Y244500D02*
Y245500D01*
X1125500Y244500D02*
Y245500D01*
X1114500Y294000D02*
Y295000D01*
X1125500Y294000D02*
Y295000D01*
X927500Y609500D02*
Y620500D01*
X942500Y609500D02*
Y620500D01*
X857750Y192500D02*
X902250D01*
X857750Y87500D02*
X902250D01*
X857750D02*
Y192500D01*
X902250Y87500D02*
Y192500D01*
X944500Y306000D02*
Y307000D01*
X933500Y306000D02*
Y307000D01*
X909500Y306000D02*
Y307000D01*
X920500Y306000D02*
Y307000D01*
X906000Y74750D02*
X907000D01*
X906000Y63250D02*
X907000D01*
X774500Y314500D02*
Y315500D01*
X785500Y314500D02*
Y315500D01*
X771000Y200500D02*
X772000D01*
X771000Y189500D02*
X772000D01*
X979500Y84500D02*
X980500D01*
X979500Y95500D02*
X980500D01*
X834500Y220500D02*
X835500D01*
X834500Y209500D02*
X835500D01*
X979500Y144500D02*
X980500D01*
X979500Y155500D02*
X980500D01*
X926500Y773000D02*
Y774000D01*
X915500Y773000D02*
Y774000D01*
X926500Y422600D02*
Y423600D01*
X915500Y422600D02*
Y423600D01*
X380500Y235000D02*
Y236000D01*
X369500Y235000D02*
Y236000D01*
X380500Y89500D02*
Y90500D01*
X369500Y89500D02*
Y90500D01*
X315500Y226000D02*
Y227000D01*
X304500Y226000D02*
Y227000D01*
X315500Y79500D02*
Y80500D01*
X304500Y79500D02*
Y80500D01*
X981000Y46500D02*
Y57500D01*
X996000Y46500D02*
Y57500D01*
X320000Y45750D02*
X328000D01*
X320000Y30250D02*
X328000D01*
X366000Y32502D02*
X367000D01*
X366000Y43502D02*
X367000D01*
X215000Y10700D02*
X236500D01*
X215000Y114700D02*
X236500D01*
Y10700D02*
Y114700D01*
X360150Y112000D02*
Y128000D01*
X344550Y112000D02*
X360150D01*
X344550Y128000D02*
X360150D01*
X344550Y112000D02*
Y128000D01*
X337000Y87000D02*
Y90000D01*
X353000Y96500D02*
Y103000D01*
X345100D02*
X353000D01*
X345100Y74000D02*
X353000D01*
Y80500D01*
X951850Y757000D02*
Y773000D01*
X967450D01*
X951850Y757000D02*
X967450D01*
Y773000D01*
X952350Y406600D02*
Y422600D01*
X967950D01*
X952350Y406600D02*
X967950D01*
Y422600D01*
X1137500Y609500D02*
Y620500D01*
X1152500Y609500D02*
Y620500D01*
X826000Y738000D02*
X847500D01*
X826000Y842000D02*
X847500D01*
Y738000D02*
Y842000D01*
X825000Y388000D02*
X846500D01*
X825000Y492000D02*
X846500D01*
Y388000D02*
Y492000D01*
X320000Y192200D02*
X328000D01*
X320000Y176700D02*
X328000D01*
X967000Y745500D02*
X968000D01*
X967000Y734500D02*
X968000D01*
X967000Y395100D02*
X968000D01*
X967000Y384100D02*
X968000D01*
X366000Y178950D02*
X367000D01*
X366000Y189950D02*
X367000D01*
X215000Y157000D02*
X236500D01*
X215000Y261000D02*
X236500D01*
Y157000D02*
Y261000D01*
X360250Y257000D02*
Y273000D01*
X344650Y257000D02*
X360250D01*
X344650Y273000D02*
X360250D01*
X344650Y257000D02*
Y273000D01*
X337550Y233500D02*
Y236500D01*
X353550Y243000D02*
Y249500D01*
X345650D02*
X353550D01*
X345650Y220500D02*
X353550D01*
Y227000D01*
X895500Y306000D02*
Y307000D01*
X884500Y306000D02*
Y307000D01*
X1150750Y242500D02*
Y243500D01*
X1139250Y242500D02*
Y243500D01*
X979500Y195750D02*
X980500D01*
X979500Y184250D02*
X980500D01*
X133000Y375000D02*
X313000D01*
X133000Y285000D02*
X313000D01*
X133000D02*
Y375000D01*
X313000Y285000D02*
Y375000D01*
X771500Y166250D02*
X772500D01*
X771500Y177750D02*
X772500D01*
X595500Y98000D02*
Y99000D01*
X584500Y98000D02*
Y99000D01*
X639500Y171950D02*
X659500D01*
X639500Y121950D02*
X659500D01*
X639500D02*
Y171950D01*
X659500Y121950D02*
Y171950D01*
X649000Y192700D02*
X650000D01*
X649000Y181200D02*
X650000D01*
X649000Y212700D02*
X650000D01*
X649000Y201200D02*
X650000D01*
X979500Y104500D02*
X980500D01*
X979500Y115500D02*
X980500D01*
X979500Y175750D02*
X980500D01*
X979500Y164250D02*
X980500D01*
X834500Y240750D02*
X835500D01*
X834500Y229250D02*
X835500D01*
X1004250Y157500D02*
Y158500D01*
X1015750Y157500D02*
Y158500D01*
X979500Y135750D02*
X980500D01*
X979500Y124250D02*
X980500D01*
X990000Y250000D02*
X1010000D01*
X990000Y300000D02*
X1010000D01*
Y250000D02*
Y300000D01*
X990000Y250000D02*
Y300000D01*
X1055000Y275500D02*
X1056000D01*
X1055000Y286500D02*
X1056000D01*
X1055000Y250450D02*
X1056000D01*
X1055000Y261450D02*
X1056000D01*
X999500Y231250D02*
X1000500D01*
X999500Y242750D02*
X1000500D01*
X999500Y212250D02*
X1000500D01*
X999500Y223750D02*
X1000500D01*
X800750Y104500D02*
Y105500D01*
X789250Y104500D02*
Y105500D01*
D13*
X326400Y98660D02*
G03*
X326400Y98660I-500J0D01*
G01*
X326950Y245160D02*
G03*
X326950Y245160I-500J0D01*
G01*
D14*
X190000Y478100D02*
G03*
X190000Y478100I-80000J0D01*
G01*
Y675000D02*
G03*
X190000Y675000I-80000J0D01*
G01*
X301000Y31650D02*
Y44350D01*
X1055000Y835000D02*
X1145002D01*
Y745000D02*
Y835000D01*
X1055000Y745000D02*
X1145002D01*
X1055000D02*
Y835000D01*
X301000Y178100D02*
Y190800D01*
X1055000Y485000D02*
X1145002D01*
Y395000D02*
Y485000D01*
X1055000Y395000D02*
X1145002D01*
X1055000D02*
Y485000D01*
X436752Y75407D02*
X446909D01*
X441830D01*
Y60172D01*
X451987Y72868D02*
X454526Y75407D01*
X459605D01*
X462144Y72868D01*
Y70329D01*
X459605Y67790D01*
X457065D01*
X459605D01*
X462144Y65250D01*
Y62711D01*
X459605Y60172D01*
X454526D01*
X451987Y62711D01*
X404748Y209265D02*
X414905D01*
X409826D01*
Y194030D01*
X430140D02*
X419983D01*
X430140Y204187D01*
Y206726D01*
X427601Y209265D01*
X422522D01*
X419983Y206726D01*
X225926Y869365D02*
X236083D01*
X231004D01*
Y854130D01*
X241161D02*
X246239D01*
X243700D01*
Y869365D01*
X241161Y866826D01*
X751465Y853629D02*
Y863786D01*
X748926Y866325D01*
X743847D01*
X741308Y863786D01*
Y853629D01*
X743847Y851090D01*
X748926D01*
X746386Y856168D02*
X751465Y851090D01*
X748926D02*
X751465Y853629D01*
X764161Y851090D02*
Y866325D01*
X756543Y858708D01*
X766700D01*
X750571Y503627D02*
Y513784D01*
X748031Y516323D01*
X742953D01*
X740414Y513784D01*
Y503627D01*
X742953Y501088D01*
X748031D01*
X745492Y506166D02*
X750571Y501088D01*
X748031D02*
X750571Y503627D01*
X755649Y513784D02*
X758188Y516323D01*
X763267D01*
X765806Y513784D01*
Y511245D01*
X763267Y508705D01*
X760727D01*
X763267D01*
X765806Y506166D01*
Y503627D01*
X763267Y501088D01*
X758188D01*
X755649Y503627D01*
X1041749Y111823D02*
X1036670D01*
X1039210D01*
Y99127D01*
X1036670Y96588D01*
X1034131D01*
X1031592Y99127D01*
X1046827Y96588D02*
Y111823D01*
X1054445D01*
X1056984Y109284D01*
Y104206D01*
X1054445Y101666D01*
X1046827D01*
X1062062Y96588D02*
X1067141D01*
X1064601D01*
Y111823D01*
X1062062Y109284D01*
X1084915Y111823D02*
X1079836Y109284D01*
X1074758Y104206D01*
Y99127D01*
X1077297Y96588D01*
X1082376D01*
X1084915Y99127D01*
Y101666D01*
X1082376Y104206D01*
X1074758D01*
X1063113Y512541D02*
X1058034D01*
X1060574D01*
Y499845D01*
X1058034Y497306D01*
X1055495D01*
X1052956Y499845D01*
X1068191Y497306D02*
Y512541D01*
X1075809D01*
X1078348Y510002D01*
Y504924D01*
X1075809Y502384D01*
X1068191D01*
X1083426Y497306D02*
X1088504D01*
X1085965D01*
Y512541D01*
X1083426Y510002D01*
X1106279Y512541D02*
X1096122D01*
Y504924D01*
X1101200Y507463D01*
X1103740D01*
X1106279Y504924D01*
Y499845D01*
X1103740Y497306D01*
X1098661D01*
X1096122Y499845D01*
X51685Y887901D02*
X46606D01*
X49145D01*
Y875205D01*
X46606Y872666D01*
X44067D01*
X41528Y875205D01*
X56763Y872666D02*
Y887901D01*
X64381D01*
X66920Y885362D01*
Y880284D01*
X64381Y877744D01*
X56763D01*
X71998Y875205D02*
X74537Y872666D01*
X79616D01*
X82155Y875205D01*
Y885362D01*
X79616Y887901D01*
X74537D01*
X71998Y885362D01*
Y882823D01*
X74537Y880284D01*
X82155D01*
X1063113Y862553D02*
X1058034D01*
X1060574D01*
Y849857D01*
X1058034Y847318D01*
X1055495D01*
X1052956Y849857D01*
X1068191Y847318D02*
Y862553D01*
X1075809D01*
X1078348Y860014D01*
Y854936D01*
X1075809Y852396D01*
X1068191D01*
X1093583Y862553D02*
X1088504Y860014D01*
X1083426Y854936D01*
Y849857D01*
X1085965Y847318D01*
X1091044D01*
X1093583Y849857D01*
Y852396D01*
X1091044Y854936D01*
X1083426D01*
X216531Y334996D02*
X213992Y337535D01*
X208913D01*
X206374Y334996D01*
Y324839D01*
X208913Y322300D01*
X213992D01*
X216531Y324839D01*
X221609Y322300D02*
X226687D01*
X224148D01*
Y337535D01*
X221609Y334996D01*
X234305Y322300D02*
X239383D01*
X236844D01*
Y337535D01*
X234305Y334996D01*
X1147949Y655544D02*
X1145409Y658083D01*
X1140331D01*
X1137792Y655544D01*
Y645387D01*
X1140331Y642848D01*
X1145409D01*
X1147949Y645387D01*
X1163184Y658083D02*
X1153027D01*
Y650465D01*
X1158105Y653005D01*
X1160645D01*
X1163184Y650465D01*
Y645387D01*
X1160645Y642848D01*
X1155566D01*
X1153027Y645387D01*
X935157Y655624D02*
X932617Y658163D01*
X927539D01*
X925000Y655624D01*
Y645467D01*
X927539Y642928D01*
X932617D01*
X935157Y645467D01*
X947853Y642928D02*
Y658163D01*
X940235Y650546D01*
X950392D01*
X1037459Y627844D02*
X1034920Y630383D01*
X1029841D01*
X1027302Y627844D01*
Y617687D01*
X1029841Y615148D01*
X1034920D01*
X1037459Y617687D01*
X1042537Y627844D02*
X1045076Y630383D01*
X1050155D01*
X1052694Y627844D01*
Y625305D01*
X1050155Y622766D01*
X1047615D01*
X1050155D01*
X1052694Y620226D01*
Y617687D01*
X1050155Y615148D01*
X1045076D01*
X1042537Y617687D01*
X827401Y627844D02*
X824862Y630383D01*
X819783D01*
X817244Y627844D01*
Y617687D01*
X819783Y615148D01*
X824862D01*
X827401Y617687D01*
X842636Y615148D02*
X832479D01*
X842636Y625305D01*
Y627844D01*
X840097Y630383D01*
X835018D01*
X832479Y627844D01*
X97412Y666161D02*
X94873Y663622D01*
Y658543D01*
X97412Y656004D01*
X107569D01*
X110108Y658543D01*
Y663622D01*
X107569Y666161D01*
X110108Y671239D02*
Y676317D01*
Y673778D01*
X94873D01*
X97412Y671239D01*
X94873Y683935D02*
X110108D01*
Y691553D01*
X107569Y694092D01*
X105030D01*
X102491D01*
X99951Y691553D01*
Y683935D01*
X97412Y469175D02*
X94873Y466636D01*
Y461557D01*
X97412Y459018D01*
X107569D01*
X110108Y461557D01*
Y466636D01*
X107569Y469175D01*
X110108Y474253D02*
Y479331D01*
Y476792D01*
X94873D01*
X97412Y474253D01*
X99951Y489488D02*
Y494566D01*
X102491Y497106D01*
X110108D01*
Y489488D01*
X107569Y486949D01*
X105030Y489488D01*
Y497106D01*
X480000Y761900D02*
X521900D01*
X521900Y468100D02*
X521900Y761900D01*
X480000Y468100D02*
X521900D01*
X480000D02*
X480000Y761900D01*
X0Y0D02*
Y900000D01*
X1210000D01*
X1210000Y0D01*
X0D02*
X1210000D01*
D15*
X1153001Y305000D02*
G03*
X1153001Y305000I-8001J0D01*
G01*
Y280000D02*
G03*
X1153001Y280000I-8001J0D01*
G01*
Y185000D02*
G03*
X1153001Y185000I-8001J0D01*
G01*
D16*
X653500Y129950D02*
G03*
X653500Y129950I-2000J0D01*
G01*
X1000000Y292000D02*
G03*
X1000000Y292000I-2000J0D01*
G01*
D17*
X225000Y845000D02*
X705000D01*
X225000Y385000D02*
Y845000D01*
X705000Y410000D02*
Y845000D01*
X680000Y385000D02*
X705000Y410000D01*
X225000Y385000D02*
X680000D01*
D18*
X829502Y710000D02*
Y719997D01*
X824504Y714998D02*
X834501D01*
X25250Y477972D02*
X15253D01*
X20252Y472974D02*
Y482971D01*
X1039502Y710000D02*
Y719997D01*
X1034504Y714998D02*
X1044501D01*
X25250Y674872D02*
X15253D01*
X20252Y669874D02*
Y679871D01*
M02*
