G04*
G04 #@! TF.GenerationSoftware,Altium Limited,Altium Designer,18.1.7 (191)*
G04*
G04 Layer_Color=8421504*
%FSLAX44Y44*%
%MOMM*%
G71*
G01*
G75*
%ADD14C,0.2540*%
%ADD19R,1.7000X0.9500*%
%ADD20O,1.6500X0.6000*%
%ADD21R,1.3000X0.8500*%
%ADD22R,0.9500X1.3500*%
%ADD23R,0.8500X1.3000*%
%ADD24R,0.9000X1.4000*%
%ADD25R,3.5000X0.9500*%
%ADD26R,8.2000X10.4500*%
%ADD27R,0.9100X1.2200*%
%ADD28R,1.1100X0.8000*%
%ADD29R,6.0000X2.0000*%
%ADD30R,3.5000X2.0000*%
%ADD31R,1.2500X1.5000*%
%ADD32R,1.5000X1.2500*%
%ADD33R,1.7800X0.7500*%
%ADD34R,6.3500X3.1700*%
%ADD35R,1.3500X0.9500*%
%ADD36R,0.9600X0.6600*%
%ADD37O,1.9000X0.6000*%
D14*
X480000Y761900D02*
X521900D01*
X521900Y468100D02*
X521900Y761900D01*
X480000Y468100D02*
X521900D01*
X480000D02*
X480000Y761900D01*
X0Y0D02*
Y900000D01*
X1210000D01*
X1210000Y0D01*
X0D02*
X1210000D01*
D19*
X935000Y601000D02*
D03*
Y629000D02*
D03*
X988500Y38000D02*
D03*
Y66000D02*
D03*
X1145000Y601000D02*
D03*
Y629000D02*
D03*
D20*
X845500Y184450D02*
D03*
Y171750D02*
D03*
Y159050D02*
D03*
Y146350D02*
D03*
Y133650D02*
D03*
Y120950D02*
D03*
Y108250D02*
D03*
Y95550D02*
D03*
X914500Y184450D02*
D03*
Y171750D02*
D03*
Y159050D02*
D03*
Y146350D02*
D03*
Y133650D02*
D03*
Y120950D02*
D03*
Y108250D02*
D03*
Y95550D02*
D03*
D21*
X939000Y315000D02*
D03*
Y298000D02*
D03*
X915000D02*
D03*
Y315000D02*
D03*
X780000Y306500D02*
D03*
Y323500D02*
D03*
X921000Y782000D02*
D03*
Y765000D02*
D03*
Y431600D02*
D03*
Y414600D02*
D03*
X375000Y244000D02*
D03*
Y227000D02*
D03*
Y98500D02*
D03*
Y81500D02*
D03*
X310000Y235000D02*
D03*
Y218000D02*
D03*
Y88500D02*
D03*
Y71500D02*
D03*
X890000Y315000D02*
D03*
Y298000D02*
D03*
X590000Y107000D02*
D03*
Y90000D02*
D03*
D22*
X898500Y69000D02*
D03*
X914500D02*
D03*
X972000Y190000D02*
D03*
X988000D02*
D03*
X780000Y172000D02*
D03*
X764000D02*
D03*
X641500Y186950D02*
D03*
X657500D02*
D03*
X641500Y206950D02*
D03*
X657500D02*
D03*
X972000Y170000D02*
D03*
X988000D02*
D03*
X827000Y235000D02*
D03*
X843000D02*
D03*
X972000Y130000D02*
D03*
X988000D02*
D03*
X1008000Y237000D02*
D03*
X992000D02*
D03*
X1008000Y218000D02*
D03*
X992000D02*
D03*
D23*
X763000Y195000D02*
D03*
X780000D02*
D03*
X988500Y90000D02*
D03*
X971500D02*
D03*
X826500Y215000D02*
D03*
X843500D02*
D03*
X988500Y150000D02*
D03*
X971500D02*
D03*
X375000Y38002D02*
D03*
X358000D02*
D03*
X959000Y740000D02*
D03*
X976000D02*
D03*
X959000Y389600D02*
D03*
X976000D02*
D03*
X375000Y184450D02*
D03*
X358000D02*
D03*
X988500Y110000D02*
D03*
X971500D02*
D03*
X1064000Y281000D02*
D03*
X1047000D02*
D03*
X1064000Y255950D02*
D03*
X1047000D02*
D03*
D24*
X310000Y38000D02*
D03*
X338000D02*
D03*
X310000Y184450D02*
D03*
X338000D02*
D03*
D25*
X271500Y37300D02*
D03*
Y88100D02*
D03*
X882500Y764600D02*
D03*
Y815400D02*
D03*
X881500Y414600D02*
D03*
Y465400D02*
D03*
X271500Y183600D02*
D03*
Y234400D02*
D03*
D26*
X170000Y62700D02*
D03*
X781000Y790000D02*
D03*
X780000Y440000D02*
D03*
X170000Y209000D02*
D03*
D27*
X368700Y120000D02*
D03*
X336000D02*
D03*
X943300Y765000D02*
D03*
X976000D02*
D03*
X943800Y414600D02*
D03*
X976500D02*
D03*
X368800Y265000D02*
D03*
X336100D02*
D03*
D28*
X335550Y79000D02*
D03*
Y98000D02*
D03*
X354450Y88500D02*
D03*
X336100Y225500D02*
D03*
Y244500D02*
D03*
X355000Y235000D02*
D03*
D29*
X70000Y805000D02*
D03*
Y845000D02*
D03*
X1140000Y70000D02*
D03*
Y30000D02*
D03*
D30*
X162500Y845000D02*
D03*
Y805000D02*
D03*
X1047500Y30000D02*
D03*
Y70000D02*
D03*
D31*
X890500Y215000D02*
D03*
X869500D02*
D03*
D32*
X1120000Y284000D02*
D03*
Y305000D02*
D03*
Y234500D02*
D03*
Y255500D02*
D03*
Y185000D02*
D03*
Y206000D02*
D03*
D33*
X412250Y315400D02*
D03*
Y290000D02*
D03*
Y264600D02*
D03*
Y239200D02*
D03*
X587750Y315400D02*
D03*
Y290000D02*
D03*
Y264600D02*
D03*
Y239200D02*
D03*
Y340800D02*
D03*
X412250D02*
D03*
D34*
X500000Y233800D02*
D03*
Y346200D02*
D03*
D35*
X1145000Y251000D02*
D03*
Y235000D02*
D03*
X1010000Y150000D02*
D03*
Y166000D02*
D03*
X795000Y113000D02*
D03*
Y97000D02*
D03*
D36*
X556400Y90000D02*
D03*
Y115400D02*
D03*
Y140800D02*
D03*
Y166200D02*
D03*
X440000Y90000D02*
D03*
Y115400D02*
D03*
Y140800D02*
D03*
Y166200D02*
D03*
D37*
X626000Y166000D02*
D03*
Y153300D02*
D03*
Y140600D02*
D03*
Y127900D02*
D03*
X673000Y166000D02*
D03*
Y153300D02*
D03*
Y140600D02*
D03*
Y127900D02*
D03*
X1023500Y255950D02*
D03*
Y268650D02*
D03*
Y281350D02*
D03*
Y294050D02*
D03*
X976500Y255950D02*
D03*
Y268650D02*
D03*
Y281350D02*
D03*
Y294050D02*
D03*
M02*
