G04*
G04 #@! TF.GenerationSoftware,Altium Limited,Altium Designer,18.1.7 (191)*
G04*
G04 Layer_Color=8388736*
%FSLAX44Y44*%
%MOMM*%
G71*
G01*
G75*
%ADD14C,0.2540*%
%ADD36R,1.0532X1.5032*%
%ADD37R,1.5032X1.0532*%
%ADD38R,1.9032X1.1532*%
%ADD39O,1.8532X0.8032*%
%ADD40R,1.1532X1.5532*%
%ADD41R,1.1032X1.6032*%
%ADD42R,3.7032X1.1532*%
%ADD43R,8.4032X10.6532*%
%ADD44R,1.1132X1.4232*%
%ADD45R,1.3132X1.0032*%
%ADD46R,6.2032X2.2032*%
%ADD47R,3.7032X2.2032*%
%ADD48C,1.1938*%
%ADD49R,1.9832X0.9532*%
%ADD50R,6.5532X3.3732*%
%ADD51R,1.5532X1.1532*%
%ADD52R,1.1632X0.8632*%
%ADD53O,2.1032X0.8032*%
%ADD54C,1.8532*%
%ADD55R,1.8532X1.8532*%
%ADD56C,1.7272*%
%ADD57C,2.3032*%
%ADD58R,1.8532X1.8532*%
%ADD59R,2.0032X2.0032*%
%ADD60C,2.0032*%
%ADD61C,1.7032*%
%ADD62C,1.1032*%
%ADD63C,0.9032*%
D14*
X480000Y761900D02*
X521900D01*
X521900Y468100D02*
X521900Y761900D01*
X480000Y468100D02*
X521900D01*
X480000D02*
X480000Y761900D01*
X0Y0D02*
Y900000D01*
X1210000D01*
X1210000Y0D01*
X0D02*
X1210000D01*
D36*
X888500Y215000D02*
D03*
X871500D02*
D03*
X763000Y195000D02*
D03*
X780000D02*
D03*
X988500Y90000D02*
D03*
X971500D02*
D03*
X826500Y215000D02*
D03*
X843500D02*
D03*
X988500Y150000D02*
D03*
X971500D02*
D03*
X375000Y38002D02*
D03*
X358000D02*
D03*
X959000Y740000D02*
D03*
X976000D02*
D03*
X959000Y389600D02*
D03*
X976000D02*
D03*
X375000Y184450D02*
D03*
X358000D02*
D03*
X988500Y110000D02*
D03*
X971500D02*
D03*
X1064000Y281000D02*
D03*
X1047000D02*
D03*
X1064000Y255950D02*
D03*
X1047000D02*
D03*
D37*
X1120000Y187000D02*
D03*
Y204000D02*
D03*
Y236500D02*
D03*
Y253500D02*
D03*
Y286000D02*
D03*
Y303000D02*
D03*
X939000Y315000D02*
D03*
Y298000D02*
D03*
X915000D02*
D03*
Y315000D02*
D03*
X780000Y306500D02*
D03*
Y323500D02*
D03*
X921000Y782000D02*
D03*
Y765000D02*
D03*
Y431600D02*
D03*
Y414600D02*
D03*
X375000Y244000D02*
D03*
Y227000D02*
D03*
Y98500D02*
D03*
Y81500D02*
D03*
X310000Y235000D02*
D03*
Y218000D02*
D03*
Y88500D02*
D03*
Y71500D02*
D03*
X890000Y315000D02*
D03*
Y298000D02*
D03*
X590000Y107000D02*
D03*
Y90000D02*
D03*
D38*
X935000Y601000D02*
D03*
Y629000D02*
D03*
X988500Y38000D02*
D03*
Y66000D02*
D03*
X1145000Y601000D02*
D03*
Y629000D02*
D03*
D39*
X845500Y184450D02*
D03*
Y171750D02*
D03*
Y159050D02*
D03*
Y146350D02*
D03*
Y133650D02*
D03*
Y120950D02*
D03*
Y108250D02*
D03*
Y95550D02*
D03*
X914500Y184450D02*
D03*
Y171750D02*
D03*
Y159050D02*
D03*
Y146350D02*
D03*
Y133650D02*
D03*
Y120950D02*
D03*
Y108250D02*
D03*
Y95550D02*
D03*
D40*
X898500Y69000D02*
D03*
X914500D02*
D03*
X972000Y190000D02*
D03*
X988000D02*
D03*
X780000Y172000D02*
D03*
X764000D02*
D03*
X641500Y186950D02*
D03*
X657500D02*
D03*
X641500Y206950D02*
D03*
X657500D02*
D03*
X972000Y170000D02*
D03*
X988000D02*
D03*
X827000Y235000D02*
D03*
X843000D02*
D03*
X972000Y130000D02*
D03*
X988000D02*
D03*
X1008000Y237000D02*
D03*
X992000D02*
D03*
X1008000Y218000D02*
D03*
X992000D02*
D03*
D41*
X310000Y38000D02*
D03*
X338000D02*
D03*
X310000Y184450D02*
D03*
X338000D02*
D03*
D42*
X271500Y37300D02*
D03*
Y88100D02*
D03*
X882500Y764600D02*
D03*
Y815400D02*
D03*
X881500Y414600D02*
D03*
Y465400D02*
D03*
X271500Y183600D02*
D03*
Y234400D02*
D03*
D43*
X170000Y62700D02*
D03*
X781000Y790000D02*
D03*
X780000Y440000D02*
D03*
X170000Y209000D02*
D03*
D44*
X368700Y120000D02*
D03*
X336000D02*
D03*
X943300Y765000D02*
D03*
X976000D02*
D03*
X943800Y414600D02*
D03*
X976500D02*
D03*
X368800Y265000D02*
D03*
X336100D02*
D03*
D45*
X335550Y79000D02*
D03*
Y98000D02*
D03*
X354450Y88500D02*
D03*
X336100Y225500D02*
D03*
Y244500D02*
D03*
X355000Y235000D02*
D03*
D46*
X70000Y805000D02*
D03*
Y845000D02*
D03*
X1140000Y70000D02*
D03*
Y30000D02*
D03*
D47*
X162500Y845000D02*
D03*
Y805000D02*
D03*
X1047500Y30000D02*
D03*
Y70000D02*
D03*
D48*
X1145000Y305000D02*
D03*
Y280000D02*
D03*
Y185000D02*
D03*
D49*
X412250Y315400D02*
D03*
Y290000D02*
D03*
Y264600D02*
D03*
Y239200D02*
D03*
X587750Y315400D02*
D03*
Y290000D02*
D03*
Y264600D02*
D03*
Y239200D02*
D03*
Y340800D02*
D03*
X412250D02*
D03*
D50*
X500000Y233800D02*
D03*
Y346200D02*
D03*
D51*
X1145000Y251000D02*
D03*
Y235000D02*
D03*
X1010000Y150000D02*
D03*
Y166000D02*
D03*
X795000Y113000D02*
D03*
Y97000D02*
D03*
D52*
X556400Y90000D02*
D03*
Y115400D02*
D03*
Y140800D02*
D03*
Y166200D02*
D03*
X440000Y90000D02*
D03*
Y115400D02*
D03*
Y140800D02*
D03*
Y166200D02*
D03*
D53*
X626000Y166000D02*
D03*
Y153300D02*
D03*
Y140600D02*
D03*
Y127900D02*
D03*
X673000Y166000D02*
D03*
Y153300D02*
D03*
Y140600D02*
D03*
Y127900D02*
D03*
X1023500Y255950D02*
D03*
Y268650D02*
D03*
Y281350D02*
D03*
Y294050D02*
D03*
X976500Y255950D02*
D03*
Y268650D02*
D03*
Y281350D02*
D03*
Y294050D02*
D03*
D54*
X830000Y577500D02*
D03*
X147500Y478100D02*
D03*
X1040000Y577500D02*
D03*
X147500Y675000D02*
D03*
D55*
X830000Y652500D02*
D03*
X1040000D02*
D03*
D56*
X462500Y870000D02*
D03*
X537500D02*
D03*
D57*
X1138100Y751900D02*
D03*
X1112700D02*
D03*
X1087300D02*
D03*
X1061900D02*
D03*
X1138100Y828100D02*
D03*
X1112700D02*
D03*
X1087300D02*
D03*
X1061900D02*
D03*
X1138100Y401900D02*
D03*
X1112700D02*
D03*
X1087300D02*
D03*
X1061900D02*
D03*
X1138100Y478100D02*
D03*
X1112700D02*
D03*
X1087300D02*
D03*
X1061900D02*
D03*
D58*
X72500D02*
D03*
Y675000D02*
D03*
D59*
X640000Y440000D02*
D03*
D60*
Y490000D02*
D03*
Y540000D02*
D03*
Y590000D02*
D03*
Y640000D02*
D03*
Y690000D02*
D03*
Y740000D02*
D03*
Y790000D02*
D03*
X290000D02*
D03*
Y740000D02*
D03*
Y690000D02*
D03*
Y640000D02*
D03*
Y590000D02*
D03*
Y540000D02*
D03*
Y490000D02*
D03*
Y440000D02*
D03*
D61*
X298000Y330000D02*
D03*
X148000D02*
D03*
D62*
X971000Y38000D02*
D03*
X1120000Y170000D02*
D03*
X1176000Y719000D02*
D03*
X976000Y720000D02*
D03*
X778000Y97000D02*
D03*
Y113000D02*
D03*
X641500Y223000D02*
D03*
X1024500Y218000D02*
D03*
X975000D02*
D03*
X1180000Y30000D02*
D03*
Y70000D02*
D03*
X1010000Y110000D02*
D03*
Y190000D02*
D03*
X939000Y328250D02*
D03*
X971000Y66000D02*
D03*
X885500Y69000D02*
D03*
X657500Y223000D02*
D03*
X613000Y264600D02*
D03*
X763000Y210750D02*
D03*
X856000Y235000D02*
D03*
X921000Y445400D02*
D03*
Y796600D02*
D03*
X869400Y475400D02*
D03*
X891170D02*
D03*
Y455400D02*
D03*
X869400D02*
D03*
X870400Y825400D02*
D03*
X892170D02*
D03*
Y805400D02*
D03*
X870400D02*
D03*
X260000Y225000D02*
D03*
X281770D02*
D03*
Y245000D02*
D03*
X260000D02*
D03*
X521900Y260000D02*
D03*
X501000D02*
D03*
X480000D02*
D03*
X70000Y780000D02*
D03*
X162500D02*
D03*
X1145000Y582942D02*
D03*
X935000Y586925D02*
D03*
X870000Y159050D02*
D03*
X858740Y146350D02*
D03*
X955000Y281350D02*
D03*
X947000Y133650D02*
D03*
X1023500Y307000D02*
D03*
D63*
X1120000Y220250D02*
D03*
M02*
